<?xml version="1.0" encoding="utf-8"?>
<!-- Generator: Adobe Illustrator 23.0.1, SVG Export Plug-In . SVG Version: 6.00 Build 0)  -->
<svg version="1.1" xmlns="http://www.w3.org/2000/svg" xmlns:xlink="http://www.w3.org/1999/xlink" x="0px" y="0px"
	 viewBox="0 0 1440 160" style="enable-background:new 0 0 1440 160;" xml:space="preserve">
<style type="text/css">
	.st0{fill:#FFFFFF;}
	.st1{clip-path:url(#SVGID_2_);fill:#FFFFFF;}
</style>
<g id="Layer_2">
</g>
<g id="Layer_1">
	<g>
		<path class="st0" d="M379.3,36.5c-0.1,0-0.3-0.1-0.3-0.3v-1.7h-0.5c-0.1,0-0.2-0.1-0.2-0.2c0-0.1,0.1-0.2,0.2-0.2h1.5
			c0.1,0,0.2,0.1,0.2,0.2c0,0.1-0.1,0.2-0.2,0.2h-0.5v1.7C379.5,36.4,379.4,36.5,379.3,36.5L379.3,36.5L379.3,36.5z M383,36.5
			c-0.1,0-0.3-0.1-0.3-0.3v-1.5l-0.6,1.7c0,0.1-0.1,0.1-0.1,0.1c-0.1,0-0.1,0-0.1-0.1l-0.6-1.7v1.5c0,0.1-0.1,0.3-0.3,0.3
			c-0.1,0-0.3-0.1-0.3-0.3v-1.8c0-0.2,0.2-0.4,0.4-0.4c0.2,0,0.3,0.1,0.4,0.3l0.5,1.3l0.5-1.3c0.1-0.2,0.2-0.3,0.4-0.3
			c0.2,0,0.4,0.2,0.4,0.4v1.8C383.2,36.4,383.1,36.5,383,36.5L383,36.5L383,36.5z"/>
		<path class="st0" d="M246.7,33.3c0-0.9,0.3-1.7,0.7-2.3c-1.4,0.4-2.4,1.7-2.4,3.2v2.7l1.7,0.1V33.3L246.7,33.3z"/>
		<path class="st0" d="M245,51.6c0,1.5,1,2.8,2.4,3.2c-0.5-0.7-0.7-1.5-0.7-2.3v-5H245V51.6L245,51.6z"/>
		<path class="st0" d="M249.2,47.4h-1.7v5c0,1.5,1,2.8,2.4,3.2c-0.5-0.7-0.7-1.5-0.7-2.3V47.4L249.2,47.4z"/>
		<path class="st0" d="M249.2,32.4c0-0.9,0.3-1.7,0.7-2.3c-1.4,0.4-2.4,1.7-2.4,3.2v3.6l1.7,0.1V32.4L249.2,32.4z"/>
		<path class="st0" d="M230.4,31.4c-1.2,0.7-2,2-2,3.6v15.8c0,1.5,0.8,2.8,2,3.6c-0.2-0.6-0.4-1.2-0.4-1.9V33.3
			C230,32.6,230.2,32,230.4,31.4L230.4,31.4z"/>
		<path class="st0" d="M232.5,31.6c0-0.7,0.1-1.3,0.4-1.9c-1.2,0.7-2,2-2,3.6v19.2c0,1.8,1.1,3.3,2.7,3.9c-0.7-0.8-1.1-1.9-1.1-3.1
			V31.6L232.5,31.6z"/>
		<path class="st0" d="M253.3,29.1c-1.8,0-3.3,1.5-3.3,3.3v5.4l-8.3-0.4v-5.8c0-2.3-1.9-4.2-4.2-4.2c-2.3,0-4.2,1.9-4.2,4.2v21.6
			c0,2.3,1.9,4.2,4.2,4.2c2.3,0,4.2-1.9,4.2-4.2v-6.7h8.3v6.7c0,1.8,1.5,3.3,3.3,3.3s3.3-1.5,3.3-3.3V32.4
			C256.7,30.6,255.2,29.1,253.3,29.1L253.3,29.1z"/>
		<path class="st0" d="M282.1,49.4v-6.2h-9v6.2c0,0.7-0.5,1.2-1.2,1.2c-0.7,0-1.2-0.6-1.2-1.2V35.3c0-0.7,0.6-1.2,1.2-1.2
			c0.7,0,1.2,0.6,1.2,1.2v5.7h9v-5.7c0-0.7,0.5-1.2,1.2-1.2c0.7,0,1.2,0.6,1.2,1.2v14.1c0,0.7-0.5,1.2-1.2,1.2
			C282.6,50.6,282.1,50.1,282.1,49.4L282.1,49.4z"/>
		<path class="st0" d="M286.2,44.6c0-3.4,2.3-6.2,5.9-6.2c3.7,0,5.9,2.8,5.9,6.2c0,3.4-2.3,6.2-5.9,6.2
			C288.5,50.8,286.2,48,286.2,44.6L286.2,44.6z M295.9,44.6c0-2.2-1.3-4.2-3.7-4.2c-2.3,0-3.7,2-3.7,4.2c0,2.2,1.3,4.2,3.7,4.2
			C294.6,48.8,295.9,46.8,295.9,44.6L295.9,44.6z"/>
		<path class="st0" d="M310.9,38.4c3.5,0,5.7,2.8,5.7,5.8c0,0.7-0.5,1-1.3,1h-8c0.2,2,1.6,3.7,4,3.7c1,0,2-0.3,2.9-1
			c0.1-0.1,0.3-0.1,0.5-0.1c0.5,0,0.9,0.4,0.9,0.9c0,0.3-0.1,0.6-0.4,0.7c-1.2,0.9-2.6,1.3-4.1,1.3c-3.5,0-6.1-2.5-6.1-6.2
			C305,41.2,307.5,38.4,310.9,38.4L310.9,38.4z M307.3,43.7h7.2c0-1.6-1.1-3.5-3.6-3.5C308.5,40.2,307.4,42.1,307.3,43.7L307.3,43.7
			z"/>
		<path class="st0" d="M318,49.5V35.2c0-0.6,0.5-1.1,1.1-1.1c0.6,0,1.1,0.5,1.1,1.1v14.3c0,0.6-0.5,1.1-1.1,1.1
			C318.5,50.6,318,50.1,318,49.5L318,49.5z"/>
		<path class="st0" d="M321.6,48.7c0-0.5,0.4-1,1-1c0.2,0,0.4,0.1,0.5,0.2c0.9,0.7,2.1,1.1,3.3,1.1c1.7,0,2.5-0.7,2.5-1.7
			c0-1.2-1.3-1.6-2.9-1.9c-2-0.5-4.3-1-4.3-3.5c0-1.9,1.6-3.5,4.5-3.5c1.6,0,2.9,0.5,3.9,1.2c0.2,0.2,0.4,0.4,0.4,0.7
			c0,0.5-0.4,0.9-0.9,0.9c-0.2,0-0.4-0.1-0.5-0.2c-0.8-0.6-1.8-0.9-2.9-0.9c-1.5,0-2.4,0.6-2.4,1.5c0,1,1.3,1.4,2.7,1.7
			c2,0.5,4.5,1,4.5,3.7c0,2-1.7,3.6-4.8,3.6c-1.6,0-3.1-0.4-4.3-1.3C321.8,49.3,321.6,49,321.6,48.7L321.6,48.7z"/>
		<path class="st0" d="M334,47.7c0.8,0,1.5,0.7,1.5,1.5c0,0.8-0.7,1.5-1.5,1.5c-0.8,0-1.5-0.7-1.5-1.5
			C332.4,48.4,333.1,47.7,334,47.7L334,47.7z"/>
		<path class="st0" d="M346.9,44.6c0-3.4,2.3-6.2,5.9-6.2c3.7,0,5.9,2.8,5.9,6.2c0,3.4-2.3,6.2-5.9,6.2
			C349.2,50.8,346.9,48,346.9,44.6L346.9,44.6z M356.5,44.6c0-2.2-1.3-4.2-3.7-4.2c-2.3,0-3.7,2-3.7,4.2c0,2.2,1.3,4.2,3.7,4.2
			C355.2,48.8,356.5,46.8,356.5,44.6L356.5,44.6z"/>
		<path class="st0" d="M376.9,42v7.5c0,0.6-0.5,1.1-1.1,1.1c-0.6,0-1.1-0.5-1.1-1.1v-6.9c0-1.4-0.6-2-2-2c-1.2,0-2.4,1.3-2.9,2.2
			v6.7c0,0.6-0.5,1.1-1.1,1.1c-0.6,0-1.1-0.5-1.1-1.1v-6.9c0-1.4-0.6-2-2.1-2c-1.1,0-2.3,1.4-2.9,2.3v6.6c0,0.6-0.5,1.1-1.1,1.1
			c-0.6,0-1.1-0.5-1.1-1.1v-9.8c0-0.6,0.5-1.1,1.1-1.1c0.6,0,1.1,0.5,1.1,1.1v0.7c0.5-0.7,2-1.9,3.8-1.9c1.8,0,2.8,0.9,3.2,2.2
			c0.7-1.1,2.3-2.2,4-2.2C375.8,38.4,376.9,39.6,376.9,42L376.9,42z"/>
		<path class="st0" d="M342.1,38.4c1.7,0,2.8,0.5,3.8,1.4c0.2,0.2,0.3,0.5,0.3,0.7c0,0.6-0.4,1-1,1c-0.3,0-0.5-0.1-0.7-0.2
			c-0.7-0.6-1.4-0.9-2.4-0.9c-2.3,0-3.8,1.8-3.8,4.2c0,2.4,1.5,4.2,3.8,4.2c1.6,0.1,3.1-1.1,4.4-3.1c0.2-0.2,0.4-0.7,0.6-0.9
			c0.4-0.5,0.6-0.2,0.8,0c0.4,0.4,0.4,1.4,0.1,1.8c-0.7,1.3-1.3,1.9-2,2.6c-0.9,0.9-2.4,1.5-4,1.5c-3.6,0-6-2.7-6-6.2
			C336.1,41.1,338.5,38.4,342.1,38.4L342.1,38.4z"/>
		<path class="st0" d="M306.6,48.7c0,0.4-1.2,1.3-2,1.8c-0.5,0.2-1,0.3-1.7,0.3c-1.9,0-2.8-1-2.8-2.9v-7.2h-1.1c-0.5,0-1-0.4-1-1
			c0-0.5,0.5-1,1-1h1.1v-2.2c0-0.6,0.5-1.1,1.1-1.1c0.6,0,1.1,0.5,1.1,1.1v2.2h1.5c0.5,0,1,0.4,1,1c0,0.5-0.4,1-1,1h-1.5v6.8
			c0,0.8,0.4,1.4,1.1,1.4c1.3,0,2.4-2.1,3-2.1C306.9,46.7,306.6,48.1,306.6,48.7L306.6,48.7z"/>
	</g>
	<g>
		<g>
			<path class="st0" d="M1370.6,52.7l6.7-15.3c0.1-0.2,0-0.4-0.3-0.4h-4.7c-0.3,0-0.6,0.2-0.7,0.4l-6.7,15.3c-0.1,0.2,0,0.4,0.3,0.4
				h4.6C1370.2,53.1,1370.5,52.9,1370.6,52.7z"/>
			<polygon class="st0" points="1394.8,48.6 1405.2,37 1393,37 1390.2,41.5 1395,41.5 1384.4,53.1 1397.3,53.1 1402.2,48.6 
				1394.8,48.6 			"/>
			<path class="st0" d="M1349.9,37h-8.1l0,0c-0.4,0-1,0.3-1.1,0.8l-6.4,14.6c-0.2,0.4,0,0.8,0.5,0.8h4c0.5,0,1-0.3,1.2-0.8l1.8-4.1
				h1.9c0.6,0,0.8,0.2,0.5,0.9l-1.4,3.3c-0.2,0.4,0,0.8,0.5,0.8h4c0.4,0,1-0.3,1.1-0.8l1.8-4.2c0.6-1.4-0.3-2.4-1.5-2.5
				c1.1-0.4,2-1.4,2.5-2.4l0.9-2.2C1353.4,38.5,1352.6,37,1349.9,37z M1347.6,41.6l-1,2.2c-0.2,0.5-0.6,0.6-0.9,0.6h-2.3l1.5-3.4
				h2.2C1347.6,41,1347.8,41.2,1347.6,41.6z"/>
			<path class="st0" d="M1365.7,37h-8.6c-0.3,0-0.7,0.2-0.8,0.5l-6.6,15.1c-0.1,0.3,0,0.5,0.4,0.5h9.2c2.9,0,4.6-0.7,5.9-3.8
				l0.9-2.1c0.7-1.8,0-2.5-1.4-2.7c1.2-0.4,2-1.4,2.4-2.4l0.8-1.6C1368.9,38.3,1368.1,37,1365.7,37z M1361.5,47.1l-0.6,1.2
				c-0.3,0.8-0.8,1-1.5,1h-2.7l1.3-3h2.7C1361.5,46.3,1361.8,46.5,1361.5,47.1z M1363.1,41.7l-0.4,0.9l-0.1,0.1
				c-0.2,0.5-0.5,0.6-0.9,0.6h-2.3l1.1-2.5h2.4C1363.2,40.9,1363.3,41.2,1363.1,41.7z"/>
			<path class="st0" d="M1378.8,37l-2,4.5h2.9c0.2,0,0.3,0.1,0.2,0.3l-5,11c-0.1,0.2,0,0.3,0.2,0.3h5.1c0.2,0,0.4-0.1,0.5-0.3
				l4.8-11c0.1-0.2,0.3-0.3,0.5-0.3h2.9l2.7-4.5H1378.8z"/>
			<path class="st0" d="M1336.7,42.5l0.6-1.4c1.3-2.9,0.4-4.1-2.1-4.1h-6c-2.5,0-4.5,1.4-5.7,3.9l-1.9,5.2h-1.7l3.3,4.5l5.5-4.5
				h-1.4l1.6-3.8c0.3-0.6,0.7-0.9,1.2-0.9h0.9c0.2,0,0.4,0.1,0.5,0.2l2.9-2.5L1336.7,42.5z"/>
			<path class="st0" d="M1323.2,52l-2.5-3.1l-0.1,0.3c-1.1,2.6-1,3.9,1.5,3.9h5.9c2.4,0,4.6-1.3,5.7-3.9l1.8-4h1.6l-2.7-4.5
				l-5.5,4.5h1.5l-1.1,2.6c-0.3,0.5-0.7,0.8-1.1,0.9h-0.8L1323.2,52z"/>
		</g>
		<g>
			<path class="st0" d="M1407.2,36.9c0.2,0,0.4,0.1,0.6,0.2c0.2,0.2,0.2,0.3,0.2,0.6c0,0.2-0.1,0.4-0.2,0.6
				c-0.2,0.2-0.3,0.2-0.6,0.2s-0.4-0.1-0.6-0.2c-0.2-0.2-0.2-0.3-0.2-0.6c0-0.2,0.1-0.4,0.2-0.6C1406.8,37,1407,36.9,1407.2,36.9z
				 M1407.2,38.3c0.2,0,0.3-0.1,0.5-0.2c0.1-0.1,0.2-0.3,0.2-0.5c0-0.2-0.1-0.3-0.2-0.5c-0.1-0.1-0.3-0.2-0.5-0.2
				c-0.2,0-0.3,0.1-0.5,0.2c-0.1,0.1-0.2,0.3-0.2,0.5c0,0.2,0.1,0.3,0.2,0.5C1406.8,38.3,1407,38.3,1407.2,38.3z M1407.6,38.1h-0.2
				l-0.2-0.3h-0.1v0.3h-0.2v-0.8h0.3c0.1,0,0.2,0,0.2,0.1c0.1,0,0.1,0.1,0.1,0.2c0,0.1-0.1,0.2-0.2,0.2L1407.6,38.1z M1407.1,37.7
				L1407.1,37.7c0.2,0,0.2,0,0.2-0.1c0-0.1-0.1-0.1-0.2-0.1h-0.1V37.7z"/>
		</g>
	</g>
	<g id="Expedia_1_">
		<g>
			<path class="st0" d="M94.9,50.9H91c0,0,0,0,0,0l-3.3-4.1l-3.3,4.1c0,0,0,0,0,0h-3.1c0,0,0,0,0,0c0,0,0,0,0,0l4.9-6l-4.8-6
				c0,0,0,0,0-0.1c0,0,0,0,0,0h3.9c0,0,0,0,0,0l2.9,3.6l3-3.6c0,0,0,0,0,0h3.1c0,0,0,0,0,0c0,0,0,0,0,0.1l-4.6,5.5L94.9,50.9
				C94.9,50.8,95,50.8,94.9,50.9C94.9,50.9,94.9,50.9,94.9,50.9L94.9,50.9z"/>
			<path class="st0" d="M121.4,45.6C121.4,45.6,121.3,45.6,121.4,45.6l-8.9,0c0.2,2.1,1.5,3.2,3.7,3.2c1.3,0,2.7-0.5,4.7-1.5
				c0,0,0.1,0,0.1,0l0,2.7c0,0,0,0,0,0c-1.9,0.8-3.7,1.3-5.2,1.3l0,0c-3.8,0-6.6-2.8-6.6-6.6c0-3.8,2.8-6.6,6.6-6.6
				c3.5,0,5.7,2.3,5.7,5.5C121.5,44.3,121.4,45.6,121.4,45.6z M115.8,40.9c-1.7,0-2.9,1-3.2,2.8h5.8v-0.1
				C118.4,42.2,117.3,40.9,115.8,40.9L115.8,40.9z"/>
			<path class="st0" d="M137.7,50.9C137.7,50.9,137.7,50.9,137.7,50.9l0-12.1c0,0,0,0,0,0h3.2c0,0,0,0,0,0v12c0,0,0,0,0,0H137.7z
				 M139.3,36.3c-1.1,0-2-0.9-2-1.9c0-1.1,0.9-2,2-2c1.1,0,2,0.9,2,2C141.3,35.4,140.4,36.3,139.3,36.3L139.3,36.3z"/>
			<path class="st0" d="M101.6,38.3c-0.9,0-1.8,0.2-2.8,0.5h-3.2c0,0,0,0,0,0v19.7c1-0.1,2.1-0.5,3.3-1.3v-6
				c0.8,0.1,1.4,0.2,2.1,0.2c4.3,0,7.2-2.6,7.2-6.6C108.1,41,105.4,38.3,101.6,38.3z M100.7,49.1c-0.6,0-1.2-0.1-1.8-0.3l0-7.7
				c0.8-0.3,1.5-0.4,2.2-0.4c2.2,0,3.7,1.6,3.7,4.1C104.8,47.4,103.2,49.1,100.7,49.1z"/>
			<path class="st0" d="M131.9,32.4v6.3c-0.9-0.3-1.7-0.4-2.6-0.4c-3.8,0-6.6,2.8-6.6,6.6c0,3.8,2.5,6.5,6,6.5c1.2,0,2.3-0.3,3.6-1
				l0,1.1c0.9-0.2,1.9-0.5,2.9-1.2V31.1C134.2,31.2,133.1,31.6,131.9,32.4z M131.9,48.1c-1,0.5-1.9,0.8-2.7,0.8
				c-2,0-3.1-1.4-3.1-3.7c0-2.7,1.5-4.4,3.8-4.4c0.6,0,1.3,0.2,2,0.5V48.1z"/>
			<path class="st0" d="M155.2,38.6c0-0.1-0.1-0.1-0.1-0.1l-2.6,0c-0.1,0-0.1,0.1-0.1,0.1v0.4h-0.1c-1.2-0.5-2.2-0.8-3.2-0.8
				c-3.6,0-6.4,3-6.4,6.7c0,3.8,2.5,6.4,6.2,6.4c1,0,2.3-0.1,3.5-1.4v1.5c0.8-0.2,1.8-0.5,2.8-1.2L155.2,38.6z M152,48.1
				c-1,0.5-1.8,0.8-2.5,0.8c-2.1,0-3.4-1.4-3.4-3.7c0-2.7,1.5-4.4,3.7-4.4c0.6,0,1.3,0.2,2.2,0.7V48.1z"/>
			<path class="st0" d="M72.4,47.9h8c-0.1,0.9-0.4,1.9-1.1,3h-6.9h-1.4c0,0-0.1,0-0.1,0c-1,0-1.9-0.8-2-1.8c0,0,0,0,0,0v-8.2v-7.6
				c0,0,0,0,0,0c0.1-1,0.9-1.8,2-1.8c0,0,0.1,0,0.1,0h9.3c-0.1,0.9-0.4,2-1.1,3h-6.9v4.3h6.8c0,0,0,0,0,0v3c0,0,0,0,0,0h-6.8V47.9
				L72.4,47.9z"/>
		</g>
		<g>
			<path class="st0" d="M62.4,48.2c-0.8,0-1.5,0.6-1.5,1.5c0,0.9,0.6,1.5,1.5,1.5c0.8,0,1.5-0.6,1.5-1.5
				C63.9,48.8,63.2,48.2,62.4,48.2z M62.4,51.1c-0.8,0-1.3-0.6-1.3-1.4c0-0.8,0.6-1.4,1.3-1.4c0.7,0,1.3,0.6,1.3,1.4
				C63.7,50.6,63.1,51.1,62.4,51.1z"/>
			<path class="st0" d="M63.1,49.4c0-0.4-0.2-0.5-0.7-0.5h-0.7v1.8h0.3v-0.8h0.3l0.5,0.8h0.3l-0.5-0.8
				C62.9,49.8,63.1,49.7,63.1,49.4z M62.1,49.6v-0.6h0.4c0.2,0,0.4,0,0.4,0.3c0,0.3-0.2,0.3-0.4,0.3H62.1z"/>
		</g>
		<g>
			<path class="st0" d="M157.9,37.9c-0.8,0-1.5,0.6-1.5,1.5c0,0.9,0.6,1.5,1.5,1.5c0.8,0,1.5-0.6,1.5-1.5
				C159.4,38.5,158.7,37.9,157.9,37.9z M157.9,40.8c-0.8,0-1.3-0.6-1.3-1.4c0-0.8,0.6-1.4,1.3-1.4c0.7,0,1.3,0.6,1.3,1.4
				C159.1,40.2,158.6,40.8,157.9,40.8z"/>
			<path class="st0" d="M158.6,39c0-0.4-0.2-0.5-0.7-0.5h-0.7v1.8h0.3v-0.8h0.3l0.5,0.8h0.3l-0.5-0.8
				C158.4,39.5,158.6,39.3,158.6,39z M157.5,39.3v-0.6h0.4c0.2,0,0.4,0,0.4,0.3c0,0.3-0.2,0.3-0.4,0.3H157.5z"/>
		</g>
		<g>
			<path class="st0" d="M52.1,34.5l-0.6-1.6l-4.9-6.6l0.9-0.2l8.5,7.3l5-1.4c0.6-0.2,1.3-0.2,1.8-0.2c-1.6-3.4-4.4-6.2-8.2-7.5
				C47,21.6,38.7,25.5,36.1,33c-0.8,2.3-1,4.7-0.7,7l12-4.2L52.1,34.5z"/>
			<path class="st0" d="M63.2,33.1c-0.4,0.3-1.1,0.7-1.7,0.9l-5,1.4l-3.3,10.7l-0.9,0.3l0.7-8.2l-0.4-1.7l-4.7,1.3l-12.4,2.9
				c1,4.8,4.4,8.9,9.3,10.7c7.5,2.7,15.7-1.2,18.4-8.7C64.4,39.4,64.3,36.1,63.2,33.1z"/>
		</g>
	</g>
	<g id="Trivago_1_">
		<polygon class="st0" points="1201.3,37.7 1206,37.7 1209.5,47.2 1209.6,47.2 1212.8,37.7 1217.2,37.7 1211.7,51.7 1207.1,51.7 		
			"/>
		<path class="st0" d="M1184.4,41.1h-4.2v4.7c0,0.4,0,0.7,0.1,1c0,0.3,0.1,0.6,0.3,0.8c0.1,0.2,0.4,0.4,0.7,0.5
			c0.3,0.1,0.7,0.2,1.2,0.2c0.3,0,0.6,0,1-0.1c0.4,0,0.7-0.2,0.9-0.3v3.6c-0.5,0.2-1.1,0.3-1.6,0.3c-0.6,0.1-1.1,0.1-1.7,0.1
			c-0.8,0-1.5-0.1-2.2-0.2c-0.7-0.1-1.3-0.4-1.8-0.7c-0.5-0.3-0.9-0.8-1.2-1.3c-0.3-0.5-0.4-1.2-0.4-2v-6.6h-3v-3.5h3v-4.1h4.7v4.1
			h4.2V41.1z"/>
		<path class="st0" d="M1185.6,37.7h4.3v2.2h0.1c0.5-0.9,1-1.5,1.6-1.9c0.6-0.4,1.4-0.6,2.4-0.6c0.2,0,0.5,0,0.7,0
			c0.2,0,0.5,0.1,0.7,0.1v3.9c-0.3-0.1-0.6-0.2-0.9-0.2c-0.3,0-0.6-0.1-0.9-0.1c-0.8,0-1.5,0.1-2,0.3c-0.5,0.2-0.8,0.5-1.1,1
			c-0.3,0.4-0.4,0.9-0.5,1.5c-0.1,0.6-0.1,1.2-0.1,1.9v5.8h-4.3V37.7z"/>
		<path class="st0" d="M1196.4,37.7h4.3v14h-4.3V37.7z M1196.3,34c0-0.6,0.2-1.2,0.7-1.6c0.4-0.5,1-0.7,1.6-0.7
			c0.6,0,1.2,0.2,1.6,0.7c0.4,0.4,0.7,1,0.7,1.6c0,0.6-0.2,1.2-0.7,1.6c-0.4,0.5-1,0.7-1.6,0.7c-0.6,0-1.2-0.2-1.6-0.7
			C1196.5,35.1,1196.3,34.6,1196.3,34"/>
		<path class="st0" d="M1224.5,45.5c-0.3,0-0.7,0-1.2,0c-0.5,0-1,0.1-1.4,0.2c-0.4,0.1-0.8,0.3-1.2,0.6c-0.3,0.3-0.5,0.6-0.5,1.1
			c0,0.5,0.2,0.9,0.7,1.2c0.4,0.2,0.9,0.4,1.4,0.4c0.4,0,0.8-0.1,1.2-0.2c0.4-0.1,0.7-0.3,1.1-0.5c0.3-0.2,0.6-0.5,0.7-0.8
			c0.2-0.3,0.3-0.7,0.3-1.2v-0.9H1224.5z M1225.6,49.9L1225.6,49.9c-0.5,0.7-1.2,1.3-2,1.6c-0.8,0.3-1.6,0.5-2.5,0.5
			c-0.6,0-1.3-0.1-1.9-0.3c-0.6-0.2-1.1-0.5-1.6-0.8c-0.5-0.4-0.8-0.8-1.1-1.4c-0.3-0.5-0.4-1.2-0.4-1.9c0-0.8,0.2-1.5,0.4-2.1
			c0.3-0.6,0.7-1,1.2-1.4c0.5-0.4,1.1-0.6,1.7-0.8c0.7-0.2,1.3-0.3,2-0.4c0.7-0.1,1.4-0.2,2.1-0.2c0.7,0,1.3,0,1.9,0
			c0-0.8-0.3-1.4-0.8-1.8c-0.5-0.5-1.2-0.7-1.9-0.7c-0.7,0-1.4,0.1-1.9,0.4c-0.6,0.3-1.1,0.7-1.6,1.2l-2.3-2.4
			c0.8-0.7,1.7-1.3,2.8-1.7c1.1-0.4,2.2-0.6,3.3-0.6c1.3,0,2.3,0.2,3.1,0.5c0.8,0.3,1.5,0.8,2,1.4c0.5,0.6,0.8,1.4,1,2.3
			c0.2,0.9,0.3,1.9,0.3,3.1v7.1h-4V49.9z"/>
		<path class="st0" d="M1249.6,44.7c0,1.1,0.3,1.9,0.8,2.6c0.5,0.7,1.3,1,2.3,1c1,0,1.8-0.3,2.3-1c0.5-0.6,0.8-1.5,0.8-2.6
			c0-1.1-0.3-1.9-0.8-2.6c-0.5-0.6-1.3-1-2.3-1c-1,0-1.8,0.3-2.3,1C1249.9,42.8,1249.6,43.6,1249.6,44.7 M1245.7,44.7
			c0-1.1,0.2-2.1,0.5-3c0.4-0.9,0.9-1.7,1.5-2.3c0.6-0.6,1.4-1.1,2.2-1.5c0.9-0.3,1.8-0.5,2.7-0.5c1,0,1.9,0.2,2.7,0.5
			c0.9,0.3,1.6,0.8,2.2,1.5c0.6,0.6,1.1,1.4,1.5,2.3c0.4,0.9,0.5,1.9,0.5,3c0,1.1-0.2,2.1-0.5,3c-0.4,0.9-0.9,1.7-1.5,2.3
			c-0.6,0.6-1.4,1.1-2.2,1.5c-0.9,0.3-1.8,0.5-2.7,0.5c-1,0-1.9-0.2-2.7-0.5c-0.9-0.3-1.6-0.8-2.2-1.5c-0.6-0.6-1.1-1.4-1.5-2.3
			C1245.9,46.8,1245.7,45.8,1245.7,44.7"/>
		<path class="st0" d="M1262.2,41.4c-1,0-1.8-0.8-1.8-1.8c0-1,0.8-1.8,1.8-1.8c1,0,1.8,0.8,1.8,1.8
			C1264,40.6,1263.2,41.4,1262.2,41.4 M1262.2,37.3c-1.2,0-2.2,1-2.2,2.2c0,1.2,1,2.2,2.2,2.2c1.2,0,2.2-1,2.2-2.2
			C1264.5,38.3,1263.5,37.3,1262.2,37.3"/>
		<path class="st0" d="M1262.5,39.1c0-0.1,0-0.1,0-0.1c0,0-0.1-0.1-0.1-0.1c0,0-0.1,0-0.1,0c0,0-0.1,0-0.2,0h-0.2v0.6h0.2
			c0.1,0,0.1,0,0.2,0c0.1,0,0.1,0,0.1-0.1c0,0,0.1-0.1,0.1-0.1C1262.5,39.2,1262.5,39.2,1262.5,39.1 M1263.4,40.6h-0.7l-0.6-0.8
			h-0.2v0.8h-0.5v-2.2h0.9c0.1,0,0.2,0,0.3,0c0.1,0,0.2,0,0.2,0.1c0.1,0,0.1,0.1,0.2,0.2c0,0.1,0.1,0.2,0.1,0.3c0,0.2,0,0.3-0.1,0.4
			c-0.1,0.1-0.2,0.2-0.3,0.2L1263.4,40.6z"/>
		<path class="st0" d="M1241.1,37.7v1.9l0,0c0,0-0.3-0.4-0.6-0.7c-0.3-0.3-0.6-0.5-1-0.7c-0.4-0.2-0.9-0.4-1.4-0.5
			c-0.5-0.1-1.1-0.2-1.7-0.2c-1,0-1.9,0.2-2.7,0.6c-0.8,0.4-1.5,0.9-2,1.6c-0.5,0.7-0.8,1.4-1,2.3c-0.2,0.9-0.3,1.8-0.3,2.7
			c0,1.1,0.2,2,0.4,3c0.3,0.9,0.6,1.6,1.1,2.2c0.6,0.7,1.3,1.1,2.2,1.5c0.8,0.4,1.8,0.5,2.8,0.5c0.7,0,1.3-0.2,2.1-0.4
			c0.7-0.3,1.5-0.8,1.6-1.4l0,0v1.4c0,1-0.2,1.8-0.8,2.5c-0.6,0.6-1.5,1-2.8,1c-0.9,0-1.4,0-2.3-0.2c-0.8-0.2-1.8-0.6-2.5-1.1
			l-2.1,3.1c1.1,0.8,2.1,1.3,3.3,1.6c1.2,0.3,2.4,0.4,3.7,0.4c2.7,0,4.7-0.7,6-2.1c1.3-1.4,1.9-3.4,1.9-6V37.7H1241.1z M1240,47.2
			c-0.5,0.7-1.3,1-2.3,1c-1,0-1.8-0.3-2.3-1c-0.5-0.6-0.8-1.5-0.8-2.6c0-1.1,0.3-1.9,0.8-2.6c0.5-0.6,1.3-1,2.3-1c1,0,1.8,0.3,2.3,1
			c0.5,0.7,0.8,1.5,0.8,2.6C1240.9,45.7,1240.6,46.6,1240,47.2z"/>
	</g>
	<g>
		<g>
			<g>
				<g>
					<path class="st0" d="M76.7,111.9h1.9v2.2h0c0.9-1.5,1.9-2.4,3.8-2.4v1.5c-1,0-1.8,0.4-2.4,1c-0.8,0.7-1.4,1.9-1.4,3v5.8h-1.9
						V111.9z"/>
					<path class="st0" d="M84,114c0.7-1.3,2.4-2.4,4.6-2.4c2,0,4.3,0.9,4.3,3.3v5.6c0,1.2,0.1,1.8,0.3,2.4h-1.9l-0.2-1.5
						c-0.8,0.9-2.1,1.8-3.9,1.8c-1.8,0-3.6-1-3.6-3.1c0-2.4,2.2-3.7,7.4-4.5V115c0-1.5-1-2-2.4-2c-1.8,0-2.7,1-3,1.7L84,114z
						 M91,117c-3.7,0.6-5.5,1.7-5.5,3.2c0,1,1,1.7,1.9,1.7c1.2,0,2.6-0.8,3.6-1.8V117z"/>
					<path class="st0" d="M100.4,123H98l-3.6-11.2h1.9l3,9.2h0l3-9.2h1.6L100.4,123z"/>
					<path class="st0" d="M119.4,107.2V123h-1.9v-15L119.4,107.2z"/>
					<path class="st0" d="M126.6,123.2c-3.2,0-5-2.6-5-5.8c0-3.2,1.8-5.8,5-5.8c3.2,0,5,2.6,5,5.8
						C131.6,120.7,129.8,123.2,126.6,123.2z M126.6,113c-1.9,0-3.2,1.6-3.2,4.5c0,2.9,1.2,4.5,3.2,4.5c1.9,0,3.2-1.6,3.2-4.5
						C129.8,114.6,128.5,113,126.6,113z"/>
					<path class="st0" d="M140.9,115.2c-0.4-1.4-1.4-2.2-2.8-2.2c-2,0-3.2,1.6-3.2,4.5c0,2.8,1.2,4.5,3.2,4.5c1.5,0,2.3-0.5,3.2-2.1
						l1.6,0.6c-1.2,1.9-2.4,2.8-4.8,2.8c-2.9,0-5-2.2-5-5.8c0-3.6,2.1-5.8,5-5.8c2.4,0,3.8,1.3,4.5,3L140.9,115.2z"/>
					<path class="st0" d="M144.9,111.9h1.9V123h-1.9V111.9z"/>
					<g>
						<path class="st0" d="M72.5,121.9c-0.9,0-1.3-0.3-1.3-0.8v-7.9h2.3l0.4-1.3h-2.7v-4l-1.9,0.8v3.2h-1.7v1.3h1.7v8.2
							c0.2,1.4,1,1.8,2.7,1.8c0.8,0,1.2-0.1,1.7-0.2l0.4-1.3C73.5,121.9,73.1,121.9,72.5,121.9z"/>
					</g>
					<path class="st0" d="M166.9,111.9l-4.1,12.1c-0.9,2.5-2.7,3.2-4.2,3.2c-0.5,0-1.2-0.1-1.5-0.1l0.4-1.3c0.2,0,0.5,0.1,0.9,0.1
						c1,0,2.5-0.2,3.1-2.7l-4.1-11.3h1.7l3.1,8.5h0l2.7-8.5H166.9z"/>
				</g>
				<g>
					<path class="st0" d="M154.2,121.9c-0.9,0-1.3-0.3-1.3-0.8v-7.9h2.3l0.4-1.3h-2.7v-4l-1.9,0.8v3.2h-1.7v1.3h1.7v8.2
						c0.2,1.4,1,1.8,2.7,1.8c0.8,0,1.2-0.1,1.7-0.2l0.4-1.3C155.2,121.9,154.7,121.9,154.2,121.9z"/>
				</g>
			</g>
			<path class="st0" d="M113.7,120.1c-0.7,1.1-1.8,1.8-3.2,1.8c-1.9,0-3.5-1.7-3.5-4.2h7.8v-1c0-3.6-2.3-5.1-4.7-5.1
				c-2.9,0-5,2.2-5,5.8c0,4.1,2.7,5.8,5.3,5.8c2.2,0,3-0.2,4.4-2L113.7,120.1z M110.2,113c1.8,0,2.8,1.4,2.8,3.4h-5.9
				C107.2,114.4,108.3,113,110.2,113z"/>
		</g>
		<rect x="144.9" y="108.1" class="st0" width="1.9" height="1.8"/>
		<path class="st0" d="M37.2,105.2c0.3-0.1,0.6-0.1,0.8-0.2c-0.4-0.5-0.9-0.9-1.3-1.4c-0.1-0.2-0.1-0.2,0-0.3c0.1,0,0-0.2,0.1-0.3
			c0.2-0.1,0.2-0.2,0.3-0.4c0,0,0-0.2,0-0.2c0.1,0,0.1-0.1,0.2,0c0.4,0.4,0.8,0.7,1.2,1c0.5,0.3,1,0.6,1.4,1c0,0,0.2,0.1,0.2,0
			c0.1-0.4,0.2-0.8,0.4-1.2c0.1-0.1,0.1-0.3,0.2-0.4c0.1-0.3,0.4-0.4,0.7-0.6c0.4-0.2,0.9,0,1.1-0.3c0.1-0.1,0.3,0,0.4,0
			c0.3,0.1,0.6,0,0.8,0.3c-0.3,0.8-0.4,1.6-0.6,2.4c0,0.2-0.2,0.4,0,0.5c0.4,0.1,1.4,0,1.5-0.1c0.5,0,1,0,1.6,0.1
			c0.4,0.1,0.7,0.3,1,0.5c0.6,0.4,0.6,1.2,0.5,1.9c0,0-0.3,0.3-0.4,0.3c0,0-0.1-0.2-0.1-0.2c-0.2,0.2-0.6,0.5-0.8,0.6
			c0,0-0.3-0.3-0.5-0.3c-0.5-0.3-1-0.2-1.5-0.2c-0.6,0.1-1.2,0-1.7,0.2c0.2,0.4,0.6,0.6,0.9,0.9c0.5,0.5,1,0.9,1.6,1.4
			c0.4,0.4,0.7,0.6,0.9,1.1c-0.1,0.1,0,0.1-0.1,0.2c-0.1,0-0.1-0.1-0.2-0.1c-0.1,0-0.2,0.1-0.1,0.2c0,0-0.1,0.3-0.2,0.3
			c-0.1,0-0.3,0.2-0.3,0.2c0,0-0.3-0.1-0.3-0.1c0.1,0.1,0.2,0.3,0.1,0.4c-0.2,0-0.3-0.1-0.5-0.2c-0.7-0.6-1.4-1.2-2.1-1.9
			c-0.3-0.3-0.5-0.6-0.8-0.8c-0.5,1.2-0.9,2.1-1.4,3.2c-0.1,0.2-0.2,0.8-0.3,0.8c-0.1,0-0.4-0.4-0.6-0.7c0-0.7,0.1-1,0.1-1.7l0-0.1
			c0-1,0.3-1.9,0.3-2.9c0-0.1-0.1-0.1-0.3-0.1c-1.3-0.1-2.6-0.3-4-0.5c-0.3,0-0.6,0-0.9-0.2c0-0.1-0.2-0.1-0.3-0.1c0,0,0,0-0.1-0.1
			c0.5-0.5,1-1,1.7-1.4C36.4,105.5,37,105.3,37.2,105.2z"/>
		<path class="st0" d="M49.6,112.1c-0.1,0,0-0.1,0-0.1c0.1-0.1,0.2-0.1,0.4-0.1c0.4-0.1,0.7,0,1.1-0.1c0.1,0,0.1-0.1,0.2-0.1
			c0.3-0.1,0.5-0.2,0.8-0.2c0.1,0,0.2-0.1,0.2-0.2c-0.3-0.3-0.6-0.6-0.8-1c-0.1-0.2-0.3-0.4-0.3-0.6c0-0.2,0.2-0.2,0.4-0.1
			c0.8,0.4,1.3,1.1,1.9,1.8c0.1,0.1,0.2-0.2,0.3-0.3c0.3-0.6,0.4-1.2,0.8-1.7c0.1-0.2,0.2-0.4,0.4-0.4c0.3-0.1,0.4-0.2,0.7-0.4
			c0.2-0.1,0.3,0,0.5-0.1c0.1,0,0.2,0.1,0.4,0.1c0.2-0.1,0.4,0,0.6,0c0.1,0.1,0.2,0.2,0.1,0.4c-0.2,0.5-0.3,1-0.6,1.5
			c-0.3,0.4-0.5,0.7-0.8,1.1c0,0,0,0.1,0,0.1c0.2,0,0.4,0,0.5,0.1c0.5,0.2,1.1,0.1,1.6,0.2c0.3,0.1,0.3,0.5,0.5,0.7
			c0.1,0.1-0.1,0.2-0.3,0.2c-0.4,0.1-0.8,0-1.2,0.1c-0.7,0.1-1.3,0-2,0.2c0.2,0.2,0.4,0.4,0.6,0.6c0.2,0.3,0.4,0.5,0.5,0.8
			c0.2,0.3,0.3,0.6,0.4,0.9c0.1,0.1,0,0.3,0,0.5c-0.1,0-0.1-0.2-0.1-0.2c-0.1,0-0.1,0.1-0.3,0.1c-0.1,0-0.1-0.1-0.2-0.2
			c-0.1-0.1-0.2-0.3-0.3-0.5c-0.2-0.5-0.7-0.9-1.2-1.3c-0.4,0.9-0.8,1.8-1.4,2.6c0,0.1-0.1,0.1-0.3,0.1c0,0-0.1,0.1-0.1,0.1
			c0-0.1-0.1-0.1-0.1-0.1c-0.2-0.1-0.4-0.3-0.5-0.5c-0.1-0.2-0.2-0.4-0.2-0.6c0,0-0.1-0.1-0.1-0.1c0.1-0.1,0.1-0.3,0.1-0.4
			c0.1-0.1,0.2-0.2,0.3-0.4c0.2-0.4,0.5-0.8,0.6-1.2c-0.9-0.1-1.8-0.1-2.6-0.4c-0.2-0.1-0.4-0.1-0.6-0.3
			C49.7,112.2,49.7,112.1,49.6,112.1z"/>
		<path class="st0" d="M50.6,98.8c0.3-0.6,0.7-1,0.8-1.7c-1.4-0.8-3.1-0.3-4.2-2.1c-0.2-0.4,0-2.2,0.2-2.4c0.3-0.7,0.9-0.7,1.5-0.2
			c0.1,0,0.5,0.1,0.6,0.1c0.6-0.1,1.2,0.1,1.8,0.3c0.8,0.1,1.5,0.4,2.2,0.3c0.1,0,0.1-0.2,0.1-0.4c-0.2-1.1-0.4-2-0.7-3.1
			c-0.1-0.2-0.1-0.6-0.2-0.9c0-0.6-0.5-1.6-0.1-1.9c0.1,0,0.1,0.1,0.2,0.1c0.1-0.1,0.2-0.2,0.3-0.2c1.4,0.9,2.5,2.3,3.8,3.6
			c0.4,0.4,0.5-0.7,0.8-1c0.1-0.2,0-0.5,0.1-0.7c0.3-0.5,0.4-1.2,0.6-1.7c0.5-0.7,0.7-1.6,1.5-1.9c0.5-0.1,1,0.1,1.5,0.5
			c0.1,0,0.3,0,0.4,0.1c0.5,0.4,0.9,1,1.4,1.5c0.2,0.2,0.3,0.6,0.2,0.7c-0.1,0.7-0.8,0.8-1.2,1.3c-0.8,1.2-1.5,2.4-2.3,3.6
			c-0.1,0.2-0.3,0.5-0.1,0.7c1.1,1,2,2.1,3.2,2.9c0.7,0.5,1.6,0.4,2.2,1.1c0.5,0.5,0.8,1.2,1.1,1.9c-2.7,1.7-5.8-1.1-8.7-1
			c-0.2,0-0.2,0.3-0.2,0.5c0.2,1.2,0.4,2.4,0.5,3.5c0.1,0.8,0.5,1.6,0.6,2.4c0.1,0.3,0.3,1.1-0.1,1c-0.5,0-1.1-0.1-1.4-0.8
			c-0.4-0.9-0.8-1.8-1.1-2.8c-0.1-0.3-0.2-0.5-0.1-0.8c0-0.5-0.3-0.9-0.4-1.2c-0.1-0.2-0.3,0.1-0.4,0.2c-0.4,0.5-0.8,1-1.1,1.6
			c-0.7,0.9-1.4,1.4-2.3,1.8c-0.7,0.2-1.7,0.4-2.1-0.6c0.2,0,0.4-0.5,0.3-0.6C48.7,100.8,50.2,99.9,50.6,98.8z"/>
		<g>
			<path class="st0" d="M168.1,111.2c0.1-0.2,0.2-0.3,0.3-0.4c0.1-0.1,0.3-0.2,0.4-0.3c0.2-0.1,0.3-0.1,0.5-0.1c0.2,0,0.4,0,0.5,0.1
				c0.2,0.1,0.3,0.2,0.4,0.3c0.1,0.1,0.2,0.3,0.3,0.4c0.1,0.2,0.1,0.3,0.1,0.5c0,0.2,0,0.4-0.1,0.5c-0.1,0.2-0.2,0.3-0.3,0.4
				c-0.1,0.1-0.3,0.2-0.4,0.3c-0.2,0.1-0.3,0.1-0.5,0.1c-0.2,0-0.4,0-0.5-0.1c-0.2-0.1-0.3-0.2-0.4-0.3c-0.1-0.1-0.2-0.3-0.3-0.4
				c-0.1-0.2-0.1-0.3-0.1-0.5C168,111.5,168,111.4,168.1,111.2z M168.3,112.2c0.1,0.1,0.1,0.3,0.2,0.4c0.1,0.1,0.2,0.2,0.4,0.2
				c0.1,0.1,0.3,0.1,0.4,0.1c0.2,0,0.3,0,0.4-0.1c0.1-0.1,0.3-0.1,0.4-0.2c0.1-0.1,0.2-0.2,0.2-0.4c0.1-0.1,0.1-0.3,0.1-0.5
				c0-0.2,0-0.3-0.1-0.4c-0.1-0.1-0.1-0.3-0.2-0.4c-0.1-0.1-0.2-0.2-0.4-0.2c-0.1-0.1-0.3-0.1-0.4-0.1c-0.2,0-0.3,0-0.4,0.1
				c-0.1,0.1-0.3,0.1-0.4,0.2c-0.1,0.1-0.2,0.2-0.2,0.4c-0.1,0.1-0.1,0.3-0.1,0.4C168.2,111.9,168.3,112.1,168.3,112.2z M169.4,111
				c0.2,0,0.3,0,0.4,0.1c0.1,0.1,0.1,0.2,0.1,0.3c0,0.1,0,0.2-0.1,0.3c-0.1,0.1-0.2,0.1-0.3,0.1l0.5,0.7h-0.3l-0.4-0.7h-0.3v0.7
				h-0.2V111H169.4z M169.3,111.7c0.1,0,0.1,0,0.2,0c0,0,0.1,0,0.1,0c0,0,0.1,0,0.1-0.1c0,0,0-0.1,0-0.1c0-0.1,0-0.1,0-0.1
				c0,0,0-0.1-0.1-0.1c0,0-0.1,0-0.1,0c0,0-0.1,0-0.1,0h-0.3v0.5H169.3z"/>
			<path class="st0" d="M168.1,111.2c0.1-0.2,0.2-0.3,0.3-0.4c0.1-0.1,0.3-0.2,0.4-0.3c0.2-0.1,0.3-0.1,0.5-0.1c0.2,0,0.4,0,0.5,0.1
				c0.2,0.1,0.3,0.2,0.4,0.3c0.1,0.1,0.2,0.3,0.3,0.4c0.1,0.2,0.1,0.3,0.1,0.5c0,0.2,0,0.4-0.1,0.5c-0.1,0.2-0.2,0.3-0.3,0.4
				c-0.1,0.1-0.3,0.2-0.4,0.3c-0.2,0.1-0.3,0.1-0.5,0.1c-0.2,0-0.4,0-0.5-0.1c-0.2-0.1-0.3-0.2-0.4-0.3c-0.1-0.1-0.2-0.3-0.3-0.4
				c-0.1-0.2-0.1-0.3-0.1-0.5C168,111.5,168,111.4,168.1,111.2z M168.3,112.2c0.1,0.1,0.1,0.3,0.2,0.4c0.1,0.1,0.2,0.2,0.4,0.2
				c0.1,0.1,0.3,0.1,0.4,0.1c0.2,0,0.3,0,0.4-0.1c0.1-0.1,0.3-0.1,0.4-0.2c0.1-0.1,0.2-0.2,0.2-0.4c0.1-0.1,0.1-0.3,0.1-0.5
				c0-0.2,0-0.3-0.1-0.4c-0.1-0.1-0.1-0.3-0.2-0.4c-0.1-0.1-0.2-0.2-0.4-0.2c-0.1-0.1-0.3-0.1-0.4-0.1c-0.2,0-0.3,0-0.4,0.1
				c-0.1,0.1-0.3,0.1-0.4,0.2c-0.1,0.1-0.2,0.2-0.2,0.4c-0.1,0.1-0.1,0.3-0.1,0.4C168.2,111.9,168.3,112.1,168.3,112.2z M169.4,111
				c0.2,0,0.3,0,0.4,0.1c0.1,0.1,0.1,0.2,0.1,0.3c0,0.1,0,0.2-0.1,0.3c-0.1,0.1-0.2,0.1-0.3,0.1l0.5,0.7h-0.3l-0.4-0.7h-0.3v0.7
				h-0.2V111H169.4z M169.3,111.7c0.1,0,0.1,0,0.2,0c0,0,0.1,0,0.1,0c0,0,0.1,0,0.1-0.1c0,0,0-0.1,0-0.1c0-0.1,0-0.1,0-0.1
				c0,0,0-0.1-0.1-0.1c0,0-0.1,0-0.1,0c0,0-0.1,0-0.1,0h-0.3v0.5H169.3z"/>
		</g>
	</g>
	<g>
		<g>
			<g>
				<path class="st0" d="M1012.9,36.9v6.2h7.2v-6.2h1.9v14.9h-1.9v-7h-7.2v7h-1.9V36.9H1012.9z"/>
				<path class="st0" d="M1034.5,46.3c0,4-2.7,5.7-5.3,5.7c-2.9,0-5.1-2.1-5.1-5.5c0-3.6,2.3-5.7,5.3-5.7
					C1032.4,40.8,1034.5,43.1,1034.5,46.3z M1026,46.4c0,2.3,1.3,4.1,3.3,4.1c1.9,0,3.3-1.7,3.3-4.2c0-1.8-0.9-4.1-3.2-4.1
					C1027,42.3,1026,44.4,1026,46.4z"/>
				<path class="st0" d="M1036.4,44c0-1.1,0-2-0.1-2.9h1.7l0.1,1.7h0.1c0.6-1,1.6-2,3.4-2c1.5,0,2.6,0.9,3,2.1h0
					c0.3-0.6,0.8-1.1,1.2-1.4c0.6-0.5,1.3-0.8,2.4-0.8c1.4,0,3.5,0.9,3.5,4.6v6.3h-1.9v-6.1c0-2.1-0.8-3.3-2.3-3.3
					c-1.1,0-2,0.8-2.3,1.8c-0.1,0.3-0.2,0.6-0.2,1v6.6h-1.9v-6.4c0-1.7-0.8-2.9-2.2-2.9c-1.2,0-2.1,1-2.4,1.9
					c-0.1,0.3-0.2,0.6-0.2,1v6.5h-1.9V44z"/>
				<path class="st0" d="M1055.5,46.7c0,2.7,1.8,3.8,3.7,3.8c1.4,0,2.3-0.2,3-0.6l0.3,1.4c-0.7,0.3-1.9,0.7-3.6,0.7
					c-3.4,0-5.4-2.2-5.4-5.5s1.9-5.9,5.1-5.9c3.6,0,4.5,3.1,4.5,5.1c0,0.4,0,0.7-0.1,0.9H1055.5z M1061.3,45.3
					c0-1.3-0.5-3.2-2.8-3.2c-2,0-2.9,1.8-3,3.2H1061.3z"/>
				<path class="st0" d="M1067.7,47l-1.6,4.8h-2l5.2-15.2h2.4l5.2,15.2h-2.1L1073,47H1067.7z M1072.6,45.5l-1.5-4.4
					c-0.3-1-0.6-1.9-0.8-2.8h0c-0.2,0.9-0.5,1.8-0.8,2.8l-1.5,4.4H1072.6z"/>
				<path class="st0" d="M1078.7,40.9l1.4,5.5c0.3,1.2,0.6,2.3,0.8,3.5h0.1c0.2-1.1,0.6-2.3,1-3.5l1.8-5.5h1.7l1.7,5.5
					c0.4,1.3,0.7,2.5,1,3.6h0.1c0.2-1.1,0.5-2.3,0.8-3.5l1.6-5.5h2l-3.5,10.9h-1.8l-1.7-5.2c-0.4-1.2-0.7-2.3-1-3.6h0
					c-0.3,1.3-0.6,2.4-1,3.6l-1.8,5.2h-1.8l-3.3-10.9H1078.7z"/>
				<path class="st0" d="M1101.6,49.2c0,0.9,0,1.9,0.2,2.6h-1.8l-0.2-1.4h-0.1c-0.6,0.9-1.8,1.6-3.3,1.6c-2.2,0-3.3-1.6-3.3-3.1
					c0-2.6,2.3-4.1,6.6-4.1v-0.2c0-0.9-0.2-2.5-2.5-2.5c-1,0-2.1,0.3-2.8,0.8l-0.5-1.3c0.9-0.6,2.2-1,3.6-1c3.3,0,4.2,2.3,4.2,4.5
					V49.2z M1099.7,46.2c-2.2,0-4.6,0.3-4.6,2.5c0,1.3,0.9,1.9,1.9,1.9c1.4,0,2.3-0.9,2.6-1.8c0.1-0.2,0.1-0.4,0.1-0.6V46.2z"/>
				<path class="st0" d="M1104.8,40.9l2.4,6.5c0.2,0.7,0.5,1.6,0.7,2.2h0c0.2-0.7,0.4-1.5,0.7-2.3l2.2-6.4h2.1l-3,7.8
					c-1.4,3.7-2.4,5.4-3.7,6.5c-1,0.9-1.9,1.2-2.4,1.3l-0.5-1.7c0.5-0.2,1.2-0.5,1.7-1c0.5-0.4,1.2-1.2,1.7-2.2
					c0.1-0.2,0.2-0.4,0.2-0.5c0-0.1,0-0.3-0.1-0.5l-4-9.8H1104.8z"/>
			</g>
			<g>
				<path class="st0" d="M998.3,28.5h-13l-7.6,9h2.7v9.6l-2.1,0.3c0,0-1,0.2-0.7,1.2c0.2,0.7,1,0.6,1,0.6l1.8-0.2v2.7l12.8,2.3
					l10.2-2.3l0-14.2h3L998.3,28.5z M995.7,39.3l2.8-0.1l0,3.7l-2.8,0.2L995.7,39.3z M981.3,51l0-2l5.6-0.8c0,0,1,0,0.9-1.1
					c-0.1-1-1.1-0.8-1.1-0.8l-5.4,0.6l0-9.4l5.8-7.4l6.1,7.4l0,15.6L981.3,51z M995.7,48.1l0-3.8l2.8-0.2l0,3.8L995.7,48.1z
					 M1002,47.5l-2.3,0.2V44l2.3-0.2V47.5z M999.6,42.8l0-3.7l2.3-0.1l0,3.6L999.6,42.8z"/>
				<path class="st0" d="M989.6,37.7c-0.7-0.8-1.6-1.3-2.6-1.3c-0.1,0-0.1,0-0.2,0c-1,0.1-1.8,0.6-2.4,1.4c-0.6,0.8-1,1.8-1,3
					c0,0.1,0,0.2,0,0.3c0.1,1.2,0.5,2.2,1.1,3c0.7,0.8,1.6,1.3,2.6,1.3c0.1,0,0.1,0,0.2,0c1-0.1,1.8-0.6,2.4-1.4c0.6-0.8,1-1.8,1-3
					c0-0.1,0-0.2,0-0.3C990.7,39.5,990.3,38.4,989.6,37.7z M989.3,43.5c-0.5,0.6-1.2,1-1.9,1.1c0,0-0.1,0-0.1,0c-0.7,0-1.5-0.4-2-1
					c-0.5-0.6-0.9-1.5-1-2.5c0-0.1,0-0.2,0-0.3c0-1,0.3-1.9,0.8-2.5c0.5-0.6,1.2-1,1.9-1.1c0,0,0.1,0,0.1,0c0.7,0,1.5,0.4,2,1
					c0.5,0.6,0.9,1.5,1,2.5c0,0.1,0,0.2,0,0.3C990.1,41.9,989.8,42.8,989.3,43.5z"/>
				<path class="st0" d="M985.9,40.9c-0.1-1.3,0.3-2.4,1-2.8c-1.1,0.1-1.9,1.3-1.8,2.8c0.1,1.5,1,2.7,2.1,2.6l0,0
					C986.5,43.3,986,42.2,985.9,40.9z"/>
			</g>
		</g>
		<g>
			<path class="st0" d="M1117.4,42.2c0,0.8-0.6,1.4-1.5,1.4c-0.8,0-1.5-0.6-1.5-1.4c0-0.8,0.7-1.4,1.5-1.4
				C1116.8,40.8,1117.4,41.4,1117.4,42.2z M1114.8,42.2c0,0.6,0.5,1.1,1.1,1.1c0.6,0,1.1-0.5,1.1-1.1c0-0.6-0.5-1.2-1.1-1.2
				C1115.3,41.1,1114.8,41.6,1114.8,42.2z M1115.7,42.9h-0.3v-1.4c0.1,0,0.3,0,0.5,0c0.3,0,0.4,0,0.5,0.1c0.1,0.1,0.1,0.2,0.1,0.3
				c0,0.2-0.1,0.3-0.3,0.3v0c0.1,0,0.2,0.2,0.3,0.3c0,0.2,0.1,0.3,0.1,0.3h-0.3c0-0.1-0.1-0.2-0.1-0.3c0-0.1-0.1-0.2-0.3-0.2h-0.2
				V42.9z M1115.7,42.1h0.2c0.2,0,0.3-0.1,0.3-0.2c0-0.1-0.1-0.2-0.3-0.2c-0.1,0-0.1,0-0.2,0V42.1z"/>
		</g>
	</g>
	<g>
		<path class="st0" d="M272.4,109.2c-0.8,0-1.5-0.7-1.5-1.5c0-0.8,0.7-1.5,1.5-1.5c0.8,0,1.5,0.7,1.5,1.5
			C274,108.5,273.3,109.2,272.4,109.2z"/>
		<path class="st0" d="M238,117.6c0,3.7-3,6.7-6.7,6.7c-3.7,0-6.7-3-6.7-6.7c0-3.7,3-6.7,6.7-6.7C235,111,238,113.9,238,117.6z"/>
		<g>
			<path class="st0" d="M210.7,106.3h2.9v6.7h0.1c0.4-0.6,0.9-1.1,1.6-1.5c0.7-0.4,1.5-0.6,2.3-0.6c1.4,0,2.5,0.4,3.4,1.1
				c0.8,0.7,1.2,1.8,1.2,3.3v8.9h-2.9v-8.2c0-1-0.3-1.8-0.7-2.2c-0.4-0.5-1-0.7-1.9-0.7c-0.5,0-0.9,0.1-1.3,0.3
				c-0.4,0.2-0.7,0.4-1,0.7c-0.3,0.3-0.5,0.7-0.6,1.1c-0.2,0.4-0.2,0.9-0.2,1.3v7.7h-2.9V106.3z"/>
			<path class="st0" d="M240,111.3h2.2v-3.9h2.9v3.9h2.6v2.1H245v6.9c0,0.3,0,0.6,0,0.8c0,0.2,0.1,0.4,0.2,0.6
				c0.1,0.2,0.2,0.3,0.4,0.3c0.2,0.1,0.4,0.1,0.8,0.1c0.2,0,0.4,0,0.6,0c0.2,0,0.4,0,0.6-0.1v2.2c-0.3,0-0.6,0.1-0.9,0.1
				c-0.3,0-0.6,0.1-0.9,0.1c-0.8,0-1.4-0.1-1.8-0.2c-0.5-0.1-0.8-0.4-1.1-0.6c-0.3-0.3-0.4-0.6-0.5-1c-0.1-0.4-0.1-0.9-0.2-1.4v-7.7
				H240V111.3z"/>
			<path class="st0" d="M249.3,111.3h3l2.5,9.7h0.1l2.4-9.7h2.9l2.3,9.7h0.1l2.6-9.7h2.9l-4.1,13h-2.9l-2.4-9.6h-0.1l-2.4,9.6h-3
				L249.3,111.3z"/>
			<path class="st0" d="M271,111.3h2.9v13H271V111.3z"/>
			<path class="st0" d="M277.9,111.3h2.7v2.5h0.1c0.1-0.4,0.2-0.7,0.5-1c0.2-0.3,0.5-0.6,0.9-0.9c0.3-0.3,0.7-0.5,1.1-0.7
				c0.4-0.2,0.8-0.3,1.3-0.3c0.3,0,0.6,0,0.7,0c0.1,0,0.3,0,0.4,0.1v2.8c-0.2,0-0.4-0.1-0.6-0.1c-0.2,0-0.4,0-0.6,0
				c-0.5,0-0.9,0.1-1.4,0.3c-0.4,0.2-0.8,0.5-1.1,0.9c-0.3,0.4-0.6,0.8-0.8,1.4c-0.2,0.6-0.3,1.2-0.3,1.9v6.2h-2.9V111.3z"/>
		</g>
		<path class="st0" d="M289.4,118.6c0,0.5,0.1,1,0.2,1.5c0.1,0.5,0.4,0.9,0.6,1.2c0.3,0.4,0.6,0.6,1.1,0.8c0.4,0.2,1,0.3,1.6,0.3
			c0.8,0,1.5-0.2,2-0.5c0.5-0.4,0.9-0.9,1.1-1.6h2.7c-0.2,0.7-0.4,1.3-0.8,1.9c-0.4,0.6-0.8,1-1.3,1.4c-0.5,0.4-1.1,0.7-1.7,0.9
			c-0.6,0.2-1.3,0.3-2,0.3c-1,0-1.9-0.2-2.7-0.5c-0.8-0.3-1.5-0.8-2-1.4c-0.5-0.6-1-1.3-1.2-2.2c-0.3-0.8-0.4-1.8-0.4-2.8
			c0-0.9,0.1-1.8,0.4-2.6c0.3-0.8,0.7-1.6,1.3-2.2c0.5-0.6,1.2-1.1,2-1.5c0.8-0.4,1.6-0.6,2.6-0.6c1,0,1.9,0.2,2.8,0.6
			c0.8,0.4,1.5,1,2,1.7c0.5,0.7,0.9,1.5,1.2,2.4c0.2,0.9,0.3,1.9,0.2,2.8H289.4z M296.1,116.7c0-0.5-0.1-0.9-0.3-1.3
			c-0.2-0.4-0.4-0.8-0.7-1.1c-0.3-0.3-0.6-0.6-1-0.8c-0.4-0.2-0.8-0.3-1.3-0.3c-0.5,0-1,0.1-1.4,0.3c-0.4,0.2-0.8,0.4-1.1,0.7
			c-0.3,0.3-0.5,0.7-0.7,1.1c-0.2,0.4-0.3,0.9-0.3,1.4H296.1z"/>
		<g>
			<path class="st0" d="M299.2,110.5c0.6,0,1.1,0.5,1.1,1.1c0,0.6-0.5,1.1-1.1,1.1c-0.6,0-1.1-0.5-1.1-1.1
				C298.1,111,298.6,110.5,299.2,110.5z M299.2,112.5c0.5,0,0.9-0.4,0.9-0.9c0-0.5-0.4-0.9-0.9-0.9c-0.5,0-0.9,0.4-0.9,0.9
				C298.3,112.1,298.7,112.5,299.2,112.5z M298.8,111h0.5c0.3,0,0.4,0.1,0.4,0.4c0,0.2-0.1,0.3-0.3,0.3l0.4,0.6h-0.2l-0.3-0.5H299
				v0.5h-0.2V111z M299,111.5h0.2c0.2,0,0.3,0,0.3-0.2c0-0.2-0.1-0.2-0.3-0.2H299V111.5z"/>
		</g>
	</g>
	<g>
		<path class="st0" d="M420.2,129c0,1.5-1,2.4-2.6,2.4c-1.5,0-2.6-1-2.6-2.4c0-1.4,1-2.4,2.6-2.4C419.2,126.6,420.2,127.6,420.2,129
			z"/>
		<path class="st0" d="M413.6,121.3c0.9-1.8,1.4-3.9,1.4-6.2c0-7.6-5.5-12.7-13.5-12.7c-7.9,0-13.5,5-13.5,12.7
			c0,7.7,5.5,12.8,13.5,12.8c2.4,0,8.3,0,9.6,0c2.3,0,3.8-1.5,3.8-3.7C415.1,123,414.5,122,413.6,121.3z M398.6,123.8h-3.7v-10.9
			h3.7V123.8z M397,110.9c-1.2,0-2.2-0.9-2.2-2.2c0-1.3,1-2.2,2.2-2.2c1.2,0,2.2,0.9,2.2,2.2C399.2,110,398.1,110.9,397,110.9z
			 M408.5,109.8c-0.4-0.1-0.8-0.1-1.2-0.1c-1.1,0-1.6,0.6-1.6,1.9v1.2h2.8v3.3h-2.8v7.7h-3.7v-7.7H400v-3.3h2.1v-1.4
			c0-3.2,1.9-4.9,4.6-4.9c0.7,0,1.3,0.1,1.9,0.2V109.8z"/>
		<g>
			<path class="st0" d="M353.1,123.8l-2.3-6.9l-2.3,6.9h-4.1l-4-12.8h4.3l2,7.2l2.5-7.2h3.2l2.5,7.3l2-7.3h4.3l-4,12.8H353.1z"/>
			<path class="st0" d="M375.4,117.3c0,4.1-3,6.9-7.3,6.9c-4.3,0-7.3-2.8-7.3-6.9c0-4.1,3-6.8,7.3-6.8
				C372.5,110.5,375.4,113.2,375.4,117.3z M371.3,117.3c0-1.9-1.3-3.2-3.2-3.2c-1.8,0-3.2,1.3-3.2,3.2c0,2,1.3,3.2,3.2,3.2
				C370,120.6,371.3,119.3,371.3,117.3z"/>
			<path class="st0" d="M386.2,120.3c-0.6,0.1-1.1,0.1-1.5,0.1c-1.3,0-1.8-0.8-1.8-2v-3.5h3.4V111h-3.4v-4.4h-4.3v4.4h-2.5v3.8h2.5
				v3.9c0,3.5,1.8,5.4,5,5.4c1.1,0,1.8-0.1,2.7-0.2V120.3z"/>
		</g>
	</g>
	<g>
		<g>
			<path class="st0" d="M557.5,124.2c-0.6,0-1.1-0.5-1.1-1.2s0.5-1.2,1.1-1.2c0.6,0,1.1,0.5,1.1,1.2
				C558.6,123.7,558.1,124.2,557.5,124.2L557.5,124.2z"/>
			<path class="st0" d="M565.4,123.7c-0.3,0.2-1.1,0.4-2.1,0.4c-2.2,0-3.6-1.5-3.6-3.7c0-2.2,1.5-3.9,3.9-3.9c0.8,0,1.5,0.2,1.8,0.4
				l-0.3,1c-0.3-0.2-0.8-0.3-1.5-0.3c-1.7,0-2.6,1.2-2.6,2.8c0,1.7,1.1,2.7,2.5,2.7c0.8,0,1.2-0.2,1.6-0.3L565.4,123.7z"/>
			<path class="st0" d="M569.5,124.1c-2,0-3.5-1.4-3.5-3.7c0-2.4,1.6-3.9,3.6-3.9c2.1,0,3.5,1.5,3.5,3.7
				C573.1,123,571.2,124.1,569.5,124.1L569.5,124.1z M569.5,123.1c1.3,0,2.2-1.2,2.2-2.8c0-1.2-0.6-2.8-2.2-2.8
				c-1.6,0-2.2,1.4-2.2,2.8C567.3,121.9,568.2,123.1,569.5,123.1L569.5,123.1z"/>
			<path class="st0" d="M574.8,118.7c0-0.8,0-1.4-0.1-2h1.2l0.1,1.2h0c0.4-0.7,1.1-1.3,2.3-1.3c1,0,1.7,0.6,2,1.5h0
				c0.2-0.4,0.5-0.7,0.8-0.9c0.4-0.3,0.9-0.5,1.6-0.5c1,0,2.4,0.6,2.4,3.2v4.3h-1.3v-4.1c0-1.4-0.5-2.2-1.6-2.2
				c-0.8,0-1.3,0.6-1.6,1.2c-0.1,0.2-0.1,0.4-0.1,0.7v4.5h-1.3v-4.4c0-1.2-0.5-2-1.5-2c-0.8,0-1.4,0.7-1.6,1.3
				c-0.1,0.2-0.1,0.4-0.1,0.6v4.4h-1.3V118.7z"/>
		</g>
		<g>
			<path class="st0" d="M463.7,110.8c-4.5,0-6.5,3.6-6.5,6.9c0,4,2.5,6.6,6.9,6.6c1.7,0,3.3-0.3,4.7-0.8l-0.5-2.7
				c-1.1,0.3-2.2,0.5-3.6,0.5c-1.9,0-3.5-0.8-3.6-2.4h8.3c0.1-0.3,0.1-0.9,0.1-1.6C469.4,114.1,467.8,110.8,463.7,110.8z M461,116.1
				c0.1-1.1,0.8-2.6,2.5-2.6c1.8,0,2.3,1.6,2.3,2.6H461z"/>
			<path class="st0" d="M478.4,110.8c-1.8,0-3.1,0.7-3.9,1.8h-0.1v-7.3h-4v14.8c0,1.4-0.1,3-0.1,3.8h3.4l0.2-1.8h0.1
				c0.9,1.5,2.4,2.1,3.9,2.1c2.9,0,5.9-2.3,5.9-6.9C483.8,113.4,481.5,110.8,478.4,110.8z M476.9,121.1c-1.2,0-2.1-0.8-2.3-1.9
				c-0.1-0.2-0.1-0.4-0.1-0.7v-1.9c0-0.3,0-0.5,0.1-0.7c0.3-1.2,1.3-2,2.3-2c1.9,0,2.8,1.6,2.8,3.6
				C479.7,119.8,478.6,121.1,476.9,121.1z"/>
			<path class="st0" d="M491.5,110.8c-4.1,0-6.9,2.7-6.9,6.8c0,4.2,2.9,6.6,6.7,6.6c3.4,0,6.8-2.2,6.8-6.9
				C498.1,113.5,495.4,110.8,491.5,110.8z M491.4,121.4c-1.7,0-2.6-1.7-2.6-3.9c0-1.9,0.7-3.9,2.6-3.9c1.8,0,2.5,1.9,2.5,3.9
				C493.9,119.8,492.9,121.4,491.4,121.4z"/>
			<path class="st0" d="M505.7,110.8c-4.1,0-6.9,2.7-6.9,6.8c0,4.2,2.9,6.6,6.7,6.6c3.4,0,6.8-2.2,6.8-6.9
				C512.3,113.5,509.6,110.8,505.7,110.8z M505.6,121.4c-1.7,0-2.6-1.7-2.6-3.9c0-1.9,0.7-3.9,2.6-3.9c1.8,0,2.6,1.9,2.6,3.9
				C508.1,119.8,507.1,121.4,505.6,121.4z"/>
			<path id="XMLID_5_" class="st0" d="M525.5,111.1h-4.8L518,115c-0.3,0.5-0.6,1-0.9,1.6h-0.1v-11.2h-4V124h4v-4l1-1.3l3.1,5.3h4.9
				l-5.3-7.7L525.5,111.1z"/>
			<path class="st0" d="M531.2,110.8c-4.5,0-6.5,3.6-6.5,6.9c0,4,2.5,6.6,6.9,6.6c1.7,0,3.3-0.3,4.7-0.8l-0.5-2.7
				c-1.1,0.3-2.2,0.5-3.6,0.5c-1.9,0-3.5-0.8-3.6-2.4h8.3c0.1-0.3,0.1-0.9,0.1-1.6C537,114.1,535.4,110.8,531.2,110.8z M528.5,116.1
				c0.1-1.1,0.8-2.6,2.5-2.6c1.8,0,2.3,1.6,2.3,2.6H528.5z"/>
			<path id="XMLID_2_" class="st0" d="M541.8,113.5h-0.1l-0.1-2.4h-3.4c0.1,1.1,0.1,2.3,0.1,4.2v8.6h4v-6.5c0-0.3,0-0.6,0.1-0.9
				c0.3-1.2,1.3-2,2.7-2c0.4,0,0.8,0.1,1.1,0.1v-3.8c-0.3-0.1-0.5-0.1-0.8-0.1C544,110.8,542.4,111.6,541.8,113.5z"/>
			<path id="XMLID_1_" class="st0" d="M552.9,116.1c-1.6-0.6-2.1-0.9-2.1-1.5c0-0.7,0.6-1.1,1.5-1.1c1.1,0,2.2,0.4,2.8,0.7l0.7-2.8
				c-0.8-0.4-2.1-0.7-3.6-0.7c-3.2,0-5.2,1.8-5.2,4.2c0,1.5,1,3,3.7,3.9c1.5,0.5,1.9,0.8,1.9,1.5c0,0.7-0.5,1.1-1.7,1.1
				c-1.2,0-2.7-0.5-3.4-1l-0.7,2.9c1,0.5,2.5,0.9,4.2,0.9c3.7,0,5.6-1.8,5.6-4.2C556.4,118.2,555.3,116.9,552.9,116.1z"/>
		</g>
	</g>
	<g>
		<path class="st0" d="M972.5,123.8l-5.4-16.5h2.3l2.6,8.1c0.7,2.2,1.3,4.2,1.8,6.2h0.1c0.5-1.9,1.2-4,1.9-6.2l2.8-8.2h2.3
			l-5.9,16.5H972.5L972.5,123.8z"/>
		<path class="st0" d="M989.5,120.7c0,1,0,2,0.2,2.8h-2l-0.2-1.5h-0.1c-0.7,0.9-1.9,1.8-3.6,1.8c-2.4,0-3.6-1.7-3.6-3.4
			c0-2.9,2.5-4.4,7.1-4.4v-0.2c0-1-0.3-2.7-2.7-2.7c-1.1,0-2.3,0.3-3.1,0.9l-0.5-1.4c1-0.6,2.4-1.1,3.9-1.1c3.6,0,4.5,2.5,4.5,4.9
			V120.7L989.5,120.7z M987.4,117.5c-2.4,0-5,0.4-5,2.7c0,1.4,0.9,2.1,2,2.1c1.5,0,2.5-1,2.9-2c0.1-0.2,0.1-0.5,0.1-0.7V117.5
			L987.4,117.5z"/>
		<path class="st0" d="M1000.9,123.1c-0.6,0.3-1.8,0.7-3.4,0.7c-3.6,0-5.9-2.5-5.9-6.1c0-3.7,2.5-6.3,6.4-6.3c1.3,0,2.4,0.3,3,0.6
			l-0.5,1.7c-0.5-0.3-1.3-0.6-2.5-0.6c-2.7,0-4.2,2-4.2,4.5c0,2.7,1.8,4.4,4.1,4.4c1.2,0,2-0.3,2.6-0.6L1000.9,123.1L1000.9,123.1z"
			/>
		<path class="st0" d="M1011.3,120.7c0,1,0.1,2,0.2,2.8h-2l-0.2-1.5h-0.1c-0.7,0.9-1.9,1.8-3.6,1.8c-2.4,0-3.6-1.7-3.6-3.4
			c0-2.9,2.5-4.4,7.1-4.4v-0.2c0-1-0.3-2.7-2.7-2.7c-1.1,0-2.3,0.3-3.1,0.9l-0.5-1.4c1-0.6,2.4-1.1,3.9-1.1c3.6,0,4.5,2.5,4.5,4.9
			V120.7L1011.3,120.7z M1009.2,117.5c-2.4,0-5,0.4-5,2.7c0,1.4,0.9,2.1,2,2.1c1.5,0,2.5-1,2.9-2c0.1-0.2,0.1-0.5,0.1-0.7V117.5
			L1009.2,117.5z"/>
		<path class="st0" d="M1016.8,108.9v2.8h3.1v1.6h-3.1v6.4c0,1.5,0.4,2.3,1.6,2.3c0.6,0,0.9,0,1.3-0.1l0.1,1.6
			c-0.4,0.2-1.1,0.3-1.9,0.3c-1,0-1.8-0.3-2.3-0.9c-0.6-0.6-0.8-1.7-0.8-3.1v-6.5h-1.8v-1.6h1.8v-2.2L1016.8,108.9L1016.8,108.9z"/>
		<path class="st0" d="M1024.2,108.6c0,0.7-0.5,1.3-1.4,1.3c-0.8,0-1.3-0.6-1.3-1.3c0-0.8,0.6-1.4,1.3-1.4
			C1023.7,107.3,1024.2,107.9,1024.2,108.6L1024.2,108.6z M1021.8,123.8V112h2.2v11.9H1021.8L1021.8,123.8z"/>
		<path class="st0" d="M1037.7,117.5c0,4.4-3,6.3-5.9,6.3c-3.2,0-5.7-2.4-5.7-6.1c0-4,2.6-6.3,5.9-6.3
			C1035.4,111.4,1037.7,113.9,1037.7,117.5L1037.7,117.5z M1028.3,117.7c0,2.6,1.5,4.6,3.6,4.6c2.1,0,3.6-1.9,3.6-4.6
			c0-2-1-4.6-3.6-4.6C1029.4,113.1,1028.3,115.4,1028.3,117.7L1028.3,117.7z"/>
		<path class="st0" d="M1039.9,115.2c0-1.2,0-2.2-0.1-3.2h1.9l0.1,2h0c0.6-1.1,2-2.2,3.9-2.2c1.6,0,4.2,1,4.2,5.1v7.1h-2.2V117
			c0-1.9-0.7-3.5-2.7-3.5c-1.4,0-2.5,1-2.9,2.2c-0.1,0.3-0.1,0.6-0.1,1v7.1h-2.2V115.2L1039.9,115.2z"/>
		<path class="st0" d="M1053.1,107.5c1.1-0.2,2.6-0.3,4.1-0.3c2.3,0,3.8,0.4,4.8,1.4c0.8,0.7,1.3,1.9,1.3,3.1c0,2.2-1.4,3.6-3.1,4.2
			v0.1c1.3,0.4,2,1.6,2.4,3.3c0.5,2.3,0.9,3.9,1.3,4.5h-2.2c-0.3-0.5-0.6-1.9-1.1-3.9c-0.5-2.3-1.4-3.1-3.3-3.2h-2v7.2h-2.1V107.5
			L1053.1,107.5z M1055.2,115.1h2.2c2.3,0,3.7-1.3,3.7-3.1c0-2.1-1.5-3.1-3.8-3.1c-1,0-1.8,0.1-2.1,0.2V115.1L1055.2,115.1z"/>
		<path class="st0" d="M1067,118c0.1,2.9,1.9,4.1,4.1,4.1c1.5,0,2.5-0.3,3.3-0.6l0.4,1.5c-0.8,0.3-2.1,0.8-3.9,0.8
			c-3.7,0-5.8-2.4-5.8-6c0-3.6,2.1-6.4,5.6-6.4c3.9,0,4.9,3.4,4.9,5.6c0,0.4,0,0.8-0.1,1H1067L1067,118z M1073.3,116.5
			c0-1.4-0.6-3.5-3-3.5c-2.2,0-3.1,2-3.3,3.5H1073.3L1073.3,116.5z"/>
		<path class="st0" d="M1077.6,115.2c0-1.2,0-2.2-0.1-3.2h1.9l0.1,2h0c0.6-1.1,2-2.2,3.9-2.2c1.6,0,4.2,1,4.2,5.1v7.1h-2.2V117
			c0-1.9-0.7-3.5-2.7-3.5c-1.4,0-2.5,1-2.9,2.2c-0.1,0.3-0.1,0.6-0.1,1v7.1h-2.2V115.2L1077.6,115.2z"/>
		<path class="st0" d="M1093.2,108.9v2.8h3.1v1.6h-3.1v6.4c0,1.5,0.4,2.3,1.6,2.3c0.6,0,0.9,0,1.3-0.1l0.1,1.6
			c-0.4,0.2-1.1,0.3-1.9,0.3c-1,0-1.8-0.3-2.3-0.9c-0.6-0.6-0.8-1.7-0.8-3.1v-6.5h-1.8v-1.6h1.8v-2.2L1093.2,108.9L1093.2,108.9z"/>
		<path class="st0" d="M1106.5,120.7c0,1,0.1,2,0.2,2.8h-2l-0.2-1.5h-0.1c-0.7,0.9-1.9,1.8-3.6,1.8c-2.4,0-3.6-1.7-3.6-3.4
			c0-2.9,2.5-4.4,7.1-4.4v-0.2c0-1-0.3-2.7-2.7-2.7c-1.1,0-2.3,0.3-3.1,0.9l-0.5-1.4c1-0.6,2.4-1.1,3.9-1.1c3.6,0,4.5,2.5,4.5,4.9
			V120.7L1106.5,120.7z M1104.4,117.5c-2.4,0-5,0.4-5,2.7c0,1.4,0.9,2.1,2,2.1c1.5,0,2.5-1,2.9-2c0.1-0.2,0.1-0.5,0.1-0.7V117.5
			L1104.4,117.5z"/>
		<polygon class="st0" points="1109.5,106.4 1111.6,106.4 1111.6,123.8 1109.5,123.8 1109.5,106.4 		"/>
		<path class="st0" d="M1114.5,121.4c0.6,0.4,1.8,0.9,2.8,0.9c1.6,0,2.3-0.8,2.3-1.8c0-1-0.6-1.6-2.2-2.2c-2.1-0.8-3.1-1.9-3.1-3.4
			c0-1.9,1.5-3.5,4.1-3.5c1.2,0,2.3,0.3,2.9,0.7l-0.5,1.6c-0.5-0.3-1.3-0.7-2.4-0.7c-1.3,0-2,0.7-2,1.6c0,1,0.7,1.4,2.3,2
			c2.1,0.8,3.1,1.8,3.1,3.6c0,2.1-1.6,3.6-4.4,3.6c-1.3,0-2.5-0.3-3.3-0.8L1114.5,121.4L1114.5,121.4z"/>
		<path class="st0" d="M1124.6,123.8c-0.8,0-1.4-0.7-1.4-1.5c0-0.9,0.6-1.5,1.5-1.5c0.9,0,1.4,0.6,1.4,1.5
			C1126.1,123.2,1125.5,123.8,1124.6,123.8L1124.6,123.8L1124.6,123.8z"/>
		<path class="st0" d="M1136.7,123.1c-0.6,0.3-1.8,0.7-3.4,0.7c-3.6,0-5.9-2.5-5.9-6.1c0-3.7,2.5-6.3,6.4-6.3c1.3,0,2.4,0.3,3,0.6
			l-0.5,1.7c-0.5-0.3-1.3-0.6-2.5-0.6c-2.7,0-4.2,2-4.2,4.5c0,2.7,1.8,4.4,4.1,4.4c1.2,0,2-0.3,2.6-0.6L1136.7,123.1L1136.7,123.1z"
			/>
		<path class="st0" d="M1149.3,117.5c0,4.4-3,6.3-5.9,6.3c-3.2,0-5.7-2.4-5.7-6.1c0-4,2.6-6.3,5.9-6.3
			C1147,111.4,1149.3,113.9,1149.3,117.5L1149.3,117.5z M1139.9,117.7c0,2.6,1.5,4.6,3.6,4.6c2.1,0,3.6-1.9,3.6-4.6
			c0-2-1-4.6-3.6-4.6S1139.9,115.4,1139.9,117.7L1139.9,117.7z"/>
		<path class="st0" d="M1151.5,115.2c0-1.2,0-2.2-0.1-3.2h1.9l0.1,1.9h0.1c0.7-1.1,1.8-2.2,3.7-2.2c1.6,0,2.8,1,3.4,2.4h0.1
			c0.4-0.7,0.8-1.2,1.3-1.5c0.7-0.5,1.5-0.8,2.6-0.8c1.6,0,3.9,1,3.9,5.1v7h-2.1v-6.7c0-2.3-0.8-3.7-2.6-3.7c-1.2,0-2.2,0.9-2.5,2
			c-0.1,0.3-0.2,0.7-0.2,1.1v7.3h-2.1v-7.1c0-1.9-0.8-3.3-2.5-3.3c-1.3,0-2.3,1.1-2.7,2.2c-0.1,0.3-0.2,0.7-0.2,1.1v7.2h-2.1V115.2
			L1151.5,115.2z"/>
		<polygon class="st0" points="1172.4,121.1 1172.4,121.4 1171.5,121.4 1171.5,123.8 1171.1,123.8 1171.1,121.4 1170.2,121.4 
			1170.2,121.1 1172.4,121.1 		"/>
		<path class="st0" d="M1175.7,123.8l-0.1-1.9c0-0.2,0-0.4,0-0.6h0c-0.1,0.2-0.2,0.4-0.2,0.7l-0.6,1.8h-0.4l-0.6-1.8
			c-0.1-0.2-0.2-0.4-0.2-0.6h0c0,0.2,0,0.4,0,0.6l-0.1,1.9h-0.4l0.2-2.8h0.5l0.6,1.8c0.1,0.2,0.1,0.4,0.2,0.6h0
			c0.1-0.2,0.1-0.4,0.2-0.6l0.7-1.8h0.5l0.2,2.8H1175.7L1175.7,123.8z"/>
	</g>
	<g>
		<path class="st0" d="M792.9,39.6c-0.3,0.1-0.3,0.4,0,0.4c0.5,0,2.6-0.1,4.6,0.1c2.2,0.2,4.4,0.8,6.1,1.4c1.7,0.6,5.4,2.7,5.4,2.7
			s-4.8,2.7-6.4,6.7c-0.1,0.2,0,0.3,0.3,0.1c6.1-3.6,10.4-5.9,17.8-7.3c0.5-0.1,0.4-0.2,0-0.3c-0.4-0.1-1.8-0.4-5.5-1.7
			c-3.7-1.4-7.2-2.6-11.4-3c-0.6,0-1.2-0.1-1.9-0.1C797.6,38.7,793,39.6,792.9,39.6"/>
		<path class="st0" d="M822.6,36.2c-1.2,1.4-3.6,3.2-5.9,4.1c-0.3,0.1-0.2,0.3-0.1,0.4c0,0,0.2,0.1,0.4,0.2l3.1,1
			c0.3,0.1,0.2,0.1,0.3,0c1.6-1.6,2.3-4,2.3-5.5c0,0,0-0.2,0-0.2C822.7,36,822.6,36.1,822.6,36.2"/>
		<path class="st0" d="M877.8,51.1h-2c-0.1,0-0.2-0.1-0.3-0.2l-5.9-10.1v9.9c0,0.2-0.2,0.4-0.4,0.4h-2c-0.2,0-0.4-0.2-0.4-0.4V36.4
			c0-0.2,0.2-0.4,0.4-0.4h2c0.1,0,0.2,0.1,0.3,0.2l5.9,9.7v-9.5c0-0.2,0.2-0.4,0.4-0.4h1.9c0.2,0,0.4,0.2,0.4,0.4v14.4
			C878.2,51,878,51.1,877.8,51.1L877.8,51.1z"/>
		<path class="st0" d="M898.5,51.1h-2c-0.2,0-0.4-0.2-0.4-0.4V36.4c0-0.2,0.2-0.4,0.4-0.4h2c0.2,0,0.4,0.2,0.4,0.4v14.4
			C898.8,51,898.7,51.1,898.5,51.1L898.5,51.1z"/>
		<path class="st0" d="M887.3,51.3c-1.8,0-3.4-0.7-4.5-2c-1.1-1.3-1.7-3.4-1.7-5.5v-0.5c0-1.4,0.3-3,0.8-4.1
			c0.5-1.1,1.3-1.9,2.2-2.5c1-0.6,2.1-0.9,3.3-0.9c1.7,0,3,0.5,4,1.4c0.8,0.7,1.4,1.7,1.6,2.9c0,0.1,0,0.2-0.1,0.3
			c-0.1,0.1-0.2,0.1-0.3,0.1h-2c-0.2,0-0.3-0.1-0.3-0.3c-0.2-0.7-0.5-1.2-0.8-1.5c-0.5-0.5-1.2-0.7-2.1-0.7c-1.1,0-2,0.4-2.7,1.2
			c-0.7,0.8-1,2.5-1,4v0.6c0,1.5,0.3,3.1,0.9,3.9c0.6,0.8,1.4,1.2,2.5,1.2c1,0,1.8-0.2,2.3-0.6c0.4-0.3,0.7-0.8,0.9-1.6
			c0-0.2,0.2-0.3,0.3-0.3h2c0.1,0,0.2,0,0.3,0.1c0.1,0.1,0.1,0.2,0.1,0.3c-0.3,1.2-0.9,2.2-1.7,3C890.4,50.9,889,51.3,887.3,51.3
			L887.3,51.3z"/>
		<path class="st0" d="M836.5,51.1h-7.4c-0.2,0-0.4-0.2-0.4-0.4V36.4c0-0.2,0.2-0.4,0.4-0.4h7.4c0.2,0,0.4,0.2,0.4,0.4v1.6
			c0,0.2-0.2,0.4-0.4,0.4h-5.1v3.9h5.1c0.2,0,0.4,0.2,0.4,0.4v1.6c0,0.2-0.2,0.4-0.4,0.4h-5.1v4.4h5.1c0.2,0,0.4,0.2,0.4,0.4v1.6
			C836.8,51,836.7,51.1,836.5,51.1L836.5,51.1z"/>
		<path class="st0" d="M862.8,51.1h-7.4c-0.2,0-0.4-0.2-0.4-0.4V36.4c0-0.2,0.2-0.4,0.4-0.4h7.4c0.2,0,0.4,0.2,0.4,0.4v1.6
			c0,0.2-0.2,0.4-0.4,0.4h-5.1v3.9h5.1c0.2,0,0.4,0.2,0.4,0.4v1.6c0,0.2-0.2,0.4-0.4,0.4h-5.1v4.4h5.1c0.2,0,0.4,0.2,0.4,0.4v1.6
			C863.1,51,862.9,51.1,862.8,51.1L862.8,51.1z"/>
		<path class="st0" d="M914.7,50.6l-5.5-14.4c-0.1-0.1-0.2-0.2-0.3-0.2h-1.7c-0.1,0-0.3,0.1-0.3,0.2l-5.5,14.4c0,0.1,0,0.2,0,0.3
			c0.1,0.1,0.2,0.2,0.3,0.2h2c0.2,0,0.4,0,0.4,0c2.3-2.5,5.7-3.7,6.7-4l1.4,3.8c0.1,0.1,0.2,0.2,0.3,0.2h1.9c0.1,0,0.2-0.1,0.3-0.2
			C914.8,50.9,914.8,50.8,914.7,50.6L914.7,50.6z M905.7,47.2l-0.4,0.2l0.1-0.3l0.6-1.6l2.1-5.8l2.3,6.2
			C908.6,46.3,907.3,46.6,905.7,47.2L905.7,47.2z"/>
		<path class="st0" d="M846,51.3c-1.2,0-2.4-0.3-3.4-0.9c-1-0.6-1.7-1.4-2.3-2.5c-0.5-1.1-0.8-2.3-0.8-3.7V43c0-2.2,0.5-4,1.6-5.3
			c1.1-1.3,2.6-1.9,4.6-1.9c1.6,0,2.9,0.4,3.9,1.2h0c0.7,0.6,1.2,1.4,1.6,2.3c0,0.1,0,0.2,0,0.3c-0.1,0.1-0.2,0.1-0.3,0.1h-2
			c-0.1,0-0.3-0.1-0.3-0.2c-0.5-1-1.4-1.6-2.8-1.6c-1.2,0-2.1,0.4-2.7,1.2c-0.6,0.8-0.9,2.1-0.9,3.7v1.2c0,1.5,0.4,2.7,1,3.6
			c0.7,0.9,1.6,1.3,2.8,1.3c0.7,0,1.3-0.1,1.8-0.2c0.4-0.1,0.8-0.3,1.1-0.6v-3.8h-2.4c-0.2,0-0.4-0.2-0.4-0.4v-1.6
			c0-0.2,0.2-0.4,0.4-0.4h5l0,6.7c0,0.1,0,0.1-0.1,0.2c-0.5,0.8-1.3,1.3-2.2,1.7C848.3,51.1,847.2,51.3,846,51.3L846,51.3z"/>
		<path class="st0" d="M917.4,36.7c-0.1-0.2-0.3-0.4-0.5-0.5c-0.2-0.1-0.5-0.2-0.7-0.2c-0.3,0-0.5,0.1-0.7,0.2
			c-0.2,0.1-0.4,0.3-0.5,0.5c-0.1,0.2-0.2,0.4-0.2,0.7c0,0.3,0.1,0.5,0.2,0.7c0.1,0.2,0.3,0.4,0.5,0.5c0.2,0.1,0.5,0.2,0.7,0.2
			c0.3,0,0.5-0.1,0.7-0.2c0.2-0.1,0.4-0.3,0.5-0.5c0.1-0.2,0.2-0.4,0.2-0.7C917.6,37.2,917.5,36.9,917.4,36.7L917.4,36.7z M917.2,38
			c-0.1,0.2-0.2,0.3-0.4,0.4c-0.2,0.1-0.4,0.2-0.6,0.2c-0.2,0-0.4-0.1-0.6-0.2c-0.2-0.1-0.3-0.2-0.4-0.4c-0.1-0.2-0.2-0.4-0.2-0.6
			c0-0.2,0.1-0.4,0.2-0.6c0.1-0.2,0.2-0.3,0.4-0.4c0.2-0.1,0.4-0.2,0.6-0.2c0.2,0,0.4,0.1,0.6,0.2c0.2,0.1,0.3,0.2,0.4,0.4
			c0.1,0.2,0.1,0.4,0.1,0.6C917.3,37.6,917.3,37.8,917.2,38L917.2,38z"/>
		<path class="st0" d="M916.6,37.9c0,0,0-0.1,0-0.2c0-0.1,0-0.1,0-0.2c0-0.1-0.1-0.1-0.1-0.1c0.1-0.1,0.2-0.2,0.2-0.3
			c0-0.1,0-0.2-0.1-0.3c-0.1-0.1-0.2-0.1-0.4-0.1h-0.4V38h0.2v-0.5h0.2c0.1,0,0.1,0,0.2,0c0,0,0,0.1,0,0.2c0,0.2,0,0.3,0,0.3h0.2
			L916.6,37.9C916.7,38,916.7,38,916.6,37.9L916.6,37.9z M916.4,37.3c0,0-0.1,0-0.2,0H916V37h0.2c0.1,0,0.2,0,0.2,0
			c0,0,0.1,0.1,0.1,0.1C916.4,37.2,916.4,37.3,916.4,37.3L916.4,37.3z"/>
	</g>
	<g>
		<path class="st0" d="M1215.9,123.7c-0.6,0-1.2-0.1-1.7-0.3c-0.5-0.2-0.9-0.5-1.2-0.8c-0.3-0.4-0.5-0.7-0.7-1.2
			c-0.2-0.4-0.2-0.9-0.2-1.3v-12.7h3.8v12.4c0,0.5,0.3,0.8,0.8,0.8h1.3v3.2H1215.9z"/>
		<path class="st0" d="M1226,123.7v-1c-0.4,0.4-0.8,0.7-1.2,0.9c-0.4,0.2-0.9,0.3-1.5,0.3c-1.2,0-2.2-0.4-3-1.1
			c-0.7-0.7-1.1-1.7-1.1-2.9c0-1,0.4-1.9,1.1-2.6c0.7-0.7,1.8-1,3.1-1h2.5v-0.3c0-0.5-0.1-0.9-0.4-1.2c-0.3-0.2-0.8-0.4-1.4-0.4
			c-0.5,0-0.8,0.1-1.1,0.2c-0.3,0.1-0.6,0.3-0.9,0.6l-2.3-2.3c0.6-0.6,1.3-1.1,1.9-1.3c0.7-0.2,1.5-0.4,2.6-0.4
			c1.8,0,3.1,0.4,4.1,1.1c0.9,0.8,1.4,1.9,1.4,3.4v8H1226z M1225.9,118.7h-1.9c-0.4,0-0.7,0.1-0.9,0.3c-0.2,0.2-0.3,0.4-0.3,0.7
			c0,0.3,0.1,0.5,0.3,0.7c0.2,0.2,0.5,0.3,0.9,0.3c0.4,0,0.7,0,0.9-0.1c0.2-0.1,0.4-0.2,0.6-0.4c0.2-0.2,0.4-0.6,0.4-1.2V118.7z"/>
		<path class="st0" d="M1241.5,121.5c-0.3,0.5-0.7,1-1.2,1.3c-0.5,0.3-1.1,0.6-1.7,0.8c-0.6,0.2-1.3,0.3-2.1,0.3
			c-1.2,0-2.2-0.1-3-0.3c-0.8-0.2-1.6-0.7-2.4-1.5l2.4-2.4c0.4,0.4,0.9,0.7,1.4,0.8c0.5,0.1,1,0.2,1.6,0.2c0.4,0,0.7-0.1,1.1-0.2
			c0.3-0.1,0.5-0.3,0.5-0.6c0-0.2-0.1-0.4-0.2-0.5c-0.1-0.1-0.4-0.2-0.7-0.3l-1.9-0.2c-1.1-0.1-2-0.4-2.6-1
			c-0.6-0.6-0.9-1.4-0.9-2.6c0-0.7,0.1-1.2,0.4-1.8c0.3-0.5,0.6-0.9,1.1-1.3c0.5-0.4,1-0.6,1.6-0.8c0.6-0.2,1.2-0.3,1.8-0.3
			c1.1,0,2,0.1,2.8,0.3c0.8,0.2,1.5,0.6,2,1.2l-2.3,2.3c-0.3-0.3-0.6-0.5-1.1-0.6c-0.5-0.1-1-0.2-1.5-0.2c-0.4,0-0.7,0.1-0.9,0.2
			c-0.2,0.2-0.3,0.3-0.3,0.5c0,0.2,0,0.3,0.1,0.4c0.1,0.1,0.3,0.2,0.7,0.3l1.9,0.2c1.2,0.1,2.2,0.5,2.8,1.2c0.6,0.7,0.9,1.5,0.9,2.6
			C1241.9,120.4,1241.7,121,1241.5,121.5z"/>
		<path class="st0" d="M1247.8,123.7c-0.6,0-1.2-0.1-1.7-0.3c-0.5-0.2-0.9-0.5-1.2-0.9c-0.3-0.4-0.5-0.7-0.7-1.2
			c-0.2-0.4-0.2-0.9-0.2-1.3v-5.3h-1.1v-2.9h1.1v-3.5h3.8v3.5h2v2.9h-2v5.1c0,0.5,0.3,0.8,0.8,0.8h1.2v3.2H1247.8z"/>
		<path class="st0" d="M1265.6,123.7v-7.4c0-0.3,0-0.6-0.1-0.8c-0.1-0.2-0.2-0.4-0.4-0.5c-0.2-0.1-0.3-0.2-0.5-0.3
			c-0.2,0-0.3-0.1-0.5-0.1s-0.3,0-0.5,0.1c-0.2,0-0.3,0.1-0.5,0.3c-0.2,0.1-0.3,0.3-0.4,0.5c-0.1,0.2-0.2,0.5-0.2,0.8v7.4h-3.8v-7.4
			c0-0.3,0-0.6-0.1-0.8c-0.1-0.2-0.2-0.4-0.4-0.5c-0.2-0.1-0.3-0.2-0.5-0.3c-0.2,0-0.3-0.1-0.5-0.1c-0.2,0-0.3,0-0.5,0.1
			c-0.2,0-0.3,0.1-0.5,0.3c-0.2,0.1-0.3,0.3-0.4,0.5c-0.1,0.2-0.2,0.5-0.2,0.8v7.4h-3.8v-12.4h3.7v1c0.4-0.4,0.8-0.7,1.3-0.8
			c0.5-0.2,1-0.3,1.5-0.3c1.2,0,2.2,0.4,3,1.3c0.5-0.5,1.1-0.8,1.6-1c0.5-0.2,1.2-0.3,1.9-0.3c0.6,0,1.2,0.1,1.7,0.3
			c0.5,0.2,0.9,0.4,1.3,0.8c0.5,0.5,0.9,1,1.1,1.6c0.2,0.6,0.3,1.2,0.3,1.9v7.9H1265.6z"/>
		<path class="st0" d="M1272.1,110.1v-2.9h3.8v2.9H1272.1z M1272.1,123.7v-11.9h3.8v11.9H1272.1z"/>
		<path class="st0" d="M1285.5,123.7v-7.4c0-0.3-0.1-0.6-0.1-0.8c-0.1-0.2-0.2-0.4-0.4-0.5c-0.2-0.1-0.3-0.2-0.5-0.3
			c-0.2,0-0.3-0.1-0.5-0.1c-0.2,0-0.3,0-0.5,0.1c-0.2,0-0.3,0.1-0.5,0.3c-0.2,0.1-0.3,0.3-0.4,0.5c-0.1,0.2-0.2,0.5-0.2,0.8v7.4
			h-3.8v-12.4h3.7v1c0.4-0.4,0.8-0.7,1.3-0.8c0.5-0.2,1-0.3,1.5-0.3c1.1,0,2.1,0.4,2.8,1.1c0.5,0.5,0.8,1,1,1.6
			c0.2,0.6,0.3,1.2,0.3,2v7.9H1285.5z"/>
		<path class="st0" d="M1298.8,123.7v-1c-0.4,0.4-0.8,0.7-1.3,0.9c-0.5,0.2-1,0.3-1.5,0.3c-1.1,0-2.1-0.4-2.8-1.1
			c-0.5-0.5-0.8-1-1-1.6c-0.2-0.6-0.3-1.2-0.3-2v-7.9h3.8v7.4c0,0.3,0.1,0.6,0.2,0.8c0.1,0.2,0.2,0.4,0.4,0.5
			c0.2,0.1,0.3,0.2,0.5,0.3c0.2,0,0.3,0.1,0.5,0.1c0.2,0,0.3,0,0.5-0.1c0.2,0,0.3-0.1,0.5-0.3c0.2-0.1,0.3-0.3,0.4-0.5
			c0.1-0.2,0.1-0.5,0.1-0.8v-7.4h3.8v12.4H1298.8z"/>
		<path class="st0" d="M1309.4,123.7c-0.6,0-1.2-0.1-1.7-0.3c-0.5-0.2-0.9-0.5-1.2-0.9c-0.3-0.4-0.5-0.7-0.7-1.2
			c-0.2-0.4-0.2-0.9-0.2-1.3v-5.3h-1.1v-2.9h1.1v-3.5h3.8v3.5h2v2.9h-2v5.1c0,0.5,0.3,0.8,0.8,0.8h1.2v3.2H1309.4z"/>
		<path class="st0" d="M1316.8,118.7c0,0.5,0.2,1,0.6,1.4c0.4,0.4,0.9,0.6,1.6,0.6c0.6,0,1.1-0.1,1.5-0.2c0.4-0.2,0.7-0.4,1.1-0.8
			l2.2,2.3c-0.7,0.7-1.4,1.2-2.1,1.5c-0.7,0.3-1.6,0.5-2.7,0.5c-0.8,0-1.5-0.1-2.2-0.3c-0.7-0.2-1.3-0.5-1.9-0.9
			c-0.6-0.5-1-1.1-1.4-1.9c-0.3-0.8-0.5-1.9-0.5-3.2c0-2,0.5-3.5,1.5-4.6s2.4-1.7,4-1.7c0.9,0,1.7,0.1,2.4,0.4
			c0.7,0.3,1.3,0.7,1.8,1.3c0.5,0.5,0.8,1.2,1.1,1.9c0.2,0.7,0.4,1.5,0.4,2.3v1.7H1316.8z M1320.2,115.3c-0.1-0.3-0.3-0.5-0.6-0.7
			c-0.3-0.2-0.6-0.3-1-0.3c-0.4,0-0.8,0.1-1,0.3c-0.3,0.2-0.5,0.4-0.6,0.7c-0.1,0.3-0.2,0.6-0.2,1h3.7
			C1320.5,115.9,1320.4,115.6,1320.2,115.3z"/>
		<path class="st0" d="M1326.4,123.7v-4.1h4.1v4.1H1326.4z"/>
		<path class="st0" d="M1338.2,123.8c-0.6,0-1.3-0.1-1.9-0.3c-0.6-0.2-1.2-0.5-1.8-0.9c-0.6-0.5-1-1.1-1.4-2
			c-0.4-0.8-0.5-1.9-0.5-3.2c0-1.3,0.2-2.3,0.5-3.2c0.4-0.8,0.8-1.5,1.4-2c0.6-0.5,1.2-0.8,1.8-0.9c0.6-0.2,1.2-0.3,1.9-0.3
			c1.7,0,3,0.5,4.1,1.6l-2.5,2.6c-0.3-0.3-0.5-0.4-0.7-0.6c-0.2-0.1-0.5-0.2-0.8-0.2c-0.5,0-0.8,0.2-1.2,0.5
			c-0.4,0.4-0.6,1.2-0.6,2.4c0,1.2,0.2,2,0.6,2.4c0.3,0.3,0.7,0.5,1.2,0.5c0.3,0,0.6-0.1,0.8-0.2c0.2-0.1,0.5-0.3,0.7-0.6l2.5,2.6
			C1341.2,123.3,1339.9,123.8,1338.2,123.8z"/>
		<path class="st0" d="M1353.6,120.4c-0.2,0.7-0.5,1.3-1.1,1.9c-0.4,0.5-1,0.8-1.6,1.1c-0.7,0.3-1.4,0.4-2.4,0.4
			c-0.9,0-1.7-0.1-2.3-0.4c-0.7-0.3-1.2-0.7-1.6-1.1c-0.5-0.6-0.9-1.2-1.1-1.9c-0.2-0.7-0.3-1.6-0.3-2.9c0-1.2,0.1-2.2,0.3-2.9
			c0.2-0.7,0.5-1.3,1.1-1.9c0.4-0.5,1-0.8,1.6-1.1c0.7-0.3,1.4-0.4,2.3-0.4c0.9,0,1.7,0.1,2.4,0.4c0.6,0.3,1.2,0.7,1.6,1.1
			c0.5,0.6,0.9,1.2,1.1,1.9c0.2,0.7,0.3,1.7,0.3,2.9C1353.9,118.8,1353.8,119.7,1353.6,120.4z M1350,115.9c-0.1-0.4-0.2-0.7-0.4-0.9
			c-0.2-0.2-0.6-0.3-1-0.3c-0.4,0-0.8,0.1-1,0.3c-0.2,0.2-0.4,0.5-0.4,0.9c-0.1,0.4-0.1,0.9-0.1,1.6c0,0.7,0,1.2,0.1,1.6
			c0.1,0.4,0.2,0.7,0.4,0.9c0.2,0.2,0.6,0.3,1,0.3c0.4,0,0.8-0.1,1-0.3c0.2-0.2,0.4-0.5,0.4-0.9c0.1-0.4,0.1-0.9,0.1-1.6
			C1350.1,116.8,1350.1,116.3,1350,115.9z"/>
		<path class="st0" d="M1369.9,123.7v-7.4c0-0.3,0-0.6-0.1-0.8c-0.1-0.2-0.2-0.4-0.4-0.5c-0.2-0.1-0.3-0.2-0.5-0.3
			c-0.2,0-0.3-0.1-0.5-0.1c-0.2,0-0.3,0-0.5,0.1c-0.2,0-0.3,0.1-0.5,0.3c-0.2,0.1-0.3,0.3-0.4,0.5c-0.1,0.2-0.2,0.5-0.2,0.8v7.4
			h-3.8v-7.4c0-0.3-0.1-0.6-0.1-0.8c-0.1-0.2-0.2-0.4-0.4-0.5c-0.2-0.1-0.3-0.2-0.5-0.3c-0.2,0-0.3-0.1-0.5-0.1
			c-0.2,0-0.3,0-0.5,0.1c-0.2,0-0.3,0.1-0.5,0.3c-0.2,0.1-0.3,0.3-0.4,0.5c-0.1,0.2-0.2,0.5-0.2,0.8v7.4h-3.8v-12.4h3.7v1
			c0.4-0.4,0.8-0.7,1.3-0.8c0.5-0.2,1-0.3,1.5-0.3c1.2,0,2.2,0.4,3,1.3c0.5-0.5,1.1-0.8,1.6-1c0.5-0.2,1.2-0.3,1.9-0.3
			c0.6,0,1.2,0.1,1.7,0.3c0.5,0.2,0.9,0.4,1.3,0.8c0.5,0.5,0.9,1,1.1,1.6c0.2,0.6,0.3,1.2,0.3,1.9v7.9H1369.9z"/>
		<path class="st0" d="M1376.3,123.7v-4.1h4.1v4.1H1376.3z"/>
		<path class="st0" d="M1389.1,123.7v-1c-0.4,0.4-0.8,0.7-1.2,0.9c-0.4,0.2-0.9,0.3-1.5,0.3c-1.2,0-2.2-0.4-3-1.1
			c-0.7-0.7-1.1-1.7-1.1-2.9c0-1,0.4-1.9,1.1-2.6c0.7-0.7,1.8-1,3.1-1h2.5v-0.3c0-0.5-0.1-0.9-0.4-1.2c-0.3-0.2-0.8-0.4-1.4-0.4
			c-0.5,0-0.8,0.1-1.1,0.2c-0.3,0.1-0.6,0.3-0.9,0.6l-2.3-2.3c0.6-0.6,1.3-1.1,1.9-1.3c0.7-0.2,1.5-0.4,2.6-0.4
			c1.8,0,3.1,0.4,4.1,1.1c0.9,0.8,1.4,1.9,1.4,3.4v8H1389.1z M1389,118.7h-1.9c-0.4,0-0.7,0.1-0.9,0.3c-0.2,0.2-0.3,0.4-0.3,0.7
			c0,0.3,0.1,0.5,0.3,0.7c0.2,0.2,0.5,0.3,0.9,0.3c0.4,0,0.7,0,0.9-0.1c0.2-0.1,0.4-0.2,0.6-0.4c0.2-0.2,0.4-0.6,0.4-1.2V118.7z"/>
		<path class="st0" d="M1402.2,123.7v-1c-0.4,0.4-0.8,0.7-1.3,0.9c-0.5,0.2-1,0.3-1.6,0.3c-1.1,0-2.1-0.4-2.8-1.1
			c-0.5-0.5-0.8-1-1-1.6c-0.2-0.6-0.3-1.2-0.3-2v-7.9h3.8v7.4c0,0.3,0.1,0.6,0.2,0.8c0.1,0.2,0.2,0.4,0.4,0.5
			c0.2,0.1,0.3,0.2,0.5,0.3c0.2,0,0.3,0.1,0.5,0.1c0.2,0,0.3,0,0.5-0.1c0.2,0,0.3-0.1,0.5-0.3c0.2-0.1,0.3-0.3,0.4-0.5
			c0.1-0.2,0.1-0.5,0.1-0.8v-7.4h3.8v12.4H1402.2z"/>
	</g>
	<g>
		<path class="st0" d="M736.6,39.4v0.9h-0.1v-0.9h-0.4v-0.1h0.9v0.1H736.6z M738.1,40.3l0-0.8h0l-0.3,0.8h-0.1l-0.3-0.8h0l0,0.8
			h-0.1l0-1h0.2l0.3,0.8h0l0.3-0.8h0.2l0,1H738.1z M738.1,40.3"/>
		<path class="st0" d="M722.9,55.7c6.3-0.4,11.3-5.6,11.5-12c0-1.9-1.3-5-5.7-5.4l0,0c3.6,0.4,4.9,3,4.9,4.7
			C733.5,48.9,729,55,722.9,55.7L722.9,55.7z M722.9,55.7"/>
		<path class="st0" d="M723.1,55.4L723.1,55.4c3.9-0.5,7.9-8.7,8-14.2c0-1.2-0.7-2.4-2.4-2.7l0,0c1.1,0.3,1.6,1.1,1.6,2.1
			C730.1,46,726.2,54.8,723.1,55.4L723.1,55.4z M723.1,55.4"/>
		<path class="st0" d="M723,55.6c5.3-0.6,9.6-7.4,9.7-13.1c0-1.5-1-3.7-4-4l0,0c2.4,0.4,3.2,2,3.2,3.4
			C731.8,47.4,727.6,54.9,723,55.6L723,55.6z M723,55.6"/>
		<path class="st0" d="M728.8,38.2L728.8,38.2c5,0.5,6.4,4,6.4,6.1c-0.1,6-4.8,10.9-12.3,11.4l0,0c8.3-0.5,13.1-4.8,13.2-10.9
			C736.1,42.7,734.5,38.5,728.8,38.2L728.8,38.2z M728.8,38.2"/>
		<path class="st0" d="M715.7,49.6c0.1-6,5.2-10.9,12.3-11.4l0,0c-7.9,0.5-13.1,4.8-13.2,10.8c0,2.2,1.6,6.4,7.3,6.7l0,0
			C717.1,55.3,715.6,51.7,715.7,49.6L715.7,49.6z M715.7,49.6"/>
		<path class="st0" d="M720.6,53.3c0.1-5.1,4.1-14.2,7.2-14.8l0,0c-3.8,0.6-7.9,8.9-8,14.2c0,1.2,0.6,2.5,2.4,2.7l0,0
			C721,55.2,720.6,54.3,720.6,53.3L720.6,53.3z M720.6,53.3"/>
		<path class="st0" d="M717.3,50.8c0.1-5.7,4.7-11.9,10.6-12.5l0,0c-6.6,0.5-11.4,6.1-11.5,12c0,1.9,1.3,5.1,5.7,5.4l0,0
			C718.4,55.2,717.3,52.6,717.3,50.8L717.3,50.8z M717.3,50.8"/>
		<path class="st0" d="M719,52.1c0.1-5.4,4.5-13,8.9-13.7l0,0c-5.2,0.6-9.6,7.5-9.7,13.1c0,1.5,1,3.8,4,4.1l0,0
			C719.8,55.2,718.9,53.4,719,52.1L719,52.1z M719,52.1"/>
		<path class="st0" d="M699.4,55.5L699.4,55.5c6.1-0.7,10.7-8.2,11.1-13c0.1-1.6-0.6-2.4-1.7-2.6c-1.6-0.2-3.7,0.9-4.9,2.6l0,0
			c1.2-1.6,2.9-2.5,4.2-2.3c0.9,0.1,1.5,0.8,1.4,2.1C709.2,46.8,705,54.3,699.4,55.5L699.4,55.5z M699.4,55.5"/>
		<path class="st0" d="M699.5,55.4L699.5,55.4c4.5-1.2,8.7-9.1,9.1-12.9c0.1-1-0.3-1.6-1.1-1.7c-1.1-0.1-2.5,0.7-3.5,2l0,0
			c0.8-1,2-1.7,2.8-1.6c0.5,0.1,0.9,0.5,0.8,1.3C707.3,45.8,703.4,53.7,699.5,55.4L699.5,55.4z M699.5,55.4"/>
		<g>
			<defs>
				<rect id="SVGID_1_" x="657.3" y="29.8" width="81.1" height="26"/>
			</defs>
			<clipPath id="SVGID_2_">
				<use xlink:href="#SVGID_1_"  style="overflow:visible;"/>
			</clipPath>
			<path class="st1" d="M712.5,42.6c0.2-2.1-0.8-3.2-2.3-3.4c-2.2-0.3-4.8,1-6.4,3.3l0,0c1.5-2,3.8-3.2,5.7-3c1.3,0.2,2.2,1.1,2,3
				c-0.5,5.4-5.6,12.7-12.2,13.1l0,0C706.7,55.6,712,48.4,712.5,42.6L712.5,42.6z M712.5,42.6"/>
			<path class="st1" d="M711.6,38.3c-2.7-0.4-6,1.2-7.9,4l0,0c1.8-2.5,4.7-4,7.2-3.7c1.6,0.2,2.8,1.5,2.5,3.9
				c-0.6,6.2-5.8,13.2-14.2,13.2l0,0c8.7,0.3,14.6-6.5,15.2-13.2C714.7,39.9,713.5,38.5,711.6,38.3L711.6,38.3z M711.6,38.3"/>
		</g>
		<path class="st0" d="M698.8,50.9c-0.3,0.8-1,2.4-1,3.3c0,0.4,0.3,0.9,0.7,1.1c0.1,0,0.1,0.1,0.2,0.1l0-0.1
			c-0.1-0.1-0.2-0.3-0.2-0.7c0.1-0.9,0.8-2.6,1.1-3.4l8.4-21.5l-1.1,0.2c0.1,0.3-2.2,5.9-2.3,6.2L698.8,50.9z M698.8,50.9"/>
		<path class="st0" d="M699,36.3l-4.9,12.6c-0.3,0.8-0.7,1.8-0.8,2.8c-0.2,2.1,1.6,3.8,5.2,3.9l0,0c-3-0.2-4.6-1.6-4.5-3.5
			c0.1-1,0.5-2.1,0.9-2.9l5.1-13c0.5-1.2,1.8-4.1,1.1-5.1l-1.1,0.2v0.1C700.7,32.6,699.6,35,699,36.3L699,36.3z M699,36.3"/>
		<path class="st0" d="M701,36l-5.3,13.6c-0.3,0.8-0.8,2.1-0.9,3c-0.1,1.7,1.2,2.8,3.8,3l0,0c-0.5-0.1-1-0.2-1.5-0.4
			c-1-0.4-1.6-1.1-1.5-2.1c0.1-1,0.6-2.3,0.9-3.1l5.4-13.9c0.3-0.7,1.8-4.2,1.4-5.3l-1.1,0.2V31C702.8,31.9,701.3,35.1,701,36
			L701,36z M701,36"/>
		<path class="st0" d="M697.2,50.3c-0.3,0.8-0.9,2.3-1,3.2c-0.1,1.2,0.9,1.8,2.3,2l0,0c-0.9-0.2-1.7-0.6-1.6-1.6
			c0.1-0.9,0.7-2.5,1-3.3l5.6-14.5c0.1-0.4,2.3-5.6,2-5.9l-1.1,0.2v0.1c0,1.3-1.4,4.7-1.7,5.5L697.2,50.3z M697.2,50.3"/>
		<path class="st0" d="M698.5,55.7c-4-0.2-6.1-2.1-5.9-4.4c0.1-1,0.5-1.9,0.8-2.7l4.7-12.1c0.6-1.5,1.7-3.8,0.8-4.9l-1.1,0.2v0.1
			c0.9,1,0.1,2.7-0.5,4.4l-4.7,12c-0.4,0.8-0.6,1.7-0.7,2.6C691.6,53.4,693.9,55.6,698.5,55.7L698.5,55.7z M698.5,55.7"/>
		<path class="st0" d="M693.1,40.5c-0.1-1.6-1-2.3-2.2-2.3c-2.1,0-3.9,1.7-5,3.9c0-0.3,0-0.5,0-0.8c-0.1-1.7-1.3-3.1-3.4-3.1
			c-4.5,0-6.8,3-7.5,6.4h0c0.8-3.2,2.9-6,7-6c2,0,3,1.2,3.1,2.8c0.1,2.1-0.6,3.7-1.3,5.5l-3.3,8.7h0.9l3.3-8.6
			c0.2-0.6,0.4-1.1,0.6-1.7c0.7-1.4,1.5-2.8,1.9-2.8c0.3,0,0.4,0.3,0.4,0.5c0.1,0.9-0.3,2.4-1,3.7l0,0c0.8-0.7,1.8-2.9,1.7-4.1
			c0-0.5-0.2-0.8-0.7-0.8c-0.7,0-1.6,1.5-2.3,3c0.1-0.2,0.1-0.5,0.2-0.7c0.7-1.5,1.7-2.9,2.6-2.9c0.6,0,0.9,0.4,0.9,1
			c0.1,1.5-1.3,3.8-2.5,4.5l0,0c1.6-0.7,3.3-3,3.2-4.9c0-0.8-0.5-1.3-1.2-1.3c-1.1,0-2.3,1.3-3,3c0-0.1,0-0.3,0.1-0.4
			c0.9-1.8,2.1-3.2,3.5-3.2c0.8,0,1.4,0.5,1.4,1.5c0.1,2.2-2,4.6-3.9,5.3l0,0c2.3-0.6,4.8-3.1,4.7-5.7c-0.1-1.2-0.8-1.8-1.7-1.8
			c-1.6,0-3.1,1.5-4,3.4c0-0.1,0-0.2,0-0.3c1-2.1,2.7-3.7,4.5-3.7c1,0,1.9,0.7,1.9,2.1c0.2,3-2.6,5.5-5.4,6.1l0,0
			C690.3,46.5,693.3,43.8,693.1,40.5L693.1,40.5z M693.1,40.5"/>
		<path class="st0" d="M681,41.6c0-0.8-0.6-1.4-1.5-1.4c-2,0-3.5,2.1-4.2,4.4h0c0.8-2,2.1-4,3.7-4c0.7,0,1.1,0.4,1.1,1
			c0.1,1.1-1,3.5-1.6,4.9l-3.6,9h0.9l3.5-8.9C680,45.1,681.1,42.8,681,41.6L681,41.6z M681,41.6"/>
		<path class="st0" d="M679.4,41.7c0-0.5-0.3-0.8-0.8-0.8c-1.1,0-2.4,1.8-3.1,3.7h0.1c0.8-1.7,1.9-3.4,2.6-3.4
			c0.3,0,0.5,0.1,0.5,0.5c0,0.7-1.2,3.5-1.7,4.7l-3.7,9.1h0.9l3.6-9.1C678.2,45.2,679.4,42.5,679.4,41.7L679.4,41.7z M679.4,41.7"/>
		<path class="st0" d="M684.3,41.4c-0.1-1.4-1-2.6-2.8-2.6c-3.6,0-5.7,2.7-6.4,5.7h0c0.8-2.8,2.7-5.4,5.9-5.4c1.5,0,2.4,0.9,2.5,2.2
			c0.1,1.7-0.7,3.6-1.4,5.3l-3.4,8.8h0.9l3.3-8.7C683.6,45,684.4,43.2,684.3,41.4L684.3,41.4z M684.3,41.4"/>
		<path class="st0" d="M682.6,41.5c-0.1-1.1-0.8-2-2.1-2c-2.9,0-4.6,2.5-5.4,5.1h0c0.8-2.4,2.4-4.7,4.8-4.7c1.1,0,1.7,0.7,1.8,1.7
			c0.1,1.4-0.9,3.6-1.5,5.1l-3.5,8.9h0.9l3.5-8.8C681.8,45.1,682.7,43,682.6,41.5L682.6,41.5z M682.6,41.5"/>
		<path class="st0" d="M669.4,49.4l0.6-1.2L668,38c-0.6-2.8,0.1-4.1,2.3-4.5v0h-2.1c-0.6,0.3-1.9,1.2-1.1,4.6L669.4,49.4z
			 M669.4,49.4"/>
		<path class="st0" d="M668.2,51.8l0.6-1.2L666.2,38c-0.5-2.5-0.3-3.7,0.5-4.5v0h-1.4c-0.4,0.9-0.6,1.8-0.1,4.3L668.2,51.8z
			 M668.2,51.8"/>
		<path class="st0" d="M661.8,33.5h-1.5v0c0.7,0.8,0.8,1.8,1.4,3.9l3.9,18.1h0.9l-3.9-18.1C662,35,661.9,34.4,661.8,33.5L661.8,33.5
			z M661.8,33.5"/>
		<path class="st0" d="M667.1,54.3l0.6-1.2l-3.2-15.4c-0.6-2.4-0.4-3.5-0.2-4.2h-1.3c0,1,0,1.8,0.5,3.8L667.1,54.3z M667.1,54.3"/>
		<path class="st0" d="M658.9,33.5h-1.6v0c1.4,0.6,2.1,1.7,2.7,4.2l3.9,17.8h0.9l-3.9-17.9C660.2,34.5,659.5,33.9,658.9,33.5
			L658.9,33.5z M658.9,33.5"/>
		<path class="st0" d="M673.4,41.4L673.4,41.4c2.2-5.1,2.8-6.5,3.7-7.9v0h-1.8v0.1C675.5,35.6,674.8,37.5,673.4,41.4L673.4,41.4z
			 M673.4,41.4"/>
		<path class="st0" d="M678.8,33.5c-1.8,1.1-2.9,3.1-5.3,8l0.1,0c2.7-5,4.2-7,7.6-8v0H678.8z M678.8,33.5"/>
		<path class="st0" d="M673.3,41.3L673.3,41.3c1.4-4.6,1.9-6.6,0.7-7.8h-1.7v0C674.2,34.2,674.6,36.2,673.3,41.3L673.3,41.3z
			 M673.3,41.3"/>
	</g>
	<g>
		<path class="st0" d="M647.8,117.6l2.2,0.1c-1,3.5-4,5.8-7.5,5.8c-4.6,0-6.3-3.3-5.5-7.7c0.9-4.4,3.7-8.1,8.5-8.1
			c3.9,0,5.7,2.3,5.2,6.1l-4.4,0.2c0.3-1.3,0.1-2.9-1.5-2.9c-2.1,0-2.8,3.2-3.1,4.6c-0.3,1.5-0.7,4.1,1.4,4.1c1.4,0,2.3-1.3,2.6-2.5
			L647.8,117.6L647.8,117.6z"/>
		<path class="st0" d="M657,123.3l1.4-7.1c0.1-0.8,0.1-1.4-0.8-1.4c-0.4,0-0.8,0.2-1.1,0.6c-0.3,0.3-0.4,0.7-0.5,1.1l-1.3,6.8h-4.4
			l3-15.3h4.4l-1,5.2c1-1,2.2-1.6,3.5-1.6c1.1,0,2.2,0.3,2.7,1.2c0.5,1,0.2,2.1,0,3.2l-1.4,7.1H657L657,123.3z"/>
		<path class="st0" d="M675.3,119.5c-1.2,2.8-3.9,4-6.6,4c-1.7,0-3.2-0.4-4.3-1.5c-1-1.1-1.4-2.6-1-4.3c0.3-1.5,1.2-3.2,2.5-4.3
			c1.4-1.2,3.2-1.8,4.9-1.8c3.8,0,5.6,2.5,4.9,6.2l-0.1,0.6h-7.6c-0.3,1.2,0,2.1,1.3,2.1c1,0,1.6-0.4,2-1.4L675.3,119.5L675.3,119.5
			z M671.4,116.3c0.2-1.1,0-2-1.2-2c-1.2,0-1.8,0.9-2,2H671.4L671.4,116.3z"/>
		<path class="st0" d="M683.1,123.3c0-0.5,0.1-1,0.1-1.6c-1.1,1.3-2.5,1.8-4.1,1.8c-2.1,0-3.7-1.2-3.3-3.4c0.3-1.8,2-3,3.7-3.5
			c1.5-0.4,3.1-0.6,4.6-0.7l0-0.1c0.2-1,0-1.4-1.1-1.4c-0.9,0-1.7,0.3-2,1.3l-4-0.4c1.2-2.8,4.1-3.6,6.6-3.6c1.3,0,3,0.2,4,1
			c1.3,1,0.8,2.5,0.5,4.1l-0.8,4c-0.2,0.8-0.3,1.7-0.1,2.5H683.1L683.1,123.3z M683.7,118c-1.1,0.1-2.9,0.4-3.2,1.8
			c-0.1,0.7,0.3,1,1,1c1.7,0,2-1.4,2.2-2.6L683.7,118L683.7,118z"/>
		<path class="st0" d="M695,111.9l-0.3,1.6h0c0.7-1.4,2.1-1.8,3.6-1.8c3.2,0,3.7,3.1,3.1,5.8c-0.2,1.3-0.7,2.7-1.5,3.8
			c-1,1.4-2.3,2.2-3.9,2.2c-1.2,0-2.2-0.4-2.7-1.4l-0.9,4.8H688l2.9-15H695L695,111.9z M694,118.9c-0.2,0.8-0.2,1.8,0.8,1.8
			c0.6,0,1.1-0.3,1.4-0.9c0.3-0.6,0.5-1.4,0.6-2.1c0.2-0.9,0.6-3.2-0.8-3.2c-0.4,0-0.8,0.2-1.1,0.5c-0.4,0.4-0.4,0.7-0.5,1.2
			L694,118.9L694,118.9z"/>
		<path class="st0" d="M728.1,119c-1,2.9-3.4,4.5-6.3,4.5c-1.6,0-2.9-0.4-3.9-1.6c-0.9-1.2-1.2-2.7-0.9-4.3c0.7-3.4,3.5-5.9,7-5.9
			c2.8,0,4.7,1.6,4.5,4.5l-4,0.3v-0.1c0-0.8,0-1.7-1-1.7c-1.4,0-1.8,1.8-2,2.8c-0.2,1.1-0.5,2.8,0.9,2.8c1,0,1.5-0.9,1.8-1.7
			L728.1,119L728.1,119z"/>
		<polygon class="st0" points="707.1,123.2 702.6,123.2 704.9,111.6 701.7,111.6 702.4,108 713.2,108 712.5,111.6 709.3,111.6 
			707.1,123.2 		"/>
		<polygon class="st0" points="715.1,123.2 710.7,123.2 712.9,111.9 717.3,111.9 715.1,123.2 		"/>
		<polygon class="st0" points="738,115.8 740.4,123.2 735.8,123.2 734.6,118.7 733.2,120.1 732.6,123.2 728.2,123.2 731.1,108 
			735.5,108 733.9,116.2 735.1,114.9 738.4,111.9 742.2,111.9 738,115.8 		"/>
		<path class="st0" d="M752.5,119.4c-1.2,2.8-3.9,4-6.6,4c-1.7,0-3.2-0.4-4.3-1.5c-1-1.1-1.4-2.6-1-4.3c0.3-1.5,1.2-3.2,2.5-4.3
			c1.4-1.2,3.2-1.8,4.9-1.8c3.8,0,5.6,2.5,4.9,6.2l-0.1,0.6h-7.6c-0.3,1.2,0,2.1,1.3,2.1c1,0,1.6-0.4,2-1.4L752.5,119.4L752.5,119.4
			z M748.7,116.2c0.2-1.1,0-2-1.2-2c-1.2,0-1.8,0.9-2,2H748.7L748.7,116.2z"/>
		<path class="st0" d="M753.4,114.8l0.6-2.9h1.8l1-3.6l3.9-0.1l-0.7,3.8l2.3,0l-0.6,2.9l-2.2,0l-0.8,3.9c-0.2,0.8-0.4,1.5,0.7,1.5
			c0.4,0,0.9-0.1,1.3-0.2l-0.6,3.2l-2.7,0.3c-1.2,0.2-2.3-0.2-3-1.2c-0.7-0.9-0.4-2-0.2-3.2l0.8-4.3H753.4L753.4,114.8z"/>
		<path class="st0" d="M764.9,119.5c0,1.1,1.2,1.2,2.2,1.2c0.4,0,1.7,0,1.8-0.7c0.1-0.6-1.4-0.7-1.8-0.7c-2.3-0.3-5-0.8-4.5-3.8
			c0.3-1.3,1.1-2.3,2.3-3c1.2-0.7,2.6-0.9,3.8-0.9c2.1,0,4.2,0.8,4.6,3l-3.5,0.6c-0.2-0.8-1-1-1.8-1c-0.4,0-1.4,0.1-1.5,0.6
			c-0.1,0.4,0.3,0.5,0.6,0.6c0.5,0.1,1.3,0.2,1.9,0.3c1,0.1,2.1,0.3,2.9,0.8c0.9,0.7,1.3,1.7,1,2.9c-0.6,3.1-4.1,4-6.7,4
			c-2.5,0-4.7-0.8-5.1-3.5L764.9,119.5L764.9,119.5z"/>
		<g>
			<path class="st0" d="M644.9,115c-0.4-2.3-3.7-4.7-7.2-5.4c-2.6-0.5-4.6,0-5.4,1.2c1-0.4,2.2-0.5,3.6-0.2c3.5,0.6,6.6,2.9,7,5.3
				c0.2,0.8,0,1.5-0.5,2C644.2,117.5,645.2,116.5,644.9,115L644.9,115z"/>
			<g>
				<path class="st0" d="M637,104.1c-2.2-0.4-15.6-2.8-16.3-2.9c-1.3-0.2-3,0.2-4,1.9c-1.1,2.1-3.1,5.7-3.3,6.2
					c-0.2,0.5-0.4,1.2,0.4,1.6c2.4,1.3,12.1,6.3,15.1,7.8c1,0.5,3.4,0.3,4.6-1.9c1-1.9,4.8-9.5,5.1-9.9
					C639.1,105.9,639.2,104.4,637,104.1z M628.4,115.6l-13.2-5.8l3.9-7.2l13.8,3L628.4,115.6z M633.9,111.6
					c-1.1,0.2-2.1-0.2-2.2-0.9c-0.1-0.8,0.8-1.6,2-1.8c1.1-0.2,2.1,0.2,2.2,0.9C636,110.6,635.1,111.4,633.9,111.6z"/>
				<g>
					<path class="st0" d="M620.2,104.8c1.1,0,6.3,0.5,8.1,2.6C626.3,107,622.7,105.5,620.2,104.8"/>
					<path class="st0" d="M624.6,108.6c-1.5-0.6-3.4-1.2-5.9-2c1.6,0,8.6,1.5,10,3.3C627.9,109.8,626.1,109.1,624.6,108.6"/>
					<path class="st0" d="M619.8,109c0.8,0,5.7,0.7,7.2,2.3C625.8,111.1,623.2,109.9,619.8,109"/>
				</g>
			</g>
		</g>
		<path class="st0" d="M775.9,109.5c0.4,0,0.7,0.1,0.9,0.4c0.3,0.3,0.4,0.6,0.4,0.9c0,0.4-0.1,0.7-0.4,0.9c-0.3,0.3-0.6,0.4-0.9,0.4
			c-0.4,0-0.7-0.1-0.9-0.4c-0.3-0.3-0.4-0.6-0.4-0.9c0-0.4,0.1-0.7,0.4-0.9C775.2,109.6,775.5,109.5,775.9,109.5L775.9,109.5z
			 M775.9,111.9c0.3,0,0.6-0.1,0.8-0.3c0.2-0.2,0.3-0.5,0.3-0.8c0-0.3-0.1-0.5-0.3-0.8c-0.2-0.2-0.5-0.3-0.8-0.3
			c-0.3,0-0.5,0.1-0.8,0.3c-0.2,0.2-0.3,0.5-0.3,0.8c0,0.3,0.1,0.6,0.3,0.8C775.3,111.7,775.6,111.9,775.9,111.9L775.9,111.9z
			 M776.5,111.5h-0.3l-0.4-0.6h-0.2v0.6h-0.3v-1.4h0.4c0.2,0,0.3,0,0.4,0.1c0.1,0.1,0.1,0.2,0.1,0.3c0,0.2-0.1,0.3-0.3,0.4
			L776.5,111.5L776.5,111.5z M775.7,110.7h0.1c0.2,0,0.3-0.1,0.3-0.2c0-0.1-0.1-0.2-0.3-0.2h-0.2V110.7L775.7,110.7z"/>
	</g>
	<g>
		<path class="st0" d="M458.9,39.2c0-1.1-1-2.7-3-2.7c-1.8,0-3,1.5-3,3.1c0,1.9,1.3,3.2,3.5,3.2h4.2c-1,1.6-2.7,2.6-4.7,2.6
			c-3.2,0-5.7-2.6-5.7-5.8c0-3.2,2.6-5.8,5.7-5.8c3.2,0,5.8,2.6,5.8,5.8c0,0.6-0.1,1.2-0.3,1.8H455v-0.6l2.3-0.1
			C458.4,40.7,458.9,40.1,458.9,39.2"/>
		<path class="st0" d="M466.6,37.2c0.1,0.2,0.2,0.2,0.3,0l2-3h3l-3.7,5.2l4,5.6H469l-2.3-3.3c-0.1-0.2-0.2-0.2-0.3,0l-2.3,3.3h-3
			l4-5.5l-3.8-5.3h3.2L466.6,37.2L466.6,37.2z"/>
		<path class="st0" d="M475.8,36.4c0.8-1.7,2.2-2.4,3.7-2.4c2.6,0,5,2.2,5,5.7c0,3.5-2.4,5.7-5,5.7c-1.4,0-2.9-0.7-3.7-2.4
			c0-0.1-0.1-0.1-0.1,0v6.6h-2.8V34.2h2.8v2.1C475.7,36.4,475.8,36.4,475.8,36.4 M478.7,43.1c1.6,0,3-1.4,3-3.4c0-2-1.4-3.4-3-3.4
			c-1.6,0-3,1.4-3,3.4C475.6,41.6,477.1,43.1,478.7,43.1"/>
		<path class="st0" d="M494.3,39.2c0-1.1-1-2.7-3-2.7c-1.8,0-3,1.5-3,3.1c0,1.9,1.3,3.2,3.5,3.2h4.2c-1,1.6-2.7,2.6-4.7,2.6
			c-3.2,0-5.7-2.6-5.7-5.8c0-3.2,2.6-5.8,5.7-5.8c3.2,0,5.8,2.6,5.8,5.8c0,0.6-0.1,1.2-0.3,1.8h-6.4v-0.6l2.3-0.1
			C493.8,40.7,494.3,40.1,494.3,39.2"/>
		<path class="st0" d="M506.8,42.9c-0.8,1.7-2.2,2.4-3.7,2.4c-2.6,0-5-2.2-5-5.7c0-3.5,2.4-5.7,5-5.7c1.4,0,2.9,0.7,3.7,2.4
			c0,0.1,0.1,0.1,0.1,0v-6.8h2.8v15.5h-2.8V43C506.9,42.9,506.9,42.8,506.8,42.9 M503.9,36.2c-1.6,0-3.1,1.4-3.1,3.4
			c0,2,1.4,3.4,3.1,3.4c1.6,0,3-1.4,3-3.4C507,37.7,505.5,36.2,503.9,36.2"/>
		<path class="st0" d="M511.7,31.1c0-0.9,0.7-1.6,1.6-1.6c0.9,0,1.6,0.7,1.6,1.6c0,0.9-0.7,1.6-1.6,1.6
			C512.5,32.7,511.7,32,511.7,31.1 M514.8,45.1H512V34.2h2.8V45.1L514.8,45.1z"/>
		<path class="st0" d="M525,42.9c-0.8,1.7-2.2,2.4-3.7,2.4c-2.6,0-5-2.2-5-5.7c0-3.5,2.4-5.7,5-5.7c1.4,0,2.9,0.7,3.7,2.4
			c0,0.1,0.1,0.1,0.1,0v-2.1h2.8v10.8h-2.8V43C525.1,42.9,525.1,42.8,525,42.9 M522.1,36.2c-1.6,0-3,1.4-3,3.4c0,2,1.4,3.4,3,3.4
			c1.6,0,3-1.4,3-3.4C525.2,37.7,523.8,36.2,522.1,36.2"/>
		<path class="st0" d="M542.3,42.9c0-0.1-0.1-0.1-0.1,0c-0.8,1.7-2.2,2.4-3.6,2.4c-2.6,0-4.9-2.2-4.9-5.7c0-3.5,2.4-5.7,4.9-5.7
			c1.4,0,2.8,0.7,3.6,2.4c0,0.1,0.1,0.1,0.1,0v-2.1h2.8v10.2c0,3-2.1,5.3-5.7,5.3c-2,0-3.7-0.7-5-1.9l1.7-1.8c1.1,0.9,2,1.4,3.3,1.4
			c2,0,2.9-1.4,2.9-3.2V42.9L542.3,42.9z M539.3,36.2c-1.6,0-3,1.4-3,3.4c0,2,1.4,3.4,3,3.4c1.6,0,3-1.4,3-3.4
			C542.4,37.6,540.9,36.2,539.3,36.2"/>
		<path class="st0" d="M550.1,34.2v2.4c0,0,0,0.1,0.1,0c0.4-1.9,1.2-2.7,2.7-2.7h0.3v2.9h-1.3c-1.1,0-1.7,0.9-1.7,2.1v6h-2.8V34.2
			H550.1L550.1,34.2z"/>
		<path class="st0" d="M559.3,33.9c3.1,0,5.7,2.6,5.7,5.8c0,3.2-2.6,5.8-5.7,5.8c-3.2,0-5.8-2.6-5.8-5.8
			C553.5,36.5,556.1,33.9,559.3,33.9 M559.3,36.4c-1.7,0-3,1.4-3,3.2c0,1.8,1.4,3.2,3,3.2c1.7,0,3-1.4,3-3.2
			C562.3,37.8,560.9,36.4,559.3,36.4"/>
		<path class="st0" d="M571,45.4c-2.7,0-4.5-1.7-4.5-4.1v-7.1h2.8v6.9c0,1.1,0.7,1.8,1.7,1.8c1,0,1.7-0.7,1.7-1.8v-6.9h2.8v7.1
			C575.6,43.8,573.7,45.4,571,45.4"/>
		<path class="st0" d="M580.6,36.4c0.8-1.7,2.2-2.4,3.7-2.4c2.6,0,5,2.2,5,5.7c0,3.5-2.4,5.7-5,5.7c-1.4,0-2.9-0.7-3.7-2.4
			c0-0.1-0.1-0.1-0.1,0v6.6h-2.8V34.2h2.8v2.1C580.5,36.4,580.6,36.4,580.6,36.4 M583.5,43.1c1.6,0,3-1.4,3-3.4c0-2-1.4-3.4-3-3.4
			c-1.6,0-3,1.4-3,3.4C580.5,41.6,581.9,43.1,583.5,43.1"/>
		<polygon class="st0" points="591.9,34.2 591.9,34.5 591.4,34.5 591.4,35.9 591.1,35.9 591.1,34.5 590.6,34.5 590.6,34.2 
			591.9,34.2 		"/>
		<path class="st0" d="M593.2,34.2h0.5v1.6h-0.3v-1.1c0,0,0-0.1,0-0.1c0-0.1,0-0.1,0-0.1l-0.3,1.4h-0.3l-0.3-1.4c0,0,0,0.1,0,0.1
			c0,0.1,0,0.1,0,0.1v1.1h-0.3v-1.6h0.5l0.3,1.3L593.2,34.2L593.2,34.2z"/>
		<path class="st0" d="M476.6,55.9h0.7V57c0.3-0.4,0.6-0.7,1-0.9c0.4-0.2,0.8-0.3,1.3-0.3c0.8,0,1.5,0.3,2.1,0.9
			c0.6,0.6,0.9,1.3,0.9,2.1c0,0.8-0.3,1.6-0.9,2.2c-0.6,0.6-1.3,0.9-2.1,0.9c-0.5,0-0.9-0.1-1.3-0.3c-0.4-0.2-0.7-0.5-1-0.9v3.1
			h-0.7V55.9L476.6,55.9z M479.5,56.5c-0.6,0-1.2,0.2-1.6,0.7c-0.4,0.4-0.7,1-0.7,1.7c0,0.4,0.1,0.8,0.3,1.2
			c0.2,0.3,0.5,0.6,0.8,0.8c0.4,0.2,0.7,0.3,1.1,0.3c0.4,0,0.8-0.1,1.1-0.3c0.3-0.2,0.6-0.5,0.8-0.9c0.2-0.4,0.3-0.8,0.3-1.2
			c0-0.4-0.1-0.8-0.3-1.2c-0.2-0.4-0.5-0.7-0.8-0.9C480.3,56.6,479.9,56.5,479.5,56.5"/>
		<path class="st0" d="M489.6,55.9v5.8h-0.7v-1c-0.3,0.4-0.7,0.7-1,0.9c-0.4,0.2-0.8,0.3-1.3,0.3c-0.8,0-1.5-0.3-2.1-0.9
			c-0.6-0.6-0.9-1.3-0.9-2.2c0-0.8,0.3-1.5,0.9-2.1c0.6-0.6,1.3-0.9,2.1-0.9c0.5,0,0.9,0.1,1.3,0.3c0.4,0.2,0.7,0.5,1,0.9v-1.1
			H489.6L489.6,55.9z M486.7,56.5c-0.4,0-0.8,0.1-1.1,0.3c-0.3,0.2-0.6,0.5-0.8,0.9c-0.2,0.4-0.3,0.8-0.3,1.2c0,0.4,0.1,0.8,0.3,1.2
			c0.2,0.4,0.5,0.7,0.8,0.9c0.3,0.2,0.7,0.3,1.1,0.3c0.4,0,0.8-0.1,1.1-0.3c0.4-0.2,0.6-0.5,0.8-0.8c0.2-0.3,0.3-0.7,0.3-1.2
			c0-0.7-0.2-1.2-0.7-1.7C487.9,56.7,487.3,56.5,486.7,56.5"/>
		<path class="st0" d="M491,55.9h0.8v0.8c0.2-0.3,0.5-0.6,0.7-0.7c0.2-0.2,0.5-0.2,0.8-0.2c0.2,0,0.4,0.1,0.7,0.2l-0.4,0.6
			c-0.2-0.1-0.3-0.1-0.4-0.1c-0.2,0-0.5,0.1-0.7,0.3c-0.2,0.2-0.4,0.5-0.5,0.9c-0.1,0.3-0.1,1-0.1,2v1.9H491V55.9L491,55.9z"/>
		<polygon class="st0" points="495.2,53.8 495.9,53.8 495.9,55.9 497.1,55.9 497.1,56.6 495.9,56.6 495.9,61.7 495.2,61.7 
			495.2,56.6 494.2,56.6 494.2,55.9 495.2,55.9 495.2,53.8 		"/>
		<path class="st0" d="M498.2,55.9h0.7v1c0.3-0.4,0.6-0.7,1-0.9c0.4-0.2,0.7-0.3,1.2-0.3c0.4,0,0.8,0.1,1.1,0.3
			c0.3,0.2,0.6,0.5,0.7,0.9c0.2,0.4,0.2,0.9,0.2,1.7v3h-0.7V59c0-0.7,0-1.1-0.1-1.3c-0.1-0.4-0.2-0.7-0.5-0.9
			c-0.2-0.2-0.6-0.3-0.9-0.3c-0.4,0-0.8,0.1-1.2,0.4c-0.4,0.3-0.6,0.7-0.7,1.1c-0.1,0.3-0.1,0.8-0.1,1.6v2.1h-0.7V55.9L498.2,55.9z"
			/>
		<path class="st0" d="M509.6,59.8l0.6,0.3c-0.2,0.4-0.4,0.7-0.7,1c-0.3,0.2-0.6,0.4-0.9,0.6c-0.3,0.1-0.7,0.2-1.1,0.2
			c-0.9,0-1.7-0.3-2.2-0.9c-0.5-0.6-0.8-1.3-0.8-2.1c0-0.7,0.2-1.4,0.7-2c0.6-0.7,1.3-1.1,2.3-1.1c1,0,1.8,0.4,2.3,1.1
			c0.4,0.5,0.6,1.2,0.6,2h-5.2c0,0.7,0.2,1.2,0.6,1.6c0.4,0.4,0.9,0.6,1.5,0.6c0.3,0,0.6-0.1,0.9-0.2c0.3-0.1,0.5-0.2,0.7-0.4
			C509.2,60.4,509.4,60.2,509.6,59.8 M509.6,58.2c-0.1-0.4-0.2-0.7-0.4-0.9c-0.2-0.2-0.4-0.4-0.7-0.6c-0.3-0.1-0.6-0.2-1-0.2
			c-0.6,0-1,0.2-1.5,0.5c-0.3,0.3-0.5,0.7-0.7,1.2H509.6L509.6,58.2z"/>
		<path class="st0" d="M511.5,55.9h0.8v0.8c0.2-0.3,0.5-0.6,0.7-0.7c0.2-0.2,0.5-0.2,0.8-0.2c0.2,0,0.4,0.1,0.7,0.2l-0.4,0.6
			c-0.2-0.1-0.3-0.1-0.4-0.1c-0.2,0-0.5,0.1-0.7,0.3c-0.2,0.2-0.4,0.5-0.5,0.9c-0.1,0.3-0.1,1-0.1,2v1.9h-0.8V55.9L511.5,55.9z"/>
		<path class="st0" d="M520.9,56.6l-0.5,0.5c-0.4-0.4-0.8-0.6-1.2-0.6c-0.2,0-0.4,0.1-0.6,0.2c-0.2,0.2-0.3,0.3-0.3,0.6
			c0,0.2,0.1,0.4,0.2,0.5c0.1,0.2,0.4,0.4,0.9,0.6c0.5,0.3,0.9,0.6,1.1,0.8c0.2,0.3,0.3,0.6,0.3,0.9c0,0.5-0.2,0.9-0.5,1.2
			c-0.3,0.3-0.7,0.5-1.2,0.5c-0.3,0-0.6-0.1-0.9-0.2c-0.3-0.1-0.6-0.3-0.7-0.6l0.5-0.5c0.4,0.4,0.8,0.6,1.2,0.6
			c0.3,0,0.5-0.1,0.8-0.3c0.2-0.2,0.3-0.4,0.3-0.7c0-0.2-0.1-0.4-0.2-0.6c-0.1-0.2-0.4-0.4-0.9-0.6c-0.5-0.3-0.9-0.5-1.1-0.8
			c-0.2-0.3-0.3-0.6-0.3-0.9c0-0.4,0.1-0.8,0.4-1.1c0.3-0.3,0.7-0.4,1.1-0.4C519.9,55.8,520.4,56.1,520.9,56.6"/>
		<path class="st0" d="M525,55.8c0.9,0,1.6,0.3,2.2,1c0.5,0.6,0.8,1.3,0.8,2.1c0,0.8-0.3,1.5-0.8,2.1c-0.6,0.6-1.3,0.9-2.2,0.9
			c-0.9,0-1.6-0.3-2.2-0.9c-0.6-0.6-0.8-1.3-0.8-2.1c0-0.8,0.3-1.5,0.8-2.1C523.3,56.1,524.1,55.8,525,55.8 M524.9,56.5
			c-0.6,0-1.1,0.2-1.6,0.7c-0.4,0.5-0.7,1-0.7,1.7c0,0.4,0.1,0.8,0.3,1.2c0.2,0.4,0.5,0.6,0.8,0.8c0.3,0.2,0.7,0.3,1.1,0.3
			c0.4,0,0.8-0.1,1.1-0.3c0.3-0.2,0.6-0.5,0.8-0.8c0.2-0.4,0.3-0.7,0.3-1.2c0-0.6-0.2-1.2-0.7-1.7C526.1,56.7,525.6,56.5,524.9,56.5
			"/>
		<polygon class="st0" points="529.2,53.7 529.9,53.7 529.9,61.7 529.2,61.7 529.2,53.7 		"/>
		<path class="st0" d="M531.4,55.9h0.7v2.7c0,0.7,0,1.1,0.1,1.4c0.1,0.4,0.3,0.6,0.6,0.8c0.3,0.2,0.7,0.3,1.1,0.3
			c0.4,0,0.8-0.1,1-0.3c0.3-0.2,0.5-0.5,0.6-0.8c0.1-0.2,0.1-0.7,0.1-1.4v-2.7h0.8v2.8c0,0.8-0.1,1.4-0.3,1.8
			c-0.2,0.4-0.5,0.7-0.8,0.9c-0.4,0.2-0.8,0.3-1.4,0.3s-1-0.1-1.4-0.3c-0.4-0.2-0.7-0.5-0.8-1c-0.2-0.4-0.3-1-0.3-1.8V55.9
			L531.4,55.9z"/>
		<polygon class="st0" points="538.7,53.8 539.4,53.8 539.4,55.9 540.6,55.9 540.6,56.6 539.4,56.6 539.4,61.7 538.7,61.7 
			538.7,56.6 537.7,56.6 537.7,55.9 538.7,55.9 538.7,53.8 		"/>
		<path class="st0" d="M542,53.6c0.2,0,0.3,0.1,0.4,0.2c0.1,0.1,0.2,0.3,0.2,0.4c0,0.2-0.1,0.3-0.2,0.4c-0.1,0.1-0.3,0.2-0.4,0.2
			c-0.2,0-0.3-0.1-0.4-0.2c-0.1-0.1-0.2-0.3-0.2-0.4c0-0.2,0.1-0.3,0.2-0.4C541.6,53.6,541.8,53.6,542,53.6 M541.6,55.9h0.7v5.8
			h-0.7V55.9L541.6,55.9z"/>
		<path class="st0" d="M546.6,55.8c0.9,0,1.6,0.3,2.2,1c0.5,0.6,0.8,1.3,0.8,2.1c0,0.8-0.3,1.5-0.8,2.1c-0.6,0.6-1.3,0.9-2.2,0.9
			c-0.9,0-1.6-0.3-2.2-0.9c-0.6-0.6-0.8-1.3-0.8-2.1c0-0.8,0.3-1.5,0.8-2.1C545,56.1,545.7,55.8,546.6,55.8 M546.6,56.5
			c-0.6,0-1.1,0.2-1.6,0.7c-0.4,0.5-0.7,1-0.7,1.7c0,0.4,0.1,0.8,0.3,1.2c0.2,0.4,0.5,0.6,0.8,0.8c0.3,0.2,0.7,0.3,1.1,0.3
			c0.4,0,0.8-0.1,1.1-0.3c0.3-0.2,0.6-0.5,0.8-0.8c0.2-0.4,0.3-0.7,0.3-1.2c0-0.6-0.2-1.2-0.7-1.7C547.7,56.7,547.2,56.5,546.6,56.5
			"/>
		<path class="st0" d="M550.9,55.9h0.7v1c0.3-0.4,0.6-0.7,1-0.9c0.4-0.2,0.7-0.3,1.2-0.3c0.4,0,0.8,0.1,1.1,0.3
			c0.3,0.2,0.6,0.5,0.7,0.9c0.2,0.4,0.2,0.9,0.2,1.7v3h-0.7V59c0-0.7,0-1.1-0.1-1.3c-0.1-0.4-0.2-0.7-0.5-0.9
			c-0.2-0.2-0.6-0.3-0.9-0.3c-0.4,0-0.8,0.1-1.2,0.4c-0.4,0.3-0.6,0.7-0.7,1.1c-0.1,0.3-0.1,0.8-0.1,1.6v2.1h-0.7V55.9L550.9,55.9z"
			/>
		<path class="st0" d="M560.4,56.6l-0.5,0.5c-0.4-0.4-0.8-0.6-1.2-0.6c-0.2,0-0.4,0.1-0.6,0.2c-0.2,0.2-0.3,0.3-0.3,0.6
			c0,0.2,0.1,0.4,0.2,0.5c0.1,0.2,0.4,0.4,0.9,0.6c0.5,0.3,0.9,0.6,1.1,0.8c0.2,0.3,0.3,0.6,0.3,0.9c0,0.5-0.2,0.9-0.5,1.2
			c-0.3,0.3-0.7,0.5-1.2,0.5c-0.3,0-0.6-0.1-0.9-0.2c-0.3-0.1-0.5-0.3-0.7-0.6l0.5-0.5c0.4,0.4,0.8,0.6,1.2,0.6
			c0.3,0,0.5-0.1,0.8-0.3c0.2-0.2,0.3-0.4,0.3-0.7c0-0.2-0.1-0.4-0.2-0.6c-0.1-0.2-0.4-0.4-0.9-0.6c-0.5-0.3-0.9-0.5-1.1-0.8
			c-0.2-0.3-0.3-0.6-0.3-0.9c0-0.4,0.1-0.8,0.4-1.1c0.3-0.3,0.7-0.4,1.1-0.4C559.3,55.8,559.9,56.1,560.4,56.6"/>
		<path class="st0" d="M471.6,54.9l-5.3-5.3l-5.3,5.3l-5.3-5.3l-5.3,5.3l0,0v5.3l5.3,5.3l5.3-5.3l5.3,5.3l5.3-5.3L471.6,54.9z
			 M455.6,60.3l-4.9-4.9l4.9-4.9l4.9,4.9L455.6,60.3z M466.3,64.8l-4.9-4.9l4.9-4.9l4.9,4.9L466.3,64.8z"/>
	</g>
	<g>
		<g>
			<g>
				<path class="st0" d="M857.2,111.3c-1.1-1-1.4-2.3-1.4-3.5c0-0.8,0.3-2.1,1.3-3.2c0.7-0.7,1.8-1.2,3.6-1.2c0.5,0,1.1,0,1.7,0.1
					c0.4,0.1,0.8,0.2,1.2,0.2c0.1,0,0.2,0.1,0.2,0.1c0,0.1,0,0.2-0.1,0.7c0,0.4,0,1,0,1.2c0,0.2,0,0.2-0.1,0.2
					c-0.1,0-0.1-0.1-0.1-0.2c0-0.5-0.2-0.9-0.5-1.2c-0.4-0.3-1.3-0.7-2.3-0.7c-1.6,0-2.3,0.5-2.7,0.9c-0.9,0.8-1,1.9-1,3
					c0,2.2,1.7,4.3,4.2,4.3c0.9,0,1.6-0.1,2-0.6c0.2-0.3,0.4-0.8,0.4-1c0-0.1,0-0.2,0.1-0.2c0.1,0,0.1,0.1,0.1,0.2
					c0,0.1-0.1,1.1-0.3,1.5c-0.1,0.2-0.1,0.2-0.3,0.3c-0.5,0.2-1.4,0.3-2.1,0.3C859.3,112.6,858.1,112.1,857.2,111.3z"/>
				<path class="st0" d="M868.6,109.5c0,1.5,0,2.2,0.2,2.3c0.2,0.2,0.4,0.2,1.2,0.2c0.5,0,1,0,1.2-0.3c0.1-0.2,0.2-0.4,0.3-0.6
					c0-0.1,0-0.1,0.1-0.1c0.1,0,0.1,0,0.1,0.2c0,0.1-0.1,0.7-0.2,1c-0.1,0.2-0.1,0.3-0.6,0.3c-0.7,0-1.3,0-1.7,0c-0.4,0-0.7,0-1,0
					c0,0-0.2,0-0.4,0c-0.2,0-0.4,0-0.6,0c-0.1,0-0.2,0-0.2-0.1c0,0,0-0.1,0.1-0.1c0.1,0,0.2,0,0.3,0c0.2,0,0.3-0.3,0.3-0.6
					c0.1-0.4,0.1-1.2,0.1-2.2v-1.8c0-1.6,0-1.9,0-2.2c0-0.3-0.1-0.5-0.4-0.6c-0.1,0-0.3,0-0.3,0c0,0-0.1,0-0.1-0.1
					c0-0.1,0.1-0.1,0.2-0.1c0.5,0,1.1,0,1.2,0s0.8,0,1.1,0c0.1,0,0.2,0,0.2,0.1c0,0,0,0.1-0.1,0.1c-0.1,0-0.2,0-0.3,0
					c-0.3,0.1-0.4,0.2-0.4,0.6c0,0.3,0,0.6,0,2.2V109.5z"/>
				<path class="st0" d="M876.9,105c0.1-0.3,0.2-0.4,0.2-0.4c0.1,0,0.1,0.1,0.2,0.4c0.2,0.4,1.8,4.6,2.4,6.2
					c0.4,0.9,0.7,1.1,0.9,1.1c0.2,0.1,0.3,0.1,0.4,0.1c0.1,0,0.1,0,0.1,0.1c0,0.1-0.1,0.1-0.2,0.1c-0.2,0-0.9,0-1.6,0
					c-0.2,0-0.3,0-0.3-0.1c0,0,0-0.1,0.1-0.1c0.1,0,0.1-0.1,0.1-0.3l-0.9-2.5c0,0,0-0.1-0.1-0.1h-2.2c-0.1,0-0.1,0-0.1,0.1l-0.6,1.8
					c-0.1,0.3-0.1,0.5-0.1,0.7c0,0.2,0.2,0.3,0.4,0.3h0.1c0.1,0,0.1,0,0.1,0.1c0,0.1-0.1,0.1-0.2,0.1c-0.2,0-0.7,0-0.8,0
					c-0.1,0-0.7,0-1.2,0c-0.1,0-0.2,0-0.2-0.1c0,0,0-0.1,0.1-0.1c0.1,0,0.2,0,0.3,0c0.5-0.1,0.7-0.4,0.9-1L876.9,105z M877.9,109
					C878,109,878,109,877.9,109l-0.9-2.8c-0.1-0.2-0.1-0.2-0.2,0l-0.9,2.8c0,0.1,0,0.1,0,0.1H877.9z"/>
				<path class="st0" d="M883.5,112.3c-0.1-0.1-0.2-0.1-0.2-0.4c0-0.5,0-0.9,0.1-1.1c0-0.1,0-0.2,0.1-0.2c0.1,0,0.1,0,0.1,0.1
					c0,0.1,0,0.2,0,0.4c0.2,0.8,0.8,1,1.5,1c1,0,1.5-0.7,1.5-1.4c0-0.7-0.3-1.1-1.2-1.8l-0.5-0.4c-1.1-0.9-1.3-1.5-1.3-2.2
					c0-1.1,0.8-1.8,2.1-1.8c0.4,0,0.7,0,0.9,0.1c0.2,0,0.3,0.1,0.4,0.1s0.1,0,0.1,0.1c0,0.1,0,0.4,0,1.1c0,0.2,0,0.2-0.1,0.2
					c-0.1,0-0.1-0.1-0.1-0.1c0-0.1-0.1-0.4-0.1-0.5c-0.1-0.1-0.3-0.5-1.3-0.5c-0.7,0-1.3,0.4-1.3,1.2c0,0.6,0.3,0.9,1.2,1.7l0.3,0.2
					c1.2,0.9,1.5,1.6,1.5,2.4c0,0.4-0.2,1.2-0.9,1.7c-0.4,0.3-1,0.4-1.5,0.4C884.4,112.6,883.9,112.5,883.5,112.3z"/>
				<path class="st0" d="M890.9,112.3c-0.1-0.1-0.2-0.1-0.2-0.4c0-0.5,0-0.9,0.1-1.1c0-0.1,0-0.2,0.1-0.2c0.1,0,0.1,0,0.1,0.1
					c0,0.1,0,0.2,0,0.4c0.2,0.8,0.8,1,1.5,1c1,0,1.5-0.7,1.5-1.4c0-0.7-0.3-1.1-1.2-1.8l-0.5-0.4c-1.1-0.9-1.3-1.5-1.3-2.2
					c0-1.1,0.8-1.8,2.1-1.8c0.4,0,0.7,0,0.9,0.1c0.2,0,0.3,0.1,0.4,0.1s0.1,0,0.1,0.1c0,0.1,0,0.4,0,1.1c0,0.2,0,0.2-0.1,0.2
					c-0.1,0-0.1-0.1-0.1-0.1c0-0.1-0.1-0.4-0.1-0.5c-0.1-0.1-0.3-0.5-1.3-0.5c-0.7,0-1.3,0.4-1.3,1.2c0,0.6,0.3,0.9,1.2,1.7l0.3,0.2
					c1.2,0.9,1.5,1.6,1.5,2.4c0,0.4-0.2,1.2-0.9,1.7c-0.4,0.3-1,0.4-1.5,0.4C891.8,112.6,891.3,112.5,890.9,112.3z"/>
				<path class="st0" d="M899.7,109.5c0,1,0,1.8,0.1,2.2c0,0.3,0.1,0.5,0.4,0.6c0.1,0,0.4,0,0.5,0c0.1,0,0.1,0,0.1,0.1
					c0,0.1-0.1,0.1-0.2,0.1c-0.6,0-1.2,0-1.3,0s-0.7,0-1,0c-0.1,0-0.2,0-0.2-0.1c0,0,0-0.1,0.1-0.1c0.1,0,0.2,0,0.3,0
					c0.2,0,0.3-0.3,0.3-0.6c0.1-0.4,0.1-1.2,0.1-2.2v-1.8c0-1.6,0-1.9,0-2.2c0-0.3-0.1-0.5-0.3-0.6c-0.1,0-0.2,0-0.3,0
					c0,0-0.1,0-0.1-0.1c0-0.1,0.1-0.1,0.2-0.1c0.3,0,1,0,1,0s0.7,0,1,0c0.1,0,0.2,0,0.2,0.1c0,0,0,0.1-0.1,0.1c-0.1,0-0.1,0-0.3,0
					c-0.3,0.1-0.4,0.2-0.4,0.6c0,0.3,0,0.6,0,2.2V109.5z"/>
				<path class="st0" d="M904.8,111.5c-1-0.9-1.2-2.1-1.2-3c0-0.7,0.2-1.9,1.1-2.8c0.6-0.6,1.5-1.1,3.1-1.1c0.4,0,1,0,1.5,0.1
					c0.4,0.1,0.7,0.1,1,0.2c0.1,0,0.1,0.1,0.1,0.1c0,0.1,0,0.2-0.1,0.6c0,0.3,0,0.9,0,1.1c0,0.2,0,0.2-0.1,0.2
					c-0.1,0-0.1-0.1-0.1-0.2c0-0.4-0.2-0.8-0.4-1c-0.4-0.3-1.1-0.6-2-0.6c-1.4,0-2,0.4-2.3,0.7c-0.7,0.7-0.9,1.6-0.9,2.7
					c0,1.9,1.5,3.7,3.7,3.7c0.8,0,1.4-0.1,1.8-0.5c0.2-0.2,0.3-0.7,0.4-0.9c0-0.1,0-0.2,0.1-0.2c0.1,0,0.1,0.1,0.1,0.2
					c0,0.1-0.1,1-0.2,1.3c-0.1,0.2-0.1,0.2-0.3,0.3c-0.4,0.2-1.2,0.2-1.8,0.2C906.6,112.6,905.6,112.2,904.8,111.5z"/>
				<path class="st0" d="M859.6,122.5c0.7-1.6,2.2-5.6,2.5-6.5c0.1-0.2,0.1-0.3,0.1-0.4c0-0.1,0-0.2-0.2-0.3c-0.1,0-0.3,0-0.4,0
					c-0.1,0-0.1,0-0.1-0.1c0-0.1,0.1-0.1,0.3-0.1c0.5,0,1,0,1.1,0c0.1,0,0.6,0,0.9,0c0.1,0,0.2,0,0.2,0.1c0,0.1,0,0.1-0.1,0.1
					c-0.1,0-0.3,0-0.6,0.1c-0.2,0.1-0.3,0.3-0.6,1.1c-0.1,0.3-0.7,1.7-1.3,3.2c-0.7,1.7-1.2,3-1.5,3.5c-0.3,0.7-0.4,0.9-0.5,0.9
					c-0.1,0-0.2-0.2-0.4-0.7l-2.9-7.1c-0.3-0.7-0.4-0.8-0.8-0.9c-0.2,0-0.4,0-0.4,0c-0.1,0-0.1,0-0.1-0.1c0-0.1,0.1-0.1,0.3-0.1
					c0.6,0,1.2,0,1.4,0c0.1,0,0.6,0,1.1,0c0.2,0,0.3,0,0.3,0.1c0,0.1,0,0.1-0.1,0.1c-0.1,0-0.3,0-0.4,0.1c-0.1,0.1-0.2,0.2-0.2,0.2
					c0,0.2,0.1,0.5,0.3,1L859.6,122.5z"/>
				<path class="st0" d="M867.8,116.4c0.1-0.3,0.2-0.4,0.2-0.4s0.1,0.1,0.2,0.4c0.2,0.4,1.8,4.6,2.4,6.2c0.4,0.9,0.7,1.1,0.9,1.1
					c0.2,0.1,0.3,0.1,0.4,0.1c0.1,0,0.1,0,0.1,0.1c0,0.1-0.1,0.1-0.2,0.1c-0.2,0-0.9,0-1.6,0c-0.2,0-0.3,0-0.3-0.1
					c0,0,0-0.1,0.1-0.1c0.1,0,0.1-0.1,0.1-0.3l-0.9-2.5c0,0,0-0.1-0.1-0.1h-2.2c-0.1,0-0.1,0-0.1,0.1l-0.6,1.8
					c-0.1,0.3-0.1,0.5-0.1,0.7c0,0.2,0.2,0.3,0.4,0.3h0.1c0.1,0,0.1,0,0.1,0.1c0,0.1-0.1,0.1-0.2,0.1c-0.2,0-0.7,0-0.8,0
					c-0.1,0-0.7,0-1.2,0c-0.1,0-0.2,0-0.2-0.1c0,0,0-0.1,0.1-0.1c0.1,0,0.2,0,0.3,0c0.5-0.1,0.7-0.4,0.9-1L867.8,116.4z
					 M868.8,120.5C868.9,120.5,868.9,120.5,868.8,120.5l-0.9-2.8c-0.1-0.2-0.1-0.2-0.2,0l-0.9,2.8c0,0.1,0,0.1,0,0.1H868.8z"/>
				<path class="st0" d="M874.6,122.9c-1-0.9-1.2-2.1-1.2-3c0-0.7,0.2-1.9,1.1-2.8c0.6-0.6,1.5-1.1,3.1-1.1c0.4,0,1,0,1.5,0.1
					c0.4,0.1,0.7,0.1,1,0.2c0.1,0,0.1,0.1,0.1,0.1c0,0.1,0,0.2-0.1,0.6c0,0.3,0,0.9,0,1.1c0,0.2,0,0.2-0.1,0.2
					c-0.1,0-0.1-0.1-0.1-0.2c0-0.4-0.2-0.8-0.4-1c-0.4-0.3-1.1-0.6-2-0.6c-1.4,0-2,0.4-2.3,0.7c-0.7,0.7-0.9,1.6-0.9,2.7
					c0,1.9,1.5,3.7,3.7,3.7c0.8,0,1.4-0.1,1.8-0.5c0.2-0.2,0.3-0.7,0.4-0.9c0-0.1,0-0.2,0.1-0.2c0.1,0,0.1,0.1,0.1,0.2
					c0,0.1-0.1,1-0.2,1.3c-0.1,0.2-0.1,0.2-0.3,0.3c-0.4,0.2-1.2,0.2-1.8,0.2C876.5,124,875.4,123.6,874.6,122.9z"/>
				<path class="st0" d="M885.8,116.4c0.1-0.3,0.2-0.4,0.2-0.4c0.1,0,0.1,0.1,0.2,0.4c0.2,0.4,1.8,4.6,2.4,6.2
					c0.4,0.9,0.7,1.1,0.9,1.1c0.2,0.1,0.3,0.1,0.4,0.1c0.1,0,0.1,0,0.1,0.1c0,0.1-0.1,0.1-0.2,0.1c-0.2,0-0.9,0-1.6,0
					c-0.2,0-0.3,0-0.3-0.1c0,0,0-0.1,0.1-0.1c0.1,0,0.1-0.1,0.1-0.3l-0.9-2.5c0,0,0-0.1-0.1-0.1h-2.2c-0.1,0-0.1,0-0.1,0.1l-0.6,1.8
					c-0.1,0.3-0.1,0.5-0.1,0.7c0,0.2,0.2,0.3,0.4,0.3h0.1c0.1,0,0.1,0,0.1,0.1c0,0.1-0.1,0.1-0.2,0.1c-0.2,0-0.7,0-0.8,0
					c-0.1,0-0.7,0-1.2,0c-0.1,0-0.2,0-0.2-0.1c0,0,0-0.1,0.1-0.1c0.1,0,0.2,0,0.3,0c0.5-0.1,0.7-0.4,0.9-1L885.8,116.4z
					 M886.8,120.5C886.9,120.5,886.9,120.5,886.8,120.5l-0.9-2.8c-0.1-0.2-0.1-0.2-0.2,0l-0.9,2.8c0,0.1,0,0.1,0,0.1H886.8z"/>
				<path class="st0" d="M894.4,120.9c0,1,0,1.8,0.1,2.2c0,0.3,0.1,0.5,0.4,0.6c0.1,0,0.4,0,0.5,0c0.1,0,0.1,0,0.1,0.1
					c0,0.1-0.1,0.1-0.2,0.1c-0.6,0-1.2,0-1.3,0s-0.7,0-1,0c-0.1,0-0.2,0-0.2-0.1c0,0,0-0.1,0.1-0.1c0.1,0,0.2,0,0.3,0
					c0.2,0,0.3-0.3,0.3-0.6c0.1-0.4,0.1-1.2,0.1-2.2v-4.3l-1.5,0c-0.6,0-0.9,0.1-1,0.3c-0.1,0.2-0.1,0.2-0.2,0.3
					c0,0.1-0.1,0.1-0.1,0.1c0,0-0.1,0-0.1-0.1c0-0.1,0.2-1,0.2-1.1c0-0.1,0.1-0.2,0.1-0.2c0.1,0,0.2,0.1,0.4,0.1
					c0.3,0,0.7,0.1,0.8,0.1h3.8c0.3,0,0.6,0,0.7-0.1c0.2,0,0.2-0.1,0.3-0.1c0.1,0,0.1,0.1,0.1,0.1c0,0.3,0,1,0,1.1
					c0,0.1,0,0.1-0.1,0.1c-0.1,0-0.1,0-0.1-0.2l0-0.1c0-0.3-0.3-0.5-1.3-0.6l-1.3,0V120.9z"/>
				<path class="st0" d="M901.7,120.9c0,1,0,1.8,0.1,2.2c0,0.3,0.1,0.5,0.4,0.6c0.1,0,0.4,0,0.5,0c0.1,0,0.1,0,0.1,0.1
					c0,0.1-0.1,0.1-0.2,0.1c-0.6,0-1.2,0-1.3,0s-0.7,0-1,0c-0.1,0-0.2,0-0.2-0.1c0,0,0-0.1,0.1-0.1c0.1,0,0.2,0,0.3,0
					c0.2,0,0.3-0.3,0.3-0.6c0.1-0.4,0.1-1.2,0.1-2.2v-1.8c0-1.6,0-1.9,0-2.2c0-0.3-0.1-0.5-0.3-0.6c-0.1,0-0.2,0-0.3,0
					c0,0-0.1,0-0.1-0.1c0-0.1,0.1-0.1,0.2-0.1c0.3,0,1,0,1,0s0.7,0,1,0c0.1,0,0.2,0,0.2,0.1c0,0,0,0.1-0.1,0.1c-0.1,0-0.1,0-0.3,0
					c-0.3,0.1-0.4,0.2-0.4,0.6c0,0.3,0,0.6,0,2.2V120.9z"/>
				<path class="st0" d="M909.5,116c2.3,0,4,1.4,4,3.8c0,2.3-1.6,4.2-4.1,4.2c-2.8,0-4-2.2-4-4C905.4,118.4,906.6,116,909.5,116z
					 M909.7,123.6c0.9,0,2.8-0.5,2.8-3.5c0-2.4-1.5-3.8-3.1-3.8c-1.7,0-3,1.1-3,3.4C906.4,122.1,907.8,123.6,909.7,123.6z"/>
				<path class="st0" d="M917.4,122.5c0,0.8,0.1,1.1,0.4,1.2c0.2,0.1,0.4,0.1,0.5,0.1c0.1,0,0.1,0,0.1,0.1c0,0.1-0.1,0.1-0.2,0.1
					c-0.6,0-1,0-1.1,0c-0.1,0-0.5,0-1,0c-0.1,0-0.2,0-0.2-0.1c0,0,0-0.1,0.1-0.1c0.1,0,0.3,0,0.4-0.1c0.3-0.1,0.3-0.4,0.3-1.3l0-5.8
					c0-0.4,0-0.5,0.1-0.5s0.3,0.2,0.4,0.3c0.2,0.2,1.7,1.8,3.2,3.5c1,1.1,2.1,2.3,2.4,2.7l-0.1-5.2c0-0.7-0.1-0.9-0.4-1
					c-0.2,0-0.4-0.1-0.5-0.1c-0.1,0-0.1,0-0.1-0.1c0-0.1,0.1-0.1,0.2-0.1c0.5,0,0.9,0,1.1,0s0.4,0,0.9,0c0.1,0,0.2,0,0.2,0.1
					c0,0,0,0.1-0.1,0.1c-0.1,0-0.1,0-0.2,0c-0.3,0.1-0.4,0.3-0.4,0.9l0,6c0,0.7,0,0.7-0.1,0.7c-0.1,0-0.2-0.1-0.7-0.7
					c-0.1-0.1-1.6-1.6-2.7-2.8c-1.2-1.3-2.3-2.6-2.7-2.9L917.4,122.5z"/>
				<path class="st0" d="M927.7,123.7c-0.1-0.1-0.2-0.1-0.2-0.4c0-0.5,0-0.9,0.1-1.1c0-0.1,0-0.2,0.1-0.2c0.1,0,0.1,0,0.1,0.1
					c0,0.1,0,0.2,0,0.4c0.2,0.8,0.8,1,1.5,1c1,0,1.5-0.7,1.5-1.4c0-0.7-0.3-1.1-1.2-1.8l-0.5-0.4c-1.1-0.9-1.3-1.5-1.3-2.2
					c0-1.1,0.8-1.8,2.1-1.8c0.4,0,0.7,0,0.9,0.1c0.2,0,0.3,0.1,0.4,0.1c0.1,0,0.1,0,0.1,0.1c0,0.1,0,0.4,0,1.1c0,0.2,0,0.2-0.1,0.2
					c-0.1,0-0.1-0.1-0.1-0.1c0-0.1-0.1-0.4-0.1-0.5c-0.1-0.1-0.3-0.5-1.3-0.5c-0.7,0-1.3,0.4-1.3,1.2c0,0.6,0.3,0.9,1.2,1.7l0.3,0.2
					c1.2,0.9,1.5,1.6,1.5,2.4c0,0.4-0.2,1.2-0.9,1.7c-0.4,0.3-1,0.4-1.5,0.4C928.6,124,928.1,123.9,927.7,123.7z"/>
			</g>
			<path class="st0" d="M933.3,116.3H933v-0.1h0.7v0.1h-0.3v0.7h-0.1V116.3z M933.8,116.2h0.2l0.3,0.7l0.3-0.7h0.2v0.8h-0.1v-0.7h0
				l-0.3,0.7h-0.1l-0.3-0.7h0v0.7h-0.1V116.2z"/>
		</g>
		<path class="st0" d="M850.7,113.5c-0.2,0-1.3,0.4-2.8,0.8c-0.4,0.1-1,0.2-1.5,0.3v-3.9c0.2-0.2,0.4-0.4,0.6-0.7
			c0.5-0.7,0.8-1.4,1-1.8c0,0,0-0.1,0-0.1c0,0,0-0.1,0-0.1c0.1-0.2,0.3-0.6,0.5-1c0.1-0.2,0.2-0.4,0.2-0.5c0-0.1,0-0.2,0-0.2
			c0,0-0.1,0-0.2,0.2c-0.1,0.3-0.7,0.9-1.1,1.3c-0.2,0.2-0.5,0.4-0.8,0.5c-0.1,0-0.2,0.1-0.3,0.1V104c0-0.5-0.1-1.1-0.3-1.6
			c0.1-0.1,0.1-0.3,0.1-0.3c0.2-0.5,0.2-0.5,0.3-0.8c0.3-0.8,0.4-1.4,0.5-1.8c0.1-0.4,0.3-0.6,0.1-0.5c-0.1,0.1-0.2,0-0.5,0.6
			c-0.3,0.5-0.6,1.1-1,1.8c-0.8-1.3-2.3-2.2-4-2.2h-8.5c-0.2-0.3-0.4-0.6-0.6-0.9c-0.3-0.5-1.1-1.5-1.1-1.6
			c-0.1-0.1-0.1-0.2-0.2-0.2c-0.2-0.2-0.3-0.4-0.5-0.6c-0.2-0.2-0.3-0.3-0.4-0.4c-0.1,0-0.1,0-0.1,0c0,0,0,0.1,0,0.2
			c0.1,0.2,0.4,0.6,0.5,0.9c0.1,0.2,0.7,1.2,1.2,2.6h-8c-2.6,0-4.7,2.1-4.7,4.7v0.8c-0.7-0.3-1.3-0.8-1.5-0.9
			c-0.1-0.1-0.1-0.1-0.2-0.1c0,0,0,0.1,0.1,0.2c0,0,0,0,0,0c0,0.1,0.1,0.1,0.1,0.2c0.1,0.1,0.1,0.3,0.2,0.4c0.1,0.2,0.2,0.3,0.4,0.5
			c0,0,0,0,0.1,0.1c0.3,0.4,0.4,0.6,0.8,0.9v5.8c-0.8,0-1.6-0.1-1.7-0.1c-0.1,0-0.3-0.2-0.3-0.2c0,0,0,0,0.1,0.1
			c0,0,0.1,0.1,0.1,0.1c0,0,0.1,0.1,0.1,0.2c0.1,0.1,0.2,0.1,0.3,0.2c0.2,0.1,0.4,0.3,0.6,0.4c0.1,0,0.1,0.1,0.2,0.1
			c0.1,0.1,0.3,0.1,0.4,0.2c0,0,0,0,0,0v10.2c0,2.6,2.1,4.7,4.7,4.7h17.6c2.6,0,4.7-2.1,4.7-4.7v-6.8c0.3-0.2,0.7-0.4,1.1-0.6
			c0.3-0.2,0.6-0.4,0.9-0.6c0.1-0.1,0.3-0.2,0.4-0.2c0.4-0.2,0.8-0.5,1.1-0.7c0.3-0.2,0.6-0.4,0.6-0.4c0,0,0.1-0.1,0.1-0.1
			c0,0,0,0,0.1-0.1C850.8,113.6,850.8,113.5,850.7,113.5C850.8,113.5,850.8,113.5,850.7,113.5z M824.1,100h8.3
			c0.2,0.5,0.3,0.9,0.4,1.4c0.1,0.3,0.2,0.6,0.2,0.9c0.4,1.5,0.5,1.8,0.5,2.7c0,0.9,0.1,1.8,0.1,2.6c0,0.2-0.1,0.4-0.1,0.6
			c-0.2,0.7-0.5,1.6-0.6,2.3c0,0.2,0,0.4,0,0.5c0.1,0.5,0.4,0.9,0.6,1.3c0.1,0.2,0.2,0.4,0.2,0.5c0,0,0,0.1,0,0.1
			c0.1,0.3,0.2,0.8,0.2,1.2c0,0.3,0,0.6,0,0.8c0,0.1,0,0.1,0,0.2c0,0.1,0,0.1,0.1,0.1c0,0,0.1,0,0.1-0.1c0,0,0.1-0.1,0.1-0.1
			c0.1,0,0.1-0.1,0.2-0.2c0,0,0.4-0.4,0.5-0.5c0.1-0.1,0.1-0.2,0.2-0.3c0.3-0.4,0.7-0.9,0.9-1.6c0-0.1,0.1-0.3,0.1-0.4
			c0.1-0.6,0.2-1.1,0.3-1.7c0.1-0.6,0.1-1.1,0-1.7c0-0.1,0-0.1,0-0.2c0-0.2,0-0.4-0.1-0.5c-0.2-1.1-0.4-2.4-0.7-3.2
			c-0.1-0.3-0.3-0.8-0.5-1.2c-0.3-0.8-0.7-1.6-1-2.2c-0.1-0.3-0.4-0.7-0.7-1.2h8c1.6,0,2.9,0.9,3.5,2.2c-0.1,0.3-0.3,0.5-0.5,0.8
			c-0.1,0.2-0.3,0.4-0.4,0.6c-0.2,0.4-0.5,0.7-0.8,1c-0.1,0.2-0.3,0.3-0.4,0.4c-0.5,0.5-1.1,0.9-1.5,1.2c-0.2,0.1-0.4,0.2-0.5,0.3
			c-0.3,0.2-0.5,0.4-0.7,0.8c-0.3,0.6-0.9,1.6-1,1.8c0,0,0,0,0,0c0,0,0,0.1,0,0.1c0,0.1,0,0.2,0.1,0.2c0.1,0.1,0.4,0.1,0.4,0.1
			c0,0,0,0,0,0c0.2-0.1,1.1-0.9,1.1-1c0,0,0.7-0.4-0.2,1c-0.1,0.2-0.3-0.2-0.4,0.3c-0.1,0.6,0,0.8-0.1,1c-0.5,0.9-0.6-0.2-0.7-0.5
			c-0.1-0.2-0.3-0.4-0.4-0.5c-0.1,0-0.2,0.1-0.2,0.2c-0.1,0.2-0.3,0.9-0.4,1.5c0,0.2,0,0.3,0,0.4c0,0.5-0.3,1.1-0.7,1.5
			c-0.4,0.3-0.7,0.5-1,0.7c0,0-0.1,0-0.1,0.1c-0.3,0.1-0.6,0.3-0.6,0.4c-0.1,0.1-0.1,0.1,0,0.2c0,0,0.1,0,0.1,0
			c0.3,0,0.8-0.1,1.3-0.4c0.1,0,0.2-0.1,0.2-0.1c0.3-0.1,0.6-0.2,0.9-0.5c0.1-0.1,0.2-0.2,0.4-0.3c0.1-0.1,0.3-0.3,0.4-0.5
			c0.5-0.6,1.1-1.5,1.7-2.5c0.3-0.4,0.6-0.8,0.9-1.3c0.1-0.2,0.3-0.4,0.4-0.6c0.2-0.4,0.5-0.7,0.7-1c0.8-1.1,1.4-2,1.9-2.9
			c0.2-0.4,0.4-0.8,0.6-1.3c0,0.1,0,0.2,0,0.4v4.9c-0.1,0-0.1,0-0.2,0.1c-0.4,0.2-0.8,0.4-1.2,0.7c-0.4,0.3-0.9,0.6-1.2,0.9
			c0,0-0.1,0-0.1,0.1c-0.2,0.1-0.3,0.3-0.5,0.5c-0.2,0.2-0.4,0.4-0.6,0.6c-0.6,0.7-0.9,1-0.9,1.1c-0.3,0.4,0.3-0.4,0,0
			c-0.2,0.2-0.3,0.4-0.5,0.6c-0.4,0.4-0.7,0.9-0.8,1c0,0.1-0.1,0.1,0,0.1c0,0,0.1,0,0.2,0c0.1,0,0.3-0.1,0.9-0.2c0.1,0,0.1,0,0.2,0
			c0.3-0.1,0.7-0.2,1.2-0.5c0.1-0.1,0.3-0.1,0.5-0.2c0.2-0.1,0.5-0.3,0.8-0.4c0.1,0,0.1-0.1,0.2-0.1c1.1-0.6,1.6-1.1,2.1-1.6v3.3
			c-1,0.1-2.1,0.2-3.1,0.3c-0.5,0-0.3,0-0.8,0c-0.1,0-0.3,0-0.5,0c-0.3,0-0.8,0-0.9,0c-0.4,0-0.8,0.1-1.2,0.1c-0.3,0-0.6,0.1-1,0.1
			c-0.1,0-0.2,0-0.3,0c-0.3,0-0.6,0.1-1,0.1c-0.4,0-0.8,0.1-1.2,0.2c-0.8,0.1-1.6,0.3-2.4,0.5c0.2-0.5,0.2-0.9,0.2-1.2
			c0-0.2,0-0.4,0-0.7c0-0.2,0-0.3-0.1-0.5c0-0.1,0-0.2-0.1-0.3c0-0.1-0.1-0.2-0.2-0.3c-0.2-0.4-0.6-0.8-1-1.3
			c-0.4-0.4-0.7-0.7-1.1-0.9c-0.4-0.2-0.9-0.3-1.5-0.5c-0.1,0-0.1,0-0.2,0c-0.8-0.1-1.5-0.1-2.2,0c-0.3,0-0.6,0.1-0.9,0.2
			c-0.3,0.1-0.6,0.2-0.9,0.3c-0.5,0.2-1.1,0.4-1.6,0.5c-0.2,0.1-0.4,0.1-0.6,0.2c-0.2,0.1-0.4,0.1-0.7,0.1c-0.6,0.1-1.2,0.1-1.7,0.2
			c-0.2,0-0.4,0-0.5,0c0,0,0,0-0.1,0v-5.2c0.1,0.1,0.3,0.2,0.4,0.2c0.3,0.2,0.6,0.3,0.8,0.4c0.1,0,0.1,0.1,0.2,0.1
			c0.1,0,0.2,0.1,0.2,0.1c0.2,0.1,1.5,0.5,1.7,0.5c0.9,0.3,1.3,0.5,2.3,0.9c0.5,0.2,0.4,0.1,0.8,0.4c0.1,0.1,0.3,0.1,0.4,0.2
			c0.2,0.1,0.3,0.2,0.3,0.2s0.7,0,1.4,0c0.4,0,1.3,0.2,1.6,0.3c0,0,0.1,0,0.1,0c0.5,0.2,0.7,0.3,1,0.5c0.5,0.3,1.2,0.9,1.2,1.1
			c0.1,0.1,0-0.1-0.2-0.5c-0.1-0.1-0.2-0.5-0.3-0.7c-0.1-0.3-0.1-0.4-0.3-0.8c-0.2-0.4-0.5-0.7-0.7-1c-0.2-0.2-0.4-0.4-0.6-0.6
			c-0.2-0.2-0.5-0.4-0.7-0.6c-0.2-0.1-0.4-0.3-0.6-0.4c-0.2-0.1-0.4-0.2-0.7-0.3c-0.2-0.1-0.4-0.2-0.6-0.2c-0.3-0.1-0.3-0.1-0.7-0.2
			c-0.6-0.1-0.6-0.1-1.1-0.2c-0.3,0-0.5-0.1-0.8-0.1c-0.4,0-0.8-0.1-1.2-0.1c-0.4-0.1-0.8-0.1-1.2-0.2c-0.7-0.1-1.2-0.2-1.8-0.4
			c-0.1,0-0.3-0.1-0.6-0.2c-0.1,0-0.2-0.1-0.4-0.1V104C820.1,101.8,821.9,100,824.1,100z M820.1,123.2v-9.9c0.3,0.1,0.5,0.2,0.8,0.3
			c0.6,0.1,1.3,0.2,2.2,0.2c0.7,0,1.4,0,2.1-0.1c0.2,0,0.4,0,0.5,0c0.3,0,0.6-0.1,0.9-0.1c0.7-0.1,1.1-0.1,1.6-0.1
			c0.7,0,0.8-0.1,1.2-0.1c0.4,0,0.7,0,1,0c0.5,0,1,0.2,1.6,0.4c0.3,0.1,0.5,0.2,0.5,0.3c0.2,0.3-0.1,0.7-0.3,1.3
			c-0.1,0.2-0.2,0.4-0.2,0.5c-0.2,0.3-0.4,0.6-0.6,0.8c-0.4,0.1-0.8,0.3-1.1,0.4c-0.3,0.1-0.5,0.2-0.8,0.3c-0.1,0.1-0.2,0.1-0.4,0.2
			c-0.6,0.3-1.3,0.7-1.9,1.2c-0.2,0.1-0.3,0.3-0.5,0.4c-0.1,0.1-0.1,0.1-0.2,0.2c-0.1,0.1-0.3,0.3-0.4,0.4c0,0-0.1,0.1-0.1,0.1
			c-0.1,0.1-0.2,0.2-0.3,0.3c-0.4,0.4-0.7,0.9-1,1.4c-0.2,0.5-0.4,0.9-0.6,1.5c-0.1,0.2-0.1,0.3-0.2,0.5c-0.1,0.4-0.2,0.9-0.4,1.4
			c-0.1,0.3-0.1,0.7-0.2,1c-0.2,0.8-0.2,0.9-0.4,1.3C821.4,126.5,820.1,125,820.1,123.2z M841.7,127.1h-14.1c0-0.5-0.1-0.6-0.1-1.2
			c0-0.6,0.1-0.8,0.3-1.5c0.1-0.3,0.2-0.5,0.3-0.8c0.1-0.3,0.3-0.5,0.4-0.7c0.2-0.2,0.5-0.3,1-0.3c0.1,0,0.3,0,0.5,0
			c0.1,0,0.1,0,0.2,0c0.4,0,0.6,0,0.9-0.1c0.3,0,0.7-0.1,1.3-0.2c0.1,0,0.2-0.1,0.4-0.1c0.1,0,0.1,0,0.2,0c0.1,0,0.2-0.1,0.3-0.1
			c1.5-0.4,3.3-1.1,4.8-1.8c1.7-0.8,3-1.2,4.2-1.8c0.7-0.3,1.5-0.7,2.4-1.2c0.4-0.2,0.7-0.4,1.1-0.6v6.3
			C845.6,125.3,843.9,127.1,841.7,127.1z"/>
	</g>
</g>
</svg>
