<svg xmlns="http://www.w3.org/2000/svg" viewBox="0 0 1440 144"><defs><style>.cls-1{fill:#fff;}</style></defs><title>Brands_Lockup_2line_white_RGB</title><g id="_2017" data-name="2017"><g id="Expedia"><path class="cls-1" d="M81.06,58.05h-4.6s0,0,0,0l-4-4.84-4,4.84s0,0,0,0H64.75a.05.05,0,0,1,0,0,.06.06,0,0,1,0-.06l5.84-7.17-5.77-7.11s0,0,0-.07l0,0h4.61a.05.05,0,0,1,0,0l3.48,4.32,3.54-4.32s0,0,0,0h3.75s0,0,0,0a.06.06,0,0,1,0,.07l-5.48,6.58L81.1,58s0,0,0,.06,0,0,0,0Z"/><path class="cls-1" d="M112.64,51.73l-.06,0H102.05c.23,2.46,1.82,3.85,4.39,3.85a12.05,12.05,0,0,0,5.65-1.81.06.06,0,0,1,.09.06V57.1s0,0,0,0A17.3,17.3,0,0,1,106,58.7h0a7.57,7.57,0,0,1-7.83-7.85A7.58,7.58,0,0,1,106,43a6.38,6.38,0,0,1,6.79,6.62C112.75,50.24,112.64,51.68,112.64,51.73ZM106,46.14a3.73,3.73,0,0,0-3.83,3.39h6.93v-.14a3.14,3.14,0,0,0-3.1-3.25Z"/><path class="cls-1" d="M132.13,58.05a.05.05,0,0,1-.06-.06V43.64a.06.06,0,0,1,.05-.06h3.8a.05.05,0,0,1,0,.06V58s0,.06-.05.06ZM134,40.6a2.32,2.32,0,0,1-2.34-2.3,2.35,2.35,0,1,1,4.69,0A2.33,2.33,0,0,1,134,40.6Z"/><path class="cls-1" d="M89.05,43a10.08,10.08,0,0,0-3.3.58H82s0,0,0,.06V67.18a8.86,8.86,0,0,0,3.89-1.54V58.48a18,18,0,0,0,2.45.22c5.18,0,8.54-3.1,8.54-7.91A7.43,7.43,0,0,0,89.05,43ZM88,55.9a8.29,8.29,0,0,1-2.2-.32v-9.2a8.46,8.46,0,0,1,2.59-.45c2.63,0,4.4,2,4.4,4.84C92.81,53.89,90.93,55.9,88,55.9Z"/><path class="cls-1" d="M125.21,36V43.5a10.86,10.86,0,0,0-3.08-.46A7.74,7.74,0,0,0,114.22,51c0,4.49,3,7.75,7.13,7.75a9.13,9.13,0,0,0,4.35-1.16v1.29a8.51,8.51,0,0,0,3.42-1.45V34.45A8.39,8.39,0,0,0,125.21,36Zm0,18.72a7.16,7.16,0,0,1-3.24.92c-2.35,0-3.76-1.67-3.76-4.44,0-3.22,1.8-5.3,4.58-5.3a5.76,5.76,0,0,1,2.42.6Z"/><path class="cls-1" d="M153.05,43.41a.16.16,0,0,0-.16-.16h-3.08a.16.16,0,0,0-.16.16V44h-.08a9.25,9.25,0,0,0-3.82-.91,7.74,7.74,0,0,0-7.59,8c0,4.57,3,7.62,7.43,7.62A4.86,4.86,0,0,0,149.72,57v1.85A8.74,8.74,0,0,0,153,57.37Zm-3.91,11.27a6.22,6.22,0,0,1-3,1c-2.52,0-4-1.64-4-4.44,0-3.16,1.77-5.29,4.41-5.29a6,6,0,0,1,2.61.83Z"/><path class="cls-1" d="M54.23,54.46h9.55a8.54,8.54,0,0,1-1.34,3.59H52.51a2.36,2.36,0,0,1-2.33-2.13.09.09,0,0,1,0-.05V37a.11.11,0,0,1,0,0,2.37,2.37,0,0,1,2.33-2.14H63.76a8.85,8.85,0,0,1-1.34,3.61H54.23v5.12h8.11a.06.06,0,0,1,.06.06v3.56a.06.06,0,0,1-.06,0H54.23v7.2Z"/><path class="cls-1" d="M42.28,54.88a1.83,1.83,0,1,0,1.79,1.83A1.77,1.77,0,0,0,42.28,54.88Zm0,3.47a1.64,1.64,0,1,1,1.52-1.64A1.54,1.54,0,0,1,42.28,58.35Z"/><path class="cls-1" d="M43.13,56.25c0-.44-.27-.62-.79-.62h-.82v2.16h.36v-.93h.33l.56.93h.4l-.6-.95C42.89,56.79,43.13,56.64,43.13,56.25Zm-1.28.31V55.9h.45c.23,0,.5,0,.5.3s-.25.36-.53.36Z"/><path class="cls-1" d="M156.19,42.51A1.83,1.83,0,1,0,158,44.34,1.76,1.76,0,0,0,156.19,42.51Zm0,3.46a1.52,1.52,0,0,1-1.53-1.63A1.53,1.53,0,1,1,156.19,46Z"/><path class="cls-1" d="M157,43.87c0-.43-.27-.62-.79-.62h-.81v2.16h.35v-.92h.33l.56.92h.4l-.6-.94A.56.56,0,0,0,157,43.87Zm-1.27.31v-.66h.44c.23,0,.5,0,.5.31s-.25.35-.52.35Z"/><path class="cls-1" d="M30,38.45l-.69-2L23.4,28.65l1.06-.26,10.12,8.75,6-1.71a8.75,8.75,0,0,1,2.1-.21A17.18,17.18,0,0,0,10.06,45l14.27-5Z"/><path class="cls-1" d="M43.27,36.77a9.55,9.55,0,0,1-2.05,1l-6,1.71-4,12.78-1,.34.84-9.76-.47-2L25,42.42,10.21,45.91a17.19,17.19,0,1,0,33.06-9.14Z"/></g><path class="cls-1" d="M788.18,111.44a8.06,8.06,0,0,0,2.49-.32c.25-.12.28-.14.37-.41a15.42,15.42,0,0,0,.3-1.77c0-.11,0-.21-.1-.21s-.11.06-.14.21a2.66,2.66,0,0,1-.51,1.17,3.21,3.21,0,0,1-2.41.69,5,5,0,0,1-5-5.08,4.67,4.67,0,0,1,1.25-3.62,4.28,4.28,0,0,1,3.19-1,4.64,4.64,0,0,1,2.77.79,1.94,1.94,0,0,1,.58,1.42c0,.19,0,.29.11.29s.12-.09.13-.29,0-1,0-1.43.07-.67.07-.78,0-.14-.18-.15a12.22,12.22,0,0,1-1.42-.21,12.38,12.38,0,0,0-2-.17,5.25,5.25,0,0,0-5.78,5.28,5.3,5.3,0,0,0,1.68,4.1A6.44,6.44,0,0,0,788.18,111.44Z"/><path class="cls-1" d="M795.21,102.24a2.83,2.83,0,0,1,.41,0c.4.09.49.28.52.69s0,.73,0,2.62v2.14c0,1.16,0,2.12-.06,2.63-.05.35-.11.62-.35.67a2.2,2.2,0,0,1-.36,0c-.08,0-.1,0-.1.08s.06.1.19.1l.69,0h.5c.35,0,.73,0,1.24,0s1.14,0,2,0c.65,0,.68,0,.77-.32a9,9,0,0,0,.18-1.22c0-.13,0-.18-.08-.18s-.09.06-.1.16a1.76,1.76,0,0,1-.32.73c-.29.35-.82.36-1.47.36-.94,0-1.26-.08-1.45-.28s-.27-1-.27-2.78v-2.16c0-1.89,0-2.23,0-2.62s.12-.63.47-.69l.4,0a.08.08,0,0,0,.09-.08c0-.07,0-.1-.19-.1-.36,0-1.25,0-1.31,0s-.83,0-1.37,0c-.13,0-.19,0-.19.1S795.15,102.24,795.21,102.24Z"/><path class="cls-1" d="M811.93,111.07a1.35,1.35,0,0,1-.49-.08c-.26-.07-.61-.26-1.05-1.34-.74-1.85-2.64-6.86-2.82-7.32s-.2-.44-.27-.44-.12.08-.27.48l-2.75,7.53c-.22.61-.46,1.07-1,1.14a2.16,2.16,0,0,1-.35,0c-.06,0-.11,0-.11.07s.07.1.23.1c.57,0,1.24,0,1.37,0s.66,0,1,0c.11,0,.18,0,.18-.1s0-.07-.12-.07h-.12c-.21,0-.47-.11-.47-.36a2.54,2.54,0,0,1,.18-.81l.72-2.15a.14.14,0,0,1,.12-.09h2.61c.07,0,.09,0,.11.07l1.13,3c.07.2,0,.31-.07.33s-.09,0-.09.09.13.07.37.08c.84,0,1.72,0,1.9,0s.25,0,.25-.1S812,111.07,811.93,111.07Zm-3.63-3.85H806s-.06,0,0-.08l1.07-3.28q.09-.27.18,0l1.15,3.28S808.35,107.22,808.3,107.22Z"/><path class="cls-1" d="M815,111.08a3.7,3.7,0,0,0,1.62.33,3.2,3.2,0,0,0,1.83-.51,2.53,2.53,0,0,0,1-2c0-1-.34-1.72-1.77-2.85l-.35-.26c-1.16-.91-1.47-1.35-1.47-2a1.38,1.38,0,0,1,1.49-1.41c1.11,0,1.44.51,1.52.64a2.72,2.72,0,0,1,.15.61c0,.09,0,.16.1.16s.08-.09.08-.28c0-.83,0-1.23,0-1.29s0-.09-.12-.09a2.23,2.23,0,0,1-.42,0,4.44,4.44,0,0,0-1.13-.12,2.22,2.22,0,0,0-2.51,2.18c0,.82.29,1.58,1.57,2.63l.55.45c1,.86,1.4,1.35,1.4,2.18a1.82,1.82,0,0,1-3.53.38,2,2,0,0,1,0-.45c0-.09,0-.13-.09-.13s-.08.06-.09.19a12.26,12.26,0,0,0-.07,1.29C814.76,110.94,814.77,111,815,111.08Z"/><path class="cls-1" d="M823.68,111.08a3.75,3.75,0,0,0,1.63.33,3.2,3.2,0,0,0,1.83-.51,2.52,2.52,0,0,0,1-2c0-1-.34-1.72-1.77-2.85l-.34-.26c-1.16-.91-1.48-1.35-1.48-2a1.38,1.38,0,0,1,1.5-1.41c1.11,0,1.44.51,1.51.64a2.75,2.75,0,0,1,.16.61c0,.09,0,.16.09.16s.09-.09.09-.28c0-.83.05-1.23.05-1.29s0-.09-.12-.09a2.4,2.4,0,0,1-.43,0,4.33,4.33,0,0,0-1.13-.12,2.22,2.22,0,0,0-2.51,2.18c0,.82.29,1.58,1.58,2.63l.54.45c1.05.86,1.4,1.35,1.4,2.18a1.62,1.62,0,0,1-1.73,1.62,1.66,1.66,0,0,1-1.8-1.24,2.59,2.59,0,0,1,0-.45c0-.09,0-.13-.09-.13s-.08.06-.1.19-.06.68-.06,1.29C823.5,110.94,823.51,111,823.68,111.08Z"/><path class="cls-1" d="M835.39,111.14s0-.07-.09-.07l-.55,0c-.36,0-.43-.32-.47-.67-.06-.51-.06-1.47-.06-2.63v-2.14c0-1.89,0-2.23,0-2.62s.12-.63.45-.69a2.8,2.8,0,0,1,.3,0s.1,0,.1-.07-.06-.09-.19-.09l-1.19,0-1.23,0c-.13,0-.19,0-.19.09s0,.07.1.07a2,2,0,0,1,.37,0c.27.06.39.27.41.68s0,.73,0,2.62v2.14c0,1.16,0,2.12-.06,2.63,0,.35-.11.62-.35.67a2.35,2.35,0,0,1-.37,0c-.07,0-.1,0-.1.07s.07.1.2.1c.36,0,1.13,0,1.19,0s.82,0,1.49,0C835.33,111.24,835.39,111.2,835.39,111.14Z"/><path class="cls-1" d="M846.45,111.13c.22-.1.24-.12.31-.35a13.13,13.13,0,0,0,.27-1.56c0-.1,0-.18-.08-.18s-.1,0-.13.18a2.15,2.15,0,0,1-.45,1,2.77,2.77,0,0,1-2.11.61,4.38,4.38,0,0,1-4.37-4.44,4,4,0,0,1,1.09-3.17,3.68,3.68,0,0,1,2.78-.89,4,4,0,0,1,2.43.7,1.66,1.66,0,0,1,.51,1.23c0,.17,0,.26.1.26s.1-.07.11-.26,0-.84,0-1.24.06-.59.06-.69,0-.12-.16-.13a8.83,8.83,0,0,1-1.24-.18,10.21,10.21,0,0,0-1.76-.14,4.57,4.57,0,0,0-5.06,4.6,4.69,4.69,0,0,0,1.47,3.6,5.6,5.6,0,0,0,4,1.31A7.2,7.2,0,0,0,846.45,111.13Z"/><path class="cls-1" d="M791.49,114.4c-.4,0-1,0-1.08,0s-.8,0-1.36,0c-.22,0-.31,0-.31.11s.08.08.16.08a1.57,1.57,0,0,1,.52.06.34.34,0,0,1,.19.31,1.92,1.92,0,0,1-.13.53c-.31,1-2.16,5.84-3,7.7l-2.66-7.1a5.1,5.1,0,0,1-.37-1.15.27.27,0,0,1,.18-.28,1.72,1.72,0,0,1,.52-.07c.1,0,.14,0,.14-.09s-.12-.1-.37-.1c-.53,0-1.16,0-1.29,0s-1,0-1.62,0c-.23,0-.37,0-.37.1s0,.09.12.09a2,2,0,0,1,.52.06c.49.14.69.29,1,1.07l3.4,8.49c.26.67.33.87.5.87s.19-.23.58-1.06c.32-.68.94-2.18,1.79-4.2.71-1.71,1.4-3.37,1.55-3.76.38-.94.58-1.17.77-1.3a1.21,1.21,0,0,1,.66-.17c.11,0,.17,0,.17-.09S791.64,114.4,791.49,114.4Z"/><path class="cls-1" d="M801.1,124.71a1.35,1.35,0,0,1-.49-.08c-.26-.07-.61-.26-1.05-1.34-.74-1.85-2.64-6.86-2.82-7.32s-.2-.44-.27-.44-.12.08-.27.48l-2.75,7.53c-.22.61-.46,1.07-1,1.14a2.26,2.26,0,0,1-.35,0c-.06,0-.11,0-.11.07s.07.1.23.1c.57,0,1.24,0,1.37,0s.66,0,.95,0c.11,0,.18,0,.18-.1s0-.07-.13-.07h-.11c-.21,0-.47-.11-.47-.36a2.5,2.5,0,0,1,.17-.81l.73-2.15c0-.06.06-.1.12-.1h2.61c.06,0,.08,0,.11.08l1.13,3c.07.2,0,.31-.07.33s-.09,0-.09.09.13.07.37.08c.83,0,1.72,0,1.9,0s.24,0,.24-.1S801.17,124.71,801.1,124.71Zm-3.63-3.85h-2.32s-.07,0,0-.09l1.07-3.27q.09-.27.18,0l1.15,3.27S797.52,120.86,797.47,120.86Z"/><path class="cls-1" d="M811.06,122.68c-.08,0-.1,0-.13.18a2.15,2.15,0,0,1-.45,1,2.77,2.77,0,0,1-2.11.61,4.38,4.38,0,0,1-4.37-4.44,4,4,0,0,1,1.09-3.17,3.68,3.68,0,0,1,2.78-.89,4,4,0,0,1,2.43.7,1.66,1.66,0,0,1,.51,1.23c0,.17,0,.26.1.26s.1-.08.11-.26,0-.84,0-1.25.06-.58.06-.68,0-.12-.16-.13a10.6,10.6,0,0,1-1.24-.18,10.21,10.21,0,0,0-1.76-.14,4.57,4.57,0,0,0-5.06,4.6,4.69,4.69,0,0,0,1.47,3.6,5.6,5.6,0,0,0,4,1.31,7.2,7.2,0,0,0,2.19-.28c.22-.1.24-.12.31-.35a13.13,13.13,0,0,0,.27-1.56C811.14,122.76,811.12,122.68,811.06,122.68Z"/><path class="cls-1" d="M822.51,124.71a1.33,1.33,0,0,1-.48-.08c-.26-.07-.61-.26-1-1.34-.74-1.85-2.64-6.86-2.82-7.32s-.2-.44-.27-.44-.12.08-.27.48l-2.75,7.53c-.22.61-.46,1.07-1,1.14a2.26,2.26,0,0,1-.35,0c-.06,0-.11,0-.11.07s.07.1.23.1c.57,0,1.24,0,1.37,0s.66,0,1,0c.11,0,.18,0,.18-.1s0-.07-.13-.07h-.12c-.2,0-.46-.11-.46-.36a2.5,2.5,0,0,1,.17-.81l.73-2.15c0-.06.06-.1.12-.1H819c.06,0,.08,0,.11.08l1.13,3c.07.2,0,.31-.07.33s-.09,0-.09.09.14.07.37.08c.83,0,1.72,0,1.9,0s.24,0,.24-.1S822.59,124.71,822.51,124.71Zm-3.63-3.85h-2.31s-.07,0,0-.09l1.07-3.27q.09-.27.18,0l1.15,3.27S818.94,120.86,818.88,120.86Z"/><path class="cls-1" d="M831.12,115.62l-.35.06a4.43,4.43,0,0,1-.85.06h-4.55c-.15,0-.61,0-1-.06a2.71,2.71,0,0,1-.53-.15s-.09.16-.12.23-.27,1.15-.27,1.27,0,.11.06.11.09,0,.13-.12a1.55,1.55,0,0,1,.2-.38c.2-.29.49-.38,1.24-.39l1.8,0v5.13a25.55,25.55,0,0,1-.07,2.63c0,.35-.11.62-.35.67a2.08,2.08,0,0,1-.36,0c-.07,0-.1,0-.1.07s.06.1.19.1c.37,0,1.13,0,1.19,0s.83,0,1.5,0c.13,0,.19,0,.19-.1s0-.07-.09-.07-.38,0-.55,0c-.36,0-.44-.32-.47-.67a25.55,25.55,0,0,1-.07-2.63v-5.13l1.53,0c1.17,0,1.46.3,1.5.67v.13c0,.17,0,.2.09.2s.09,0,.09-.15,0-1,0-1.34C831.17,115.69,831.17,115.62,831.12,115.62Z"/><path class="cls-1" d="M837.65,124.71c-.11,0-.38,0-.55,0-.36,0-.44-.32-.47-.67-.06-.51-.06-1.47-.06-2.63v-2.14c0-1.89,0-2.23,0-2.62s.12-.63.45-.69a2.51,2.51,0,0,1,.3,0s.1,0,.1-.07-.06-.09-.19-.09l-1.19,0-1.23,0c-.13,0-.19,0-.19.09s0,.07.09.07a2.09,2.09,0,0,1,.38,0c.26.06.39.27.41.68s0,.73,0,2.62v2.14a25.55,25.55,0,0,1-.07,2.63c0,.35-.11.62-.34.67a2.35,2.35,0,0,1-.37,0c-.07,0-.1,0-.1.07s.06.1.19.1c.37,0,1.13,0,1.2,0s.82,0,1.49,0c.13,0,.19,0,.19-.1S837.72,124.71,837.65,124.71Z"/><path class="cls-1" d="M845.8,115.53a4.7,4.7,0,0,0-4.78,4.75,4.55,4.55,0,0,0,4.71,4.77,4.77,4.77,0,0,0,4.84-5A4.42,4.42,0,0,0,845.8,115.53Zm.25,9.06c-2.18,0-3.88-1.82-3.88-4.65,0-2.66,1.52-4,3.55-4s3.68,1.57,3.68,4.48C849.4,124,847.15,124.59,846.05,124.59Z"/><path class="cls-1" d="M863.14,115.7c-.5,0-.9,0-1,0s-.72,0-1.26,0c-.15,0-.25,0-.25.09s0,.08.1.08a3,3,0,0,1,.59.06c.38.1.47.37.48,1.16l.13,6.16c-.39-.4-1.71-1.88-2.91-3.16-1.87-2-3.67-4-3.86-4.17s-.32-.39-.42-.39-.14.14-.14.61v7c0,1.11-.06,1.46-.36,1.55a2.18,2.18,0,0,1-.5.07c-.06,0-.1,0-.1.07s.08.09.2.09c.54,0,1.05,0,1.16,0s.59,0,1.29,0c.14,0,.21,0,.21-.09s0-.07-.09-.07a3.42,3.42,0,0,1-.61-.07c-.32-.1-.44-.42-.47-1.41l-.16-5.82c.39.44,1.76,2,3.17,3.49s3,3.16,3.17,3.28c.64.65.79.78.88.78s.11-.06.11-.86l0-7.11c0-.73,0-1,.44-1.08a1,1,0,0,1,.29,0c.09,0,.14,0,.14-.08S863.27,115.7,863.14,115.7Z"/><path class="cls-1" d="M870.22,119.67l-.35-.27c-1.16-.91-1.47-1.34-1.47-2a1.38,1.38,0,0,1,1.49-1.41c1.11,0,1.44.51,1.51.64a1.9,1.9,0,0,1,.16.61c0,.09,0,.16.1.16s.09-.09.09-.28c0-.83,0-1.23,0-1.29s0-.09-.12-.09a2.32,2.32,0,0,1-.42,0,4.44,4.44,0,0,0-1.13-.12,2.22,2.22,0,0,0-2.51,2.18c0,.82.29,1.58,1.57,2.63l.55.45c1,.86,1.4,1.34,1.4,2.18a1.82,1.82,0,0,1-3.53.38,2,2,0,0,1,0-.45c0-.09,0-.13-.09-.13s-.08.06-.09.19-.06.68-.06,1.29c0,.32,0,.38.18.46a3.7,3.7,0,0,0,1.62.33,3.23,3.23,0,0,0,1.84-.51,2.55,2.55,0,0,0,1-2C872,121.55,871.65,120.8,870.22,119.67Z"/><polygon class="cls-1" points="873.83 115.91 874.15 115.91 874.15 116.79 874.28 116.79 874.28 115.91 874.61 115.91 874.61 115.78 873.83 115.78 873.83 115.91"/><polygon class="cls-1" points="875.64 115.78 875.32 116.59 875 115.78 874.79 115.78 874.79 116.79 874.92 116.79 874.92 115.91 874.92 115.91 875.28 116.79 875.36 116.79 875.7 115.91 875.71 115.91 875.71 116.79 875.84 116.79 875.84 115.78 875.64 115.78"/><path class="cls-1" d="M772.4,113.62c-.93.2-2,.37-3.18.5v-3.41l.31-.28c.19-.17.37-.35.57-.51a5.54,5.54,0,0,0,.89-1,22.64,22.64,0,0,0,1.26-2,.93.93,0,0,0,0-.1.33.33,0,0,0,.06-.1c.15-.28.38-.73.56-1.09l.26-.55q.08-.16,0-.21h0s-.1.06-.17.2a9.57,9.57,0,0,1-1.38,1.52,2.91,2.91,0,0,1-.92.56l-.73.27-.49.18-.29.12v-5.31c.28-.53.56-1.08.8-1.62.06-.13.12-.26.17-.39s.26-.56.27-.59a9.36,9.36,0,0,0,.33-.9c.33-.94.44-1.59.6-2s.29-.63.23-.63l-.06,0c-.17.1-.2,0-.64.69s-.95,1.72-1.55,2.74c-.13.22-.24.44-.37.66a5.07,5.07,0,0,0-4.85-3.68h-9.26l-.74-1c-.39-.55-.76-1.06-1-1.43l-.21-.28a.21.21,0,0,1,0-.06l-.21-.25c-.18-.22-.38-.44-.57-.65s-.35-.38-.43-.45a.14.14,0,0,0-.09,0,.06.06,0,0,0,0,0,.28.28,0,0,0,0,.27c.09.21.42.65.58,1s.8,1.41,1.45,2.92h-9.71a5.09,5.09,0,0,0-5.08,5.08v1.42l-.19-.07a14.43,14.43,0,0,1-2-1.13.44.44,0,0,0-.17-.07h0s0,.08.07.18l0,.06.15.25.29.45c.12.17.27.36.43.55a.6.6,0,0,0,.08.08,8.73,8.73,0,0,0,1,1l.33.27V111a20.63,20.63,0,0,1-2.54-.17c-.07,0-.33-.17-.38-.17s0,0,.18.17l.15.12c.05,0,.1.13.16.17s.24.13.37.22.47.31.72.45l.26.13c.16.09.33.16.49.24l.59.22v11.47a5.09,5.09,0,0,0,5.08,5.08h20.31a5.08,5.08,0,0,0,5.07-5.08v-7.1l1-.54.35-.19,1.34-.76,1.12-.64.45-.26,1.29-.75c.41-.24.69-.42.76-.47l.17-.15.06-.06c.09-.08.16-.15.13-.19a.13.13,0,0,0-.09,0C775.56,112.74,774.22,113.25,772.4,113.62Zm-18.35-3.37c-.08-.15-.28-.62-.36-.79a4.73,4.73,0,0,0-.42-.86,7.5,7.5,0,0,0-.84-1.1c-.22-.25-.45-.49-.69-.73a8.28,8.28,0,0,0-.84-.71,4.07,4.07,0,0,0-.71-.43c-.28-.13-.54-.25-.79-.35s-.5-.2-.76-.29a5,5,0,0,0-.78-.22c-.7-.13-.67-.11-1.33-.19-.34,0-.62-.1-1-.12-.54,0-1-.1-1.49-.17l-1.48-.18a15.71,15.71,0,0,1-2.11-.42l-.73-.21-.8-.23v-1.48a4.9,4.9,0,0,1,4.89-4.89h9.79a18.17,18.17,0,0,1,.8,2.29c.09.38.18.71.27,1a11.89,11.89,0,0,1,.64,3,24.74,24.74,0,0,1,.06,3,3.45,3.45,0,0,1-.13.7,21.59,21.59,0,0,0-.66,2.57,1.4,1.4,0,0,0,0,.55,6.42,6.42,0,0,0,.76,1.44l.29.59,0,.09a4.43,4.43,0,0,1,.2,1.34,6.8,6.8,0,0,0,0,.91c0,.1,0,.17,0,.21s.06.12.11.11a.28.28,0,0,0,.09-.06l.15-.13c.07-.06.15-.12.23-.2l.05,0,.19-.17c.13-.12.27-.25.39-.38s.16-.19.26-.31a5.75,5.75,0,0,0,1.11-1.85c.05-.15.09-.31.13-.48.13-.64.28-1.26.37-1.9a7.57,7.57,0,0,0,.05-2c0-.07,0-.13,0-.2s0-.4-.08-.6a20,20,0,0,0-.81-3.59c-.14-.39-.34-.86-.56-1.36-.38-.87-.84-1.82-1.23-2.52-.24-.4-.77-1.2-1.36-2.05h9.13a4.89,4.89,0,0,1,4.72,3.71c-.06.1-.11.2-.19.31s-.34.47-.51.7a9.18,9.18,0,0,1-.91,1.1c-.16.17-.33.33-.49.48a12.55,12.55,0,0,1-1.86,1.37l-.64.37a2.66,2.66,0,0,0-.89.88,22,22,0,0,0-1.17,2.07s0,0,0,0a.2.2,0,0,0,0,.11.36.36,0,0,0,.07.24c.08.08.44.08.53.07h0a13,13,0,0,0,1.32-1.09c.05,0,.82-.48-.22,1.19-.06.08-.12.07-.2,0s-.23,0-.29.25c-.15.63,0,.85-.14,1.15-.64,1.07-.71-.19-.81-.57a1,1,0,0,0-.45-.52c-.14,0-.21.16-.24.23a8.22,8.22,0,0,0-.52,1.66,2.4,2.4,0,0,0-.06.47,2.42,2.42,0,0,1-.87,1.66,7.62,7.62,0,0,1-1.19.78l-.13.07a5.36,5.36,0,0,0-.76.42c-.06.07-.09.16,0,.2a.21.21,0,0,0,.13,0,3.74,3.74,0,0,0,1.57-.42l.28-.12a5,5,0,0,0,1.14-.51,2.56,2.56,0,0,0,.43-.34,4.23,4.23,0,0,0,.48-.53c.55-.71,1.28-1.7,2.07-2.79l1-1.44.47-.67c.3-.41.57-.8.84-1.16a37.41,37.41,0,0,0,2.26-3.34,1.39,1.39,0,0,0,.11-.21v5a12.21,12.21,0,0,0-1.3.72c-.52.33-1,.68-1.44,1l-.12.08c-.2.16-.4.33-.61.53s-.46.46-.69.71c-.69.77-1,1.18-1.07,1.21-.18.21-.1.11,0,0s.17-.19,0,0-.38.46-.62.7a8,8,0,0,0-.91,1.1c-.06.08-.06.12,0,.14a.36.36,0,0,0,.19,0,8.32,8.32,0,0,0,1.09-.25l.2-.06a12.34,12.34,0,0,0,1.49-.55l.54-.25c.29-.13.61-.29,1-.47l.2-.1a9.46,9.46,0,0,0,2.14-1.42v3.26c-1,.12-2.08.2-3.1.24l-.94,0-.55,0-1.1,0-1.45.11-1.17.11-.41,0-1.16.13c-.49.05-1,.12-1.48.19-.92.15-1.85.33-2.73.52a3.29,3.29,0,0,0,.23-1.28c0-.25,0-.49-.06-.81A2.73,2.73,0,0,0,755,113l-.09-.29a1.85,1.85,0,0,0-.19-.37,7,7,0,0,0-1.24-1.43,5.34,5.34,0,0,0-1.33-1,7.9,7.9,0,0,0-1.82-.55l-.24,0a8.37,8.37,0,0,0-1.31-.11,9.74,9.74,0,0,0-1.35.1,10,10,0,0,0-1.14.23c-.35.08-.72.18-1.1.3-.65.19-1.31.4-1.91.59l-.67.19a7.78,7.78,0,0,1-.79.17c-.68.1-1.43.15-2.06.18l-.61,0H739V105l.09.07.75.43a8.85,8.85,0,0,0,1,.49l.19.08.3.11c.19.07,1.82.57,2,.62a15.7,15.7,0,0,1,2.71,1c.59.25.43.15,1,.42l.43.22.42.2h1.73a10.22,10.22,0,0,1,1.95.34l.1,0a7.31,7.31,0,0,1,1.16.53,5,5,0,0,1,1.49,1.24C754.33,110.93,754.23,110.66,754.05,110.25ZM739,123.88v-11.4a9.84,9.84,0,0,0,1.13.3,13.6,13.6,0,0,0,2.59.22c.82,0,1.68,0,2.47-.08l.66,0,1.11-.1c.79-.06,1.32-.15,1.94-.17a11.21,11.21,0,0,0,1.39-.11,9.16,9.16,0,0,1,1.16,0,7.85,7.85,0,0,1,2,.44,1.23,1.23,0,0,1,.64.37c.23.33-.09.77-.37,1.47a6.49,6.49,0,0,1-.29.59,4.35,4.35,0,0,1-.59.78h0l.08-.09h0a11.34,11.34,0,0,0-2.27.67h0c-.26.11-.92.46-1.15.55h0l-.12.06a11.16,11.16,0,0,0-2.46,1.59l-.3.25-.11.09a4.69,4.69,0,0,0-.48.5v0a11.29,11.29,0,0,0-.7.93,6.34,6.34,0,0,0-.59.87l0,0-.31.5h0l.1-.07a8.76,8.76,0,0,0-.5,1.21c-.07.18-.13.37-.19.56-.16.49-.29,1-.42,1.56-.1.38-.18.77-.27,1.17a18.21,18.21,0,0,1-.56,2A4.88,4.88,0,0,1,739,123.88Zm30.08,0a4.89,4.89,0,0,1-4.88,4.89H748c0-.49,0-1.06,0-1.47v0a3.6,3.6,0,0,1,0-1.06s0-.09,0-.13a1.54,1.54,0,0,1,0-.17h0c.06-.23.15-.53.27-1a3.71,3.71,0,0,1,.25-.64,6,6,0,0,1,.48-.8c.19-.27.58-.32,1.17-.35l.56,0H751c.49,0,.78,0,1.14-.05a15.57,15.57,0,0,0,1.56-.27l.45-.1.19,0c.12,0,.24-.06.36-.09a39.17,39.17,0,0,0,5.75-2c2-.88,3.64-1.38,5-2,.81-.36,1.84-.83,2.87-1.33l.63-.32Z"/><path class="cls-1" d="M1186.49,57.14l7.8-17.67a.33.33,0,0,0-.32-.5h-5.47a.91.91,0,0,0-.76.5L1180,57.14a.34.34,0,0,0,.33.5h5.36A.93.93,0,0,0,1186.49,57.14Z"/><polygon class="cls-1" points="1214.48 52.38 1226.59 38.98 1212.42 38.98 1209.22 44.14 1214.78 44.14 1202.46 57.64 1217.46 57.64 1223.04 52.38 1214.48 52.38 1214.48 52.38"/><path class="cls-1" d="M1162.62,39h-9.37a1.58,1.58,0,0,0-1.33.87l-7.38,16.92a.57.57,0,0,0,.57.87h4.65a1.58,1.58,0,0,0,1.33-.87l2.1-4.79h2.18c.68,0,1,.2.6,1l-1.62,3.8a.58.58,0,0,0,.58.87h4.65a1.58,1.58,0,0,0,1.33-.87l2.11-4.89a1.94,1.94,0,0,0-1.69-2.88,5.58,5.58,0,0,0,2.88-2.78l1.09-2.58C1166.62,40.65,1165.68,38.94,1162.62,39Zm-2.73,5.33-1.16,2.55a.93.93,0,0,1-1,.64h-2.61l1.75-4h2.5C1159.94,43.57,1160.1,43.8,1159.89,44.31Z"/><path class="cls-1" d="M1180.88,39h-9.94a1.14,1.14,0,0,0-1,.62L1162.39,57a.41.41,0,0,0,.41.62h10.64c3.37,0,5.31-.79,6.85-4.37l1.09-2.37c.86-2,0-2.92-1.59-3.18a4.79,4.79,0,0,0,2.78-2.78l.89-1.89C1184.55,40.51,1183.64,38.93,1180.88,39ZM1176,50.66l-.68,1.35a1.63,1.63,0,0,1-1.75,1.21h-3.11l1.49-3.51h3.11C1176,49.78,1176.29,50,1176,50.66Zm1.79-6.26-.47,1.08-.07.14a1.06,1.06,0,0,1-1.09.71h-2.7l1.23-2.83h2.75C1178,43.53,1178,43.85,1177.8,44.4Z"/><path class="cls-1" d="M1196,39l-2.31,5.16h3.3a.24.24,0,0,1,.24.37l-5.76,12.76a.24.24,0,0,0,.24.37h5.87a.68.68,0,0,0,.57-.37l5.54-12.76a.67.67,0,0,1,.56-.37h3.39l3.18-5.16Z"/><path class="cls-1" d="M1147.31,45.33l.73-1.59c1.47-3.36.49-4.8-2.39-4.76h-6.94c-2.85,0-5.24,1.57-6.56,4.56L1130,49.6h-2l3.88,5.23,6.4-5.23h-1.63l1.89-4.37a1.59,1.59,0,0,1,1.39-1.09H1141a.71.71,0,0,1,.54.21l3.4-2.86Z"/><path class="cls-1" d="M1131.71,56.37l-2.85-3.61-.15.32c-1.33,3-1.11,4.51,1.75,4.56h6.85a7.21,7.21,0,0,0,6.66-4.56l2-4.67h1.83l-3.11-5.24-6.35,5.24h1.74l-1.29,3a1.56,1.56,0,0,1-1.28,1h-.91Z"/><path class="cls-1" d="M1228.85,38.87a.9.9,0,0,1,.64.26.92.92,0,0,1-.64,1.56.85.85,0,0,1-.64-.27.91.91,0,0,1,.64-1.55Zm0,1.65a.71.71,0,0,0,.53-.22.75.75,0,0,0,.22-.53.73.73,0,0,0-.22-.52.75.75,0,0,0-1.06,0,.74.74,0,0,0,0,1A.71.71,0,0,0,1228.85,40.52Zm.46-.26h-.21l-.26-.39h-.12v.39h-.19v-1h.31a.34.34,0,0,1,.25.08.24.24,0,0,1,.1.21.27.27,0,0,1-.18.26Zm-.59-.54h.11q.18,0,.18-.15c0-.09-.06-.13-.18-.13h-.11Z"/><g id="Trivago"><polygon class="cls-1" points="1014.48 41.15 1020.04 41.15 1024.26 52.48 1024.33 52.48 1028.24 41.15 1033.42 41.15 1026.83 57.83 1021.38 57.83 1014.48 41.15"/><path class="cls-1" d="M994.28,45.27h-5v5.56a9.7,9.7,0,0,0,.07,1.25,2.42,2.42,0,0,0,.34,1,1.68,1.68,0,0,0,.81.63,3.91,3.91,0,0,0,1.45.22,9.8,9.8,0,0,0,1.19-.08,2.11,2.11,0,0,0,1.12-.4v4.3a9.84,9.84,0,0,1-2,.41,19.22,19.22,0,0,1-2,.1,11.59,11.59,0,0,1-2.65-.28,6.45,6.45,0,0,1-2.11-.86,4.2,4.2,0,0,1-1.42-1.57,4.93,4.93,0,0,1-.51-2.34V45.27H980V41.15h3.62V36.21h5.67v4.94h5Z"/><path class="cls-1" d="M995.73,41.15h5.15v2.67h.07a6.31,6.31,0,0,1,2-2.31,4.89,4.89,0,0,1,2.85-.78c.29,0,.59,0,.89,0a4.12,4.12,0,0,1,.82.14v4.7a7.06,7.06,0,0,0-1.08-.26,6.59,6.59,0,0,0-1.11-.08,5.55,5.55,0,0,0-2.34.41,3.1,3.1,0,0,0-1.32,1.15,4.31,4.31,0,0,0-.6,1.77,17.34,17.34,0,0,0-.14,2.26v7h-5.15Z"/><path class="cls-1" d="M1008.68,41.15h5.14V57.83h-5.14Zm-.17-4.45a2.77,2.77,0,1,1,.81,1.93,2.6,2.6,0,0,1-.81-1.93"/><path class="cls-1" d="M1042.15,50.52c-.38,0-.87,0-1.45,0a7,7,0,0,0-1.68.29,3.78,3.78,0,0,0-1.38.72,1.69,1.69,0,0,0-.56,1.34,1.48,1.48,0,0,0,.79,1.38,3.33,3.33,0,0,0,1.64.44,5.42,5.42,0,0,0,1.46-.2,4.37,4.37,0,0,0,1.25-.59,2.79,2.79,0,0,0,.88-1,2.75,2.75,0,0,0,.33-1.37v-1.1Zm1.28,5.22h-.07a4.94,4.94,0,0,1-2.28,1.92,7.91,7.91,0,0,1-3,.58,7.66,7.66,0,0,1-2.25-.33,5.6,5.6,0,0,1-1.9-1,4.78,4.78,0,0,1-1.79-3.84,5.1,5.1,0,0,1,.54-2.45,4.64,4.64,0,0,1,1.44-1.64,7.54,7.54,0,0,1,2.07-1,15.87,15.87,0,0,1,2.43-.52,19,19,0,0,1,2.5-.21l2.32,0a2.68,2.68,0,0,0-1-2.18,3.48,3.48,0,0,0-2.32-.81,4.94,4.94,0,0,0-2.31.53,6.08,6.08,0,0,0-1.87,1.46l-2.75-2.82a9.36,9.36,0,0,1,3.36-2,11.92,11.92,0,0,1,4-.67,10.36,10.36,0,0,1,3.73.56A5.44,5.44,0,0,1,1046.6,43a6.47,6.47,0,0,1,1.22,2.69,17.63,17.63,0,0,1,.34,3.69v8.48h-4.73Z"/><path class="cls-1" d="M1072.13,49.49a4.57,4.57,0,0,0,1,3,3.82,3.82,0,0,0,5.5,0,4.58,4.58,0,0,0,1-3,4.62,4.62,0,0,0-1-3.06,3.84,3.84,0,0,0-5.5,0,4.62,4.62,0,0,0-1,3.06m-4.66,0a9.67,9.67,0,0,1,.65-3.61,8.41,8.41,0,0,1,1.78-2.76,7.79,7.79,0,0,1,2.67-1.77,9,9,0,0,1,6.56,0,7.79,7.79,0,0,1,2.67,1.77,8.41,8.41,0,0,1,1.78,2.76,10.2,10.2,0,0,1,0,7.22,8.41,8.41,0,0,1-1.78,2.76,7.91,7.91,0,0,1-2.67,1.76,9,9,0,0,1-6.56,0,7.91,7.91,0,0,1-2.67-1.76,8.41,8.41,0,0,1-1.78-2.76,9.74,9.74,0,0,1-.65-3.61"/><path class="cls-1" d="M1087.18,45.58a2.18,2.18,0,1,1,2.17-2.17,2.18,2.18,0,0,1-2.17,2.17m0-4.85a2.68,2.68,0,1,0,2.67,2.68,2.67,2.67,0,0,0-2.67-2.68"/><path class="cls-1" d="M1087.53,42.87a.33.33,0,0,0,0-.17.32.32,0,0,0-.12-.11l-.14,0h-.4v.7h.19l.23,0a.33.33,0,0,0,.16-.07.31.31,0,0,0,.09-.11.48.48,0,0,0,0-.18m1,1.79h-.79l-.72-.95h-.23v.95h-.64V42.08h1a2.09,2.09,0,0,1,.38,0,1,1,0,0,1,.29.1.69.69,0,0,1,.22.23.61.61,0,0,1,.08.35.82.82,0,0,1-.13.48,1.07,1.07,0,0,1-.36.3Z"/><path class="cls-1" d="M1061.92,41.21v2.23h0a7.15,7.15,0,0,0-.74-.84,6,6,0,0,0-1.24-.79,7.27,7.27,0,0,0-1.63-.61,7.91,7.91,0,0,0-2-.24,6.79,6.79,0,0,0-3.19.74,6.9,6.9,0,0,0-2.39,1.95,7.89,7.89,0,0,0-1.21,2.75,12.28,12.28,0,0,0-.36,3.25,12.44,12.44,0,0,0,.5,3.53,7.06,7.06,0,0,0,1.28,2.67,6.31,6.31,0,0,0,2.59,1.77,8.51,8.51,0,0,0,3.37.63,7.26,7.26,0,0,0,2.49-.52,3,3,0,0,0,1.95-1.73h0v1.68a3.92,3.92,0,0,1-.95,2.93A4.43,4.43,0,0,1,1057,61.8a8.71,8.71,0,0,1-2.77-.28,9.44,9.44,0,0,1-3-1.32l-2.49,3.66a11.57,11.57,0,0,0,4,1.94,16.93,16.93,0,0,0,4.38.5c3.25,0,5.57-.82,7.17-2.45s2.26-4,2.26-7.2V41.21Zm-1.22,11.33a3.81,3.81,0,0,1-5.49,0,5.25,5.25,0,0,1,0-6.11,3.83,3.83,0,0,1,5.49,0,4.62,4.62,0,0,1,1,3.06A4.58,4.58,0,0,1,1060.7,52.54Z"/></g><path class="cls-1" d="M1318,43h2.23v2.63h0c1.07-1.81,2.22-2.84,4.52-2.84v1.85a4.1,4.1,0,0,0-2.85,1.14,5.47,5.47,0,0,0-1.72,3.62v6.91H1318Z"/><path class="cls-1" d="M1326.65,45.6a6.26,6.26,0,0,1,5.52-2.82c2.35,0,5.11,1.08,5.11,4v6.71a9.74,9.74,0,0,0,.33,2.87h-2.28l-.22-1.85a6.3,6.3,0,0,1-4.6,2.1c-2.14,0-4.26-1.23-4.26-3.66,0-2.92,2.63-4.37,8.81-5.42V46.8c0-1.76-1.21-2.43-2.87-2.43a3.62,3.62,0,0,0-3.56,2.07Zm8.41,3.55c-4.42.75-6.59,2-6.59,3.82a2.25,2.25,0,0,0,2.31,2,6.58,6.58,0,0,0,4.28-2.2Z"/><path class="cls-1" d="M1346.2,56.35h-2.87L1339.05,43h2.25l3.54,11h.05l3.53-11h2Z"/><path class="cls-1" d="M1368.86,37.5V56.35h-2.25V38.46Z"/><path class="cls-1" d="M1377.5,56.6c-3.81,0-6-3.07-6-6.91s2.19-6.91,6-6.91,6,3.07,6,6.91S1381.3,56.6,1377.5,56.6Zm0-12.23c-2.31,0-3.78,1.89-3.78,5.32s1.47,5.32,3.78,5.32,3.77-1.89,3.77-5.32S1379.8,44.37,1377.5,44.37Z"/><path class="cls-1" d="M1394.58,47a3.38,3.38,0,0,0-3.29-2.63c-2.38,0-3.77,1.94-3.77,5.32s1.39,5.32,3.77,5.32c1.77,0,2.76-.56,3.83-2.45l1.85.66c-1.39,2.25-2.92,3.38-5.68,3.38-3.48,0-6-2.61-6-6.91s2.52-6.91,6-6.91a5.47,5.47,0,0,1,5.38,3.61Z"/><path class="cls-1" d="M1399.31,43h2.22V56.35h-2.22Z"/><path class="cls-1" d="M1313,55c-1.12,0-1.58-.3-1.58-.91V44.63h2.78l.43-1.59h-3.21V38.3l-2.23,1V43h-2v1.59h2V54.4c.23,1.69,1.19,2.2,3.27,2.2a10.79,10.79,0,0,0,2.08-.18l.42-1.57A11.89,11.89,0,0,1,1313,55Z"/><path class="cls-1" d="M1425.53,43l-4.9,14.48a5.17,5.17,0,0,1-5,3.81,15.46,15.46,0,0,1-1.82-.15l.48-1.59a8.5,8.5,0,0,0,1,.08c1.18,0,3-.25,3.64-3.17L1414.1,43h2l3.75,10.16h0L1423.2,43Z"/><path class="cls-1" d="M1410.45,55c-1.13,0-1.58-.3-1.58-.91V44.63h2.78l.43-1.59h-3.21V38.3l-2.23,1V43h-2.05v1.59h2.05V54.4c.23,1.69,1.18,2.2,3.27,2.2a10.87,10.87,0,0,0,2.08-.18l.42-1.57A12,12,0,0,1,1410.45,55Z"/><path class="cls-1" d="M1362.09,52.83a4.3,4.3,0,0,1-3.81,2.18c-2.3,0-4.12-2-4.12-5h9.35V48.82c0-4.25-2.71-6-5.6-6-3.43,0-6,2.61-6,6.91,0,4.86,3.24,6.91,6.34,6.91,2.66,0,3.58-.23,5.21-2.43ZM1358,44.37c2.09,0,3.32,1.64,3.32,4.09h-7.07C1354.38,46,1355.63,44.37,1358,44.37Z"/><rect class="cls-1" x="1399.31" y="38.54" width="2.23" height="2.2"/><path class="cls-1" d="M1270.85,35.06c.33-.14.67-.18,1-.29a14.19,14.19,0,0,1-1.54-1.73c-.14-.18-.07-.28,0-.32s0-.21.1-.31c.23-.07.2-.3.33-.44s0-.22,0-.26a.22.22,0,0,1,.27,0,7,7,0,0,0,1.4,1.17,12.1,12.1,0,0,1,1.72,1.21s.21.08.22,0a4.74,4.74,0,0,1,.47-1.45,2.08,2.08,0,0,1,.24-.5,1.88,1.88,0,0,1,.8-.7c.46-.26,1,0,1.35-.41.12-.09.32,0,.43,0,.3.15.75.05,1,.3a25.08,25.08,0,0,0-.72,2.87c0,.21-.18.51,0,.59a4.35,4.35,0,0,0,1.74-.08,7.31,7.31,0,0,1,1.87.15,2.94,2.94,0,0,1,1.2.65,2.48,2.48,0,0,1,.61,2.25c0,.05-.32.33-.43.32s-.07-.23-.13-.24a6.81,6.81,0,0,1-.9.69c-.06,0-.39-.33-.54-.4a2.54,2.54,0,0,0-1.76-.2,7,7,0,0,0-2.08.25c.26.47.71.7,1.09,1.07.61.63,1.25,1.1,1.93,1.68a5.18,5.18,0,0,1,1.11,1.29c-.17.08,0,.17-.08.26s-.1-.13-.21-.14-.17.13-.14.25-.1.33-.21.37-.31.21-.41.19-.38-.14-.35-.1.21.37.18.42a.89.89,0,0,1-.59-.26c-.87-.72-1.63-1.47-2.55-2.25a7.38,7.38,0,0,0-.94-1c-.63,1.43-1.07,2.45-1.7,3.87-.15.25-.23.92-.37,1s-.48-.48-.67-.86a19.39,19.39,0,0,1,.15-2.09l0-.16c0-1.18.41-2.21.36-3.4,0-.11-.14-.13-.3-.15-1.6-.18-3.14-.34-4.73-.56a3.76,3.76,0,0,1-1.1-.21.81.81,0,0,0-.31-.15c0-.06,0-.06-.09-.07a7.38,7.38,0,0,1,2-1.64C1269.91,35.4,1270.56,35.18,1270.85,35.06Z"/><path class="cls-1" d="M1285.62,43.3c-.09,0,0-.13,0-.17s.3-.13.43-.13c.43-.12.89,0,1.32-.12.09,0,.17-.17.21-.17a9.32,9.32,0,0,1,1-.3c.08,0,.29-.17.21-.3a3.49,3.49,0,0,1-.93-1.23c-.13-.26-.35-.47-.34-.73s.25-.25.46-.17a8.07,8.07,0,0,1,2.26,2.1c.13.17.25-.22.3-.35a20.74,20.74,0,0,1,.9-2.08c.08-.21.25-.47.47-.51a3.29,3.29,0,0,0,.81-.47c.21-.08.38,0,.59-.13s.3.17.47.09.47,0,.73,0a.35.35,0,0,1,.16.43,11.28,11.28,0,0,1-.76,1.83c-.3.47-.56.89-.9,1.36,0,0,0,.13,0,.17s.47,0,.64.09a15.42,15.42,0,0,0,2,.26c.34.08.34.55.64.81s-.13.25-.3.3c-.47.12-.94-.05-1.41.08a14.82,14.82,0,0,0-2.34.29c.25.26.51.47.72.73l.64.89a3.45,3.45,0,0,1,.42,1,1.43,1.43,0,0,1,0,.59c-.08,0-.08-.21-.17-.25s-.17.17-.3.13a.38.38,0,0,1-.21-.22,1.65,1.65,0,0,1-.38-.6,4.39,4.39,0,0,0-1.45-1.49,20,20,0,0,1-1.62,3.15c0,.09-.17.09-.3.09s-.13.08-.17.12-.13-.12-.17-.17c-.22-.17-.51-.34-.6-.6a1.61,1.61,0,0,1-.21-.72s-.08-.13-.08-.17a4.35,4.35,0,0,1,.17-.51,1.18,1.18,0,0,0,.34-.47,6.87,6.87,0,0,0,.69-1.45,15,15,0,0,1-3.07-.47,4.54,4.54,0,0,1-.68-.3C1285.7,43.47,1285.74,43.34,1285.62,43.3Z"/><path class="cls-1" d="M1286.83,27.45a7,7,0,0,0,.91-2.06c-1.69-.91-3.74-.38-5-2.52A5.89,5.89,0,0,1,1283,20c.38-.79,1.11-.78,1.82-.23a2,2,0,0,1,.71.15,6.49,6.49,0,0,1,2.15.32,12.65,12.65,0,0,0,2.64.36.59.59,0,0,0,.14-.49c-.21-1.28-.51-2.37-.84-3.71a5.49,5.49,0,0,1-.19-1c-.05-.74-.59-1.93-.1-2.27.07,0,.16.15.23.1s.23-.3.35-.25a24,24,0,0,1,4.48,4.29c.47.45.56-.79.93-1.18.1-.19,0-.64.09-.84.35-.64.43-1.48.72-2.07.56-.78.88-1.92,1.73-2.26a1.81,1.81,0,0,1,1.74.61c.11.05.37,0,.53.15.58.5,1.08,1.2,1.71,1.8a1,1,0,0,1,.22.89c-.15.89-1,.93-1.43,1.52l-2.75,4.27c-.09.2-.35.64-.15.89a30.21,30.21,0,0,0,3.83,3.44c.89.55,1.88.51,2.67,1.26a6.52,6.52,0,0,1,1.27,2.24c-3.22,2-6.89-1.3-10.34-1.23-.25.05-.19.4-.21.54.18,1.44.44,2.83.58,4.16.07,1,.59,1.93.73,2.87.07.35.4,1.29-.08,1.24a1.65,1.65,0,0,1-1.62-1,26.24,26.24,0,0,1-1.33-3.37,1.86,1.86,0,0,1-.07-1,3.33,3.33,0,0,0-.49-1.48c-.09-.2-.32.09-.46.19a19.56,19.56,0,0,0-1.36,1.87A6.73,6.73,0,0,1,1288,33c-.78.29-2,.48-2.51-.71.25,0,.47-.59.31-.74C1284.59,29.81,1286.31,28.73,1286.83,27.45Z"/><path class="cls-1" d="M1427,42.23a1.46,1.46,0,0,1,.35-.5,1.57,1.57,0,0,1,.51-.34,1.71,1.71,0,0,1,1.26,0,1.57,1.57,0,0,1,.51.34,1.61,1.61,0,0,1,.35.5,1.69,1.69,0,0,1,.13.63,1.75,1.75,0,0,1-.13.65,1.78,1.78,0,0,1-.35.51,1.72,1.72,0,0,1-.51.33,1.71,1.71,0,0,1-1.26,0,1.72,1.72,0,0,1-.51-.33,1.6,1.6,0,0,1-.35-.51,1.57,1.57,0,0,1-.13-.65A1.51,1.51,0,0,1,1427,42.23Zm.26,1.18a1.44,1.44,0,0,0,.28.44,1.3,1.3,0,0,0,.43.29,1.4,1.4,0,0,0,1,0,1.37,1.37,0,0,0,.42-.29,1.44,1.44,0,0,0,.28-.44,1.4,1.4,0,0,0,.1-.54,1.33,1.33,0,0,0-.1-.54,1.28,1.28,0,0,0-.28-.43,1.37,1.37,0,0,0-.42-.29,1.28,1.28,0,0,0-1,0,1.3,1.3,0,0,0-.43.29,1.28,1.28,0,0,0-.28.43,1.53,1.53,0,0,0-.1.54A1.62,1.62,0,0,0,1427.29,43.41Zm1.33-1.48a.83.83,0,0,1,.5.13.5.5,0,0,1,.16.41.47.47,0,0,1-.14.37.68.68,0,0,1-.36.14l.54.83H1429l-.51-.81h-.31v.81h-.3V41.93Zm-.13.83h.19l.16,0a.31.31,0,0,0,.11-.09.39.39,0,0,0,0-.17.27.27,0,0,0,0-.15.26.26,0,0,0-.09-.09l-.14,0h-.53v.59Z"/><path class="cls-1" d="M1427,42.23a1.46,1.46,0,0,1,.35-.5,1.57,1.57,0,0,1,.51-.34,1.71,1.71,0,0,1,1.26,0,1.57,1.57,0,0,1,.51.34,1.61,1.61,0,0,1,.35.5,1.69,1.69,0,0,1,.13.63,1.75,1.75,0,0,1-.13.65,1.78,1.78,0,0,1-.35.51,1.72,1.72,0,0,1-.51.33,1.71,1.71,0,0,1-1.26,0,1.72,1.72,0,0,1-.51-.33,1.6,1.6,0,0,1-.35-.51,1.57,1.57,0,0,1-.13-.65A1.51,1.51,0,0,1,1427,42.23Zm.26,1.18a1.44,1.44,0,0,0,.28.44,1.3,1.3,0,0,0,.43.29,1.4,1.4,0,0,0,1,0,1.37,1.37,0,0,0,.42-.29,1.44,1.44,0,0,0,.28-.44,1.4,1.4,0,0,0,.1-.54,1.33,1.33,0,0,0-.1-.54,1.28,1.28,0,0,0-.28-.43,1.37,1.37,0,0,0-.42-.29,1.28,1.28,0,0,0-1,0,1.3,1.3,0,0,0-.43.29,1.28,1.28,0,0,0-.28.43,1.53,1.53,0,0,0-.1.54A1.62,1.62,0,0,0,1427.29,43.41Zm1.33-1.48a.83.83,0,0,1,.5.13.5.5,0,0,1,.16.41.47.47,0,0,1-.14.37.68.68,0,0,1-.36.14l.54.83H1429l-.51-.81h-.31v.81h-.3V41.93Zm-.13.83h.19l.16,0a.31.31,0,0,0,.11-.09.39.39,0,0,0,0-.17.27.27,0,0,0,0-.15.26.26,0,0,0-.09-.09l-.14,0h-.53v.59Z"/><path class="cls-1" d="M814.55,40.29v7.44h8.6V40.29h2.32V58.07h-2.32V49.73h-8.6v8.34h-2.3V40.29Z"/><path class="cls-1" d="M840.32,51.58c0,4.73-3.27,6.78-6.36,6.78-3.46,0-6.13-2.53-6.13-6.57,0-4.27,2.8-6.78,6.34-6.78S840.32,47.67,840.32,51.58Zm-10.14.13c0,2.8,1.61,4.91,3.88,4.91s3.88-2.08,3.88-5c0-2.16-1.08-4.91-3.82-4.91S830.18,49.29,830.18,51.71Z"/><path class="cls-1" d="M842.63,48.76c0-1.32,0-2.4-.11-3.46h2l.11,2.06h.08a4.39,4.39,0,0,1,4-2.35,3.79,3.79,0,0,1,3.62,2.56h0a5.23,5.23,0,0,1,1.42-1.66,4.38,4.38,0,0,1,2.83-.9c1.69,0,4.19,1.11,4.19,5.54v7.52h-2.27V50.84c0-2.45-.89-3.93-2.77-3.93A3,3,0,0,0,853.08,49a3.71,3.71,0,0,0-.19,1.16v7.89h-2.27V50.42c0-2-.89-3.51-2.66-3.51a3.18,3.18,0,0,0-2.88,2.32,3.28,3.28,0,0,0-.18,1.14v7.7h-2.27Z"/><path class="cls-1" d="M865.38,52c0,3.2,2.1,4.52,4.46,4.52a8.53,8.53,0,0,0,3.61-.67l.41,1.7a10.66,10.66,0,0,1-4.34.83c-4,0-6.41-2.67-6.41-6.6s2.32-7,6.12-7c4.25,0,5.38,3.74,5.38,6.14a8.35,8.35,0,0,1-.08,1.1Zm6.94-1.7c0-1.5-.62-3.85-3.28-3.85-2.4,0-3.45,2.21-3.64,3.85Z"/><path class="cls-1" d="M879.93,52.37l-1.88,5.7h-2.42l6.16-18.14h2.83l6.19,18.14h-2.5l-1.94-5.7Zm6-1.83-1.77-5.23c-.41-1.18-.68-2.26-1-3.31h0c-.27,1.08-.57,2.18-.92,3.29l-1.77,5.25Z"/><path class="cls-1" d="M893.15,45l1.72,6.63c.37,1.45.72,2.8,1,4.14h.08c.29-1.32.72-2.72,1.16-4.14L899.2,45h2l2,6.52c.49,1.56.86,2.93,1.16,4.25h.08a40.16,40.16,0,0,1,1-4.22L907.31,45h2.34l-4.2,13h-2.16l-2-6.21c-.46-1.46-.83-2.75-1.16-4.29h0a39.1,39.1,0,0,1-1.18,4.31l-2.1,6.19h-2.16l-3.93-13Z"/><path class="cls-1" d="M920.44,55a18.45,18.45,0,0,0,.21,3.12H918.5l-.19-1.64h-.08a4.87,4.87,0,0,1-4,1.94,3.71,3.71,0,0,1-4-3.74c0-3.15,2.8-4.87,7.83-4.85v-.27a2.68,2.68,0,0,0-3-3,6.43,6.43,0,0,0-3.39,1l-.54-1.56a8.1,8.1,0,0,1,4.28-1.16c4,0,5,2.72,5,5.33Zm-2.29-3.53c-2.59-.05-5.52.41-5.52,2.94a2.1,2.1,0,0,0,2.23,2.26A3.24,3.24,0,0,0,918,54.44a2.48,2.48,0,0,0,.14-.75Z"/><path class="cls-1" d="M924.28,45l2.85,7.7c.3.86.62,1.89.84,2.67h0c.24-.78.51-1.78.84-2.72L931.44,45h2.5l-3.55,9.29c-1.7,4.47-2.85,6.4-4.47,7.8A6.48,6.48,0,0,1,923,63.67l-.59-2a6.31,6.31,0,0,0,2.07-1.15,7.26,7.26,0,0,0,2-2.64,1.79,1.79,0,0,0,.18-.57,2,2,0,0,0-.16-.62L921.69,45Z"/><path class="cls-1" d="M797.19,30.34H781.73L772.6,41.11h3.22V52.58l-2.45.32a1.14,1.14,0,0,0-.89,1.47,1.23,1.23,0,0,0,1.19.76l2.15-.27V58l15.3,2.77,12.16-2.74,0-16.93h3.58Zm-3.13,12.82L797.4,43v4.45l-3.38.27Zm-17.14,14V54.78l6.67-.9a1.06,1.06,0,0,0,1-1.28c-.08-1.15-1.29-1-1.29-1l-6.43.75,0-11.28,7-8.81,7.26,8.81V59.77ZM794,53.72V49.15l3.37-.27,0,4.52Zm7.54-.72-2.78.26V48.79l2.78-.2Zm-2.78-5.64V42.93l2.78-.08v4.34Z"/><path class="cls-1" d="M786.84,41.26a4,4,0,0,0-3-1.49h-.19a3.94,3.94,0,0,0-2.91,1.62,5.78,5.78,0,0,0-1.14,3.53c0,.12,0,.23,0,.35a5.92,5.92,0,0,0,1.36,3.55,4,4,0,0,0,3.05,1.5h.18a3.94,3.94,0,0,0,2.92-1.62,5.78,5.78,0,0,0,1.14-3.53c0-.11,0-.23,0-.35A5.93,5.93,0,0,0,786.84,41.26Zm-.45,6.9a3.08,3.08,0,0,1-2.27,1.29H784a3.18,3.18,0,0,1-2.39-1.19,5.15,5.15,0,0,1-1.16-3c0-.1,0-.2,0-.3a5,5,0,0,1,1-3,3.11,3.11,0,0,1,2.28-1.29h.14a3.21,3.21,0,0,1,2.39,1.19,5.07,5.07,0,0,1,1.15,3c0,.1,0,.2,0,.3A4.93,4.93,0,0,1,786.39,48.16Z"/><path class="cls-1" d="M782.4,45.13a3.86,3.86,0,0,1,1.15-3.32c-1.27.09-2.21,1.6-2.12,3.39s1.21,3.21,2.49,3.14v0A3.75,3.75,0,0,1,782.4,45.13Z"/><path class="cls-1" d="M939.32,46.64a1.76,1.76,0,1,1-1.74-1.7A1.72,1.72,0,0,1,939.32,46.64Zm-3.07,0A1.33,1.33,0,0,0,937.58,48a1.37,1.37,0,0,0,0-2.73A1.33,1.33,0,0,0,936.25,46.64Zm1,.89h-.4V45.82a5,5,0,0,1,.66,0,.85.85,0,0,1,.58.14.43.43,0,0,1,.18.36.45.45,0,0,1-.36.41v0c.17,0,.25.18.3.41a1.88,1.88,0,0,0,.13.42H938a1.38,1.38,0,0,1-.13-.42c0-.17-.14-.26-.36-.26h-.18Zm0-1h.18c.22,0,.4-.07.4-.25s-.11-.26-.36-.26l-.22,0Z"/><path class="cls-1" d="M1330.14,123.87a1.4,1.4,0,0,1-1.26-.92l-1.81-4h-9.54l-1.81,4a1.27,1.27,0,0,1-1.23.86,1.21,1.21,0,0,1-1.21-1.21,1.44,1.44,0,0,1,.16-.67l7.32-16a1.6,1.6,0,0,1,1.54-1.06h.11a1.57,1.57,0,0,1,1.52,1.08l7.32,16a1.68,1.68,0,0,1,.15.63A1.26,1.26,0,0,1,1330.14,123.87Zm-11.56-7.32H1326l-3.72-8.27Z"/><path class="cls-1" d="M1334.7,123.87a1.28,1.28,0,0,1-1.29-1.29V111a1.28,1.28,0,1,1,2.55,0v11.58A1.24,1.24,0,0,1,1334.7,123.87Zm0-16.25a1.36,1.36,0,0,1-1.44-1.34V106a1.35,1.35,0,0,1,1.44-1.34,1.36,1.36,0,0,1,1.47,1.34v.33A1.38,1.38,0,0,1,1334.67,107.62Z"/><path class="cls-1" d="M1340.14,123.87a1.28,1.28,0,0,1-1.29-1.29V111a1.28,1.28,0,1,1,2.55,0v1.4a5.51,5.51,0,0,1,4.31-2.74A1.23,1.23,0,0,1,1347,111a1.26,1.26,0,0,1-1.11,1.28c-2.8.34-4.46,2.51-4.46,5.81v4.54A1.26,1.26,0,0,1,1340.14,123.87Z"/><path class="cls-1" d="M1361.68,123.87a1.4,1.4,0,0,1-1.27-.92l-1.8-4h-9.55l-1.8,4a1.3,1.3,0,0,1-1.24.86,1.21,1.21,0,0,1-1.21-1.21,1.44,1.44,0,0,1,.16-.67l7.32-16a1.6,1.6,0,0,1,1.54-1.06h.11a1.56,1.56,0,0,1,1.52,1.08l7.32,16a1.71,1.71,0,0,1,.16.63A1.27,1.27,0,0,1,1361.68,123.87Zm-11.56-7.32h7.43l-3.72-8.27Z"/><path class="cls-1" d="M1369,124a9.46,9.46,0,0,1-5.29-1.73,1.19,1.19,0,0,1-.48-1,1.14,1.14,0,0,1,1.16-1.13,1,1,0,0,1,.66.21,7.18,7.18,0,0,0,4.06,1.36c1.48,0,2.48-.74,2.48-1.83s-1.36-1.64-3.13-2.13c-1.94-.56-4.61-1.31-4.61-4,0-2.46,2-4.15,4.82-4.15a9.65,9.65,0,0,1,4.39,1.17,1.25,1.25,0,0,1,.63,1.07,1.14,1.14,0,0,1-1.15,1.13,1.32,1.32,0,0,1-.57-.13,6.9,6.9,0,0,0-3.35-1c-1.38,0-2.3.66-2.3,1.65s1.54,1.57,3.18,2.07c1.83.55,4.53,1.36,4.53,4.1S1372,124,1369,124Z"/><path class="cls-1" d="M1377.49,123.87a1.27,1.27,0,0,1-1.28-1.29V111a1.28,1.28,0,1,1,2.55,0v11.58A1.25,1.25,0,0,1,1377.49,123.87Zm0-16.25a1.36,1.36,0,0,1-1.44-1.34V106a1.34,1.34,0,0,1,1.44-1.34,1.36,1.36,0,0,1,1.47,1.34v.33A1.39,1.39,0,0,1,1377.47,107.62Z"/><path class="cls-1" d="M1386,124c-2.61,0-5.26-1.52-5.26-4.43s2.3-4.64,6-4.64a14.31,14.31,0,0,1,3.82.48v-.1c0-2.77-2-3.35-3.7-3.35a8,8,0,0,0-3.34.72,1.21,1.21,0,0,1-.47.1,1.15,1.15,0,0,1-.44-2.21,10.68,10.68,0,0,1,4.46-.93,6.14,6.14,0,0,1,4.51,1.56,5.54,5.54,0,0,1,1.44,4.09v7.3a1.22,1.22,0,0,1-1.23,1.26,1.19,1.19,0,0,1-1.23-1.21v-.46A6.14,6.14,0,0,1,1386,124Zm.93-7c-2.26,0-3.61.93-3.61,2.48s1.59,2.43,3.07,2.43c2.38,0,4.18-1.43,4.18-3.33v-1.08A13.77,13.77,0,0,0,1386.94,117Z"/><path class="cls-1" d="M1405.09,124.05c-5.67,0-9.78-4-9.78-9.57a9.59,9.59,0,0,1,9.75-9.66,10.22,10.22,0,0,1,6.32,1.8,2.24,2.24,0,0,1-1.29,4.07,2.22,2.22,0,0,1-1.38-.47,6,6,0,0,0-3.78-1.18,5.44,5.44,0,0,0,.28,10.84,6.15,6.15,0,0,0,3.46-.95v-2.15h-2.4a2,2,0,1,1,0-4h4.54a2.25,2.25,0,0,1,2.27,2.27v4.39a3,3,0,0,1-1.53,2.76A12.16,12.16,0,0,1,1405.09,124.05Z"/><path class="cls-1" d="M1422.35,124.05a7.48,7.48,0,1,1,7.79-7.53A7.5,7.5,0,0,1,1422.35,124.05Zm0-11a3.25,3.25,0,0,0-3.3,3.48,3.39,3.39,0,0,0,3.35,3.59,3.25,3.25,0,0,0,3.31-3.49A3.39,3.39,0,0,0,1422.35,113Z"/><path class="cls-1" d="M83.5,106a1.81,1.81,0,0,1-1.81-1.82,1.84,1.84,0,0,1,1.81-1.84,1.86,1.86,0,0,1,1.85,1.84A1.84,1.84,0,0,1,83.5,106Z"/><path class="cls-1" d="M42.41,116.08a7.94,7.94,0,1,1-7.94-7.94A7.94,7.94,0,0,1,42.41,116.08Z"/><path class="cls-1" d="M9.86,102.64h3.42v7.94h.06a5,5,0,0,1,1.87-1.75,5.52,5.52,0,0,1,2.77-.71,5.8,5.8,0,0,1,4,1.32,5.08,5.08,0,0,1,1.46,4V124H20.05V114.3a4.23,4.23,0,0,0-.78-2.66,2.87,2.87,0,0,0-2.25-.82,3.64,3.64,0,0,0-1.55.32,3.49,3.49,0,0,0-1.17.86,4.11,4.11,0,0,0-.75,1.31,4.66,4.66,0,0,0-.27,1.59V124H9.86Z"/><path class="cls-1" d="M44.78,108.54h2.58V103.9h3.42v4.64h3.08v2.55H50.78v8.27a8.38,8.38,0,0,0,0,.93A1.61,1.61,0,0,0,51,121a1,1,0,0,0,.49.4,2.42,2.42,0,0,0,.9.14l.72,0a3.57,3.57,0,0,0,.72-.1V124l-1.11.12a10,10,0,0,1-1.11.06,7.6,7.6,0,0,1-2.17-.25,2.9,2.9,0,0,1-1.29-.75,2.57,2.57,0,0,1-.63-1.24,9.4,9.4,0,0,1-.19-1.71v-9.14H44.78Z"/><path class="cls-1" d="M56,108.54h3.62l3,11.57h.06l2.9-11.57H69l2.79,11.57h.06L75,108.54h3.48L73.63,124h-3.5l-2.88-11.5h-.06L64.35,124h-3.6Z"/><path class="cls-1" d="M81.81,108.54h3.42V124H81.81Z"/><path class="cls-1" d="M90,108.54H93.2v3h.06a3.45,3.45,0,0,1,.58-1.23,5.68,5.68,0,0,1,1-1.09,5.29,5.29,0,0,1,1.36-.8,4.09,4.09,0,0,1,1.53-.3c.4,0,.67,0,.82,0s.31,0,.47.06v3.3l-.74-.1a6.11,6.11,0,0,0-.73,0,4.07,4.07,0,0,0-1.63.34,3.77,3.77,0,0,0-1.34,1,5.2,5.2,0,0,0-.89,1.67,7.14,7.14,0,0,0-.33,2.27V124H90Z"/><path class="cls-1" d="M103.72,117.25A6,6,0,0,0,104,119a4.28,4.28,0,0,0,.76,1.47,3.67,3.67,0,0,0,1.29,1,4.13,4.13,0,0,0,1.87.38,4,4,0,0,0,2.41-.65,3.81,3.81,0,0,0,1.37-1.93h3.24a6.46,6.46,0,0,1-2.52,3.92,6.89,6.89,0,0,1-2.09,1,8.36,8.36,0,0,1-2.41.34,8.23,8.23,0,0,1-3.25-.6,6.72,6.72,0,0,1-2.39-1.68,7.13,7.13,0,0,1-1.47-2.58,10.5,10.5,0,0,1-.49-3.31,9.3,9.3,0,0,1,.52-3.13,8,8,0,0,1,1.5-2.62,7.13,7.13,0,0,1,5.49-2.45,6.93,6.93,0,0,1,3.28.77,7.24,7.24,0,0,1,2.42,2,8.23,8.23,0,0,1,1.4,2.9,8.89,8.89,0,0,1,.22,3.38Zm8-2.26a5.52,5.52,0,0,0-.35-1.56,4.18,4.18,0,0,0-.78-1.31,3.86,3.86,0,0,0-1.2-.9,3.51,3.51,0,0,0-1.57-.34,4.1,4.1,0,0,0-1.64.31,3.74,3.74,0,0,0-1.26.87,4.33,4.33,0,0,0-.84,1.31,4.56,4.56,0,0,0-.35,1.62Z"/><path class="cls-1" d="M115.49,107.61a1.31,1.31,0,1,1-1.32,1.3A1.31,1.31,0,0,1,115.49,107.61Zm0,2.42a1.11,1.11,0,1,0-1.08-1.12A1.08,1.08,0,0,0,115.49,110Zm-.51-1.88h.59c.36,0,.53.15.53.44a.39.39,0,0,1-.4.42l.44.67h-.26l-.41-.66h-.25v.66H115Zm.24.68h.24c.21,0,.4,0,.4-.25s-.17-.23-.33-.23h-.31Z"/><path class="cls-1" d="M252.73,130.25a3.05,3.05,0,1,1-3-2.87A2.82,2.82,0,0,1,252.73,130.25Z"/><path class="cls-1" d="M244.91,121.07a16,16,0,0,0,1.73-7.46c0-9.11-6.54-15.13-16.06-15.13s-16.06,6-16.06,15.13,6.6,15.3,16.06,15.3h11.49a4.23,4.23,0,0,0,4.57-4.35A4.08,4.08,0,0,0,244.91,121.07Zm-18,2.9h-4.35v-13h4.35ZM225,108.64a2.61,2.61,0,1,1,2.63-2.58A2.59,2.59,0,0,1,225,108.64Zm13.82-1.38a9.55,9.55,0,0,0-1.41-.1c-1.27,0-2,.75-2,2.31v1.46h3.38v3.9h-3.38V124h-4.36v-9.14h-2.5v-3.9h2.5v-1.7c0-3.76,2.26-5.81,5.52-5.81a12.23,12.23,0,0,1,2.22.21Z"/><path class="cls-1" d="M172.66,124l-2.8-8.19L167.09,124h-4.88l-4.79-15.28h5.16l2.4,8.63,3-8.63h3.81l3,8.66,2.43-8.66h5.13L177.55,124Z"/><path class="cls-1" d="M199.32,116.26c0,4.94-3.52,8.25-8.66,8.25S182,121.2,182,116.26s3.56-8.16,8.66-8.16S199.32,111.34,199.32,116.26Zm-4.88,0a3.78,3.78,0,0,0-7.56,0,3.78,3.78,0,1,0,7.56,0Z"/><path class="cls-1" d="M212.14,119.77a16.51,16.51,0,0,1-1.82.11c-1.58,0-2.17-.91-2.17-2.42v-4.19h4V108.7h-4v-5.2H203v5.2h-2.93v4.57H203V118c0,4.19,2.11,6.49,5.92,6.49a15.84,15.84,0,0,0,3.18-.26Z"/><path class="cls-1" d="M414.55,124.43a1.28,1.28,0,0,1-1.27-1.37,1.31,1.31,0,0,1,1.32-1.38,1.28,1.28,0,0,1,1.29,1.38,1.29,1.29,0,0,1-1.32,1.37Z"/><path class="cls-1" d="M424,123.87a6.12,6.12,0,0,1-2.5.5,4.13,4.13,0,0,1-4.33-4.43,4.43,4.43,0,0,1,4.67-4.64,4.85,4.85,0,0,1,2.19.47l-.36,1.2a3.82,3.82,0,0,0-1.83-.41,3,3,0,0,0-3.07,3.29,3,3,0,0,0,3,3.25,4.47,4.47,0,0,0,1.94-.42Z"/><path class="cls-1" d="M428.88,124.39a4.14,4.14,0,0,1-4.17-4.47A4.26,4.26,0,0,1,429,115.3a4.12,4.12,0,0,1,4.19,4.46,4.26,4.26,0,0,1-4.32,4.63Zm.07-1.18c1.51,0,2.64-1.42,2.64-3.4,0-1.47-.74-3.32-2.61-3.32s-2.65,1.72-2.65,3.37c0,1.91,1.07,3.35,2.6,3.35Z"/><path class="cls-1" d="M435.21,117.85c0-.91,0-1.63-.08-2.35h1.39l.07,1.4h.05a3,3,0,0,1,2.75-1.6,2.58,2.58,0,0,1,2.45,1.74h0a3.46,3.46,0,0,1,1-1.13,2.94,2.94,0,0,1,1.9-.61c1.17,0,2.88.76,2.88,3.77v5.12h-1.55v-4.92c0-1.69-.62-2.68-1.88-2.68a2.09,2.09,0,0,0-1.89,1.42,2.9,2.9,0,0,0-.12.79v5.39h-1.55V119c0-1.39-.61-2.38-1.81-2.38a2.19,2.19,0,0,0-2,1.59,2.15,2.15,0,0,0-.13.77v5.24h-1.54Z"/><path class="cls-1" d="M302.65,108.51c-5.33,0-7.75,4.3-7.75,8.19,0,4.8,3,7.81,8.19,7.81a15.14,15.14,0,0,0,5.56-.94l-.63-3.23a13.76,13.76,0,0,1-4.24.62c-2.23,0-4.17-.94-4.33-2.91h9.89a12,12,0,0,0,.15-1.89C309.49,112.36,307.61,108.51,302.65,108.51Zm-3.23,6.27c.13-1.29.94-3.11,2.95-3.11,2.2,0,2.7,2,2.7,3.11Z"/><path class="cls-1" d="M320.25,108.51a5.4,5.4,0,0,0-4.65,2.16h-.06v-8.75h-4.77v17.7c0,1.72-.06,3.57-.13,4.58h4.05l.19-2.14H315a5.08,5.08,0,0,0,4.61,2.48c3.51,0,7-2.76,7-8.28C326.62,111.55,323.92,108.51,320.25,108.51Zm-1.82,12.27a2.91,2.91,0,0,1-2.8-2.26,3.7,3.7,0,0,1-.09-.85v-2.26a4.17,4.17,0,0,1,.09-.88,3,3,0,0,1,2.8-2.35c2.22,0,3.29,1.88,3.29,4.27C321.72,119.21,320.47,120.78,318.43,120.78Z"/><path class="cls-1" d="M335.81,108.51c-4.92,0-8.18,3.17-8.18,8.12s3.45,7.91,7.93,7.91c4.11,0,8.1-2.57,8.1-8.19A7.46,7.46,0,0,0,335.81,108.51Zm-.12,12.61c-2,0-3.14-2-3.14-4.61,0-2.26.85-4.61,3.14-4.61s3,2.32,3,4.61C338.73,119.27,337.54,121.12,335.69,121.12Z"/><path class="cls-1" d="M352.76,108.51c-4.93,0-8.19,3.17-8.19,8.12s3.45,7.91,7.94,7.91c4.11,0,8.09-2.57,8.09-8.19A7.46,7.46,0,0,0,352.76,108.51Zm-.13,12.61c-2,0-3.14-2-3.14-4.61,0-2.26.85-4.61,3.14-4.61s3,2.32,3,4.61C355.67,119.27,354.48,121.12,352.63,121.12Z"/><path id="_Path_" data-name="&lt;Path&gt;" class="cls-1" d="M376.36,108.85h-5.75l-3.1,4.61c-.38.6-.75,1.23-1.1,1.86h-.06v-13.4h-4.77V124.2h4.77v-4.8l1.22-1.51,3.7,6.31h5.87l-6.27-9.14Z"/><path class="cls-1" d="M383.24,108.51c-5.33,0-7.75,4.3-7.75,8.19,0,4.8,3,7.81,8.19,7.81a15.14,15.14,0,0,0,5.56-.94l-.63-3.23a13.81,13.81,0,0,1-4.24.62c-2.23,0-4.17-.94-4.33-2.91h9.89a12,12,0,0,0,.15-1.89C390.08,112.36,388.2,108.51,383.24,108.51ZM380,114.78c.13-1.29.94-3.11,2.95-3.11,2.2,0,2.7,2,2.7,3.11Z"/><path id="_Path_2" data-name="&lt;Path&gt;" class="cls-1" d="M395.81,111.67h-.12l-.16-2.82h-4.11c.06,1.32.13,2.8.13,5.05v10.3h4.77v-7.78a5.85,5.85,0,0,1,.09-1.07,3.07,3.07,0,0,1,3.26-2.42,6.19,6.19,0,0,1,1.29.13v-4.49a5.06,5.06,0,0,0-1-.06A4.52,4.52,0,0,0,395.81,111.67Z"/><path id="_Path_3" data-name="&lt;Path&gt;" class="cls-1" d="M409.1,114.81c-1.88-.65-2.48-1-2.48-1.75s.66-1.26,1.82-1.26a7.63,7.63,0,0,1,3.33.88l.85-3.3a10.31,10.31,0,0,0-4.33-.87c-3.8,0-6.25,2.16-6.25,5,0,1.82,1.19,3.54,4.37,4.61,1.78.6,2.25,1,2.25,1.76s-.59,1.29-2,1.29a9.25,9.25,0,0,1-4.11-1.17l-.85,3.42a10.86,10.86,0,0,0,5,1.07c4.39,0,6.65-2.1,6.65-5C413.24,117.29,412,115.82,409.1,114.81Z"/><path class="cls-1" d="M919.86,123.67l-7.66-23.46h3.27l3.65,11.55c1,3.17,1.88,6,2.51,8.77h.07c.66-2.71,1.64-5.67,2.68-8.73l4-11.59h3.24l-8.38,23.46Z"/><path class="cls-1" d="M934.12,100.53a31,31,0,0,1,5.81-.49c3.24,0,5.33.59,6.79,1.91a5.87,5.87,0,0,1,1.84,4.46,6.16,6.16,0,0,1-4.42,6v.1c1.81.63,2.89,2.3,3.45,4.74a36.76,36.76,0,0,0,1.81,6.44h-3.13a30.54,30.54,0,0,1-1.57-5.61c-.7-3.23-2-4.45-4.7-4.56h-2.85v10.17h-3V100.53Zm3,10.68h3.1c3.23,0,5.29-1.78,5.29-4.46,0-3-2.2-4.35-5.4-4.38a12.39,12.39,0,0,0-3,.28v8.56Z"/><path class="cls-1" d="M952.84,100.53a29.14,29.14,0,0,1,5.53-.49c3,0,5,.52,6.44,1.7a4.92,4.92,0,0,1,2,4.14,5.56,5.56,0,0,1-4,5.15v.07a6,6,0,0,1,4.84,5.88,6.34,6.34,0,0,1-2,4.7c-1.64,1.5-4.28,2.19-8.11,2.19a35.22,35.22,0,0,1-4.7-.28V100.53Zm3,9.6h2.75c3.2,0,5.08-1.67,5.08-3.93,0-2.75-2.09-3.83-5.15-3.83a12.53,12.53,0,0,0-2.68.21v7.55Zm0,11.24a16.69,16.69,0,0,0,2.54.14c3.13,0,6-1.15,6-4.56,0-3.2-2.75-4.52-6.06-4.52h-2.5v8.94Z"/><path class="cls-1" d="M991.74,111.69c0,8.08-4.91,12.36-10.89,12.36-6.19,0-10.54-4.8-10.54-11.9,0-7.45,4.63-12.32,10.89-12.32s10.54,4.91,10.54,11.86Zm-18.2.39c0,5,2.72,9.5,7.48,9.5s7.52-4.42,7.52-9.75c0-4.66-2.43-9.53-7.48-9.53s-7.52,4.63-7.52,9.78Z"/><path class="cls-1" d="M994.63,99.11a2.61,2.61,0,1,1,0,5.22,2.61,2.61,0,1,1,0-5.22Zm0,.52a2.08,2.08,0,0,0,0,4.16,2,2,0,0,0,2-2.08,2,2,0,0,0-2-2.08Zm-.39,3.43h-.6v-2.59a5.78,5.78,0,0,1,1-.09,1.53,1.53,0,0,1,.91.2.74.74,0,0,1,.25.56.66.66,0,0,1-.54.62v0c.26.08.4.28.48.63a1.83,1.83,0,0,0,.19.64h-.65a2.5,2.5,0,0,1-.21-.62c0-.29-.2-.41-.53-.41h-.29v1Zm0-1.46h.28c.33,0,.61-.11.61-.38s-.18-.4-.56-.4a1.83,1.83,0,0,0-.33,0v.75Z"/><path class="cls-1" d="M1038.86,124.05l-6.44-19.73h2.75l3.07,9.72c.85,2.66,1.58,5.06,2.11,7.38h.06c.56-2.29,1.38-4.78,2.25-7.35l3.34-9.75h2.72l-7,19.73Z"/><path class="cls-1" d="M1059.14,120.33a20.66,20.66,0,0,0,.23,3.4H1057l-.2-1.79h-.09a5.28,5.28,0,0,1-4.33,2.11,4,4,0,0,1-4.33-4.07c0-3.42,3-5.3,8.51-5.27v-.29c0-1.17-.32-3.28-3.22-3.28a7.07,7.07,0,0,0-3.68,1l-.59-1.69a8.81,8.81,0,0,1,4.66-1.26c4.33,0,5.38,3,5.38,5.79v5.3Zm-2.49-3.83c-2.81-.06-6,.44-6,3.19a2.28,2.28,0,0,0,2.43,2.46,3.53,3.53,0,0,0,3.43-2.37,3,3,0,0,0,.14-.82V116.5Z"/><path class="cls-1" d="M1072.78,123.2a9.45,9.45,0,0,1-4.07.85c-4.27,0-7-2.93-7-7.26a7.19,7.19,0,0,1,7.61-7.52,8.67,8.67,0,0,1,3.57.73l-.59,2a6,6,0,0,0-3-.67c-3.25,0-5,2.4-5,5.35,0,3.28,2.11,5.3,4.92,5.3a7.35,7.35,0,0,0,3.16-.7l.44,1.93Z"/><path class="cls-1" d="M1085.13,120.33a20.66,20.66,0,0,0,.23,3.4H1083l-.2-1.79h-.09a5.28,5.28,0,0,1-4.33,2.11,4,4,0,0,1-4.34-4.07c0-3.42,3-5.3,8.52-5.27v-.29c0-1.17-.32-3.28-3.22-3.28a7.13,7.13,0,0,0-3.69,1l-.58-1.69a8.8,8.8,0,0,1,4.65-1.26c4.33,0,5.39,3,5.39,5.79v5.3Zm-2.49-3.83c-2.81-.06-6,.44-6,3.19a2.28,2.28,0,0,0,2.43,2.46,3.52,3.52,0,0,0,3.42-2.37,2.69,2.69,0,0,0,.15-.82V116.5Z"/><path class="cls-1" d="M1091.65,106.17v3.39h3.69v2h-3.69v7.64c0,1.76.5,2.75,1.93,2.75a5.09,5.09,0,0,0,1.5-.17l.11,1.93a6.24,6.24,0,0,1-2.28.38,3.6,3.6,0,0,1-2.78-1.11c-.73-.76-1-2-1-3.69v-7.73h-2.2v-2h2.2V107l2.51-.79Z"/><path class="cls-1" d="M1100.49,105.9a1.6,1.6,0,0,1-3.19,0,1.57,1.57,0,0,1,1.61-1.61,1.53,1.53,0,0,1,1.58,1.61Zm-2.87,18.15V109.88h2.58v14.17Z"/><path class="cls-1" d="M1116.68,116.53c0,5.23-3.64,7.52-7.06,7.52-3.83,0-6.79-2.81-6.79-7.29,0-4.74,3.11-7.52,7-7.52s6.82,3,6.82,7.29Zm-11.24.14c0,3.11,1.78,5.45,4.3,5.45s4.3-2.31,4.3-5.51c0-2.4-1.2-5.44-4.24-5.44s-4.36,2.81-4.36,5.5Z"/><path class="cls-1" d="M1119.31,113.72c0-1.47,0-2.67-.12-3.84h2.29l.14,2.34h.06a5.21,5.21,0,0,1,4.68-2.66c2,0,5,1.17,5,6v8.46h-2.58v-8.17c0-2.28-.85-4.18-3.28-4.18a3.66,3.66,0,0,0-3.45,2.63,3.62,3.62,0,0,0-.17,1.2v8.52h-2.58V113.72Z"/><path class="cls-1" d="M1135,104.58a26.71,26.71,0,0,1,4.88-.4c2.72,0,4.48.49,5.71,1.61a4.91,4.91,0,0,1,1.55,3.74,5.19,5.19,0,0,1-3.71,5v.08c1.51.53,2.42,1.94,2.89,4a31,31,0,0,0,1.52,5.41h-2.63a26.83,26.83,0,0,1-1.32-4.71c-.59-2.72-1.64-3.75-4-3.84h-2.4v8.55H1135V104.58Zm2.54,9h2.61c2.72,0,4.45-1.49,4.45-3.74,0-2.55-1.85-3.66-4.54-3.69a10.41,10.41,0,0,0-2.52.23v7.2Z"/><path class="cls-1" d="M1151.62,117.11c.06,3.49,2.28,4.92,4.86,4.92a9.33,9.33,0,0,0,3.92-.73l.44,1.84a11.37,11.37,0,0,1-4.71.91c-4.37,0-7-2.9-7-7.17s2.52-7.64,6.64-7.64c4.63,0,5.85,4.07,5.85,6.67a9.8,9.8,0,0,1-.08,1.2Zm7.55-1.84c0-1.64-.67-4.19-3.57-4.19-2.61,0-3.75,2.4-3.95,4.19Z"/><path class="cls-1" d="M1164.23,113.72c0-1.47,0-2.67-.12-3.84h2.29l.14,2.34h.06a5.23,5.23,0,0,1,4.69-2.66c2,0,5,1.17,5,6v8.46h-2.58v-8.17c0-2.28-.85-4.18-3.27-4.18a3.67,3.67,0,0,0-3.46,2.63,3.62,3.62,0,0,0-.17,1.2v8.52h-2.58V113.72Z"/><path class="cls-1" d="M1182.85,106.17v3.39h3.68v2h-3.68v7.64c0,1.76.49,2.75,1.93,2.75a5.06,5.06,0,0,0,1.49-.17l.12,1.93a6.35,6.35,0,0,1-2.29.38,3.6,3.6,0,0,1-2.78-1.11c-.73-.76-1-2-1-3.69v-7.73h-2.2v-2h2.2V107l2.52-.79Z"/><path class="cls-1" d="M1198.76,120.33a19.55,19.55,0,0,0,.24,3.4h-2.34l-.21-1.79h-.08a5.31,5.31,0,0,1-4.34,2.11,4,4,0,0,1-4.33-4.07c0-3.42,3-5.3,8.52-5.27v-.29c0-1.17-.32-3.28-3.22-3.28a7.1,7.1,0,0,0-3.69,1l-.58-1.69a8.77,8.77,0,0,1,4.65-1.26c4.33,0,5.38,3,5.38,5.79v5.3Zm-2.48-3.83c-2.81-.06-6,.44-6,3.19a2.28,2.28,0,0,0,2.43,2.46,3.52,3.52,0,0,0,3.42-2.37,2.69,2.69,0,0,0,.15-.82V116.5Z"/><polygon class="cls-1" points="1202.31 103.27 1204.88 103.27 1204.88 124.05 1202.31 124.05 1202.31 103.27 1202.31 103.27"/><path class="cls-1" d="M1208.25,121.09a6.7,6.7,0,0,0,3.39,1c1.87,0,2.75-.94,2.75-2.11s-.73-1.9-2.63-2.61c-2.55-.9-3.75-2.31-3.75-4,0-2.28,1.85-4.15,4.89-4.15a7.05,7.05,0,0,1,3.48.88l-.64,1.87a5.54,5.54,0,0,0-2.9-.82c-1.52,0-2.37.88-2.37,1.93s.85,1.7,2.69,2.4c2.46.94,3.72,2.17,3.72,4.28,0,2.48-1.93,4.27-5.3,4.27a8,8,0,0,1-4-1l.65-2Z"/><path class="cls-1" d="M1220.33,124.05a1.85,1.85,0,1,1,1.79-1.85,1.72,1.72,0,0,1-1.79,1.85Z"/><path class="cls-1" d="M1234.79,123.2a9.42,9.42,0,0,1-4.07.85c-4.27,0-7-2.93-7-7.26a7.19,7.19,0,0,1,7.61-7.52,8.67,8.67,0,0,1,3.57.73l-.59,2a6,6,0,0,0-3-.67c-3.25,0-5,2.4-5,5.35,0,3.28,2.11,5.3,4.92,5.3a7.31,7.31,0,0,0,3.16-.7l.44,1.93Z"/><path class="cls-1" d="M1249.83,116.53c0,5.23-3.63,7.52-7,7.52-3.83,0-6.79-2.81-6.79-7.29,0-4.74,3.1-7.52,7-7.52s6.82,3,6.82,7.29Zm-11.24.14c0,3.11,1.79,5.45,4.31,5.45s4.3-2.31,4.3-5.51c0-2.4-1.2-5.44-4.25-5.44s-4.36,2.81-4.36,5.5Z"/><path class="cls-1" d="M1252.47,113.72c0-1.47,0-2.67-.12-3.84h2.25l.12,2.29h.09a4.87,4.87,0,0,1,4.44-2.61,4.17,4.17,0,0,1,4,2.84h.06a5.91,5.91,0,0,1,1.58-1.84,4.82,4.82,0,0,1,3.14-1c1.87,0,4.65,1.23,4.65,6.15v8.34h-2.52v-8c0-2.72-1-4.36-3.07-4.36a3.32,3.32,0,0,0-3,2.34,4.15,4.15,0,0,0-.21,1.29v8.75h-2.52v-8.49c0-2.25-1-3.89-2.95-3.89a3.52,3.52,0,0,0-3.19,2.57,3.47,3.47,0,0,0-.21,1.26v8.55h-2.51V113.72Z"/><polygon class="cls-1" points="1277.38 120.75 1277.38 121.13 1276.27 121.13 1276.27 124.05 1275.83 124.05 1275.83 121.13 1274.72 121.13 1274.72 120.75 1277.38 120.75 1277.38 120.75"/><path class="cls-1" d="M1281.35,124.05l-.16-2.24c0-.19,0-.44,0-.71h0c-.08.2-.18.54-.26.79l-.77,2.11h-.5l-.77-2.17c-.06-.21-.18-.52-.24-.73h0c0,.22,0,.45,0,.71l-.16,2.24H1278l.26-3.3h.65l.77,2.11c.1.24.16.47.23.69h0c.08-.23.16-.5.21-.66l.78-2.14h.65l.29,3.3Z"/><path class="cls-1" d="M529.52,116l2.84.18a9.76,9.76,0,0,1-9.5,7.35c-5.82,0-8.05-4.21-7-9.72s4.67-10.22,10.77-10.22c4.94,0,7.19,2.94,6.65,7.77l-5.59.28c.37-1.64.15-3.7-1.85-3.7-2.63,0-3.52,4-3.89,5.87s-.9,5.26,1.78,5.26c1.83,0,2.86-1.62,3.25-3.23l2.52.16Z"/><path class="cls-1" d="M541.13,123.2l1.74-9c.18-1,.15-1.79-1-1.79a2,2,0,0,0-1.46.71,2.36,2.36,0,0,0-.59,1.38l-1.68,8.67h-5.59l3.76-19.37h5.6l-1.29,6.64a6.13,6.13,0,0,1,4.44-2c1.42,0,2.84.4,3.4,1.59s.31,2.62,0,4.09l-1.76,9Z"/><path class="cls-1" d="M564.34,118.38a8.88,8.88,0,0,1-8.39,5.11,7.17,7.17,0,0,1-5.45-1.9,6.14,6.14,0,0,1-1.32-5.42,10.09,10.09,0,0,1,3.18-5.45,9.67,9.67,0,0,1,6.17-2.23c4.8,0,7.13,3.11,6.21,7.84l-.15.77h-9.65c-.39,1.56-.05,2.69,1.65,2.69a2.42,2.42,0,0,0,2.54-1.76l5.21.35Zm-4.85-4.1c.28-1.41,0-2.48-1.55-2.48a2.59,2.59,0,0,0-2.49,2.48Z"/><path class="cls-1" d="M574.26,123.2a9.81,9.81,0,0,1,.19-2,6.47,6.47,0,0,1-5.16,2.29c-2.69,0-4.74-1.47-4.18-4.35.44-2.29,2.52-3.81,4.64-4.43a26.13,26.13,0,0,1,5.86-.91l0-.11c.25-1.3,0-1.81-1.35-1.81a2.37,2.37,0,0,0-2.51,1.61l-5-.48c1.55-3.59,5.14-4.52,8.39-4.52,1.7,0,3.83.23,5,1.25,1.64,1.32,1.05,3.18.65,5.25l-1,5.05a7.89,7.89,0,0,0-.16,3.16Zm.83-6.75c-1.39.15-3.73.57-4.06,2.32-.19.93.33,1.32,1.21,1.32,2.11,0,2.49-1.77,2.8-3.35l.05-.29Z"/><path class="cls-1" d="M589.34,108.77l-.4,2.07H589a4.73,4.73,0,0,1,4.55-2.35c4.06,0,4.65,4,4,7.34a12.46,12.46,0,0,1-2,4.86,6.19,6.19,0,0,1-5,2.8,3.48,3.48,0,0,1-3.37-1.84l-1.18,6.1h-5.6l3.69-19Zm-1.29,8.81c-.2,1-.29,2.35,1.07,2.35a1.87,1.87,0,0,0,1.75-1.19,10.89,10.89,0,0,0,.79-2.63c.24-1.18.82-4-1-4a2,2,0,0,0-1.36.59,2.45,2.45,0,0,0-.62,1.47l-.67,3.44Z"/><path class="cls-1" d="M631.37,117.72a8,8,0,0,1-7.94,5.7,5.81,5.81,0,0,1-4.92-2,6.48,6.48,0,0,1-1.08-5.48,9.07,9.07,0,0,1,8.89-7.54c3.56,0,6,2.09,5.69,5.7l-5,.42v-.13c0-1,0-2.12-1.26-2.12-1.77,0-2.23,2.34-2.48,3.61s-.66,3.56,1.18,3.56c1.21,0,1.87-1.11,2.22-2.15l4.72.4Z"/><polygon class="cls-1" points="604.7 123.14 599.05 123.14 601.9 108.43 597.85 108.43 598.74 103.77 612.44 103.77 611.54 108.43 607.56 108.43 604.7 123.14 604.7 123.14"/><polygon class="cls-1" points="614.8 123.14 609.22 123.14 612.02 108.71 617.61 108.71 614.8 123.14 614.8 123.14"/><polygon class="cls-1" points="643.95 113.68 646.97 123.14 641.13 123.14 639.54 117.35 637.78 119.16 637 123.14 631.42 123.14 635.17 103.77 640.77 103.77 638.74 114.22 640.27 112.61 644.41 108.71 649.27 108.71 643.95 113.68 643.95 113.68"/><path class="cls-1" d="M662.34,118.31a8.88,8.88,0,0,1-8.4,5.11,7.2,7.2,0,0,1-5.45-1.89,6.13,6.13,0,0,1-1.31-5.43,10,10,0,0,1,3.17-5.44,9.61,9.61,0,0,1,6.17-2.23c4.8,0,7.14,3.11,6.21,7.84l-.15.77h-9.65c-.39,1.55,0,2.68,1.65,2.68a2.42,2.42,0,0,0,2.54-1.75l5.22.34Zm-4.85-4.09c.26-1.41,0-2.49-1.55-2.49a2.59,2.59,0,0,0-2.49,2.49Z"/><path class="cls-1" d="M663.48,112.38l.72-3.67h2.34l1.32-4.6,4.89-.17-.93,4.77h2.87l-.71,3.67h-2.82l-1,5c-.2,1.05-.47,1.86.85,1.86a7,7,0,0,0,1.66-.25l-.79,4-3.38.42a3.82,3.82,0,0,1-3.75-1.47c-.87-1.19-.57-2.57-.27-4.12l1.06-5.45Z"/><path class="cls-1" d="M678,118.45c0,1.38,1.57,1.55,2.78,1.55.57,0,2.16,0,2.32-.9s-1.74-.88-2.25-.93c-2.93-.43-6.4-1-5.66-4.86a5.65,5.65,0,0,1,3-3.78,9.65,9.65,0,0,1,4.84-1.1c2.72,0,5.36,1,5.8,3.75l-4.43.82c-.23-1-1.27-1.27-2.26-1.27-.45,0-1.84.14-2,.76-.1.46.34.66.7.74a21.26,21.26,0,0,0,2.36.34,8.6,8.6,0,0,1,3.71,1.07,3.44,3.44,0,0,1,1.33,3.67c-.78,4-5.21,5.11-8.45,5.11s-6-1-6.41-4.37l4.6-.6Z"/><path class="cls-1" d="M515.79,98.84c-2.75-.47-19.74-3.52-20.68-3.7a4.71,4.71,0,0,0-5,2.45c-1.45,2.66-4,7.27-4.24,7.84a1.36,1.36,0,0,0,.55,2c3.06,1.62,15.34,8,19.09,9.86a4.74,4.74,0,0,0,5.87-2.38c1.27-2.4,6.13-12.06,6.42-12.58C518.42,101.16,518.54,99.3,515.79,98.84ZM504.84,113.4l-16.73-7.31L493,96.91l17.49,3.86Zm7.07-5c-1.44.31-2.68-.23-2.75-1.2s1.07-2,2.52-2.31,2.68.23,2.75,1.2S513.37,108.12,511.91,108.43Z"/><path class="cls-1" d="M525.85,112.66c-.56-2.89-4.68-5.93-9.18-6.81-3.25-.63-5.81,0-6.79,1.53a8.88,8.88,0,0,1,4.63-.28c4.37.74,8.37,3.72,8.92,6.66a2.93,2.93,0,0,1-.66,2.59c2.19-.45,3.45-1.8,3.08-3.69Z"/><path class="cls-1" d="M494.5,99.8c1.35,0,8,.64,10.24,3.3-2.53-.58-7.05-2.4-10.24-3.3"/><path class="cls-1" d="M500.08,104.52c-1.84-.72-4.35-1.58-7.49-2.59,2.08,0,10.86,1.93,12.71,4.21-1.08,0-3.38-.9-5.22-1.62"/><path class="cls-1" d="M494,105c1.05,0,7.25.85,9.13,2.89-1.51-.24-4.86-1.66-9.13-2.89"/><path class="cls-1" d="M691.94,105.68a1.67,1.67,0,0,1,1.66,1.66,1.67,1.67,0,0,1-1.66,1.67,1.67,1.67,0,0,1-1.18-2.85,1.61,1.61,0,0,1,1.18-.48Zm0,3a1.31,1.31,0,0,0,1-.4,1.37,1.37,0,0,0-1-2.33,1.37,1.37,0,0,0-1.36,1.37,1.29,1.29,0,0,0,.4,1,1.28,1.28,0,0,0,1,.4Zm.85-.47h-.4l-.47-.71h-.21v.71h-.35v-1.8h.56a.77.77,0,0,1,.47.14.48.48,0,0,1,.18.39.48.48,0,0,1-.34.47l.56.8Zm-1.08-1h.18c.23,0,.34-.09.34-.26s-.11-.25-.32-.25h-.2v.51Z"/><path class="cls-1" d="M347.76,41.11a.26.26,0,0,1-.26-.26V39.1H347a.22.22,0,0,1-.22-.22.22.22,0,0,1,.22-.23h1.52a.22.22,0,0,1,.22.23.22.22,0,0,1-.22.22H348v1.75a.26.26,0,0,1-.26.26Zm3.74,0a.26.26,0,0,1-.25-.26V39.33L350.6,41a.16.16,0,0,1-.14.09.17.17,0,0,1-.14-.09l-.65-1.69v1.52a.26.26,0,0,1-.25.26.26.26,0,0,1-.26-.26V39a.42.42,0,0,1,.42-.42.41.41,0,0,1,.39.27l.49,1.28.49-1.28a.42.42,0,0,1,.39-.27.42.42,0,0,1,.42.42v1.81a.26.26,0,0,1-.26.26Z"/><path class="cls-1" d="M214.63,37.88a4.15,4.15,0,0,1,.73-2.36,3.33,3.33,0,0,0-2.4,3.19v2.68l1.67.08V37.88Z"/><path class="cls-1" d="M213,56.27a3.34,3.34,0,0,0,2.4,3.2,4.2,4.2,0,0,1-.73-2.36v-5H213v4.18Z"/><path class="cls-1" d="M217.14,52.09h-1.67v5a3.32,3.32,0,0,0,2.4,3.19,4.15,4.15,0,0,1-.73-2.36V52.09Z"/><path class="cls-1" d="M217.14,37a4.15,4.15,0,0,1,.73-2.36,3.33,3.33,0,0,0-2.4,3.2v3.63l1.67.09V37Z"/><path class="cls-1" d="M198.29,36a4.16,4.16,0,0,0-2.06,3.58V55.44A4.17,4.17,0,0,0,198.29,59a4.9,4.9,0,0,1-.38-1.91V37.88a4.86,4.86,0,0,1,.38-1.91Z"/><path class="cls-1" d="M200.41,36.2a5,5,0,0,1,.38-1.9,4.17,4.17,0,0,0-2,3.58V57.11A4.19,4.19,0,0,0,201.47,61a5,5,0,0,1-1.06-3.08V36.2Z"/><path class="cls-1" d="M221.32,33.7A3.33,3.33,0,0,0,218,37v5.43l-8.37-.41V36.2a4.18,4.18,0,0,0-8.36,0V57.94a4.18,4.18,0,0,0,8.36,0V51.25H218v6.69a3.34,3.34,0,1,0,6.68,0V37a3.33,3.33,0,0,0-3.34-3.34Z"/><path class="cls-1" d="M250.19,54.06V47.87h-9v6.19a1.22,1.22,0,0,1-1.2,1.22,1.24,1.24,0,0,1-1.25-1.22V39.94a1.23,1.23,0,1,1,2.45,0v5.75h9V39.94a1.23,1.23,0,1,1,2.45,0V54.06a1.23,1.23,0,0,1-2.45,0Z"/><path class="cls-1" d="M254.37,49.24a6,6,0,1,1,11.94,0c0,3.42-2.28,6.21-6,6.21a5.87,5.87,0,0,1-6-6.21Zm9.64,0c0-2.23-1.3-4.24-3.67-4.24s-3.67,2-3.67,4.24,1.32,4.26,3.67,4.26,3.67-2,3.67-4.26Z"/><path class="cls-1" d="M279.12,43a5.67,5.67,0,0,1,5.75,5.88c0,.66-.47,1-1.3,1h-8.05a3.87,3.87,0,0,0,4,3.67,5.09,5.09,0,0,0,2.94-1,.75.75,0,0,1,.49-.12.87.87,0,0,1,.88.88.86.86,0,0,1-.39.73,6.85,6.85,0,0,1-4.14,1.27,5.91,5.91,0,0,1-6.12-6.21,6,6,0,0,1,5.93-6.2Zm-3.63,5.34h7.22a3.48,3.48,0,0,0-3.59-3.52,3.62,3.62,0,0,0-3.63,3.52Z"/><path class="cls-1" d="M286.27,54.18V39.81a1.1,1.1,0,0,1,1.1-1.1,1.11,1.11,0,0,1,1.1,1.1V54.18a1.11,1.11,0,0,1-1.1,1.1,1.1,1.1,0,0,1-1.1-1.1Z"/><path class="cls-1" d="M289.89,53.35a1,1,0,0,1,.95-1,1,1,0,0,1,.54.18,5.74,5.74,0,0,0,3.33,1.12c1.67,0,2.55-.68,2.55-1.69,0-1.17-1.35-1.56-2.87-1.91-2-.46-4.35-1-4.35-3.55,0-1.88,1.61-3.5,4.5-3.5a6.47,6.47,0,0,1,3.94,1.23.89.89,0,1,1-1,1.47,4.87,4.87,0,0,0-2.91-.91c-1.5,0-2.43.59-2.43,1.54s1.27,1.37,2.74,1.72c2.06.46,4.51,1,4.51,3.74,0,2-1.67,3.62-4.78,3.62a7,7,0,0,1-4.3-1.32,1,1,0,0,1-.42-.78Z"/><path class="cls-1" d="M302.28,52.37a1.55,1.55,0,0,1,1.54,1.52,1.57,1.57,0,0,1-1.54,1.54,1.54,1.54,0,0,1-1.52-1.54,1.53,1.53,0,0,1,1.52-1.52Z"/><path class="cls-1" d="M315.25,49.24a6,6,0,1,1,11.95,0c0,3.42-2.28,6.21-6,6.21a5.88,5.88,0,0,1-6-6.21Zm9.65,0c0-2.23-1.3-4.24-3.67-4.24s-3.67,2-3.67,4.24,1.32,4.26,3.67,4.26,3.67-2,3.67-4.26Z"/><path class="cls-1" d="M345.43,46.62v7.56a1.12,1.12,0,0,1-1.13,1.1,1.09,1.09,0,0,1-1.08-1.1v-6.9c0-1.37-.61-2-2.05-2-1.2,0-2.38,1.35-2.94,2.2v6.73a1.1,1.1,0,0,1-1.1,1.1,1.11,1.11,0,0,1-1.1-1.1v-6.9c0-1.37-.59-2-2.08-2-1.16,0-2.3,1.43-2.89,2.28v6.65a1.12,1.12,0,0,1-1.1,1.1,1.1,1.1,0,0,1-1.11-1.1V44.32a1.09,1.09,0,0,1,1.08-1.1,1.12,1.12,0,0,1,1.13,1.1V45a5.12,5.12,0,0,1,3.81-2,3.06,3.06,0,0,1,3.21,2.21,5,5,0,0,1,4-2.21c2.18,0,3.33,1.2,3.33,3.58Z"/><path class="cls-1" d="M310.42,43a5.29,5.29,0,0,1,3.77,1.37,1,1,0,0,1,.34.74,1,1,0,0,1-1,1,1,1,0,0,1-.66-.24,3.26,3.26,0,0,0-2.37-.91c-2.33,0-3.82,1.79-3.82,4.24a3.92,3.92,0,0,0,3.82,4.26c1.57,0,3.15-1.09,4.42-3.09.16-.25.39-.72.58-1,.36-.45.61-.24.82,0a1.88,1.88,0,0,1,.14,1.84,9.74,9.74,0,0,1-2,2.62,5.79,5.79,0,0,1-4.06,1.55,5.9,5.9,0,0,1-6-6.21,5.89,5.89,0,0,1,6-6.2Z"/><path class="cls-1" d="M274.77,53.35c0,.41-1.2,1.35-2,1.76a3.59,3.59,0,0,1-1.69.34,2.57,2.57,0,0,1-2.82-2.91V45.27h-1.12a1,1,0,1,1,0-1.93h1.12V41.09a1.1,1.1,0,0,1,1.1-1.11,1.12,1.12,0,0,1,1.11,1.11v2.25H272a1,1,0,1,1,0,1.93h-1.54v6.78c0,.83.39,1.45,1.15,1.45,1.34,0,2.4-2.1,3-2.1s.2,1.41.2,2Z"/><path class="cls-1" d="M427.17,40.2A19.46,19.46,0,0,0,419.1,32c6.69,4.76,8.19,13.8,4.24,19.16L426,53.93,411.7,56.61l3-14.46,2.68,2.78c5.31-6.68,2.64-12.23-2.76-14.71a19.42,19.42,0,0,0-13.93,1.64,19.77,19.77,0,0,0,.94,35.42c-7.53-4.55-9.38-14.2-5.23-19.83l-2.68-2.78L408,42l-3,14.46-2.67-2.79c-5.53,7-2.43,12.67,3.4,15a19.42,19.42,0,0,0,13.12-1.83,19.78,19.78,0,0,0,8.29-26.62"/><path class="cls-1" d="M457.86,40a2.33,2.33,0,0,0-2,1.07h0v-.28a.58.58,0,0,0-.56-.58h-1.57a.19.19,0,0,0-.18.18v9.15a.58.58,0,0,0,.57.58h1.67a.19.19,0,0,0,.18-.19v-3.1h0a2.44,2.44,0,0,0,2.1,1c2.09,0,3.12-1.83,3.12-3.76,0-2.09-1-4.09-3.3-4.09m-.57,6c-1.09,0-1.46-.84-1.46-2.15,0-1.53.82-2,1.47-2,1.07,0,1.44,1,1.44,2s-.37,2.15-1.45,2.15"/><path class="cls-1" d="M466.55,53.67a.23.23,0,0,1,.24.17l1,4.62h0L469,53.94a.4.4,0,0,1,.36-.27h1.94a.16.16,0,0,1,.16.23l-2.15,6.93a.43.43,0,0,1-.37.27h-2a.24.24,0,0,1-.23-.17l-1.13-4.77h0l-1.11,4.77a.24.24,0,0,1-.23.17h-2a.42.42,0,0,1-.36-.27l-2.15-6.93a.16.16,0,0,1,.16-.23h1.92a.4.4,0,0,1,.36.27l1.17,4.54h0l1-4.64a.23.23,0,0,1,.23-.17Z"/><path class="cls-1" d="M475.16,53.46a3.93,3.93,0,1,1-3.89,3.93,3.79,3.79,0,0,1,3.89-3.93m0,6c1.12,0,1.47-1.12,1.47-2.06s-.35-2.07-1.47-2.07-1.47,1.13-1.47,2.07.34,2.06,1.47,2.06"/><path class="cls-1" d="M438.2,47.58a1.3,1.3,0,0,1-1.3-1.3V38.71a1.31,1.31,0,0,1,1.3-1.31h6.66s.11,0,.11.1a4.21,4.21,0,0,1-.56,2c0,.06-.13.07-.13.07h-4.75v1.78h4.34a.18.18,0,0,1,.18.18v1.69a.18.18,0,0,1-.18.18h-4.34V45.3h5.33a.11.11,0,0,1,.11.17l-.72,2a.27.27,0,0,1-.24.16Z"/><path class="cls-1" d="M498.46,37.4h.9a.3.3,0,0,1,.25.17l3.66,9.85a.11.11,0,0,1-.12.16h-2.39a.26.26,0,0,1-.24-.17L500,45.76h-3.54l-.57,1.65a.28.28,0,0,1-.24.17h-2.35a.11.11,0,0,1-.12-.16l3.06-8.21c.48-1.33.86-1.81,2.26-1.81M497,43.79h2.3l-1.12-3.56h0L497,43.79Z"/><path class="cls-1" d="M436.9,52.22a1.31,1.31,0,0,1,1.3-1.31h1.23a.34.34,0,0,1,.27.16l3.45,6.17V51.09a.18.18,0,0,1,.18-.18h2.12a.19.19,0,0,1,.19.18v8.7a1.3,1.3,0,0,1-1.3,1.3h-1.23a.36.36,0,0,1-.27-.15l-3.46-6.22v6.19a.18.18,0,0,1-.18.18h-2.12a.18.18,0,0,1-.18-.18V52.22Z"/><path class="cls-1" d="M527,42.45h-1.91a.19.19,0,0,1-.2-.22A2.31,2.31,0,0,1,526,40.46a4.89,4.89,0,0,1,2.35-.51c1.75,0,3.44.38,3.44,2.49v3.24a5.33,5.33,0,0,0,.18,1.64c0,.16,0,.27-.21.27h-1.91a.26.26,0,0,1-.26-.18,4.18,4.18,0,0,1-.09-.53,3.31,3.31,0,0,1-2.43.92,2.22,2.22,0,0,1-2.52-2.25c0-2.41,2.62-2.23,4.3-2.57.41-.09.64-.23.64-.69s-.67-.77-1.17-.77a1.08,1.08,0,0,0-1.18.81.15.15,0,0,1-.16.12m1,3.85c1.15,0,1.54-.66,1.48-2.19a6.92,6.92,0,0,1-1.49.4c-.54.13-1,.36-1,.94s.47.85,1,.85"/><path class="cls-1" d="M523.7,40.16V47.4a.18.18,0,0,1-.18.18h-1.67a.57.57,0,0,1-.56-.57V40.16Zm0-.93V38a.57.57,0,0,0-.57-.58h-1.66a.18.18,0,0,0-.18.18v1.68Z"/><path class="cls-1" d="M516.42,40.16V47.4a.18.18,0,0,1-.18.18h-1.67A.57.57,0,0,1,514,47V40.16Zm0-.93V38a.57.57,0,0,0-.57-.58h-1.66a.18.18,0,0,0-.18.18v1.68Z"/><path class="cls-1" d="M520.06,38a.57.57,0,0,0-.57-.58h-1.66a.18.18,0,0,0-.18.18V47a.57.57,0,0,0,.56.57h1.67a.18.18,0,0,0,.18-.18V38Z"/><path class="cls-1" d="M543.6,45.34h1.89c.16,0,.22.09.19.22a3.55,3.55,0,0,1-3.61,2.24,3.73,3.73,0,0,1-4-3.95,3.89,3.89,0,0,1,4-3.9c2.55,0,3.87,1.86,3.86,4.26a.28.28,0,0,1-.31.26h-5.12a1.59,1.59,0,0,0,1.65,1.69,1.48,1.48,0,0,0,1.34-.73.16.16,0,0,1,.16-.09m-.15-2.23A1.5,1.5,0,0,0,542,41.59a1.6,1.6,0,0,0-1.57,1.52Z"/><path class="cls-1" d="M467.24,45.34h1.89c.16,0,.22.09.19.22a3.55,3.55,0,0,1-3.61,2.24,3.73,3.73,0,0,1-4-3.95,3.89,3.89,0,0,1,4-3.9c2.55,0,3.87,1.86,3.86,4.26a.29.29,0,0,1-.31.26h-5.12a1.59,1.59,0,0,0,1.65,1.69,1.49,1.49,0,0,0,1.34-.73.15.15,0,0,1,.16-.09m-.15-2.23a1.5,1.5,0,0,0-1.43-1.52,1.6,1.6,0,0,0-1.57,1.52Z"/><path class="cls-1" d="M484.64,42.45h-1.91a.19.19,0,0,1-.2-.22,2.34,2.34,0,0,1,1.13-1.77A4.89,4.89,0,0,1,486,40c1.75,0,3.45.38,3.45,2.49v3.24a5.33,5.33,0,0,0,.17,1.64c.05.16,0,.27-.21.27h-1.9a.27.27,0,0,1-.27-.18c0-.17-.06-.34-.09-.53a3.31,3.31,0,0,1-2.43.92,2.22,2.22,0,0,1-2.52-2.25c0-2.41,2.62-2.23,4.3-2.57.41-.09.64-.23.64-.69s-.67-.77-1.17-.77a1.08,1.08,0,0,0-1.18.81.15.15,0,0,1-.16.12m1,3.85c1.15,0,1.54-.66,1.48-2.19a6.92,6.92,0,0,1-1.49.4c-.54.13-1,.36-1,.94s.47.85,1,.85"/><path class="cls-1" d="M481.33,40.16V47.4a.19.19,0,0,1-.19.18h-1.67a.57.57,0,0,1-.56-.57V40.16Zm0-.93V38a.58.58,0,0,0-.58-.58h-1.66a.18.18,0,0,0-.18.18v1.68Z"/><path class="cls-1" d="M477.17,37.37h-1.66a.18.18,0,0,0-.18.18V41h0a2.48,2.48,0,0,0-2.11-1c-2.09,0-3.11,1.83-3.11,3.76,0,2.09,1,4.09,3.3,4.09a2.35,2.35,0,0,0,2-1.07h0V47a.57.57,0,0,0,.56.57h1.56a.19.19,0,0,0,.19-.18V38a.58.58,0,0,0-.58-.58M474,45.94c-1.11,0-1.48-1.13-1.48-2.15s.37-2,1.48-2,1.43,1,1.43,2.06-.25,2.07-1.43,2.07"/><path class="cls-1" d="M451.83,58.85h1.89c.16,0,.23.09.19.22a3.54,3.54,0,0,1-3.6,2.24,3.73,3.73,0,0,1-4.05-4,3.89,3.89,0,0,1,4-3.9c2.55,0,3.87,1.86,3.86,4.26a.28.28,0,0,1-.3.26h-5.13a1.59,1.59,0,0,0,1.65,1.69,1.48,1.48,0,0,0,1.34-.73.16.16,0,0,1,.16-.09m-.15-2.23a1.5,1.5,0,0,0-1.43-1.52,1.6,1.6,0,0,0-1.57,1.52Z"/><path class="cls-1" d="M484.77,53.57a2.67,2.67,0,0,0-.48,0A2.22,2.22,0,0,0,482.07,55h0V53.85a.18.18,0,0,0-.18-.18h-2a.18.18,0,0,0-.18.18v6.67a.57.57,0,0,0,.56.57h1.68a.18.18,0,0,0,.18-.18V57.42a1.71,1.71,0,0,1,1.82-1.76,2.81,2.81,0,0,1,.82.12c.06,0,.1,0,.1-.08v-2a.09.09,0,0,0-.08-.09"/><path class="cls-1" d="M493.25,60.93l-2.93-4.46,2.55-2.63c.07-.09,0-.17-.06-.17h-2.38a.49.49,0,0,0-.36.17L488,56.16v-4.7a.57.57,0,0,0-.57-.58h-1.66a.18.18,0,0,0-.18.18v9.46a.57.57,0,0,0,.56.57h1.67a.18.18,0,0,0,.18-.18V58.72l.63-.62,1.71,2.83a.37.37,0,0,0,.36.16h2.47c.13,0,.12-.09.07-.16"/><path class="cls-1" d="M513,37.41c-.32,0-.64,0-1,0-2.06,0-2.8.66-2.8,2.79h-2.6v-.33c0-.67.35-.74.9-.74l.54,0c.09,0,.11,0,.11-.11V37.6a.18.18,0,0,0-.2-.19c-.32,0-.65,0-1,0-2.06,0-2.8.66-2.8,2.79h-1a.18.18,0,0,0-.18.18v1.21a.19.19,0,0,0,.18.19h1V47a.57.57,0,0,0,.56.57h1.69a.18.18,0,0,0,.17-.18V41.74h2.59V47a.57.57,0,0,0,.56.57h1.69a.18.18,0,0,0,.17-.18V41.74h1.27a.19.19,0,0,0,.18-.19V40.34a.18.18,0,0,0-.18-.18H511.6v-.33c0-.67.34-.74.9-.74l.54,0a.1.1,0,0,0,.12-.11V37.6a.19.19,0,0,0-.21-.19"/><path class="cls-1" d="M459.29,59.31c.09,0,.12,0,.12.11v1.51a.18.18,0,0,1-.21.19c-.13,0-.76.05-1.12.05-2.06,0-2.58-.61-2.58-2.62v-3.3h-1a.19.19,0,0,1-.19-.19V53.85a.18.18,0,0,1,.19-.18h1V52a.57.57,0,0,1,.55-.57h1.68a.18.18,0,0,1,.18.18v2.06h1.32a.18.18,0,0,1,.18.18v1.21a.19.19,0,0,1-.18.19h-1.32v3.37c0,.59.35.71.87.71l.51,0"/><path class="cls-1" d="M537.4,45.8c.1,0,.12,0,.12.11v1.51a.18.18,0,0,1-.2.19c-.14,0-.77,0-1.12,0-2.06,0-2.59-.6-2.59-2.62v-3.3h-1a.19.19,0,0,1-.19-.19V40.34a.19.19,0,0,1,.19-.18h1V38.49a.57.57,0,0,1,.56-.57h1.68a.18.18,0,0,1,.17.18v2.06h1.31a.18.18,0,0,1,.18.18v1.21a.18.18,0,0,1-.18.19H536v3.37c0,.59.34.72.86.72.2,0,.51,0,.51,0"/><path class="cls-1" d="M445.53,40.16c-.1,0-.13.08,0,.17l2.24,3.36-2.46,3.74c-.05.07,0,.15.1.15h2.2a.38.38,0,0,0,.36-.16l1.12-2,1.18,2a.35.35,0,0,0,.35.16h2.22c.09,0,.15-.08.1-.15l-2.51-3.78,2.19-3.32c.08-.09,0-.17-.06-.17h-2.13a.39.39,0,0,0-.36.17l-.94,1.61-.94-1.61a.36.36,0,0,0-.35-.17Z"/><path class="cls-1" d="M489.1,38.51a1.18,1.18,0,1,1,1.17,1.14,1.13,1.13,0,0,1-1.17-1.14m2,0a.8.8,0,1,0-.8.85.81.81,0,0,0,.8-.85m-1,.62h-.3V37.89h.46c.32,0,.52.09.52.38s-.14.31-.35.32l.31.54h-.29l-.27-.52h-.08v.52Zm.22-.74c.1,0,.16,0,.16-.15s-.13-.13-.23-.13h-.15v.28Z"/><path class="cls-1" d="M577.53,40.21c-.35.07-.38.51,0,.49a46.39,46.39,0,0,1,5.45.12,33.44,33.44,0,0,1,7.24,1.62,57.26,57.26,0,0,1,6.41,3.18s-5.71,3.24-7.63,8.05c-.1.26,0,.34.36.14,7.31-4.34,12.39-7,21.28-8.74.56-.11.5-.18,0-.3a44.44,44.44,0,0,1-6.59-2.06c-4.39-1.64-8.6-3.15-13.56-3.53-.73,0-1.48-.08-2.24-.08a64.71,64.71,0,0,0-10.74,1.11"/><path class="cls-1" d="M612.89,36.06a20.07,20.07,0,0,1-7.06,4.88c-.37.14-.28.36-.12.46a4.44,4.44,0,0,0,.52.21l3.66,1.18c.31.09.29.07.42-.06a10.57,10.57,0,0,0,2.8-6.59s0-.24,0-.24-.09,0-.19.16"/><path class="cls-1" d="M678.81,53.93h-2.34a.42.42,0,0,1-.36-.19l-7-12.07V53.5a.43.43,0,0,1-.43.43h-2.34a.43.43,0,0,1-.43-.43V36.33a.43.43,0,0,1,.43-.43h2.34a.45.45,0,0,1,.35.19l7,11.59V36.33a.44.44,0,0,1,.43-.43h2.32a.44.44,0,0,1,.43.43V53.5a.43.43,0,0,1-.43.43Z"/><path class="cls-1" d="M703.49,53.93h-2.33a.43.43,0,0,1-.43-.43V36.33a.43.43,0,0,1,.43-.43h2.33a.43.43,0,0,1,.42.43V53.5a.42.42,0,0,1-.42.43Z"/><path class="cls-1" d="M690.17,54.16a6.74,6.74,0,0,1-5.34-2.33,10.47,10.47,0,0,1-2-6.61v-.65a12.23,12.23,0,0,1,.93-4.9,6.91,6.91,0,0,1,2.65-3,7.61,7.61,0,0,1,4-1,6.92,6.92,0,0,1,4.8,1.64,6.43,6.43,0,0,1,2,3.49.41.41,0,0,1-.09.36.41.41,0,0,1-.33.15h-2.38a.42.42,0,0,1-.41-.31,3.74,3.74,0,0,0-1-1.82,3.67,3.67,0,0,0-2.54-.81,3.77,3.77,0,0,0-3.16,1.45,8.41,8.41,0,0,0-1.18,4.8v.66a8.81,8.81,0,0,0,1.12,4.7,3.47,3.47,0,0,0,3,1.48,4.21,4.21,0,0,0,2.71-.76,3.63,3.63,0,0,0,1-1.87.43.43,0,0,1,.41-.31h2.37a.44.44,0,0,1,.34.16.42.42,0,0,1,.08.36,6.4,6.4,0,0,1-2,3.54,7.35,7.35,0,0,1-4.91,1.58Z"/><path class="cls-1" d="M629.51,53.93h-8.8a.43.43,0,0,1-.43-.43V36.33a.43.43,0,0,1,.43-.43h8.8a.43.43,0,0,1,.43.43v1.85a.43.43,0,0,1-.43.43h-6v4.68h6a.42.42,0,0,1,.43.42v1.85a.43.43,0,0,1-.43.43h-6v5.23h6a.43.43,0,0,1,.43.43V53.5a.43.43,0,0,1-.43.43Z"/><path class="cls-1" d="M660.85,53.93h-8.8a.42.42,0,0,1-.42-.43V36.33a.43.43,0,0,1,.42-.43h8.8a.43.43,0,0,1,.43.43v1.85a.43.43,0,0,1-.43.43h-6v4.68h6a.42.42,0,0,1,.43.42v1.85a.43.43,0,0,1-.43.43h-6v5.23h6a.43.43,0,0,1,.43.43V53.5a.43.43,0,0,1-.43.43Z"/><path class="cls-1" d="M722.89,53.34l-6.56-17.17a.41.41,0,0,0-.38-.27h-2a.41.41,0,0,0-.38.28L707,53.34a.47.47,0,0,0,.05.4.39.39,0,0,0,.34.19h2.78a19.21,19.21,0,0,1,7.95-4.78l1.64,4.5a.41.41,0,0,0,.39.28h2.31a.42.42,0,0,0,.35-.19.47.47,0,0,0,0-.4Zm-10.82-4.05-.43.2.12-.33.68-1.85,2.52-7,2.69,7.4a31.42,31.42,0,0,0-5.58,1.55Z"/><path class="cls-1" d="M640.83,54.16a7.72,7.72,0,0,1-4-1,7,7,0,0,1-2.72-3,10,10,0,0,1-1-4.39v-1.5a9.36,9.36,0,0,1,2-6.29,6.87,6.87,0,0,1,5.48-2.28,7.09,7.09,0,0,1,4.66,1.47h0a6,6,0,0,1,1.85,2.76.45.45,0,0,1-.06.39.43.43,0,0,1-.34.18h-2.4a.43.43,0,0,1-.38-.25,3.31,3.31,0,0,0-3.32-1.85,3.7,3.7,0,0,0-3.18,1.43,7.35,7.35,0,0,0-1.11,4.38v1.4a6.81,6.81,0,0,0,1.25,4.32,3.94,3.94,0,0,0,3.3,1.55,7.65,7.65,0,0,0,2.15-.27,3.17,3.17,0,0,0,1.3-.72V46h-2.84a.42.42,0,0,1-.42-.42V43.72a.42.42,0,0,1,.42-.43h6v8a.46.46,0,0,1-.08.25,5.81,5.81,0,0,1-2.67,2,10.54,10.54,0,0,1-3.84.65Z"/><path class="cls-1" d="M726,36.73a1.67,1.67,0,0,0-.61-.6,1.71,1.71,0,0,0-1.68,0,1.6,1.6,0,0,0-.61.6,1.65,1.65,0,0,0-.22.84,1.65,1.65,0,0,0,.83,1.44,1.71,1.71,0,0,0,1.68,0,1.7,1.7,0,0,0,.61-.61,1.69,1.69,0,0,0,0-1.67Zm-.25,1.52a1.29,1.29,0,0,1-.5.51,1.34,1.34,0,0,1-.7.19,1.4,1.4,0,0,1-.7-.18,1.44,1.44,0,0,1-.5-.51,1.43,1.43,0,0,1,0-1.39,1.33,1.33,0,0,1,.5-.5,1.43,1.43,0,0,1,.7-.18,1.38,1.38,0,0,1,.71.19,1.24,1.24,0,0,1,.49.5,1.39,1.39,0,0,1,0,1.37Z"/><path class="cls-1" d="M725.17,38.16a1,1,0,0,1,0-.2.55.55,0,0,0,0-.24.28.28,0,0,0-.17-.15.35.35,0,0,0,.22-.32.39.39,0,0,0-.15-.34.71.71,0,0,0-.43-.12h-.5v1.5h.27V37.7h.28a.29.29,0,0,1,.19,0,.28.28,0,0,1,.06.2,1.06,1.06,0,0,0,0,.34h.27v0a.25.25,0,0,1,0-.1Zm-.35-.76a.35.35,0,0,1-.21.06h-.25V37h.25a.33.33,0,0,1,.23.06.21.21,0,0,1,.06.17.16.16,0,0,1-.08.15Z"/></g></svg>