<?xml version="1.0" encoding="utf-8"?>
<!-- Generator: Adobe Illustrator 22.1.0, SVG Export Plug-In . SVG Version: 6.00 Build 0)  -->
<svg version="1.1" id="Layer_1" xmlns="http://www.w3.org/2000/svg" xmlns:xlink="http://www.w3.org/1999/xlink" x="0px" y="0px"
	 viewBox="0 0 1440 160" style="enable-background:new 0 0 1440 160;" xml:space="preserve">
<style type="text/css">
	.st0{fill:#010100;}
	.st1{fill:#FFFFFF;}
</style>
<text transform="matrix(1 0 0 1 -1469.6682 980.9924)"><tspan x="0" y="0" class="st0" style="font-family:'Arial-BoldMT'; font-size:10px;">Brand logo lock up display and order:</tspan><tspan x="0" y="16" class="st0" style="font-family:'ArialMT'; font-size:10px;">Expedia. Hotels.com. EAN, Egencia, HomeAway, Trivago, Orbitz, Travelocity, </tspan><tspan x="0" y="32" class="st0" style="font-family:'ArialMT'; font-size:10px;">Hotwire, Wotif, ebookers.com, cheaptickets, Classic Vacations, VRBO, VacationRentals.com (AirAsiaGo if needed to balance)</tspan></text>
<g>
	<path class="st1" d="M364.3,36.5c-0.1,0-0.3-0.1-0.3-0.3v-1.7h-0.5c-0.1,0-0.2-0.1-0.2-0.2c0-0.1,0.1-0.2,0.2-0.2h1.5
		c0.1,0,0.2,0.1,0.2,0.2c0,0.1-0.1,0.2-0.2,0.2h-0.5v1.7C364.5,36.4,364.4,36.5,364.3,36.5L364.3,36.5L364.3,36.5z M368,36.5
		c-0.1,0-0.3-0.1-0.3-0.3v-1.5l-0.6,1.7c0,0.1-0.1,0.1-0.1,0.1c-0.1,0-0.1,0-0.1-0.1l-0.6-1.7v1.5c0,0.1-0.1,0.3-0.3,0.3
		c-0.1,0-0.3-0.1-0.3-0.3v-1.8c0-0.2,0.2-0.4,0.4-0.4c0.2,0,0.3,0.1,0.4,0.3l0.5,1.3l0.5-1.3c0.1-0.2,0.2-0.3,0.4-0.3
		c0.2,0,0.4,0.2,0.4,0.4v1.8C368.2,36.4,368.1,36.5,368,36.5L368,36.5L368,36.5z"/>
	<path class="st1" d="M231.7,33.3c0-0.9,0.3-1.7,0.7-2.3c-1.4,0.4-2.4,1.7-2.4,3.2v2.7l1.7,0.1V33.3L231.7,33.3z"/>
	<path class="st1" d="M230,51.6c0,1.5,1,2.8,2.4,3.2c-0.5-0.7-0.7-1.5-0.7-2.3v-5H230V51.6L230,51.6z"/>
	<path class="st1" d="M234.2,47.4h-1.7v5c0,1.5,1,2.8,2.4,3.2c-0.5-0.7-0.7-1.5-0.7-2.3V47.4L234.2,47.4z"/>
	<path class="st1" d="M234.2,32.4c0-0.9,0.3-1.7,0.7-2.3c-1.4,0.4-2.4,1.7-2.4,3.2v3.6l1.7,0.1V32.4L234.2,32.4z"/>
	<path class="st1" d="M215.4,31.4c-1.2,0.7-2,2-2,3.6v15.8c0,1.5,0.8,2.8,2,3.6c-0.2-0.6-0.4-1.2-0.4-1.9V33.3
		C215,32.6,215.2,32,215.4,31.4L215.4,31.4z"/>
	<path class="st1" d="M217.5,31.6c0-0.7,0.1-1.3,0.4-1.9c-1.2,0.7-2,2-2,3.6v19.2c0,1.8,1.1,3.3,2.7,3.9c-0.7-0.8-1.1-1.9-1.1-3.1
		V31.6L217.5,31.6z"/>
	<path class="st1" d="M238.3,29.1c-1.8,0-3.3,1.5-3.3,3.3v5.4l-8.3-0.4v-5.8c0-2.3-1.9-4.2-4.2-4.2c-2.3,0-4.2,1.9-4.2,4.2v21.6
		c0,2.3,1.9,4.2,4.2,4.2c2.3,0,4.2-1.9,4.2-4.2v-6.7h8.3v6.7c0,1.8,1.5,3.3,3.3,3.3s3.3-1.5,3.3-3.3V32.4
		C241.7,30.6,240.2,29.1,238.3,29.1L238.3,29.1z"/>
	<path class="st1" d="M267.1,49.4v-6.2h-9v6.2c0,0.7-0.5,1.2-1.2,1.2c-0.7,0-1.2-0.6-1.2-1.2V35.3c0-0.7,0.6-1.2,1.2-1.2
		c0.7,0,1.2,0.6,1.2,1.2v5.7h9v-5.7c0-0.7,0.5-1.2,1.2-1.2c0.7,0,1.2,0.6,1.2,1.2v14.1c0,0.7-0.5,1.2-1.2,1.2
		C267.6,50.6,267.1,50.1,267.1,49.4L267.1,49.4z"/>
	<path class="st1" d="M271.2,44.6c0-3.4,2.3-6.2,5.9-6.2c3.7,0,5.9,2.8,5.9,6.2c0,3.4-2.3,6.2-5.9,6.2
		C273.5,50.8,271.2,48,271.2,44.6L271.2,44.6z M280.9,44.6c0-2.2-1.3-4.2-3.7-4.2c-2.3,0-3.7,2-3.7,4.2c0,2.2,1.3,4.2,3.7,4.2
		C279.6,48.8,280.9,46.8,280.9,44.6L280.9,44.6z"/>
	<path class="st1" d="M295.9,38.4c3.5,0,5.7,2.8,5.7,5.8c0,0.7-0.5,1-1.3,1h-8c0.2,2,1.6,3.7,4,3.7c1,0,2-0.3,2.9-1
		c0.1-0.1,0.3-0.1,0.5-0.1c0.5,0,0.9,0.4,0.9,0.9c0,0.3-0.1,0.6-0.4,0.7c-1.2,0.9-2.6,1.3-4.1,1.3c-3.5,0-6.1-2.5-6.1-6.2
		C290,41.2,292.5,38.4,295.9,38.4L295.9,38.4z M292.3,43.7h7.2c0-1.6-1.1-3.5-3.6-3.5C293.5,40.2,292.4,42.1,292.3,43.7L292.3,43.7z
		"/>
	<path class="st1" d="M303,49.5V35.2c0-0.6,0.5-1.1,1.1-1.1c0.6,0,1.1,0.5,1.1,1.1v14.3c0,0.6-0.5,1.1-1.1,1.1
		C303.5,50.6,303,50.1,303,49.5L303,49.5z"/>
	<path class="st1" d="M306.6,48.7c0-0.5,0.4-1,1-1c0.2,0,0.4,0.1,0.5,0.2c0.9,0.7,2.1,1.1,3.3,1.1c1.7,0,2.5-0.7,2.5-1.7
		c0-1.2-1.3-1.6-2.9-1.9c-2-0.5-4.3-1-4.3-3.5c0-1.9,1.6-3.5,4.5-3.5c1.6,0,2.9,0.5,3.9,1.2c0.2,0.2,0.4,0.4,0.4,0.7
		c0,0.5-0.4,0.9-0.9,0.9c-0.2,0-0.4-0.1-0.5-0.2c-0.8-0.6-1.8-0.9-2.9-0.9c-1.5,0-2.4,0.6-2.4,1.5c0,1,1.3,1.4,2.7,1.7
		c2,0.5,4.5,1,4.5,3.7c0,2-1.7,3.6-4.8,3.6c-1.6,0-3.1-0.4-4.3-1.3C306.8,49.3,306.6,49,306.6,48.7L306.6,48.7z"/>
	<path class="st1" d="M319,47.7c0.8,0,1.5,0.7,1.5,1.5c0,0.8-0.7,1.5-1.5,1.5c-0.8,0-1.5-0.7-1.5-1.5
		C317.4,48.4,318.1,47.7,319,47.7L319,47.7z"/>
	<path class="st1" d="M331.9,44.6c0-3.4,2.3-6.2,5.9-6.2c3.7,0,5.9,2.8,5.9,6.2c0,3.4-2.3,6.2-5.9,6.2
		C334.2,50.8,331.9,48,331.9,44.6L331.9,44.6z M341.5,44.6c0-2.2-1.3-4.2-3.7-4.2c-2.3,0-3.7,2-3.7,4.2c0,2.2,1.3,4.2,3.7,4.2
		C340.2,48.8,341.5,46.8,341.5,44.6L341.5,44.6z"/>
	<path class="st1" d="M361.9,42v7.5c0,0.6-0.5,1.1-1.1,1.1c-0.6,0-1.1-0.5-1.1-1.1v-6.9c0-1.4-0.6-2-2-2c-1.2,0-2.4,1.3-2.9,2.2v6.7
		c0,0.6-0.5,1.1-1.1,1.1c-0.6,0-1.1-0.5-1.1-1.1v-6.9c0-1.4-0.6-2-2.1-2c-1.1,0-2.3,1.4-2.9,2.3v6.6c0,0.6-0.5,1.1-1.1,1.1
		c-0.6,0-1.1-0.5-1.1-1.1v-9.8c0-0.6,0.5-1.1,1.1-1.1c0.6,0,1.1,0.5,1.1,1.1v0.7c0.5-0.7,2-1.9,3.8-1.9c1.8,0,2.8,0.9,3.2,2.2
		c0.7-1.1,2.3-2.2,4-2.2C360.8,38.4,361.9,39.6,361.9,42L361.9,42z"/>
	<path class="st1" d="M327.1,38.4c1.7,0,2.8,0.5,3.8,1.4c0.2,0.2,0.3,0.5,0.3,0.7c0,0.6-0.4,1-1,1c-0.3,0-0.5-0.1-0.7-0.2
		c-0.7-0.6-1.4-0.9-2.4-0.9c-2.3,0-3.8,1.8-3.8,4.2c0,2.4,1.5,4.2,3.8,4.2c1.6,0.1,3.1-1.1,4.4-3.1c0.2-0.2,0.4-0.7,0.6-0.9
		c0.4-0.5,0.6-0.2,0.8,0c0.4,0.4,0.4,1.4,0.1,1.8c-0.7,1.3-1.3,1.9-2,2.6c-0.9,0.9-2.4,1.5-4,1.5c-3.6,0-6-2.7-6-6.2
		C321.1,41.1,323.5,38.4,327.1,38.4L327.1,38.4z"/>
	<path class="st1" d="M291.6,48.7c0,0.4-1.2,1.3-2,1.8c-0.5,0.2-1,0.3-1.7,0.3c-1.9,0-2.8-1-2.8-2.9v-7.2h-1.1c-0.5,0-1-0.4-1-1
		c0-0.5,0.5-1,1-1h1.1v-2.2c0-0.6,0.5-1.1,1.1-1.1c0.6,0,1.1,0.5,1.1,1.1v2.2h1.5c0.5,0,1,0.4,1,1c0,0.5-0.4,1-1,1h-1.5v6.8
		c0,0.8,0.4,1.4,1.1,1.4c1.3,0,2.4-2.1,3-2.1C291.9,46.7,291.6,48.1,291.6,48.7L291.6,48.7z"/>
</g>
<g>
	<g>
		<path class="st1" d="M1184,52.1l6.2-14.1c0.1-0.2,0-0.4-0.3-0.4h-4.3c-0.2,0-0.5,0.2-0.6,0.4l-6.1,14.1c-0.1,0.2,0,0.4,0.3,0.4
			h4.3C1183.7,52.5,1184,52.3,1184,52.1z"/>
		<polygon class="st1" points="1206.3,48.3 1215.9,37.7 1204.7,37.7 1202.1,41.8 1206.5,41.8 1196.8,52.5 1208.7,52.5 1213.1,48.3
			1206.3,48.3 		"/>
		<path class="st1" d="M1165.1,37.7h-7.5l0,0c-0.4,0-0.9,0.3-1.1,0.7l-5.9,13.5c-0.2,0.4,0,0.7,0.5,0.7h3.7c0.4,0,0.9-0.3,1.1-0.7
			l1.7-3.8h1.7c0.5,0,0.8,0.2,0.5,0.8l-1.3,3c-0.2,0.4,0,0.7,0.5,0.7h3.7c0.4,0,0.9-0.3,1.1-0.7l1.7-3.9c0.5-1.3-0.2-2.2-1.3-2.3
			c1-0.4,1.9-1.3,2.3-2.2l0.9-2C1168.2,39,1167.5,37.6,1165.1,37.7z M1162.9,41.9l-0.9,2c-0.2,0.5-0.5,0.5-0.8,0.5h-2.1l1.4-3.2h2
			C1162.9,41.3,1163.1,41.5,1162.9,41.9z"/>
		<path class="st1" d="M1179.6,37.6h-7.9c-0.3,0-0.6,0.2-0.8,0.5l-6,13.9c-0.1,0.3,0,0.5,0.3,0.5h8.5c2.7,0,4.2-0.6,5.4-3.5l0.9-1.9
			c0.7-1.6,0-2.3-1.3-2.5c1.1-0.3,1.9-1.3,2.2-2.2l0.7-1.5C1182.5,38.9,1181.8,37.6,1179.6,37.6z M1175.7,46.9l-0.5,1.1
			c-0.3,0.8-0.7,1-1.4,1h-2.5l1.2-2.8h2.5C1175.7,46.2,1175.9,46.4,1175.7,46.9z M1177.1,42l-0.4,0.9l-0.1,0.1
			c-0.2,0.4-0.5,0.6-0.9,0.6h-2.1l1-2.3h2.2C1177.3,41.3,1177.3,41.5,1177.1,42z"/>
		<path class="st1" d="M1191.6,37.7l-1.8,4.1h2.6c0.2,0,0.3,0.1,0.2,0.3l-4.6,10.1c-0.1,0.2,0,0.3,0.2,0.3h4.7
			c0.2,0,0.4-0.1,0.5-0.3l4.4-10.1c0.1-0.2,0.3-0.3,0.5-0.3h2.7l2.5-4.1H1191.6z"/>
		<path class="st1" d="M1152.9,42.7l0.6-1.3c1.2-2.7,0.4-3.8-1.9-3.8h-5.5c-2.3,0-4.2,1.3-5.2,3.6l-1.7,4.8h-1.6l3.1,4.2l5.1-4.2
			h-1.3l1.5-3.5c0.2-0.6,0.7-0.8,1.1-0.9h0.9c0.2,0,0.3,0.1,0.4,0.2l2.7-2.3L1152.9,42.7z"/>
		<path class="st1" d="M1140.5,51.5l-2.3-2.9l-0.1,0.3c-1.1,2.4-0.9,3.6,1.4,3.6h5.4c2.3,0,4.2-1.2,5.3-3.6l1.6-3.7h1.5l-2.5-4.2
			l-5.1,4.2h1.4l-1,2.4c-0.2,0.5-0.6,0.8-1,0.8h-0.7L1140.5,51.5z"/>
	</g>
	<g>
		<path class="st1" d="M1217.7,37.6c0.2,0,0.4,0.1,0.5,0.2c0.1,0.1,0.2,0.3,0.2,0.5c0,0.2-0.1,0.4-0.2,0.5c-0.1,0.1-0.3,0.2-0.5,0.2
			s-0.4-0.1-0.5-0.2c-0.1-0.1-0.2-0.3-0.2-0.5c0-0.2,0.1-0.4,0.2-0.5C1217.4,37.6,1217.5,37.6,1217.7,37.6z M1217.7,38.9
			c0.2,0,0.3-0.1,0.4-0.2s0.2-0.3,0.2-0.4c0-0.2-0.1-0.3-0.2-0.4c-0.1-0.1-0.3-0.2-0.4-0.2c-0.2,0-0.3,0.1-0.4,0.2
			c-0.1,0.1-0.2,0.3-0.2,0.4c0,0.2,0.1,0.3,0.2,0.4S1217.6,38.9,1217.7,38.9z M1218.1,38.7h-0.2l-0.2-0.3h-0.1v0.3h-0.2v-0.8h0.2
			c0.1,0,0.2,0,0.2,0.1c0.1,0,0.1,0.1,0.1,0.2c0,0.1,0,0.2-0.1,0.2L1218.1,38.7z M1217.6,38.2L1217.6,38.2c0.2,0,0.2,0,0.2-0.1
			c0-0.1,0-0.1-0.1-0.1h-0.1V38.2z"/>
	</g>
</g>
<g id="Trivago_1_">
	<polygon class="st1" points="1019.3,36.7 1024,36.7 1027.5,46.2 1027.6,46.2 1030.8,36.7 1035.2,36.7 1029.7,50.7 1025.1,50.7 	"/>
	<path class="st1" d="M1002.4,40.1h-4.2v4.7c0,0.4,0,0.7,0.1,1c0,0.3,0.1,0.6,0.3,0.8c0.1,0.2,0.4,0.4,0.7,0.5
		c0.3,0.1,0.7,0.2,1.2,0.2c0.3,0,0.6,0,1-0.1c0.4,0,0.7-0.2,0.9-0.3v3.6c-0.5,0.2-1.1,0.3-1.6,0.3c-0.6,0.1-1.1,0.1-1.7,0.1
		c-0.8,0-1.5-0.1-2.2-0.2c-0.7-0.1-1.3-0.4-1.8-0.7c-0.5-0.3-0.9-0.8-1.2-1.3c-0.3-0.5-0.4-1.2-0.4-2v-6.6h-3v-3.5h3v-4.1h4.7v4.1
		h4.2V40.1z"/>
	<path class="st1" d="M1003.6,36.7h4.3v2.2h0.1c0.5-0.9,1-1.5,1.6-1.9c0.6-0.4,1.4-0.6,2.4-0.6c0.2,0,0.5,0,0.7,0
		c0.2,0,0.5,0.1,0.7,0.1v3.9c-0.3-0.1-0.6-0.2-0.9-0.2c-0.3,0-0.6-0.1-0.9-0.1c-0.8,0-1.5,0.1-2,0.3c-0.5,0.2-0.8,0.5-1.1,1
		c-0.3,0.4-0.4,0.9-0.5,1.5c-0.1,0.6-0.1,1.2-0.1,1.9v5.8h-4.3V36.7z"/>
	<path class="st1" d="M1014.4,36.7h4.3v14h-4.3V36.7z M1014.3,33c0-0.6,0.2-1.2,0.7-1.6c0.4-0.5,1-0.7,1.6-0.7
		c0.6,0,1.2,0.2,1.6,0.7c0.4,0.4,0.7,1,0.7,1.6c0,0.6-0.2,1.2-0.7,1.6c-0.4,0.5-1,0.7-1.6,0.7c-0.6,0-1.2-0.2-1.6-0.7
		C1014.5,34.1,1014.3,33.6,1014.3,33"/>
	<path class="st1" d="M1042.5,44.5c-0.3,0-0.7,0-1.2,0c-0.5,0-1,0.1-1.4,0.2c-0.4,0.1-0.8,0.3-1.2,0.6c-0.3,0.3-0.5,0.6-0.5,1.1
		c0,0.5,0.2,0.9,0.7,1.2c0.4,0.2,0.9,0.4,1.4,0.4c0.4,0,0.8-0.1,1.2-0.2c0.4-0.1,0.7-0.3,1.1-0.5c0.3-0.2,0.6-0.5,0.7-0.8
		c0.2-0.3,0.3-0.7,0.3-1.2v-0.9H1042.5z M1043.6,48.9L1043.6,48.9c-0.5,0.7-1.2,1.3-2,1.6c-0.8,0.3-1.6,0.5-2.5,0.5
		c-0.6,0-1.3-0.1-1.9-0.3c-0.6-0.2-1.1-0.5-1.6-0.8c-0.5-0.4-0.8-0.8-1.1-1.4c-0.3-0.5-0.4-1.2-0.4-1.9c0-0.8,0.2-1.5,0.4-2.1
		c0.3-0.6,0.7-1,1.2-1.4c0.5-0.4,1.1-0.6,1.7-0.8c0.7-0.2,1.3-0.3,2-0.4c0.7-0.1,1.4-0.2,2.1-0.2c0.7,0,1.3,0,1.9,0
		c0-0.8-0.3-1.4-0.8-1.8c-0.5-0.5-1.2-0.7-1.9-0.7c-0.7,0-1.4,0.1-1.9,0.4c-0.6,0.3-1.1,0.7-1.6,1.2l-2.3-2.4
		c0.8-0.7,1.7-1.3,2.8-1.7c1.1-0.4,2.2-0.6,3.3-0.6c1.3,0,2.3,0.2,3.1,0.5c0.8,0.3,1.5,0.8,2,1.4c0.5,0.6,0.8,1.4,1,2.3
		c0.2,0.9,0.3,1.9,0.3,3.1v7.1h-4V48.9z"/>
	<path class="st1" d="M1067.6,43.7c0,1.1,0.3,1.9,0.8,2.6c0.5,0.7,1.3,1,2.3,1c1,0,1.8-0.3,2.3-1c0.5-0.6,0.8-1.5,0.8-2.6
		c0-1.1-0.3-1.9-0.8-2.6c-0.5-0.6-1.3-1-2.3-1c-1,0-1.8,0.3-2.3,1C1067.9,41.8,1067.6,42.6,1067.6,43.7 M1063.7,43.7
		c0-1.1,0.2-2.1,0.5-3c0.4-0.9,0.9-1.7,1.5-2.3c0.6-0.6,1.4-1.1,2.2-1.5c0.9-0.3,1.8-0.5,2.7-0.5c1,0,1.9,0.2,2.7,0.5
		c0.9,0.3,1.6,0.8,2.2,1.5c0.6,0.6,1.1,1.4,1.5,2.3c0.4,0.9,0.5,1.9,0.5,3c0,1.1-0.2,2.1-0.5,3c-0.4,0.9-0.9,1.7-1.5,2.3
		c-0.6,0.6-1.4,1.1-2.2,1.5c-0.9,0.3-1.8,0.5-2.7,0.5c-1,0-1.9-0.2-2.7-0.5c-0.9-0.3-1.6-0.8-2.2-1.5c-0.6-0.6-1.1-1.4-1.5-2.3
		C1063.9,45.8,1063.7,44.8,1063.7,43.7"/>
	<path class="st1" d="M1080.2,40.4c-1,0-1.8-0.8-1.8-1.8c0-1,0.8-1.8,1.8-1.8c1,0,1.8,0.8,1.8,1.8
		C1082,39.6,1081.2,40.4,1080.2,40.4 M1080.2,36.3c-1.2,0-2.2,1-2.2,2.2c0,1.2,1,2.2,2.2,2.2c1.2,0,2.2-1,2.2-2.2
		C1082.5,37.3,1081.5,36.3,1080.2,36.3"/>
	<path class="st1" d="M1080.5,38.1c0-0.1,0-0.1,0-0.1c0,0-0.1-0.1-0.1-0.1c0,0-0.1,0-0.1,0c0,0-0.1,0-0.2,0h-0.2v0.6h0.2
		c0.1,0,0.1,0,0.2,0c0.1,0,0.1,0,0.1-0.1c0,0,0.1-0.1,0.1-0.1C1080.5,38.2,1080.5,38.2,1080.5,38.1 M1081.4,39.6h-0.7l-0.6-0.8h-0.2
		v0.8h-0.5v-2.2h0.9c0.1,0,0.2,0,0.3,0c0.1,0,0.2,0,0.2,0.1c0.1,0,0.1,0.1,0.2,0.2c0,0.1,0.1,0.2,0.1,0.3c0,0.2,0,0.3-0.1,0.4
		c-0.1,0.1-0.2,0.2-0.3,0.2L1081.4,39.6z"/>
	<path class="st1" d="M1059.1,36.7v1.9l0,0c0,0-0.3-0.4-0.6-0.7c-0.3-0.3-0.6-0.5-1-0.7c-0.4-0.2-0.9-0.4-1.4-0.5
		c-0.5-0.1-1.1-0.2-1.7-0.2c-1,0-1.9,0.2-2.7,0.6c-0.8,0.4-1.5,0.9-2,1.6c-0.5,0.7-0.8,1.4-1,2.3c-0.2,0.9-0.3,1.8-0.3,2.7
		c0,1.1,0.2,2,0.4,3c0.3,0.9,0.6,1.6,1.1,2.2c0.6,0.7,1.3,1.1,2.2,1.5c0.8,0.4,1.8,0.5,2.8,0.5c0.7,0,1.3-0.2,2.1-0.4
		c0.7-0.3,1.5-0.8,1.6-1.4l0,0v1.4c0,1-0.2,1.8-0.8,2.5c-0.6,0.6-1.5,1-2.8,1c-0.9,0-1.4,0-2.3-0.2c-0.8-0.2-1.8-0.6-2.5-1.1
		l-2.1,3.1c1.1,0.8,2.1,1.3,3.3,1.6c1.2,0.3,2.4,0.4,3.7,0.4c2.7,0,4.7-0.7,6-2.1c1.3-1.4,1.9-3.4,1.9-6V36.7H1059.1z M1058,46.2
		c-0.5,0.7-1.3,1-2.3,1c-1,0-1.8-0.3-2.3-1c-0.5-0.6-0.8-1.5-0.8-2.6c0-1.1,0.3-1.9,0.8-2.6c0.5-0.6,1.3-1,2.3-1c1,0,1.8,0.3,2.3,1
		c0.5,0.7,0.8,1.5,0.8,2.6C1058.9,44.7,1058.6,45.6,1058,46.2z"/>
</g>
<g>
	<g>
		<g>
			<g>
				<path class="st1" d="M1314,41.2h1.9v2.2h0c0.9-1.5,1.9-2.4,3.8-2.4v1.5c-1,0-1.8,0.4-2.4,1c-0.8,0.7-1.4,1.9-1.4,3v5.8h-1.9
					V41.2z"/>
				<path class="st1" d="M1321.3,43.4c0.7-1.3,2.4-2.4,4.6-2.4c2,0,4.3,0.9,4.3,3.3V50c0,1.2,0.1,1.8,0.3,2.4h-1.9l-0.2-1.5
					c-0.8,0.9-2.1,1.8-3.9,1.8c-1.8,0-3.6-1-3.6-3.1c0-2.4,2.2-3.7,7.4-4.5v-0.6c0-1.5-1-2-2.4-2c-1.8,0-2.7,1-3,1.7L1321.3,43.4z
					 M1328.3,46.4c-3.7,0.6-5.5,1.7-5.5,3.2c0,1,1,1.7,1.9,1.7c1.2,0,2.6-0.8,3.6-1.8V46.4z"/>
				<path class="st1" d="M1337.6,52.4h-2.4l-3.6-11.2h1.9l3,9.2h0l3-9.2h1.6L1337.6,52.4z"/>
				<path class="st1" d="M1356.6,36.6v15.8h-1.9v-15L1356.6,36.6z"/>
				<path class="st1" d="M1363.9,52.6c-3.2,0-5-2.6-5-5.8c0-3.2,1.8-5.8,5-5.8c3.2,0,5,2.6,5,5.8C1368.9,50,1367.1,52.6,1363.9,52.6
					z M1363.9,42.3c-1.9,0-3.2,1.6-3.2,4.5c0,2.9,1.2,4.5,3.2,4.5c1.9,0,3.2-1.6,3.2-4.5C1367,43.9,1365.8,42.3,1363.9,42.3z"/>
				<path class="st1" d="M1378.2,44.6c-0.4-1.4-1.4-2.2-2.8-2.2c-2,0-3.2,1.6-3.2,4.5c0,2.8,1.2,4.5,3.2,4.5c1.5,0,2.3-0.5,3.2-2.1
					l1.6,0.6c-1.2,1.9-2.4,2.8-4.8,2.8c-2.9,0-5-2.2-5-5.8c0-3.6,2.1-5.8,5-5.8c2.4,0,3.8,1.3,4.5,3L1378.2,44.6z"/>
				<path class="st1" d="M1382.1,41.2h1.9v11.2h-1.9V41.2z"/>
				<g>
					<path class="st1" d="M1309.8,51.3c-0.9,0-1.3-0.3-1.3-0.8v-7.9h2.3l0.4-1.3h-2.7v-4l-1.9,0.8v3.2h-1.7v1.3h1.7v8.2
						c0.2,1.4,1,1.8,2.7,1.8c0.8,0,1.2-0.1,1.7-0.2l0.4-1.3C1310.8,51.2,1310.3,51.3,1309.8,51.3z"/>
				</g>
				<path class="st1" d="M1404.1,41.2l-4.1,12.1c-0.9,2.5-2.7,3.2-4.2,3.2c-0.5,0-1.2-0.1-1.5-0.1l0.4-1.3c0.2,0,0.5,0.1,0.9,0.1
					c1,0,2.5-0.2,3.1-2.7l-4.1-11.3h1.7l3.1,8.5h0l2.7-8.5H1404.1z"/>
			</g>
			<g>
				<path class="st1" d="M1391.5,51.3c-0.9,0-1.3-0.3-1.3-0.8v-7.9h2.3l0.4-1.3h-2.7v-4l-1.9,0.8v3.2h-1.7v1.3h1.7v8.2
					c0.2,1.4,1,1.8,2.7,1.8c0.8,0,1.2-0.1,1.7-0.2l0.4-1.3C1392.5,51.2,1392,51.3,1391.5,51.3z"/>
			</g>
		</g>
		<path class="st1" d="M1351,49.4c-0.7,1.1-1.8,1.8-3.2,1.8c-1.9,0-3.5-1.7-3.5-4.2h7.8v-1c0-3.6-2.3-5.1-4.7-5.1
			c-2.9,0-5,2.2-5,5.8c0,4.1,2.7,5.8,5.3,5.8c2.2,0,3-0.2,4.4-2L1351,49.4z M1347.5,42.3c1.8,0,2.8,1.4,2.8,3.4h-5.9
			C1344.5,43.7,1345.5,42.3,1347.5,42.3z"/>
	</g>
	<rect x="1382.1" y="37.5" class="st1" width="1.9" height="1.8"/>
	<path class="st1" d="M1274.5,34.5c0.3-0.1,0.6-0.1,0.8-0.2c-0.4-0.5-0.9-0.9-1.3-1.4c-0.1-0.2-0.1-0.2,0-0.3c0.1,0,0-0.2,0.1-0.3
		c0.2-0.1,0.2-0.2,0.3-0.4c0,0,0-0.2,0-0.2c0.1,0,0.1-0.1,0.2,0c0.4,0.4,0.8,0.7,1.2,1c0.5,0.3,1,0.6,1.4,1c0,0,0.2,0.1,0.2,0
		c0.1-0.4,0.2-0.8,0.4-1.2c0.1-0.1,0.1-0.3,0.2-0.4c0.1-0.3,0.4-0.4,0.7-0.6c0.4-0.2,0.9,0,1.1-0.3c0.1-0.1,0.3,0,0.4,0
		c0.3,0.1,0.6,0,0.8,0.3c-0.3,0.8-0.4,1.6-0.6,2.4c0,0.2-0.2,0.4,0,0.5c0.4,0.1,1.4,0,1.5-0.1c0.5,0,1,0,1.6,0.1
		c0.4,0.1,0.7,0.3,1,0.5c0.6,0.4,0.6,1.2,0.5,1.9c0,0-0.3,0.3-0.4,0.3c0,0-0.1-0.2-0.1-0.2c-0.2,0.2-0.6,0.5-0.8,0.6
		c0,0-0.3-0.3-0.5-0.3c-0.5-0.3-1-0.2-1.5-0.2c-0.6,0.1-1.2,0-1.7,0.2c0.2,0.4,0.6,0.6,0.9,0.9c0.5,0.5,1,0.9,1.6,1.4
		c0.4,0.4,0.7,0.6,0.9,1.1c-0.1,0.1,0,0.1-0.1,0.2c-0.1,0-0.1-0.1-0.2-0.1c-0.1,0-0.2,0.1-0.1,0.2c0,0-0.1,0.3-0.2,0.3
		c-0.1,0-0.3,0.2-0.3,0.2c0,0-0.3-0.1-0.3-0.1c0.1,0.1,0.2,0.3,0.1,0.4c-0.2,0-0.3-0.1-0.5-0.2c-0.7-0.6-1.4-1.2-2.1-1.9
		c-0.3-0.3-0.5-0.6-0.8-0.8c-0.5,1.2-0.9,2.1-1.4,3.2c-0.1,0.2-0.2,0.8-0.3,0.8c-0.1,0-0.4-0.4-0.6-0.7c0-0.7,0.1-1,0.1-1.7l0-0.1
		c0-1,0.3-1.9,0.3-2.9c0-0.1-0.1-0.1-0.3-0.1c-1.3-0.1-2.6-0.3-4-0.5c-0.3,0-0.6,0-0.9-0.2c0-0.1-0.2-0.1-0.3-0.1c0,0,0,0-0.1-0.1
		c0.5-0.5,1-1,1.7-1.4C1273.7,34.8,1274.2,34.6,1274.5,34.5z"/>
	<path class="st1" d="M1286.9,41.5c-0.1,0,0-0.1,0-0.1c0.1-0.1,0.2-0.1,0.4-0.1c0.4-0.1,0.7,0,1.1-0.1c0.1,0,0.1-0.1,0.2-0.1
		c0.3-0.1,0.5-0.2,0.8-0.2c0.1,0,0.2-0.1,0.2-0.2c-0.3-0.3-0.6-0.6-0.8-1c-0.1-0.2-0.3-0.4-0.3-0.6c0-0.2,0.2-0.2,0.4-0.1
		c0.8,0.4,1.3,1.1,1.9,1.8c0.1,0.1,0.2-0.2,0.3-0.3c0.3-0.6,0.4-1.2,0.8-1.7c0.1-0.2,0.2-0.4,0.4-0.4c0.3-0.1,0.4-0.2,0.7-0.4
		c0.2-0.1,0.3,0,0.5-0.1c0.1,0,0.2,0.1,0.4,0.1c0.2-0.1,0.4,0,0.6,0c0.1,0.1,0.2,0.2,0.1,0.4c-0.2,0.5-0.3,1-0.6,1.5
		c-0.3,0.4-0.5,0.7-0.8,1.1c0,0,0,0.1,0,0.1c0.2,0,0.4,0,0.5,0.1c0.5,0.2,1.1,0.1,1.6,0.2c0.3,0.1,0.3,0.5,0.5,0.7
		c0.1,0.1-0.1,0.2-0.3,0.2c-0.4,0.1-0.8,0-1.2,0.1c-0.7,0.1-1.3,0-2,0.2c0.2,0.2,0.4,0.4,0.6,0.6c0.2,0.3,0.4,0.5,0.5,0.8
		c0.2,0.3,0.3,0.6,0.4,0.9c0.1,0.1,0,0.3,0,0.5c-0.1,0-0.1-0.2-0.1-0.2c-0.1,0-0.1,0.1-0.3,0.1c-0.1,0-0.1-0.1-0.2-0.2
		c-0.1-0.1-0.2-0.3-0.3-0.5c-0.2-0.5-0.7-0.9-1.2-1.3c-0.4,0.9-0.8,1.8-1.4,2.6c0,0.1-0.1,0.1-0.3,0.1c0,0-0.1,0.1-0.1,0.1
		c0-0.1-0.1-0.1-0.1-0.1c-0.2-0.1-0.4-0.3-0.5-0.5c-0.1-0.2-0.2-0.4-0.2-0.6c0,0-0.1-0.1-0.1-0.1c0.1-0.1,0.1-0.3,0.1-0.4
		c0.1-0.1,0.2-0.2,0.3-0.4c0.2-0.4,0.5-0.8,0.6-1.2c-0.9-0.1-1.8-0.1-2.6-0.4c-0.2-0.1-0.4-0.1-0.6-0.3
		C1286.9,41.6,1287,41.5,1286.9,41.5z"/>
	<path class="st1" d="M1287.9,28.2c0.3-0.6,0.7-1,0.8-1.7c-1.4-0.8-3.1-0.3-4.2-2.1c-0.2-0.4,0-2.2,0.2-2.4c0.3-0.7,0.9-0.7,1.5-0.2
		c0.1,0,0.5,0.1,0.6,0.1c0.6-0.1,1.2,0.1,1.8,0.3c0.8,0.1,1.5,0.4,2.2,0.3c0.1,0,0.1-0.2,0.1-0.4c-0.2-1.1-0.4-2-0.7-3.1
		c-0.1-0.2-0.1-0.6-0.2-0.9c0-0.6-0.5-1.6-0.1-1.9c0.1,0,0.1,0.1,0.2,0.1c0.1-0.1,0.2-0.2,0.3-0.2c1.4,0.9,2.5,2.3,3.8,3.6
		c0.4,0.4,0.5-0.7,0.8-1c0.1-0.2,0-0.5,0.1-0.7c0.3-0.5,0.4-1.2,0.6-1.7c0.5-0.7,0.7-1.6,1.5-1.9c0.5-0.1,1,0.1,1.5,0.5
		c0.1,0,0.3,0,0.4,0.1c0.5,0.4,0.9,1,1.4,1.5c0.2,0.2,0.3,0.6,0.2,0.7c-0.1,0.7-0.8,0.8-1.2,1.3c-0.8,1.2-1.5,2.4-2.3,3.6
		c-0.1,0.2-0.3,0.5-0.1,0.7c1.1,1,2,2.1,3.2,2.9c0.7,0.5,1.6,0.4,2.2,1.1c0.5,0.5,0.8,1.2,1.1,1.9c-2.7,1.7-5.8-1.1-8.7-1
		c-0.2,0-0.2,0.3-0.2,0.5c0.2,1.2,0.4,2.4,0.5,3.5c0.1,0.8,0.5,1.6,0.6,2.4c0.1,0.3,0.3,1.1-0.1,1c-0.5,0-1.1-0.1-1.4-0.8
		c-0.4-0.9-0.8-1.8-1.1-2.8c-0.1-0.3-0.2-0.5-0.1-0.8c0-0.5-0.3-0.9-0.4-1.2c-0.1-0.2-0.3,0.1-0.4,0.2c-0.4,0.5-0.8,1-1.1,1.6
		c-0.7,0.9-1.4,1.4-2.3,1.8c-0.7,0.2-1.7,0.4-2.1-0.6c0.2,0,0.4-0.5,0.3-0.6C1286,30.1,1287.4,29.2,1287.9,28.2z"/>
	<g>
		<path class="st1" d="M1405.4,40.6c0.1-0.2,0.2-0.3,0.3-0.4c0.1-0.1,0.3-0.2,0.4-0.3c0.2-0.1,0.3-0.1,0.5-0.1c0.2,0,0.4,0,0.5,0.1
			c0.2,0.1,0.3,0.2,0.4,0.3c0.1,0.1,0.2,0.3,0.3,0.4c0.1,0.2,0.1,0.3,0.1,0.5c0,0.2,0,0.4-0.1,0.5c-0.1,0.2-0.2,0.3-0.3,0.4
			c-0.1,0.1-0.3,0.2-0.4,0.3c-0.2,0.1-0.3,0.1-0.5,0.1c-0.2,0-0.4,0-0.5-0.1c-0.2-0.1-0.3-0.2-0.4-0.3c-0.1-0.1-0.2-0.3-0.3-0.4
			c-0.1-0.2-0.1-0.3-0.1-0.5C1405.3,40.9,1405.3,40.7,1405.4,40.6z M1405.6,41.5c0.1,0.1,0.1,0.3,0.2,0.4c0.1,0.1,0.2,0.2,0.4,0.2
			c0.1,0.1,0.3,0.1,0.4,0.1c0.2,0,0.3,0,0.4-0.1c0.1-0.1,0.3-0.1,0.4-0.2c0.1-0.1,0.2-0.2,0.2-0.4c0.1-0.1,0.1-0.3,0.1-0.5
			c0-0.2,0-0.3-0.1-0.4c-0.1-0.1-0.1-0.3-0.2-0.4c-0.1-0.1-0.2-0.2-0.4-0.2c-0.1-0.1-0.3-0.1-0.4-0.1c-0.2,0-0.3,0-0.4,0.1
			c-0.1,0.1-0.3,0.1-0.4,0.2c-0.1,0.1-0.2,0.2-0.2,0.4c-0.1,0.1-0.1,0.3-0.1,0.4C1405.5,41.3,1405.5,41.4,1405.6,41.5z M1406.7,40.3
			c0.2,0,0.3,0,0.4,0.1c0.1,0.1,0.1,0.2,0.1,0.3c0,0.1,0,0.2-0.1,0.3c-0.1,0.1-0.2,0.1-0.3,0.1l0.5,0.7h-0.3l-0.4-0.7h-0.3v0.7h-0.2
			v-1.6H1406.7z M1406.6,41c0.1,0,0.1,0,0.2,0c0,0,0.1,0,0.1,0c0,0,0.1,0,0.1-0.1c0,0,0-0.1,0-0.1c0-0.1,0-0.1,0-0.1
			c0,0,0-0.1-0.1-0.1c0,0-0.1,0-0.1,0c0,0-0.1,0-0.1,0h-0.3V41H1406.6z"/>
		<path class="st1" d="M1405.4,40.6c0.1-0.2,0.2-0.3,0.3-0.4c0.1-0.1,0.3-0.2,0.4-0.3c0.2-0.1,0.3-0.1,0.5-0.1c0.2,0,0.4,0,0.5,0.1
			c0.2,0.1,0.3,0.2,0.4,0.3c0.1,0.1,0.2,0.3,0.3,0.4c0.1,0.2,0.1,0.3,0.1,0.5c0,0.2,0,0.4-0.1,0.5c-0.1,0.2-0.2,0.3-0.3,0.4
			c-0.1,0.1-0.3,0.2-0.4,0.3c-0.2,0.1-0.3,0.1-0.5,0.1c-0.2,0-0.4,0-0.5-0.1c-0.2-0.1-0.3-0.2-0.4-0.3c-0.1-0.1-0.2-0.3-0.3-0.4
			c-0.1-0.2-0.1-0.3-0.1-0.5C1405.3,40.9,1405.3,40.7,1405.4,40.6z M1405.6,41.5c0.1,0.1,0.1,0.3,0.2,0.4c0.1,0.1,0.2,0.2,0.4,0.2
			c0.1,0.1,0.3,0.1,0.4,0.1c0.2,0,0.3,0,0.4-0.1c0.1-0.1,0.3-0.1,0.4-0.2c0.1-0.1,0.2-0.2,0.2-0.4c0.1-0.1,0.1-0.3,0.1-0.5
			c0-0.2,0-0.3-0.1-0.4c-0.1-0.1-0.1-0.3-0.2-0.4c-0.1-0.1-0.2-0.2-0.4-0.2c-0.1-0.1-0.3-0.1-0.4-0.1c-0.2,0-0.3,0-0.4,0.1
			c-0.1,0.1-0.3,0.1-0.4,0.2c-0.1,0.1-0.2,0.2-0.2,0.4c-0.1,0.1-0.1,0.3-0.1,0.4C1405.5,41.3,1405.5,41.4,1405.6,41.5z M1406.7,40.3
			c0.2,0,0.3,0,0.4,0.1c0.1,0.1,0.1,0.2,0.1,0.3c0,0.1,0,0.2-0.1,0.3c-0.1,0.1-0.2,0.1-0.3,0.1l0.5,0.7h-0.3l-0.4-0.7h-0.3v0.7h-0.2
			v-1.6H1406.7z M1406.6,41c0.1,0,0.1,0,0.2,0c0,0,0.1,0,0.1,0c0,0,0.1,0,0.1-0.1c0,0,0-0.1,0-0.1c0-0.1,0-0.1,0-0.1
			c0,0,0-0.1-0.1-0.1c0,0-0.1,0-0.1,0c0,0-0.1,0-0.1,0h-0.3V41H1406.6z"/>
	</g>
</g>
<g>
	<g>
		<g>
			<path class="st1" d="M833.9,35.9v6.2h7.2v-6.2h1.9v14.9h-1.9v-7h-7.2v7h-1.9V35.9H833.9z"/>
			<path class="st1" d="M855.5,45.3c0,4-2.7,5.7-5.3,5.7c-2.9,0-5.1-2.1-5.1-5.5c0-3.6,2.3-5.7,5.3-5.7
				C853.4,39.8,855.5,42.1,855.5,45.3z M847,45.4c0,2.3,1.3,4.1,3.3,4.1c1.9,0,3.3-1.7,3.3-4.2c0-1.8-0.9-4.1-3.2-4.1
				C848,41.3,847,43.4,847,45.4z"/>
			<path class="st1" d="M857.4,43c0-1.1,0-2-0.1-2.9h1.7l0.1,1.7h0.1c0.6-1,1.6-2,3.4-2c1.5,0,2.6,0.9,3,2.1h0
				c0.3-0.6,0.8-1.1,1.2-1.4c0.6-0.5,1.3-0.8,2.4-0.8c1.4,0,3.5,0.9,3.5,4.6v6.3h-1.9v-6.1c0-2.1-0.8-3.3-2.3-3.3
				c-1.1,0-2,0.8-2.3,1.8c-0.1,0.3-0.2,0.6-0.2,1v6.6h-1.9v-6.4c0-1.7-0.8-2.9-2.2-2.9c-1.2,0-2.1,1-2.4,1.9c-0.1,0.3-0.2,0.6-0.2,1
				v6.5h-1.9V43z"/>
			<path class="st1" d="M876.5,45.7c0,2.7,1.8,3.8,3.7,3.8c1.4,0,2.3-0.2,3-0.6l0.3,1.4c-0.7,0.3-1.9,0.7-3.6,0.7
				c-3.4,0-5.4-2.2-5.4-5.5s1.9-5.9,5.1-5.9c3.6,0,4.5,3.1,4.5,5.1c0,0.4,0,0.7-0.1,0.9H876.5z M882.3,44.3c0-1.3-0.5-3.2-2.8-3.2
				c-2,0-2.9,1.8-3,3.2H882.3z"/>
			<path class="st1" d="M888.7,46l-1.6,4.8h-2l5.2-15.2h2.4l5.2,15.2h-2.1L894,46H888.7z M893.6,44.5l-1.5-4.4
				c-0.3-1-0.6-1.9-0.8-2.8h0c-0.2,0.9-0.5,1.8-0.8,2.8l-1.5,4.4H893.6z"/>
			<path class="st1" d="M899.7,39.9l1.4,5.5c0.3,1.2,0.6,2.3,0.8,3.5h0.1c0.2-1.1,0.6-2.3,1-3.5l1.8-5.5h1.7l1.7,5.5
				c0.4,1.3,0.7,2.5,1,3.6h0.1c0.2-1.1,0.5-2.3,0.8-3.5l1.6-5.5h2L910,50.8h-1.8l-1.7-5.2c-0.4-1.2-0.7-2.3-1-3.6h0
				c-0.3,1.3-0.6,2.4-1,3.6l-1.8,5.2H901l-3.3-10.9H899.7z"/>
			<path class="st1" d="M922.6,48.2c0,0.9,0,1.9,0.2,2.6H921l-0.2-1.4h-0.1c-0.6,0.9-1.8,1.6-3.3,1.6c-2.2,0-3.3-1.6-3.3-3.1
				c0-2.6,2.3-4.1,6.6-4.1v-0.2c0-0.9-0.2-2.5-2.5-2.5c-1,0-2.1,0.3-2.8,0.8l-0.5-1.3c0.9-0.6,2.2-1,3.6-1c3.3,0,4.2,2.3,4.2,4.5
				V48.2z M920.7,45.2c-2.2,0-4.6,0.3-4.6,2.5c0,1.3,0.9,1.9,1.9,1.9c1.4,0,2.3-0.9,2.6-1.8c0.1-0.2,0.1-0.4,0.1-0.6V45.2z"/>
			<path class="st1" d="M925.8,39.9l2.4,6.5c0.2,0.7,0.5,1.6,0.7,2.2h0c0.2-0.7,0.4-1.5,0.7-2.3l2.2-6.4h2.1l-3,7.8
				c-1.4,3.7-2.4,5.4-3.7,6.5c-1,0.9-1.9,1.2-2.4,1.3l-0.5-1.7c0.5-0.2,1.2-0.5,1.7-1c0.5-0.4,1.2-1.2,1.7-2.2
				c0.1-0.2,0.2-0.4,0.2-0.5c0-0.1,0-0.3-0.1-0.5l-4-9.8H925.8z"/>
		</g>
		<g>
			<path class="st1" d="M819.3,27.5h-13l-7.6,9h2.7v9.6l-2.1,0.3c0,0-1,0.2-0.7,1.2c0.2,0.7,1,0.6,1,0.6l1.8-0.2v2.7l12.8,2.3
				l10.2-2.3l0-14.2h3L819.3,27.5z M816.7,38.3l2.8-0.1l0,3.7l-2.8,0.2L816.7,38.3z M802.3,50l0-2l5.6-0.8c0,0,1,0,0.9-1.1
				c-0.1-1-1.1-0.8-1.1-0.8l-5.4,0.6l0-9.4l5.8-7.4l6.1,7.4l0,15.6L802.3,50z M816.7,47.1l0-3.8l2.8-0.2l0,3.8L816.7,47.1z
				 M823,46.5l-2.3,0.2V43l2.3-0.2V46.5z M820.6,41.8l0-3.7L823,38l0,3.6L820.6,41.8z"/>
			<path class="st1" d="M810.6,36.7c-0.7-0.8-1.6-1.3-2.6-1.3c-0.1,0-0.1,0-0.2,0c-1,0.1-1.8,0.6-2.4,1.4c-0.6,0.8-1,1.8-1,3
				c0,0.1,0,0.2,0,0.3c0.1,1.2,0.5,2.2,1.1,3c0.7,0.8,1.6,1.3,2.6,1.3c0.1,0,0.1,0,0.2,0c1-0.1,1.8-0.6,2.4-1.4c0.6-0.8,1-1.8,1-3
				c0-0.1,0-0.2,0-0.3C811.7,38.5,811.3,37.4,810.6,36.7z M810.3,42.5c-0.5,0.6-1.2,1-1.9,1.1c0,0-0.1,0-0.1,0c-0.7,0-1.5-0.4-2-1
				c-0.5-0.6-0.9-1.5-1-2.5c0-0.1,0-0.2,0-0.3c0-1,0.3-1.9,0.8-2.5c0.5-0.6,1.2-1,1.9-1.1c0,0,0.1,0,0.1,0c0.7,0,1.5,0.4,2,1
				c0.5,0.6,0.9,1.5,1,2.5c0,0.1,0,0.2,0,0.3C811.1,40.9,810.8,41.8,810.3,42.5z"/>
			<path class="st1" d="M806.9,39.9c-0.1-1.3,0.3-2.4,1-2.8c-1.1,0.1-1.9,1.3-1.8,2.8c0.1,1.5,1,2.7,2.1,2.6l0,0
				C807.5,42.3,807,41.2,806.9,39.9z"/>
		</g>
	</g>
	<g>
		<path class="st1" d="M938.4,41.2c0,0.8-0.6,1.4-1.5,1.4c-0.8,0-1.5-0.6-1.5-1.4c0-0.8,0.7-1.4,1.5-1.4
			C937.8,39.8,938.4,40.4,938.4,41.2z M935.8,41.2c0,0.6,0.5,1.1,1.1,1.1c0.6,0,1.1-0.5,1.1-1.1c0-0.6-0.5-1.2-1.1-1.2
			C936.3,40.1,935.8,40.6,935.8,41.2z M936.7,41.9h-0.3v-1.4c0.1,0,0.3,0,0.5,0c0.3,0,0.4,0,0.5,0.1c0.1,0.1,0.1,0.2,0.1,0.3
			c0,0.2-0.1,0.3-0.3,0.3v0c0.1,0,0.2,0.2,0.3,0.3c0,0.2,0.1,0.3,0.1,0.3h-0.3c0-0.1-0.1-0.2-0.1-0.3c0-0.1-0.1-0.2-0.3-0.2h-0.2
			V41.9z M936.7,41.1h0.2c0.2,0,0.3-0.1,0.3-0.2c0-0.1-0.1-0.2-0.3-0.2c-0.1,0-0.1,0-0.2,0V41.1z"/>
	</g>
</g>
<g>
	<path class="st1" d="M96.4,109.2c-0.8,0-1.5-0.7-1.5-1.5c0-0.8,0.7-1.5,1.5-1.5c0.8,0,1.5,0.7,1.5,1.5
		C98,108.5,97.3,109.2,96.4,109.2z"/>
	<path class="st1" d="M62,117.6c0,3.7-3,6.7-6.7,6.7c-3.7,0-6.7-3-6.7-6.7c0-3.7,3-6.7,6.7-6.7C59,111,62,113.9,62,117.6z"/>
	<g>
		<path class="st1" d="M34.7,106.3h2.9v6.7h0.1c0.4-0.6,0.9-1.1,1.6-1.5c0.7-0.4,1.5-0.6,2.3-0.6c1.4,0,2.5,0.4,3.4,1.1
			c0.8,0.7,1.2,1.8,1.2,3.3v8.9h-2.9v-8.2c0-1-0.3-1.8-0.7-2.2c-0.4-0.5-1-0.7-1.9-0.7c-0.5,0-0.9,0.1-1.3,0.3
			c-0.4,0.2-0.7,0.4-1,0.7c-0.3,0.3-0.5,0.7-0.6,1.1c-0.2,0.4-0.2,0.9-0.2,1.3v7.7h-2.9V106.3z"/>
		<path class="st1" d="M64,111.3h2.2v-3.9H69v3.9h2.6v2.1H69v6.9c0,0.3,0,0.6,0,0.8c0,0.2,0.1,0.4,0.2,0.6c0.1,0.2,0.2,0.3,0.4,0.3
			c0.2,0.1,0.4,0.1,0.8,0.1c0.2,0,0.4,0,0.6,0c0.2,0,0.4,0,0.6-0.1v2.2c-0.3,0-0.6,0.1-0.9,0.1c-0.3,0-0.6,0.1-0.9,0.1
			c-0.8,0-1.4-0.1-1.8-0.2c-0.5-0.1-0.8-0.4-1.1-0.6c-0.3-0.3-0.4-0.6-0.5-1c-0.1-0.4-0.1-0.9-0.2-1.4v-7.7H64V111.3z"/>
		<path class="st1" d="M73.3,111.3h3l2.5,9.7H79l2.4-9.7h2.9l2.3,9.7h0.1l2.6-9.7h2.9l-4.1,13h-2.9l-2.4-9.6h-0.1l-2.4,9.6h-3
			L73.3,111.3z"/>
		<path class="st1" d="M95,111.3h2.9v13H95V111.3z"/>
		<path class="st1" d="M101.9,111.3h2.7v2.5h0.1c0.1-0.4,0.2-0.7,0.5-1c0.2-0.3,0.5-0.6,0.9-0.9c0.3-0.3,0.7-0.5,1.1-0.7
			c0.4-0.2,0.8-0.3,1.3-0.3c0.3,0,0.6,0,0.7,0c0.1,0,0.3,0,0.4,0.1v2.8c-0.2,0-0.4-0.1-0.6-0.1c-0.2,0-0.4,0-0.6,0
			c-0.5,0-0.9,0.1-1.4,0.3c-0.4,0.2-0.8,0.5-1.1,0.9c-0.3,0.4-0.6,0.8-0.8,1.4c-0.2,0.6-0.3,1.2-0.3,1.9v6.2h-2.9V111.3z"/>
	</g>
	<path class="st1" d="M113.4,118.6c0,0.5,0.1,1,0.2,1.5c0.1,0.5,0.4,0.9,0.6,1.2c0.3,0.4,0.6,0.6,1.1,0.8c0.4,0.2,1,0.3,1.6,0.3
		c0.8,0,1.5-0.2,2-0.5c0.5-0.4,0.9-0.9,1.1-1.6h2.7c-0.2,0.7-0.4,1.3-0.8,1.9c-0.4,0.6-0.8,1-1.3,1.4c-0.5,0.4-1.1,0.7-1.7,0.9
		c-0.6,0.2-1.3,0.3-2,0.3c-1,0-1.9-0.2-2.7-0.5c-0.8-0.3-1.5-0.8-2-1.4c-0.5-0.6-1-1.3-1.2-2.2c-0.3-0.8-0.4-1.8-0.4-2.8
		c0-0.9,0.1-1.8,0.4-2.6c0.3-0.8,0.7-1.6,1.3-2.2c0.5-0.6,1.2-1.1,2-1.5c0.8-0.4,1.6-0.6,2.6-0.6c1,0,1.9,0.2,2.8,0.6
		c0.8,0.4,1.5,1,2,1.7c0.5,0.7,0.9,1.5,1.2,2.4c0.2,0.9,0.3,1.9,0.2,2.8H113.4z M120.1,116.7c0-0.5-0.1-0.9-0.3-1.3
		c-0.2-0.4-0.4-0.8-0.7-1.1c-0.3-0.3-0.6-0.6-1-0.8c-0.4-0.2-0.8-0.3-1.3-0.3c-0.5,0-1,0.1-1.4,0.3c-0.4,0.2-0.8,0.4-1.1,0.7
		c-0.3,0.3-0.5,0.7-0.7,1.1c-0.2,0.4-0.3,0.9-0.3,1.4H120.1z"/>
	<g>
		<path class="st1" d="M123.2,110.5c0.6,0,1.1,0.5,1.1,1.1c0,0.6-0.5,1.1-1.1,1.1c-0.6,0-1.1-0.5-1.1-1.1
			C122.1,111,122.6,110.5,123.2,110.5z M123.2,112.5c0.5,0,0.9-0.4,0.9-0.9c0-0.5-0.4-0.9-0.9-0.9c-0.5,0-0.9,0.4-0.9,0.9
			C122.3,112.1,122.7,112.5,123.2,112.5z M122.8,111h0.5c0.3,0,0.4,0.1,0.4,0.4c0,0.2-0.1,0.3-0.3,0.3l0.4,0.6h-0.2l-0.3-0.5H123
			v0.5h-0.2V111z M123,111.5h0.2c0.2,0,0.3,0,0.3-0.2c0-0.2-0.1-0.2-0.3-0.2H123V111.5z"/>
	</g>
</g>
<g>
	<path class="st1" d="M248.2,129c0,1.5-1,2.4-2.6,2.4c-1.5,0-2.6-1-2.6-2.4c0-1.4,1-2.4,2.6-2.4C247.2,126.6,248.2,127.6,248.2,129z
		"/>
	<path class="st1" d="M241.6,121.3c0.9-1.8,1.4-3.9,1.4-6.2c0-7.6-5.5-12.7-13.5-12.7c-7.9,0-13.5,5-13.5,12.7
		c0,7.7,5.5,12.8,13.5,12.8c2.4,0,8.3,0,9.6,0c2.3,0,3.8-1.5,3.8-3.7C243.1,123,242.5,122,241.6,121.3z M226.6,123.8h-3.7v-10.9h3.7
		V123.8z M225,110.9c-1.2,0-2.2-0.9-2.2-2.2c0-1.3,1-2.2,2.2-2.2c1.2,0,2.2,0.9,2.2,2.2C227.2,110,226.1,110.9,225,110.9z
		 M236.5,109.8c-0.4-0.1-0.8-0.1-1.2-0.1c-1.1,0-1.6,0.6-1.6,1.9v1.2h2.8v3.3h-2.8v7.7h-3.7v-7.7H228v-3.3h2.1v-1.4
		c0-3.2,1.9-4.9,4.6-4.9c0.7,0,1.3,0.1,1.9,0.2V109.8z"/>
	<g>
		<path class="st1" d="M181.1,123.8l-2.3-6.9l-2.3,6.9h-4.1l-4-12.8h4.3l2,7.2l2.5-7.2h3.2l2.5,7.3l2-7.3h4.3l-4,12.8H181.1z"/>
		<path class="st1" d="M203.4,117.3c0,4.1-3,6.9-7.3,6.9c-4.3,0-7.3-2.8-7.3-6.9c0-4.1,3-6.8,7.3-6.8
			C200.5,110.5,203.4,113.2,203.4,117.3z M199.3,117.3c0-1.9-1.3-3.2-3.2-3.2s-3.2,1.3-3.2,3.2c0,2,1.3,3.2,3.2,3.2
			S199.3,119.3,199.3,117.3z"/>
		<path class="st1" d="M214.2,120.3c-0.6,0.1-1.1,0.1-1.5,0.1c-1.3,0-1.8-0.8-1.8-2v-3.5h3.4V111h-3.4v-4.4h-4.3v4.4h-2.5v3.8h2.5
			v3.9c0,3.5,1.8,5.4,5,5.4c1.1,0,1.8-0.1,2.7-0.2V120.3z"/>
	</g>
</g>
<g>
	<g>
		<path class="st1" d="M392.5,124.2c-0.6,0-1.1-0.5-1.1-1.2s0.5-1.2,1.1-1.2c0.6,0,1.1,0.5,1.1,1.2
			C393.6,123.7,393.1,124.2,392.5,124.2L392.5,124.2z"/>
		<path class="st1" d="M400.4,123.7c-0.3,0.2-1.1,0.4-2.1,0.4c-2.2,0-3.6-1.5-3.6-3.7c0-2.2,1.5-3.9,3.9-3.9c0.8,0,1.5,0.2,1.8,0.4
			l-0.3,1c-0.3-0.2-0.8-0.3-1.5-0.3c-1.7,0-2.6,1.2-2.6,2.8c0,1.7,1.1,2.7,2.5,2.7c0.8,0,1.2-0.2,1.6-0.3L400.4,123.7z"/>
		<path class="st1" d="M404.5,124.1c-2,0-3.5-1.4-3.5-3.7c0-2.4,1.6-3.9,3.6-3.9c2.1,0,3.5,1.5,3.5,3.7
			C408.1,123,406.2,124.1,404.5,124.1L404.5,124.1z M404.5,123.1c1.3,0,2.2-1.2,2.2-2.8c0-1.2-0.6-2.8-2.2-2.8
			c-1.6,0-2.2,1.4-2.2,2.8C402.3,121.9,403.2,123.1,404.5,123.1L404.5,123.1z"/>
		<path class="st1" d="M409.8,118.7c0-0.8,0-1.4-0.1-2h1.2l0.1,1.2h0c0.4-0.7,1.1-1.3,2.3-1.3c1,0,1.7,0.6,2,1.5h0
			c0.2-0.4,0.5-0.7,0.8-0.9c0.4-0.3,0.9-0.5,1.6-0.5c1,0,2.4,0.6,2.4,3.2v4.3h-1.3v-4.1c0-1.4-0.5-2.2-1.6-2.2
			c-0.8,0-1.3,0.6-1.6,1.2c-0.1,0.2-0.1,0.4-0.1,0.7v4.5h-1.3v-4.4c0-1.2-0.5-2-1.5-2c-0.8,0-1.4,0.7-1.6,1.3
			c-0.1,0.2-0.1,0.4-0.1,0.6v4.4h-1.3V118.7z"/>
	</g>
	<g>
		<path class="st1" d="M298.7,110.8c-4.5,0-6.5,3.6-6.5,6.9c0,4,2.5,6.6,6.9,6.6c1.7,0,3.3-0.3,4.7-0.8l-0.5-2.7
			c-1.1,0.3-2.2,0.5-3.6,0.5c-1.9,0-3.5-0.8-3.6-2.4h8.3c0.1-0.3,0.1-0.9,0.1-1.6C304.4,114.1,302.8,110.8,298.7,110.8z M296,116.1
			c0.1-1.1,0.8-2.6,2.5-2.6c1.8,0,2.3,1.6,2.3,2.6H296z"/>
		<path class="st1" d="M313.4,110.8c-1.8,0-3.1,0.7-3.9,1.8h-0.1v-7.3h-4v14.8c0,1.4-0.1,3-0.1,3.8h3.4l0.2-1.8h0.1
			c0.9,1.5,2.4,2.1,3.9,2.1c2.9,0,5.9-2.3,5.9-6.9C318.8,113.4,316.5,110.8,313.4,110.8z M311.9,121.1c-1.2,0-2.1-0.8-2.3-1.9
			c-0.1-0.2-0.1-0.4-0.1-0.7v-1.9c0-0.3,0-0.5,0.1-0.7c0.3-1.2,1.3-2,2.3-2c1.9,0,2.8,1.6,2.8,3.6
			C314.7,119.8,313.6,121.1,311.9,121.1z"/>
		<path class="st1" d="M326.5,110.8c-4.1,0-6.9,2.7-6.9,6.8c0,4.2,2.9,6.6,6.7,6.6c3.4,0,6.8-2.2,6.8-6.9
			C333.1,113.5,330.4,110.8,326.5,110.8z M326.4,121.4c-1.7,0-2.6-1.7-2.6-3.9c0-1.9,0.7-3.9,2.6-3.9c1.8,0,2.5,1.9,2.5,3.9
			C328.9,119.8,327.9,121.4,326.4,121.4z"/>
		<path class="st1" d="M340.7,110.8c-4.1,0-6.9,2.7-6.9,6.8c0,4.2,2.9,6.6,6.7,6.6c3.4,0,6.8-2.2,6.8-6.9
			C347.3,113.5,344.6,110.8,340.7,110.8z M340.6,121.4c-1.7,0-2.6-1.7-2.6-3.9c0-1.9,0.7-3.9,2.6-3.9c1.8,0,2.6,1.9,2.6,3.9
			C343.1,119.8,342.1,121.4,340.6,121.4z"/>
		<path id="XMLID_5_" class="st1" d="M360.5,111.1h-4.8L353,115c-0.3,0.5-0.6,1-0.9,1.6h-0.1v-11.2h-4V124h4v-4l1-1.3l3.1,5.3h4.9
			l-5.3-7.7L360.5,111.1z"/>
		<path class="st1" d="M366.2,110.8c-4.5,0-6.5,3.6-6.5,6.9c0,4,2.5,6.6,6.9,6.6c1.7,0,3.3-0.3,4.7-0.8l-0.5-2.7
			c-1.1,0.3-2.2,0.5-3.6,0.5c-1.9,0-3.5-0.8-3.6-2.4h8.3c0.1-0.3,0.1-0.9,0.1-1.6C372,114.1,370.4,110.8,366.2,110.8z M363.5,116.1
			c0.1-1.1,0.8-2.6,2.5-2.6c1.8,0,2.3,1.6,2.3,2.6H363.5z"/>
		<path id="XMLID_2_" class="st1" d="M376.8,113.5h-0.1l-0.1-2.4h-3.4c0.1,1.1,0.1,2.3,0.1,4.2v8.6h4v-6.5c0-0.3,0-0.6,0.1-0.9
			c0.3-1.2,1.3-2,2.7-2c0.4,0,0.8,0.1,1.1,0.1v-3.8c-0.3-0.1-0.5-0.1-0.8-0.1C379,110.8,377.4,111.6,376.8,113.5z"/>
		<path id="XMLID_1_" class="st1" d="M387.9,116.1c-1.6-0.6-2.1-0.9-2.1-1.5c0-0.7,0.6-1.1,1.5-1.1c1.1,0,2.2,0.4,2.8,0.7l0.7-2.8
			c-0.8-0.4-2.1-0.7-3.6-0.7c-3.2,0-5.2,1.8-5.2,4.2c0,1.5,1,3,3.7,3.9c1.5,0.5,1.9,0.8,1.9,1.5c0,0.7-0.5,1.1-1.7,1.1
			c-1.2,0-2.7-0.5-3.4-1l-0.7,2.9c1,0.5,2.5,0.9,4.2,0.9c3.7,0,5.6-1.8,5.6-4.2C391.4,118.2,390.3,116.9,387.9,116.1z"/>
	</g>
</g>
<g>
	<path class="st1" d="M850.2,123.5l-6.4-19.7h2.7l3.1,9.7c0.8,2.7,1.6,5,2.1,7.3h0.1c0.6-2.3,1.4-4.8,2.2-7.3l3.3-9.7h2.7l-7,19.7
		H850.2L850.2,123.5z"/>
	<path class="st1" d="M862.2,104.1c1.3-0.3,3.1-0.4,4.9-0.4c2.7,0,4.5,0.5,5.7,1.6c1,0.9,1.5,2.2,1.5,3.7c0,2.6-1.6,4.3-3.7,5v0.1
		c1.5,0.5,2.4,1.9,2.9,4c0.6,2.7,1.1,4.6,1.5,5.4h-2.6c-0.3-0.6-0.8-2.2-1.3-4.7c-0.6-2.7-1.6-3.7-3.9-3.8h-2.4v8.5h-2.5V104.1
		L862.2,104.1z M864.7,113.1h2.6c2.7,0,4.4-1.5,4.4-3.7c0-2.5-1.8-3.6-4.5-3.7c-1.2,0-2.1,0.1-2.5,0.2V113.1L864.7,113.1z"/>
	<path class="st1" d="M877.9,104.1c1.1-0.2,2.9-0.4,4.6-0.4c2.5,0,4.2,0.4,5.4,1.4c1,0.8,1.6,1.9,1.6,3.5c0,1.9-1.3,3.6-3.3,4.3v0.1
		c1.9,0.5,4.1,2,4.1,4.9c0,1.7-0.7,3-1.7,3.9c-1.4,1.3-3.6,1.8-6.8,1.8c-1.7,0-3.1-0.1-3.9-0.2V104.1L877.9,104.1z M880.4,112.2h2.3
		c2.7,0,4.3-1.4,4.3-3.3c0-2.3-1.8-3.2-4.3-3.2c-1.2,0-1.8,0.1-2.2,0.2V112.2L880.4,112.2z M880.4,121.6c0.5,0.1,1.2,0.1,2.1,0.1
		c2.6,0,5-1,5-3.8c0-2.7-2.3-3.8-5.1-3.8h-2.1V121.6L880.4,121.6z"/>
	<path class="st1" d="M910.5,113.5c0,6.8-4.1,10.4-9.1,10.4c-5.2,0-8.8-4-8.8-10c0-6.2,3.9-10.3,9.1-10.3
		C907,103.6,910.5,107.7,910.5,113.5L910.5,113.5z M895.2,113.8c0,4.2,2.3,8,6.3,8c4,0,6.3-3.7,6.3-8.2c0-3.9-2-8-6.3-8
		C897.3,105.6,895.2,109.5,895.2,113.8L895.2,113.8z"/>
	<path class="st1" d="M912.9,102.9c1.2,0,2.2,1,2.2,2.2c0,1.2-1,2.2-2.2,2.2c-1.2,0-2.2-1-2.2-2.2
		C910.6,103.9,911.6,102.9,912.9,102.9L912.9,102.9L912.9,102.9z M912.9,103.4c-1,0-1.7,0.8-1.7,1.7c0,1,0.7,1.7,1.7,1.7
		c1,0,1.7-0.8,1.7-1.7C914.6,104.2,913.9,103.4,912.9,103.4L912.9,103.4L912.9,103.4z M912.5,106.3H912v-2.2c0.2,0,0.5-0.1,0.8-0.1
		c0.4,0,0.6,0.1,0.8,0.2c0.1,0.1,0.2,0.3,0.2,0.5c0,0.3-0.2,0.4-0.5,0.5v0c0.2,0.1,0.3,0.2,0.4,0.5c0.1,0.3,0.1,0.5,0.2,0.5h-0.5
		c-0.1-0.1-0.1-0.3-0.2-0.5c0-0.2-0.2-0.3-0.5-0.3h-0.2V106.3L912.5,106.3z M912.6,105h0.2c0.3,0,0.5-0.1,0.5-0.3
		c0-0.2-0.1-0.3-0.5-0.3c-0.1,0-0.2,0-0.3,0V105L912.6,105z"/>
</g>
<g>
	<path class="st1" d="M964.5,123.8l-5.4-16.5h2.3l2.6,8.1c0.7,2.2,1.3,4.2,1.8,6.2h0.1c0.5-1.9,1.2-4,1.9-6.2l2.8-8.2h2.3l-5.9,16.5
		H964.5L964.5,123.8z"/>
	<path class="st1" d="M981.5,120.7c0,1,0,2,0.2,2.8h-2l-0.2-1.5h-0.1c-0.7,0.9-1.9,1.8-3.6,1.8c-2.4,0-3.6-1.7-3.6-3.4
		c0-2.9,2.5-4.4,7.1-4.4v-0.2c0-1-0.3-2.7-2.7-2.7c-1.1,0-2.3,0.3-3.1,0.9l-0.5-1.4c1-0.6,2.4-1.1,3.9-1.1c3.6,0,4.5,2.5,4.5,4.9
		V120.7L981.5,120.7z M979.4,117.5c-2.4,0-5,0.4-5,2.7c0,1.4,0.9,2.1,2,2.1c1.5,0,2.5-1,2.9-2c0.1-0.2,0.1-0.5,0.1-0.7V117.5
		L979.4,117.5z"/>
	<path class="st1" d="M992.9,123.1c-0.6,0.3-1.8,0.7-3.4,0.7c-3.6,0-5.9-2.5-5.9-6.1c0-3.7,2.5-6.3,6.4-6.3c1.3,0,2.4,0.3,3,0.6
		l-0.5,1.7c-0.5-0.3-1.3-0.6-2.5-0.6c-2.7,0-4.2,2-4.2,4.5c0,2.7,1.8,4.4,4.1,4.4c1.2,0,2-0.3,2.6-0.6L992.9,123.1L992.9,123.1z"/>
	<path class="st1" d="M1003.3,120.7c0,1,0.1,2,0.2,2.8h-2l-0.2-1.5h-0.1c-0.7,0.9-1.9,1.8-3.6,1.8c-2.4,0-3.6-1.7-3.6-3.4
		c0-2.9,2.5-4.4,7.1-4.4v-0.2c0-1-0.3-2.7-2.7-2.7c-1.1,0-2.3,0.3-3.1,0.9l-0.5-1.4c1-0.6,2.4-1.1,3.9-1.1c3.6,0,4.5,2.5,4.5,4.9
		V120.7L1003.3,120.7z M1001.2,117.5c-2.4,0-5,0.4-5,2.7c0,1.4,0.9,2.1,2,2.1c1.5,0,2.5-1,2.9-2c0.1-0.2,0.1-0.5,0.1-0.7V117.5
		L1001.2,117.5z"/>
	<path class="st1" d="M1008.8,108.9v2.8h3.1v1.6h-3.1v6.4c0,1.5,0.4,2.3,1.6,2.3c0.6,0,0.9,0,1.3-0.1l0.1,1.6
		c-0.4,0.2-1.1,0.3-1.9,0.3c-1,0-1.8-0.3-2.3-0.9c-0.6-0.6-0.8-1.7-0.8-3.1v-6.5h-1.8v-1.6h1.8v-2.2L1008.8,108.9L1008.8,108.9z"/>
	<path class="st1" d="M1016.2,108.6c0,0.7-0.5,1.3-1.4,1.3c-0.8,0-1.3-0.6-1.3-1.3c0-0.8,0.6-1.4,1.3-1.4
		C1015.7,107.3,1016.2,107.9,1016.2,108.6L1016.2,108.6z M1013.8,123.8V112h2.2v11.9H1013.8L1013.8,123.8z"/>
	<path class="st1" d="M1029.7,117.5c0,4.4-3,6.3-5.9,6.3c-3.2,0-5.7-2.4-5.7-6.1c0-4,2.6-6.3,5.9-6.3
		C1027.4,111.4,1029.7,113.9,1029.7,117.5L1029.7,117.5z M1020.3,117.7c0,2.6,1.5,4.6,3.6,4.6c2.1,0,3.6-1.9,3.6-4.6
		c0-2-1-4.6-3.6-4.6C1021.4,113.1,1020.3,115.4,1020.3,117.7L1020.3,117.7z"/>
	<path class="st1" d="M1031.9,115.2c0-1.2,0-2.2-0.1-3.2h1.9l0.1,2h0c0.6-1.1,2-2.2,3.9-2.2c1.6,0,4.2,1,4.2,5.1v7.1h-2.2V117
		c0-1.9-0.7-3.5-2.7-3.5c-1.4,0-2.5,1-2.9,2.2c-0.1,0.3-0.1,0.6-0.1,1v7.1h-2.2V115.2L1031.9,115.2z"/>
	<path class="st1" d="M1045.1,107.5c1.1-0.2,2.6-0.3,4.1-0.3c2.3,0,3.8,0.4,4.8,1.4c0.8,0.7,1.3,1.9,1.3,3.1c0,2.2-1.4,3.6-3.1,4.2
		v0.1c1.3,0.4,2,1.6,2.4,3.3c0.5,2.3,0.9,3.9,1.3,4.5h-2.2c-0.3-0.5-0.6-1.9-1.1-3.9c-0.5-2.3-1.4-3.1-3.3-3.2h-2v7.2h-2.1V107.5
		L1045.1,107.5z M1047.2,115.1h2.2c2.3,0,3.7-1.3,3.7-3.1c0-2.1-1.5-3.1-3.8-3.1c-1,0-1.8,0.1-2.1,0.2V115.1L1047.2,115.1z"/>
	<path class="st1" d="M1059,118c0.1,2.9,1.9,4.1,4.1,4.1c1.5,0,2.5-0.3,3.3-0.6l0.4,1.5c-0.8,0.3-2.1,0.8-3.9,0.8
		c-3.7,0-5.8-2.4-5.8-6c0-3.6,2.1-6.4,5.6-6.4c3.9,0,4.9,3.4,4.9,5.6c0,0.4,0,0.8-0.1,1H1059L1059,118z M1065.3,116.5
		c0-1.4-0.6-3.5-3-3.5c-2.2,0-3.1,2-3.3,3.5H1065.3L1065.3,116.5z"/>
	<path class="st1" d="M1069.6,115.2c0-1.2,0-2.2-0.1-3.2h1.9l0.1,2h0c0.6-1.1,2-2.2,3.9-2.2c1.6,0,4.2,1,4.2,5.1v7.1h-2.2V117
		c0-1.9-0.7-3.5-2.7-3.5c-1.4,0-2.5,1-2.9,2.2c-0.1,0.3-0.1,0.6-0.1,1v7.1h-2.2V115.2L1069.6,115.2z"/>
	<path class="st1" d="M1085.2,108.9v2.8h3.1v1.6h-3.1v6.4c0,1.5,0.4,2.3,1.6,2.3c0.6,0,0.9,0,1.3-0.1l0.1,1.6
		c-0.4,0.2-1.1,0.3-1.9,0.3c-1,0-1.8-0.3-2.3-0.9c-0.6-0.6-0.8-1.7-0.8-3.1v-6.5h-1.8v-1.6h1.8v-2.2L1085.2,108.9L1085.2,108.9z"/>
	<path class="st1" d="M1098.5,120.7c0,1,0.1,2,0.2,2.8h-2l-0.2-1.5h-0.1c-0.7,0.9-1.9,1.8-3.6,1.8c-2.4,0-3.6-1.7-3.6-3.4
		c0-2.9,2.5-4.4,7.1-4.4v-0.2c0-1-0.3-2.7-2.7-2.7c-1.1,0-2.3,0.3-3.1,0.9l-0.5-1.4c1-0.6,2.4-1.1,3.9-1.1c3.6,0,4.5,2.5,4.5,4.9
		V120.7L1098.5,120.7z M1096.4,117.5c-2.4,0-5,0.4-5,2.7c0,1.4,0.9,2.1,2,2.1c1.5,0,2.5-1,2.9-2c0.1-0.2,0.1-0.5,0.1-0.7V117.5
		L1096.4,117.5z"/>
	<polygon class="st1" points="1101.5,106.4 1103.6,106.4 1103.6,123.8 1101.5,123.8 1101.5,106.4 	"/>
	<path class="st1" d="M1106.5,121.4c0.6,0.4,1.8,0.9,2.8,0.9c1.6,0,2.3-0.8,2.3-1.8c0-1-0.6-1.6-2.2-2.2c-2.1-0.8-3.1-1.9-3.1-3.4
		c0-1.9,1.5-3.5,4.1-3.5c1.2,0,2.3,0.3,2.9,0.7l-0.5,1.6c-0.5-0.3-1.3-0.7-2.4-0.7c-1.3,0-2,0.7-2,1.6c0,1,0.7,1.4,2.3,2
		c2.1,0.8,3.1,1.8,3.1,3.6c0,2.1-1.6,3.6-4.4,3.6c-1.3,0-2.5-0.3-3.3-0.8L1106.5,121.4L1106.5,121.4z"/>
	<path class="st1" d="M1116.6,123.8c-0.8,0-1.4-0.7-1.4-1.5c0-0.9,0.6-1.5,1.5-1.5c0.9,0,1.4,0.6,1.4,1.5
		C1118.1,123.2,1117.5,123.8,1116.6,123.8L1116.6,123.8L1116.6,123.8z"/>
	<path class="st1" d="M1128.7,123.1c-0.6,0.3-1.8,0.7-3.4,0.7c-3.6,0-5.9-2.5-5.9-6.1c0-3.7,2.5-6.3,6.4-6.3c1.3,0,2.4,0.3,3,0.6
		l-0.5,1.7c-0.5-0.3-1.3-0.6-2.5-0.6c-2.7,0-4.2,2-4.2,4.5c0,2.7,1.8,4.4,4.1,4.4c1.2,0,2-0.3,2.6-0.6L1128.7,123.1L1128.7,123.1z"
		/>
	<path class="st1" d="M1141.3,117.5c0,4.4-3,6.3-5.9,6.3c-3.2,0-5.7-2.4-5.7-6.1c0-4,2.6-6.3,5.9-6.3
		C1139,111.4,1141.3,113.9,1141.3,117.5L1141.3,117.5z M1131.9,117.7c0,2.6,1.5,4.6,3.6,4.6c2.1,0,3.6-1.9,3.6-4.6
		c0-2-1-4.6-3.6-4.6S1131.9,115.4,1131.9,117.7L1131.9,117.7z"/>
	<path class="st1" d="M1143.5,115.2c0-1.2,0-2.2-0.1-3.2h1.9l0.1,1.9h0.1c0.7-1.1,1.8-2.2,3.7-2.2c1.6,0,2.8,1,3.4,2.4h0.1
		c0.4-0.7,0.8-1.2,1.3-1.5c0.7-0.5,1.5-0.8,2.6-0.8c1.6,0,3.9,1,3.9,5.1v7h-2.1v-6.7c0-2.3-0.8-3.7-2.6-3.7c-1.2,0-2.2,0.9-2.5,2
		c-0.1,0.3-0.2,0.7-0.2,1.1v7.3h-2.1v-7.1c0-1.9-0.8-3.3-2.5-3.3c-1.3,0-2.3,1.1-2.7,2.2c-0.1,0.3-0.2,0.7-0.2,1.1v7.2h-2.1V115.2
		L1143.5,115.2z"/>
	<polygon class="st1" points="1164.4,121.1 1164.4,121.4 1163.5,121.4 1163.5,123.8 1163.1,123.8 1163.1,121.4 1162.2,121.4
		1162.2,121.1 1164.4,121.1 	"/>
	<path class="st1" d="M1167.7,123.8l-0.1-1.9c0-0.2,0-0.4,0-0.6h0c-0.1,0.2-0.2,0.4-0.2,0.7l-0.6,1.8h-0.4l-0.6-1.8
		c-0.1-0.2-0.2-0.4-0.2-0.6h0c0,0.2,0,0.4,0,0.6l-0.1,1.9h-0.4l0.2-2.8h0.5l0.6,1.8c0.1,0.2,0.1,0.4,0.2,0.6h0
		c0.1-0.2,0.1-0.4,0.2-0.6l0.7-1.8h0.5l0.2,2.8H1167.7L1167.7,123.8z"/>
</g>
<g>
	<path class="st1" d="M613.9,39.6c-0.3,0.1-0.3,0.4,0,0.4c0.5,0,2.6-0.1,4.6,0.1c2.2,0.2,4.4,0.8,6.1,1.4c1.7,0.6,5.4,2.7,5.4,2.7
		s-4.8,2.7-6.4,6.7c-0.1,0.2,0,0.3,0.3,0.1c6.1-3.6,10.4-5.9,17.8-7.3c0.5-0.1,0.4-0.2,0-0.3c-0.4-0.1-1.8-0.4-5.5-1.7
		c-3.7-1.4-7.2-2.6-11.4-3c-0.6,0-1.2-0.1-1.9-0.1C618.6,38.7,614,39.6,613.9,39.6"/>
	<path class="st1" d="M643.6,36.2c-1.2,1.4-3.6,3.2-5.9,4.1c-0.3,0.1-0.2,0.3-0.1,0.4c0,0,0.2,0.1,0.4,0.2l3.1,1
		c0.3,0.1,0.2,0.1,0.3,0c1.6-1.6,2.3-4,2.3-5.5c0,0,0-0.2,0-0.2C643.7,36,643.6,36.1,643.6,36.2"/>
	<path class="st1" d="M698.8,51.1h-2c-0.1,0-0.2-0.1-0.3-0.2l-5.9-10.1v9.9c0,0.2-0.2,0.4-0.4,0.4h-2c-0.2,0-0.4-0.2-0.4-0.4V36.4
		c0-0.2,0.2-0.4,0.4-0.4h2c0.1,0,0.2,0.1,0.3,0.2l5.9,9.7v-9.5c0-0.2,0.2-0.4,0.4-0.4h1.9c0.2,0,0.4,0.2,0.4,0.4v14.4
		C699.2,51,699,51.1,698.8,51.1L698.8,51.1z"/>
	<path class="st1" d="M719.5,51.1h-2c-0.2,0-0.4-0.2-0.4-0.4V36.4c0-0.2,0.2-0.4,0.4-0.4h2c0.2,0,0.4,0.2,0.4,0.4v14.4
		C719.8,51,719.7,51.1,719.5,51.1L719.5,51.1z"/>
	<path class="st1" d="M708.3,51.3c-1.8,0-3.4-0.7-4.5-2c-1.1-1.3-1.7-3.4-1.7-5.5v-0.5c0-1.4,0.3-3,0.8-4.1c0.5-1.1,1.3-1.9,2.2-2.5
		c1-0.6,2.1-0.9,3.3-0.9c1.7,0,3,0.5,4,1.4c0.8,0.7,1.4,1.7,1.6,2.9c0,0.1,0,0.2-0.1,0.3c-0.1,0.1-0.2,0.1-0.3,0.1h-2
		c-0.2,0-0.3-0.1-0.3-0.3c-0.2-0.7-0.5-1.2-0.8-1.5c-0.5-0.5-1.2-0.7-2.1-0.7c-1.1,0-2,0.4-2.7,1.2c-0.7,0.8-1,2.5-1,4v0.6
		c0,1.5,0.3,3.1,0.9,3.9c0.6,0.8,1.4,1.2,2.5,1.2c1,0,1.8-0.2,2.3-0.6c0.4-0.3,0.7-0.8,0.9-1.6c0-0.2,0.2-0.3,0.3-0.3h2
		c0.1,0,0.2,0,0.3,0.1c0.1,0.1,0.1,0.2,0.1,0.3c-0.3,1.2-0.9,2.2-1.7,3C711.4,50.9,710,51.3,708.3,51.3L708.3,51.3z"/>
	<path class="st1" d="M657.5,51.1h-7.4c-0.2,0-0.4-0.2-0.4-0.4V36.4c0-0.2,0.2-0.4,0.4-0.4h7.4c0.2,0,0.4,0.2,0.4,0.4v1.6
		c0,0.2-0.2,0.4-0.4,0.4h-5.1v3.9h5.1c0.2,0,0.4,0.2,0.4,0.4v1.6c0,0.2-0.2,0.4-0.4,0.4h-5.1v4.4h5.1c0.2,0,0.4,0.2,0.4,0.4v1.6
		C657.8,51,657.7,51.1,657.5,51.1L657.5,51.1z"/>
	<path class="st1" d="M683.8,51.1h-7.4c-0.2,0-0.4-0.2-0.4-0.4V36.4c0-0.2,0.2-0.4,0.4-0.4h7.4c0.2,0,0.4,0.2,0.4,0.4v1.6
		c0,0.2-0.2,0.4-0.4,0.4h-5.1v3.9h5.1c0.2,0,0.4,0.2,0.4,0.4v1.6c0,0.2-0.2,0.4-0.4,0.4h-5.1v4.4h5.1c0.2,0,0.4,0.2,0.4,0.4v1.6
		C684.1,51,683.9,51.1,683.8,51.1L683.8,51.1z"/>
	<path class="st1" d="M735.7,50.6l-5.5-14.4c-0.1-0.1-0.2-0.2-0.3-0.2h-1.7c-0.1,0-0.3,0.1-0.3,0.2l-5.5,14.4c0,0.1,0,0.2,0,0.3
		c0.1,0.1,0.2,0.2,0.3,0.2h2c0.2,0,0.4,0,0.4,0c2.3-2.5,5.7-3.7,6.7-4l1.4,3.8c0.1,0.1,0.2,0.2,0.3,0.2h1.9c0.1,0,0.2-0.1,0.3-0.2
		C735.8,50.9,735.8,50.8,735.7,50.6L735.7,50.6z M726.7,47.2l-0.4,0.2l0.1-0.3l0.6-1.6l2.1-5.8l2.3,6.2
		C729.6,46.3,728.3,46.6,726.7,47.2L726.7,47.2z"/>
	<path class="st1" d="M667,51.3c-1.2,0-2.4-0.3-3.4-0.9c-1-0.6-1.7-1.4-2.3-2.5c-0.5-1.1-0.8-2.3-0.8-3.7V43c0-2.2,0.5-4,1.6-5.3
		c1.1-1.3,2.6-1.9,4.6-1.9c1.6,0,2.9,0.4,3.9,1.2h0c0.7,0.6,1.2,1.4,1.6,2.3c0,0.1,0,0.2,0,0.3c-0.1,0.1-0.2,0.1-0.3,0.1h-2
		c-0.1,0-0.3-0.1-0.3-0.2c-0.5-1-1.4-1.6-2.8-1.6c-1.2,0-2.1,0.4-2.7,1.2c-0.6,0.8-0.9,2.1-0.9,3.7v1.2c0,1.5,0.4,2.7,1,3.6
		c0.7,0.9,1.6,1.3,2.8,1.3c0.7,0,1.3-0.1,1.8-0.2c0.4-0.1,0.8-0.3,1.1-0.6v-3.8h-2.4c-0.2,0-0.4-0.2-0.4-0.4v-1.6
		c0-0.2,0.2-0.4,0.4-0.4h5l0,6.7c0,0.1,0,0.1-0.1,0.2c-0.5,0.8-1.3,1.3-2.2,1.7C669.3,51.1,668.2,51.3,667,51.3L667,51.3z"/>
	<path class="st1" d="M738.4,36.7c-0.1-0.2-0.3-0.4-0.5-0.5c-0.2-0.1-0.5-0.2-0.7-0.2c-0.3,0-0.5,0.1-0.7,0.2
		c-0.2,0.1-0.4,0.3-0.5,0.5c-0.1,0.2-0.2,0.4-0.2,0.7c0,0.3,0.1,0.5,0.2,0.7c0.1,0.2,0.3,0.4,0.5,0.5c0.2,0.1,0.5,0.2,0.7,0.2
		c0.3,0,0.5-0.1,0.7-0.2c0.2-0.1,0.4-0.3,0.5-0.5c0.1-0.2,0.2-0.4,0.2-0.7C738.6,37.2,738.5,36.9,738.4,36.7L738.4,36.7z M738.2,38
		c-0.1,0.2-0.2,0.3-0.4,0.4c-0.2,0.1-0.4,0.2-0.6,0.2c-0.2,0-0.4-0.1-0.6-0.2c-0.2-0.1-0.3-0.2-0.4-0.4c-0.1-0.2-0.2-0.4-0.2-0.6
		c0-0.2,0.1-0.4,0.2-0.6c0.1-0.2,0.2-0.3,0.4-0.4c0.2-0.1,0.4-0.2,0.6-0.2c0.2,0,0.4,0.1,0.6,0.2c0.2,0.1,0.3,0.2,0.4,0.4
		c0.1,0.2,0.1,0.4,0.1,0.6C738.3,37.6,738.3,37.8,738.2,38L738.2,38z"/>
	<path class="st1" d="M737.6,37.9c0,0,0-0.1,0-0.2c0-0.1,0-0.1,0-0.2c0-0.1-0.1-0.1-0.1-0.1c0.1-0.1,0.2-0.2,0.2-0.3
		c0-0.1,0-0.2-0.1-0.3c-0.1-0.1-0.2-0.1-0.4-0.1h-0.4V38h0.2v-0.5h0.2c0.1,0,0.1,0,0.2,0c0,0,0,0.1,0,0.2c0,0.2,0,0.3,0,0.3h0.2
		L737.6,37.9C737.7,38,737.7,38,737.6,37.9L737.6,37.9z M737.4,37.3c0,0-0.1,0-0.2,0H737V37h0.2c0.1,0,0.2,0,0.2,0
		c0,0,0.1,0.1,0.1,0.1C737.4,37.2,737.4,37.3,737.4,37.3L737.4,37.3z"/>
</g>
<g>
	<path class="st1" d="M1214.9,123.7c-0.6,0-1.2-0.1-1.7-0.3c-0.5-0.2-0.9-0.5-1.2-0.8c-0.3-0.4-0.5-0.7-0.7-1.2
		c-0.2-0.4-0.2-0.9-0.2-1.3v-12.7h3.8v12.4c0,0.5,0.3,0.8,0.8,0.8h1.3v3.2H1214.9z"/>
	<path class="st1" d="M1225,123.7v-1c-0.4,0.4-0.8,0.7-1.2,0.9c-0.4,0.2-0.9,0.3-1.5,0.3c-1.2,0-2.2-0.4-3-1.1
		c-0.7-0.7-1.1-1.7-1.1-2.9c0-1,0.4-1.9,1.1-2.6c0.7-0.7,1.8-1,3.1-1h2.5v-0.3c0-0.5-0.1-0.9-0.4-1.2c-0.3-0.2-0.8-0.4-1.4-0.4
		c-0.5,0-0.8,0.1-1.1,0.2c-0.3,0.1-0.6,0.3-0.9,0.6l-2.3-2.3c0.6-0.6,1.3-1.1,1.9-1.3c0.7-0.2,1.5-0.4,2.6-0.4
		c1.8,0,3.1,0.4,4.1,1.1c0.9,0.8,1.4,1.9,1.4,3.4v8H1225z M1224.9,118.7h-1.9c-0.4,0-0.7,0.1-0.9,0.3c-0.2,0.2-0.3,0.4-0.3,0.7
		c0,0.3,0.1,0.5,0.3,0.7c0.2,0.2,0.5,0.3,0.9,0.3c0.4,0,0.7,0,0.9-0.1c0.2-0.1,0.4-0.2,0.6-0.4c0.2-0.2,0.4-0.6,0.4-1.2V118.7z"/>
	<path class="st1" d="M1240.5,121.5c-0.3,0.5-0.7,1-1.2,1.3c-0.5,0.3-1.1,0.6-1.7,0.8c-0.6,0.2-1.3,0.3-2.1,0.3
		c-1.2,0-2.2-0.1-3-0.3c-0.8-0.2-1.6-0.7-2.4-1.5l2.4-2.4c0.4,0.4,0.9,0.7,1.4,0.8c0.5,0.1,1,0.2,1.6,0.2c0.4,0,0.7-0.1,1.1-0.2
		c0.3-0.1,0.5-0.3,0.5-0.6c0-0.2-0.1-0.4-0.2-0.5c-0.1-0.1-0.4-0.2-0.7-0.3l-1.9-0.2c-1.1-0.1-2-0.4-2.6-1c-0.6-0.6-0.9-1.4-0.9-2.6
		c0-0.7,0.1-1.2,0.4-1.8c0.3-0.5,0.6-0.9,1.1-1.3c0.5-0.4,1-0.6,1.6-0.8c0.6-0.2,1.2-0.3,1.8-0.3c1.1,0,2,0.1,2.8,0.3
		c0.8,0.2,1.5,0.6,2,1.2l-2.3,2.3c-0.3-0.3-0.6-0.5-1.1-0.6c-0.5-0.1-1-0.2-1.5-0.2c-0.4,0-0.7,0.1-0.9,0.2
		c-0.2,0.2-0.3,0.3-0.3,0.5c0,0.2,0,0.3,0.1,0.4c0.1,0.1,0.3,0.2,0.7,0.3l1.9,0.2c1.2,0.1,2.2,0.5,2.8,1.2c0.6,0.7,0.9,1.5,0.9,2.6
		C1240.9,120.4,1240.7,121,1240.5,121.5z"/>
	<path class="st1" d="M1246.8,123.7c-0.6,0-1.2-0.1-1.7-0.3c-0.5-0.2-0.9-0.5-1.2-0.9c-0.3-0.4-0.5-0.7-0.7-1.2
		c-0.2-0.4-0.2-0.9-0.2-1.3v-5.3h-1.1v-2.9h1.1v-3.5h3.8v3.5h2v2.9h-2v5.1c0,0.5,0.3,0.8,0.8,0.8h1.2v3.2H1246.8z"/>
	<path class="st1" d="M1264.6,123.7v-7.4c0-0.3,0-0.6-0.1-0.8c-0.1-0.2-0.2-0.4-0.4-0.5c-0.2-0.1-0.3-0.2-0.5-0.3
		c-0.2,0-0.3-0.1-0.5-0.1s-0.3,0-0.5,0.1c-0.2,0-0.3,0.1-0.5,0.3c-0.2,0.1-0.3,0.3-0.4,0.5c-0.1,0.2-0.2,0.5-0.2,0.8v7.4h-3.8v-7.4
		c0-0.3,0-0.6-0.1-0.8c-0.1-0.2-0.2-0.4-0.4-0.5c-0.2-0.1-0.3-0.2-0.5-0.3c-0.2,0-0.3-0.1-0.5-0.1c-0.2,0-0.3,0-0.5,0.1
		c-0.2,0-0.3,0.1-0.5,0.3c-0.2,0.1-0.3,0.3-0.4,0.5c-0.1,0.2-0.2,0.5-0.2,0.8v7.4h-3.8v-12.4h3.7v1c0.4-0.4,0.8-0.7,1.3-0.8
		c0.5-0.2,1-0.3,1.5-0.3c1.2,0,2.2,0.4,3,1.3c0.5-0.5,1.1-0.8,1.6-1c0.5-0.2,1.2-0.3,1.9-0.3c0.6,0,1.2,0.1,1.7,0.3
		c0.5,0.2,0.9,0.4,1.3,0.8c0.5,0.5,0.9,1,1.1,1.6c0.2,0.6,0.3,1.2,0.3,1.9v7.9H1264.6z"/>
	<path class="st1" d="M1271.1,110.1v-2.9h3.8v2.9H1271.1z M1271.1,123.7v-11.9h3.8v11.9H1271.1z"/>
	<path class="st1" d="M1284.5,123.7v-7.4c0-0.3-0.1-0.6-0.1-0.8c-0.1-0.2-0.2-0.4-0.4-0.5c-0.2-0.1-0.3-0.2-0.5-0.3
		c-0.2,0-0.3-0.1-0.5-0.1c-0.2,0-0.3,0-0.5,0.1c-0.2,0-0.3,0.1-0.5,0.3c-0.2,0.1-0.3,0.3-0.4,0.5c-0.1,0.2-0.2,0.5-0.2,0.8v7.4h-3.8
		v-12.4h3.7v1c0.4-0.4,0.8-0.7,1.3-0.8c0.5-0.2,1-0.3,1.5-0.3c1.1,0,2.1,0.4,2.8,1.1c0.5,0.5,0.8,1,1,1.6c0.2,0.6,0.3,1.2,0.3,2v7.9
		H1284.5z"/>
	<path class="st1" d="M1297.8,123.7v-1c-0.4,0.4-0.8,0.7-1.3,0.9c-0.5,0.2-1,0.3-1.5,0.3c-1.1,0-2.1-0.4-2.8-1.1
		c-0.5-0.5-0.8-1-1-1.6c-0.2-0.6-0.3-1.2-0.3-2v-7.9h3.8v7.4c0,0.3,0.1,0.6,0.2,0.8c0.1,0.2,0.2,0.4,0.4,0.5
		c0.2,0.1,0.3,0.2,0.5,0.3c0.2,0,0.3,0.1,0.5,0.1c0.2,0,0.3,0,0.5-0.1c0.2,0,0.3-0.1,0.5-0.3c0.2-0.1,0.3-0.3,0.4-0.5
		c0.1-0.2,0.1-0.5,0.1-0.8v-7.4h3.8v12.4H1297.8z"/>
	<path class="st1" d="M1308.4,123.7c-0.6,0-1.2-0.1-1.7-0.3c-0.5-0.2-0.9-0.5-1.2-0.9c-0.3-0.4-0.5-0.7-0.7-1.2
		c-0.2-0.4-0.2-0.9-0.2-1.3v-5.3h-1.1v-2.9h1.1v-3.5h3.8v3.5h2v2.9h-2v5.1c0,0.5,0.3,0.8,0.8,0.8h1.2v3.2H1308.4z"/>
	<path class="st1" d="M1315.8,118.7c0,0.5,0.2,1,0.6,1.4c0.4,0.4,0.9,0.6,1.6,0.6c0.6,0,1.1-0.1,1.5-0.2c0.4-0.2,0.7-0.4,1.1-0.8
		l2.2,2.3c-0.7,0.7-1.4,1.2-2.1,1.5c-0.7,0.3-1.6,0.5-2.7,0.5c-0.8,0-1.5-0.1-2.2-0.3c-0.7-0.2-1.3-0.5-1.9-0.9
		c-0.6-0.5-1-1.1-1.4-1.9c-0.3-0.8-0.5-1.9-0.5-3.2c0-2,0.5-3.5,1.5-4.6s2.4-1.7,4-1.7c0.9,0,1.7,0.1,2.4,0.4
		c0.7,0.3,1.3,0.7,1.8,1.3c0.5,0.5,0.8,1.2,1.1,1.9c0.2,0.7,0.4,1.5,0.4,2.3v1.7H1315.8z M1319.2,115.3c-0.1-0.3-0.3-0.5-0.6-0.7
		c-0.3-0.2-0.6-0.3-1-0.3c-0.4,0-0.8,0.1-1,0.3c-0.3,0.2-0.5,0.4-0.6,0.7c-0.1,0.3-0.2,0.6-0.2,1h3.7
		C1319.5,115.9,1319.4,115.6,1319.2,115.3z"/>
	<path class="st1" d="M1325.4,123.7v-4.1h4.1v4.1H1325.4z"/>
	<path class="st1" d="M1337.2,123.8c-0.6,0-1.3-0.1-1.9-0.3c-0.6-0.2-1.2-0.5-1.8-0.9c-0.6-0.5-1-1.1-1.4-2
		c-0.4-0.8-0.5-1.9-0.5-3.2c0-1.3,0.2-2.3,0.5-3.2c0.4-0.8,0.8-1.5,1.4-2c0.6-0.5,1.2-0.8,1.8-0.9c0.6-0.2,1.2-0.3,1.9-0.3
		c1.7,0,3,0.5,4.1,1.6l-2.5,2.6c-0.3-0.3-0.5-0.4-0.7-0.6c-0.2-0.1-0.5-0.2-0.8-0.2c-0.5,0-0.8,0.2-1.2,0.5
		c-0.4,0.4-0.6,1.2-0.6,2.4c0,1.2,0.2,2,0.6,2.4c0.3,0.3,0.7,0.5,1.2,0.5c0.3,0,0.6-0.1,0.8-0.2c0.2-0.1,0.5-0.3,0.7-0.6l2.5,2.6
		C1340.2,123.3,1338.9,123.8,1337.2,123.8z"/>
	<path class="st1" d="M1352.6,120.4c-0.2,0.7-0.5,1.3-1.1,1.9c-0.4,0.5-1,0.8-1.6,1.1c-0.7,0.3-1.4,0.4-2.4,0.4
		c-0.9,0-1.7-0.1-2.3-0.4c-0.7-0.3-1.2-0.7-1.6-1.1c-0.5-0.6-0.9-1.2-1.1-1.9c-0.2-0.7-0.3-1.6-0.3-2.9c0-1.2,0.1-2.2,0.3-2.9
		c0.2-0.7,0.5-1.3,1.1-1.9c0.4-0.5,1-0.8,1.6-1.1c0.7-0.3,1.4-0.4,2.3-0.4c0.9,0,1.7,0.1,2.4,0.4c0.6,0.3,1.2,0.7,1.6,1.1
		c0.5,0.6,0.9,1.2,1.1,1.9c0.2,0.7,0.3,1.7,0.3,2.9C1352.9,118.8,1352.8,119.7,1352.6,120.4z M1349,115.9c-0.1-0.4-0.2-0.7-0.4-0.9
		c-0.2-0.2-0.6-0.3-1-0.3c-0.4,0-0.8,0.1-1,0.3c-0.2,0.2-0.4,0.5-0.4,0.9c-0.1,0.4-0.1,0.9-0.1,1.6c0,0.7,0,1.2,0.1,1.6
		c0.1,0.4,0.2,0.7,0.4,0.9c0.2,0.2,0.6,0.3,1,0.3c0.4,0,0.8-0.1,1-0.3c0.2-0.2,0.4-0.5,0.4-0.9c0.1-0.4,0.1-0.9,0.1-1.6
		C1349.1,116.8,1349.1,116.3,1349,115.9z"/>
	<path class="st1" d="M1368.9,123.7v-7.4c0-0.3,0-0.6-0.1-0.8c-0.1-0.2-0.2-0.4-0.4-0.5c-0.2-0.1-0.3-0.2-0.5-0.3
		c-0.2,0-0.3-0.1-0.5-0.1c-0.2,0-0.3,0-0.5,0.1c-0.2,0-0.3,0.1-0.5,0.3c-0.2,0.1-0.3,0.3-0.4,0.5c-0.1,0.2-0.2,0.5-0.2,0.8v7.4h-3.8
		v-7.4c0-0.3-0.1-0.6-0.1-0.8c-0.1-0.2-0.2-0.4-0.4-0.5c-0.2-0.1-0.3-0.2-0.5-0.3c-0.2,0-0.3-0.1-0.5-0.1c-0.2,0-0.3,0-0.5,0.1
		c-0.2,0-0.3,0.1-0.5,0.3c-0.2,0.1-0.3,0.3-0.4,0.5c-0.1,0.2-0.2,0.5-0.2,0.8v7.4h-3.8v-12.4h3.7v1c0.4-0.4,0.8-0.7,1.3-0.8
		c0.5-0.2,1-0.3,1.5-0.3c1.2,0,2.2,0.4,3,1.3c0.5-0.5,1.1-0.8,1.6-1c0.5-0.2,1.2-0.3,1.9-0.3c0.6,0,1.2,0.1,1.7,0.3
		c0.5,0.2,0.9,0.4,1.3,0.8c0.5,0.5,0.9,1,1.1,1.6c0.2,0.6,0.3,1.2,0.3,1.9v7.9H1368.9z"/>
	<path class="st1" d="M1375.3,123.7v-4.1h4.1v4.1H1375.3z"/>
	<path class="st1" d="M1388.1,123.7v-1c-0.4,0.4-0.8,0.7-1.2,0.9c-0.4,0.2-0.9,0.3-1.5,0.3c-1.2,0-2.2-0.4-3-1.1
		c-0.7-0.7-1.1-1.7-1.1-2.9c0-1,0.4-1.9,1.1-2.6c0.7-0.7,1.8-1,3.1-1h2.5v-0.3c0-0.5-0.1-0.9-0.4-1.2c-0.3-0.2-0.8-0.4-1.4-0.4
		c-0.5,0-0.8,0.1-1.1,0.2c-0.3,0.1-0.6,0.3-0.9,0.6l-2.3-2.3c0.6-0.6,1.3-1.1,1.9-1.3c0.7-0.2,1.5-0.4,2.6-0.4
		c1.8,0,3.1,0.4,4.1,1.1c0.9,0.8,1.4,1.9,1.4,3.4v8H1388.1z M1388,118.7h-1.9c-0.4,0-0.7,0.1-0.9,0.3c-0.2,0.2-0.3,0.4-0.3,0.7
		c0,0.3,0.1,0.5,0.3,0.7c0.2,0.2,0.5,0.3,0.9,0.3c0.4,0,0.7,0,0.9-0.1c0.2-0.1,0.4-0.2,0.6-0.4c0.2-0.2,0.4-0.6,0.4-1.2V118.7z"/>
	<path class="st1" d="M1401.2,123.7v-1c-0.4,0.4-0.8,0.7-1.3,0.9c-0.5,0.2-1,0.3-1.6,0.3c-1.1,0-2.1-0.4-2.8-1.1
		c-0.5-0.5-0.8-1-1-1.6c-0.2-0.6-0.3-1.2-0.3-2v-7.9h3.8v7.4c0,0.3,0.1,0.6,0.2,0.8c0.1,0.2,0.2,0.4,0.4,0.5
		c0.2,0.1,0.3,0.2,0.5,0.3c0.2,0,0.3,0.1,0.5,0.1c0.2,0,0.3,0,0.5-0.1c0.2,0,0.3-0.1,0.5-0.3c0.2-0.1,0.3-0.3,0.4-0.5
		c0.1-0.2,0.1-0.5,0.1-0.8v-7.4h3.8v12.4H1401.2z"/>
</g>
<g>
	<path class="st1" d="M503.8,117.6l2.2,0.1c-1,3.5-4,5.8-7.5,5.8c-4.6,0-6.3-3.3-5.5-7.7c0.9-4.4,3.7-8.1,8.5-8.1
		c3.9,0,5.7,2.3,5.2,6.1l-4.4,0.2c0.3-1.3,0.1-2.9-1.5-2.9c-2.1,0-2.8,3.2-3.1,4.6c-0.3,1.5-0.7,4.1,1.4,4.1c1.4,0,2.3-1.3,2.6-2.5
		L503.8,117.6L503.8,117.6z"/>
	<path class="st1" d="M513,123.3l1.4-7.1c0.1-0.8,0.1-1.4-0.8-1.4c-0.4,0-0.8,0.2-1.1,0.6c-0.3,0.3-0.4,0.7-0.5,1.1l-1.3,6.8h-4.4
		l3-15.3h4.4l-1,5.2c1-1,2.2-1.6,3.5-1.6c1.1,0,2.2,0.3,2.7,1.2c0.5,1,0.2,2.1,0,3.2l-1.4,7.1H513L513,123.3z"/>
	<path class="st1" d="M531.3,119.5c-1.2,2.8-3.9,4-6.6,4c-1.7,0-3.2-0.4-4.3-1.5c-1-1.1-1.4-2.6-1-4.3c0.3-1.5,1.2-3.2,2.5-4.3
		c1.4-1.2,3.2-1.8,4.9-1.8c3.8,0,5.6,2.5,4.9,6.2l-0.1,0.6h-7.6c-0.3,1.2,0,2.1,1.3,2.1c1,0,1.6-0.4,2-1.4L531.3,119.5L531.3,119.5z
		 M527.4,116.3c0.2-1.1,0-2-1.2-2c-1.2,0-1.8,0.9-2,2H527.4L527.4,116.3z"/>
	<path class="st1" d="M539.1,123.3c0-0.5,0.1-1,0.1-1.6c-1.1,1.3-2.5,1.8-4.1,1.8c-2.1,0-3.7-1.2-3.3-3.4c0.3-1.8,2-3,3.7-3.5
		c1.5-0.4,3.1-0.6,4.6-0.7l0-0.1c0.2-1,0-1.4-1.1-1.4c-0.9,0-1.7,0.3-2,1.3l-4-0.4c1.2-2.8,4.1-3.6,6.6-3.6c1.3,0,3,0.2,4,1
		c1.3,1,0.8,2.5,0.5,4.1l-0.8,4c-0.2,0.8-0.3,1.7-0.1,2.5H539.1L539.1,123.3z M539.7,118c-1.1,0.1-2.9,0.4-3.2,1.8
		c-0.1,0.7,0.3,1,1,1c1.7,0,2-1.4,2.2-2.6L539.7,118L539.7,118z"/>
	<path class="st1" d="M551,111.9l-0.3,1.6h0c0.7-1.4,2.1-1.8,3.6-1.8c3.2,0,3.7,3.1,3.1,5.8c-0.2,1.3-0.7,2.7-1.5,3.8
		c-1,1.4-2.3,2.2-3.9,2.2c-1.2,0-2.2-0.4-2.7-1.4l-0.9,4.8H544l2.9-15H551L551,111.9z M550,118.9c-0.2,0.8-0.2,1.8,0.8,1.8
		c0.6,0,1.1-0.3,1.4-0.9c0.3-0.6,0.5-1.4,0.6-2.1c0.2-0.9,0.6-3.2-0.8-3.2c-0.4,0-0.8,0.2-1.1,0.5c-0.4,0.4-0.4,0.7-0.5,1.2
		L550,118.9L550,118.9z"/>
	<path class="st1" d="M584.1,119c-1,2.9-3.4,4.5-6.3,4.5c-1.6,0-2.9-0.4-3.9-1.6c-0.9-1.2-1.2-2.7-0.9-4.3c0.7-3.4,3.5-5.9,7-5.9
		c2.8,0,4.7,1.6,4.5,4.5l-4,0.3v-0.1c0-0.8,0-1.7-1-1.7c-1.4,0-1.8,1.8-2,2.8c-0.2,1.1-0.5,2.8,0.9,2.8c1,0,1.5-0.9,1.8-1.7
		L584.1,119L584.1,119z"/>
	<polygon class="st1" points="563.1,123.2 558.6,123.2 560.9,111.6 557.7,111.6 558.4,108 569.2,108 568.5,111.6 565.3,111.6
		563.1,123.2 	"/>
	<polygon class="st1" points="571.1,123.2 566.7,123.2 568.9,111.9 573.3,111.9 571.1,123.2 	"/>
	<polygon class="st1" points="594,115.8 596.4,123.2 591.8,123.2 590.6,118.7 589.2,120.1 588.6,123.2 584.2,123.2 587.1,108
		591.5,108 589.9,116.2 591.1,114.9 594.4,111.9 598.2,111.9 594,115.8 	"/>
	<path class="st1" d="M608.5,119.4c-1.2,2.8-3.9,4-6.6,4c-1.7,0-3.2-0.4-4.3-1.5c-1-1.1-1.4-2.6-1-4.3c0.3-1.5,1.2-3.2,2.5-4.3
		c1.4-1.2,3.2-1.8,4.9-1.8c3.8,0,5.6,2.5,4.9,6.2l-0.1,0.6h-7.6c-0.3,1.2,0,2.1,1.3,2.1c1,0,1.6-0.4,2-1.4L608.5,119.4L608.5,119.4z
		 M604.7,116.2c0.2-1.1,0-2-1.2-2c-1.2,0-1.8,0.9-2,2H604.7L604.7,116.2z"/>
	<path class="st1" d="M609.4,114.8l0.6-2.9h1.8l1-3.6l3.9-0.1l-0.7,3.8l2.3,0l-0.6,2.9l-2.2,0l-0.8,3.9c-0.2,0.8-0.4,1.5,0.7,1.5
		c0.4,0,0.9-0.1,1.3-0.2l-0.6,3.2l-2.7,0.3c-1.2,0.2-2.3-0.2-3-1.2c-0.7-0.9-0.4-2-0.2-3.2l0.8-4.3H609.4L609.4,114.8z"/>
	<path class="st1" d="M620.9,119.5c0,1.1,1.2,1.2,2.2,1.2c0.4,0,1.7,0,1.8-0.7c0.1-0.6-1.4-0.7-1.8-0.7c-2.3-0.3-5-0.8-4.5-3.8
		c0.3-1.3,1.1-2.3,2.3-3c1.2-0.7,2.6-0.9,3.8-0.9c2.1,0,4.2,0.8,4.6,3l-3.5,0.6c-0.2-0.8-1-1-1.8-1c-0.4,0-1.4,0.1-1.5,0.6
		c-0.1,0.4,0.3,0.5,0.6,0.6c0.5,0.1,1.3,0.2,1.9,0.3c1,0.1,2.1,0.3,2.9,0.8c0.9,0.7,1.3,1.7,1,2.9c-0.6,3.1-4.1,4-6.7,4
		c-2.5,0-4.7-0.8-5.1-3.5L620.9,119.5L620.9,119.5z"/>
	<g>
		<path class="st1" d="M500.9,115c-0.4-2.3-3.7-4.7-7.2-5.4c-2.6-0.5-4.6,0-5.4,1.2c1-0.4,2.2-0.5,3.6-0.2c3.5,0.6,6.6,2.9,7,5.3
			c0.2,0.8,0,1.5-0.5,2C500.2,117.5,501.2,116.5,500.9,115L500.9,115z"/>
		<g>
			<path class="st1" d="M493,104.1c-2.2-0.4-15.6-2.8-16.3-2.9c-1.3-0.2-3,0.2-4,1.9c-1.1,2.1-3.1,5.7-3.3,6.2
				c-0.2,0.5-0.4,1.2,0.4,1.6c2.4,1.3,12.1,6.3,15.1,7.8c1,0.5,3.4,0.3,4.6-1.9c1-1.9,4.8-9.5,5.1-9.9
				C495.1,105.9,495.2,104.4,493,104.1z M484.4,115.6l-13.2-5.8l3.9-7.2l13.8,3L484.4,115.6z M489.9,111.6c-1.1,0.2-2.1-0.2-2.2-0.9
				c-0.1-0.8,0.8-1.6,2-1.8c1.1-0.2,2.1,0.2,2.2,0.9C492,110.6,491.1,111.4,489.9,111.6z"/>
			<g>
				<path class="st1" d="M476.2,104.8c1.1,0,6.3,0.5,8.1,2.6C482.3,107,478.7,105.5,476.2,104.8"/>
				<path class="st1" d="M480.6,108.6c-1.5-0.6-3.4-1.2-5.9-2c1.6,0,8.6,1.5,10,3.3C483.9,109.8,482.1,109.1,480.6,108.6"/>
				<path class="st1" d="M475.8,109c0.8,0,5.7,0.7,7.2,2.3C481.8,111.1,479.2,109.9,475.8,109"/>
			</g>
		</g>
	</g>
	<path class="st1" d="M631.9,109.5c0.4,0,0.7,0.1,0.9,0.4c0.3,0.3,0.4,0.6,0.4,0.9c0,0.4-0.1,0.7-0.4,0.9c-0.3,0.3-0.6,0.4-0.9,0.4
		c-0.4,0-0.7-0.1-0.9-0.4c-0.3-0.3-0.4-0.6-0.4-0.9c0-0.4,0.1-0.7,0.4-0.9C631.2,109.6,631.5,109.5,631.9,109.5L631.9,109.5z
		 M631.9,111.9c0.3,0,0.6-0.1,0.8-0.3c0.2-0.2,0.3-0.5,0.3-0.8c0-0.3-0.1-0.5-0.3-0.8c-0.2-0.2-0.5-0.3-0.8-0.3
		c-0.3,0-0.5,0.1-0.8,0.3c-0.2,0.2-0.3,0.5-0.3,0.8c0,0.3,0.1,0.6,0.3,0.8C631.3,111.7,631.6,111.9,631.9,111.9L631.9,111.9z
		 M632.5,111.5h-0.3l-0.4-0.6h-0.2v0.6h-0.3v-1.4h0.4c0.2,0,0.3,0,0.4,0.1c0.1,0.1,0.1,0.2,0.1,0.3c0,0.2-0.1,0.3-0.3,0.4
		L632.5,111.5L632.5,111.5z M631.7,110.7h0.1c0.2,0,0.3-0.1,0.3-0.2c0-0.1-0.1-0.2-0.3-0.2h-0.2V110.7L631.7,110.7z"/>
</g>
<g>
	<g>
		<g>
			<path class="st1" d="M722.3,111.2c-1.1-1-1.4-2.3-1.4-3.5c0-0.8,0.3-2.1,1.3-3.2c0.7-0.7,1.8-1.2,3.6-1.2c0.5,0,1.1,0,1.7,0.1
				c0.4,0.1,0.8,0.2,1.2,0.2c0.1,0,0.2,0.1,0.2,0.1c0,0.1,0,0.2-0.1,0.7c0,0.4,0,1,0,1.2c0,0.2,0,0.2-0.1,0.2
				c-0.1,0-0.1-0.1-0.1-0.2c0-0.5-0.2-0.9-0.5-1.2c-0.4-0.3-1.3-0.7-2.3-0.7c-1.6,0-2.3,0.5-2.7,0.9c-0.9,0.8-1,1.9-1,3
				c0,2.2,1.7,4.3,4.2,4.3c0.9,0,1.6-0.1,2-0.6c0.2-0.3,0.4-0.8,0.4-1c0-0.1,0-0.2,0.1-0.2c0.1,0,0.1,0.1,0.1,0.2
				c0,0.1-0.1,1.1-0.3,1.5c-0.1,0.2-0.1,0.2-0.3,0.3c-0.5,0.2-1.4,0.3-2.1,0.3C724.4,112.4,723.2,112,722.3,111.2z"/>
			<path class="st1" d="M733.7,109.3c0,1.5,0,2.2,0.2,2.3c0.2,0.2,0.4,0.2,1.2,0.2c0.5,0,1,0,1.2-0.3c0.1-0.2,0.2-0.4,0.3-0.6
				c0-0.1,0-0.1,0.1-0.1c0.1,0,0.1,0,0.1,0.2c0,0.1-0.1,0.7-0.2,1c-0.1,0.2-0.1,0.3-0.6,0.3c-0.7,0-1.3,0-1.7,0c-0.4,0-0.7,0-1,0
				c0,0-0.2,0-0.4,0c-0.2,0-0.4,0-0.6,0c-0.1,0-0.2,0-0.2-0.1c0,0,0-0.1,0.1-0.1c0.1,0,0.2,0,0.3,0c0.2,0,0.3-0.3,0.3-0.6
				c0.1-0.4,0.1-1.2,0.1-2.2v-1.8c0-1.6,0-1.9,0-2.2c0-0.3-0.1-0.5-0.4-0.6c-0.1,0-0.3,0-0.3,0c0,0-0.1,0-0.1-0.1
				c0-0.1,0.1-0.1,0.2-0.1c0.5,0,1.1,0,1.2,0s0.8,0,1.1,0c0.1,0,0.2,0,0.2,0.1c0,0,0,0.1-0.1,0.1c-0.1,0-0.2,0-0.3,0
				c-0.3,0.1-0.4,0.2-0.4,0.6c0,0.3,0,0.6,0,2.2V109.3z"/>
			<path class="st1" d="M742,104.8c0.1-0.3,0.2-0.4,0.2-0.4c0.1,0,0.1,0.1,0.2,0.4c0.2,0.4,1.8,4.6,2.4,6.2c0.4,0.9,0.7,1.1,0.9,1.1
				c0.2,0.1,0.3,0.1,0.4,0.1c0.1,0,0.1,0,0.1,0.1c0,0.1-0.1,0.1-0.2,0.1c-0.2,0-0.9,0-1.6,0c-0.2,0-0.3,0-0.3-0.1c0,0,0-0.1,0.1-0.1
				c0.1,0,0.1-0.1,0.1-0.3l-0.9-2.5c0,0,0-0.1-0.1-0.1H741c-0.1,0-0.1,0-0.1,0.1l-0.6,1.8c-0.1,0.3-0.1,0.5-0.1,0.7
				c0,0.2,0.2,0.3,0.4,0.3h0.1c0.1,0,0.1,0,0.1,0.1c0,0.1-0.1,0.1-0.2,0.1c-0.2,0-0.7,0-0.8,0c-0.1,0-0.7,0-1.2,0
				c-0.1,0-0.2,0-0.2-0.1c0,0,0-0.1,0.1-0.1c0.1,0,0.2,0,0.3,0c0.5-0.1,0.7-0.4,0.9-1L742,104.8z M743,108.9
				C743.1,108.9,743.1,108.8,743,108.9l-0.9-2.8c-0.1-0.2-0.1-0.2-0.2,0l-0.9,2.8c0,0.1,0,0.1,0,0.1H743z"/>
			<path class="st1" d="M748.6,112.1c-0.1-0.1-0.2-0.1-0.2-0.4c0-0.5,0-0.9,0.1-1.1c0-0.1,0-0.2,0.1-0.2c0.1,0,0.1,0,0.1,0.1
				c0,0.1,0,0.2,0,0.4c0.2,0.8,0.8,1,1.5,1c1,0,1.5-0.7,1.5-1.4c0-0.7-0.3-1.1-1.2-1.8l-0.5-0.4c-1.1-0.9-1.3-1.5-1.3-2.2
				c0-1.1,0.8-1.8,2.1-1.8c0.4,0,0.7,0,0.9,0.1c0.2,0,0.3,0.1,0.4,0.1c0.1,0,0.1,0,0.1,0.1c0,0.1,0,0.4,0,1.1c0,0.2,0,0.2-0.1,0.2
				c-0.1,0-0.1-0.1-0.1-0.1c0-0.1-0.1-0.4-0.1-0.5c-0.1-0.1-0.3-0.5-1.3-0.5c-0.7,0-1.3,0.4-1.3,1.2c0,0.6,0.3,0.9,1.2,1.7l0.3,0.2
				c1.2,0.9,1.5,1.6,1.5,2.4c0,0.4-0.2,1.2-0.9,1.7c-0.4,0.3-1,0.4-1.5,0.4C749.5,112.4,749,112.3,748.6,112.1z"/>
			<path class="st1" d="M756,112.1c-0.1-0.1-0.2-0.1-0.2-0.4c0-0.5,0-0.9,0.1-1.1c0-0.1,0-0.2,0.1-0.2c0.1,0,0.1,0,0.1,0.1
				c0,0.1,0,0.2,0,0.4c0.2,0.8,0.8,1,1.5,1c1,0,1.5-0.7,1.5-1.4c0-0.7-0.3-1.1-1.2-1.8l-0.5-0.4c-1.1-0.9-1.3-1.5-1.3-2.2
				c0-1.1,0.8-1.8,2.1-1.8c0.4,0,0.7,0,0.9,0.1c0.2,0,0.3,0.1,0.4,0.1s0.1,0,0.1,0.1c0,0.1,0,0.4,0,1.1c0,0.2,0,0.2-0.1,0.2
				c-0.1,0-0.1-0.1-0.1-0.1c0-0.1-0.1-0.4-0.1-0.5c-0.1-0.1-0.3-0.5-1.3-0.5c-0.7,0-1.3,0.4-1.3,1.2c0,0.6,0.3,0.9,1.2,1.7l0.3,0.2
				c1.2,0.9,1.5,1.6,1.5,2.4c0,0.4-0.2,1.2-0.9,1.7c-0.4,0.3-1,0.4-1.5,0.4C756.9,112.4,756.4,112.3,756,112.1z"/>
			<path class="st1" d="M764.8,109.3c0,1,0,1.8,0.1,2.2c0,0.3,0.1,0.5,0.4,0.6c0.1,0,0.4,0,0.5,0c0.1,0,0.1,0,0.1,0.1
				c0,0.1-0.1,0.1-0.2,0.1c-0.6,0-1.2,0-1.3,0c-0.1,0-0.7,0-1,0c-0.1,0-0.2,0-0.2-0.1c0,0,0-0.1,0.1-0.1c0.1,0,0.2,0,0.3,0
				c0.2,0,0.3-0.3,0.3-0.6c0.1-0.4,0.1-1.2,0.1-2.2v-1.8c0-1.6,0-1.9,0-2.2c0-0.3-0.1-0.5-0.3-0.6c-0.1,0-0.2,0-0.3,0
				c0,0-0.1,0-0.1-0.1c0-0.1,0.1-0.1,0.2-0.1c0.3,0,1,0,1,0c0.1,0,0.7,0,1,0c0.1,0,0.2,0,0.2,0.1c0,0,0,0.1-0.1,0.1
				c-0.1,0-0.1,0-0.3,0c-0.3,0.1-0.4,0.2-0.4,0.6c0,0.3,0,0.6,0,2.2V109.3z"/>
			<path class="st1" d="M769.9,111.3c-1-0.9-1.2-2.1-1.2-3c0-0.7,0.2-1.9,1.1-2.8c0.6-0.6,1.5-1.1,3.1-1.1c0.4,0,1,0,1.5,0.1
				c0.4,0.1,0.7,0.1,1,0.2c0.1,0,0.1,0.1,0.1,0.1c0,0.1,0,0.2-0.1,0.6c0,0.3,0,0.9,0,1.1c0,0.2,0,0.2-0.1,0.2
				c-0.1,0-0.1-0.1-0.1-0.2c0-0.4-0.2-0.8-0.4-1c-0.4-0.3-1.1-0.6-2-0.6c-1.4,0-2,0.4-2.3,0.7c-0.7,0.7-0.9,1.6-0.9,2.7
				c0,1.9,1.5,3.7,3.7,3.7c0.8,0,1.4-0.1,1.8-0.5c0.2-0.2,0.3-0.7,0.4-0.9c0-0.1,0-0.2,0.1-0.2c0.1,0,0.1,0.1,0.1,0.2
				c0,0.1-0.1,1-0.2,1.3c-0.1,0.2-0.1,0.2-0.3,0.3c-0.4,0.2-1.2,0.2-1.8,0.2C771.7,112.4,770.7,112,769.9,111.3z"/>
			<path class="st1" d="M724.7,122.3c0.7-1.6,2.2-5.6,2.5-6.5c0.1-0.2,0.1-0.3,0.1-0.4c0-0.1,0-0.2-0.2-0.3c-0.1,0-0.3,0-0.4,0
				c-0.1,0-0.1,0-0.1-0.1c0-0.1,0.1-0.1,0.3-0.1c0.5,0,1,0,1.1,0c0.1,0,0.6,0,0.9,0c0.1,0,0.2,0,0.2,0.1s0,0.1-0.1,0.1
				c-0.1,0-0.3,0-0.6,0.1c-0.2,0.1-0.3,0.3-0.6,1.1c-0.1,0.3-0.7,1.7-1.3,3.2c-0.7,1.7-1.2,3-1.5,3.5c-0.3,0.7-0.4,0.9-0.5,0.9
				c-0.1,0-0.2-0.2-0.4-0.7l-2.9-7.1c-0.3-0.7-0.4-0.8-0.8-0.9c-0.2,0-0.4,0-0.4,0s-0.1,0-0.1-0.1c0-0.1,0.1-0.1,0.3-0.1
				c0.6,0,1.2,0,1.4,0c0.1,0,0.6,0,1.1,0c0.2,0,0.3,0,0.3,0.1s0,0.1-0.1,0.1c-0.1,0-0.3,0-0.4,0.1c-0.1,0.1-0.2,0.2-0.2,0.2
				c0,0.2,0.1,0.5,0.3,1L724.7,122.3z"/>
			<path class="st1" d="M732.9,116.3c0.1-0.3,0.2-0.4,0.2-0.4s0.1,0.1,0.2,0.4c0.2,0.4,1.8,4.6,2.4,6.2c0.4,0.9,0.7,1.1,0.9,1.1
				c0.2,0.1,0.3,0.1,0.4,0.1c0.1,0,0.1,0,0.1,0.1c0,0.1-0.1,0.1-0.2,0.1c-0.2,0-0.9,0-1.6,0c-0.2,0-0.3,0-0.3-0.1c0,0,0-0.1,0.1-0.1
				c0.1,0,0.1-0.1,0.1-0.3l-0.9-2.5c0,0,0-0.1-0.1-0.1h-2.2c-0.1,0-0.1,0-0.1,0.1l-0.6,1.8c-0.1,0.3-0.1,0.5-0.1,0.7
				c0,0.2,0.2,0.3,0.4,0.3h0.1c0.1,0,0.1,0,0.1,0.1c0,0.1-0.1,0.1-0.2,0.1c-0.2,0-0.7,0-0.8,0s-0.7,0-1.2,0c-0.1,0-0.2,0-0.2-0.1
				c0,0,0-0.1,0.1-0.1c0.1,0,0.2,0,0.3,0c0.5-0.1,0.7-0.4,0.9-1L732.9,116.3z M733.9,120.3C734,120.3,734,120.3,733.9,120.3
				l-0.9-2.8c-0.1-0.2-0.1-0.2-0.2,0l-0.9,2.8c0,0.1,0,0.1,0,0.1H733.9z"/>
			<path class="st1" d="M739.7,122.8c-1-0.9-1.2-2.1-1.2-3c0-0.7,0.2-1.9,1.1-2.8c0.6-0.6,1.5-1.1,3.1-1.1c0.4,0,1,0,1.5,0.1
				c0.4,0.1,0.7,0.1,1,0.2c0.1,0,0.1,0.1,0.1,0.1c0,0.1,0,0.2-0.1,0.6c0,0.3,0,0.9,0,1.1c0,0.2,0,0.2-0.1,0.2
				c-0.1,0-0.1-0.1-0.1-0.2c0-0.4-0.2-0.8-0.4-1c-0.4-0.3-1.1-0.6-2-0.6c-1.4,0-2,0.4-2.3,0.7c-0.7,0.7-0.9,1.6-0.9,2.7
				c0,1.9,1.5,3.7,3.7,3.7c0.8,0,1.4-0.1,1.8-0.5c0.2-0.2,0.3-0.7,0.4-0.9c0-0.1,0-0.2,0.1-0.2c0.1,0,0.1,0.1,0.1,0.2
				c0,0.1-0.1,1-0.2,1.3c-0.1,0.2-0.1,0.2-0.3,0.3c-0.4,0.2-1.2,0.2-1.8,0.2C741.6,123.9,740.5,123.5,739.7,122.8z"/>
			<path class="st1" d="M750.9,116.3c0.1-0.3,0.2-0.4,0.2-0.4c0.1,0,0.1,0.1,0.2,0.4c0.2,0.4,1.8,4.6,2.4,6.2
				c0.4,0.9,0.7,1.1,0.9,1.1c0.2,0.1,0.3,0.1,0.4,0.1c0.1,0,0.1,0,0.1,0.1c0,0.1-0.1,0.1-0.2,0.1c-0.2,0-0.9,0-1.6,0
				c-0.2,0-0.3,0-0.3-0.1c0,0,0-0.1,0.1-0.1c0.1,0,0.1-0.1,0.1-0.3l-0.9-2.5c0,0,0-0.1-0.1-0.1h-2.2c-0.1,0-0.1,0-0.1,0.1l-0.6,1.8
				c-0.1,0.3-0.1,0.5-0.1,0.7c0,0.2,0.2,0.3,0.4,0.3h0.1c0.1,0,0.1,0,0.1,0.1c0,0.1-0.1,0.1-0.2,0.1c-0.2,0-0.7,0-0.8,0
				c-0.1,0-0.7,0-1.2,0c-0.1,0-0.2,0-0.2-0.1c0,0,0-0.1,0.1-0.1c0.1,0,0.2,0,0.3,0c0.5-0.1,0.7-0.4,0.9-1L750.9,116.3z M751.9,120.3
				C752,120.3,752,120.3,751.9,120.3l-0.9-2.8c-0.1-0.2-0.1-0.2-0.2,0l-0.9,2.8c0,0.1,0,0.1,0,0.1H751.9z"/>
			<path class="st1" d="M759.5,120.8c0,1,0,1.8,0.1,2.2c0,0.3,0.1,0.5,0.4,0.6c0.1,0,0.4,0,0.5,0c0.1,0,0.1,0,0.1,0.1
				c0,0.1-0.1,0.1-0.2,0.1c-0.6,0-1.2,0-1.3,0s-0.7,0-1,0c-0.1,0-0.2,0-0.2-0.1c0,0,0-0.1,0.1-0.1c0.1,0,0.2,0,0.3,0
				c0.2,0,0.3-0.3,0.3-0.6c0.1-0.4,0.1-1.2,0.1-2.2v-4.3l-1.5,0c-0.6,0-0.9,0.1-1,0.3c-0.1,0.2-0.1,0.2-0.2,0.3
				c0,0.1-0.1,0.1-0.1,0.1c0,0-0.1,0-0.1-0.1c0-0.1,0.2-1,0.2-1.1c0-0.1,0.1-0.2,0.1-0.2c0.1,0,0.2,0.1,0.4,0.1
				c0.3,0,0.7,0.1,0.8,0.1h3.8c0.3,0,0.6,0,0.7-0.1c0.2,0,0.2-0.1,0.3-0.1c0.1,0,0.1,0.1,0.1,0.1c0,0.3,0,1,0,1.1
				c0,0.1,0,0.1-0.1,0.1c-0.1,0-0.1,0-0.1-0.2l0-0.1c0-0.3-0.3-0.5-1.3-0.6l-1.3,0V120.8z"/>
			<path class="st1" d="M766.8,120.8c0,1,0,1.8,0.1,2.2c0,0.3,0.1,0.5,0.4,0.6c0.1,0,0.4,0,0.5,0c0.1,0,0.1,0,0.1,0.1
				c0,0.1-0.1,0.1-0.2,0.1c-0.6,0-1.2,0-1.3,0c-0.1,0-0.7,0-1,0c-0.1,0-0.2,0-0.2-0.1c0,0,0-0.1,0.1-0.1c0.1,0,0.2,0,0.3,0
				c0.2,0,0.3-0.3,0.3-0.6c0.1-0.4,0.1-1.2,0.1-2.2V119c0-1.6,0-1.9,0-2.2c0-0.3-0.1-0.5-0.3-0.6c-0.1,0-0.2,0-0.3,0
				c0,0-0.1,0-0.1-0.1c0-0.1,0.1-0.1,0.2-0.1c0.3,0,1,0,1,0c0.1,0,0.7,0,1,0c0.1,0,0.2,0,0.2,0.1c0,0,0,0.1-0.1,0.1
				c-0.1,0-0.1,0-0.3,0c-0.3,0.1-0.4,0.2-0.4,0.6c0,0.3,0,0.6,0,2.2V120.8z"/>
			<path class="st1" d="M774.6,115.9c2.3,0,4,1.4,4,3.8c0,2.3-1.6,4.2-4.1,4.2c-2.8,0-4-2.2-4-4
				C770.5,118.2,771.8,115.9,774.6,115.9z M774.8,123.5c0.9,0,2.8-0.5,2.8-3.5c0-2.4-1.5-3.8-3.1-3.8c-1.7,0-3,1.1-3,3.4
				C771.5,121.9,772.9,123.5,774.8,123.5z"/>
			<path class="st1" d="M782.5,122.3c0,0.8,0.1,1.1,0.4,1.2c0.2,0.1,0.4,0.1,0.5,0.1c0.1,0,0.1,0,0.1,0.1c0,0.1-0.1,0.1-0.2,0.1
				c-0.6,0-1,0-1.1,0c-0.1,0-0.5,0-1,0c-0.1,0-0.2,0-0.2-0.1c0,0,0-0.1,0.1-0.1c0.1,0,0.3,0,0.4-0.1c0.3-0.1,0.3-0.4,0.3-1.3l0-5.8
				c0-0.4,0-0.5,0.1-0.5s0.3,0.2,0.4,0.3c0.2,0.2,1.7,1.8,3.2,3.5c1,1.1,2.1,2.3,2.4,2.7l-0.1-5.2c0-0.7-0.1-0.9-0.4-1
				c-0.2,0-0.4-0.1-0.5-0.1c-0.1,0-0.1,0-0.1-0.1c0-0.1,0.1-0.1,0.2-0.1c0.5,0,0.9,0,1.1,0s0.4,0,0.9,0c0.1,0,0.2,0,0.2,0.1
				c0,0,0,0.1-0.1,0.1c-0.1,0-0.1,0-0.2,0c-0.3,0.1-0.4,0.3-0.4,0.9l0,6c0,0.7,0,0.7-0.1,0.7c-0.1,0-0.2-0.1-0.7-0.7
				c-0.1-0.1-1.6-1.6-2.7-2.8c-1.2-1.3-2.3-2.6-2.7-2.9L782.5,122.3z"/>
			<path class="st1" d="M792.8,123.6c-0.1-0.1-0.2-0.1-0.2-0.4c0-0.5,0-0.9,0.1-1.1c0-0.1,0-0.2,0.1-0.2c0.1,0,0.1,0,0.1,0.1
				c0,0.1,0,0.2,0,0.4c0.2,0.8,0.8,1,1.5,1c1,0,1.5-0.7,1.5-1.4c0-0.7-0.3-1.1-1.2-1.8l-0.5-0.4c-1.1-0.9-1.3-1.5-1.3-2.2
				c0-1.1,0.8-1.8,2.1-1.8c0.4,0,0.7,0,0.9,0.1c0.2,0,0.3,0.1,0.4,0.1s0.1,0,0.1,0.1c0,0.1,0,0.4,0,1.1c0,0.2,0,0.2-0.1,0.2
				c-0.1,0-0.1-0.1-0.1-0.1c0-0.1-0.1-0.4-0.1-0.5c-0.1-0.1-0.3-0.5-1.3-0.5c-0.7,0-1.3,0.4-1.3,1.2c0,0.6,0.3,0.9,1.2,1.7l0.3,0.2
				c1.2,0.9,1.5,1.6,1.5,2.4c0,0.4-0.2,1.2-0.9,1.7c-0.4,0.3-1,0.4-1.5,0.4C793.7,123.9,793.2,123.8,792.8,123.6z"/>
		</g>
		<path class="st1" d="M798.4,116.2h-0.3v-0.1h0.7v0.1h-0.3v0.7h-0.1V116.2z M798.9,116.1h0.2l0.3,0.7l0.3-0.7h0.2v0.8h-0.1v-0.7h0
			l-0.3,0.7h-0.1l-0.3-0.7h0v0.7h-0.1V116.1z"/>
	</g>
	<path class="st1" d="M715.8,113.3c-0.2,0-1.3,0.4-2.8,0.8c-0.4,0.1-1,0.2-1.5,0.3v-3.9c0.2-0.2,0.4-0.4,0.6-0.7
		c0.5-0.7,0.8-1.4,1-1.8c0,0,0-0.1,0-0.1c0,0,0-0.1,0-0.1c0.1-0.2,0.3-0.6,0.5-1c0.1-0.2,0.2-0.4,0.2-0.5c0-0.1,0-0.2,0-0.2
		c0,0-0.1,0-0.2,0.2c-0.1,0.3-0.7,0.9-1.1,1.3c-0.2,0.2-0.5,0.4-0.8,0.5c-0.1,0-0.2,0.1-0.3,0.1v-4.6c0-0.5-0.1-1.1-0.3-1.6
		c0.1-0.1,0.1-0.3,0.1-0.3c0.2-0.5,0.2-0.5,0.3-0.8c0.3-0.8,0.4-1.4,0.5-1.8c0.1-0.4,0.3-0.6,0.1-0.5c-0.1,0.1-0.2,0-0.5,0.6
		c-0.3,0.5-0.6,1.1-1,1.8c-0.8-1.3-2.3-2.2-4-2.2h-8.5c-0.2-0.3-0.4-0.6-0.6-0.9c-0.3-0.5-1.1-1.5-1.1-1.6c-0.1-0.1-0.1-0.2-0.2-0.2
		c-0.2-0.2-0.3-0.4-0.5-0.6c-0.2-0.2-0.3-0.3-0.4-0.4c-0.1,0-0.1,0-0.1,0c0,0,0,0.1,0,0.2c0.1,0.2,0.4,0.6,0.5,0.9
		c0.1,0.2,0.7,1.2,1.2,2.6h-8c-2.6,0-4.7,2.1-4.7,4.7v0.8c-0.7-0.3-1.3-0.8-1.5-0.9c-0.1-0.1-0.1-0.1-0.2-0.1c0,0,0,0.1,0.1,0.2
		c0,0,0,0,0,0c0,0.1,0.1,0.1,0.1,0.2c0.1,0.1,0.1,0.3,0.2,0.4c0.1,0.2,0.2,0.3,0.4,0.5c0,0,0,0,0.1,0.1c0.3,0.4,0.4,0.6,0.8,0.9v5.8
		c-0.8,0-1.6-0.1-1.7-0.1c-0.1,0-0.3-0.2-0.3-0.2c0,0,0,0,0.1,0.1c0,0,0.1,0.1,0.1,0.1c0,0,0.1,0.1,0.1,0.2c0.1,0.1,0.2,0.1,0.3,0.2
		c0.2,0.1,0.4,0.3,0.6,0.4c0.1,0,0.1,0.1,0.2,0.1c0.1,0.1,0.3,0.1,0.4,0.2c0,0,0,0,0,0V123c0,2.6,2.1,4.7,4.7,4.7h17.6
		c2.6,0,4.7-2.1,4.7-4.7v-6.8c0.3-0.2,0.7-0.4,1.1-0.6c0.3-0.2,0.6-0.4,0.9-0.6c0.1-0.1,0.3-0.2,0.4-0.2c0.4-0.2,0.8-0.5,1.1-0.7
		c0.3-0.2,0.6-0.4,0.6-0.4c0,0,0.1-0.1,0.1-0.1c0,0,0,0,0.1-0.1C715.9,113.4,715.9,113.4,715.8,113.3
		C715.9,113.3,715.9,113.3,715.8,113.3z M689.2,99.9h8.3c0.2,0.5,0.3,0.9,0.4,1.4c0.1,0.3,0.2,0.6,0.2,0.9c0.4,1.5,0.5,1.8,0.5,2.7
		c0,0.9,0.1,1.8,0.1,2.6c0,0.2-0.1,0.4-0.1,0.6c-0.2,0.7-0.5,1.6-0.6,2.3c0,0.2,0,0.4,0,0.5c0.1,0.5,0.4,0.9,0.6,1.3
		c0.1,0.2,0.2,0.4,0.2,0.5c0,0,0,0.1,0,0.1c0.1,0.3,0.2,0.8,0.2,1.2c0,0.3,0,0.6,0,0.8c0,0.1,0,0.1,0,0.2c0,0.1,0,0.1,0.1,0.1
		c0,0,0.1,0,0.1-0.1c0,0,0.1-0.1,0.1-0.1c0.1,0,0.1-0.1,0.2-0.2c0,0,0.4-0.4,0.5-0.5c0.1-0.1,0.1-0.2,0.2-0.3
		c0.3-0.4,0.7-0.9,0.9-1.6c0-0.1,0.1-0.3,0.1-0.4c0.1-0.6,0.2-1.1,0.3-1.7c0.1-0.6,0.1-1.1,0-1.7c0-0.1,0-0.1,0-0.2
		c0-0.2,0-0.4-0.1-0.5c-0.2-1.1-0.4-2.4-0.7-3.2c-0.1-0.3-0.3-0.8-0.5-1.2c-0.3-0.8-0.7-1.6-1-2.2c-0.1-0.3-0.4-0.7-0.7-1.2h8
		c1.6,0,2.9,0.9,3.5,2.2c-0.1,0.3-0.3,0.5-0.5,0.8c-0.1,0.2-0.3,0.4-0.4,0.6c-0.2,0.4-0.5,0.7-0.8,1c-0.1,0.2-0.3,0.3-0.4,0.4
		c-0.5,0.5-1.1,0.9-1.5,1.2c-0.2,0.1-0.4,0.2-0.5,0.3c-0.3,0.2-0.5,0.4-0.7,0.8c-0.3,0.6-0.9,1.6-1,1.8c0,0,0,0,0,0c0,0,0,0.1,0,0.1
		c0,0.1,0,0.2,0.1,0.2c0.1,0.1,0.4,0.1,0.4,0.1c0,0,0,0,0,0c0.2-0.1,1.1-0.9,1.1-1c0,0,0.7-0.4-0.2,1c-0.1,0.2-0.3-0.2-0.4,0.3
		c-0.1,0.6,0,0.8-0.1,1c-0.5,0.9-0.6-0.2-0.7-0.5c-0.1-0.2-0.3-0.4-0.4-0.5c-0.1,0-0.2,0.1-0.2,0.2c-0.1,0.2-0.3,0.9-0.4,1.5
		c0,0.2,0,0.3,0,0.4c0,0.5-0.3,1.1-0.7,1.5c-0.4,0.3-0.7,0.5-1,0.7c0,0-0.1,0-0.1,0.1c-0.3,0.1-0.6,0.3-0.6,0.4
		c-0.1,0.1-0.1,0.1,0,0.2c0,0,0.1,0,0.1,0c0.3,0,0.8-0.1,1.3-0.4c0.1,0,0.2-0.1,0.2-0.1c0.3-0.1,0.6-0.2,0.9-0.5
		c0.1-0.1,0.2-0.2,0.4-0.3c0.1-0.1,0.3-0.3,0.4-0.5c0.5-0.6,1.1-1.5,1.7-2.5c0.3-0.4,0.6-0.8,0.9-1.3c0.1-0.2,0.3-0.4,0.4-0.6
		c0.2-0.4,0.5-0.7,0.7-1c0.8-1.1,1.4-2,1.9-2.9c0.2-0.4,0.4-0.8,0.6-1.3c0,0.1,0,0.2,0,0.4v4.9c-0.1,0-0.1,0-0.2,0.1
		c-0.4,0.2-0.8,0.4-1.2,0.7c-0.4,0.3-0.9,0.6-1.2,0.9c0,0-0.1,0-0.1,0.1c-0.2,0.1-0.3,0.3-0.5,0.5c-0.2,0.2-0.4,0.4-0.6,0.6
		c-0.6,0.7-0.9,1-0.9,1.1c-0.3,0.4,0.3-0.4,0,0c-0.2,0.2-0.3,0.4-0.5,0.6c-0.4,0.4-0.7,0.9-0.8,1c0,0.1-0.1,0.1,0,0.1
		c0,0,0.1,0,0.2,0c0.1,0,0.3-0.1,0.9-0.2c0.1,0,0.1,0,0.2,0c0.3-0.1,0.7-0.2,1.2-0.5c0.1-0.1,0.3-0.1,0.5-0.2
		c0.2-0.1,0.5-0.3,0.8-0.4c0.1,0,0.1-0.1,0.2-0.1c1.1-0.6,1.6-1.1,2.1-1.6v3.3c-1,0.1-2.1,0.2-3.1,0.3c-0.5,0-0.3,0-0.8,0
		c-0.1,0-0.3,0-0.5,0c-0.3,0-0.8,0-0.9,0c-0.4,0-0.8,0.1-1.2,0.1c-0.3,0-0.6,0.1-1,0.1c-0.1,0-0.2,0-0.3,0c-0.3,0-0.6,0.1-1,0.1
		c-0.4,0-0.8,0.1-1.2,0.2c-0.8,0.1-1.6,0.3-2.4,0.5c0.2-0.5,0.2-0.9,0.2-1.2c0-0.2,0-0.4,0-0.7c0-0.2,0-0.3-0.1-0.5
		c0-0.1,0-0.2-0.1-0.3c0-0.1-0.1-0.2-0.2-0.3c-0.2-0.4-0.6-0.8-1-1.3c-0.4-0.4-0.7-0.7-1.1-0.9c-0.4-0.2-0.9-0.3-1.5-0.5
		c-0.1,0-0.1,0-0.2,0c-0.8-0.1-1.5-0.1-2.2,0c-0.3,0-0.6,0.1-0.9,0.2c-0.3,0.1-0.6,0.2-0.9,0.3c-0.5,0.2-1.1,0.4-1.6,0.5
		c-0.2,0.1-0.4,0.1-0.6,0.2c-0.2,0.1-0.4,0.1-0.7,0.1c-0.6,0.1-1.2,0.1-1.7,0.2c-0.2,0-0.4,0-0.5,0c0,0,0,0-0.1,0v-5.2
		c0.1,0.1,0.3,0.2,0.4,0.2c0.3,0.2,0.6,0.3,0.8,0.4c0.1,0,0.1,0.1,0.2,0.1c0.1,0,0.2,0.1,0.2,0.1c0.2,0.1,1.5,0.5,1.7,0.5
		c0.9,0.3,1.3,0.5,2.3,0.9c0.5,0.2,0.4,0.1,0.8,0.4c0.1,0.1,0.3,0.1,0.4,0.2c0.2,0.1,0.3,0.2,0.3,0.2s0.7,0,1.4,0
		c0.4,0,1.3,0.2,1.6,0.3c0,0,0.1,0,0.1,0c0.5,0.2,0.7,0.3,1,0.5c0.5,0.3,1.2,0.9,1.2,1.1c0.1,0.1,0-0.1-0.2-0.5
		c-0.1-0.1-0.2-0.5-0.3-0.7c-0.1-0.3-0.1-0.4-0.3-0.8c-0.2-0.4-0.5-0.7-0.7-1c-0.2-0.2-0.4-0.4-0.6-0.6c-0.2-0.2-0.5-0.4-0.7-0.6
		c-0.2-0.1-0.4-0.3-0.6-0.4c-0.2-0.1-0.4-0.2-0.7-0.3c-0.2-0.1-0.4-0.2-0.6-0.2c-0.3-0.1-0.3-0.1-0.7-0.2c-0.6-0.1-0.6-0.1-1.1-0.2
		c-0.3,0-0.5-0.1-0.8-0.1c-0.4,0-0.8-0.1-1.2-0.1c-0.4-0.1-0.8-0.1-1.2-0.2c-0.7-0.1-1.2-0.2-1.8-0.4c-0.1,0-0.3-0.1-0.6-0.2
		c-0.1,0-0.2-0.1-0.4-0.1v-1.1C685.2,101.6,687,99.9,689.2,99.9z M685.2,123v-9.9c0.3,0.1,0.5,0.2,0.8,0.3c0.6,0.1,1.3,0.2,2.2,0.2
		c0.7,0,1.4,0,2.1-0.1c0.2,0,0.4,0,0.5,0c0.3,0,0.6-0.1,0.9-0.1c0.7-0.1,1.1-0.1,1.6-0.1c0.7,0,0.8-0.1,1.2-0.1c0.4,0,0.7,0,1,0
		c0.5,0,1,0.2,1.6,0.4c0.3,0.1,0.5,0.2,0.5,0.3c0.2,0.3-0.1,0.7-0.3,1.3c-0.1,0.2-0.2,0.4-0.2,0.5c-0.2,0.3-0.4,0.6-0.6,0.8
		c-0.4,0.1-0.8,0.3-1.1,0.4c-0.3,0.1-0.5,0.2-0.8,0.3c-0.1,0.1-0.2,0.1-0.4,0.2c-0.6,0.3-1.3,0.7-1.9,1.2c-0.2,0.1-0.3,0.3-0.5,0.4
		c-0.1,0.1-0.1,0.1-0.2,0.2c-0.1,0.1-0.3,0.3-0.4,0.4c0,0-0.1,0.1-0.1,0.1c-0.1,0.1-0.2,0.2-0.3,0.3c-0.4,0.4-0.7,0.9-1,1.4
		c-0.2,0.5-0.4,0.9-0.6,1.5c-0.1,0.2-0.1,0.3-0.2,0.5c-0.1,0.4-0.2,0.9-0.4,1.4c-0.1,0.3-0.1,0.7-0.2,1c-0.2,0.8-0.2,0.9-0.4,1.3
		C686.5,126.3,685.2,124.8,685.2,123z M706.8,126.9h-14.1c0-0.5-0.1-0.6-0.1-1.2c0-0.6,0.1-0.8,0.3-1.5c0.1-0.3,0.2-0.5,0.3-0.8
		c0.1-0.3,0.3-0.5,0.4-0.7c0.2-0.2,0.5-0.3,1-0.3c0.1,0,0.3,0,0.5,0c0.1,0,0.1,0,0.2,0c0.4,0,0.6,0,0.9-0.1c0.3,0,0.7-0.1,1.3-0.2
		c0.1,0,0.2-0.1,0.4-0.1c0.1,0,0.1,0,0.2,0c0.1,0,0.2-0.1,0.3-0.1c1.5-0.4,3.3-1.1,4.8-1.8c1.7-0.8,3-1.2,4.2-1.8
		c0.7-0.3,1.5-0.7,2.4-1.2c0.4-0.2,0.7-0.4,1.1-0.6v6.3C710.8,125.2,709,126.9,706.8,126.9z"/>
</g>
<g id="Expedia_2_">
	<g>
		<path class="st1" d="M94.9,50.9H91c0,0,0,0,0,0l-3.3-4.1l-3.3,4.1c0,0,0,0,0,0h-3.1c0,0,0,0,0,0c0,0,0,0,0,0l4.9-6l-4.8-6
			c0,0,0,0,0-0.1c0,0,0,0,0,0h3.9c0,0,0,0,0,0l2.9,3.6l3-3.6c0,0,0,0,0,0h3.1c0,0,0,0,0,0c0,0,0,0,0,0.1l-4.6,5.5L94.9,50.9
			C94.9,50.8,95,50.8,94.9,50.9C94.9,50.9,94.9,50.9,94.9,50.9L94.9,50.9z"/>
		<path class="st1" d="M121.4,45.6C121.4,45.6,121.3,45.6,121.4,45.6l-8.9,0c0.2,2.1,1.5,3.2,3.7,3.2c1.3,0,2.7-0.5,4.7-1.5
			c0,0,0.1,0,0.1,0l0,2.7c0,0,0,0,0,0c-1.9,0.8-3.7,1.3-5.2,1.3l0,0c-3.8,0-6.6-2.8-6.6-6.6c0-3.8,2.8-6.6,6.6-6.6
			c3.5,0,5.7,2.3,5.7,5.5C121.5,44.3,121.4,45.6,121.4,45.6z M115.8,40.9c-1.7,0-2.9,1-3.2,2.8h5.8v-0.1
			C118.4,42.2,117.3,40.9,115.8,40.9L115.8,40.9z"/>
		<path class="st1" d="M137.7,50.9C137.7,50.9,137.7,50.9,137.7,50.9l0-12.1c0,0,0,0,0,0h3.2c0,0,0,0,0,0v12c0,0,0,0,0,0H137.7z
			 M139.3,36.3c-1.1,0-2-0.9-2-1.9c0-1.1,0.9-2,2-2c1.1,0,2,0.9,2,2C141.3,35.4,140.4,36.3,139.3,36.3L139.3,36.3z"/>
		<path class="st1" d="M101.6,38.3c-0.9,0-1.8,0.2-2.8,0.5h-3.2c0,0,0,0,0,0v19.7c1-0.1,2.1-0.5,3.3-1.3v-6c0.8,0.1,1.4,0.2,2.1,0.2
			c4.3,0,7.2-2.6,7.2-6.6C108.1,41,105.4,38.3,101.6,38.3z M100.7,49.1c-0.6,0-1.2-0.1-1.8-0.3l0-7.7c0.8-0.3,1.5-0.4,2.2-0.4
			c2.2,0,3.7,1.6,3.7,4.1C104.8,47.4,103.2,49.1,100.7,49.1z"/>
		<path class="st1" d="M131.9,32.4v6.3c-0.9-0.3-1.7-0.4-2.6-0.4c-3.8,0-6.6,2.8-6.6,6.6c0,3.8,2.5,6.5,6,6.5c1.2,0,2.3-0.3,3.6-1
			l0,1.1c0.9-0.2,1.9-0.5,2.9-1.2V31.1C134.2,31.2,133.1,31.6,131.9,32.4z M131.9,48.1c-1,0.5-1.9,0.8-2.7,0.8c-2,0-3.1-1.4-3.1-3.7
			c0-2.7,1.5-4.4,3.8-4.4c0.6,0,1.3,0.2,2,0.5V48.1z"/>
		<path class="st1" d="M155.2,38.6c0-0.1-0.1-0.1-0.1-0.1l-2.6,0c-0.1,0-0.1,0.1-0.1,0.1v0.4h-0.1c-1.2-0.5-2.2-0.8-3.2-0.8
			c-3.6,0-6.4,3-6.4,6.7c0,3.8,2.5,6.4,6.2,6.4c1,0,2.3-0.1,3.5-1.4v1.5c0.8-0.2,1.8-0.5,2.8-1.2L155.2,38.6z M152,48.1
			c-1,0.5-1.8,0.8-2.5,0.8c-2.1,0-3.4-1.4-3.4-3.7c0-2.7,1.5-4.4,3.7-4.4c0.6,0,1.3,0.2,2.2,0.7V48.1z"/>
		<path class="st1" d="M72.4,47.9h8c-0.1,0.9-0.4,1.9-1.1,3h-6.9h-1.4c0,0-0.1,0-0.1,0c-1,0-1.9-0.8-2-1.8c0,0,0,0,0,0v-8.2v-7.6
			c0,0,0,0,0,0c0.1-1,0.9-1.8,2-1.8c0,0,0.1,0,0.1,0h9.3c-0.1,0.9-0.4,2-1.1,3h-6.9v4.3h6.8c0,0,0,0,0,0v3c0,0,0,0,0,0h-6.8V47.9
			L72.4,47.9z"/>
	</g>
	<g>
		<path class="st1" d="M62.4,48.2c-0.8,0-1.5,0.6-1.5,1.5c0,0.9,0.6,1.5,1.5,1.5c0.8,0,1.5-0.6,1.5-1.5
			C63.9,48.8,63.2,48.2,62.4,48.2z M62.4,51.1c-0.8,0-1.3-0.6-1.3-1.4c0-0.8,0.6-1.4,1.3-1.4c0.7,0,1.3,0.6,1.3,1.4
			C63.7,50.6,63.1,51.1,62.4,51.1z"/>
		<path class="st1" d="M63.1,49.4c0-0.4-0.2-0.5-0.7-0.5h-0.7v1.8h0.3v-0.8h0.3l0.5,0.8h0.3l-0.5-0.8C62.9,49.8,63.1,49.7,63.1,49.4
			z M62.1,49.6v-0.6h0.4c0.2,0,0.4,0,0.4,0.3c0,0.3-0.2,0.3-0.4,0.3H62.1z"/>
	</g>
	<g>
		<path class="st1" d="M157.9,37.9c-0.8,0-1.5,0.6-1.5,1.5c0,0.9,0.6,1.5,1.5,1.5c0.8,0,1.5-0.6,1.5-1.5
			C159.4,38.5,158.7,37.9,157.9,37.9z M157.9,40.8c-0.8,0-1.3-0.6-1.3-1.4c0-0.8,0.6-1.4,1.3-1.4c0.7,0,1.3,0.6,1.3,1.4
			C159.1,40.2,158.6,40.8,157.9,40.8z"/>
		<path class="st1" d="M158.6,39c0-0.4-0.2-0.5-0.7-0.5h-0.7v1.8h0.3v-0.8h0.3l0.5,0.8h0.3l-0.5-0.8C158.4,39.5,158.6,39.3,158.6,39
			z M157.5,39.3v-0.6h0.4c0.2,0,0.4,0,0.4,0.3c0,0.3-0.2,0.3-0.4,0.3H157.5z"/>
	</g>
	<g>
		<path class="st1" d="M52.1,34.5l-0.6-1.6l-4.9-6.6l0.9-0.2l8.5,7.3l5-1.4c0.6-0.2,1.3-0.2,1.8-0.2c-1.6-3.4-4.4-6.2-8.2-7.5
			C47,21.6,38.7,25.5,36.1,33c-0.8,2.3-1,4.7-0.7,7l12-4.2L52.1,34.5z"/>
		<path class="st1" d="M63.2,33.1c-0.4,0.3-1.1,0.7-1.7,0.9l-5,1.4l-3.3,10.7l-0.9,0.3l0.7-8.2l-0.4-1.7l-4.7,1.3l-12.4,2.9
			c1,4.8,4.4,8.9,9.3,10.7c7.5,2.7,15.7-1.2,18.4-8.7C64.4,39.4,64.3,36.1,63.2,33.1z"/>
	</g>
</g>
<g>
	<path class="st1" d="M432.9,41.2c0-1.1-1-2.7-3-2.7c-1.8,0-3,1.5-3,3.1c0,1.9,1.3,3.2,3.5,3.2h4.2c-1,1.6-2.7,2.6-4.7,2.6
		c-3.2,0-5.7-2.6-5.7-5.8c0-3.2,2.6-5.8,5.7-5.8c3.2,0,5.8,2.6,5.8,5.8c0,0.6-0.1,1.2-0.3,1.8H429v-0.6l2.3-0.1
		C432.4,42.7,432.9,42.1,432.9,41.2"/>
	<path class="st1" d="M440.6,39.2c0.1,0.2,0.2,0.2,0.3,0l2-3h3l-3.7,5.2l4,5.6H443l-2.3-3.3c-0.1-0.2-0.2-0.2-0.3,0l-2.3,3.3h-3
		l4-5.5l-3.8-5.3h3.2L440.6,39.2L440.6,39.2z"/>
	<path class="st1" d="M449.8,38.4c0.8-1.7,2.2-2.4,3.7-2.4c2.6,0,5,2.2,5,5.7c0,3.5-2.4,5.7-5,5.7c-1.4,0-2.9-0.7-3.7-2.4
		c0-0.1-0.1-0.1-0.1,0v6.6h-2.8V36.2h2.8v2.1C449.7,38.4,449.8,38.4,449.8,38.4 M452.7,45.1c1.6,0,3-1.4,3-3.4c0-2-1.4-3.4-3-3.4
		c-1.6,0-3,1.4-3,3.4C449.6,43.6,451.1,45.1,452.7,45.1"/>
	<path class="st1" d="M468.3,41.2c0-1.1-1-2.7-3-2.7c-1.8,0-3,1.5-3,3.1c0,1.9,1.3,3.2,3.5,3.2h4.2c-1,1.6-2.7,2.6-4.7,2.6
		c-3.2,0-5.7-2.6-5.7-5.8c0-3.2,2.6-5.8,5.7-5.8c3.2,0,5.8,2.6,5.8,5.8c0,0.6-0.1,1.2-0.3,1.8h-6.4v-0.6l2.3-0.1
		C467.8,42.7,468.3,42.1,468.3,41.2"/>
	<path class="st1" d="M480.8,44.9c-0.8,1.7-2.2,2.4-3.7,2.4c-2.6,0-5-2.2-5-5.7c0-3.5,2.4-5.7,5-5.7c1.4,0,2.9,0.7,3.7,2.4
		c0,0.1,0.1,0.1,0.1,0v-6.8h2.8v15.5h-2.8V45C480.9,44.9,480.9,44.8,480.8,44.9 M477.9,38.2c-1.6,0-3.1,1.4-3.1,3.4
		c0,2,1.4,3.4,3.1,3.4c1.6,0,3-1.4,3-3.4C481,39.7,479.5,38.2,477.9,38.2"/>
	<path class="st1" d="M485.7,33.1c0-0.9,0.7-1.6,1.6-1.6c0.9,0,1.6,0.7,1.6,1.6c0,0.9-0.7,1.6-1.6,1.6
		C486.5,34.7,485.7,34,485.7,33.1 M488.8,47.1H486V36.2h2.8V47.1L488.8,47.1z"/>
	<path class="st1" d="M499,44.9c-0.8,1.7-2.2,2.4-3.7,2.4c-2.6,0-5-2.2-5-5.7c0-3.5,2.4-5.7,5-5.7c1.4,0,2.9,0.7,3.7,2.4
		c0,0.1,0.1,0.1,0.1,0v-2.1h2.8v10.8h-2.8V45C499.1,44.9,499.1,44.8,499,44.9 M496.1,38.2c-1.6,0-3,1.4-3,3.4c0,2,1.4,3.4,3,3.4
		c1.6,0,3-1.4,3-3.4C499.2,39.7,497.8,38.2,496.1,38.2"/>
	<path class="st1" d="M516.3,44.9c0-0.1-0.1-0.1-0.1,0c-0.8,1.7-2.2,2.4-3.6,2.4c-2.6,0-4.9-2.2-4.9-5.7c0-3.5,2.4-5.7,4.9-5.7
		c1.4,0,2.8,0.7,3.6,2.4c0,0.1,0.1,0.1,0.1,0v-2.1h2.8v10.2c0,3-2.1,5.3-5.7,5.3c-2,0-3.7-0.7-5-1.9l1.7-1.8c1.1,0.9,2,1.4,3.3,1.4
		c2,0,2.9-1.4,2.9-3.2V44.9L516.3,44.9z M513.3,38.2c-1.6,0-3,1.4-3,3.4c0,2,1.4,3.4,3,3.4c1.6,0,3-1.4,3-3.4
		C516.4,39.6,514.9,38.2,513.3,38.2"/>
	<path class="st1" d="M524.1,36.2v2.4c0,0,0,0.1,0.1,0c0.4-1.9,1.2-2.7,2.7-2.7h0.3v2.9h-1.3c-1.1,0-1.7,0.9-1.7,2.1v6h-2.8V36.2
		H524.1L524.1,36.2z"/>
	<path class="st1" d="M533.3,35.9c3.1,0,5.7,2.6,5.7,5.8c0,3.2-2.6,5.8-5.7,5.8c-3.2,0-5.8-2.6-5.8-5.8
		C527.5,38.5,530.1,35.9,533.3,35.9 M533.3,38.4c-1.7,0-3,1.4-3,3.2c0,1.8,1.4,3.2,3,3.2c1.7,0,3-1.4,3-3.2
		C536.3,39.8,534.9,38.4,533.3,38.4"/>
	<path class="st1" d="M545,47.4c-2.7,0-4.5-1.7-4.5-4.1v-7.1h2.8v6.9c0,1.1,0.7,1.8,1.7,1.8c1,0,1.7-0.7,1.7-1.8v-6.9h2.8v7.1
		C549.6,45.8,547.7,47.4,545,47.4"/>
	<path class="st1" d="M554.6,38.4c0.8-1.7,2.2-2.4,3.7-2.4c2.6,0,5,2.2,5,5.7c0,3.5-2.4,5.7-5,5.7c-1.4,0-2.9-0.7-3.7-2.4
		c0-0.1-0.1-0.1-0.1,0v6.6h-2.8V36.2h2.8v2.1C554.5,38.4,554.6,38.4,554.6,38.4 M557.5,45.1c1.6,0,3-1.4,3-3.4c0-2-1.4-3.4-3-3.4
		c-1.6,0-3,1.4-3,3.4C554.5,43.6,555.9,45.1,557.5,45.1"/>
	<polygon class="st1" points="565.9,36.2 565.9,36.5 565.4,36.5 565.4,37.9 565.1,37.9 565.1,36.5 564.6,36.5 564.6,36.2
		565.9,36.2 	"/>
	<path class="st1" d="M567.2,36.2h0.5v1.6h-0.3v-1.1c0,0,0-0.1,0-0.1c0-0.1,0-0.1,0-0.1l-0.3,1.4h-0.3l-0.3-1.4c0,0,0,0.1,0,0.1
		c0,0.1,0,0.1,0,0.1v1.1h-0.3v-1.6h0.5l0.3,1.3L567.2,36.2L567.2,36.2z"/>
	<path class="st1" d="M450.6,57.9h0.7V59c0.3-0.4,0.6-0.7,1-0.9c0.4-0.2,0.8-0.3,1.3-0.3c0.8,0,1.5,0.3,2.1,0.9
		c0.6,0.6,0.9,1.3,0.9,2.1c0,0.8-0.3,1.6-0.9,2.2c-0.6,0.6-1.3,0.9-2.1,0.9c-0.5,0-0.9-0.1-1.3-0.3c-0.4-0.2-0.7-0.5-1-0.9v3.1h-0.7
		V57.9L450.6,57.9z M453.5,58.5c-0.6,0-1.2,0.2-1.6,0.7c-0.4,0.4-0.7,1-0.7,1.7c0,0.4,0.1,0.8,0.3,1.2c0.2,0.3,0.5,0.6,0.8,0.8
		c0.4,0.2,0.7,0.3,1.1,0.3c0.4,0,0.8-0.1,1.1-0.3c0.3-0.2,0.6-0.5,0.8-0.9c0.2-0.4,0.3-0.8,0.3-1.2c0-0.4-0.1-0.8-0.3-1.2
		c-0.2-0.4-0.5-0.7-0.8-0.9C454.3,58.6,453.9,58.5,453.5,58.5"/>
	<path class="st1" d="M463.6,57.9v5.8h-0.7v-1c-0.3,0.4-0.7,0.7-1,0.9c-0.4,0.2-0.8,0.3-1.3,0.3c-0.8,0-1.5-0.3-2.1-0.9
		c-0.6-0.6-0.9-1.3-0.9-2.2c0-0.8,0.3-1.5,0.9-2.1c0.6-0.6,1.3-0.9,2.1-0.9c0.5,0,0.9,0.1,1.3,0.3c0.4,0.2,0.7,0.5,1,0.9v-1.1H463.6
		L463.6,57.9z M460.7,58.5c-0.4,0-0.8,0.1-1.1,0.3c-0.3,0.2-0.6,0.5-0.8,0.9c-0.2,0.4-0.3,0.8-0.3,1.2c0,0.4,0.1,0.8,0.3,1.2
		c0.2,0.4,0.5,0.7,0.8,0.9c0.3,0.2,0.7,0.3,1.1,0.3c0.4,0,0.8-0.1,1.1-0.3c0.4-0.2,0.6-0.5,0.8-0.8c0.2-0.3,0.3-0.7,0.3-1.2
		c0-0.7-0.2-1.2-0.7-1.7C461.9,58.7,461.3,58.5,460.7,58.5"/>
	<path class="st1" d="M465,57.9h0.8v0.8c0.2-0.3,0.5-0.6,0.7-0.7c0.2-0.2,0.5-0.2,0.8-0.2c0.2,0,0.4,0.1,0.7,0.2l-0.4,0.6
		c-0.2-0.1-0.3-0.1-0.4-0.1c-0.2,0-0.5,0.1-0.7,0.3c-0.2,0.2-0.4,0.5-0.5,0.9c-0.1,0.3-0.1,1-0.1,2v1.9H465V57.9L465,57.9z"/>
	<polygon class="st1" points="469.2,55.8 469.9,55.8 469.9,57.9 471.1,57.9 471.1,58.6 469.9,58.6 469.9,63.7 469.2,63.7
		469.2,58.6 468.2,58.6 468.2,57.9 469.2,57.9 469.2,55.8 	"/>
	<path class="st1" d="M472.2,57.9h0.7v1c0.3-0.4,0.6-0.7,1-0.9c0.4-0.2,0.7-0.3,1.2-0.3c0.4,0,0.8,0.1,1.1,0.3
		c0.3,0.2,0.6,0.5,0.7,0.9c0.2,0.4,0.2,0.9,0.2,1.7v3h-0.7V61c0-0.7,0-1.1-0.1-1.3c-0.1-0.4-0.2-0.7-0.5-0.9
		c-0.2-0.2-0.6-0.3-0.9-0.3c-0.4,0-0.8,0.1-1.2,0.4c-0.4,0.3-0.6,0.7-0.7,1.1c-0.1,0.3-0.1,0.8-0.1,1.6v2.1h-0.7V57.9L472.2,57.9z"
		/>
	<path class="st1" d="M483.6,61.8l0.6,0.3c-0.2,0.4-0.4,0.7-0.7,1c-0.3,0.2-0.6,0.4-0.9,0.6c-0.3,0.1-0.7,0.2-1.1,0.2
		c-0.9,0-1.7-0.3-2.2-0.9c-0.5-0.6-0.8-1.3-0.8-2.1c0-0.7,0.2-1.4,0.7-2c0.6-0.7,1.3-1.1,2.3-1.1c1,0,1.8,0.4,2.3,1.1
		c0.4,0.5,0.6,1.2,0.6,2h-5.2c0,0.7,0.2,1.2,0.6,1.6c0.4,0.4,0.9,0.6,1.5,0.6c0.3,0,0.6-0.1,0.9-0.2c0.3-0.1,0.5-0.2,0.7-0.4
		C483.2,62.4,483.4,62.2,483.6,61.8 M483.6,60.2c-0.1-0.4-0.2-0.7-0.4-0.9c-0.2-0.2-0.4-0.4-0.7-0.6c-0.3-0.1-0.6-0.2-1-0.2
		c-0.6,0-1,0.2-1.5,0.5c-0.3,0.3-0.5,0.7-0.7,1.2H483.6L483.6,60.2z"/>
	<path class="st1" d="M485.5,57.9h0.8v0.8c0.2-0.3,0.5-0.6,0.7-0.7c0.2-0.2,0.5-0.2,0.8-0.2c0.2,0,0.4,0.1,0.7,0.2l-0.4,0.6
		c-0.2-0.1-0.3-0.1-0.4-0.1c-0.2,0-0.5,0.1-0.7,0.3c-0.2,0.2-0.4,0.5-0.5,0.9c-0.1,0.3-0.1,1-0.1,2v1.9h-0.8V57.9L485.5,57.9z"/>
	<path class="st1" d="M494.9,58.6l-0.5,0.5c-0.4-0.4-0.8-0.6-1.2-0.6c-0.2,0-0.4,0.1-0.6,0.2c-0.2,0.2-0.3,0.3-0.3,0.6
		c0,0.2,0.1,0.4,0.2,0.5c0.1,0.2,0.4,0.4,0.9,0.6c0.5,0.3,0.9,0.6,1.1,0.8c0.2,0.3,0.3,0.6,0.3,0.9c0,0.5-0.2,0.9-0.5,1.2
		c-0.3,0.3-0.7,0.5-1.2,0.5c-0.3,0-0.6-0.1-0.9-0.2c-0.3-0.1-0.6-0.3-0.7-0.6l0.5-0.5c0.4,0.4,0.8,0.6,1.2,0.6
		c0.3,0,0.5-0.1,0.8-0.3c0.2-0.2,0.3-0.4,0.3-0.7c0-0.2-0.1-0.4-0.2-0.6c-0.1-0.2-0.4-0.4-0.9-0.6c-0.5-0.3-0.9-0.5-1.1-0.8
		c-0.2-0.3-0.3-0.6-0.3-0.9c0-0.4,0.1-0.8,0.4-1.1c0.3-0.3,0.7-0.4,1.1-0.4C493.9,57.8,494.4,58.1,494.9,58.6"/>
	<path class="st1" d="M499,57.8c0.9,0,1.6,0.3,2.2,1c0.5,0.6,0.8,1.3,0.8,2.1c0,0.8-0.3,1.5-0.8,2.1c-0.6,0.6-1.3,0.9-2.2,0.9
		c-0.9,0-1.6-0.3-2.2-0.9c-0.6-0.6-0.8-1.3-0.8-2.1c0-0.8,0.3-1.5,0.8-2.1C497.3,58.1,498.1,57.8,499,57.8 M498.9,58.5
		c-0.6,0-1.1,0.2-1.6,0.7c-0.4,0.5-0.7,1-0.7,1.7c0,0.4,0.1,0.8,0.3,1.2c0.2,0.4,0.5,0.6,0.8,0.8c0.3,0.2,0.7,0.3,1.1,0.3
		c0.4,0,0.8-0.1,1.1-0.3c0.3-0.2,0.6-0.5,0.8-0.8c0.2-0.4,0.3-0.7,0.3-1.2c0-0.6-0.2-1.2-0.7-1.7C500.1,58.7,499.6,58.5,498.9,58.5"
		/>
	<polygon class="st1" points="503.2,55.7 503.9,55.7 503.9,63.7 503.2,63.7 503.2,55.7 	"/>
	<path class="st1" d="M505.4,57.9h0.7v2.7c0,0.7,0,1.1,0.1,1.4c0.1,0.4,0.3,0.6,0.6,0.8c0.3,0.2,0.7,0.3,1.1,0.3
		c0.4,0,0.8-0.1,1-0.3c0.3-0.2,0.5-0.5,0.6-0.8c0.1-0.2,0.1-0.7,0.1-1.4v-2.7h0.8v2.8c0,0.8-0.1,1.4-0.3,1.8
		c-0.2,0.4-0.5,0.7-0.8,0.9c-0.4,0.2-0.8,0.3-1.4,0.3c-0.6,0-1-0.1-1.4-0.3c-0.4-0.2-0.7-0.5-0.8-1c-0.2-0.4-0.3-1-0.3-1.8V57.9
		L505.4,57.9z"/>
	<polygon class="st1" points="512.7,55.8 513.4,55.8 513.4,57.9 514.6,57.9 514.6,58.6 513.4,58.6 513.4,63.7 512.7,63.7
		512.7,58.6 511.7,58.6 511.7,57.9 512.7,57.9 512.7,55.8 	"/>
	<path class="st1" d="M516,55.6c0.2,0,0.3,0.1,0.4,0.2c0.1,0.1,0.2,0.3,0.2,0.4c0,0.2-0.1,0.3-0.2,0.4c-0.1,0.1-0.3,0.2-0.4,0.2
		c-0.2,0-0.3-0.1-0.4-0.2c-0.1-0.1-0.2-0.3-0.2-0.4c0-0.2,0.1-0.3,0.2-0.4C515.6,55.6,515.8,55.6,516,55.6 M515.6,57.9h0.7v5.8h-0.7
		V57.9L515.6,57.9z"/>
	<path class="st1" d="M520.6,57.8c0.9,0,1.6,0.3,2.2,1c0.5,0.6,0.8,1.3,0.8,2.1c0,0.8-0.3,1.5-0.8,2.1c-0.6,0.6-1.3,0.9-2.2,0.9
		c-0.9,0-1.6-0.3-2.2-0.9c-0.6-0.6-0.8-1.3-0.8-2.1c0-0.8,0.3-1.5,0.8-2.1C519,58.1,519.7,57.8,520.6,57.8 M520.6,58.5
		c-0.6,0-1.1,0.2-1.6,0.7c-0.4,0.5-0.7,1-0.7,1.7c0,0.4,0.1,0.8,0.3,1.2c0.2,0.4,0.5,0.6,0.8,0.8c0.3,0.2,0.7,0.3,1.1,0.3
		c0.4,0,0.8-0.1,1.1-0.3c0.3-0.2,0.6-0.5,0.8-0.8c0.2-0.4,0.3-0.7,0.3-1.2c0-0.6-0.2-1.2-0.7-1.7C521.7,58.7,521.2,58.5,520.6,58.5"
		/>
	<path class="st1" d="M524.9,57.9h0.7v1c0.3-0.4,0.6-0.7,1-0.9c0.4-0.2,0.7-0.3,1.2-0.3c0.4,0,0.8,0.1,1.1,0.3
		c0.3,0.2,0.6,0.5,0.7,0.9c0.2,0.4,0.2,0.9,0.2,1.7v3h-0.7V61c0-0.7,0-1.1-0.1-1.3c-0.1-0.4-0.2-0.7-0.5-0.9
		c-0.2-0.2-0.6-0.3-0.9-0.3c-0.4,0-0.8,0.1-1.2,0.4c-0.4,0.3-0.6,0.7-0.7,1.1c-0.1,0.3-0.1,0.8-0.1,1.6v2.1h-0.7V57.9L524.9,57.9z"
		/>
	<path class="st1" d="M534.4,58.6l-0.5,0.5c-0.4-0.4-0.8-0.6-1.2-0.6c-0.2,0-0.4,0.1-0.6,0.2c-0.2,0.2-0.3,0.3-0.3,0.6
		c0,0.2,0.1,0.4,0.2,0.5c0.1,0.2,0.4,0.4,0.9,0.6c0.5,0.3,0.9,0.6,1.1,0.8c0.2,0.3,0.3,0.6,0.3,0.9c0,0.5-0.2,0.9-0.5,1.2
		c-0.3,0.3-0.7,0.5-1.2,0.5c-0.3,0-0.6-0.1-0.9-0.2c-0.3-0.1-0.5-0.3-0.7-0.6l0.5-0.5c0.4,0.4,0.8,0.6,1.2,0.6
		c0.3,0,0.5-0.1,0.8-0.3c0.2-0.2,0.3-0.4,0.3-0.7c0-0.2-0.1-0.4-0.2-0.6c-0.1-0.2-0.4-0.4-0.9-0.6c-0.5-0.3-0.9-0.5-1.1-0.8
		c-0.2-0.3-0.3-0.6-0.3-0.9c0-0.4,0.1-0.8,0.4-1.1c0.3-0.3,0.7-0.4,1.1-0.4C533.3,57.8,533.9,58.1,534.4,58.6"/>
	<path class="st1" d="M445.6,56.9l-5.3-5.3l-5.3,5.3l-5.3-5.3l-5.3,5.3l0,0v5.3l5.3,5.3l5.3-5.3l5.3,5.3l5.3-5.3L445.6,56.9z
		 M429.6,62.3l-4.9-4.9l4.9-4.9l4.9,4.9L429.6,62.3z M440.3,66.8l-4.9-4.9l4.9-4.9l4.9,4.9L440.3,66.8z"/>
</g>
</svg>
