<?xml version="1.0" encoding="utf-8" standalone="yes"?><!-- Generator: Adobe Illustrator 23.0.2, SVG Export Plug-In . SVG Version: 6.00 Build 0)  --><svg xmlns="http://www.w3.org/2000/svg" xmlns:xlink="http://www.w3.org/1999/xlink" version="1.1" x="0px" y="0px" viewBox="0 0 1440 160" style="enable-background:new 0 0 1440 160;zoom: 1;" xml:space="preserve"><style type="text/css">
        .st0{fill:#ffffff;}
</style><g id="Layer_2"></g><g id="Layer_1"><g id="Trivago_2_"><polygon class="st0" points="1003.5,31.7 1008.2,31.7 1011.7,41.2 1011.8,41.2 1015,31.7 1019.4,31.7 1013.9,45.7 1009.3,45.7"></polygon><path class="st0" d="M986.6,35.1h-4.2v4.7c0,0.4,0,0.7,0.1,1c0,0.3,0.1,0.6,0.3,0.8c0.1,0.2,0.4,0.4,0.7,0.5 c0.3,0.1,0.7,0.2,1.2,0.2c0.3,0,0.6,0,1-0.1c0.4,0,0.7-0.2,0.9-0.3v3.6c-0.5,0.2-1.1,0.3-1.6,0.3c-0.6,0.1-1.1,0.1-1.7,0.1 c-0.8,0-1.5-0.1-2.2-0.2c-0.7-0.1-1.3-0.4-1.8-0.7c-0.5-0.3-0.9-0.8-1.2-1.3c-0.3-0.5-0.4-1.2-0.4-2v-6.6h-3v-3.5h3v-4.1h4.7v4.1 h4.2V35.1z"></path><path class="st0" d="M987.8,31.7h4.3v2.2h0.1c0.5-0.9,1-1.5,1.6-1.9c0.6-0.4,1.4-0.6,2.4-0.6c0.2,0,0.5,0,0.7,0 c0.2,0,0.5,0.1,0.7,0.1v3.9c-0.3-0.1-0.6-0.2-0.9-0.2c-0.3,0-0.6-0.1-0.9-0.1c-0.8,0-1.5,0.1-2,0.3c-0.5,0.2-0.8,0.5-1.1,1 c-0.3,0.4-0.4,0.9-0.5,1.5c-0.1,0.6-0.1,1.2-0.1,1.9v5.8h-4.3V31.7z"></path><path class="st0" d="M998.6,31.7h4.3v14h-4.3V31.7z M998.5,28c0-0.6,0.2-1.2,0.7-1.6c0.4-0.5,1-0.7,1.6-0.7c0.6,0,1.2,0.2,1.6,0.7 c0.4,0.4,0.7,1,0.7,1.6c0,0.6-0.2,1.2-0.7,1.6c-0.4,0.5-1,0.7-1.6,0.7c-0.6,0-1.2-0.2-1.6-0.7C998.7,29.1,998.5,28.6,998.5,28"></path><path class="st0" d="M1026.7,39.5c-0.3,0-0.7,0-1.2,0c-0.5,0-1,0.1-1.4,0.2c-0.4,0.1-0.8,0.3-1.2,0.6c-0.3,0.3-0.5,0.6-0.5,1.1 c0,0.5,0.2,0.9,0.7,1.2c0.4,0.2,0.9,0.4,1.4,0.4c0.4,0,0.8-0.1,1.2-0.2c0.4-0.1,0.7-0.3,1.1-0.5c0.3-0.2,0.6-0.5,0.7-0.8 c0.2-0.3,0.3-0.7,0.3-1.2v-0.9H1026.7z M1027.8,43.9L1027.8,43.9c-0.5,0.7-1.2,1.3-2,1.6c-0.8,0.3-1.6,0.5-2.5,0.5 c-0.6,0-1.3-0.1-1.9-0.3c-0.6-0.2-1.1-0.5-1.6-0.8c-0.5-0.4-0.8-0.8-1.1-1.4c-0.3-0.5-0.4-1.2-0.4-1.9c0-0.8,0.2-1.5,0.4-2.1 c0.3-0.6,0.7-1,1.2-1.4c0.5-0.4,1.1-0.6,1.7-0.8c0.7-0.2,1.3-0.3,2-0.4c0.7-0.1,1.4-0.2,2.1-0.2c0.7,0,1.3,0,1.9,0 c0-0.8-0.3-1.4-0.8-1.8c-0.5-0.5-1.2-0.7-1.9-0.7c-0.7,0-1.4,0.1-1.9,0.4c-0.6,0.3-1.1,0.7-1.6,1.2l-2.3-2.4 c0.8-0.7,1.7-1.3,2.8-1.7c1.1-0.4,2.2-0.6,3.3-0.6c1.3,0,2.3,0.2,3.1,0.5c0.8,0.3,1.5,0.8,2,1.4c0.5,0.6,0.8,1.4,1,2.3 c0.2,0.9,0.3,1.9,0.3,3.1v7.1h-4V43.9z"></path><path class="st0" d="M1051.8,38.7c0,1.1,0.3,1.9,0.8,2.6c0.5,0.7,1.3,1,2.3,1c1,0,1.8-0.3,2.3-1c0.5-0.6,0.8-1.5,0.8-2.6 c0-1.1-0.3-1.9-0.8-2.6c-0.5-0.6-1.3-1-2.3-1c-1,0-1.8,0.3-2.3,1C1052.1,36.8,1051.8,37.6,1051.8,38.7 M1047.9,38.7 c0-1.1,0.2-2.1,0.5-3c0.4-0.9,0.9-1.7,1.5-2.3c0.6-0.6,1.4-1.1,2.2-1.5c0.9-0.3,1.8-0.5,2.7-0.5c1,0,1.9,0.2,2.7,0.5 c0.9,0.3,1.6,0.8,2.2,1.5c0.6,0.6,1.1,1.4,1.5,2.3c0.4,0.9,0.5,1.9,0.5,3c0,1.1-0.2,2.1-0.5,3c-0.4,0.9-0.9,1.7-1.5,2.3 c-0.6,0.6-1.4,1.1-2.2,1.5c-0.9,0.3-1.8,0.5-2.7,0.5c-1,0-1.9-0.2-2.7-0.5c-0.9-0.3-1.6-0.8-2.2-1.5c-0.6-0.6-1.1-1.4-1.5-2.3 C1048.1,40.8,1047.9,39.8,1047.9,38.7"></path><path class="st0" d="M1064.4,35.4c-1,0-1.8-0.8-1.8-1.8c0-1,0.8-1.8,1.8-1.8c1,0,1.8,0.8,1.8,1.8 C1066.2,34.6,1065.4,35.4,1064.4,35.4 M1064.4,31.3c-1.2,0-2.2,1-2.2,2.2c0,1.2,1,2.2,2.2,2.2c1.2,0,2.2-1,2.2-2.2 C1066.7,32.3,1065.7,31.3,1064.4,31.3"></path><path class="st0" d="M1064.7,33.1c0-0.1,0-0.1,0-0.1c0,0-0.1-0.1-0.1-0.1c0,0-0.1,0-0.1,0c0,0-0.1,0-0.2,0h-0.2v0.6h0.2 c0.1,0,0.1,0,0.2,0c0.1,0,0.1,0,0.1-0.1c0,0,0.1-0.1,0.1-0.1C1064.7,33.2,1064.7,33.2,1064.7,33.1 M1065.6,34.6h-0.7l-0.6-0.8 h-0.2v0.8h-0.5v-2.2h0.9c0.1,0,0.2,0,0.3,0c0.1,0,0.2,0,0.2,0.1c0.1,0,0.1,0.1,0.2,0.2c0,0.1,0.1,0.2,0.1,0.3c0,0.2,0,0.3-0.1,0.4 c-0.1,0.1-0.2,0.2-0.3,0.2L1065.6,34.6z"></path><path class="st0" d="M1043.3,31.7v1.9l0,0c0,0-0.3-0.4-0.6-0.7c-0.3-0.3-0.6-0.5-1-0.7c-0.4-0.2-0.9-0.4-1.4-0.5 c-0.5-0.1-1.1-0.2-1.7-0.2c-1,0-1.9,0.2-2.7,0.6c-0.8,0.4-1.5,0.9-2,1.6c-0.5,0.7-0.8,1.4-1,2.3c-0.2,0.9-0.3,1.8-0.3,2.7 c0,1.1,0.2,2,0.4,3c0.3,0.9,0.6,1.6,1.1,2.2c0.6,0.7,1.3,1.1,2.2,1.5c0.8,0.4,1.8,0.5,2.8,0.5c0.7,0,1.3-0.2,2.1-0.4 c0.7-0.3,1.5-0.8,1.6-1.4l0,0v1.4c0,1-0.2,1.8-0.8,2.5c-0.6,0.6-1.5,1-2.8,1c-0.9,0-1.4,0-2.3-0.2c-0.8-0.2-1.8-0.6-2.5-1.1 l-2.1,3.1c1.1,0.8,2.1,1.3,3.3,1.6c1.2,0.3,2.4,0.4,3.7,0.4c2.7,0,4.7-0.7,6-2.1c1.3-1.4,1.9-3.4,1.9-6V31.7H1043.3z M1042.2,41.2 c-0.5,0.7-1.3,1-2.3,1c-1,0-1.8-0.3-2.3-1c-0.5-0.6-0.8-1.5-0.8-2.6c0-1.1,0.3-1.9,0.8-2.6c0.5-0.6,1.3-1,2.3-1c1,0,1.8,0.3,2.3,1 c0.5,0.7,0.8,1.5,0.8,2.6C1043.1,39.7,1042.8,40.6,1042.2,41.2z"></path></g><g><g><g><path class="st0" d="M1161,30.9v6.2h7.2v-6.2h1.9v14.9h-1.9v-7h-7.2v7h-1.9V30.9H1161z"></path><path class="st0" d="M1182.6,40.3c0,4-2.7,5.7-5.3,5.7c-2.9,0-5.1-2.1-5.1-5.5c0-3.6,2.3-5.7,5.3-5.7 C1180.5,34.8,1182.6,37.1,1182.6,40.3z M1174.1,40.4c0,2.3,1.3,4.1,3.3,4.1c1.9,0,3.3-1.7,3.3-4.2c0-1.8-0.9-4.1-3.2-4.1 C1175.1,36.3,1174.1,38.4,1174.1,40.4z"></path><path class="st0" d="M1184.5,38c0-1.1,0-2-0.1-2.9h1.7l0.1,1.7h0.1c0.6-1,1.6-2,3.4-2c1.5,0,2.6,0.9,3,2.1h0 c0.3-0.6,0.8-1.1,1.2-1.4c0.6-0.5,1.3-0.8,2.4-0.8c1.4,0,3.5,0.9,3.5,4.6v6.3h-1.9v-6.1c0-2.1-0.8-3.3-2.3-3.3 c-1.1,0-2,0.8-2.3,1.8c-0.1,0.3-0.2,0.6-0.2,1v6.6h-1.9v-6.4c0-1.7-0.8-2.9-2.2-2.9c-1.2,0-2.1,1-2.4,1.9 c-0.1,0.3-0.2,0.6-0.2,1v6.5h-1.9V38z"></path><path class="st0" d="M1203.6,40.7c0,2.7,1.8,3.8,3.7,3.8c1.4,0,2.3-0.2,3-0.6l0.3,1.4c-0.7,0.3-1.9,0.7-3.6,0.7 c-3.4,0-5.4-2.2-5.4-5.5s1.9-5.9,5.1-5.9c3.6,0,4.5,3.1,4.5,5.1c0,0.4,0,0.7-0.1,0.9H1203.6z M1209.4,39.3 c0-1.3-0.5-3.2-2.8-3.2c-2,0-2.9,1.8-3,3.2H1209.4z"></path><path class="st0" d="M1215.8,41l-1.6,4.8h-2l5.2-15.2h2.4l5.2,15.2h-2.1l-1.6-4.8H1215.8z M1220.7,39.5l-1.5-4.4 c-0.3-1-0.6-1.9-0.8-2.8h0c-0.2,0.9-0.5,1.8-0.8,2.8l-1.5,4.4H1220.7z"></path><path class="st0" d="M1226.8,34.9l1.4,5.5c0.3,1.2,0.6,2.3,0.8,3.5h0.1c0.2-1.1,0.6-2.3,1-3.5l1.8-5.5h1.7l1.7,5.5 c0.4,1.3,0.7,2.5,1,3.6h0.1c0.2-1.1,0.5-2.3,0.8-3.5l1.6-5.5h2l-3.5,10.9h-1.8l-1.7-5.2c-0.4-1.2-0.7-2.3-1-3.6h0 c-0.3,1.3-0.6,2.4-1,3.6l-1.8,5.2h-1.8l-3.3-10.9H1226.8z"></path><path class="st0" d="M1249.7,43.2c0,0.9,0,1.9,0.2,2.6h-1.8l-0.2-1.4h-0.1c-0.6,0.9-1.8,1.6-3.3,1.6c-2.2,0-3.3-1.6-3.3-3.1 c0-2.6,2.3-4.1,6.6-4.1v-0.2c0-0.9-0.2-2.5-2.5-2.5c-1,0-2.1,0.3-2.8,0.8l-0.5-1.3c0.9-0.6,2.2-1,3.6-1c3.3,0,4.2,2.3,4.2,4.5 V43.2z M1247.8,40.2c-2.2,0-4.6,0.3-4.6,2.5c0,1.3,0.9,1.9,1.9,1.9c1.4,0,2.3-0.9,2.6-1.8c0.1-0.2,0.1-0.4,0.1-0.6V40.2z"></path><path class="st0" d="M1252.9,34.9l2.4,6.5c0.2,0.7,0.5,1.6,0.7,2.2h0c0.2-0.7,0.4-1.5,0.7-2.3l2.2-6.4h2.1l-3,7.8 c-1.4,3.7-2.4,5.4-3.7,6.5c-1,0.9-1.9,1.2-2.4,1.3l-0.5-1.7c0.5-0.2,1.2-0.5,1.7-1c0.5-0.4,1.2-1.2,1.7-2.2 c0.1-0.2,0.2-0.4,0.2-0.5c0-0.1,0-0.3-0.1-0.5l-4-9.8H1252.9z"></path></g><g><path class="st0" d="M1146.4,22.5h-13l-7.6,9h2.7v9.6l-2.1,0.3c0,0-1,0.2-0.7,1.2c0.2,0.7,1,0.6,1,0.6l1.8-0.2v2.7l12.8,2.3 l10.2-2.3l0-14.2h3L1146.4,22.5z M1143.8,33.3l2.8-0.1l0,3.7l-2.8,0.2L1143.8,33.3z M1129.4,45l0-2l5.6-0.8c0,0,1,0,0.9-1.1 c-0.1-1-1.1-0.8-1.1-0.8l-5.4,0.6l0-9.4l5.8-7.4l6.1,7.4l0,15.6L1129.4,45z M1143.8,42.1l0-3.8l2.8-0.2l0,3.8L1143.8,42.1z M1150.1,41.5l-2.3,0.2V38l2.3-0.2V41.5z M1147.8,36.8l0-3.7l2.3-0.1l0,3.6L1147.8,36.8z"></path><path class="st0" d="M1137.7,31.7c-0.7-0.8-1.6-1.3-2.6-1.3c-0.1,0-0.1,0-0.2,0c-1,0.1-1.8,0.6-2.4,1.4c-0.6,0.8-1,1.8-1,3 c0,0.1,0,0.2,0,0.3c0.1,1.2,0.5,2.2,1.1,3c0.7,0.8,1.6,1.3,2.6,1.3c0.1,0,0.1,0,0.2,0c1-0.1,1.8-0.6,2.4-1.4c0.6-0.8,1-1.8,1-3 c0-0.1,0-0.2,0-0.3C1138.8,33.5,1138.4,32.4,1137.7,31.7z M1137.4,37.5c-0.5,0.6-1.2,1-1.9,1.1c0,0-0.1,0-0.1,0 c-0.7,0-1.5-0.4-2-1c-0.5-0.6-0.9-1.5-1-2.5c0-0.1,0-0.2,0-0.3c0-1,0.3-1.9,0.8-2.5c0.5-0.6,1.2-1,1.9-1.1c0,0,0.1,0,0.1,0 c0.7,0,1.5,0.4,2,1c0.5,0.6,0.9,1.5,1,2.5c0,0.1,0,0.2,0,0.3C1138.2,35.9,1137.9,36.8,1137.4,37.5z"></path><path class="st0" d="M1134,34.9c-0.1-1.3,0.3-2.4,1-2.8c-1.1,0.1-1.9,1.3-1.8,2.8c0.1,1.5,1,2.7,2.1,2.6l0,0 C1134.6,37.3,1134.1,36.2,1134,34.9z"></path></g></g><g><path class="st0" d="M1265.5,36.2c0,0.8-0.6,1.4-1.5,1.4c-0.8,0-1.5-0.6-1.5-1.4c0-0.8,0.7-1.4,1.5-1.4 C1264.9,34.8,1265.5,35.4,1265.5,36.2z M1263,36.2c0,0.6,0.5,1.1,1.1,1.1c0.6,0,1.1-0.5,1.1-1.1c0-0.6-0.5-1.2-1.1-1.2 C1263.4,35.1,1263,35.6,1263,36.2z M1263.8,36.9h-0.3v-1.4c0.1,0,0.3,0,0.5,0c0.3,0,0.4,0,0.5,0.1c0.1,0.1,0.1,0.2,0.1,0.3 c0,0.2-0.1,0.3-0.3,0.3v0c0.1,0,0.2,0.2,0.3,0.3c0,0.2,0.1,0.3,0.1,0.3h-0.3c0-0.1-0.1-0.2-0.1-0.3c0-0.1-0.1-0.2-0.3-0.2h-0.2 V36.9z M1263.8,36.1h0.2c0.2,0,0.3-0.1,0.3-0.2c0-0.1-0.1-0.2-0.3-0.2c-0.1,0-0.1,0-0.2,0V36.1z"></path></g></g><g><path class="st0" d="M376.3,30.5c-0.1,0-0.3-0.1-0.3-0.3v-1.7h-0.5c-0.1,0-0.2-0.1-0.2-0.2c0-0.1,0.1-0.2,0.2-0.2h1.5 c0.1,0,0.2,0.1,0.2,0.2c0,0.1-0.1,0.2-0.2,0.2h-0.5v1.7C376.5,30.4,376.4,30.5,376.3,30.5L376.3,30.5L376.3,30.5z M380,30.5 c-0.1,0-0.3-0.1-0.3-0.3v-1.5l-0.6,1.7c0,0.1-0.1,0.1-0.1,0.1c-0.1,0-0.1,0-0.1-0.1l-0.6-1.7v1.5c0,0.1-0.1,0.3-0.3,0.3 c-0.1,0-0.3-0.1-0.3-0.3v-1.8c0-0.2,0.2-0.4,0.4-0.4c0.2,0,0.3,0.1,0.4,0.3l0.5,1.3l0.5-1.3c0.1-0.2,0.2-0.3,0.4-0.3 c0.2,0,0.4,0.2,0.4,0.4v1.8C380.2,30.4,380.1,30.5,380,30.5L380,30.5L380,30.5z"></path><path class="st0" d="M243.7,27.3c0-0.9,0.3-1.7,0.7-2.3c-1.4,0.4-2.4,1.7-2.4,3.2v2.7l1.7,0.1V27.3L243.7,27.3z"></path><path class="st0" d="M242,45.6c0,1.5,1,2.8,2.4,3.2c-0.5-0.7-0.7-1.5-0.7-2.3v-5H242V45.6L242,45.6z"></path><path class="st0" d="M246.2,41.4h-1.7v5c0,1.5,1,2.8,2.4,3.2c-0.5-0.7-0.7-1.5-0.7-2.3V41.4L246.2,41.4z"></path><path class="st0" d="M246.2,26.4c0-0.9,0.3-1.7,0.7-2.3c-1.4,0.4-2.4,1.7-2.4,3.2v3.6l1.7,0.1V26.4L246.2,26.4z"></path><path class="st0" d="M227.4,25.4c-1.2,0.7-2,2-2,3.6v15.8c0,1.5,0.8,2.8,2,3.6c-0.2-0.6-0.4-1.2-0.4-1.9V27.3 C227,26.6,227.2,26,227.4,25.4L227.4,25.4z"></path><path class="st0" d="M229.5,25.6c0-0.7,0.1-1.3,0.4-1.9c-1.2,0.7-2,2-2,3.6v19.2c0,1.8,1.1,3.3,2.7,3.9c-0.7-0.8-1.1-1.9-1.1-3.1 V25.6L229.5,25.6z"></path><path class="st0" d="M250.3,23.1c-1.8,0-3.3,1.5-3.3,3.3v5.4l-8.3-0.4v-5.8c0-2.3-1.9-4.2-4.2-4.2c-2.3,0-4.2,1.9-4.2,4.2v21.6 c0,2.3,1.9,4.2,4.2,4.2c2.3,0,4.2-1.9,4.2-4.2v-6.7h8.3v6.7c0,1.8,1.5,3.3,3.3,3.3s3.3-1.5,3.3-3.3V26.4 C253.7,24.6,252.2,23.1,250.3,23.1L250.3,23.1z"></path><path class="st0" d="M279.1,43.4v-6.2h-9v6.2c0,0.7-0.5,1.2-1.2,1.2c-0.7,0-1.2-0.6-1.2-1.2V29.3c0-0.7,0.6-1.2,1.2-1.2 c0.7,0,1.2,0.6,1.2,1.2v5.7h9v-5.7c0-0.7,0.5-1.2,1.2-1.2c0.7,0,1.2,0.6,1.2,1.2v14.1c0,0.7-0.5,1.2-1.2,1.2 C279.6,44.6,279.1,44.1,279.1,43.4L279.1,43.4z"></path><path class="st0" d="M283.2,38.6c0-3.4,2.3-6.2,5.9-6.2c3.7,0,5.9,2.8,5.9,6.2c0,3.4-2.3,6.2-5.9,6.2 C285.5,44.8,283.2,42,283.2,38.6L283.2,38.6z M292.9,38.6c0-2.2-1.3-4.2-3.7-4.2c-2.3,0-3.7,2-3.7,4.2c0,2.2,1.3,4.2,3.7,4.2 C291.6,42.8,292.9,40.8,292.9,38.6L292.9,38.6z"></path><path class="st0" d="M307.9,32.4c3.5,0,5.7,2.8,5.7,5.8c0,0.7-0.5,1-1.3,1h-8c0.2,2,1.6,3.7,4,3.7c1,0,2-0.3,2.9-1 c0.1-0.1,0.3-0.1,0.5-0.1c0.5,0,0.9,0.4,0.9,0.9c0,0.3-0.1,0.6-0.4,0.7c-1.2,0.9-2.6,1.3-4.1,1.3c-3.5,0-6.1-2.5-6.1-6.2 C302,35.2,304.5,32.4,307.9,32.4L307.9,32.4z M304.3,37.7h7.2c0-1.6-1.1-3.5-3.6-3.5C305.5,34.2,304.4,36.1,304.3,37.7L304.3,37.7 z"></path><path class="st0" d="M315,43.5V29.2c0-0.6,0.5-1.1,1.1-1.1c0.6,0,1.1,0.5,1.1,1.1v14.3c0,0.6-0.5,1.1-1.1,1.1 C315.5,44.6,315,44.1,315,43.5L315,43.5z"></path><path class="st0" d="M318.6,42.7c0-0.5,0.4-1,1-1c0.2,0,0.4,0.1,0.5,0.2c0.9,0.7,2.1,1.1,3.3,1.1c1.7,0,2.5-0.7,2.5-1.7 c0-1.2-1.3-1.6-2.9-1.9c-2-0.5-4.3-1-4.3-3.5c0-1.9,1.6-3.5,4.5-3.5c1.6,0,2.9,0.5,3.9,1.2c0.2,0.2,0.4,0.4,0.4,0.7 c0,0.5-0.4,0.9-0.9,0.9c-0.2,0-0.4-0.1-0.5-0.2c-0.8-0.6-1.8-0.9-2.9-0.9c-1.5,0-2.4,0.6-2.4,1.5c0,1,1.3,1.4,2.7,1.7 c2,0.5,4.5,1,4.5,3.7c0,2-1.7,3.6-4.8,3.6c-1.6,0-3.1-0.4-4.3-1.3C318.8,43.3,318.6,43,318.6,42.7L318.6,42.7z"></path><path class="st0" d="M331,41.7c0.8,0,1.5,0.7,1.5,1.5c0,0.8-0.7,1.5-1.5,1.5c-0.8,0-1.5-0.7-1.5-1.5 C329.4,42.4,330.1,41.7,331,41.7L331,41.7z"></path><path class="st0" d="M343.9,38.6c0-3.4,2.3-6.2,5.9-6.2c3.7,0,5.9,2.8,5.9,6.2c0,3.4-2.3,6.2-5.9,6.2 C346.2,44.8,343.9,42,343.9,38.6L343.9,38.6z M353.5,38.6c0-2.2-1.3-4.2-3.7-4.2c-2.3,0-3.7,2-3.7,4.2c0,2.2,1.3,4.2,3.7,4.2 C352.2,42.8,353.5,40.8,353.5,38.6L353.5,38.6z"></path><path class="st0" d="M373.9,36v7.5c0,0.6-0.5,1.1-1.1,1.1c-0.6,0-1.1-0.5-1.1-1.1v-6.9c0-1.4-0.6-2-2-2c-1.2,0-2.4,1.3-2.9,2.2 v6.7c0,0.6-0.5,1.1-1.1,1.1c-0.6,0-1.1-0.5-1.1-1.1v-6.9c0-1.4-0.6-2-2.1-2c-1.1,0-2.3,1.4-2.9,2.3v6.6c0,0.6-0.5,1.1-1.1,1.1 c-0.6,0-1.1-0.5-1.1-1.1v-9.8c0-0.6,0.5-1.1,1.1-1.1c0.6,0,1.1,0.5,1.1,1.1v0.7c0.5-0.7,2-1.9,3.8-1.9c1.8,0,2.8,0.9,3.2,2.2 c0.7-1.1,2.3-2.2,4-2.2C372.8,32.4,373.9,33.6,373.9,36L373.9,36z"></path><path class="st0" d="M339.1,32.4c1.7,0,2.8,0.5,3.8,1.4c0.2,0.2,0.3,0.5,0.3,0.7c0,0.6-0.4,1-1,1c-0.3,0-0.5-0.1-0.7-0.2 c-0.7-0.6-1.4-0.9-2.4-0.9c-2.3,0-3.8,1.8-3.8,4.2c0,2.4,1.5,4.2,3.8,4.2c1.6,0.1,3.1-1.1,4.4-3.1c0.2-0.2,0.4-0.7,0.6-0.9 c0.4-0.5,0.6-0.2,0.8,0c0.4,0.4,0.4,1.4,0.1,1.8c-0.7,1.3-1.3,1.9-2,2.6c-0.9,0.9-2.4,1.5-4,1.5c-3.6,0-6-2.7-6-6.2 C333.1,35.1,335.5,32.4,339.1,32.4L339.1,32.4z"></path><path class="st0" d="M303.6,42.7c0,0.4-1.2,1.3-2,1.8c-0.5,0.2-1,0.3-1.7,0.3c-1.9,0-2.8-1-2.8-2.9v-7.2h-1.1c-0.5,0-1-0.4-1-1 c0-0.5,0.5-1,1-1h1.1v-2.2c0-0.6,0.5-1.1,1.1-1.1c0.6,0,1.1,0.5,1.1,1.1v2.2h1.5c0.5,0,1,0.4,1,1c0,0.5-0.4,1-1,1h-1.5v6.8 c0,0.8,0.4,1.4,1.1,1.4c1.3,0,2.4-2.1,3-2.1C303.9,40.7,303.6,42.1,303.6,42.7L303.6,42.7z"></path></g><g><g><path class="st0" d="M1367.6,46.7l6.7-15.3c0.1-0.2,0-0.4-0.3-0.4h-4.7c-0.3,0-0.6,0.2-0.7,0.4l-6.7,15.3c-0.1,0.2,0,0.4,0.3,0.4 h4.6C1367.2,47.1,1367.5,46.9,1367.6,46.7z"></path><polygon class="st0" points="1391.8,42.6 1402.2,31 1390,31 1387.2,35.5 1392,35.5 1381.4,47.1 1394.3,47.1 1399.2,42.6 1391.8,42.6"></polygon><path class="st0" d="M1346.9,31h-8.1l0,0c-0.4,0-1,0.3-1.1,0.8l-6.4,14.6c-0.2,0.4,0,0.8,0.5,0.8h4c0.5,0,1-0.3,1.2-0.8l1.8-4.1 h1.9c0.6,0,0.8,0.2,0.5,0.9l-1.4,3.3c-0.2,0.4,0,0.8,0.5,0.8h4c0.4,0,1-0.3,1.1-0.8l1.8-4.2c0.6-1.4-0.3-2.4-1.5-2.5 c1.1-0.4,2-1.4,2.5-2.4l0.9-2.2C1350.4,32.5,1349.6,31,1346.9,31z M1344.6,35.6l-1,2.2c-0.2,0.5-0.6,0.6-0.9,0.6h-2.3l1.5-3.4 h2.2C1344.6,35,1344.8,35.2,1344.6,35.6z"></path><path class="st0" d="M1362.7,31h-8.6c-0.3,0-0.7,0.2-0.8,0.5l-6.6,15.1c-0.1,0.3,0,0.5,0.4,0.5h9.2c2.9,0,4.6-0.7,5.9-3.8 l0.9-2.1c0.7-1.8,0-2.5-1.4-2.7c1.2-0.4,2-1.4,2.4-2.4l0.8-1.6C1365.9,32.3,1365.1,31,1362.7,31z M1358.5,41.1l-0.6,1.2 c-0.3,0.8-0.8,1-1.5,1h-2.7l1.3-3h2.7C1358.5,40.3,1358.8,40.5,1358.5,41.1z M1360.1,35.7l-0.4,0.9l-0.1,0.1 c-0.2,0.5-0.5,0.6-0.9,0.6h-2.3l1.1-2.5h2.4C1360.2,34.9,1360.3,35.2,1360.1,35.7z"></path><path class="st0" d="M1375.8,31l-2,4.5h2.9c0.2,0,0.3,0.1,0.2,0.3l-5,11c-0.1,0.2,0,0.3,0.2,0.3h5.1c0.2,0,0.4-0.1,0.5-0.3 l4.8-11c0.1-0.2,0.3-0.3,0.5-0.3h2.9l2.7-4.5H1375.8z"></path><path class="st0" d="M1333.7,36.5l0.6-1.4c1.3-2.9,0.4-4.1-2.1-4.1h-6c-2.5,0-4.5,1.4-5.7,3.9l-1.9,5.2h-1.7l3.3,4.5l5.5-4.5 h-1.4l1.6-3.8c0.3-0.6,0.7-0.9,1.2-0.9h0.9c0.2,0,0.4,0.1,0.5,0.2l2.9-2.5L1333.7,36.5z"></path><path class="st0" d="M1320.2,46l-2.5-3.1l-0.1,0.3c-1.1,2.6-1,3.9,1.5,3.9h5.9c2.4,0,4.6-1.3,5.7-3.9l1.8-4h1.6l-2.7-4.5 l-5.5,4.5h1.5l-1.1,2.6c-0.3,0.5-0.7,0.8-1.1,0.9h-0.8L1320.2,46z"></path></g><g><path class="st0" d="M1404.2,30.9c0.2,0,0.4,0.1,0.6,0.2c0.2,0.2,0.2,0.3,0.2,0.6c0,0.2-0.1,0.4-0.2,0.6 c-0.2,0.2-0.3,0.2-0.6,0.2s-0.4-0.1-0.6-0.2c-0.2-0.2-0.2-0.3-0.2-0.6c0-0.2,0.1-0.4,0.2-0.6C1403.8,31,1404,30.9,1404.2,30.9z M1404.2,32.3c0.2,0,0.3-0.1,0.5-0.2c0.1-0.1,0.2-0.3,0.2-0.5c0-0.2-0.1-0.3-0.2-0.5c-0.1-0.1-0.3-0.2-0.5-0.2 c-0.2,0-0.3,0.1-0.5,0.2c-0.1,0.1-0.2,0.3-0.2,0.5c0,0.2,0.1,0.3,0.2,0.5C1403.8,32.3,1404,32.3,1404.2,32.3z M1404.6,32.1h-0.2 l-0.2-0.3h-0.1v0.3h-0.2v-0.8h0.3c0.1,0,0.2,0,0.2,0.1c0.1,0,0.1,0.1,0.1,0.2c0,0.1-0.1,0.2-0.2,0.2L1404.6,32.1z M1404.1,31.7 L1404.1,31.7c0.2,0,0.2,0,0.2-0.1c0-0.1-0.1-0.1-0.2-0.1h-0.1V31.7z"></path></g></g><g id="Expedia_1_"><g><path class="st0" d="M91.9,44.9H88c0,0,0,0,0,0l-3.3-4.1l-3.3,4.1c0,0,0,0,0,0h-3.1c0,0,0,0,0,0c0,0,0,0,0,0l4.9-6l-4.8-6 c0,0,0,0,0-0.1c0,0,0,0,0,0h3.9c0,0,0,0,0,0l2.9,3.6l3-3.6c0,0,0,0,0,0h3.1c0,0,0,0,0,0c0,0,0,0,0,0.1l-4.6,5.5L91.9,44.9 C91.9,44.8,92,44.8,91.9,44.9C91.9,44.9,91.9,44.9,91.9,44.9L91.9,44.9z"></path><path class="st0" d="M118.4,39.6C118.4,39.6,118.3,39.6,118.4,39.6l-8.9,0c0.2,2.1,1.5,3.2,3.7,3.2c1.3,0,2.7-0.5,4.7-1.5 c0,0,0.1,0,0.1,0l0,2.7c0,0,0,0,0,0c-1.9,0.8-3.7,1.3-5.2,1.3l0,0c-3.8,0-6.6-2.8-6.6-6.6c0-3.8,2.8-6.6,6.6-6.6 c3.5,0,5.7,2.3,5.7,5.5C118.5,38.3,118.4,39.6,118.4,39.6z M112.8,34.9c-1.7,0-2.9,1-3.2,2.8h5.8v-0.1 C115.4,36.2,114.3,34.9,112.8,34.9L112.8,34.9z"></path><path class="st0" d="M134.7,44.9C134.7,44.9,134.7,44.9,134.7,44.9l0-12.1c0,0,0,0,0,0h3.2c0,0,0,0,0,0v12c0,0,0,0,0,0H134.7z M136.3,30.3c-1.1,0-2-0.9-2-1.9c0-1.1,0.9-2,2-2c1.1,0,2,0.9,2,2C138.3,29.4,137.4,30.3,136.3,30.3L136.3,30.3z"></path><path class="st0" d="M98.6,32.3 c-0.9,0 -1.8,0.2 -2.8,0.5 h-3.2 c0,0 0,0 0,0 v19.7 c1,-0.1 2.1,-0.5 3.3,-1.3 v-6 c0.8,0.1 1.4,0.2 2.1,0.2 c4.3,0 7.2,-2.6 7.2,-6.6 C105.1,35 102.4,32.3 98.6,32.3  z M97.7,43.1 c-0.6,0 -1.2,-0.1 -1.8,-0.3 l0,-7.7 c0.8,-0.3 1.5,-0.4 2.2,-0.4 c2.2,0 3.7,1.6 3.7,4.1 C101.8,41.4 100.2,43.1 97.7,43.1  z "></path><path class="st0" d="M128.9,26.4v6.3c-0.9-0.3-1.7-0.4-2.6-0.4c-3.8,0-6.6,2.8-6.6,6.6c0,3.8,2.5,6.5,6,6.5c1.2,0,2.3-0.3,3.6-1 l0,1.1c0.9-0.2,1.9-0.5,2.9-1.2V25.1C131.2,25.2,130.1,25.6,128.9,26.4z M128.9,42.1c-1,0.5-1.9,0.8-2.7,0.8 c-2,0-3.1-1.4-3.1-3.7c0-2.7,1.5-4.4,3.8-4.4c0.6,0,1.3,0.2,2,0.5V42.1z"></path><path class="st0" d="M152.2,32.6c0-0.1-0.1-0.1-0.1-0.1l-2.6,0c-0.1,0-0.1,0.1-0.1,0.1v0.4h-0.1c-1.2-0.5-2.2-0.8-3.2-0.8 c-3.6,0-6.4,3-6.4,6.7c0,3.8,2.5,6.4,6.2,6.4c1,0,2.3-0.1,3.5-1.4v1.5c0.8-0.2,1.8-0.5,2.8-1.2L152.2,32.6z M149,42.1 c-1,0.5-1.8,0.8-2.5,0.8c-2.1,0-3.4-1.4-3.4-3.7c0-2.7,1.5-4.4,3.7-4.4c0.6,0,1.3,0.2,2.2,0.7V42.1z"></path><path class="st0" d="M69.4,41.9h8c-0.1,0.9-0.4,1.9-1.1,3h-6.9h-1.4c0,0-0.1,0-0.1,0c-1,0-1.9-0.8-2-1.8c0,0,0,0,0,0v-8.2v-7.6 c0,0,0,0,0,0c0.1-1,0.9-1.8,2-1.8c0,0,0.1,0,0.1,0h9.3c-0.1,0.9-0.4,2-1.1,3h-6.9v4.3h6.8c0,0,0,0,0,0v3c0,0,0,0,0,0h-6.8V41.9 L69.4,41.9z"></path></g><g><path class="st0" d="M59.4,42.2c-0.8,0-1.5,0.6-1.5,1.5c0,0.9,0.6,1.5,1.5,1.5c0.8,0,1.5-0.6,1.5-1.5 C60.9,42.8,60.2,42.2,59.4,42.2z M59.4,45.1c-0.8,0-1.3-0.6-1.3-1.4c0-0.8,0.6-1.4,1.3-1.4c0.7,0,1.3,0.6,1.3,1.4 C60.7,44.6,60.1,45.1,59.4,45.1z"></path><path class="st0" d="M60.1,43.4c0-0.4-0.2-0.5-0.7-0.5h-0.7v1.8h0.3v-0.8h0.3l0.5,0.8h0.3l-0.5-0.8 C59.9,43.8,60.1,43.7,60.1,43.4z M59.1,43.6v-0.6h0.4c0.2,0,0.4,0,0.4,0.3c0,0.3-0.2,0.3-0.4,0.3H59.1z"></path></g><g><path class="st0" d="M154.9,31.9c-0.8,0-1.5,0.6-1.5,1.5c0,0.9,0.6,1.5,1.5,1.5c0.8,0,1.5-0.6,1.5-1.5 C156.4,32.5,155.7,31.9,154.9,31.9z M154.9,34.8c-0.8,0-1.3-0.6-1.3-1.4c0-0.8,0.6-1.4,1.3-1.4c0.7,0,1.3,0.6,1.3,1.4 C156.1,34.2,155.6,34.8,154.9,34.8z"></path><path class="st0" d="M155.6,33c0-0.4-0.2-0.5-0.7-0.5h-0.7v1.8h0.3v-0.8h0.3l0.5,0.8h0.3l-0.5-0.8 C155.4,33.5,155.6,33.3,155.6,33z M154.5,33.3v-0.6h0.4c0.2,0,0.4,0,0.4,0.3c0,0.3-0.2,0.3-0.4,0.3H154.5z"></path></g><g><path class="st0" d="M49.1,28.5l-0.6-1.6l-4.9-6.6l0.9-0.2l8.5,7.3l5-1.4c0.6-0.2,1.3-0.2,1.8-0.2c-1.6-3.4-4.4-6.2-8.2-7.5 C44,15.6,35.7,19.5,33.1,27c-0.8,2.3-1,4.7-0.7,7l12-4.2L49.1,28.5z"></path><path class="st0" d="M60.2,27.1c-0.4,0.3-1.1,0.7-1.7,0.9l-5,1.4l-3.3,10.7l-0.9,0.3l0.7-8.2l-0.4-1.7l-4.7,1.3l-12.4,2.9 c1,4.8,4.4,8.9,9.3,10.7c7.5,2.7,15.7-1.2,18.4-8.7C61.4,33.4,61.3,30.1,60.2,27.1z"></path></g></g><g><g><g><g><path class="st0" d="M73.7,105.9h1.9v2.2h0c0.9-1.5,1.9-2.4,3.8-2.4v1.5c-1,0-1.8,0.4-2.4,1c-0.8,0.7-1.4,1.9-1.4,3v5.8h-1.9 V105.9z"></path><path class="st0" d="M81,108c0.7-1.3,2.4-2.4,4.6-2.4c2,0,4.3,0.9,4.3,3.3v5.6c0,1.2,0.1,1.8,0.3,2.4h-1.9l-0.2-1.5 c-0.8,0.9-2.1,1.8-3.9,1.8c-1.8,0-3.6-1-3.6-3.1c0-2.4,2.2-3.7,7.4-4.5V109c0-1.5-1-2-2.4-2c-1.8,0-2.7,1-3,1.7L81,108z M88,111c-3.7,0.6-5.5,1.7-5.5,3.2c0,1,1,1.7,1.9,1.7c1.2,0,2.6-0.8,3.6-1.8V111z"></path><path class="st0" d="M97.4,117H95l-3.6-11.2h1.9l3,9.2h0l3-9.2h1.6L97.4,117z"></path><path class="st0" d="M116.4,101.2V117h-1.9v-15L116.4,101.2z"></path><path class="st0" d="M123.6,117.2c-3.2,0-5-2.6-5-5.8c0-3.2,1.8-5.8,5-5.8c3.2,0,5,2.6,5,5.8 C128.6,114.7,126.8,117.2,123.6,117.2z M123.6,107c-1.9,0-3.2,1.6-3.2,4.5c0,2.9,1.2,4.5,3.2,4.5c1.9,0,3.2-1.6,3.2-4.5 C126.8,108.6,125.5,107,123.6,107z"></path><path class="st0" d="M137.9,109.2c-0.4-1.4-1.4-2.2-2.8-2.2c-2,0-3.2,1.6-3.2,4.5c0,2.8,1.2,4.5,3.2,4.5c1.5,0,2.3-0.5,3.2-2.1 l1.6,0.6c-1.2,1.9-2.4,2.8-4.8,2.8c-2.9,0-5-2.2-5-5.8c0-3.6,2.1-5.8,5-5.8c2.4,0,3.8,1.3,4.5,3L137.9,109.2z"></path><path class="st0" d="M141.9,105.9h1.9V117h-1.9V105.9z"></path><g><path class="st0" d="M69.5,115.9c-0.9,0-1.3-0.3-1.3-0.8v-7.9h2.3l0.4-1.3h-2.7v-4l-1.9,0.8v3.2h-1.7v1.3h1.7v8.2 c0.2,1.4,1,1.8,2.7,1.8c0.8,0,1.2-0.1,1.7-0.2l0.4-1.3C70.5,115.9,70.1,115.9,69.5,115.9z"></path></g><path class="st0" d="M163.9,105.9l-4.1,12.1c-0.9,2.5-2.7,3.2-4.2,3.2c-0.5,0-1.2-0.1-1.5-0.1l0.4-1.3c0.2,0,0.5,0.1,0.9,0.1 c1,0,2.5-0.2,3.1-2.7l-4.1-11.3h1.7l3.1,8.5h0l2.7-8.5H163.9z"></path></g><g><path class="st0" d="M151.2,115.9c-0.9,0-1.3-0.3-1.3-0.8v-7.9h2.3l0.4-1.3h-2.7v-4l-1.9,0.8v3.2h-1.7v1.3h1.7v8.2 c0.2,1.4,1,1.8,2.7,1.8c0.8,0,1.2-0.1,1.7-0.2l0.4-1.3C152.2,115.9,151.7,115.9,151.2,115.9z"></path></g></g><path class="st0" d="M110.7,114.1c-0.7,1.1-1.8,1.8-3.2,1.8c-1.9,0-3.5-1.7-3.5-4.2h7.8v-1c0-3.6-2.3-5.1-4.7-5.1 c-2.9,0-5,2.2-5,5.8c0,4.1,2.7,5.8,5.3,5.8c2.2,0,3-0.2,4.4-2L110.7,114.1z M107.2,107c1.8,0,2.8,1.4,2.8,3.4h-5.9 C104.2,108.4,105.3,107,107.2,107z"></path></g><rect x="141.9" y="102.1" class="st0" width="1.9" height="1.8"></rect><path class="st0" d="M34.2,99.2c0.3-0.1,0.6-0.1,0.8-0.2c-0.4-0.5-0.9-0.9-1.3-1.4c-0.1-0.2-0.1-0.2,0-0.3c0.1,0,0-0.2,0.1-0.3 c0.2-0.1,0.2-0.2,0.3-0.4c0,0,0-0.2,0-0.2c0.1,0,0.1-0.1,0.2,0c0.4,0.4,0.8,0.7,1.2,1c0.5,0.3,1,0.6,1.4,1c0,0,0.2,0.1,0.2,0 c0.1-0.4,0.2-0.8,0.4-1.2c0.1-0.1,0.1-0.3,0.2-0.4c0.1-0.3,0.4-0.4,0.7-0.6c0.4-0.2,0.9,0,1.1-0.3c0.1-0.1,0.3,0,0.4,0 c0.3,0.1,0.6,0,0.8,0.3c-0.3,0.8-0.4,1.6-0.6,2.4c0,0.2-0.2,0.4,0,0.5c0.4,0.1,1.4,0,1.5-0.1c0.5,0,1,0,1.6,0.1 c0.4,0.1,0.7,0.3,1,0.5c0.6,0.4,0.6,1.2,0.5,1.9c0,0-0.3,0.3-0.4,0.3c0,0-0.1-0.2-0.1-0.2c-0.2,0.2-0.6,0.5-0.8,0.6 c0,0-0.3-0.3-0.5-0.3c-0.5-0.3-1-0.2-1.5-0.2c-0.6,0.1-1.2,0-1.7,0.2c0.2,0.4,0.6,0.6,0.9,0.9c0.5,0.5,1,0.9,1.6,1.4 c0.4,0.4,0.7,0.6,0.9,1.1c-0.1,0.1,0,0.1-0.1,0.2c-0.1,0-0.1-0.1-0.2-0.1c-0.1,0-0.2,0.1-0.1,0.2c0,0-0.1,0.3-0.2,0.3 c-0.1,0-0.3,0.2-0.3,0.2c0,0-0.3-0.1-0.3-0.1c0.1,0.1,0.2,0.3,0.1,0.4c-0.2,0-0.3-0.1-0.5-0.2c-0.7-0.6-1.4-1.2-2.1-1.9 c-0.3-0.3-0.5-0.6-0.8-0.8c-0.5,1.2-0.9,2.1-1.4,3.2c-0.1,0.2-0.2,0.8-0.3,0.8c-0.1,0-0.4-0.4-0.6-0.7c0-0.7,0.1-1,0.1-1.7l0-0.1 c0-1,0.3-1.9,0.3-2.9c0-0.1-0.1-0.1-0.3-0.1c-1.3-0.1-2.6-0.3-4-0.5c-0.3,0-0.6,0-0.9-0.2c0-0.1-0.2-0.1-0.3-0.1c0,0,0,0-0.1-0.1 c0.5-0.5,1-1,1.7-1.4C33.4,99.5,34,99.3,34.2,99.2z"></path><path class="st0" d="M46.6,106.1c-0.1,0,0-0.1,0-0.1c0.1-0.1,0.2-0.1,0.4-0.1c0.4-0.1,0.7,0,1.1-0.1c0.1,0,0.1-0.1,0.2-0.1 c0.3-0.1,0.5-0.2,0.8-0.2c0.1,0,0.2-0.1,0.2-0.2c-0.3-0.3-0.6-0.6-0.8-1c-0.1-0.2-0.3-0.4-0.3-0.6c0-0.2,0.2-0.2,0.4-0.1 c0.8,0.4,1.3,1.1,1.9,1.8c0.1,0.1,0.2-0.2,0.3-0.3c0.3-0.6,0.4-1.2,0.8-1.7c0.1-0.2,0.2-0.4,0.4-0.4c0.3-0.1,0.4-0.2,0.7-0.4 c0.2-0.1,0.3,0,0.5-0.1c0.1,0,0.2,0.1,0.4,0.1c0.2-0.1,0.4,0,0.6,0c0.1,0.1,0.2,0.2,0.1,0.4c-0.2,0.5-0.3,1-0.6,1.5 c-0.3,0.4-0.5,0.7-0.8,1.1c0,0,0,0.1,0,0.1c0.2,0,0.4,0,0.5,0.1c0.5,0.2,1.1,0.1,1.6,0.2c0.3,0.1,0.3,0.5,0.5,0.7 c0.1,0.1-0.1,0.2-0.3,0.2c-0.4,0.1-0.8,0-1.2,0.1c-0.7,0.1-1.3,0-2,0.2c0.2,0.2,0.4,0.4,0.6,0.6c0.2,0.3,0.4,0.5,0.5,0.8 c0.2,0.3,0.3,0.6,0.4,0.9c0.1,0.1,0,0.3,0,0.5c-0.1,0-0.1-0.2-0.1-0.2c-0.1,0-0.1,0.1-0.3,0.1c-0.1,0-0.1-0.1-0.2-0.2 c-0.1-0.1-0.2-0.3-0.3-0.5c-0.2-0.5-0.7-0.9-1.2-1.3c-0.4,0.9-0.8,1.8-1.4,2.6c0,0.1-0.1,0.1-0.3,0.1c0,0-0.1,0.1-0.1,0.1 c0-0.1-0.1-0.1-0.1-0.1c-0.2-0.1-0.4-0.3-0.5-0.5c-0.1-0.2-0.2-0.4-0.2-0.6c0,0-0.1-0.1-0.1-0.1c0.1-0.1,0.1-0.3,0.1-0.4 c0.1-0.1,0.2-0.2,0.3-0.4c0.2-0.4,0.5-0.8,0.6-1.2c-0.9-0.1-1.8-0.1-2.6-0.4c-0.2-0.1-0.4-0.1-0.6-0.3 C46.7,106.2,46.7,106.1,46.6,106.1z"></path><path class="st0" d="M47.6,92.8c0.3-0.6,0.7-1,0.8-1.7c-1.4-0.8-3.1-0.3-4.2-2.1c-0.2-0.4,0-2.2,0.2-2.4c0.3-0.7,0.9-0.7,1.5-0.2 c0.1,0,0.5,0.1,0.6,0.1c0.6-0.1,1.2,0.1,1.8,0.3c0.8,0.1,1.5,0.4,2.2,0.3c0.1,0,0.1-0.2,0.1-0.4c-0.2-1.1-0.4-2-0.7-3.1 c-0.1-0.2-0.1-0.6-0.2-0.9c0-0.6-0.5-1.6-0.1-1.9c0.1,0,0.1,0.1,0.2,0.1c0.1-0.1,0.2-0.2,0.3-0.2c1.4,0.9,2.5,2.3,3.8,3.6 c0.4,0.4,0.5-0.7,0.8-1c0.1-0.2,0-0.5,0.1-0.7c0.3-0.5,0.4-1.2,0.6-1.7c0.5-0.7,0.7-1.6,1.5-1.9c0.5-0.1,1,0.1,1.5,0.5 c0.1,0,0.3,0,0.4,0.1c0.5,0.4,0.9,1,1.4,1.5c0.2,0.2,0.3,0.6,0.2,0.7c-0.1,0.7-0.8,0.8-1.2,1.3c-0.8,1.2-1.5,2.4-2.3,3.6 c-0.1,0.2-0.3,0.5-0.1,0.7c1.1,1,2,2.1,3.2,2.9c0.7,0.5,1.6,0.4,2.2,1.1c0.5,0.5,0.8,1.2,1.1,1.9c-2.7,1.7-5.8-1.1-8.7-1 c-0.2,0-0.2,0.3-0.2,0.5c0.2,1.2,0.4,2.4,0.5,3.5c0.1,0.8,0.5,1.6,0.6,2.4c0.1,0.3,0.3,1.1-0.1,1c-0.5,0-1.1-0.1-1.4-0.8 c-0.4-0.9-0.8-1.8-1.1-2.8c-0.1-0.3-0.2-0.5-0.1-0.8c0-0.5-0.3-0.9-0.4-1.2c-0.1-0.2-0.3,0.1-0.4,0.2c-0.4,0.5-0.8,1-1.1,1.6 c-0.7,0.9-1.4,1.4-2.3,1.8c-0.7,0.2-1.7,0.4-2.1-0.6c0.2,0,0.4-0.5,0.3-0.6C45.7,94.8,47.2,93.9,47.6,92.8z"></path><g><path class="st0" d="M165.1,105.2c0.1-0.2,0.2-0.3,0.3-0.4c0.1-0.1,0.3-0.2,0.4-0.3c0.2-0.1,0.3-0.1,0.5-0.1c0.2,0,0.4,0,0.5,0.1 c0.2,0.1,0.3,0.2,0.4,0.3c0.1,0.1,0.2,0.3,0.3,0.4c0.1,0.2,0.1,0.3,0.1,0.5c0,0.2,0,0.4-0.1,0.5c-0.1,0.2-0.2,0.3-0.3,0.4 c-0.1,0.1-0.3,0.2-0.4,0.3c-0.2,0.1-0.3,0.1-0.5,0.1c-0.2,0-0.4,0-0.5-0.1c-0.2-0.1-0.3-0.2-0.4-0.3c-0.1-0.1-0.2-0.3-0.3-0.4 c-0.1-0.2-0.1-0.3-0.1-0.5C165,105.5,165,105.4,165.1,105.2z M165.3,106.2c0.1,0.1,0.1,0.3,0.2,0.4c0.1,0.1,0.2,0.2,0.4,0.2 c0.1,0.1,0.3,0.1,0.4,0.1c0.2,0,0.3,0,0.4-0.1c0.1-0.1,0.3-0.1,0.4-0.2c0.1-0.1,0.2-0.2,0.2-0.4c0.1-0.1,0.1-0.3,0.1-0.5 c0-0.2,0-0.3-0.1-0.4c-0.1-0.1-0.1-0.3-0.2-0.4c-0.1-0.1-0.2-0.2-0.4-0.2c-0.1-0.1-0.3-0.1-0.4-0.1c-0.2,0-0.3,0-0.4,0.1 c-0.1,0.1-0.3,0.1-0.4,0.2c-0.1,0.1-0.2,0.2-0.2,0.4c-0.1,0.1-0.1,0.3-0.1,0.4C165.2,105.9,165.3,106.1,165.3,106.2z M166.4,105 c0.2,0,0.3,0,0.4,0.1c0.1,0.1,0.1,0.2,0.1,0.3c0,0.1,0,0.2-0.1,0.3c-0.1,0.1-0.2,0.1-0.3,0.1l0.5,0.7h-0.3l-0.4-0.7h-0.3v0.7 h-0.2V105H166.4z M166.3,105.7c0.1,0,0.1,0,0.2,0c0,0,0.1,0,0.1,0c0,0,0.1,0,0.1-0.1c0,0,0-0.1,0-0.1c0-0.1,0-0.1,0-0.1 c0,0,0-0.1-0.1-0.1c0,0-0.1,0-0.1,0c0,0-0.1,0-0.1,0h-0.3v0.5H166.3z"></path><path class="st0" d="M165.1,105.2c0.1-0.2,0.2-0.3,0.3-0.4c0.1-0.1,0.3-0.2,0.4-0.3c0.2-0.1,0.3-0.1,0.5-0.1c0.2,0,0.4,0,0.5,0.1 c0.2,0.1,0.3,0.2,0.4,0.3c0.1,0.1,0.2,0.3,0.3,0.4c0.1,0.2,0.1,0.3,0.1,0.5c0,0.2,0,0.4-0.1,0.5c-0.1,0.2-0.2,0.3-0.3,0.4 c-0.1,0.1-0.3,0.2-0.4,0.3c-0.2,0.1-0.3,0.1-0.5,0.1c-0.2,0-0.4,0-0.5-0.1c-0.2-0.1-0.3-0.2-0.4-0.3c-0.1-0.1-0.2-0.3-0.3-0.4 c-0.1-0.2-0.1-0.3-0.1-0.5C165,105.5,165,105.4,165.1,105.2z M165.3,106.2c0.1,0.1,0.1,0.3,0.2,0.4c0.1,0.1,0.2,0.2,0.4,0.2 c0.1,0.1,0.3,0.1,0.4,0.1c0.2,0,0.3,0,0.4-0.1c0.1-0.1,0.3-0.1,0.4-0.2c0.1-0.1,0.2-0.2,0.2-0.4c0.1-0.1,0.1-0.3,0.1-0.5 c0-0.2,0-0.3-0.1-0.4c-0.1-0.1-0.1-0.3-0.2-0.4c-0.1-0.1-0.2-0.2-0.4-0.2c-0.1-0.1-0.3-0.1-0.4-0.1c-0.2,0-0.3,0-0.4,0.1 c-0.1,0.1-0.3,0.1-0.4,0.2c-0.1,0.1-0.2,0.2-0.2,0.4c-0.1,0.1-0.1,0.3-0.1,0.4C165.2,105.9,165.3,106.1,165.3,106.2z M166.4,105 c0.2,0,0.3,0,0.4,0.1c0.1,0.1,0.1,0.2,0.1,0.3c0,0.1,0,0.2-0.1,0.3c-0.1,0.1-0.2,0.1-0.3,0.1l0.5,0.7h-0.3l-0.4-0.7h-0.3v0.7 h-0.2V105H166.4z M166.3,105.7c0.1,0,0.1,0,0.2,0c0,0,0.1,0,0.1,0c0,0,0.1,0,0.1-0.1c0,0,0-0.1,0-0.1c0-0.1,0-0.1,0-0.1 c0,0,0-0.1-0.1-0.1c0,0-0.1,0-0.1,0c0,0-0.1,0-0.1,0h-0.3v0.5H166.3z"></path></g></g><g><path class="st0" d="M269.4,103.2c-0.8,0-1.5-0.7-1.5-1.5c0-0.8,0.7-1.5,1.5-1.5c0.8,0,1.5,0.7,1.5,1.5 C271,102.5,270.3,103.2,269.4,103.2z"></path><path class="st0" d="M235,111.6c0,3.7-3,6.7-6.7,6.7c-3.7,0-6.7-3-6.7-6.7c0-3.7,3-6.7,6.7-6.7C232,105,235,107.9,235,111.6z"></path><g><path class="st0" d="M207.7,100.3h2.9v6.7h0.1c0.4-0.6,0.9-1.1,1.6-1.5c0.7-0.4,1.5-0.6,2.3-0.6c1.4,0,2.5,0.4,3.4,1.1 c0.8,0.7,1.2,1.8,1.2,3.3v8.9h-2.9v-8.2c0-1-0.3-1.8-0.7-2.2c-0.4-0.5-1-0.7-1.9-0.7c-0.5,0-0.9,0.1-1.3,0.3 c-0.4,0.2-0.7,0.4-1,0.7c-0.3,0.3-0.5,0.7-0.6,1.1c-0.2,0.4-0.2,0.9-0.2,1.3v7.7h-2.9V100.3z"></path><path class="st0" d="M237,105.3h2.2v-3.9h2.9v3.9h2.6v2.1H242v6.9c0,0.3,0,0.6,0,0.8c0,0.2,0.1,0.4,0.2,0.6 c0.1,0.2,0.2,0.3,0.4,0.3c0.2,0.1,0.4,0.1,0.8,0.1c0.2,0,0.4,0,0.6,0c0.2,0,0.4,0,0.6-0.1v2.2c-0.3,0-0.6,0.1-0.9,0.1 c-0.3,0-0.6,0.1-0.9,0.1c-0.8,0-1.4-0.1-1.8-0.2c-0.5-0.1-0.8-0.4-1.1-0.6c-0.3-0.3-0.4-0.6-0.5-1c-0.1-0.4-0.1-0.9-0.2-1.4v-7.7 H237V105.3z"></path><path class="st0" d="M246.3,105.3h3l2.5,9.7h0.1l2.4-9.7h2.9l2.3,9.7h0.1l2.6-9.7h2.9l-4.1,13h-2.9l-2.4-9.6h-0.1l-2.4,9.6h-3 L246.3,105.3z"></path><path class="st0" d="M268,105.3h2.9v13H268V105.3z"></path><path class="st0" d="M274.9,105.3h2.7v2.5h0.1c0.1-0.4,0.2-0.7,0.5-1c0.2-0.3,0.5-0.6,0.9-0.9c0.3-0.3,0.7-0.5,1.1-0.7 c0.4-0.2,0.8-0.3,1.3-0.3c0.3,0,0.6,0,0.7,0c0.1,0,0.3,0,0.4,0.1v2.8c-0.2,0-0.4-0.1-0.6-0.1c-0.2,0-0.4,0-0.6,0 c-0.5,0-0.9,0.1-1.4,0.3c-0.4,0.2-0.8,0.5-1.1,0.9c-0.3,0.4-0.6,0.8-0.8,1.4c-0.2,0.6-0.3,1.2-0.3,1.9v6.2h-2.9V105.3z"></path></g><path class="st0" d="M286.4,112.6c0,0.5,0.1,1,0.2,1.5c0.1,0.5,0.4,0.9,0.6,1.2c0.3,0.4,0.6,0.6,1.1,0.8c0.4,0.2,1,0.3,1.6,0.3 c0.8,0,1.5-0.2,2-0.5c0.5-0.4,0.9-0.9,1.1-1.6h2.7c-0.2,0.7-0.4,1.3-0.8,1.9c-0.4,0.6-0.8,1-1.3,1.4c-0.5,0.4-1.1,0.7-1.7,0.9 c-0.6,0.2-1.3,0.3-2,0.3c-1,0-1.9-0.2-2.7-0.5c-0.8-0.3-1.5-0.8-2-1.4c-0.5-0.6-1-1.3-1.2-2.2c-0.3-0.8-0.4-1.8-0.4-2.8 c0-0.9,0.1-1.8,0.4-2.6c0.3-0.8,0.7-1.6,1.3-2.2c0.5-0.6,1.2-1.1,2-1.5c0.8-0.4,1.6-0.6,2.6-0.6c1,0,1.9,0.2,2.8,0.6 c0.8,0.4,1.5,1,2,1.7c0.5,0.7,0.9,1.5,1.2,2.4c0.2,0.9,0.3,1.9,0.2,2.8H286.4z M293.1,110.7c0-0.5-0.1-0.9-0.3-1.3 c-0.2-0.4-0.4-0.8-0.7-1.1c-0.3-0.3-0.6-0.6-1-0.8c-0.4-0.2-0.8-0.3-1.3-0.3c-0.5,0-1,0.1-1.4,0.3c-0.4,0.2-0.8,0.4-1.1,0.7 c-0.3,0.3-0.5,0.7-0.7,1.1c-0.2,0.4-0.3,0.9-0.3,1.4H293.1z"></path><g><path class="st0" d="M296.2,104.5c0.6,0,1.1,0.5,1.1,1.1c0,0.6-0.5,1.1-1.1,1.1c-0.6,0-1.1-0.5-1.1-1.1 C295.1,105,295.6,104.5,296.2,104.5z M296.2,106.5c0.5,0,0.9-0.4,0.9-0.9c0-0.5-0.4-0.9-0.9-0.9c-0.5,0-0.9,0.4-0.9,0.9 C295.3,106.1,295.7,106.5,296.2,106.5z M295.8,105h0.5c0.3,0,0.4,0.1,0.4,0.4c0,0.2-0.1,0.3-0.3,0.3l0.4,0.6h-0.2l-0.3-0.5H296 v0.5h-0.2V105z M296,105.5h0.2c0.2,0,0.3,0,0.3-0.2c0-0.2-0.1-0.2-0.3-0.2H296V105.5z"></path></g></g><g><path class="st0" d="M417.2,123c0,1.5-1,2.4-2.6,2.4c-1.5,0-2.6-1-2.6-2.4c0-1.4,1-2.4,2.6-2.4C416.2,120.6,417.2,121.6,417.2,123 z"></path><path class="st0" d="M410.6,115.3c0.9-1.8,1.4-3.9,1.4-6.2c0-7.6-5.5-12.7-13.5-12.7c-7.9,0-13.5,5-13.5,12.7 c0,7.7,5.5,12.8,13.5,12.8c2.4,0,8.3,0,9.6,0c2.3,0,3.8-1.5,3.8-3.7C412.1,117,411.5,116,410.6,115.3z M395.6,117.8h-3.7v-10.9 h3.7V117.8z M394,104.9c-1.2,0-2.2-0.9-2.2-2.2c0-1.3,1-2.2,2.2-2.2c1.2,0,2.2,0.9,2.2,2.2C396.2,104,395.1,104.9,394,104.9z M405.5,103.8c-0.4-0.1-0.8-0.1-1.2-0.1c-1.1,0-1.6,0.6-1.6,1.9v1.2h2.8v3.3h-2.8v7.7h-3.7v-7.7H397v-3.3h2.1v-1.4 c0-3.2,1.9-4.9,4.6-4.9c0.7,0,1.3,0.1,1.9,0.2V103.8z"></path><g><path class="st0" d="M350.1,117.8l-2.3-6.9l-2.3,6.9h-4.1l-4-12.8h4.3l2,7.2l2.5-7.2h3.2l2.5,7.3l2-7.3h4.3l-4,12.8H350.1z"></path><path class="st0" d="M372.4,111.3c0,4.1-3,6.9-7.3,6.9c-4.3,0-7.3-2.8-7.3-6.9c0-4.1,3-6.8,7.3-6.8 C369.5,104.5,372.4,107.2,372.4,111.3z M368.3,111.3c0-1.9-1.3-3.2-3.2-3.2c-1.8,0-3.2,1.3-3.2,3.2c0,2,1.3,3.2,3.2,3.2 C367,114.6,368.3,113.3,368.3,111.3z"></path><path class="st0" d="M383.2,114.3c-0.6,0.1-1.1,0.1-1.5,0.1c-1.3,0-1.8-0.8-1.8-2v-3.5h3.4V105h-3.4v-4.4h-4.3v4.4h-2.5v3.8h2.5 v3.9c0,3.5,1.8,5.4,5,5.4c1.1,0,1.8-0.1,2.7-0.2V114.3z"></path></g></g><g><g><path class="st0" d="M554.5,118.2c-0.6,0-1.1-0.5-1.1-1.2s0.5-1.2,1.1-1.2c0.6,0,1.1,0.5,1.1,1.2 C555.6,117.7,555.1,118.2,554.5,118.2L554.5,118.2z"></path><path class="st0" d="M562.4,117.7c-0.3,0.2-1.1,0.4-2.1,0.4c-2.2,0-3.6-1.5-3.6-3.7c0-2.2,1.5-3.9,3.9-3.9c0.8,0,1.5,0.2,1.8,0.4 l-0.3,1c-0.3-0.2-0.8-0.3-1.5-0.3c-1.7,0-2.6,1.2-2.6,2.8c0,1.7,1.1,2.7,2.5,2.7c0.8,0,1.2-0.2,1.6-0.3L562.4,117.7z"></path><path class="st0" d="M566.5,118.1c-2,0-3.5-1.4-3.5-3.7c0-2.4,1.6-3.9,3.6-3.9c2.1,0,3.5,1.5,3.5,3.7 C570.1,117,568.2,118.1,566.5,118.1L566.5,118.1z M566.5,117.1c1.3,0,2.2-1.2,2.2-2.8c0-1.2-0.6-2.8-2.2-2.8 c-1.6,0-2.2,1.4-2.2,2.8C564.3,115.9,565.2,117.1,566.5,117.1L566.5,117.1z"></path><path class="st0" d="M571.8,112.7c0-0.8,0-1.4-0.1-2h1.2l0.1,1.2h0c0.4-0.7,1.1-1.3,2.3-1.3c1,0,1.7,0.6,2,1.5h0 c0.2-0.4,0.5-0.7,0.8-0.9c0.4-0.3,0.9-0.5,1.6-0.5c1,0,2.4,0.6,2.4,3.2v4.3h-1.3v-4.1c0-1.4-0.5-2.2-1.6-2.2 c-0.8,0-1.3,0.6-1.6,1.2c-0.1,0.2-0.1,0.4-0.1,0.7v4.5h-1.3v-4.4c0-1.2-0.5-2-1.5-2c-0.8,0-1.4,0.7-1.6,1.3 c-0.1,0.2-0.1,0.4-0.1,0.6v4.4h-1.3V112.7z"></path></g><g><path class="st0" d="M460.7,104.8c-4.5,0-6.5,3.6-6.5,6.9c0,4,2.5,6.6,6.9,6.6c1.7,0,3.3-0.3,4.7-0.8l-0.5-2.7 c-1.1,0.3-2.2,0.5-3.6,0.5c-1.9,0-3.5-0.8-3.6-2.4h8.3c0.1-0.3,0.1-0.9,0.1-1.6C466.4,108.1,464.8,104.8,460.7,104.8z M458,110.1 c0.1-1.1,0.8-2.6,2.5-2.6c1.8,0,2.3,1.6,2.3,2.6H458z"></path><path class="st0" d="M475.4,104.8c-1.8,0-3.1,0.7-3.9,1.8h-0.1v-7.3h-4v14.8c0,1.4-0.1,3-0.1,3.8h3.4l0.2-1.8h0.1 c0.9,1.5,2.4,2.1,3.9,2.1c2.9,0,5.9-2.3,5.9-6.9C480.8,107.4,478.5,104.8,475.4,104.8z M473.9,115.1c-1.2,0-2.1-0.8-2.3-1.9 c-0.1-0.2-0.1-0.4-0.1-0.7v-1.9c0-0.3,0-0.5,0.1-0.7c0.3-1.2,1.3-2,2.3-2c1.9,0,2.8,1.6,2.8,3.6 C476.7,113.8,475.6,115.1,473.9,115.1z"></path><path class="st0" d="M488.5,104.8c-4.1,0-6.9,2.7-6.9,6.8c0,4.2,2.9,6.6,6.7,6.6c3.4,0,6.8-2.2,6.8-6.9 C495.1,107.5,492.4,104.8,488.5,104.8z M488.4,115.4c-1.7,0-2.6-1.7-2.6-3.9c0-1.9,0.7-3.9,2.6-3.9c1.8,0,2.5,1.9,2.5,3.9 C490.9,113.8,489.9,115.4,488.4,115.4z"></path><path class="st0" d="M502.7,104.8c-4.1,0-6.9,2.7-6.9,6.8c0,4.2,2.9,6.6,6.7,6.6c3.4,0,6.8-2.2,6.8-6.9 C509.3,107.5,506.6,104.8,502.7,104.8z M502.6,115.4c-1.7,0-2.6-1.7-2.6-3.9c0-1.9,0.7-3.9,2.6-3.9c1.8,0,2.6,1.9,2.6,3.9 C505.1,113.8,504.1,115.4,502.6,115.4z"></path><path id="XMLID_5_" class="st0" d="M522.5,105.1h-4.8L515,109c-0.3,0.5-0.6,1-0.9,1.6h-0.1V99.3h-4V118h4v-4l1-1.3l3.1,5.3h4.9 l-5.3-7.7L522.5,105.1z"></path><path class="st0" d="M528.2,104.8c-4.5,0-6.5,3.6-6.5,6.9c0,4,2.5,6.6,6.9,6.6c1.7,0,3.3-0.3,4.7-0.8l-0.5-2.7 c-1.1,0.3-2.2,0.5-3.6,0.5c-1.9,0-3.5-0.8-3.6-2.4h8.3c0.1-0.3,0.1-0.9,0.1-1.6C534,108.1,532.4,104.8,528.2,104.8z M525.5,110.1 c0.1-1.1,0.8-2.6,2.5-2.6c1.8,0,2.3,1.6,2.3,2.6H525.5z"></path><path id="XMLID_2_" class="st0" d="M538.8,107.5h-0.1l-0.1-2.4h-3.4c0.1,1.1,0.1,2.3,0.1,4.2v8.6h4v-6.5c0-0.3,0-0.6,0.1-0.9 c0.3-1.2,1.3-2,2.7-2c0.4,0,0.8,0.1,1.1,0.1v-3.8c-0.3-0.1-0.5-0.1-0.8-0.1C541,104.8,539.4,105.6,538.8,107.5z"></path><path id="XMLID_1_" class="st0" d="M549.9,110.1c-1.6-0.6-2.1-0.9-2.1-1.5c0-0.7,0.6-1.1,1.5-1.1c1.1,0,2.2,0.4,2.8,0.7l0.7-2.8 c-0.8-0.4-2.1-0.7-3.6-0.7c-3.2,0-5.2,1.8-5.2,4.2c0,1.5,1,3,3.7,3.9c1.5,0.5,1.9,0.8,1.9,1.5c0,0.7-0.5,1.1-1.7,1.1 c-1.2,0-2.7-0.5-3.4-1l-0.7,2.9c1,0.5,2.5,0.9,4.2,0.9c3.7,0,5.6-1.8,5.6-4.2C553.4,112.2,552.3,110.9,549.9,110.1z"></path></g></g><g><path class="st0" d="M969.5,117.8l-5.4-16.5h2.3l2.6,8.1c0.7,2.2,1.3,4.2,1.8,6.2h0.1c0.5-1.9,1.2-4,1.9-6.2l2.8-8.2h2.3 l-5.9,16.5H969.5L969.5,117.8z"></path><path class="st0" d="M986.5,114.7c0,1,0,2,0.2,2.8h-2l-0.2-1.5h-0.1c-0.7,0.9-1.9,1.8-3.6,1.8c-2.4,0-3.6-1.7-3.6-3.4 c0-2.9,2.5-4.4,7.1-4.4v-0.2c0-1-0.3-2.7-2.7-2.7c-1.1,0-2.3,0.3-3.1,0.9l-0.5-1.4c1-0.6,2.4-1.1,3.9-1.1c3.6,0,4.5,2.5,4.5,4.9 V114.7L986.5,114.7z M984.4,111.5c-2.4,0-5,0.4-5,2.7c0,1.4,0.9,2.1,2,2.1c1.5,0,2.5-1,2.9-2c0.1-0.2,0.1-0.5,0.1-0.7V111.5 L984.4,111.5z"></path><path class="st0" d="M997.9,117.1c-0.6,0.3-1.8,0.7-3.4,0.7c-3.6,0-5.9-2.5-5.9-6.1c0-3.7,2.5-6.3,6.4-6.3c1.3,0,2.4,0.3,3,0.6 l-0.5,1.7c-0.5-0.3-1.3-0.6-2.5-0.6c-2.7,0-4.2,2-4.2,4.5c0,2.7,1.8,4.4,4.1,4.4c1.2,0,2-0.3,2.6-0.6L997.9,117.1L997.9,117.1z"></path><path class="st0" d="M1008.3,114.7c0,1,0.1,2,0.2,2.8h-2l-0.2-1.5h-0.1c-0.7,0.9-1.9,1.8-3.6,1.8c-2.4,0-3.6-1.7-3.6-3.4 c0-2.9,2.5-4.4,7.1-4.4v-0.2c0-1-0.3-2.7-2.7-2.7c-1.1,0-2.3,0.3-3.1,0.9l-0.5-1.4c1-0.6,2.4-1.1,3.9-1.1c3.6,0,4.5,2.5,4.5,4.9 V114.7L1008.3,114.7z M1006.2,111.5c-2.4,0-5,0.4-5,2.7c0,1.4,0.9,2.1,2,2.1c1.5,0,2.5-1,2.9-2c0.1-0.2,0.1-0.5,0.1-0.7V111.5 L1006.2,111.5z"></path><path class="st0" d="M1013.8,102.9v2.8h3.1v1.6h-3.1v6.4c0,1.5,0.4,2.3,1.6,2.3c0.6,0,0.9,0,1.3-0.1l0.1,1.6 c-0.4,0.2-1.1,0.3-1.9,0.3c-1,0-1.8-0.3-2.3-0.9c-0.6-0.6-0.8-1.7-0.8-3.1v-6.5h-1.8v-1.6h1.8v-2.2L1013.8,102.9L1013.8,102.9z"></path><path class="st0" d="M1021.2,102.6c0,0.7-0.5,1.3-1.4,1.3c-0.8,0-1.3-0.6-1.3-1.3c0-0.8,0.6-1.4,1.3-1.4 C1020.7,101.3,1021.2,101.9,1021.2,102.6L1021.2,102.6z M1018.8,117.8V106h2.2v11.9H1018.8L1018.8,117.8z"></path><path class="st0" d="M1034.7,111.5c0,4.4-3,6.3-5.9,6.3c-3.2,0-5.7-2.4-5.7-6.1c0-4,2.6-6.3,5.9-6.3 C1032.4,105.4,1034.7,107.9,1034.7,111.5L1034.7,111.5z M1025.3,111.7c0,2.6,1.5,4.6,3.6,4.6c2.1,0,3.6-1.9,3.6-4.6 c0-2-1-4.6-3.6-4.6C1026.4,107.1,1025.3,109.4,1025.3,111.7L1025.3,111.7z"></path><path class="st0" d="M1036.9,109.2c0-1.2,0-2.2-0.1-3.2h1.9l0.1,2h0c0.6-1.1,2-2.2,3.9-2.2c1.6,0,4.2,1,4.2,5.1v7.1h-2.2V111 c0-1.9-0.7-3.5-2.7-3.5c-1.4,0-2.5,1-2.9,2.2c-0.1,0.3-0.1,0.6-0.1,1v7.1h-2.2V109.2L1036.9,109.2z"></path><path class="st0" d="M1050.1,101.5c1.1-0.2,2.6-0.3,4.1-0.3c2.3,0,3.8,0.4,4.8,1.4c0.8,0.7,1.3,1.9,1.3,3.1c0,2.2-1.4,3.6-3.1,4.2 v0.1c1.3,0.4,2,1.6,2.4,3.3c0.5,2.3,0.9,3.9,1.3,4.5h-2.2c-0.3-0.5-0.6-1.9-1.1-3.9c-0.5-2.3-1.4-3.1-3.3-3.2h-2v7.2h-2.1V101.5 L1050.1,101.5z M1052.2,109.1h2.2c2.3,0,3.7-1.3,3.7-3.1c0-2.1-1.5-3.1-3.8-3.1c-1,0-1.8,0.1-2.1,0.2V109.1L1052.2,109.1z"></path><path class="st0" d="M1064,112c0.1,2.9,1.9,4.1,4.1,4.1c1.5,0,2.5-0.3,3.3-0.6l0.4,1.5c-0.8,0.3-2.1,0.8-3.9,0.8 c-3.7,0-5.8-2.4-5.8-6c0-3.6,2.1-6.4,5.6-6.4c3.9,0,4.9,3.4,4.9,5.6c0,0.4,0,0.8-0.1,1H1064L1064,112z M1070.3,110.5 c0-1.4-0.6-3.5-3-3.5c-2.2,0-3.1,2-3.3,3.5H1070.3L1070.3,110.5z"></path><path class="st0" d="M1074.6,109.2c0-1.2,0-2.2-0.1-3.2h1.9l0.1,2h0c0.6-1.1,2-2.2,3.9-2.2c1.6,0,4.2,1,4.2,5.1v7.1h-2.2V111 c0-1.9-0.7-3.5-2.7-3.5c-1.4,0-2.5,1-2.9,2.2c-0.1,0.3-0.1,0.6-0.1,1v7.1h-2.2V109.2L1074.6,109.2z"></path><path class="st0" d="M1090.2,102.9v2.8h3.1v1.6h-3.1v6.4c0,1.5,0.4,2.3,1.6,2.3c0.6,0,0.9,0,1.3-0.1l0.1,1.6 c-0.4,0.2-1.1,0.3-1.9,0.3c-1,0-1.8-0.3-2.3-0.9c-0.6-0.6-0.8-1.7-0.8-3.1v-6.5h-1.8v-1.6h1.8v-2.2L1090.2,102.9L1090.2,102.9z"></path><path class="st0" d="M1103.5,114.7c0,1,0.1,2,0.2,2.8h-2l-0.2-1.5h-0.1c-0.7,0.9-1.9,1.8-3.6,1.8c-2.4,0-3.6-1.7-3.6-3.4 c0-2.9,2.5-4.4,7.1-4.4v-0.2c0-1-0.3-2.7-2.7-2.7c-1.1,0-2.3,0.3-3.1,0.9l-0.5-1.4c1-0.6,2.4-1.1,3.9-1.1c3.6,0,4.5,2.5,4.5,4.9 V114.7L1103.5,114.7z M1101.4,111.5c-2.4,0-5,0.4-5,2.7c0,1.4,0.9,2.1,2,2.1c1.5,0,2.5-1,2.9-2c0.1-0.2,0.1-0.5,0.1-0.7V111.5 L1101.4,111.5z"></path><polygon class="st0" points="1106.5,100.4 1108.6,100.4 1108.6,117.8 1106.5,117.8 1106.5,100.4"></polygon><path class="st0" d="M1111.5,115.4c0.6,0.4,1.8,0.9,2.8,0.9c1.6,0,2.3-0.8,2.3-1.8c0-1-0.6-1.6-2.2-2.2c-2.1-0.8-3.1-1.9-3.1-3.4 c0-1.9,1.5-3.5,4.1-3.5c1.2,0,2.3,0.3,2.9,0.7l-0.5,1.6c-0.5-0.3-1.3-0.7-2.4-0.7c-1.3,0-2,0.7-2,1.6c0,1,0.7,1.4,2.3,2 c2.1,0.8,3.1,1.8,3.1,3.6c0,2.1-1.6,3.6-4.4,3.6c-1.3,0-2.5-0.3-3.3-0.8L1111.5,115.4L1111.5,115.4z"></path><path class="st0" d="M1121.6,117.8c-0.8,0-1.4-0.7-1.4-1.5c0-0.9,0.6-1.5,1.5-1.5c0.9,0,1.4,0.6,1.4,1.5 C1123.1,117.2,1122.5,117.8,1121.6,117.8L1121.6,117.8L1121.6,117.8z"></path><path class="st0" d="M1133.7,117.1c-0.6,0.3-1.8,0.7-3.4,0.7c-3.6,0-5.9-2.5-5.9-6.1c0-3.7,2.5-6.3,6.4-6.3c1.3,0,2.4,0.3,3,0.6 l-0.5,1.7c-0.5-0.3-1.3-0.6-2.5-0.6c-2.7,0-4.2,2-4.2,4.5c0,2.7,1.8,4.4,4.1,4.4c1.2,0,2-0.3,2.6-0.6L1133.7,117.1L1133.7,117.1z"></path><path class="st0" d="M1146.3,111.5c0,4.4-3,6.3-5.9,6.3c-3.2,0-5.7-2.4-5.7-6.1c0-4,2.6-6.3,5.9-6.3 C1144,105.4,1146.3,107.9,1146.3,111.5L1146.3,111.5z M1136.9,111.7c0,2.6,1.5,4.6,3.6,4.6c2.1,0,3.6-1.9,3.6-4.6 c0-2-1-4.6-3.6-4.6S1136.9,109.4,1136.9,111.7L1136.9,111.7z"></path><path class="st0" d="M1148.5,109.2c0-1.2,0-2.2-0.1-3.2h1.9l0.1,1.9h0.1c0.7-1.1,1.8-2.2,3.7-2.2c1.6,0,2.8,1,3.4,2.4h0.1 c0.4-0.7,0.8-1.2,1.3-1.5c0.7-0.5,1.5-0.8,2.6-0.8c1.6,0,3.9,1,3.9,5.1v7h-2.1v-6.7c0-2.3-0.8-3.7-2.6-3.7c-1.2,0-2.2,0.9-2.5,2 c-0.1,0.3-0.2,0.7-0.2,1.1v7.3h-2.1v-7.1c0-1.9-0.8-3.3-2.5-3.3c-1.3,0-2.3,1.1-2.7,2.2c-0.1,0.3-0.2,0.7-0.2,1.1v7.2h-2.1V109.2 L1148.5,109.2z"></path><polygon class="st0" points="1169.4,115.1 1169.4,115.4 1168.5,115.4 1168.5,117.8 1168.1,117.8 1168.1,115.4 1167.2,115.4 1167.2,115.1 1169.4,115.1"></polygon><path class="st0" d="M1172.7,117.8l-0.1-1.9c0-0.2,0-0.4,0-0.6h0c-0.1,0.2-0.2,0.4-0.2,0.7l-0.6,1.8h-0.4l-0.6-1.8 c-0.1-0.2-0.2-0.4-0.2-0.6h0c0,0.2,0,0.4,0,0.6l-0.1,1.9h-0.4l0.2-2.8h0.5l0.6,1.8c0.1,0.2,0.1,0.4,0.2,0.6h0 c0.1-0.2,0.1-0.4,0.2-0.6l0.7-1.8h0.5l0.2,2.8H1172.7L1172.7,117.8z"></path></g><g><path class="st0" d="M789.9,33.6c-0.3,0.1-0.3,0.4,0,0.4c0.5,0,2.6-0.1,4.6,0.1c2.2,0.2,4.4,0.8,6.1,1.4c1.7,0.6,5.4,2.7,5.4,2.7 s-4.8,2.7-6.4,6.7c-0.1,0.2,0,0.3,0.3,0.1c6.1-3.6,10.4-5.9,17.8-7.3c0.5-0.1,0.4-0.2,0-0.3c-0.4-0.1-1.8-0.4-5.5-1.7 c-3.7-1.4-7.2-2.6-11.4-3c-0.6,0-1.2-0.1-1.9-0.1C794.6,32.7,790,33.6,789.9,33.6"></path><path class="st0" d="M819.6,30.2c-1.2,1.4-3.6,3.2-5.9,4.1c-0.3,0.1-0.2,0.3-0.1,0.4c0,0,0.2,0.1,0.4,0.2l3.1,1 c0.3,0.1,0.2,0.1,0.3,0c1.6-1.6,2.3-4,2.3-5.5c0,0,0-0.2,0-0.2C819.7,30,819.6,30.1,819.6,30.2"></path><path class="st0" d="M874.8,45.1h-2c-0.1,0-0.2-0.1-0.3-0.2l-5.9-10.1v9.9c0,0.2-0.2,0.4-0.4,0.4h-2c-0.2,0-0.4-0.2-0.4-0.4V30.4 c0-0.2,0.2-0.4,0.4-0.4h2c0.1,0,0.2,0.1,0.3,0.2l5.9,9.7v-9.5c0-0.2,0.2-0.4,0.4-0.4h1.9c0.2,0,0.4,0.2,0.4,0.4v14.4 C875.2,45,875,45.1,874.8,45.1L874.8,45.1z"></path><path class="st0" d="M895.5,45.1h-2c-0.2,0-0.4-0.2-0.4-0.4V30.4c0-0.2,0.2-0.4,0.4-0.4h2c0.2,0,0.4,0.2,0.4,0.4v14.4 C895.8,45,895.7,45.1,895.5,45.1L895.5,45.1z"></path><path class="st0" d="M884.3,45.3c-1.8,0-3.4-0.7-4.5-2c-1.1-1.3-1.7-3.4-1.7-5.5v-0.5c0-1.4,0.3-3,0.8-4.1 c0.5-1.1,1.3-1.9,2.2-2.5c1-0.6,2.1-0.9,3.3-0.9c1.7,0,3,0.5,4,1.4c0.8,0.7,1.4,1.7,1.6,2.9c0,0.1,0,0.2-0.1,0.3 c-0.1,0.1-0.2,0.1-0.3,0.1h-2c-0.2,0-0.3-0.1-0.3-0.3c-0.2-0.7-0.5-1.2-0.8-1.5c-0.5-0.5-1.2-0.7-2.1-0.7c-1.1,0-2,0.4-2.7,1.2 c-0.7,0.8-1,2.5-1,4v0.6c0,1.5,0.3,3.1,0.9,3.9c0.6,0.8,1.4,1.2,2.5,1.2c1,0,1.8-0.2,2.3-0.6c0.4-0.3,0.7-0.8,0.9-1.6 c0-0.2,0.2-0.3,0.3-0.3h2c0.1,0,0.2,0,0.3,0.1c0.1,0.1,0.1,0.2,0.1,0.3c-0.3,1.2-0.9,2.2-1.7,3C887.4,44.9,886,45.3,884.3,45.3 L884.3,45.3z"></path><path class="st0" d="M833.5,45.1h-7.4c-0.2,0-0.4-0.2-0.4-0.4V30.4c0-0.2,0.2-0.4,0.4-0.4h7.4c0.2,0,0.4,0.2,0.4,0.4v1.6 c0,0.2-0.2,0.4-0.4,0.4h-5.1v3.9h5.1c0.2,0,0.4,0.2,0.4,0.4v1.6c0,0.2-0.2,0.4-0.4,0.4h-5.1v4.4h5.1c0.2,0,0.4,0.2,0.4,0.4v1.6 C833.8,45,833.7,45.1,833.5,45.1L833.5,45.1z"></path><path class="st0" d="M859.8,45.1h-7.4c-0.2,0-0.4-0.2-0.4-0.4V30.4c0-0.2,0.2-0.4,0.4-0.4h7.4c0.2,0,0.4,0.2,0.4,0.4v1.6 c0,0.2-0.2,0.4-0.4,0.4h-5.1v3.9h5.1c0.2,0,0.4,0.2,0.4,0.4v1.6c0,0.2-0.2,0.4-0.4,0.4h-5.1v4.4h5.1c0.2,0,0.4,0.2,0.4,0.4v1.6 C860.1,45,859.9,45.1,859.8,45.1L859.8,45.1z"></path><path class="st0" d="M911.7,44.6l-5.5-14.4c-0.1-0.1-0.2-0.2-0.3-0.2h-1.7c-0.1,0-0.3,0.1-0.3,0.2l-5.5,14.4c0,0.1,0,0.2,0,0.3 c0.1,0.1,0.2,0.2,0.3,0.2h2c0.2,0,0.4,0,0.4,0c2.3-2.5,5.7-3.7,6.7-4l1.4,3.8c0.1,0.1,0.2,0.2,0.3,0.2h1.9c0.1,0,0.2-0.1,0.3-0.2 C911.8,44.9,911.8,44.8,911.7,44.6L911.7,44.6z M902.7,41.2l-0.4,0.2l0.1-0.3l0.6-1.6l2.1-5.8l2.3,6.2 C905.6,40.3,904.3,40.6,902.7,41.2L902.7,41.2z"></path><path class="st0" d="M843,45.3c-1.2,0-2.4-0.3-3.4-0.9c-1-0.6-1.7-1.4-2.3-2.5c-0.5-1.1-0.8-2.3-0.8-3.7V37c0-2.2,0.5-4,1.6-5.3 c1.1-1.3,2.6-1.9,4.6-1.9c1.6,0,2.9,0.4,3.9,1.2h0c0.7,0.6,1.2,1.4,1.6,2.3c0,0.1,0,0.2,0,0.3c-0.1,0.1-0.2,0.1-0.3,0.1h-2 c-0.1,0-0.3-0.1-0.3-0.2c-0.5-1-1.4-1.6-2.8-1.6c-1.2,0-2.1,0.4-2.7,1.2c-0.6,0.8-0.9,2.1-0.9,3.7v1.2c0,1.5,0.4,2.7,1,3.6 c0.7,0.9,1.6,1.3,2.8,1.3c0.7,0,1.3-0.1,1.8-0.2c0.4-0.1,0.8-0.3,1.1-0.6v-3.8h-2.4c-0.2,0-0.4-0.2-0.4-0.4v-1.6 c0-0.2,0.2-0.4,0.4-0.4h5l0,6.7c0,0.1,0,0.1-0.1,0.2c-0.5,0.8-1.3,1.3-2.2,1.7C845.3,45.1,844.2,45.3,843,45.3L843,45.3z"></path><path class="st0" d="M914.4,30.7c-0.1-0.2-0.3-0.4-0.5-0.5c-0.2-0.1-0.5-0.2-0.7-0.2c-0.3,0-0.5,0.1-0.7,0.2 c-0.2,0.1-0.4,0.3-0.5,0.5c-0.1,0.2-0.2,0.4-0.2,0.7c0,0.3,0.1,0.5,0.2,0.7c0.1,0.2,0.3,0.4,0.5,0.5c0.2,0.1,0.5,0.2,0.7,0.2 c0.3,0,0.5-0.1,0.7-0.2c0.2-0.1,0.4-0.3,0.5-0.5c0.1-0.2,0.2-0.4,0.2-0.7C914.6,31.2,914.5,30.9,914.4,30.7L914.4,30.7z M914.2,32 c-0.1,0.2-0.2,0.3-0.4,0.4c-0.2,0.1-0.4,0.2-0.6,0.2c-0.2,0-0.4-0.1-0.6-0.2c-0.2-0.1-0.3-0.2-0.4-0.4c-0.1-0.2-0.2-0.4-0.2-0.6 c0-0.2,0.1-0.4,0.2-0.6c0.1-0.2,0.2-0.3,0.4-0.4c0.2-0.1,0.4-0.2,0.6-0.2c0.2,0,0.4,0.1,0.6,0.2c0.2,0.1,0.3,0.2,0.4,0.4 c0.1,0.2,0.1,0.4,0.1,0.6C914.3,31.6,914.3,31.8,914.2,32L914.2,32z"></path><path class="st0" d="M913.6,31.9c0,0,0-0.1,0-0.2s0-0.1,0-0.2c0-0.1-0.1-0.1-0.1-0.1c0.1-0.1,0.2-0.2,0.2-0.3c0-0.1,0-0.2-0.1-0.3 c-0.1-0.1-0.2-0.1-0.4-0.1h-0.4V32h0.2v-0.5h0.2c0.1,0,0.1,0,0.2,0c0,0,0,0.1,0,0.2c0,0.2,0,0.3,0,0.3h0.2L913.6,31.9 C913.7,32,913.7,32,913.6,31.9L913.6,31.9z M913.4,31.3c0,0-0.1,0-0.2,0H913V31h0.2c0.1,0,0.2,0,0.2,0c0,0,0.1,0.1,0.1,0.1 C913.4,31.2,913.4,31.3,913.4,31.3L913.4,31.3z"></path></g><g><path class="st0" d="M1212.9,117.7c-0.6,0-1.2-0.1-1.7-0.3c-0.5-0.2-0.9-0.5-1.2-0.8c-0.3-0.4-0.5-0.7-0.7-1.2 c-0.2-0.4-0.2-0.9-0.2-1.3v-12.7h3.8v12.4c0,0.5,0.3,0.8,0.8,0.8h1.3v3.2H1212.9z"></path><path class="st0" d="M1223,117.7v-1c-0.4,0.4-0.8,0.7-1.2,0.9c-0.4,0.2-0.9,0.3-1.5,0.3c-1.2,0-2.2-0.4-3-1.1 c-0.7-0.7-1.1-1.7-1.1-2.9c0-1,0.4-1.9,1.1-2.6c0.7-0.7,1.8-1,3.1-1h2.5v-0.3c0-0.5-0.1-0.9-0.4-1.2c-0.3-0.2-0.8-0.4-1.4-0.4 c-0.5,0-0.8,0.1-1.1,0.2c-0.3,0.1-0.6,0.3-0.9,0.6l-2.3-2.3c0.6-0.6,1.3-1.1,1.9-1.3c0.7-0.2,1.5-0.4,2.6-0.4 c1.8,0,3.1,0.4,4.1,1.1c0.9,0.8,1.4,1.9,1.4,3.4v8H1223z M1222.9,112.7h-1.9c-0.4,0-0.7,0.1-0.9,0.3c-0.2,0.2-0.3,0.4-0.3,0.7 c0,0.3,0.1,0.5,0.3,0.7c0.2,0.2,0.5,0.3,0.9,0.3c0.4,0,0.7,0,0.9-0.1c0.2-0.1,0.4-0.2,0.6-0.4c0.2-0.2,0.4-0.6,0.4-1.2V112.7z"></path><path class="st0" d="M1238.5,115.5c-0.3,0.5-0.7,1-1.2,1.3c-0.5,0.3-1.1,0.6-1.7,0.8c-0.6,0.2-1.3,0.3-2.1,0.3 c-1.2,0-2.2-0.1-3-0.3c-0.8-0.2-1.6-0.7-2.4-1.5l2.4-2.4c0.4,0.4,0.9,0.7,1.4,0.8c0.5,0.1,1,0.2,1.6,0.2c0.4,0,0.7-0.1,1.1-0.2 c0.3-0.1,0.5-0.3,0.5-0.6c0-0.2-0.1-0.4-0.2-0.5c-0.1-0.1-0.4-0.2-0.7-0.3l-1.9-0.2c-1.1-0.1-2-0.4-2.6-1 c-0.6-0.6-0.9-1.4-0.9-2.6c0-0.7,0.1-1.2,0.4-1.8c0.3-0.5,0.6-0.9,1.1-1.3c0.5-0.4,1-0.6,1.6-0.8c0.6-0.2,1.2-0.3,1.8-0.3 c1.1,0,2,0.1,2.8,0.3c0.8,0.2,1.5,0.6,2,1.2l-2.3,2.3c-0.3-0.3-0.6-0.5-1.1-0.6c-0.5-0.1-1-0.2-1.5-0.2c-0.4,0-0.7,0.1-0.9,0.2 c-0.2,0.2-0.3,0.3-0.3,0.5c0,0.2,0,0.3,0.1,0.4c0.1,0.1,0.3,0.2,0.7,0.3l1.9,0.2c1.2,0.1,2.2,0.5,2.8,1.2c0.6,0.7,0.9,1.5,0.9,2.6 C1238.9,114.4,1238.7,115,1238.5,115.5z"></path><path class="st0" d="M1244.8,117.7c-0.6,0-1.2-0.1-1.7-0.3c-0.5-0.2-0.9-0.5-1.2-0.9c-0.3-0.4-0.5-0.7-0.7-1.2 c-0.2-0.4-0.2-0.9-0.2-1.3v-5.3h-1.1v-2.9h1.1v-3.5h3.8v3.5h2v2.9h-2v5.1c0,0.5,0.3,0.8,0.8,0.8h1.2v3.2H1244.8z"></path><path class="st0" d="M1262.6,117.7v-7.4c0-0.3,0-0.6-0.1-0.8c-0.1-0.2-0.2-0.4-0.4-0.5c-0.2-0.1-0.3-0.2-0.5-0.3 c-0.2,0-0.3-0.1-0.5-0.1s-0.3,0-0.5,0.1c-0.2,0-0.3,0.1-0.5,0.3c-0.2,0.1-0.3,0.3-0.4,0.5c-0.1,0.2-0.2,0.5-0.2,0.8v7.4h-3.8v-7.4 c0-0.3,0-0.6-0.1-0.8c-0.1-0.2-0.2-0.4-0.4-0.5c-0.2-0.1-0.3-0.2-0.5-0.3c-0.2,0-0.3-0.1-0.5-0.1c-0.2,0-0.3,0-0.5,0.1 c-0.2,0-0.3,0.1-0.5,0.3c-0.2,0.1-0.3,0.3-0.4,0.5c-0.1,0.2-0.2,0.5-0.2,0.8v7.4h-3.8v-12.4h3.7v1c0.4-0.4,0.8-0.7,1.3-0.8 c0.5-0.2,1-0.3,1.5-0.3c1.2,0,2.2,0.4,3,1.3c0.5-0.5,1.1-0.8,1.6-1c0.5-0.2,1.2-0.3,1.9-0.3c0.6,0,1.2,0.1,1.7,0.3 c0.5,0.2,0.9,0.4,1.3,0.8c0.5,0.5,0.9,1,1.1,1.6c0.2,0.6,0.3,1.2,0.3,1.9v7.9H1262.6z"></path><path class="st0" d="M1269.1,104.1v-2.9h3.8v2.9H1269.1z M1269.1,117.7v-11.9h3.8v11.9H1269.1z"></path><path class="st0" d="M1282.5,117.7v-7.4c0-0.3-0.1-0.6-0.1-0.8c-0.1-0.2-0.2-0.4-0.4-0.5c-0.2-0.1-0.3-0.2-0.5-0.3 c-0.2,0-0.3-0.1-0.5-0.1c-0.2,0-0.3,0-0.5,0.1c-0.2,0-0.3,0.1-0.5,0.3c-0.2,0.1-0.3,0.3-0.4,0.5c-0.1,0.2-0.2,0.5-0.2,0.8v7.4 h-3.8v-12.4h3.7v1c0.4-0.4,0.8-0.7,1.3-0.8c0.5-0.2,1-0.3,1.5-0.3c1.1,0,2.1,0.4,2.8,1.1c0.5,0.5,0.8,1,1,1.6 c0.2,0.6,0.3,1.2,0.3,2v7.9H1282.5z"></path><path class="st0" d="M1295.8,117.7v-1c-0.4,0.4-0.8,0.7-1.3,0.9c-0.5,0.2-1,0.3-1.5,0.3c-1.1,0-2.1-0.4-2.8-1.1 c-0.5-0.5-0.8-1-1-1.6c-0.2-0.6-0.3-1.2-0.3-2v-7.9h3.8v7.4c0,0.3,0.1,0.6,0.2,0.8c0.1,0.2,0.2,0.4,0.4,0.5 c0.2,0.1,0.3,0.2,0.5,0.3c0.2,0,0.3,0.1,0.5,0.1c0.2,0,0.3,0,0.5-0.1c0.2,0,0.3-0.1,0.5-0.3c0.2-0.1,0.3-0.3,0.4-0.5 c0.1-0.2,0.1-0.5,0.1-0.8v-7.4h3.8v12.4H1295.8z"></path><path class="st0" d="M1306.4,117.7c-0.6,0-1.2-0.1-1.7-0.3c-0.5-0.2-0.9-0.5-1.2-0.9c-0.3-0.4-0.5-0.7-0.7-1.2 c-0.2-0.4-0.2-0.9-0.2-1.3v-5.3h-1.1v-2.9h1.1v-3.5h3.8v3.5h2v2.9h-2v5.1c0,0.5,0.3,0.8,0.8,0.8h1.2v3.2H1306.4z"></path><path class="st0" d="M1313.8,112.7c0,0.5,0.2,1,0.6,1.4c0.4,0.4,0.9,0.6,1.6,0.6c0.6,0,1.1-0.1,1.5-0.2c0.4-0.2,0.7-0.4,1.1-0.8 l2.2,2.3c-0.7,0.7-1.4,1.2-2.1,1.5c-0.7,0.3-1.6,0.5-2.7,0.5c-0.8,0-1.5-0.1-2.2-0.3c-0.7-0.2-1.3-0.5-1.9-0.9 c-0.6-0.5-1-1.1-1.4-1.9c-0.3-0.8-0.5-1.9-0.5-3.2c0-2,0.5-3.5,1.5-4.6s2.4-1.7,4-1.7c0.9,0,1.7,0.1,2.4,0.4 c0.7,0.3,1.3,0.7,1.8,1.3c0.5,0.5,0.8,1.2,1.1,1.9c0.2,0.7,0.4,1.5,0.4,2.3v1.7H1313.8z M1317.2,109.3c-0.1-0.3-0.3-0.5-0.6-0.7 c-0.3-0.2-0.6-0.3-1-0.3c-0.4,0-0.8,0.1-1,0.3c-0.3,0.2-0.5,0.4-0.6,0.7c-0.1,0.3-0.2,0.6-0.2,1h3.7 C1317.5,109.9,1317.4,109.6,1317.2,109.3z"></path><path class="st0" d="M1323.4,117.7v-4.1h4.1v4.1H1323.4z"></path><path class="st0" d="M1335.2,117.8c-0.6,0-1.3-0.1-1.9-0.3c-0.6-0.2-1.2-0.5-1.8-0.9c-0.6-0.5-1-1.1-1.4-2 c-0.4-0.8-0.5-1.9-0.5-3.2c0-1.3,0.2-2.3,0.5-3.2c0.4-0.8,0.8-1.5,1.4-2c0.6-0.5,1.2-0.8,1.8-0.9c0.6-0.2,1.2-0.3,1.9-0.3 c1.7,0,3,0.5,4.1,1.6l-2.5,2.6c-0.3-0.3-0.5-0.4-0.7-0.6c-0.2-0.1-0.5-0.2-0.8-0.2c-0.5,0-0.8,0.2-1.2,0.5 c-0.4,0.4-0.6,1.2-0.6,2.4c0,1.2,0.2,2,0.6,2.4c0.3,0.3,0.7,0.5,1.2,0.5c0.3,0,0.6-0.1,0.8-0.2c0.2-0.1,0.5-0.3,0.7-0.6l2.5,2.6 C1338.2,117.3,1336.9,117.8,1335.2,117.8z"></path><path class="st0" d="M1350.6,114.4c-0.2,0.7-0.5,1.3-1.1,1.9c-0.4,0.5-1,0.8-1.6,1.1c-0.7,0.3-1.4,0.4-2.4,0.4 c-0.9,0-1.7-0.1-2.3-0.4c-0.7-0.3-1.2-0.7-1.6-1.1c-0.5-0.6-0.9-1.2-1.1-1.9c-0.2-0.7-0.3-1.6-0.3-2.9c0-1.2,0.1-2.2,0.3-2.9 c0.2-0.7,0.5-1.3,1.1-1.9c0.4-0.5,1-0.8,1.6-1.1c0.7-0.3,1.4-0.4,2.3-0.4c0.9,0,1.7,0.1,2.4,0.4c0.6,0.3,1.2,0.7,1.6,1.1 c0.5,0.6,0.9,1.2,1.1,1.9c0.2,0.7,0.3,1.7,0.3,2.9C1350.9,112.8,1350.8,113.7,1350.6,114.4z M1347,109.9c-0.1-0.4-0.2-0.7-0.4-0.9 c-0.2-0.2-0.6-0.3-1-0.3c-0.4,0-0.8,0.1-1,0.3c-0.2,0.2-0.4,0.5-0.4,0.9c-0.1,0.4-0.1,0.9-0.1,1.6c0,0.7,0,1.2,0.1,1.6 c0.1,0.4,0.2,0.7,0.4,0.9c0.2,0.2,0.6,0.3,1,0.3c0.4,0,0.8-0.1,1-0.3c0.2-0.2,0.4-0.5,0.4-0.9c0.1-0.4,0.1-0.9,0.1-1.6 C1347.1,110.8,1347.1,110.3,1347,109.9z"></path><path class="st0" d="M1366.9,117.7v-7.4c0-0.3,0-0.6-0.1-0.8c-0.1-0.2-0.2-0.4-0.4-0.5c-0.2-0.1-0.3-0.2-0.5-0.3 c-0.2,0-0.3-0.1-0.5-0.1c-0.2,0-0.3,0-0.5,0.1c-0.2,0-0.3,0.1-0.5,0.3c-0.2,0.1-0.3,0.3-0.4,0.5c-0.1,0.2-0.2,0.5-0.2,0.8v7.4 h-3.8v-7.4c0-0.3-0.1-0.6-0.1-0.8c-0.1-0.2-0.2-0.4-0.4-0.5c-0.2-0.1-0.3-0.2-0.5-0.3c-0.2,0-0.3-0.1-0.5-0.1 c-0.2,0-0.3,0-0.5,0.1c-0.2,0-0.3,0.1-0.5,0.3c-0.2,0.1-0.3,0.3-0.4,0.5c-0.1,0.2-0.2,0.5-0.2,0.8v7.4h-3.8v-12.4h3.7v1 c0.4-0.4,0.8-0.7,1.3-0.8c0.5-0.2,1-0.3,1.5-0.3c1.2,0,2.2,0.4,3,1.3c0.5-0.5,1.1-0.8,1.6-1c0.5-0.2,1.2-0.3,1.9-0.3 c0.6,0,1.2,0.1,1.7,0.3c0.5,0.2,0.9,0.4,1.3,0.8c0.5,0.5,0.9,1,1.1,1.6c0.2,0.6,0.3,1.2,0.3,1.9v7.9H1366.9z"></path><path class="st0" d="M1373.3,117.7v-4.1h4.1v4.1H1373.3z"></path><path class="st0" d="M1386.1,117.7v-1c-0.4,0.4-0.8,0.7-1.2,0.9c-0.4,0.2-0.9,0.3-1.5,0.3c-1.2,0-2.2-0.4-3-1.1 c-0.7-0.7-1.1-1.7-1.1-2.9c0-1,0.4-1.9,1.1-2.6c0.7-0.7,1.8-1,3.1-1h2.5v-0.3c0-0.5-0.1-0.9-0.4-1.2c-0.3-0.2-0.8-0.4-1.4-0.4 c-0.5,0-0.8,0.1-1.1,0.2c-0.3,0.1-0.6,0.3-0.9,0.6l-2.3-2.3c0.6-0.6,1.3-1.1,1.9-1.3c0.7-0.2,1.5-0.4,2.6-0.4 c1.8,0,3.1,0.4,4.1,1.1c0.9,0.8,1.4,1.9,1.4,3.4v8H1386.1z M1386,112.7h-1.9c-0.4,0-0.7,0.1-0.9,0.3c-0.2,0.2-0.3,0.4-0.3,0.7 c0,0.3,0.1,0.5,0.3,0.7c0.2,0.2,0.5,0.3,0.9,0.3c0.4,0,0.7,0,0.9-0.1c0.2-0.1,0.4-0.2,0.6-0.4c0.2-0.2,0.4-0.6,0.4-1.2V112.7z"></path><path class="st0" d="M1399.2,117.7v-1c-0.4,0.4-0.8,0.7-1.3,0.9c-0.5,0.2-1,0.3-1.6,0.3c-1.1,0-2.1-0.4-2.8-1.1 c-0.5-0.5-0.8-1-1-1.6c-0.2-0.6-0.3-1.2-0.3-2v-7.9h3.8v7.4c0,0.3,0.1,0.6,0.2,0.8c0.1,0.2,0.2,0.4,0.4,0.5 c0.2,0.1,0.3,0.2,0.5,0.3c0.2,0,0.3,0.1,0.5,0.1c0.2,0,0.3,0,0.5-0.1c0.2,0,0.3-0.1,0.5-0.3c0.2-0.1,0.3-0.3,0.4-0.5 c0.1-0.2,0.1-0.5,0.1-0.8v-7.4h3.8v12.4H1399.2z"></path></g><g><polygon class="st0" points="732.8,33.4 732.8,34.3 732.7,34.3 732.7,33.4 732.3,33.4 732.3,33.3 733.2,33.3 733.2,33.4"></polygon><polygon class="st0" points="734.3,34.3 734.3,33.4 734.2,33.4 733.9,34.3 733.8,34.3 733.5,33.4 733.5,33.4 733.5,34.3 733.3,34.3 733.4,33.3 733.6,33.3 733.9,34.1 733.9,34.1 734.2,33.3 734.4,33.3 734.4,34.3"></polygon><path class="st0" d="M734.3,34.3"></path><path class="st0" d="M719.2,49.7c6.3-0.4,11.3-5.6,11.5-12c0-1.9-1.3-5-5.7-5.4l0,0c3.6,0.4,4.9,3,4.9,4.7 C729.7,42.9,725.2,49,719.2,49.7L719.2,49.7z"></path><path class="st0" d="M719.2,49.7"></path><path class="st0" d="M719.3,49.4L719.3,49.4c3.9-0.5,7.9-8.7,8-14.2c0-1.2-0.7-2.4-2.4-2.7l0,0c1.1,0.3,1.6,1.1,1.6,2.1 C726.3,40,722.4,48.8,719.3,49.4L719.3,49.4z"></path><path class="st0" d="M719.3,49.4"></path><path class="st0" d="M719.2,49.6c5.3-0.6,9.6-7.4,9.7-13.1c0-1.5-1-3.7-4-4l0,0c2.4,0.4,3.2,2,3.2,3.4 C728,41.4,723.8,48.9,719.2,49.6L719.2,49.6z"></path><path class="st0" d="M719.2,49.6"></path><path class="st0" d="M725,32.2L725,32.2c5,0.5,6.4,4,6.4,6.1c-0.1,6-4.8,10.9-12.3,11.4l0,0c8.3-0.5,13.1-4.8,13.2-10.9 C732.3,36.7,730.7,32.5,725,32.2L725,32.2z"></path><path class="st0" d="M725,32.2"></path><path class="st0" d="M711.9,43.6c0.1-6,5.2-10.9,12.3-11.4l0,0c-7.9,0.5-13.1,4.8-13.2,10.8c0,2.2,1.6,6.4,7.3,6.7l0,0 C713.3,49.3,711.8,45.7,711.9,43.6L711.9,43.6z"></path><path class="st0" d="M711.9,43.6"></path><path class="st0" d="M716.8,47.3c0.1-5.1,4.1-14.2,7.2-14.8l0,0c-3.8,0.6-7.9,8.9-8,14.2c0,1.2,0.6,2.5,2.4,2.7l0,0 C717.2,49.2,716.8,48.3,716.8,47.3L716.8,47.3z"></path><path class="st0" d="M716.8,47.3"></path><path class="st0" d="M713.5,44.8c0.1-5.7,4.7-11.9,10.6-12.5l0,0c-6.6,0.5-11.4,6.1-11.5,12c0,1.9,1.3,5.1,5.7,5.4l0,0 C714.6,49.2,713.5,46.6,713.5,44.8L713.5,44.8z"></path><path class="st0" d="M713.5,44.8"></path><path class="st0" d="M715.2,46.1c0.1-5.4,4.5-13,8.9-13.7l0,0c-5.2,0.6-9.6,7.5-9.7,13.1c0,1.5,1,3.8,4,4.1l0,0 C716,49.2,715.1,47.4,715.2,46.1L715.2,46.1z"></path><path class="st0" d="M715.2,46.1"></path><path class="st0" d="M695.6,49.5L695.6,49.5c6.1-0.7,10.7-8.2,11.1-13c0.1-1.6-0.6-2.4-1.7-2.6c-1.6-0.2-3.7,0.9-4.9,2.6l0,0 c1.2-1.6,2.9-2.5,4.2-2.3c0.9,0.1,1.5,0.8,1.4,2.1C705.4,40.8,701.2,48.3,695.6,49.5L695.6,49.5z"></path><path class="st0" d="M695.6,49.5"></path><path class="st0" d="M695.7,49.4L695.7,49.4c4.5-1.2,8.7-9.1,9.1-12.9c0.1-1-0.3-1.6-1.1-1.7c-1.1-0.1-2.5,0.7-3.5,2l0,0 c0.8-1,2-1.7,2.8-1.6c0.5,0.1,0.9,0.5,0.8,1.3C703.5,39.8,699.6,47.7,695.7,49.4L695.7,49.4z"></path><path class="st0" d="M695.7,49.4"></path><path class="st0" d="M708.7,36.6c0.2-2.1-0.8-3.2-2.3-3.4c-2.2-0.3-4.8,1-6.4,3.3l0,0c1.5-2,3.8-3.2,5.7-3c1.3,0.2,2.2,1.1,2,3 c-0.5,5.4-5.6,12.7-12.2,13.1l0,0C702.9,49.6,708.2,42.4,708.7,36.6L708.7,36.6z"></path><path class="st0" d="M708.7,36.6"></path><path class="st0" d="M707.8,32.3c-2.7-0.4-6,1.2-7.9,4l0,0c1.8-2.5,4.7-4,7.2-3.7c1.6,0.2,2.8,1.5,2.5,3.9 c-0.6,6.2-5.8,13.2-14.2,13.2l0,0c8.7,0.3,14.6-6.5,15.2-13.2C710.9,33.9,709.7,32.5,707.8,32.3L707.8,32.3z"></path><path class="st0" d="M707.8,32.3"></path><path class="st0" d="M695,44.9c-0.3,0.8-1,2.4-1,3.3c0,0.4,0.3,0.9,0.7,1.1c0.1,0,0.1,0.1,0.2,0.1l0-0.1c-0.1-0.1-0.2-0.3-0.2-0.7 c0.1-0.9,0.8-2.6,1.1-3.4l8.4-21.5L703,24c0.1,0.3-2.2,5.9-2.3,6.2L695,44.9z"></path><path class="st0" d="M695,44.9"></path><path class="st0" d="M695.2,30.3l-4.9,12.6c-0.3,0.8-0.7,1.8-0.8,2.8c-0.2,2.1,1.6,3.8,5.2,3.9l0,0c-3-0.2-4.6-1.6-4.5-3.5 c0.1-1,0.5-2.1,0.9-2.9l5.1-13c0.5-1.2,1.8-4.1,1.1-5.1l-1.1,0.2v0.1C696.9,26.6,695.8,29,695.2,30.3L695.2,30.3z"></path><path class="st0" d="M695.2,30.3"></path><path class="st0" d="M697.2,30l-5.3,13.6c-0.3,0.8-0.8,2.1-0.9,3c-0.1,1.7,1.2,2.8,3.8,3l0,0c-0.5-0.1-1-0.2-1.5-0.4 c-1-0.4-1.6-1.1-1.5-2.1c0.1-1,0.6-2.3,0.9-3.1l5.4-13.9c0.3-0.7,1.8-4.2,1.4-5.3l-1.1,0.2V25C699,25.9,697.5,29.1,697.2,30 L697.2,30z"></path><path class="st0" d="M697.2,30"></path><path class="st0" d="M693.4,44.3c-0.3,0.8-0.9,2.3-1,3.2c-0.1,1.2,0.9,1.8,2.3,2l0,0c-0.9-0.2-1.7-0.6-1.6-1.6 c0.1-0.9,0.7-2.5,1-3.3l5.6-14.5c0.1-0.4,2.3-5.6,2-5.9l-1.1,0.2v0.1c0,1.3-1.4,4.7-1.7,5.5L693.4,44.3z"></path><path class="st0" d="M693.4,44.3"></path><path class="st0" d="M694.7,49.7c-4-0.2-6.1-2.1-5.9-4.4c0.1-1,0.5-1.9,0.8-2.7l4.7-12.1c0.6-1.5,1.7-3.8,0.8-4.9l-1.1,0.2v0.1 c0.9,1,0.1,2.7-0.5,4.4l-4.7,12c-0.4,0.8-0.6,1.7-0.7,2.6C687.8,47.4,690.1,49.6,694.7,49.7L694.7,49.7z"></path><path class="st0" d="M694.7,49.7"></path><path class="st0" d="M689.3,34.5c-0.1-1.6-1-2.3-2.2-2.3c-2.1,0-3.9,1.7-5,3.9c0-0.3,0-0.5,0-0.8c-0.1-1.7-1.3-3.1-3.4-3.1 c-4.5,0-6.8,3-7.5,6.4h0c0.8-3.2,2.9-6,7-6c2,0,3,1.2,3.1,2.8c0.1,2.1-0.6,3.7-1.3,5.5l-3.3,8.7h0.9l3.3-8.6 c0.2-0.6,0.4-1.1,0.6-1.7c0.7-1.4,1.5-2.8,1.9-2.8c0.3,0,0.4,0.3,0.4,0.5c0.1,0.9-0.3,2.4-1,3.7l0,0c0.8-0.7,1.8-2.9,1.7-4.1 c0-0.5-0.2-0.8-0.7-0.8c-0.7,0-1.6,1.5-2.3,3c0.1-0.2,0.1-0.5,0.2-0.7c0.7-1.5,1.7-2.9,2.6-2.9c0.6,0,0.9,0.4,0.9,1 c0.1,1.5-1.3,3.8-2.5,4.5l0,0c1.6-0.7,3.3-3,3.2-4.9c0-0.8-0.5-1.3-1.2-1.3c-1.1,0-2.3,1.3-3,3c0-0.1,0-0.3,0.1-0.4 c0.9-1.8,2.1-3.2,3.5-3.2c0.8,0,1.4,0.5,1.4,1.5c0.1,2.2-2,4.6-3.9,5.3l0,0c2.3-0.6,4.8-3.1,4.7-5.7c-0.1-1.2-0.8-1.8-1.7-1.8 c-1.6,0-3.1,1.5-4,3.4c0-0.1,0-0.2,0-0.3c1-2.1,2.7-3.7,4.5-3.7c1,0,1.9,0.7,1.9,2.1c0.2,3-2.6,5.5-5.4,6.1l0,0 C686.5,40.5,689.5,37.8,689.3,34.5L689.3,34.5z"></path><path class="st0" d="M689.3,34.5"></path><path class="st0" d="M677.2,35.6c0-0.8-0.6-1.4-1.5-1.4c-2,0-3.5,2.1-4.2,4.4h0c0.8-2,2.1-4,3.7-4c0.7,0,1.1,0.4,1.1,1 c0.1,1.1-1,3.5-1.6,4.9l-3.6,9h0.9l3.5-8.9C676.2,39.1,677.3,36.8,677.2,35.6L677.2,35.6z"></path><path class="st0" d="M677.2,35.6"></path><path class="st0" d="M675.6,35.7c0-0.5-0.3-0.8-0.8-0.8c-1.1,0-2.4,1.8-3.1,3.7h0.1c0.8-1.7,1.9-3.4,2.6-3.4 c0.3,0,0.5,0.1,0.5,0.5c0,0.7-1.2,3.5-1.7,4.7l-3.7,9.1h0.9l3.6-9.1C674.5,39.2,675.6,36.5,675.6,35.7L675.6,35.7z"></path><path class="st0" d="M675.6,35.7"></path><path class="st0" d="M680.5,35.4c-0.1-1.4-1-2.6-2.8-2.6c-3.6,0-5.7,2.7-6.4,5.7h0c0.8-2.8,2.7-5.4,5.9-5.4c1.5,0,2.4,0.9,2.5,2.2 c0.1,1.7-0.7,3.6-1.4,5.3l-3.4,8.8h0.9l3.3-8.7C679.8,39,680.6,37.2,680.5,35.4L680.5,35.4z"></path><path class="st0" d="M680.5,35.4"></path><path class="st0" d="M678.8,35.5c-0.1-1.1-0.8-2-2.1-2c-2.9,0-4.6,2.5-5.4,5.1h0c0.8-2.4,2.4-4.7,4.8-4.7c1.1,0,1.7,0.7,1.8,1.7 c0.1,1.4-0.9,3.6-1.5,5.1l-3.5,8.9h0.9l3.5-8.8C678,39.1,678.9,37,678.8,35.5L678.8,35.5z"></path><path class="st0" d="M678.8,35.5"></path><path class="st0" d="M665.6,43.4l0.6-1.2l-2-10.1c-0.6-2.8,0.1-4.1,2.3-4.5v0h-2.1c-0.6,0.3-1.9,1.2-1.1,4.6L665.6,43.4z"></path><path class="st0" d="M665.6,43.4"></path><path class="st0" d="M664.5,45.8l0.6-1.2L662.4,32c-0.5-2.5-0.3-3.7,0.5-4.5v0h-1.4c-0.4,0.9-0.6,1.8-0.1,4.3L664.5,45.8z"></path><path class="st0" d="M664.5,45.8"></path><path class="st0" d="M658,27.5h-1.5v0c0.7,0.8,0.8,1.8,1.4,3.9l3.9,18.1h0.9l-3.9-18.1C658.2,29,658.1,28.4,658,27.5L658,27.5z"></path><path class="st0" d="M658,27.5"></path><path class="st0" d="M663.3,48.3l0.6-1.2l-3.2-15.4c-0.6-2.4-0.4-3.5-0.2-4.2h-1.3c0,1,0,1.8,0.5,3.8L663.3,48.3z"></path><path class="st0" d="M663.3,48.3"></path><path class="st0" d="M655.1,27.5h-1.6v0c1.4,0.6,2.1,1.7,2.7,4.2l3.9,17.8h0.9l-3.9-17.9C656.4,28.5,655.7,27.9,655.1,27.5 L655.1,27.5z"></path><path class="st0" d="M655.1,27.5"></path><path class="st0" d="M669.6,35.4L669.6,35.4c2.2-5.1,2.8-6.5,3.7-7.9v0h-1.8v0.1C671.7,29.6,671,31.5,669.6,35.4L669.6,35.4z"></path><path class="st0" d="M669.6,35.4"></path><path class="st0" d="M675,27.5c-1.8,1.1-2.9,3.1-5.3,8l0.1,0c2.7-5,4.2-7,7.6-8v0H675z"></path><path class="st0" d="M675,27.5"></path><path class="st0" d="M669.5,35.3L669.5,35.3c1.4-4.6,1.9-6.6,0.7-7.8h-1.7v0C670.4,28.2,670.8,30.2,669.5,35.3L669.5,35.3z"></path><path class="st0" d="M669.5,35.3"></path></g><g><path class="st0" d="M644.8,111.6l2.2,0.1c-1,3.5-4,5.8-7.5,5.8c-4.6,0-6.3-3.3-5.5-7.7c0.9-4.4,3.7-8.1,8.5-8.1 c3.9,0,5.7,2.3,5.2,6.1l-4.4,0.2c0.3-1.3,0.1-2.9-1.5-2.9c-2.1,0-2.8,3.2-3.1,4.6c-0.3,1.5-0.7,4.1,1.4,4.1c1.4,0,2.3-1.3,2.6-2.5 L644.8,111.6L644.8,111.6z"></path><path class="st0" d="M654,117.3l1.4-7.1c0.1-0.8,0.1-1.4-0.8-1.4c-0.4,0-0.8,0.2-1.1,0.6c-0.3,0.3-0.4,0.7-0.5,1.1l-1.3,6.8h-4.4 l3-15.3h4.4l-1,5.2c1-1,2.2-1.6,3.5-1.6c1.1,0,2.2,0.3,2.7,1.2c0.5,1,0.2,2.1,0,3.2l-1.4,7.1H654L654,117.3z"></path><path class="st0" d="M672.3,113.5c-1.2,2.8-3.9,4-6.6,4c-1.7,0-3.2-0.4-4.3-1.5c-1-1.1-1.4-2.6-1-4.3c0.3-1.5,1.2-3.2,2.5-4.3 c1.4-1.2,3.2-1.8,4.9-1.8c3.8,0,5.6,2.5,4.9,6.2l-0.1,0.6h-7.6c-0.3,1.2,0,2.1,1.3,2.1c1,0,1.6-0.4,2-1.4L672.3,113.5L672.3,113.5 z M668.4,110.3c0.2-1.1,0-2-1.2-2c-1.2,0-1.8,0.9-2,2H668.4L668.4,110.3z"></path><path class="st0" d="M680.1,117.3c0-0.5,0.1-1,0.1-1.6c-1.1,1.3-2.5,1.8-4.1,1.8c-2.1,0-3.7-1.2-3.3-3.4c0.3-1.8,2-3,3.7-3.5 c1.5-0.4,3.1-0.6,4.6-0.7l0-0.1c0.2-1,0-1.4-1.1-1.4c-0.9,0-1.7,0.3-2,1.3l-4-0.4c1.2-2.8,4.1-3.6,6.6-3.6c1.3,0,3,0.2,4,1 c1.3,1,0.8,2.5,0.5,4.1l-0.8,4c-0.2,0.8-0.3,1.7-0.1,2.5H680.1L680.1,117.3z M680.7,112c-1.1,0.1-2.9,0.4-3.2,1.8 c-0.1,0.7,0.3,1,1,1c1.7,0,2-1.4,2.2-2.6L680.7,112L680.7,112z"></path><path class="st0" d="M692,105.9l-0.3,1.6h0c0.7-1.4,2.1-1.8,3.6-1.8c3.2,0,3.7,3.1,3.1,5.8c-0.2,1.3-0.7,2.7-1.5,3.8 c-1,1.4-2.3,2.2-3.9,2.2c-1.2,0-2.2-0.4-2.7-1.4l-0.9,4.8H685l2.9-15H692L692,105.9z M691,112.9c-0.2,0.8-0.2,1.8,0.8,1.8 c0.6,0,1.1-0.3,1.4-0.9c0.3-0.6,0.5-1.4,0.6-2.1c0.2-0.9,0.6-3.2-0.8-3.2c-0.4,0-0.8,0.2-1.1,0.5c-0.4,0.4-0.4,0.7-0.5,1.2 L691,112.9L691,112.9z"></path><path class="st0" d="M725.1,113c-1,2.9-3.4,4.5-6.3,4.5c-1.6,0-2.9-0.4-3.9-1.6c-0.9-1.2-1.2-2.7-0.9-4.3c0.7-3.4,3.5-5.9,7-5.9 c2.8,0,4.7,1.6,4.5,4.5l-4,0.3v-0.1c0-0.8,0-1.7-1-1.7c-1.4,0-1.8,1.8-2,2.8c-0.2,1.1-0.5,2.8,0.9,2.8c1,0,1.5-0.9,1.8-1.7 L725.1,113L725.1,113z"></path><polygon class="st0" points="704.1,117.2 699.6,117.2 701.9,105.6 698.7,105.6 699.4,102 710.2,102 709.5,105.6 706.3,105.6 704.1,117.2"></polygon><polygon class="st0" points="712.1,117.2 707.7,117.2 709.9,105.9 714.3,105.9 712.1,117.2"></polygon><polygon class="st0" points="735,109.8 737.4,117.2 732.8,117.2 731.6,112.7 730.2,114.1 729.6,117.2 725.2,117.2 728.1,102 732.5,102 730.9,110.2 732.1,108.9 735.4,105.9 739.2,105.9 735,109.8"></polygon><path class="st0" d="M749.5,113.4c-1.2,2.8-3.9,4-6.6,4c-1.7,0-3.2-0.4-4.3-1.5c-1-1.1-1.4-2.6-1-4.3c0.3-1.5,1.2-3.2,2.5-4.3 c1.4-1.2,3.2-1.8,4.9-1.8c3.8,0,5.6,2.5,4.9,6.2l-0.1,0.6h-7.6c-0.3,1.2,0,2.1,1.3,2.1c1,0,1.6-0.4,2-1.4L749.5,113.4L749.5,113.4 z M745.7,110.2c0.2-1.1,0-2-1.2-2c-1.2,0-1.8,0.9-2,2H745.7L745.7,110.2z"></path><path class="st0" d="M750.4,108.8l0.6-2.9h1.8l1-3.6l3.9-0.1l-0.7,3.8l2.3,0l-0.6,2.9l-2.2,0l-0.8,3.9c-0.2,0.8-0.4,1.5,0.7,1.5 c0.4,0,0.9-0.1,1.3-0.2l-0.6,3.2l-2.7,0.3c-1.2,0.2-2.3-0.2-3-1.2c-0.7-0.9-0.4-2-0.2-3.2l0.8-4.3H750.4L750.4,108.8z"></path><path class="st0" d="M761.9,113.5c0,1.1,1.2,1.2,2.2,1.2c0.4,0,1.7,0,1.8-0.7c0.1-0.6-1.4-0.7-1.8-0.7c-2.3-0.3-5-0.8-4.5-3.8 c0.3-1.3,1.1-2.3,2.3-3c1.2-0.7,2.6-0.9,3.8-0.9c2.1,0,4.2,0.8,4.6,3l-3.5,0.6c-0.2-0.8-1-1-1.8-1c-0.4,0-1.4,0.1-1.5,0.6 c-0.1,0.4,0.3,0.5,0.6,0.6c0.5,0.1,1.3,0.2,1.9,0.3c1,0.1,2.1,0.3,2.9,0.8c0.9,0.7,1.3,1.7,1,2.9c-0.6,3.1-4.1,4-6.7,4 c-2.5,0-4.7-0.8-5.1-3.5L761.9,113.5L761.9,113.5z"></path><g><path class="st0" d="M641.9,109c-0.4-2.3-3.7-4.7-7.2-5.4c-2.6-0.5-4.6,0-5.4,1.2c1-0.4,2.2-0.5,3.6-0.2c3.5,0.6,6.6,2.9,7,5.3 c0.2,0.8,0,1.5-0.5,2C641.2,111.5,642.2,110.5,641.9,109L641.9,109z"></path><g><path class="st0" d="M634,98.1c-2.2-0.4-15.6-2.8-16.3-2.9c-1.3-0.2-3,0.2-4,1.9c-1.1,2.1-3.1,5.7-3.3,6.2 c-0.2,0.5-0.4,1.2,0.4,1.6c2.4,1.3,12.1,6.3,15.1,7.8c1,0.5,3.4,0.3,4.6-1.9c1-1.9,4.8-9.5,5.1-9.9 C636.1,99.9,636.2,98.4,634,98.1z M625.4,109.6l-13.2-5.8l3.9-7.2l13.8,3L625.4,109.6z M630.9,105.6c-1.1,0.2-2.1-0.2-2.2-0.9 c-0.1-0.8,0.8-1.6,2-1.8c1.1-0.2,2.1,0.2,2.2,0.9C633,104.6,632.1,105.4,630.9,105.6z"></path><g><path class="st0" d="M617.2,98.8c1.1,0,6.3,0.5,8.1,2.6C623.3,101,619.7,99.5,617.2,98.8"></path><path class="st0" d="M621.6,102.6c-1.5-0.6-3.4-1.2-5.9-2c1.6,0,8.6,1.5,10,3.3C624.9,103.8,623.1,103.1,621.6,102.6"></path><path class="st0" d="M616.8,103c0.8,0,5.7,0.7,7.2,2.3C622.8,105.1,620.2,103.9,616.8,103"></path></g></g></g><path class="st0" d="M772.9,103.5c0.4,0,0.7,0.1,0.9,0.4c0.3,0.3,0.4,0.6,0.4,0.9c0,0.4-0.1,0.7-0.4,0.9c-0.3,0.3-0.6,0.4-0.9,0.4 c-0.4,0-0.7-0.1-0.9-0.4c-0.3-0.3-0.4-0.6-0.4-0.9c0-0.4,0.1-0.7,0.4-0.9C772.2,103.6,772.5,103.5,772.9,103.5L772.9,103.5z M772.9,105.9c0.3,0,0.6-0.1,0.8-0.3c0.2-0.2,0.3-0.5,0.3-0.8c0-0.3-0.1-0.5-0.3-0.8c-0.2-0.2-0.5-0.3-0.8-0.3 c-0.3,0-0.5,0.1-0.8,0.3c-0.2,0.2-0.3,0.5-0.3,0.8c0,0.3,0.1,0.6,0.3,0.8C772.3,105.7,772.6,105.9,772.9,105.9L772.9,105.9z M773.5,105.5h-0.3l-0.4-0.6h-0.2v0.6h-0.3v-1.4h0.4c0.2,0,0.3,0,0.4,0.1c0.1,0.1,0.1,0.2,0.1,0.3c0,0.2-0.1,0.3-0.3,0.4 L773.5,105.5L773.5,105.5z M772.7,104.7h0.1c0.2,0,0.3-0.1,0.3-0.2c0-0.1-0.1-0.2-0.3-0.2h-0.2V104.7L772.7,104.7z"></path></g><g><path class="st0" d="M455.9,33.2c0-1.1-1-2.7-3-2.7c-1.8,0-3,1.5-3,3.1c0,1.9,1.3,3.2,3.5,3.2h4.2c-1,1.6-2.7,2.6-4.7,2.6 c-3.2,0-5.7-2.6-5.7-5.8c0-3.2,2.6-5.8,5.7-5.8c3.2,0,5.8,2.6,5.8,5.8c0,0.6-0.1,1.2-0.3,1.8H452v-0.6l2.3-0.1 C455.4,34.7,455.9,34.1,455.9,33.2"></path><path class="st0" d="M463.6,31.2c0.1,0.2,0.2,0.2,0.3,0l2-3h3l-3.7,5.2l4,5.6H466l-2.3-3.3c-0.1-0.2-0.2-0.2-0.3,0l-2.3,3.3h-3 l4-5.5l-3.8-5.3h3.2L463.6,31.2L463.6,31.2z"></path><path class="st0" d="M472.8,30.4c0.8-1.7,2.2-2.4,3.7-2.4c2.6,0,5,2.2,5,5.7c0,3.5-2.4,5.7-5,5.7c-1.4,0-2.9-0.7-3.7-2.4 c0-0.1-0.1-0.1-0.1,0v6.6h-2.8V28.2h2.8v2.1C472.7,30.4,472.8,30.4,472.8,30.4 M475.7,37.1c1.6,0,3-1.4,3-3.4c0-2-1.4-3.4-3-3.4 c-1.6,0-3,1.4-3,3.4C472.6,35.6,474.1,37.1,475.7,37.1"></path><path class="st0" d="M491.3,33.2c0-1.1-1-2.7-3-2.7c-1.8,0-3,1.5-3,3.1c0,1.9,1.3,3.2,3.5,3.2h4.2c-1,1.6-2.7,2.6-4.7,2.6 c-3.2,0-5.7-2.6-5.7-5.8c0-3.2,2.6-5.8,5.7-5.8c3.2,0,5.8,2.6,5.8,5.8c0,0.6-0.1,1.2-0.3,1.8h-6.4v-0.6l2.3-0.1 C490.8,34.7,491.3,34.1,491.3,33.2"></path><path class="st0" d="M503.8,36.9c-0.8,1.7-2.2,2.4-3.7,2.4c-2.6,0-5-2.2-5-5.7c0-3.5,2.4-5.7,5-5.7c1.4,0,2.9,0.7,3.7,2.4 c0,0.1,0.1,0.1,0.1,0v-6.8h2.8v15.5h-2.8V37C503.9,36.9,503.9,36.8,503.8,36.9 M500.9,30.2c-1.6,0-3.1,1.4-3.1,3.4 c0,2,1.4,3.4,3.1,3.4c1.6,0,3-1.4,3-3.4C504,31.7,502.5,30.2,500.9,30.2"></path><path class="st0" d="M508.7,25.1c0-0.9,0.7-1.6,1.6-1.6c0.9,0,1.6,0.7,1.6,1.6c0,0.9-0.7,1.6-1.6,1.6 C509.5,26.7,508.7,26,508.7,25.1 M511.8,39.1H509V28.2h2.8V39.1L511.8,39.1z"></path><path class="st0" d="M522,36.9c-0.8,1.7-2.2,2.4-3.7,2.4c-2.6,0-5-2.2-5-5.7c0-3.5,2.4-5.7,5-5.7c1.4,0,2.9,0.7,3.7,2.4 c0,0.1,0.1,0.1,0.1,0v-2.1h2.8v10.8h-2.8V37C522.1,36.9,522.1,36.8,522,36.9 M519.1,30.2c-1.6,0-3,1.4-3,3.4c0,2,1.4,3.4,3,3.4 c1.6,0,3-1.4,3-3.4C522.2,31.7,520.8,30.2,519.1,30.2"></path><path class="st0" d="M539.3,36.9c0-0.1-0.1-0.1-0.1,0c-0.8,1.7-2.2,2.4-3.6,2.4c-2.6,0-4.9-2.2-4.9-5.7c0-3.5,2.4-5.7,4.9-5.7 c1.4,0,2.8,0.7,3.6,2.4c0,0.1,0.1,0.1,0.1,0v-2.1h2.8v10.2c0,3-2.1,5.3-5.7,5.3c-2,0-3.7-0.7-5-1.9l1.7-1.8c1.1,0.9,2,1.4,3.3,1.4 c2,0,2.9-1.4,2.9-3.2V36.9L539.3,36.9z M536.3,30.2c-1.6,0-3,1.4-3,3.4c0,2,1.4,3.4,3,3.4c1.6,0,3-1.4,3-3.4 C539.4,31.6,537.9,30.2,536.3,30.2"></path><path class="st0" d="M547.1,28.2v2.4c0,0,0,0.1,0.1,0c0.4-1.9,1.2-2.7,2.7-2.7h0.3v2.9h-1.3c-1.1,0-1.7,0.9-1.7,2.1v6h-2.8V28.2 H547.1L547.1,28.2z"></path><path class="st0" d="M556.3,27.9c3.1,0,5.7,2.6,5.7,5.8c0,3.2-2.6,5.8-5.7,5.8c-3.2,0-5.8-2.6-5.8-5.8 C550.5,30.5,553.1,27.9,556.3,27.9 M556.3,30.4c-1.7,0-3,1.4-3,3.2c0,1.8,1.4,3.2,3,3.2c1.7,0,3-1.4,3-3.2 C559.3,31.8,557.9,30.4,556.3,30.4"></path><path class="st0" d="M568,39.4c-2.7,0-4.5-1.7-4.5-4.1v-7.1h2.8v6.9c0,1.1,0.7,1.8,1.7,1.8c1,0,1.7-0.7,1.7-1.8v-6.9h2.8v7.1 C572.6,37.8,570.7,39.4,568,39.4"></path><path class="st0" d="M577.6,30.4c0.8-1.7,2.2-2.4,3.7-2.4c2.6,0,5,2.2,5,5.7c0,3.5-2.4,5.7-5,5.7c-1.4,0-2.9-0.7-3.7-2.4 c0-0.1-0.1-0.1-0.1,0v6.6h-2.8V28.2h2.8v2.1C577.5,30.4,577.6,30.4,577.6,30.4 M580.5,37.1c1.6,0,3-1.4,3-3.4c0-2-1.4-3.4-3-3.4 c-1.6,0-3,1.4-3,3.4C577.5,35.6,578.9,37.1,580.5,37.1"></path><polygon class="st0" points="588.9,28.2 588.9,28.5 588.4,28.5 588.4,29.9 588.1,29.9 588.1,28.5 587.6,28.5 587.6,28.2 588.9,28.2"></polygon><path class="st0" d="M590.2,28.2h0.5v1.6h-0.3v-1.1c0,0,0-0.1,0-0.1c0-0.1,0-0.1,0-0.1l-0.3,1.4h-0.3l-0.3-1.4c0,0,0,0.1,0,0.1 c0,0.1,0,0.1,0,0.1v1.1h-0.3v-1.6h0.5l0.3,1.3L590.2,28.2L590.2,28.2z"></path><path class="st0" d="M473.6,49.9h0.7V51c0.3-0.4,0.6-0.7,1-0.9c0.4-0.2,0.8-0.3,1.3-0.3c0.8,0,1.5,0.3,2.1,0.9 c0.6,0.6,0.9,1.3,0.9,2.1c0,0.8-0.3,1.6-0.9,2.2c-0.6,0.6-1.3,0.9-2.1,0.9c-0.5,0-0.9-0.1-1.3-0.3c-0.4-0.2-0.7-0.5-1-0.9v3.1 h-0.7V49.9L473.6,49.9z M476.5,50.5c-0.6,0-1.2,0.2-1.6,0.7c-0.4,0.4-0.7,1-0.7,1.7c0,0.4,0.1,0.8,0.3,1.2 c0.2,0.3,0.5,0.6,0.8,0.8c0.4,0.2,0.7,0.3,1.1,0.3c0.4,0,0.8-0.1,1.1-0.3c0.3-0.2,0.6-0.5,0.8-0.9c0.2-0.4,0.3-0.8,0.3-1.2 c0-0.4-0.1-0.8-0.3-1.2c-0.2-0.4-0.5-0.7-0.8-0.9C477.3,50.6,476.9,50.5,476.5,50.5"></path><path class="st0" d="M486.6,49.9v5.8h-0.7v-1c-0.3,0.4-0.7,0.7-1,0.9c-0.4,0.2-0.8,0.3-1.3,0.3c-0.8,0-1.5-0.3-2.1-0.9 c-0.6-0.6-0.9-1.3-0.9-2.2c0-0.8,0.3-1.5,0.9-2.1c0.6-0.6,1.3-0.9,2.1-0.9c0.5,0,0.9,0.1,1.3,0.3c0.4,0.2,0.7,0.5,1,0.9v-1.1 H486.6L486.6,49.9z M483.7,50.5c-0.4,0-0.8,0.1-1.1,0.3c-0.3,0.2-0.6,0.5-0.8,0.9c-0.2,0.4-0.3,0.8-0.3,1.2c0,0.4,0.1,0.8,0.3,1.2 c0.2,0.4,0.5,0.7,0.8,0.9c0.3,0.2,0.7,0.3,1.1,0.3c0.4,0,0.8-0.1,1.1-0.3c0.4-0.2,0.6-0.5,0.8-0.8c0.2-0.3,0.3-0.7,0.3-1.2 c0-0.7-0.2-1.2-0.7-1.7C484.9,50.7,484.3,50.5,483.7,50.5"></path><path class="st0" d="M488,49.9h0.8v0.8c0.2-0.3,0.5-0.6,0.7-0.7c0.2-0.2,0.5-0.2,0.8-0.2c0.2,0,0.4,0.1,0.7,0.2l-0.4,0.6 c-0.2-0.1-0.3-0.1-0.4-0.1c-0.2,0-0.5,0.1-0.7,0.3c-0.2,0.2-0.4,0.5-0.5,0.9c-0.1,0.3-0.1,1-0.1,2v1.9H488V49.9L488,49.9z"></path><polygon class="st0" points="492.2,47.8 492.9,47.8 492.9,49.9 494.1,49.9 494.1,50.6 492.9,50.6 492.9,55.7 492.2,55.7 492.2,50.6 491.2,50.6 491.2,49.9 492.2,49.9 492.2,47.8"></polygon><path class="st0" d="M495.2,49.9h0.7v1c0.3-0.4,0.6-0.7,1-0.9c0.4-0.2,0.7-0.3,1.2-0.3c0.4,0,0.8,0.1,1.1,0.3 c0.3,0.2,0.6,0.5,0.7,0.9c0.2,0.4,0.2,0.9,0.2,1.7v3h-0.7V53c0-0.7,0-1.1-0.1-1.3c-0.1-0.4-0.2-0.7-0.5-0.9 c-0.2-0.2-0.6-0.3-0.9-0.3c-0.4,0-0.8,0.1-1.2,0.4c-0.4,0.3-0.6,0.7-0.7,1.1c-0.1,0.3-0.1,0.8-0.1,1.6v2.1h-0.7V49.9L495.2,49.9z"></path><path class="st0" d="M506.6,53.8l0.6,0.3c-0.2,0.4-0.4,0.7-0.7,1c-0.3,0.2-0.6,0.4-0.9,0.6c-0.3,0.1-0.7,0.2-1.1,0.2 c-0.9,0-1.7-0.3-2.2-0.9c-0.5-0.6-0.8-1.3-0.8-2.1c0-0.7,0.2-1.4,0.7-2c0.6-0.7,1.3-1.1,2.3-1.1c1,0,1.8,0.4,2.3,1.1 c0.4,0.5,0.6,1.2,0.6,2h-5.2c0,0.7,0.2,1.2,0.6,1.6c0.4,0.4,0.9,0.6,1.5,0.6c0.3,0,0.6-0.1,0.9-0.2c0.3-0.1,0.5-0.2,0.7-0.4 C506.2,54.4,506.4,54.2,506.6,53.8 M506.6,52.2c-0.1-0.4-0.2-0.7-0.4-0.9c-0.2-0.2-0.4-0.4-0.7-0.6c-0.3-0.1-0.6-0.2-1-0.2 c-0.6,0-1,0.2-1.5,0.5c-0.3,0.3-0.5,0.7-0.7,1.2H506.6L506.6,52.2z"></path><path class="st0" d="M508.5,49.9h0.8v0.8c0.2-0.3,0.5-0.6,0.7-0.7c0.2-0.2,0.5-0.2,0.8-0.2c0.2,0,0.4,0.1,0.7,0.2l-0.4,0.6 c-0.2-0.1-0.3-0.1-0.4-0.1c-0.2,0-0.5,0.1-0.7,0.3c-0.2,0.2-0.4,0.5-0.5,0.9c-0.1,0.3-0.1,1-0.1,2v1.9h-0.8V49.9L508.5,49.9z"></path><path class="st0" d="M517.9,50.6l-0.5,0.5c-0.4-0.4-0.8-0.6-1.2-0.6c-0.2,0-0.4,0.1-0.6,0.2c-0.2,0.2-0.3,0.3-0.3,0.6 c0,0.2,0.1,0.4,0.2,0.5c0.1,0.2,0.4,0.4,0.9,0.6c0.5,0.3,0.9,0.6,1.1,0.8c0.2,0.3,0.3,0.6,0.3,0.9c0,0.5-0.2,0.9-0.5,1.2 c-0.3,0.3-0.7,0.5-1.2,0.5c-0.3,0-0.6-0.1-0.9-0.2c-0.3-0.1-0.6-0.3-0.7-0.6l0.5-0.5c0.4,0.4,0.8,0.6,1.2,0.6 c0.3,0,0.5-0.1,0.8-0.3c0.2-0.2,0.3-0.4,0.3-0.7c0-0.2-0.1-0.4-0.2-0.6c-0.1-0.2-0.4-0.4-0.9-0.6c-0.5-0.3-0.9-0.5-1.1-0.8 c-0.2-0.3-0.3-0.6-0.3-0.9c0-0.4,0.1-0.8,0.4-1.1c0.3-0.3,0.7-0.4,1.1-0.4C516.9,49.8,517.4,50.1,517.9,50.6"></path><path class="st0" d="M522,49.8c0.9,0,1.6,0.3,2.2,1c0.5,0.6,0.8,1.3,0.8,2.1c0,0.8-0.3,1.5-0.8,2.1c-0.6,0.6-1.3,0.9-2.2,0.9 c-0.9,0-1.6-0.3-2.2-0.9c-0.6-0.6-0.8-1.3-0.8-2.1c0-0.8,0.3-1.5,0.8-2.1C520.3,50.1,521.1,49.8,522,49.8 M521.9,50.5 c-0.6,0-1.1,0.2-1.6,0.7c-0.4,0.5-0.7,1-0.7,1.7c0,0.4,0.1,0.8,0.3,1.2c0.2,0.4,0.5,0.6,0.8,0.8c0.3,0.2,0.7,0.3,1.1,0.3 c0.4,0,0.8-0.1,1.1-0.3c0.3-0.2,0.6-0.5,0.8-0.8c0.2-0.4,0.3-0.7,0.3-1.2c0-0.6-0.2-1.2-0.7-1.7C523.1,50.7,522.6,50.5,521.9,50.5"></path><polygon class="st0" points="526.2,47.7 526.9,47.7 526.9,55.7 526.2,55.7 526.2,47.7"></polygon><path class="st0" d="M528.4,49.9h0.7v2.7c0,0.7,0,1.1,0.1,1.4c0.1,0.4,0.3,0.6,0.6,0.8c0.3,0.2,0.7,0.3,1.1,0.3 c0.4,0,0.8-0.1,1-0.3c0.3-0.2,0.5-0.5,0.6-0.8c0.1-0.2,0.1-0.7,0.1-1.4v-2.7h0.8v2.8c0,0.8-0.1,1.4-0.3,1.8 c-0.2,0.4-0.5,0.7-0.8,0.9c-0.4,0.2-0.8,0.3-1.4,0.3s-1-0.1-1.4-0.3c-0.4-0.2-0.7-0.5-0.8-1c-0.2-0.4-0.3-1-0.3-1.8V49.9 L528.4,49.9z"></path><polygon class="st0" points="535.7,47.8 536.4,47.8 536.4,49.9 537.6,49.9 537.6,50.6 536.4,50.6 536.4,55.7 535.7,55.7 535.7,50.6 534.7,50.6 534.7,49.9 535.7,49.9 535.7,47.8"></polygon><path class="st0" d="M539,47.6c0.2,0,0.3,0.1,0.4,0.2c0.1,0.1,0.2,0.3,0.2,0.4c0,0.2-0.1,0.3-0.2,0.4c-0.1,0.1-0.3,0.2-0.4,0.2 c-0.2,0-0.3-0.1-0.4-0.2c-0.1-0.1-0.2-0.3-0.2-0.4c0-0.2,0.1-0.3,0.2-0.4C538.6,47.6,538.8,47.6,539,47.6 M538.6,49.9h0.7v5.8 h-0.7V49.9L538.6,49.9z"></path><path class="st0" d="M543.6,49.8c0.9,0,1.6,0.3,2.2,1c0.5,0.6,0.8,1.3,0.8,2.1c0,0.8-0.3,1.5-0.8,2.1c-0.6,0.6-1.3,0.9-2.2,0.9 c-0.9,0-1.6-0.3-2.2-0.9c-0.6-0.6-0.8-1.3-0.8-2.1c0-0.8,0.3-1.5,0.8-2.1C542,50.1,542.7,49.8,543.6,49.8 M543.6,50.5 c-0.6,0-1.1,0.2-1.6,0.7c-0.4,0.5-0.7,1-0.7,1.7c0,0.4,0.1,0.8,0.3,1.2c0.2,0.4,0.5,0.6,0.8,0.8c0.3,0.2,0.7,0.3,1.1,0.3 c0.4,0,0.8-0.1,1.1-0.3c0.3-0.2,0.6-0.5,0.8-0.8c0.2-0.4,0.3-0.7,0.3-1.2c0-0.6-0.2-1.2-0.7-1.7C544.7,50.7,544.2,50.5,543.6,50.5"></path><path class="st0" d="M547.9,49.9h0.7v1c0.3-0.4,0.6-0.7,1-0.9c0.4-0.2,0.7-0.3,1.2-0.3c0.4,0,0.8,0.1,1.1,0.3 c0.3,0.2,0.6,0.5,0.7,0.9c0.2,0.4,0.2,0.9,0.2,1.7v3h-0.7V53c0-0.7,0-1.1-0.1-1.3c-0.1-0.4-0.2-0.7-0.5-0.9 c-0.2-0.2-0.6-0.3-0.9-0.3c-0.4,0-0.8,0.1-1.2,0.4c-0.4,0.3-0.6,0.7-0.7,1.1c-0.1,0.3-0.1,0.8-0.1,1.6v2.1h-0.7V49.9L547.9,49.9z"></path><path class="st0" d="M557.4,50.6l-0.5,0.5c-0.4-0.4-0.8-0.6-1.2-0.6c-0.2,0-0.4,0.1-0.6,0.2c-0.2,0.2-0.3,0.3-0.3,0.6 c0,0.2,0.1,0.4,0.2,0.5c0.1,0.2,0.4,0.4,0.9,0.6c0.5,0.3,0.9,0.6,1.1,0.8c0.2,0.3,0.3,0.6,0.3,0.9c0,0.5-0.2,0.9-0.5,1.2 c-0.3,0.3-0.7,0.5-1.2,0.5c-0.3,0-0.6-0.1-0.9-0.2c-0.3-0.1-0.5-0.3-0.7-0.6l0.5-0.5c0.4,0.4,0.8,0.6,1.2,0.6 c0.3,0,0.5-0.1,0.8-0.3c0.2-0.2,0.3-0.4,0.3-0.7c0-0.2-0.1-0.4-0.2-0.6c-0.1-0.2-0.4-0.4-0.9-0.6c-0.5-0.3-0.9-0.5-1.1-0.8 c-0.2-0.3-0.3-0.6-0.3-0.9c0-0.4,0.1-0.8,0.4-1.1c0.3-0.3,0.7-0.4,1.1-0.4C556.3,49.8,556.9,50.1,557.4,50.6"></path><path class="st0" d="M468.6,48.9l-5.3-5.3l-5.3,5.3l-5.3-5.3l-5.3,5.3l0,0v5.3l5.3,5.3l5.3-5.3l5.3,5.3l5.3-5.3L468.6,48.9z M452.6,54.3l-4.9-4.9l4.9-4.9l4.9,4.9L452.6,54.3z M463.3,58.8l-4.9-4.9l4.9-4.9l4.9,4.9L463.3,58.8z"></path></g><g><g><g><path class="st0" d="M854.2,105.3c-1.1-1-1.4-2.3-1.4-3.5c0-0.8,0.3-2.1,1.3-3.2c0.7-0.7,1.8-1.2,3.6-1.2c0.5,0,1.1,0,1.7,0.1 c0.4,0.1,0.8,0.2,1.2,0.2c0.1,0,0.2,0.1,0.2,0.1c0,0.1,0,0.2-0.1,0.7c0,0.4,0,1,0,1.2c0,0.2,0,0.2-0.1,0.2 c-0.1,0-0.1-0.1-0.1-0.2c0-0.5-0.2-0.9-0.5-1.2c-0.4-0.3-1.3-0.7-2.3-0.7c-1.6,0-2.3,0.5-2.7,0.9c-0.9,0.8-1,1.9-1,3 c0,2.2,1.7,4.3,4.2,4.3c0.9,0,1.6-0.1,2-0.6c0.2-0.3,0.4-0.8,0.4-1c0-0.1,0-0.2,0.1-0.2c0.1,0,0.1,0.1,0.1,0.2 c0,0.1-0.1,1.1-0.3,1.5c-0.1,0.2-0.1,0.2-0.3,0.3c-0.5,0.2-1.4,0.3-2.1,0.3C856.3,106.6,855.1,106.1,854.2,105.3z"></path><path class="st0" d="M865.6,103.5c0,1.5,0,2.2,0.2,2.3c0.2,0.2,0.4,0.2,1.2,0.2c0.5,0,1,0,1.2-0.3c0.1-0.2,0.2-0.4,0.3-0.6 c0-0.1,0-0.1,0.1-0.1c0.1,0,0.1,0,0.1,0.2c0,0.1-0.1,0.7-0.2,1c-0.1,0.2-0.1,0.3-0.6,0.3c-0.7,0-1.3,0-1.7,0c-0.4,0-0.7,0-1,0 c0,0-0.2,0-0.4,0c-0.2,0-0.4,0-0.6,0c-0.1,0-0.2,0-0.2-0.1c0,0,0-0.1,0.1-0.1c0.1,0,0.2,0,0.3,0c0.2,0,0.3-0.3,0.3-0.6 c0.1-0.4,0.1-1.2,0.1-2.2v-1.8c0-1.6,0-1.9,0-2.2c0-0.3-0.1-0.5-0.4-0.6c-0.1,0-0.3,0-0.3,0c0,0-0.1,0-0.1-0.1 c0-0.1,0.1-0.1,0.2-0.1c0.5,0,1.1,0,1.2,0s0.8,0,1.1,0c0.1,0,0.2,0,0.2,0.1c0,0,0,0.1-0.1,0.1c-0.1,0-0.2,0-0.3,0 c-0.3,0.1-0.4,0.2-0.4,0.6c0,0.3,0,0.6,0,2.2V103.5z"></path><path class="st0" d="M873.9,99c0.1-0.3,0.2-0.4,0.2-0.4c0.1,0,0.1,0.1,0.2,0.4c0.2,0.4,1.8,4.6,2.4,6.2c0.4,0.9,0.7,1.1,0.9,1.1 c0.2,0.1,0.3,0.1,0.4,0.1c0.1,0,0.1,0,0.1,0.1c0,0.1-0.1,0.1-0.2,0.1c-0.2,0-0.9,0-1.6,0c-0.2,0-0.3,0-0.3-0.1 c0,0,0-0.1,0.1-0.1c0.1,0,0.1-0.1,0.1-0.3l-0.9-2.5c0,0,0-0.1-0.1-0.1h-2.2c-0.1,0-0.1,0-0.1,0.1l-0.6,1.8 c-0.1,0.3-0.1,0.5-0.1,0.7c0,0.2,0.2,0.3,0.4,0.3h0.1c0.1,0,0.1,0,0.1,0.1c0,0.1-0.1,0.1-0.2,0.1c-0.2,0-0.7,0-0.8,0 c-0.1,0-0.7,0-1.2,0c-0.1,0-0.2,0-0.2-0.1c0,0,0-0.1,0.1-0.1c0.1,0,0.2,0,0.3,0c0.5-0.1,0.7-0.4,0.9-1L873.9,99z M874.9,103 C875,103,875,103,874.9,103l-0.9-2.8c-0.1-0.2-0.1-0.2-0.2,0l-0.9,2.8c0,0.1,0,0.1,0,0.1H874.9z"></path><path class="st0" d="M880.5,106.3c-0.1-0.1-0.2-0.1-0.2-0.4c0-0.5,0-0.9,0.1-1.1c0-0.1,0-0.2,0.1-0.2c0.1,0,0.1,0,0.1,0.1 c0,0.1,0,0.2,0,0.4c0.2,0.8,0.8,1,1.5,1c1,0,1.5-0.7,1.5-1.4c0-0.7-0.3-1.1-1.2-1.8l-0.5-0.4c-1.1-0.9-1.3-1.5-1.3-2.2 c0-1.1,0.8-1.8,2.1-1.8c0.4,0,0.7,0,0.9,0.1c0.2,0,0.3,0.1,0.4,0.1s0.1,0,0.1,0.1c0,0.1,0,0.4,0,1.1c0,0.2,0,0.2-0.1,0.2 c-0.1,0-0.1-0.1-0.1-0.1c0-0.1-0.1-0.4-0.1-0.5c-0.1-0.1-0.3-0.5-1.3-0.5c-0.7,0-1.3,0.4-1.3,1.2c0,0.6,0.3,0.9,1.2,1.7l0.3,0.2 c1.2,0.9,1.5,1.6,1.5,2.4c0,0.4-0.2,1.2-0.9,1.7c-0.4,0.3-1,0.4-1.5,0.4C881.4,106.6,880.9,106.5,880.5,106.3z"></path><path class="st0" d="M887.9,106.3c-0.1-0.1-0.2-0.1-0.2-0.4c0-0.5,0-0.9,0.1-1.1c0-0.1,0-0.2,0.1-0.2c0.1,0,0.1,0,0.1,0.1 c0,0.1,0,0.2,0,0.4c0.2,0.8,0.8,1,1.5,1c1,0,1.5-0.7,1.5-1.4c0-0.7-0.3-1.1-1.2-1.8l-0.5-0.4c-1.1-0.9-1.3-1.5-1.3-2.2 c0-1.1,0.8-1.8,2.1-1.8c0.4,0,0.7,0,0.9,0.1c0.2,0,0.3,0.1,0.4,0.1s0.1,0,0.1,0.1c0,0.1,0,0.4,0,1.1c0,0.2,0,0.2-0.1,0.2 c-0.1,0-0.1-0.1-0.1-0.1c0-0.1-0.1-0.4-0.1-0.5c-0.1-0.1-0.3-0.5-1.3-0.5c-0.7,0-1.3,0.4-1.3,1.2c0,0.6,0.3,0.9,1.2,1.7l0.3,0.2 c1.2,0.9,1.5,1.6,1.5,2.4c0,0.4-0.2,1.2-0.9,1.7c-0.4,0.3-1,0.4-1.5,0.4C888.8,106.6,888.3,106.5,887.9,106.3z"></path><path class="st0" d="M896.7,103.5c0,1,0,1.8,0.1,2.2c0,0.3,0.1,0.5,0.4,0.6c0.1,0,0.4,0,0.5,0c0.1,0,0.1,0,0.1,0.1 c0,0.1-0.1,0.1-0.2,0.1c-0.6,0-1.2,0-1.3,0s-0.7,0-1,0c-0.1,0-0.2,0-0.2-0.1c0,0,0-0.1,0.1-0.1c0.1,0,0.2,0,0.3,0 c0.2,0,0.3-0.3,0.3-0.6c0.1-0.4,0.1-1.2,0.1-2.2v-1.8c0-1.6,0-1.9,0-2.2c0-0.3-0.1-0.5-0.3-0.6c-0.1,0-0.2,0-0.3,0 c0,0-0.1,0-0.1-0.1c0-0.1,0.1-0.1,0.2-0.1c0.3,0,1,0,1,0s0.7,0,1,0c0.1,0,0.2,0,0.2,0.1c0,0,0,0.1-0.1,0.1c-0.1,0-0.1,0-0.3,0 c-0.3,0.1-0.4,0.2-0.4,0.6c0,0.3,0,0.6,0,2.2V103.5z"></path><path class="st0" d="M901.8,105.5c-1-0.9-1.2-2.1-1.2-3c0-0.7,0.2-1.9,1.1-2.8c0.6-0.6,1.5-1.1,3.1-1.1c0.4,0,1,0,1.5,0.1 c0.4,0.1,0.7,0.1,1,0.2c0.1,0,0.1,0.1,0.1,0.1c0,0.1,0,0.2-0.1,0.6c0,0.3,0,0.9,0,1.1c0,0.2,0,0.2-0.1,0.2 c-0.1,0-0.1-0.1-0.1-0.2c0-0.4-0.2-0.8-0.4-1c-0.4-0.3-1.1-0.6-2-0.6c-1.4,0-2,0.4-2.3,0.7c-0.7,0.7-0.9,1.6-0.9,2.7 c0,1.9,1.5,3.7,3.7,3.7c0.8,0,1.4-0.1,1.8-0.5c0.2-0.2,0.3-0.7,0.4-0.9c0-0.1,0-0.2,0.1-0.2c0.1,0,0.1,0.1,0.1,0.2 c0,0.1-0.1,1-0.2,1.3c-0.1,0.2-0.1,0.2-0.3,0.3c-0.4,0.2-1.2,0.2-1.8,0.2C903.6,106.6,902.6,106.2,901.8,105.5z"></path><path class="st0" d="M856.6,116.5c0.7-1.6,2.2-5.6,2.5-6.5c0.1-0.2,0.1-0.3,0.1-0.4c0-0.1,0-0.2-0.2-0.3c-0.1,0-0.3,0-0.4,0 c-0.1,0-0.1,0-0.1-0.1c0-0.1,0.1-0.1,0.3-0.1c0.5,0,1,0,1.1,0c0.1,0,0.6,0,0.9,0c0.1,0,0.2,0,0.2,0.1c0,0.1,0,0.1-0.1,0.1 c-0.1,0-0.3,0-0.6,0.1c-0.2,0.1-0.3,0.3-0.6,1.1c-0.1,0.3-0.7,1.7-1.3,3.2c-0.7,1.7-1.2,3-1.5,3.5c-0.3,0.7-0.4,0.9-0.5,0.9 c-0.1,0-0.2-0.2-0.4-0.7l-2.9-7.1c-0.3-0.7-0.4-0.8-0.8-0.9c-0.2,0-0.4,0-0.4,0c-0.1,0-0.1,0-0.1-0.1c0-0.1,0.1-0.1,0.3-0.1 c0.6,0,1.2,0,1.4,0c0.1,0,0.6,0,1.1,0c0.2,0,0.3,0,0.3,0.1c0,0.1,0,0.1-0.1,0.1c-0.1,0-0.3,0-0.4,0.1c-0.1,0.1-0.2,0.2-0.2,0.2 c0,0.2,0.1,0.5,0.3,1L856.6,116.5z"></path><path class="st0" d="M864.8,110.4c0.1-0.3,0.2-0.4,0.2-0.4s0.1,0.1,0.2,0.4c0.2,0.4,1.8,4.6,2.4,6.2c0.4,0.9,0.7,1.1,0.9,1.1 c0.2,0.1,0.3,0.1,0.4,0.1c0.1,0,0.1,0,0.1,0.1c0,0.1-0.1,0.1-0.2,0.1c-0.2,0-0.9,0-1.6,0c-0.2,0-0.3,0-0.3-0.1 c0,0,0-0.1,0.1-0.1c0.1,0,0.1-0.1,0.1-0.3l-0.9-2.5c0,0,0-0.1-0.1-0.1h-2.2c-0.1,0-0.1,0-0.1,0.1l-0.6,1.8 c-0.1,0.3-0.1,0.5-0.1,0.7c0,0.2,0.2,0.3,0.4,0.3h0.1c0.1,0,0.1,0,0.1,0.1c0,0.1-0.1,0.1-0.2,0.1c-0.2,0-0.7,0-0.8,0 c-0.1,0-0.7,0-1.2,0c-0.1,0-0.2,0-0.2-0.1c0,0,0-0.1,0.1-0.1c0.1,0,0.2,0,0.3,0c0.5-0.1,0.7-0.4,0.9-1L864.8,110.4z M865.8,114.5C865.9,114.5,865.9,114.5,865.8,114.5l-0.9-2.8c-0.1-0.2-0.1-0.2-0.2,0l-0.9,2.8c0,0.1,0,0.1,0,0.1H865.8z"></path><path class="st0" d="M871.6,116.9c-1-0.9-1.2-2.1-1.2-3c0-0.7,0.2-1.9,1.1-2.8c0.6-0.6,1.5-1.1,3.1-1.1c0.4,0,1,0,1.5,0.1 c0.4,0.1,0.7,0.1,1,0.2c0.1,0,0.1,0.1,0.1,0.1c0,0.1,0,0.2-0.1,0.6c0,0.3,0,0.9,0,1.1c0,0.2,0,0.2-0.1,0.2 c-0.1,0-0.1-0.1-0.1-0.2c0-0.4-0.2-0.8-0.4-1c-0.4-0.3-1.1-0.6-2-0.6c-1.4,0-2,0.4-2.3,0.7c-0.7,0.7-0.9,1.6-0.9,2.7 c0,1.9,1.5,3.7,3.7,3.7c0.8,0,1.4-0.1,1.8-0.5c0.2-0.2,0.3-0.7,0.4-0.9c0-0.1,0-0.2,0.1-0.2c0.1,0,0.1,0.1,0.1,0.2 c0,0.1-0.1,1-0.2,1.3c-0.1,0.2-0.1,0.2-0.3,0.3c-0.4,0.2-1.2,0.2-1.8,0.2C873.5,118,872.4,117.6,871.6,116.9z"></path><path class="st0" d="M882.8,110.4c0.1-0.3,0.2-0.4,0.2-0.4c0.1,0,0.1,0.1,0.2,0.4c0.2,0.4,1.8,4.6,2.4,6.2 c0.4,0.9,0.7,1.1,0.9,1.1c0.2,0.1,0.3,0.1,0.4,0.1c0.1,0,0.1,0,0.1,0.1c0,0.1-0.1,0.1-0.2,0.1c-0.2,0-0.9,0-1.6,0 c-0.2,0-0.3,0-0.3-0.1c0,0,0-0.1,0.1-0.1c0.1,0,0.1-0.1,0.1-0.3l-0.9-2.5c0,0,0-0.1-0.1-0.1h-2.2c-0.1,0-0.1,0-0.1,0.1l-0.6,1.8 c-0.1,0.3-0.1,0.5-0.1,0.7c0,0.2,0.2,0.3,0.4,0.3h0.1c0.1,0,0.1,0,0.1,0.1c0,0.1-0.1,0.1-0.2,0.1c-0.2,0-0.7,0-0.8,0 c-0.1,0-0.7,0-1.2,0c-0.1,0-0.2,0-0.2-0.1c0,0,0-0.1,0.1-0.1c0.1,0,0.2,0,0.3,0c0.5-0.1,0.7-0.4,0.9-1L882.8,110.4z M883.8,114.5C883.9,114.5,883.9,114.5,883.8,114.5l-0.9-2.8c-0.1-0.2-0.1-0.2-0.2,0l-0.9,2.8c0,0.1,0,0.1,0,0.1H883.8z"></path><path class="st0" d="M891.4,114.9c0,1,0,1.8,0.1,2.2c0,0.3,0.1,0.5,0.4,0.6c0.1,0,0.4,0,0.5,0c0.1,0,0.1,0,0.1,0.1 c0,0.1-0.1,0.1-0.2,0.1c-0.6,0-1.2,0-1.3,0s-0.7,0-1,0c-0.1,0-0.2,0-0.2-0.1c0,0,0-0.1,0.1-0.1c0.1,0,0.2,0,0.3,0 c0.2,0,0.3-0.3,0.3-0.6c0.1-0.4,0.1-1.2,0.1-2.2v-4.3l-1.5,0c-0.6,0-0.9,0.1-1,0.3c-0.1,0.2-0.1,0.2-0.2,0.3 c0,0.1-0.1,0.1-0.1,0.1c0,0-0.1,0-0.1-0.1c0-0.1,0.2-1,0.2-1.1c0-0.1,0.1-0.2,0.1-0.2c0.1,0,0.2,0.1,0.4,0.1 c0.3,0,0.7,0.1,0.8,0.1h3.8c0.3,0,0.6,0,0.7-0.1c0.2,0,0.2-0.1,0.3-0.1c0.1,0,0.1,0.1,0.1,0.1c0,0.3,0,1,0,1.1 c0,0.1,0,0.1-0.1,0.1c-0.1,0-0.1,0-0.1-0.2l0-0.1c0-0.3-0.3-0.5-1.3-0.6l-1.3,0V114.9z"></path><path class="st0" d="M898.7,114.9c0,1,0,1.8,0.1,2.2c0,0.3,0.1,0.5,0.4,0.6c0.1,0,0.4,0,0.5,0c0.1,0,0.1,0,0.1,0.1 c0,0.1-0.1,0.1-0.2,0.1c-0.6,0-1.2,0-1.3,0s-0.7,0-1,0c-0.1,0-0.2,0-0.2-0.1c0,0,0-0.1,0.1-0.1c0.1,0,0.2,0,0.3,0 c0.2,0,0.3-0.3,0.3-0.6c0.1-0.4,0.1-1.2,0.1-2.2v-1.8c0-1.6,0-1.9,0-2.2c0-0.3-0.1-0.5-0.3-0.6c-0.1,0-0.2,0-0.3,0 c0,0-0.1,0-0.1-0.1c0-0.1,0.1-0.1,0.2-0.1c0.3,0,1,0,1,0s0.7,0,1,0c0.1,0,0.2,0,0.2,0.1c0,0,0,0.1-0.1,0.1c-0.1,0-0.1,0-0.3,0 c-0.3,0.1-0.4,0.2-0.4,0.6c0,0.3,0,0.6,0,2.2V114.9z"></path><path class="st0" d="M906.5,110c2.3,0,4,1.4,4,3.8c0,2.3-1.6,4.2-4.1,4.2c-2.8,0-4-2.2-4-4C902.4,112.4,903.6,110,906.5,110z M906.7,117.6c0.9,0,2.8-0.5,2.8-3.5c0-2.4-1.5-3.8-3.1-3.8c-1.7,0-3,1.1-3,3.4C903.4,116.1,904.8,117.6,906.7,117.6z"></path><path class="st0" d="M914.4,116.5c0,0.8,0.1,1.1,0.4,1.2c0.2,0.1,0.4,0.1,0.5,0.1c0.1,0,0.1,0,0.1,0.1c0,0.1-0.1,0.1-0.2,0.1 c-0.6,0-1,0-1.1,0c-0.1,0-0.5,0-1,0c-0.1,0-0.2,0-0.2-0.1c0,0,0-0.1,0.1-0.1c0.1,0,0.3,0,0.4-0.1c0.3-0.1,0.3-0.4,0.3-1.3l0-5.8 c0-0.4,0-0.5,0.1-0.5s0.3,0.2,0.4,0.3c0.2,0.2,1.7,1.8,3.2,3.5c1,1.1,2.1,2.3,2.4,2.7l-0.1-5.2c0-0.7-0.1-0.9-0.4-1 c-0.2,0-0.4-0.1-0.5-0.1c-0.1,0-0.1,0-0.1-0.1c0-0.1,0.1-0.1,0.2-0.1c0.5,0,0.9,0,1.1,0s0.4,0,0.9,0c0.1,0,0.2,0,0.2,0.1 c0,0,0,0.1-0.1,0.1c-0.1,0-0.1,0-0.2,0c-0.3,0.1-0.4,0.3-0.4,0.9l0,6c0,0.7,0,0.7-0.1,0.7c-0.1,0-0.2-0.1-0.7-0.7 c-0.1-0.1-1.6-1.6-2.7-2.8c-1.2-1.3-2.3-2.6-2.7-2.9L914.4,116.5z"></path><path class="st0" d="M924.7,117.7c-0.1-0.1-0.2-0.1-0.2-0.4c0-0.5,0-0.9,0.1-1.1c0-0.1,0-0.2,0.1-0.2c0.1,0,0.1,0,0.1,0.1 c0,0.1,0,0.2,0,0.4c0.2,0.8,0.8,1,1.5,1c1,0,1.5-0.7,1.5-1.4c0-0.7-0.3-1.1-1.2-1.8l-0.5-0.4c-1.1-0.9-1.3-1.5-1.3-2.2 c0-1.1,0.8-1.8,2.1-1.8c0.4,0,0.7,0,0.9,0.1c0.2,0,0.3,0.1,0.4,0.1c0.1,0,0.1,0,0.1,0.1c0,0.1,0,0.4,0,1.1c0,0.2,0,0.2-0.1,0.2 c-0.1,0-0.1-0.1-0.1-0.1c0-0.1-0.1-0.4-0.1-0.5c-0.1-0.1-0.3-0.5-1.3-0.5c-0.7,0-1.3,0.4-1.3,1.2c0,0.6,0.3,0.9,1.2,1.7l0.3,0.2 c1.2,0.9,1.5,1.6,1.5,2.4c0,0.4-0.2,1.2-0.9,1.7c-0.4,0.3-1,0.4-1.5,0.4C925.6,118,925.1,117.9,924.7,117.7z"></path></g><path class="st0" d="M930.3,110.3H930v-0.1h0.7v0.1h-0.3v0.7h-0.1V110.3z M930.8,110.2h0.2l0.3,0.7l0.3-0.7h0.2v0.8h-0.1v-0.7h0 l-0.3,0.7h-0.1l-0.3-0.7h0v0.7h-0.1V110.2z"></path></g><path class="st0" d="M847.7,107.5c-0.2,0-1.3,0.4-2.8,0.8c-0.4,0.1-1,0.2-1.5,0.3v-3.9c0.2-0.2,0.4-0.4,0.6-0.7 c0.5-0.7,0.8-1.4,1-1.8c0,0,0-0.1,0-0.1c0,0,0-0.1,0-0.1c0.1-0.2,0.3-0.6,0.5-1c0.1-0.2,0.2-0.4,0.2-0.5c0-0.1,0-0.2,0-0.2 c0,0-0.1,0-0.2,0.2c-0.1,0.3-0.7,0.9-1.1,1.3c-0.2,0.2-0.5,0.4-0.8,0.5c-0.1,0-0.2,0.1-0.3,0.1V98c0-0.5-0.1-1.1-0.3-1.6 c0.1-0.1,0.1-0.3,0.1-0.3c0.2-0.5,0.2-0.5,0.3-0.8c0.3-0.8,0.4-1.4,0.5-1.8c0.1-0.4,0.3-0.6,0.1-0.5c-0.1,0.1-0.2,0-0.5,0.6 c-0.3,0.5-0.6,1.1-1,1.8c-0.8-1.3-2.3-2.2-4-2.2h-8.5c-0.2-0.3-0.4-0.6-0.6-0.9c-0.3-0.5-1.1-1.5-1.1-1.6 c-0.1-0.1-0.1-0.2-0.2-0.2c-0.2-0.2-0.3-0.4-0.5-0.6c-0.2-0.2-0.3-0.3-0.4-0.4c-0.1,0-0.1,0-0.1,0c0,0,0,0.1,0,0.2 c0.1,0.2,0.4,0.6,0.5,0.9c0.1,0.2,0.7,1.2,1.2,2.6h-8c-2.6,0-4.7,2.1-4.7,4.7v0.8c-0.7-0.3-1.3-0.8-1.5-0.9 c-0.1-0.1-0.1-0.1-0.2-0.1c0,0,0,0.1,0.1,0.2c0,0,0,0,0,0c0,0.1,0.1,0.1,0.1,0.2c0.1,0.1,0.1,0.3,0.2,0.4c0.1,0.2,0.2,0.3,0.4,0.5 c0,0,0,0,0.1,0.1c0.3,0.4,0.4,0.6,0.8,0.9v5.8c-0.8,0-1.6-0.1-1.7-0.1c-0.1,0-0.3-0.2-0.3-0.2c0,0,0,0,0.1,0.1 c0,0,0.1,0.1,0.1,0.1c0,0,0.1,0.1,0.1,0.2c0.1,0.1,0.2,0.1,0.3,0.2c0.2,0.1,0.4,0.3,0.6,0.4c0.1,0,0.1,0.1,0.2,0.1 c0.1,0.1,0.3,0.1,0.4,0.2c0,0,0,0,0,0v10.2c0,2.6,2.1,4.7,4.7,4.7h17.6c2.6,0,4.7-2.1,4.7-4.7v-6.8c0.3-0.2,0.7-0.4,1.1-0.6 c0.3-0.2,0.6-0.4,0.9-0.6c0.1-0.1,0.3-0.2,0.4-0.2c0.4-0.2,0.8-0.5,1.1-0.7c0.3-0.2,0.6-0.4,0.6-0.4c0,0,0.1-0.1,0.1-0.1 c0,0,0,0,0.1-0.1C847.8,107.6,847.8,107.5,847.7,107.5C847.8,107.5,847.8,107.5,847.7,107.5z M821.1,94h8.3 c0.2,0.5,0.3,0.9,0.4,1.4c0.1,0.3,0.2,0.6,0.2,0.9c0.4,1.5,0.5,1.8,0.5,2.7c0,0.9,0.1,1.8,0.1,2.6c0,0.2-0.1,0.4-0.1,0.6 c-0.2,0.7-0.5,1.6-0.6,2.3c0,0.2,0,0.4,0,0.5c0.1,0.5,0.4,0.9,0.6,1.3c0.1,0.2,0.2,0.4,0.2,0.5c0,0,0,0.1,0,0.1 c0.1,0.3,0.2,0.8,0.2,1.2c0,0.3,0,0.6,0,0.8c0,0.1,0,0.1,0,0.2c0,0.1,0,0.1,0.1,0.1c0,0,0.1,0,0.1-0.1c0,0,0.1-0.1,0.1-0.1 c0.1,0,0.1-0.1,0.2-0.2c0,0,0.4-0.4,0.5-0.5c0.1-0.1,0.1-0.2,0.2-0.3c0.3-0.4,0.7-0.9,0.9-1.6c0-0.1,0.1-0.3,0.1-0.4 c0.1-0.6,0.2-1.1,0.3-1.7c0.1-0.6,0.1-1.1,0-1.7c0-0.1,0-0.1,0-0.2c0-0.2,0-0.4-0.1-0.5c-0.2-1.1-0.4-2.4-0.7-3.2 c-0.1-0.3-0.3-0.8-0.5-1.2c-0.3-0.8-0.7-1.6-1-2.2c-0.1-0.3-0.4-0.7-0.7-1.2h8c1.6,0,2.9,0.9,3.5,2.2c-0.1,0.3-0.3,0.5-0.5,0.8 c-0.1,0.2-0.3,0.4-0.4,0.6c-0.2,0.4-0.5,0.7-0.8,1c-0.1,0.2-0.3,0.3-0.4,0.4c-0.5,0.5-1.1,0.9-1.5,1.2c-0.2,0.1-0.4,0.2-0.5,0.3 c-0.3,0.2-0.5,0.4-0.7,0.8c-0.3,0.6-0.9,1.6-1,1.8c0,0,0,0,0,0c0,0,0,0.1,0,0.1c0,0.1,0,0.2,0.1,0.2c0.1,0.1,0.4,0.1,0.4,0.1 c0,0,0,0,0,0c0.2-0.1,1.1-0.9,1.1-1c0,0,0.7-0.4-0.2,1c-0.1,0.2-0.3-0.2-0.4,0.3c-0.1,0.6,0,0.8-0.1,1c-0.5,0.9-0.6-0.2-0.7-0.5 c-0.1-0.2-0.3-0.4-0.4-0.5c-0.1,0-0.2,0.1-0.2,0.2c-0.1,0.2-0.3,0.9-0.4,1.5c0,0.2,0,0.3,0,0.4c0,0.5-0.3,1.1-0.7,1.5 c-0.4,0.3-0.7,0.5-1,0.7c0,0-0.1,0-0.1,0.1c-0.3,0.1-0.6,0.3-0.6,0.4c-0.1,0.1-0.1,0.1,0,0.2c0,0,0.1,0,0.1,0 c0.3,0,0.8-0.1,1.3-0.4c0.1,0,0.2-0.1,0.2-0.1c0.3-0.1,0.6-0.2,0.9-0.5c0.1-0.1,0.2-0.2,0.4-0.3c0.1-0.1,0.3-0.3,0.4-0.5 c0.5-0.6,1.1-1.5,1.7-2.5c0.3-0.4,0.6-0.8,0.9-1.3c0.1-0.2,0.3-0.4,0.4-0.6c0.2-0.4,0.5-0.7,0.7-1c0.8-1.1,1.4-2,1.9-2.9 c0.2-0.4,0.4-0.8,0.6-1.3c0,0.1,0,0.2,0,0.4v4.9c-0.1,0-0.1,0-0.2,0.1c-0.4,0.2-0.8,0.4-1.2,0.7c-0.4,0.3-0.9,0.6-1.2,0.9 c0,0-0.1,0-0.1,0.1c-0.2,0.1-0.3,0.3-0.5,0.5c-0.2,0.2-0.4,0.4-0.6,0.6c-0.6,0.7-0.9,1-0.9,1.1c-0.3,0.4,0.3-0.4,0,0 c-0.2,0.2-0.3,0.4-0.5,0.6c-0.4,0.4-0.7,0.9-0.8,1c0,0.1-0.1,0.1,0,0.1c0,0,0.1,0,0.2,0c0.1,0,0.3-0.1,0.9-0.2c0.1,0,0.1,0,0.2,0 c0.3-0.1,0.7-0.2,1.2-0.5c0.1-0.1,0.3-0.1,0.5-0.2c0.2-0.1,0.5-0.3,0.8-0.4c0.1,0,0.1-0.1,0.2-0.1c1.1-0.6,1.6-1.1,2.1-1.6v3.3 c-1,0.1-2.1,0.2-3.1,0.3c-0.5,0-0.3,0-0.8,0c-0.1,0-0.3,0-0.5,0c-0.3,0-0.8,0-0.9,0c-0.4,0-0.8,0.1-1.2,0.1c-0.3,0-0.6,0.1-1,0.1 c-0.1,0-0.2,0-0.3,0c-0.3,0-0.6,0.1-1,0.1c-0.4,0-0.8,0.1-1.2,0.2c-0.8,0.1-1.6,0.3-2.4,0.5c0.2-0.5,0.2-0.9,0.2-1.2 c0-0.2,0-0.4,0-0.7c0-0.2,0-0.3-0.1-0.5c0-0.1,0-0.2-0.1-0.3c0-0.1-0.1-0.2-0.2-0.3c-0.2-0.4-0.6-0.8-1-1.3 c-0.4-0.4-0.7-0.7-1.1-0.9c-0.4-0.2-0.9-0.3-1.5-0.5c-0.1,0-0.1,0-0.2,0c-0.8-0.1-1.5-0.1-2.2,0c-0.3,0-0.6,0.1-0.9,0.2 c-0.3,0.1-0.6,0.2-0.9,0.3c-0.5,0.2-1.1,0.4-1.6,0.5c-0.2,0.1-0.4,0.1-0.6,0.2c-0.2,0.1-0.4,0.1-0.7,0.1c-0.6,0.1-1.2,0.1-1.7,0.2 c-0.2,0-0.4,0-0.5,0c0,0,0,0-0.1,0v-5.2c0.1,0.1,0.3,0.2,0.4,0.2c0.3,0.2,0.6,0.3,0.8,0.4c0.1,0,0.1,0.1,0.2,0.1 c0.1,0,0.2,0.1,0.2,0.1c0.2,0.1,1.5,0.5,1.7,0.5c0.9,0.3,1.3,0.5,2.3,0.9c0.5,0.2,0.4,0.1,0.8,0.4c0.1,0.1,0.3,0.1,0.4,0.2 c0.2,0.1,0.3,0.2,0.3,0.2s0.7,0,1.4,0c0.4,0,1.3,0.2,1.6,0.3c0,0,0.1,0,0.1,0c0.5,0.2,0.7,0.3,1,0.5c0.5,0.3,1.2,0.9,1.2,1.1 c0.1,0.1,0-0.1-0.2-0.5c-0.1-0.1-0.2-0.5-0.3-0.7c-0.1-0.3-0.1-0.4-0.3-0.8c-0.2-0.4-0.5-0.7-0.7-1c-0.2-0.2-0.4-0.4-0.6-0.6 c-0.2-0.2-0.5-0.4-0.7-0.6c-0.2-0.1-0.4-0.3-0.6-0.4c-0.2-0.1-0.4-0.2-0.7-0.3c-0.2-0.1-0.4-0.2-0.6-0.2c-0.3-0.1-0.3-0.1-0.7-0.2 c-0.6-0.1-0.6-0.1-1.1-0.2c-0.3,0-0.5-0.1-0.8-0.1c-0.4,0-0.8-0.1-1.2-0.1c-0.4-0.1-0.8-0.1-1.2-0.2c-0.7-0.1-1.2-0.2-1.8-0.4 c-0.1,0-0.3-0.1-0.6-0.2c-0.1,0-0.2-0.1-0.4-0.1V98C817.1,95.8,818.9,94,821.1,94z M817.1,117.2v-9.9c0.3,0.1,0.5,0.2,0.8,0.3 c0.6,0.1,1.3,0.2,2.2,0.2c0.7,0,1.4,0,2.1-0.1c0.2,0,0.4,0,0.5,0c0.3,0,0.6-0.1,0.9-0.1c0.7-0.1,1.1-0.1,1.6-0.1 c0.7,0,0.8-0.1,1.2-0.1c0.4,0,0.7,0,1,0c0.5,0,1,0.2,1.6,0.4c0.3,0.1,0.5,0.2,0.5,0.3c0.2,0.3-0.1,0.7-0.3,1.3 c-0.1,0.2-0.2,0.4-0.2,0.5c-0.2,0.3-0.4,0.6-0.6,0.8c-0.4,0.1-0.8,0.3-1.1,0.4c-0.3,0.1-0.5,0.2-0.8,0.3c-0.1,0.1-0.2,0.1-0.4,0.2 c-0.6,0.3-1.3,0.7-1.9,1.2c-0.2,0.1-0.3,0.3-0.5,0.4c-0.1,0.1-0.1,0.1-0.2,0.2c-0.1,0.1-0.3,0.3-0.4,0.4c0,0-0.1,0.1-0.1,0.1 c-0.1,0.1-0.2,0.2-0.3,0.3c-0.4,0.4-0.7,0.9-1,1.4c-0.2,0.5-0.4,0.9-0.6,1.5c-0.1,0.2-0.1,0.3-0.2,0.5c-0.1,0.4-0.2,0.9-0.4,1.4 c-0.1,0.3-0.1,0.7-0.2,1c-0.2,0.8-0.2,0.9-0.4,1.3C818.4,120.5,817.1,119,817.1,117.2z M838.7,121.1h-14.1c0-0.5-0.1-0.6-0.1-1.2 c0-0.6,0.1-0.8,0.3-1.5c0.1-0.3,0.2-0.5,0.3-0.8c0.1-0.3,0.3-0.5,0.4-0.7c0.2-0.2,0.5-0.3,1-0.3c0.1,0,0.3,0,0.5,0 c0.1,0,0.1,0,0.2,0c0.4,0,0.6,0,0.9-0.1c0.3,0,0.7-0.1,1.3-0.2c0.1,0,0.2-0.1,0.4-0.1c0.1,0,0.1,0,0.2,0c0.1,0,0.2-0.1,0.3-0.1 c1.5-0.4,3.3-1.1,4.8-1.8c1.7-0.8,3-1.2,4.2-1.8c0.7-0.3,1.5-0.7,2.4-1.2c0.4-0.2,0.7-0.4,1.1-0.6v6.3 C842.6,119.3,840.9,121.1,838.7,121.1z"></path></g></g></svg>