<?xml version="1.0" encoding="utf-8"?>
<!-- Generator: Adobe Illustrator 19.0.0, SVG Export Plug-In . SVG Version: 6.00 Build 0)  -->
<svg version="1.1" id="Layer_1" xmlns:sketch="http://www.bohemiancoding.com/sketch/ns"
	 xmlns="http://www.w3.org/2000/svg" xmlns:xlink="http://www.w3.org/1999/xlink" x="0px" y="0px" viewBox="278 143 1648 508"
	 style="enable-background:new 278 143 1648 508;" xml:space="preserve">
<style type="text/css">
	.st0{fill:#FFFFFF;}
	.st1{fill:#FECB2F;}
</style>
<title>Artboard 1</title>
<desc>Created with Sketch.</desc>
<g id="Page-1" sketch:type="MSPage">
	<g id="Artboard-1" sketch:type="MSArtboardGroup">
		<g id="EPC-Logo" transform="translate(-25.000000, -90.000000)" sketch:type="MSLayerGroup">
			<g id="Dark">
			</g>
			<path id="PartnerCentral" sketch:type="MSShapeGroup" class="st0" d="M1322.2,481.8h15.9v94h-15.9V481.8z M1303.6,564.5
				c0,4.7,0.3,9.3,1.3,11.3h-16.3c-0.5-2.3-0.9-4.7-0.9-7c-6.7,3.9-16.5,9.3-30.1,9.3c-9.1,0-26.7-3.9-26.7-21
				c0-23.4,34.6-26.8,56.8-28.1V526c0-5.3-4.8-9.1-17.8-9.1c-14.6,0-17.7,5.4-18.6,9.2h-16.5c3.8-18.9,22.2-22.1,35-22.1
				c33.2,0,33.9,16.3,33.9,25.9V564.5z M1287.7,540.8c-9.2,0.4-17.3,1.7-24.8,3.5c-9.9,2.3-14.5,5.7-14.6,11.8
				c-0.1,5.9,3.7,9.7,11.5,9.7c12.1,0,21.7-5.3,27.8-9.1V540.8z M1178.5,506.4h15.9v10.3h0.4c3.5-5.7,10.4-12.7,24.1-12.7
				c2.3,0,4,0,5.6,0.3v17.3c-1.5-0.4-4.5-1.3-9.7-1.3c-20.3,0.1-20.3,13.7-20.4,18.6v36.9h-15.9V506.4 M1114.1,508.7h12.3V486h15.9
				v22.6h24v13.7h-24v31.8c0,4.9,1.9,10.2,11.2,10.2c3.1,0,9.5-0.8,13.6-1.9v14.1c-7.8,1-11.5,1.6-17.2,1.6
				c-15.1,0-23.5-4.9-23.5-20.2v-35.6h-12.3V508.7 M1036,506.4h15.6v8.7c5-4.9,11.8-11,25.8-11c14.4,0,26.9,6.1,26.9,27.3v44.5
				h-15.9v-38.5c0-13.7-4.1-19.5-14.7-19.5c-12.7,0-17.8,5.3-21.8,10.2v47.9H1036V506.4 M1021.7,555c-1.2,5.7-10.4,23.1-35.9,23.1
				c-24.6,0-39.4-15.5-39.4-37.2c0-19.7,12.8-36.9,38.2-36.9c25.9,0.3,38.3,16.4,38.3,41.5h-60.4c0.6,4.4,3.1,18.9,22.7,19.7
				c10,0,16.7-4.8,19-10.2H1021.7z M1006,533.1c-2.4-11.8-10.4-16.2-21.8-16.2c-8.3,0-18,2.8-21.2,16.2H1006z M936.9,542.3
				c-1.8,10.5-9.2,35.8-52.1,35.8c-29.5,0-52.7-16.6-52.7-50.8c0-27.4,17.1-47.8,54.1-47.8c41.7,0,47.8,27.3,49.2,32.3h-18.2
				c-1-3.2-8.2-16.6-30-16.6c-25.8,0-36.5,14.6-36.5,34.1c0,21.6,15.5,33,35.5,33c21.3,0,30.6-12.8,32.4-20H936.9 M779.6,506.4h15.9
				v10.3h0.4c3.5-5.7,10.4-12.7,24.1-12.7c2.3,0,4,0,5.6,0.3v17.3c-1.5-0.4-4.5-1.3-9.7-1.3c-20.3,0.1-20.3,13.7-20.4,18.6v36.9
				h-15.9V506.4 M768.4,555c-1.2,5.7-10.4,23.1-35.9,23.1c-24.6,0-39.4-15.5-39.4-37.2c0-19.7,12.8-36.9,38.2-36.9
				c25.9,0.3,38.3,16.4,38.3,41.5h-60.4c0.6,4.4,3.1,18.9,22.7,19.7c10,0,16.7-4.8,19-10.2H768.4z M752.8,533.1
				c-2.4-11.8-10.4-16.2-21.8-16.2c-8.3,0-18,2.8-21.2,16.2H752.8z M614.9,506.4h15.6v8.7c5-4.9,11.8-11,25.8-11
				c14.4,0,26.9,6.1,26.9,27.3v44.5h-15.9v-38.5c0-13.7-4.1-19.5-14.8-19.5c-12.7,0-17.8,5.3-21.8,10.2v47.9h-15.9V506.4
				 M550.6,508.7h12.3V486h15.9v22.6h24v13.7h-24v31.8c0,4.9,1.9,10.2,11.2,10.2c3.1,0,9.5-0.8,13.6-1.9v14.1
				c-7.8,1-11.5,1.6-17.2,1.6c-15.1,0-23.5-4.9-23.5-20.2v-35.6h-12.3V508.7 M499.1,506.4H515v10.3h0.4c3.5-5.7,10.4-12.7,24.1-12.7
				c2.3,0,4,0,5.6,0.3v17.3c-1.5-0.4-4.5-1.3-9.7-1.3c-20.3,0.1-20.3,13.7-20.4,18.6v36.9h-15.9V506.4 M485,564.5
				c0,4.7,0.3,9.3,1.3,11.3H470c-0.5-2.3-0.9-4.7-0.9-7c-6.7,3.9-16.5,9.3-30.1,9.3c-9.1,0-26.7-3.9-26.7-21
				c0-23.4,34.6-26.8,56.8-28.1V526c0-5.3-4.7-9.1-17.8-9.1c-14.6,0-17.7,5.4-18.6,9.2h-16.5c3.8-18.9,22.2-22.1,35-22.1
				c33.2,0,33.9,16.3,33.9,25.9V564.5z M469.1,540.8c-9.2,0.4-17.3,1.7-24.7,3.5c-9.9,2.3-14.5,5.7-14.6,11.8
				c-0.1,5.9,3.7,9.7,11.5,9.7c12.1,0,21.7-5.3,27.8-9.1V540.8z M315.6,481.8h51.9c15.8,0,41.7,0,41.7,28.8
				c0,28.7-25.9,28.7-41.7,28.7h-33.7v36.5h-18.2V481.8z M371.6,523.6c10.4,0,19.5-0.9,19.5-13.1c0-12-9.1-12.9-19.5-12.9h-37.7v26
				H371.6z"/>
			<path id="expedia_xAE_" sketch:type="MSShapeGroup" class="st1" d="M812.3,419.9c7.9,0,14.3,6.4,14.3,14.3
				c0,7.9-6.4,14.4-14.3,14.4c-7.9,0-14.2-6.4-14.2-14.4C798.1,426.3,804.4,419.9,812.3,419.9z M812.3,446.3c6.6,0,12-5.4,12-12.1
				c0-6.7-5.4-12.1-12-12.1c-6.6,0-12,5.4-12,12.1C800.3,440.9,805.7,446.3,812.3,446.3z M812.2,435.1h-3.1v7.6h-2.2v-17.1h6.7
				c3.8,0,5.5,1.7,5.5,4.7c0,3-2,4.4-4.3,4.7l5.1,7.6h-2.8L812.2,435.1z M809.1,433.1h3.7c2.2,0,4-0.3,4-2.7c0-2.4-2-2.7-4-2.7h-3.7
				V433.1z M787.9,462c0,2.8,0.4,4.9,0.8,7.4h-7.4c-0.4-1.5-0.9-3.8-0.9-5.8c-6.9,4.5-14.6,7.2-23.7,7.2c-7.8,0-19.3-2.2-19.3-14.6
				c0-16.6,24.6-17.2,43.1-19.4v-1.8c0-6.5-7.7-9-15.3-9c-12.6,0-17.1,5.3-19.4,8.1l-5.5-3.8c2.7-3.4,7.9-10.3,24.4-10.3
				c10.8,0,23.2,3.2,23.2,15.5V462z M780.6,443c-21.6,2.1-36.1,4.1-36.1,13.4c0,7.5,8.4,8.5,12,8.5c10.3,0,19.4-4.9,24.2-7.5V443z
				 M720.8,421.5h7.4v47.9h-7.4V421.5z M720.2,402.9h8.4v8.5h-8.4V402.9z M707.5,402.9v57.6c0,1.3,0.5,7.5,0.5,9h-6.6l-0.9-7.5
				c-7.2,5.9-12,9-22.9,9c-18.3,0-26-14.1-26-25c0-11.1,6.9-25.8,27.2-25.8c9.8,0,14.7,3.2,21.3,8.1v-25.3H707.5z M700.1,435.8
				c-4.4-4.6-10.5-9.4-20.8-9.4c-9.8,0-20.3,5.1-20.3,19.7c0,9.9,7.6,18.5,20.5,18.5c7.9,0,16.1-5.2,20.6-10.2V435.8z M643.7,459.5
				c-4.9,5.2-9.6,11.4-25.8,11.4c-16,0-26.9-11-26.9-25.6c0-15.2,11.4-25.2,26-25.2c15.2,0,28.4,8,28.1,26.9h-46.7
				c0.7,9,7.9,17.6,20.3,17.6c12.3,0,16.3-5.6,19.3-9.3L643.7,459.5z M637.1,440.7c-1.5-7.9-8.2-14.3-19.4-14.3
				c-10.8,0-16.9,5.5-19,14.3H637.1z M529.3,421.5h7.4v7.2c6.8-5.6,11.6-8.7,22.5-8.7c18.3,0,26,14.1,26,25
				c0,11.1-6.9,25.8-27.2,25.8c-9.8,0-14.7-3.2-21.3-8.1v23.4h-7.4V421.5z M536.7,455.2c4.4,4.6,10.5,9.4,20.8,9.4
				c9.8,0,20.3-5.1,20.3-19.7c0-9.9-7.6-18.5-20.5-18.5c-7.9,0-16.1,5.2-20.6,10.2V455.2z M489.9,444.3l-21.1-22.7h9.4l16.6,17.8
				l16.1-17.8h9.4l-21.1,22.7l23.3,25.2H513l-18.1-20.3l-18.3,20.3h-9.6L489.9,444.3 M465.7,459.5c-4.9,5.2-9.6,11.4-25.8,11.4
				c-16,0-26.9-11-26.9-25.6c0-15.2,11.4-25.2,26-25.2c15.2,0,28.4,8,28.1,26.9h-46.7c0.7,9,7.9,17.6,20.3,17.6
				c12.3,0,16.3-5.6,19.3-9.3L465.7,459.5z M459,440.7c-1.5-7.9-8.2-14.3-19.4-14.3c-10.8,0-16.9,5.5-19,14.3H459z"/>
			<g>
				<polygon class="st1" points="1553,571.4 1552.8,571.4 1529.2,511.6 1529.1,511.5 1523.3,511.5 1549.8,577.1 1549.8,577.2 
					1555.9,577.2 1580.6,511.6 1580.7,511.5 1575.1,511.5 				"/>
				<path class="st1" d="M1513.6,519.5c-2.4-2.9-5.4-5.3-8.9-7c-3.5-1.7-7.6-2.6-12.2-2.6c-5,0-9.4,1-13.1,2.9
					c-3.7,1.9-6.8,4.5-9.3,7.7c-2.5,3.2-4.3,6.9-5.6,11.1c-1.2,4.2-1.9,8.6-1.9,13.2c0,4.7,0.6,9.2,1.8,13.3c1.2,4.1,3,7.7,5.4,10.7
					c2.4,3,5.5,5.4,9.1,7.2c3.6,1.7,7.9,2.6,12.7,2.6c7.9,0,14.3-2.1,19.1-6.1c4.8-4.1,8-10,9.4-17.6l0-0.1h-5l0,0.1
					c-1.4,6.1-4.1,10.9-7.9,14.3c-3.8,3.4-9,5.1-15.5,5.1c-4,0-7.5-0.8-10.5-2.3c-3-1.5-5.5-3.6-7.5-6.2c-2-2.6-3.5-5.7-4.5-9.1
					c-1-3.5-1.5-7.1-1.5-10.9v-0.7h52.9V545c0-0.3,0-0.8,0.1-1.3c0-0.6,0.1-1.1,0.1-1.5c0-4.4-0.6-8.6-1.9-12.5
					C1517.9,525.9,1516,522.4,1513.6,519.5z M1468.1,540.7c0.3-3.3,0.9-6.6,2-9.8c1.1-3.2,2.7-6,4.7-8.4c2-2.4,4.5-4.4,7.5-5.8
					c2.9-1.5,6.4-2.2,10.3-2.2c3.6,0,6.9,0.7,9.7,2.2c2.8,1.4,5.3,3.4,7.2,5.8c2,2.4,3.5,5.2,4.5,8.4c1,3.1,1.6,6.5,1.8,10H1468.1z"
					/>
				<path class="st1" d="M1446.2,500.1c-3.2-4.2-7.6-7.7-13-10.2c-5.4-2.5-12.2-3.8-20.4-3.8h-29.9v91.2h29.7c7.3,0,13.7-1.2,19-3.5
					c5.3-2.3,9.7-5.6,13.2-9.6c3.5-4.1,6.1-8.9,7.7-14.5c1.7-5.5,2.5-11.6,2.5-18.1c0-5.8-0.7-11.4-2-16.8
					C1451.7,509.2,1449.4,504.3,1446.2,500.1z M1449.2,531.5c0,7.8-1.1,14.5-3.2,19.6c-2.1,5.2-5,9.4-8.4,12.4s-7.4,5.3-11.6,6.6
					c-4.3,1.3-8.6,2-12.8,2h-24.4v-81.1h23.2c2.2,0,4.7,0.2,7.4,0.4c2.7,0.3,5.5,0.9,8.3,1.8c2.7,0.9,5.4,2.3,8,4
					c2.6,1.7,4.9,4.1,6.9,7.1c2,3,3.6,6.7,4.8,11.1C1448.5,520,1449.2,525.3,1449.2,531.5z"/>
				<rect x="1653.7" y="486" class="st1" width="5" height="91.2"/>
				<path class="st1" d="M1909.5,511.1c-3-0.1-5.9,0.2-8.6,1c-2.8,0.7-5.3,1.8-7.5,3.1c-2.2,1.4-4.2,3-5.8,4.9
					c-1.6,1.8-2.6,3.9-3.2,6h-0.2v-14.5h-5v65.7h5v-35.9c0.1-2.4,0.3-4.6,0.6-6.4c0.3-1.8,0.8-3.4,1.4-4.8c0.6-1.4,1.3-2.8,2.2-3.9
					c0.9-1.2,1.9-2.4,3.1-3.7c2.9-2.9,6.1-4.7,9.3-5.6c3.2-0.8,6.2-1.1,8.7-0.8l0.1,0L1909.5,511.1L1909.5,511.1z"/>
				<path class="st1" d="M1860.5,519.5c-2.4-2.9-5.4-5.3-8.9-7c-3.5-1.7-7.6-2.6-12.2-2.6c-5,0-9.4,1-13.1,2.9
					c-3.7,1.9-6.8,4.5-9.3,7.7c-2.5,3.2-4.3,6.9-5.6,11.1c-1.2,4.2-1.9,8.6-1.9,13.2c0,4.7,0.6,9.2,1.8,13.3c1.2,4.1,3,7.7,5.4,10.7
					c2.4,3,5.5,5.4,9.1,7.2c3.6,1.7,7.9,2.6,12.7,2.6c7.9,0,14.3-2.1,19.1-6.1c4.8-4.1,8-10,9.4-17.6l0-0.1h-5l0,0.1
					c-1.4,6.1-4.1,10.9-7.9,14.3c-3.8,3.4-9,5.1-15.5,5.1c-4,0-7.5-0.8-10.5-2.3c-3-1.5-5.5-3.6-7.5-6.2c-2-2.6-3.5-5.7-4.5-9.1
					c-1-3.5-1.5-7.1-1.5-10.9v-0.7h52.9V545c0-0.3,0-0.8,0.1-1.3c0-0.6,0.1-1.1,0.1-1.5c0-4.4-0.6-8.6-1.9-12.5
					C1864.7,525.9,1862.8,522.4,1860.5,519.5z M1839.4,514.4c3.6,0,6.9,0.7,9.7,2.2c2.8,1.4,5.3,3.4,7.2,5.8c2,2.4,3.5,5.2,4.5,8.4
					c1,3.1,1.6,6.5,1.8,10h-47.7c0.3-3.3,0.9-6.6,2-9.8c1.1-3.2,2.7-6,4.7-8.4c2-2.4,4.5-4.4,7.5-5.8
					C1832,515.1,1835.5,514.4,1839.4,514.4z"/>
				<path class="st1" d="M1723.8,520.2c-2.5-3.1-5.7-5.7-9.5-7.5c-3.7-1.8-8.1-2.7-12.9-2.7s-9.2,0.9-12.9,2.7
					c-3.7,1.8-6.9,4.3-9.5,7.5c-2.5,3.1-4.5,6.8-5.8,10.9c-1.3,4.1-2,8.6-2,13.2c0,4.7,0.7,9.1,2,13.3c1.3,4.2,3.3,7.8,5.8,10.9
					c2.5,3.1,5.7,5.6,9.5,7.4s8.1,2.7,12.9,2.7s9.2-0.9,12.9-2.7s6.9-4.3,9.5-7.4c2.5-3.1,4.5-6.8,5.8-10.9c1.3-4.2,2-8.6,2-13.3
					c0-4.7-0.7-9.1-2-13.2C1728.3,527,1726.3,523.3,1723.8,520.2z M1726.5,544.4c0,3.9-0.6,7.7-1.7,11.2c-1.1,3.6-2.7,6.8-4.8,9.6
					c-2.1,2.8-4.8,5-7.9,6.7c-3.1,1.6-6.7,2.5-10.8,2.5s-7.7-0.8-10.8-2.5c-3.1-1.6-5.8-3.9-7.9-6.7c-2.1-2.8-3.7-6-4.8-9.6
					c-1.1-3.6-1.7-7.4-1.7-11.2s0.6-7.7,1.7-11.2c1.1-3.6,2.7-6.8,4.8-9.6c2.1-2.8,4.8-5,7.9-6.7c3.1-1.6,6.7-2.5,10.8-2.5
					s7.7,0.8,10.8,2.5c3.1,1.6,5.8,3.9,7.9,6.7c2.1,2.8,3.7,6,4.8,9.6C1725.9,536.7,1726.5,540.5,1726.5,544.4z"/>
				<path class="st1" d="M1794,520.3c-2.4-3.1-5.5-5.7-9.2-7.5c-3.7-1.9-8.1-2.8-13.1-2.8c-3.6,0-6.8,0.6-9.5,1.7
					c-2.8,1.1-5.1,2.5-7.1,4.2c-2,1.7-3.5,3.5-4.7,5.4c-1.2,1.9-2,3.7-2.5,5.3h-0.1v-15h-5v89.1h5v-37.1h0.1c2,5.3,5.1,9.2,9.3,11.6
					c4.2,2.4,9.1,3.6,14.6,3.6c5,0,9.4-0.9,13.1-2.6c3.7-1.7,6.8-4.1,9.2-7.1c2.4-3,4.2-6.6,5.4-10.8c1.2-4.2,1.8-8.8,1.8-13.8
					c0-4.6-0.6-9-1.8-13.1C1798.2,527.2,1796.4,523.5,1794,520.3z M1796.2,544.5c0,4.1-0.5,7.9-1.5,11.5c-1,3.6-2.5,6.8-4.4,9.5
					c-2,2.7-4.5,4.9-7.6,6.5c-3.1,1.6-6.8,2.4-11,2.4c-4.5,0-8.4-0.8-11.5-2.5c-3.1-1.6-5.5-3.9-7.4-6.6c-1.8-2.7-3.1-5.9-3.9-9.5
					c-0.8-3.6-1.1-7.4-1.1-11.3c0-3.9,0.4-7.7,1.3-11.3c0.8-3.6,2.2-6.8,4.1-9.6c1.9-2.8,4.4-5,7.4-6.7c3-1.7,6.7-2.5,11-2.5
					c4.4,0,8.2,0.9,11.2,2.6c3.1,1.7,5.6,4,7.5,6.8c1.9,2.8,3.4,6.1,4.3,9.7C1795.7,537.1,1796.2,540.8,1796.2,544.5z"/>
				<path class="st1" d="M1634,519.5c-2.4-2.9-5.4-5.3-8.9-7c-3.5-1.7-7.6-2.6-12.2-2.6c-5,0-9.4,1-13.1,2.9
					c-3.7,1.9-6.8,4.5-9.3,7.7c-2.5,3.2-4.3,6.9-5.6,11.1s-1.9,8.6-1.9,13.2c0,4.7,0.6,9.2,1.8,13.3c1.2,4.1,3,7.7,5.4,10.7
					c2.4,3,5.5,5.4,9.1,7.2c3.6,1.7,7.9,2.6,12.7,2.6c7.9,0,14.3-2.1,19.1-6.1c4.8-4.1,8-10,9.4-17.6l0-0.1h-5l0,0.1
					c-1.4,6.1-4.1,10.9-7.9,14.3c-3.8,3.4-9,5.1-15.5,5.1c-4,0-7.5-0.8-10.5-2.3c-3-1.5-5.5-3.6-7.5-6.2c-2-2.6-3.5-5.7-4.5-9.1
					c-1-3.5-1.5-7.1-1.5-10.9v-0.7h52.9V545c0-0.3,0-0.8,0.1-1.3c0-0.6,0.1-1,0.1-1.5c0-4.4-0.6-8.6-1.9-12.5
					C1638.2,525.9,1636.3,522.4,1634,519.5z M1588.4,540.7c0.3-3.3,0.9-6.6,2-9.8c1.1-3.2,2.7-6,4.7-8.4c2-2.4,4.5-4.4,7.5-5.8
					c2.9-1.5,6.4-2.2,10.3-2.2c3.6,0,6.9,0.7,9.7,2.2c2.8,1.4,5.3,3.4,7.2,5.8c2,2.4,3.5,5.2,4.5,8.4c1,3.1,1.6,6.5,1.8,10H1588.4z"
					/>
			</g>
		</g>
	</g>
</g>
</svg>
