<?xml version="1.0" encoding="UTF-8" standalone="no"?>
<svg width="1168px" height="508px" viewBox="0 0 1168 508" version="1.1" xmlns="http://www.w3.org/2000/svg" xmlns:xlink="http://www.w3.org/1999/xlink" xmlns:sketch="http://www.bohemiancoding.com/sketch/ns">
    <!-- Generator: Sketch 3.4.2 (15857) - http://www.bohemiancoding.com/sketch -->
    <title>Artboard 1</title>
    <desc>Created with Sketch.</desc>
    <defs></defs>
    <g id="Page-1" stroke="none" stroke-width="1" fill="none" fill-rule="evenodd" sketch:type="MSPage">
        <g id="Artboard-1" sketch:type="MSArtboardGroup">
            <g id="EPC-Logo" sketch:type="MSLayerGroup" transform="translate(-25.000000, -90.000000)">
                <g id="Dark"></g>
                <path d="M758.638961,329.684096 L769.369663,329.684096 L769.369663,393.152644 L758.638961,393.152644 L758.638961,329.684096 Z M746.090005,385.555092 C746.090005,388.698267 746.260466,391.841443 746.955681,393.152644 L735.962602,393.152644 C735.614994,391.583584 735.359303,390.007783 735.359303,388.437038 C730.85712,391.057756 724.190749,394.723389 715.014252,394.723389 C708.86762,394.723389 697.010537,392.104357 697.010537,380.578257 C697.010537,364.778113 720.38211,362.509633 735.359303,361.636623 L735.359303,359.541734 C735.359303,355.960368 732.152292,353.428975 723.323402,353.428975 C713.455033,353.428975 711.376074,357.096293 710.769433,359.627687 L699.605893,359.627687 C702.201249,346.881395 714.579743,344.698868 723.239843,344.698868 C745.657167,344.698868 746.090005,355.699139 746.090005,362.160766 L746.090005,385.555092 Z M735.359303,369.493719 C729.124098,369.754948 723.671009,370.626273 718.649087,371.849836 C711.987729,373.422267 708.86762,375.692431 708.780718,379.792885 C708.695488,383.809071 711.292515,386.34215 716.5718,386.34215 C724.707146,386.34215 731.203056,382.759099 735.359303,380.22939 L735.359303,369.493719 Z M661.609747,346.271298 L672.34045,346.271298 L672.34045,353.255384 L672.601155,353.255384 C674.94249,349.414474 679.615134,344.698868 688.876861,344.698868 C690.434409,344.698868 691.56079,344.698868 692.6855,344.87583 L692.6855,356.573835 C691.647692,356.310921 689.657307,355.699139 686.104359,355.699139 C672.429023,355.786777 672.429023,364.955074 672.34045,368.270155 L672.34045,393.152644 L661.609747,393.152644 L661.609747,346.271298 M618.157171,347.843729 L626.471335,347.843729 L626.471335,332.566043 L637.203708,332.566043 L637.203708,347.843729 L653.392513,347.843729 L653.392513,357.096293 L637.203708,357.096293 L637.203708,378.571007 C637.203708,381.889459 638.502222,385.467454 644.735756,385.467454 C646.813043,385.467454 651.138079,384.94331 653.910581,384.157938 L653.910581,393.673417 C648.631296,394.374522 646.1195,394.723389 642.312532,394.723389 C632.094885,394.723389 626.471335,391.404937 626.471335,381.104086 L626.471335,357.096293 L618.157171,357.096293 L618.157171,347.843729 M565.447881,346.271298 L576.00478,346.271298 L576.00478,352.122829 C579.385595,348.802692 583.971336,344.698868 593.406867,344.698868 C603.099762,344.698868 611.586058,348.802692 611.586058,363.118044 L611.586058,393.152644 L600.852013,393.152644 L600.852013,367.135916 C600.852013,357.883351 598.082853,353.954803 590.900084,353.954803 C582.325215,353.954803 578.862513,357.532799 576.178584,360.849565 L576.178584,393.152644 L565.447881,393.152644 L565.447881,346.271298 M555.758329,379.098521 C554.976213,382.937745 548.744351,394.723389 531.517738,394.723389 C514.899438,394.723389 504.942496,384.245576 504.942496,369.579671 C504.942496,356.310921 513.600925,344.698868 530.740635,344.698868 C548.224611,344.87583 556.622334,355.786777 556.622334,372.721161 L515.850344,372.721161 C516.283182,375.692431 517.925961,385.467454 531.170131,385.989912 C537.925075,385.989912 542.428929,382.759099 543.983134,379.098521 L555.758329,379.098521 Z M545.194746,364.341608 C543.550296,356.396874 538.18411,353.428975 530.47993,353.428975 C524.853038,353.428975 518.36047,355.350272 516.192938,364.341608 L545.194746,364.341608 Z M498.543515,370.54032 C497.330232,377.612043 492.311652,394.723389 463.40176,394.723389 C443.489547,394.723389 427.820482,383.549527 427.820482,360.41306 C427.820482,341.906245 439.333301,328.113351 464.350995,328.113351 C492.485456,328.113351 496.640031,346.534213 497.592608,349.938617 L485.299345,349.938617 C484.605801,347.756091 479.759354,338.764755 465.042867,338.764755 C447.642451,338.764755 440.371109,348.627416 440.371109,361.811899 C440.371109,376.390166 450.847791,384.073671 464.350995,384.073671 C478.721546,384.073671 485.040311,375.429517 486.250251,370.54032 L498.543515,370.54032 M392.33112,346.271298 L403.065165,346.271298 L403.065165,353.255384 L403.322528,353.255384 C405.663863,349.414474 410.336507,344.698868 419.598234,344.698868 C421.160796,344.698868 422.282163,344.698868 423.410215,344.87583 L423.410215,356.573835 C422.372407,356.310921 420.38035,355.699139 416.830746,355.699139 C403.152067,355.786777 403.152067,364.955074 403.065165,368.270155 L403.065165,393.152644 L392.33112,393.152644 L392.33112,346.271298 M384.804086,379.098521 C384.025313,382.937745 377.795121,394.723389 360.566837,394.723389 C343.945195,394.723389 333.989924,384.245576 333.989924,369.579671 C333.989924,356.310921 342.648353,344.698868 359.789735,344.698868 C377.275382,344.87583 385.671433,355.786777 385.671433,372.721161 L344.897773,372.721161 C345.332282,375.692431 346.976731,385.467454 360.21923,385.989912 C366.972504,385.989912 371.473015,382.759099 373.033905,379.098521 L384.804086,379.098521 Z M374.242174,364.341608 C372.599396,356.396874 367.231538,353.428975 359.5307,353.428975 C353.902137,353.428975 347.409569,355.350272 345.24538,364.341608 L374.242174,364.341608 Z M281.19039,346.271298 L291.752302,346.271298 L291.752302,352.122829 C295.128103,348.802692 299.715516,344.698868 309.151047,344.698868 C318.845613,344.698868 327.330238,348.802692 327.330238,363.118044 L327.330238,393.152644 L316.596193,393.152644 L316.596193,367.135916 C316.596193,357.883351 313.827033,353.954803 306.639251,353.954803 C298.069395,353.954803 294.608364,357.532799 291.926106,360.849565 L291.926106,393.152644 L281.19039,393.152644 L281.19039,346.271298 M237.739485,347.843729 L246.050306,347.843729 L246.050306,332.566043 L256.786022,332.566043 L256.786022,347.843729 L272.973155,347.843729 L272.973155,357.096293 L256.786022,357.096293 L256.786022,378.571007 C256.786022,381.889459 258.082865,385.467454 264.316398,385.467454 C266.393686,385.467454 270.722064,384.94331 273.491224,384.157938 L273.491224,393.673417 C268.211939,394.374522 265.701814,394.723389 261.891504,394.723389 C251.67887,394.723389 246.050306,391.404937 246.050306,381.104086 L246.050306,357.096293 L237.739485,357.096293 L237.739485,347.843729 M203.032239,346.271298 L213.767955,346.271298 L213.767955,353.255384 L214.025318,353.255384 C216.364982,349.414474 221.039297,344.698868 230.301024,344.698868 C231.858572,344.698868 232.986625,344.698868 234.111335,344.87583 L234.111335,356.573835 C233.071855,356.310921 231.079798,355.699139 227.531865,355.699139 C213.854857,355.786777 213.854857,364.955074 213.767955,368.270155 L213.767955,393.152644 L203.032239,393.152644 L203.032239,346.271298 M193.51482,385.555092 C193.51482,388.698267 193.686952,391.841443 194.380496,393.152644 L183.385745,393.152644 C183.041481,391.583584 182.780775,390.007783 182.780775,388.437038 C178.278593,391.057756 171.613893,394.723389 162.439067,394.723389 C156.290764,394.723389 144.432009,392.104357 144.432009,380.578257 C144.432009,364.778113 167.805254,362.509633 182.780775,361.636623 L182.780775,359.541734 C182.780775,355.960368 179.577107,353.428975 170.746546,353.428975 C160.881519,353.428975 158.80256,357.096293 158.19759,359.627687 L147.029036,359.627687 C149.626064,346.881395 162.006229,344.698868 170.661315,344.698868 C193.083653,344.698868 193.51482,355.699139 193.51482,362.160766 L193.51482,385.555092 Z M182.780775,369.493719 C176.548913,369.754948 171.094153,370.626273 166.073902,371.849836 C159.407531,373.422267 156.290764,375.692431 156.205533,379.792885 C156.118631,383.809071 158.715659,386.34215 163.994944,386.34215 C172.131961,386.34215 178.6262,382.759099 182.780775,380.22939 L182.780775,369.493719 Z M79.16875,329.684096 L114.230288,329.684096 C124.87576,329.684096 142.363078,329.684096 142.363078,349.151559 C142.363078,368.53307 124.87576,368.53307 114.230288,368.53307 L91.4620137,368.53307 L91.4620137,393.152644 L79.16875,393.152644 L79.16875,329.684096 Z M116.912546,357.883351 C123.923182,357.883351 130.069814,357.27157 130.069814,349.065607 C130.069814,340.947282 123.923182,340.3355 116.912546,340.3355 L91.4620137,340.3355 L91.4620137,357.883351 L116.912546,357.883351 Z" id="PartnerCentral" fill="#FFFFFF" sketch:type="MSShapeGroup"></path>
                <path d="M414.427576,287.885762 C419.743628,287.885762 424.053623,292.206996 424.053623,297.571462 C424.053623,302.935927 419.743628,307.282441 414.427576,307.282441 C409.111525,307.282441 404.826598,302.935927 404.826598,297.571462 C404.826598,292.206996 409.111525,287.885762 414.427576,287.885762 Z M414.427576,305.755515 C418.913047,305.755515 422.542869,302.121903 422.542869,297.596742 C422.542869,293.073266 418.913047,289.412688 414.427576,289.412688 C409.940435,289.412688 406.339023,293.073266 406.339023,297.596742 C406.339023,302.121903 409.940435,305.755515 414.427576,305.755515 Z M414.328976,298.206838 L412.236648,298.206838 L412.236648,303.34041 L410.724222,303.34041 L410.724222,291.802513 L415.259828,291.802513 C417.831788,291.802513 418.964854,292.919899 418.964854,295.004675 C418.964854,297.01024 417.626232,297.95235 416.093752,298.206838 L419.541414,303.34041 L417.681381,303.34041 L414.328976,298.206838 Z M412.236648,296.833279 L414.731733,296.833279 C416.244159,296.833279 417.450757,296.656317 417.450757,294.979395 C417.450757,293.351348 416.118819,293.174387 414.731733,293.174387 L412.236648,293.174387 L412.236648,296.833279 Z M397.968039,316.349617 C397.968039,318.265859 398.213704,319.62762 398.519532,321.358474 L393.552759,321.358474 C393.308765,320.369174 392.941104,318.763036 392.941104,317.463633 C388.28183,320.49389 383.071064,322.347773 376.941144,322.347773 C371.666872,322.347773 363.882476,320.864666 363.882476,312.517134 C363.882476,301.328104 380.497433,300.893284 393.002938,299.410177 L393.002938,298.173131 C393.002938,293.784483 387.792172,292.115988 382.701731,292.115988 C374.18034,292.115988 371.178885,295.700724 369.584571,297.554608 L365.844451,294.959171 C367.68443,292.670467 371.178885,288.034073 382.335741,288.034073 C389.630479,288.034073 397.968039,290.198061 397.968039,298.483235 L397.968039,316.349617 Z M393.002938,303.490406 C378.413461,304.912841 368.601912,306.272917 368.601912,312.517134 C368.601912,317.584978 374.242174,318.265859 376.695479,318.265859 C383.624227,318.265859 389.81431,314.928868 393.002938,313.198015 L393.002938,303.490406 Z M352.660444,289.023373 L357.628888,289.023373 L357.628888,321.358474 L352.660444,321.358474 L352.660444,289.023373 Z M352.234291,276.410223 L357.934715,276.410223 L357.934715,282.160633 L352.234291,282.160633 L352.234291,276.410223 Z M343.646052,276.410223 L343.646052,315.297959 C343.646052,316.165914 343.953551,320.369174 344.015385,321.358474 L339.538271,321.358474 L338.924944,316.287259 C334.083511,320.244458 330.831378,322.347773 323.474805,322.347773 C311.092969,322.347773 305.942365,312.825553 305.942365,305.46732 C305.942365,297.989428 310.60331,288.034073 324.335467,288.034073 C330.953375,288.034073 334.26567,290.198061 338.680951,293.476064 L338.680951,276.410223 L343.646052,276.410223 Z M338.680951,298.668624 C335.737988,295.577694 331.570043,292.301376 324.641295,292.301376 C318.021717,292.301376 310.907467,295.763082 310.907467,305.593721 C310.907467,312.271073 316.059741,318.082156 324.763292,318.082156 C330.097726,318.082156 335.61432,314.558091 338.680951,311.219416 L338.680951,298.668624 Z M300.60626,314.618764 C297.293964,318.144513 294.107007,322.347773 283.195816,322.347773 C272.40328,322.347773 265.048379,314.928868 265.048379,305.037556 C265.048379,294.773783 272.71245,288.034073 282.580819,288.034073 C292.820192,288.034073 301.771078,293.413706 301.525414,306.210559 L270.015152,306.210559 C270.50481,312.271073 275.349586,318.082156 283.685475,318.082156 C291.962872,318.082156 294.720333,314.310345 296.744143,311.775581 L300.60626,314.618764 Z M296.130817,301.944941 C295.149829,296.627666 290.614223,292.301376 283.011986,292.301376 C275.715576,292.301376 271.607794,296.010829 270.197311,301.944941 L296.130817,301.944941 Z M223.41907,289.023373 L228.385842,289.023373 L228.385842,293.907513 C232.983282,290.135703 236.232073,288.034073 243.588645,288.034073 C255.972153,288.034073 261.122757,297.554608 261.122757,304.912841 C261.122757,312.392418 256.463483,322.347773 242.731326,322.347773 C236.110076,322.347773 232.799451,320.183785 228.385842,316.907468 L228.385842,332.736263 L223.41907,332.736263 L223.41907,289.023373 Z M228.385842,311.713223 C231.327134,314.805838 235.49675,318.082156 242.425498,318.082156 C249.046748,318.082156 256.155984,314.618764 256.155984,304.788125 C256.155984,298.110773 251.007052,292.301376 242.30183,292.301376 C236.969067,292.301376 231.450802,295.823755 228.385842,299.162431 L228.385842,311.713223 Z M196.808733,304.356675 L182.585246,289.023373 L188.960831,289.023373 L200.17952,301.018 L211.030548,289.023373 L217.407804,289.023373 L203.182646,304.356675 L218.87845,321.358474 L212.379197,321.358474 L200.17952,307.632993 L187.796012,321.358474 L181.298431,321.358474 L196.808733,304.356675 M180.437769,314.618764 C177.125473,318.144513 173.938516,322.347773 163.027325,322.347773 C152.23646,322.347773 144.879888,314.928868 144.879888,305.037556 C144.879888,294.773783 152.543959,288.034073 162.412328,288.034073 C172.65003,288.034073 181.602587,293.413706 181.355251,306.210559 L149.844989,306.210559 C150.336319,312.271073 155.179423,318.082156 163.516984,318.082156 C171.79271,318.082156 174.551842,314.310345 176.575652,311.775581 L180.437769,314.618764 Z M175.962325,301.944941 C174.981338,296.627666 170.444061,292.301376 162.841823,292.301376 C155.547085,292.301376 151.439303,296.010829 150.02882,301.944941 L175.962325,301.944941 Z" id="expedia®" fill="#FECB2F" sketch:type="MSShapeGroup"></path>
                <path d="M799.673432,332.620971 L819.797432,332.620971 C825.301459,332.620971 829.873747,333.480962 833.514432,335.200971 C837.155116,336.920979 840.064754,339.21429 842.243432,342.080971 C844.422109,344.947652 845.95576,348.215619 846.844432,351.884971 C847.733103,355.554322 848.177432,359.338284 848.177432,363.236971 C848.177432,367.594326 847.618437,371.650619 846.500432,375.405971 C845.382426,379.161323 843.64811,382.414957 841.297432,385.166971 C838.946753,387.918984 835.979783,390.083296 832.396432,391.659971 C828.81308,393.236645 824.556123,394.024971 819.625432,394.024971 L799.673432,394.024971 L799.673432,332.620971 Z M819.969432,390.756971 C822.836113,390.756971 825.717084,390.312642 828.612432,389.423971 C831.507779,388.5353 834.130753,387.044648 836.481432,384.951971 C838.83211,382.859293 840.738424,380.049988 842.200432,376.523971 C843.662439,372.997953 844.393432,368.568997 844.393432,363.236971 C844.393432,359.051616 843.977769,355.468319 843.146432,352.486971 C842.315094,349.505622 841.225772,346.997314 839.878432,344.961971 C838.531091,342.926627 836.983107,341.32131 835.234432,340.145971 C833.485756,338.970631 831.679774,338.06764 829.816432,337.436971 C827.953089,336.806301 826.089774,336.390638 824.226432,336.189971 C822.363089,335.989303 820.686106,335.888971 819.195432,335.888971 L803.457432,335.888971 L803.457432,390.756971 L819.969432,390.756971 Z M856.925034,372.352971 L856.925034,372.868971 C856.925034,375.448984 857.26903,377.914292 857.957034,380.264971 C858.645037,382.615649 859.662694,384.679628 861.010034,386.456971 C862.357374,388.234313 864.04869,389.638965 866.084034,390.670971 C868.119377,391.702976 870.484354,392.218971 873.179034,392.218971 C877.593723,392.218971 881.091021,391.057982 883.671034,388.735971 C886.251047,386.413959 888.028362,383.188991 889.003034,379.060971 L892.271034,379.060971 C891.296362,384.220996 889.189383,388.176957 885.950034,390.928971 C882.710684,393.680984 878.42506,395.056971 873.093034,395.056971 C869.825017,395.056971 866.972713,394.46931 864.536034,393.293971 C862.099355,392.118631 860.064042,390.513314 858.430034,388.477971 C856.796026,386.442627 855.577704,384.034651 854.775034,381.253971 C853.972363,378.47329 853.571034,375.477653 853.571034,372.266971 C853.571034,369.170955 853.986696,366.203985 854.818034,363.365971 C855.649371,360.527956 856.896359,358.033981 858.559034,355.883971 C860.221709,353.73396 862.300021,352.013977 864.794034,350.723971 C867.288046,349.433964 870.22635,348.788971 873.609034,348.788971 C876.705049,348.788971 879.442689,349.362298 881.822034,350.508971 C884.201379,351.655643 886.193692,353.217961 887.799034,355.195971 C889.404375,357.173981 890.622696,359.467291 891.454034,362.075971 C892.285371,364.68465 892.701034,367.479622 892.701034,370.460971 C892.701034,370.747639 892.686701,371.077302 892.658034,371.449971 C892.629367,371.822639 892.615034,372.123636 892.615034,372.352971 L856.925034,372.352971 Z M889.347034,369.514971 C889.232367,367.106959 888.831037,364.827981 888.143034,362.677971 C887.45503,360.52796 886.437374,358.635979 885.090034,357.001971 C883.742694,355.367962 882.10871,354.063642 880.188034,353.088971 C878.267357,352.114299 876.074379,351.626971 873.609034,351.626971 C870.971687,351.626971 868.64971,352.128632 866.643034,353.131971 C864.636357,354.135309 862.945041,355.453962 861.569034,357.087971 C860.193027,358.721979 859.132371,360.628293 858.387034,362.806971 C857.641697,364.985648 857.183035,367.221626 857.011034,369.514971 L889.347034,369.514971 Z M916.326636,394.024971 L912.284636,394.024971 L894.482636,349.820971 L898.266636,349.820971 L914.262636,390.240971 L914.434636,390.240971 L929.398636,349.820971 L933.010636,349.820971 L916.326636,394.024971 Z M938.146238,372.352971 L938.146238,372.868971 C938.146238,375.448984 938.490235,377.914292 939.178238,380.264971 C939.866242,382.615649 940.883898,384.679628 942.231238,386.456971 C943.578578,388.234313 945.269895,389.638965 947.305238,390.670971 C949.340582,391.702976 951.705558,392.218971 954.400238,392.218971 C958.814927,392.218971 962.312225,391.057982 964.892238,388.735971 C967.472251,386.413959 969.249567,383.188991 970.224238,379.060971 L973.492238,379.060971 C972.517567,384.220996 970.410588,388.176957 967.171238,390.928971 C963.931889,393.680984 959.646265,395.056971 954.314238,395.056971 C951.046222,395.056971 948.193917,394.46931 945.757238,393.293971 C943.320559,392.118631 941.285246,390.513314 939.651238,388.477971 C938.01723,386.442627 936.798909,384.034651 935.996238,381.253971 C935.193568,378.47329 934.792238,375.477653 934.792238,372.266971 C934.792238,369.170955 935.207901,366.203985 936.039238,363.365971 C936.870576,360.527956 938.117563,358.033981 939.780238,355.883971 C941.442913,353.73396 943.521226,352.013977 946.015238,350.723971 C948.509251,349.433964 951.447555,348.788971 954.830238,348.788971 C957.926254,348.788971 960.663893,349.362298 963.043238,350.508971 C965.422583,351.655643 967.414897,353.217961 969.020238,355.195971 C970.62558,357.173981 971.843901,359.467291 972.675238,362.075971 C973.506576,364.68465 973.922238,367.479622 973.922238,370.460971 C973.922238,370.747639 973.907905,371.077302 973.879238,371.449971 C973.850571,371.822639 973.836238,372.123636 973.836238,372.352971 L938.146238,372.352971 Z M970.568238,369.514971 C970.453571,367.106959 970.052242,364.827981 969.364238,362.677971 C968.676235,360.52796 967.658578,358.635979 966.311238,357.001971 C964.963898,355.367962 963.329914,354.063642 961.409238,353.088971 C959.488562,352.114299 957.295584,351.626971 954.830238,351.626971 C952.192892,351.626971 949.870915,352.128632 947.864238,353.131971 C945.857562,354.135309 944.166245,355.453962 942.790238,357.087971 C941.414231,358.721979 940.353575,360.628293 939.608238,362.806971 C938.862901,364.985648 938.404239,367.221626 938.232238,369.514971 L970.568238,369.514971 Z M985.73384,332.620971 L985.73384,394.024971 L982.46584,394.024971 L982.46584,332.620971 L985.73384,332.620971 Z M994.277443,371.922971 C994.277443,368.769622 994.721772,365.802651 995.610443,363.021971 C996.499114,360.24129 997.803434,357.790315 999.523443,355.668971 C1001.24345,353.547627 1003.36476,351.870643 1005.88744,350.637971 C1008.41012,349.405298 1011.30543,348.788971 1014.57344,348.788971 C1017.84146,348.788971 1020.73676,349.405298 1023.25944,350.637971 C1025.78212,351.870643 1027.90343,353.547627 1029.62344,355.668971 C1031.34345,357.790315 1032.64777,360.24129 1033.53644,363.021971 C1034.42511,365.802651 1034.86944,368.769622 1034.86944,371.922971 C1034.86944,375.07632 1034.42511,378.057623 1033.53644,380.866971 C1032.64777,383.676318 1031.34345,386.127293 1029.62344,388.219971 C1027.90343,390.312648 1025.78212,391.975298 1023.25944,393.207971 C1020.73676,394.440643 1017.84146,395.056971 1014.57344,395.056971 C1011.30543,395.056971 1008.41012,394.440643 1005.88744,393.207971 C1003.36476,391.975298 1001.24345,390.312648 999.523443,388.219971 C997.803434,386.127293 996.499114,383.676318 995.610443,380.866971 C994.721772,378.057623 994.277443,375.07632 994.277443,371.922971 L994.277443,371.922971 Z M997.545443,371.922971 C997.545443,374.560317 997.918106,377.097292 998.663443,379.533971 C999.40878,381.970649 1000.4981,384.134961 1001.93144,386.026971 C1003.36478,387.91898 1005.1421,389.423965 1007.26344,390.541971 C1009.38479,391.659976 1011.82143,392.218971 1014.57344,392.218971 C1017.32546,392.218971 1019.7621,391.659976 1021.88344,390.541971 C1024.00479,389.423965 1025.7821,387.91898 1027.21544,386.026971 C1028.64878,384.134961 1029.73811,381.970649 1030.48344,379.533971 C1031.22878,377.097292 1031.60144,374.560317 1031.60144,371.922971 C1031.60144,369.285624 1031.22878,366.748649 1030.48344,364.311971 C1029.73811,361.875292 1028.64878,359.71098 1027.21544,357.818971 C1025.7821,355.926961 1024.00479,354.421976 1021.88344,353.303971 C1019.7621,352.185965 1017.32546,351.626971 1014.57344,351.626971 C1011.82143,351.626971 1009.38479,352.185965 1007.26344,353.303971 C1005.1421,354.421976 1003.36478,355.926961 1001.93144,357.818971 C1000.4981,359.71098 999.40878,361.875292 998.663443,364.311971 C997.918106,366.748649 997.545443,369.285624 997.545443,371.922971 L997.545443,371.922971 Z M1045.76704,359.968971 L1045.93904,359.968971 C1046.28305,358.879632 1046.85637,357.675644 1047.65904,356.356971 C1048.46172,355.038297 1049.52237,353.819976 1050.84104,352.701971 C1052.15972,351.583965 1053.7507,350.652308 1055.61404,349.906971 C1057.47739,349.161634 1059.61303,348.788971 1062.02104,348.788971 C1065.40373,348.788971 1068.34203,349.419631 1070.83604,350.680971 C1073.33006,351.94231 1075.39404,353.633627 1077.02804,355.754971 C1078.66205,357.876315 1079.88037,360.341623 1080.68304,363.150971 C1081.48572,365.960318 1081.88704,368.912955 1081.88704,372.008971 C1081.88704,375.391654 1081.48572,378.487623 1080.68304,381.296971 C1079.88037,384.106318 1078.66205,386.528627 1077.02804,388.563971 C1075.39404,390.599314 1073.33006,392.190298 1070.83604,393.336971 C1068.34203,394.483643 1065.40373,395.056971 1062.02104,395.056971 C1058.35169,395.056971 1055.08373,394.254312 1052.21704,392.648971 C1049.35036,391.043629 1047.25772,388.434989 1045.93904,384.822971 L1045.76704,384.822971 L1045.76704,409.848971 L1042.49904,409.848971 L1042.49904,349.820971 L1045.76704,349.820971 L1045.76704,359.968971 Z M1062.02104,392.218971 C1064.88773,392.218971 1067.36737,391.674309 1069.46004,390.584971 C1071.55272,389.495632 1073.2727,388.033646 1074.62004,386.198971 C1075.96738,384.364295 1076.97071,382.228649 1077.63004,379.791971 C1078.28938,377.355292 1078.61904,374.760984 1078.61904,372.008971 C1078.61904,369.486291 1078.30371,367.006649 1077.67304,364.569971 C1077.04238,362.133292 1076.06772,359.954647 1074.74904,358.033971 C1073.43037,356.113294 1071.72472,354.56531 1069.63204,353.389971 C1067.53937,352.214631 1065.00239,351.626971 1062.02104,351.626971 C1059.09703,351.626971 1056.60306,352.200298 1054.53904,353.346971 C1052.47503,354.493643 1050.79805,356.012961 1049.50804,357.904971 C1048.21804,359.79698 1047.28638,361.961292 1046.71304,364.397971 C1046.13971,366.834649 1045.85304,369.371624 1045.85304,372.008971 C1045.85304,374.646317 1046.11104,377.183292 1046.62704,379.619971 C1047.14305,382.056649 1048.01737,384.206628 1049.25004,386.069971 C1050.48272,387.933313 1052.14537,389.423965 1054.23804,390.541971 C1056.33072,391.659976 1058.92503,392.218971 1062.02104,392.218971 L1062.02104,392.218971 Z M1091.03265,372.352971 L1091.03265,372.868971 C1091.03265,375.448984 1091.37664,377.914292 1092.06465,380.264971 C1092.75265,382.615649 1093.77031,384.679628 1095.11765,386.456971 C1096.46499,388.234313 1098.1563,389.638965 1100.19165,390.670971 C1102.22699,391.702976 1104.59197,392.218971 1107.28665,392.218971 C1111.70134,392.218971 1115.19863,391.057982 1117.77865,388.735971 C1120.35866,386.413959 1122.13598,383.188991 1123.11065,379.060971 L1126.37865,379.060971 C1125.40398,384.220996 1123.297,388.176957 1120.05765,390.928971 C1116.8183,393.680984 1112.53267,395.056971 1107.20065,395.056971 C1103.93263,395.056971 1101.08033,394.46931 1098.64365,393.293971 C1096.20697,392.118631 1094.17166,390.513314 1092.53765,388.477971 C1090.90364,386.442627 1089.68532,384.034651 1088.88265,381.253971 C1088.07998,378.47329 1087.67865,375.477653 1087.67865,372.266971 C1087.67865,369.170955 1088.09431,366.203985 1088.92565,363.365971 C1089.75698,360.527956 1091.00397,358.033981 1092.66665,355.883971 C1094.32932,353.73396 1096.40763,352.013977 1098.90165,350.723971 C1101.39566,349.433964 1104.33396,348.788971 1107.71665,348.788971 C1110.81266,348.788971 1113.5503,349.362298 1115.92965,350.508971 C1118.30899,351.655643 1120.30131,353.217961 1121.90665,355.195971 C1123.51199,357.173981 1124.73031,359.467291 1125.56165,362.075971 C1126.39298,364.68465 1126.80865,367.479622 1126.80865,370.460971 C1126.80865,370.747639 1126.79431,371.077302 1126.76565,371.449971 C1126.73698,371.822639 1126.72265,372.123636 1126.72265,372.352971 L1091.03265,372.352971 Z M1123.45465,369.514971 C1123.33998,367.106959 1122.93865,364.827981 1122.25065,362.677971 C1121.56264,360.52796 1120.54499,358.635979 1119.19765,357.001971 C1117.85031,355.367962 1116.21632,354.063642 1114.29565,353.088971 C1112.37497,352.114299 1110.18199,351.626971 1107.71665,351.626971 C1105.0793,351.626971 1102.75732,352.128632 1100.75065,353.131971 C1098.74397,354.135309 1097.05265,355.453962 1095.67665,357.087971 C1094.30064,358.721979 1093.23998,360.628293 1092.49465,362.806971 C1091.74931,364.985648 1091.29065,367.221626 1091.11865,369.514971 L1123.45465,369.514971 Z M1137.84625,359.624971 L1138.10425,359.624971 C1138.50558,358.19163 1139.23658,356.84431 1140.29725,355.582971 C1141.35792,354.321631 1142.64791,353.232309 1144.16725,352.314971 C1145.68659,351.397633 1147.37791,350.695306 1149.24125,350.207971 C1151.10459,349.720635 1153.03957,349.505637 1155.04625,349.562971 L1155.04625,352.830971 C1153.32624,352.601636 1151.36259,352.773634 1149.15525,353.346971 C1146.9479,353.920307 1144.84093,355.181628 1142.83425,357.130971 C1142.03158,357.990975 1141.32925,358.8223 1140.72725,359.624971 C1140.12525,360.427641 1139.62358,361.316299 1139.22225,362.290971 C1138.82091,363.265642 1138.50558,364.354965 1138.27625,365.558971 C1138.04691,366.762977 1137.90358,368.196296 1137.84625,369.858971 L1137.84625,394.024971 L1134.57825,394.024971 L1134.57825,349.820971 L1137.84625,349.820971 L1137.84625,359.624971 Z" id="Developer" fill="#FECB2F" sketch:type="MSShapeGroup"></path>
            </g>
        </g>
    </g>
</svg>