<svg viewBox="0 0 89 29" xmlns="http://www.w3.org/2000/svg">
<style type="text/css">
  path, polygon {
    fill: #FFFFFF;
  }
</style>
    <path d="M21.5999625,13.4235375 C21.5999625,10.7049375 19.1082563,6.7963875 14.2935,6.7963875 C9.9318375,6.7963875 6.9863625,10.53495 6.9863625,14.3866125 C6.9863625,18.9744938 10.1587125,22.2593063 15.5959125,22.2593063 L25.9047375,22.2593063 C23.4692438,26.0540813 19.2213563,28.4902313 14.3497125,28.4902313 C6.64704375,28.4902313 0.4161,22.203075 0.4161,14.4997312 C0.4161,6.7963875 6.64704375,0.50923125 14.3497125,0.50923125 C22.0530563,0.50923125 28.3402312,6.7963875 28.3402312,14.4997312 C28.3402312,16.0290188 28.057125,17.5014187 27.6609,18.8613938 L12.084225,18.8613938 L12.084225,17.3314313 L17.5782938,17.1621188 C20.3537813,17.0483062 21.5999625,15.6328313 21.5999625,13.4235563"></path>
    <polygon points="24.2294625 28.509075 24.2294625 27.5536125 23.8882312 27.5536125 23.8882312 27.3590812 24.802125 27.3590812 24.802125 27.5536125 24.4616625 27.5536125 24.4616625 28.509075"></polygon>
    <polygon points="24.9490313 28.509075 24.9490313 27.3590812 25.296525 27.3590812 25.5051938 28.143525 25.7115 27.3590812 26.0598 27.3590812 26.0598 28.509075 25.8440813 28.509075 25.8440813 27.603825 25.6158 28.509075 25.3922437 28.509075 25.16475 27.603825 25.16475 28.509075"></polygon>
    <path d="M40.1538,7.45303125 C40.1538,6.65596875 39.4228875,5.50966875 38.010675,5.50966875 C36.732075,5.50966875 35.8682063,6.6057 35.8682063,7.73548125 C35.8682063,9.0808875 36.798225,10.0446187 38.3930062,10.0446187 L41.4165187,10.0446187 C40.7021437,11.1572063 39.4559625,11.8715813 38.0278687,11.8715813 C35.768325,11.8715813 33.9413812,10.0280812 33.9413812,7.7685375 C33.9413812,5.50966875 35.768325,3.6655125 38.0278687,3.6655125 C40.2867563,3.6655125 42.1308937,5.50966875 42.1308937,7.7685375 C42.1308937,8.21701875 42.0476437,8.64894375 41.9311312,9.0478125 L37.3631063,9.0478125 L37.3631063,8.59933125 L38.974425,8.54908125 C39.7886812,8.51608125 40.1538,8.10061875 40.1538,7.45305"></path>
    <polygon points="45.5354812 6.207225 47.0971875 3.91460625 49.256175 3.91460625 46.5984375 7.6194375 49.472475 11.6225812 47.179875 11.6225812 45.4693312 9.130875 43.7416125 11.6225812 41.58195 11.6225812 44.4057187 7.7186625 41.6652937 3.91460625 43.9572375 3.91460625"></polygon>
    <path d="M51.8475375,5.42630625 C52.4124188,4.23039375 53.4257812,3.69856875 54.4556625,3.69856875 C56.3163562,3.69856875 58.0103437,5.2768125 58.0103437,7.7685375 C58.0103437,10.2602438 56.3163562,11.8384875 54.4556625,11.8384875 C53.4257812,11.8384875 52.4124188,11.3066625 51.8475375,10.11075 C51.8145375,10.0445625 51.76485,10.0610625 51.76485,10.127625 L51.76485,14.7955313 L49.7712188,14.7955313 L49.7712188,3.91520625 L51.76485,3.91520625 L51.76485,5.41010625 C51.76485,5.47629375 51.8145375,5.49354375 51.8475375,5.42698125 M53.9073187,10.1947688 C55.0701562,10.1947688 56.0835187,9.181425 56.0835187,7.7692125 C56.0835187,6.357 55.0701562,5.34429375 53.9073187,5.34429375 C52.7610187,5.34429375 51.7311188,6.357 51.7311188,7.7692125 C51.7311188,9.181425 52.7610187,10.1947688 53.9073187,10.1947688"></path>
    <path d="M64.8702562,7.45303125 C64.8702562,6.65596875 64.1393437,5.50966875 62.7271312,5.50966875 C61.4485313,5.50966875 60.5846625,6.6057 60.5846625,7.73548125 C60.5846625,9.0808875 61.5146813,10.0446187 63.1094625,10.0446187 L66.132975,10.0446187 C65.4186,11.1572063 64.1724188,11.8715813 62.744325,11.8715813 C60.4847812,11.8715813 58.6578375,10.0280812 58.6578375,7.7685375 C58.6578375,5.50966875 60.4847812,3.6655125 62.744325,3.6655125 C65.0032125,3.6655125 66.84735,5.50966875 66.84735,7.7685375 C66.84735,8.21701875 66.7641,8.64894375 66.6475875,9.0478125 L62.0795625,9.0478125 L62.0795625,8.59933125 L63.6908813,8.54908125 C64.5051375,8.51608125 64.8702562,8.10061875 64.8702562,7.45305"></path>
    <path d="M73.6569937,10.110825 C73.0921125,11.3067375 72.07875,11.8385625 71.0488687,11.8385625 C69.18885,11.8385625 67.4941875,10.2603187 67.4941875,7.76859375 C67.4941875,5.2768875 69.18885,3.69864375 71.0488687,3.69864375 C72.07875,3.69864375 73.0921125,4.23046875 73.6569937,5.42638125 C73.6899937,5.49256875 73.7404312,5.47606875 73.7404312,5.40950625 L73.7404312,0.57556875 L75.7334063,0.57556875 L75.7334063,11.621925 L73.7404312,11.621925 L73.7404312,10.127025 C73.7404312,10.0608375 73.6901812,10.0443375 73.6569937,10.11015 M71.5972125,5.3423625 C70.434375,5.3423625 69.4210125,6.35570625 69.4210125,7.76791875 C69.4210125,9.18013125 70.434375,10.1934938 71.5972125,10.1934938 C72.7435125,10.1934938 73.7734125,9.18013125 73.7734125,7.76791875 C73.7734125,6.35570625 72.7435125,5.3423625 71.5972125,5.3423625"></path>
    <path d="M76.995375,1.6722 C76.995375,1.04116875 77.5271812,0.5093625 78.1582125,0.5093625 C78.7892437,0.5093625 79.3210687,1.04116875 79.3210687,1.6722 C79.3210687,2.30323125 78.7892437,2.8350375 78.1582125,2.8350375 C77.5271812,2.8350375 76.995375,2.30323125 76.995375,1.6722 L76.995375,1.6722 Z M79.1550375,11.622525 L77.1614062,11.622525 L77.1614062,3.91455 L79.1550375,3.91455 L79.1550375,11.622525 Z"></path>
    <path d="M86.3140688,10.110825 C85.7491875,11.3067375 84.735825,11.8385625 83.7059438,11.8385625 C81.845925,11.8385625 80.1512625,10.2603187 80.1512625,7.76859375 C80.1512625,5.2768875 81.845925,3.69864375 83.7059438,3.69864375 C84.735825,3.69864375 85.7491875,4.23046875 86.3140688,5.42638125 C86.3470688,5.49256875 86.3975063,5.47606875 86.3975063,5.40950625 L86.3975063,3.91460625 L88.3904813,3.91460625 L88.3904813,11.621925 L86.3975063,11.621925 L86.3975063,10.127025 C86.3975063,10.0608375 86.3472563,10.0443375 86.3140688,10.11015 M84.2542875,5.3423625 C83.09145,5.3423625 82.0780875,6.35570625 82.0780875,7.76791875 C82.0780875,9.18013125 83.09145,10.1934938 84.2542875,10.1934938 C85.4005875,10.1934938 86.4304875,9.18013125 86.4304875,7.76791875 C86.4304875,6.35570625 85.4005875,5.3423625 84.2542875,5.3423625"></path>
    <path d="M40.8120188,23.7649125 C40.8120188,23.698725 40.7623312,23.681475 40.7285813,23.7480375 C40.1643562,24.94395 39.1675313,25.475775 38.1541875,25.475775 C36.3100313,25.475775 34.6325813,23.9140687 34.6325813,21.4388812 C34.6325813,18.9637125 36.3100313,17.4026625 38.1541875,17.4026625 C39.1675313,17.4026625 40.1643562,17.9338125 40.7285813,19.1297437 C40.7623312,19.1964937 40.8120188,19.1799937 40.8120188,19.1128687 L40.8120188,17.6179687 L42.80565,17.6179687 L42.80565,24.8774625 C42.80565,27.0199312 41.3266313,28.6815187 38.768775,28.6815187 C37.340025,28.6815187 36.0945,28.1827875 35.1810187,27.3354562 L36.37695,26.0396625 C37.1739938,26.67135 37.805025,27.0033937 38.7357,27.0033937 C40.197525,27.0033937 40.8120188,25.9735125 40.8120188,24.6942562 L40.8120188,23.7649125 Z M38.702625,19.0473937 C37.556325,19.0473937 36.5595,20.0442187 36.5595,21.4392187 C36.5595,22.8348937 37.556325,23.8310625 38.702625,23.8310625 C39.8317313,23.8310625 40.8450938,22.8348937 40.8450938,21.4392187 C40.8450938,20.0442187 39.8317313,19.0473937 38.702625,19.0473937 L38.702625,19.0473937 Z"></path>
    <path d="M46.22685,17.6187187 L46.22685,19.2961687 C46.22685,19.3299188 46.25985,19.3464187 46.2765375,19.2961687 C46.5424313,17.9177062 47.1404063,17.4024187 48.1702875,17.4024187 L48.353475,17.4024187 L48.353475,19.4959312 L47.4565313,19.4959312 C46.642275,19.4959312 46.2268875,20.1269625 46.2268875,21.0239062 L46.2268875,25.3266937 L44.2339125,25.3266937 L44.2339125,17.6187187 L46.22685,17.6187187 Z"></path>
    <path d="M52.5888937,17.3695313 C54.8312437,17.3695313 56.6753813,19.2136688 56.6753813,21.4725563 C56.6753813,23.7314438 54.8312437,25.5755813 52.5888937,25.5755813 C50.3134688,25.5755813 48.4693313,23.7314438 48.4693313,21.4725563 C48.4693313,19.2136688 50.3134688,17.3695313 52.5888937,17.3695313 M52.5720187,19.1799375 C51.3761063,19.1799375 50.3958188,20.1767625 50.3958188,21.4725563 C50.3958188,22.76835 51.3761063,23.765175 52.5720187,23.765175 C53.7679313,23.765175 54.7482187,22.76835 54.7482187,21.4725563 C54.7482187,20.1767625 53.7679313,19.1799375 52.5720187,19.1799375"></path>
    <path d="M60.8111437,25.5756 C58.8677812,25.5756 57.6216,24.396225 57.6216,22.6684875 L57.6216,17.618925 L59.6152312,17.618925 L59.6152312,22.5189938 C59.6152312,23.2829813 60.1133062,23.7817313 60.8607562,23.7817313 C61.5420562,23.7817313 62.057325,23.2664438 62.057325,22.5355313 L62.057325,17.618925 L64.0503,17.618925 L64.0503,22.6684875 C64.0503,24.396225 62.7048937,25.5756 60.8111437,25.5756"></path>
    <path d="M67.5051,19.1303438 C68.0699812,17.9344313 69.0833437,17.4026063 70.113225,17.4026063 C71.9732437,17.4026063 73.6679062,18.98085 73.6679062,21.472575 C73.6679062,23.9642812 71.9732437,25.542525 70.113225,25.542525 C69.0833437,25.542525 68.0699812,25.0107 67.5051,23.8147875 C67.4721,23.7486 67.4216625,23.7651 67.4216625,23.8316625 L67.4216625,28.4995687 L65.4286875,28.4995687 L65.4286875,17.6192437 L67.4216625,17.6192437 L67.4216625,19.1141438 C67.4216625,19.1803312 67.4719125,19.1968313 67.5051,19.1310188 M69.5648812,23.8988062 C70.7277187,23.8988062 71.7410812,22.8854625 71.7410812,21.47325 C71.7410812,20.0610375 70.7277187,19.047675 69.5648812,19.047675 C68.4185813,19.047675 67.3886812,20.0610375 67.3886812,21.47325 C67.3886812,22.8854625 68.4185813,23.8988062 69.5648812,23.8988062"></path>
    <polygon points="75.1371937 18.7672312 75.1371937 17.811225 74.795775 17.811225 74.795775 17.6165812 75.710175 17.6165812 75.710175 17.811225 75.369525 17.811225 75.369525 18.7672312"></polygon>
    <polygon points="75.857175 18.7672312 75.857175 17.6165812 76.204875 17.6165812 76.413675 18.401475 76.6200937 17.6165812 76.9686 17.6165812 76.9686 18.7672312 76.75275 18.7672312 76.75275 17.8614562 76.5243375 18.7672312 76.30065 18.7672312 76.073025 17.8614562 76.073025 18.7672312"></polygon>
</svg>
