<?xml version="1.0" encoding="utf-8"?>
<!-- Generator: Adobe Illustrator 21.1.0, SVG Export Plug-In . SVG Version: 6.00 Build 0)  -->
<svg version="1.1" id="Layer_1" xmlns="http://www.w3.org/2000/svg" xmlns:xlink="http://www.w3.org/1999/xlink" x="0px" y="0px"
	 viewBox="0 0 792 612" style="enable-background:new 0 0 792 612;" xml:space="preserve">
<style type="text/css">
	.st0{fill:#FFFFFF;}
	.st1{font-family:'Helvetica-Bold';}
	.st2{font-size:8.7438px;}
	.st3{font-size:8.7486px;}
</style>
<g>
	<polygon points="112,187 112,425.7 678.1,425.7 678.1,187 112,187 	"/>
	<path class="st0" d="M270.4,300.9c0-14.8-13.6-36.1-39.8-36.1c-23.7,0-39.8,20.3-39.8,41.3c0,25,17.3,42.8,46.9,42.8h56.1
		c-13.3,20.7-36.4,33.9-62.9,33.9c-41.9,0-75.8-34.2-75.8-76.1s33.9-76.1,75.8-76.1c41.9,0,76.1,34.2,76.1,76.1
		c0,8.3-1.5,16.3-3.7,23.7h-84.8v-8.3l29.9-0.9C263.6,320.6,270.4,312.9,270.4,300.9L270.4,300.9z"/>
	<text transform="matrix(1 0 0 1 282.6437 382.9806)" class="st0 st1 st2">TM</text>
	<path class="st0" d="M371.4,268.4c0-4.3-4-10.6-11.7-10.6c-7,0-11.7,6-11.7,12.1c0,7.3,5.1,12.6,13.7,12.6h16.5
		c-3.9,6.1-10.7,9.9-18.4,9.9c-12.3,0-22.2-10-22.2-22.3s9.9-22.3,22.2-22.3c12.3,0,22.3,10,22.3,22.3c0,2.4-0.5,4.8-1.1,7h-24.9
		v-2.4l8.8-0.3C369.4,274.2,371.4,271.9,371.4,268.4L371.4,268.4z"/>
	<polygon class="st0" points="400.6,261.6 409.1,249.1 420.9,249.1 406.4,269.3 422.1,291.1 409.6,291.1 400.3,277.5 390.9,291.1 
		379.1,291.1 394.5,269.8 379.6,249.1 392.1,249.1 400.6,261.6 	"/>
	<path class="st0" d="M435,257.4c3.1-6.5,8.6-9.4,14.2-9.4c10.1,0,19.3,8.6,19.3,22.1c0,13.6-9.2,22.1-19.3,22.1
		c-5.6,0-11.1-2.9-14.2-9.4c-0.2-0.4-0.5-0.3-0.5,0.1v25.4h-10.8v-59.2h10.8v8.1C434.5,257.6,434.8,257.7,435,257.4L435,257.4z
		 M446.2,283.3c6.3,0,11.8-5.5,11.8-13.2s-5.5-13.2-11.8-13.2c-6.2,0-11.8,5.5-11.8,13.2S440,283.3,446.2,283.3L446.2,283.3z"/>
	<path class="st0" d="M505.9,268.4c0-4.3-4-10.6-11.7-10.6c-7,0-11.7,6-11.7,12.1c0,7.3,5.1,12.6,13.7,12.6h16.5
		c-3.9,6.1-10.7,9.9-18.4,9.9c-12.3,0-22.2-10-22.2-22.3s9.9-22.3,22.2-22.3c12.3,0,22.3,10,22.3,22.3c0,2.4-0.5,4.8-1.1,7h-24.9
		v-2.4l8.8-0.3C503.9,274.2,505.9,271.9,505.9,268.4L505.9,268.4z"/>
	<path class="st0" d="M553.7,282.8c-3.1,6.5-8.6,9.4-14.2,9.4c-10.1,0-19.3-8.6-19.3-22.1c0-13.6,9.2-22.1,19.3-22.1
		c5.6,0,11.1,2.9,14.2,9.4c0.2,0.4,0.5,0.3,0.5-0.1V231H565v60.1h-10.8v-8.1C554.2,282.6,553.9,282.5,553.7,282.8L553.7,282.8z
		 M542.5,256.9c-6.3,0-11.8,5.5-11.8,13.2s5.5,13.2,11.8,13.2c6.2,0,11.8-5.5,11.8-13.2S548.7,256.9,542.5,256.9L542.5,256.9z"/>
	<path class="st0" d="M571.9,236.9c0-3.4,2.9-6.3,6.3-6.3c3.4,0,6.3,2.9,6.3,6.3c0,3.4-2.9,6.3-6.3,6.3
		C574.8,243.2,571.9,240.4,571.9,236.9L571.9,236.9z M583.6,249.1v41.9h-10.8v-41.9H583.6L583.6,249.1z"/>
	<path class="st0" d="M622.6,282.8c-3.1,6.5-8.6,9.4-14.2,9.4c-10.1,0-19.3-8.6-19.3-22.1c0-13.6,9.2-22.1,19.3-22.1
		c5.6,0,11.1,2.9,14.2,9.4c0.2,0.4,0.5,0.3,0.5-0.1v-8.1h10.8v41.9H623v-8.1C623,282.6,622.8,282.5,622.6,282.8L622.6,282.8z
		 M611.4,256.9c-6.3,0-11.8,5.5-11.8,13.2s5.5,13.2,11.8,13.2c6.2,0,11.8-5.5,11.8-13.2S617.6,256.9,611.4,256.9L611.4,256.9z"/>
	<path class="st0" d="M374.9,357.2c0-0.4-0.3-0.5-0.5-0.1c-3.1,6.5-8.5,9.4-14,9.4c-10,0-19.2-8.5-19.2-22c0-13.5,9.1-22,19.2-22
		c5.5,0,10.9,2.9,14,9.4c0.2,0.4,0.5,0.3,0.5-0.1v-8.1h10.8v39.5c0,11.7-8,20.7-22,20.7c-7.8,0-14.6-2.7-19.5-7.3l6.5-7.1
		c4.3,3.4,7.8,5.2,12.8,5.2c8,0,11.3-5.6,11.3-12.6V357.2L374.9,357.2z M363.5,331.5c-6.2,0-11.7,5.4-11.7,13c0,7.6,5.4,13,11.7,13
		c6.1,0,11.7-5.4,11.7-13C375.1,336.9,369.6,331.5,363.5,331.5L363.5,331.5z"/>
	<path class="st0" d="M404.4,323.7v9.1c0,0.2,0.2,0.3,0.3,0c1.4-7.5,4.7-10.3,10.3-10.3h1v11.4h-4.9c-4.4,0-6.7,3.4-6.7,8.3v23.4
		h-10.8v-41.9H404.4L404.4,323.7z"/>
	<path class="st0" d="M439,322.4c12.2,0,22.2,10,22.2,22.3S451.2,367,439,367c-12.4,0-22.4-10-22.4-22.3S426.6,322.4,439,322.4
		L439,322.4z M438.9,332.2c-6.5,0-11.8,5.4-11.8,12.5c0,7.1,5.3,12.5,11.8,12.5c6.5,0,11.8-5.4,11.8-12.5
		C450.8,337.6,445.5,332.2,438.9,332.2L438.9,332.2z"/>
	<path class="st0" d="M483.8,367c-10.6,0-17.4-6.4-17.4-15.8v-27.5h10.8v26.7c0,4.2,2.7,6.9,6.8,6.9c3.7,0,6.5-2.8,6.5-6.8v-26.8
		h10.8v27.5C501.4,360.6,494.1,367,483.8,367L483.8,367z"/>
	<path class="st0" d="M520.2,331.9c3.1-6.5,8.6-9.4,14.2-9.4c10.1,0,19.3,8.6,19.3,22.1c0,13.6-9.2,22.1-19.3,22.1
		c-5.6,0-11.1-2.9-14.2-9.4c-0.2-0.4-0.5-0.3-0.5,0.1v25.4h-10.8v-59.2h10.8v8.1C519.8,332.2,520,332.3,520.2,331.9L520.2,331.9z
		 M531.4,357.9c6.3,0,11.8-5.5,11.8-13.2c0-7.7-5.5-13.2-11.8-13.2c-6.2,0-11.8,5.5-11.8,13.2C519.6,352.4,525.2,357.9,531.4,357.9
		L531.4,357.9z"/>
	<text transform="matrix(1 0 0 1 559.7062 329.9572)" class="st0 st1 st3">TM</text>
</g>
</svg>
