<svg xmlns="http://www.w3.org/2000/svg" viewBox="0 0 600.15 141.9"><defs><style>.cls-1{fill:#fff;}</style></defs><title>EG_Lodging_Partner_Services_logo_reverse</title><g id="Layer_2" data-name="Layer 2"><g id="Layer_1-2" data-name="Layer 1"><g id="Layer_2-2" data-name="Layer 2"><g id="Layer_1-2-2" data-name="Layer 1-2"><g id="Brand-Assets"><g id="EG-logo-LPS_black" data-name="EG-logo-LPS black"><g id="EG-logo---LPS-black"><g id="EG---LPS"><g id="Group-42"><path id="Fill-9" class="cls-1" d="M100.72,132.31h3.15V107.82h-3.15Zm1.56-34.57a2.6,2.6,0,0,1,0,5.2h0a2.47,2.47,0,0,1-1.81-.76,2.61,2.61,0,0,1,1.81-4.44Z"/><path id="Fill-6" class="cls-1" d="M82.93,110.23a9.85,9.85,0,0,0-5,1.3,9.4,9.4,0,0,0-3.59,3.57,9.77,9.77,0,0,0-1.28,4.9,8.87,8.87,0,0,0,2.7,6.66,10.62,10.62,0,0,0,14,0,9.24,9.24,0,0,0,2.64-6.87,10.11,10.11,0,0,0-1.25-4.87,8.86,8.86,0,0,0-3.44-3.43A9.54,9.54,0,0,0,82.93,110.23Zm9.29-2.41h3.15v19.51a22.88,22.88,0,0,1-.9,7.54,9.75,9.75,0,0,1-4.3,5.2,14,14,0,0,1-7.35,1.82,16.78,16.78,0,0,1-5.67-.89,11.25,11.25,0,0,1-4.09-2.39,14.34,14.34,0,0,1-2.9-4.39h3.42a9,9,0,0,0,3.6,3.6,11.64,11.64,0,0,0,5.5,1.18,11.24,11.24,0,0,0,5.43-1.2,7.27,7.27,0,0,0,3.16-3,13.21,13.21,0,0,0,1-5.86v-1.26a11.86,11.86,0,0,1-4.34,3.45,12.85,12.85,0,0,1-11.8-.47,11.91,11.91,0,0,1-4.59-4.51,12.73,12.73,0,0,1,11-18.93,11.78,11.78,0,0,1,5.12,1.14,14.19,14.19,0,0,1,4.58,3.75Z"/><path id="Fill-11" class="cls-1" d="M109.49,107.82h3.15v4.39a13.24,13.24,0,0,1,4.18-3.77,10.36,10.36,0,0,1,5-1.25,8.67,8.67,0,0,1,4.87,1.4,8.35,8.35,0,0,1,3.14,3.76,20,20,0,0,1,1,7.36v12.6h-3.15V120.63a28.9,28.9,0,0,0-.35-5.65,6.18,6.18,0,0,0-2.1-3.66,6.32,6.32,0,0,0-4-1.22,7.76,7.76,0,0,0-5.12,1.89,8.84,8.84,0,0,0-3,4.68,32.31,32.31,0,0,0-.45,6.66v9h-3.15Z"/><path id="Fill-12" class="cls-1" d="M147.54,110.23a9.85,9.85,0,0,0-5,1.3,9.35,9.35,0,0,0-3.6,3.57,9.83,9.83,0,0,0-1.3,4.94,8.87,8.87,0,0,0,2.7,6.66,10.6,10.6,0,0,0,14,0,9.24,9.24,0,0,0,2.64-6.87,10,10,0,0,0-1.21-4.94,8.93,8.93,0,0,0-3.44-3.43A9.55,9.55,0,0,0,147.54,110.23Zm9.29-2.41H160v19.51a22.88,22.88,0,0,1-.9,7.54,9.78,9.78,0,0,1-4.29,5.2,14,14,0,0,1-7.35,1.82,16.76,16.76,0,0,1-5.66-.89,11.29,11.29,0,0,1-4.08-2.39,14.16,14.16,0,0,1-2.9-4.39h3.42a9,9,0,0,0,3.6,3.6,11.63,11.63,0,0,0,5.47,1.17,11.25,11.25,0,0,0,5.44-1.2,7.27,7.27,0,0,0,3.16-3,13.36,13.36,0,0,0,1-5.86v-1.26a12,12,0,0,1-4.35,3.45,12.83,12.83,0,0,1-11.79-.47,11.91,11.91,0,0,1-4.59-4.51,12.38,12.38,0,0,1-1.62-6.23,12.71,12.71,0,0,1,12.62-12.72,11.82,11.82,0,0,1,5.13,1.14,14.19,14.19,0,0,1,4.58,3.75Z"/><path id="Fill-13" class="cls-1" d="M190.26,110.23a9.19,9.19,0,0,0-6.87,2.86,9.74,9.74,0,0,0-2.79,7.1,10,10,0,0,0,1.24,5,9,9,0,0,0,3.57,3.53,9.89,9.89,0,0,0,4.9,1.3,9.21,9.21,0,0,0,4.77-1.31,9.63,9.63,0,0,0,3.55-3.67,10.08,10.08,0,0,0,1.33-5,9.85,9.85,0,0,0-1.32-4.94,9.44,9.44,0,0,0-8.38-4.93Zm-12.59-2.41h3.15v4.51a12.48,12.48,0,0,1,4.29-3.85,11.33,11.33,0,0,1,5.41-1.29,12.1,12.1,0,0,1,8.92,3.76,12.42,12.42,0,0,1,3.71,9,12.66,12.66,0,0,1-3.67,9.17,12.35,12.35,0,0,1-14.24,2.55,13.47,13.47,0,0,1-4.42-3.62v13.16h-3.15Z"/><path id="Fill-14" class="cls-1" d="M218.07,110.23a9.47,9.47,0,0,0-8.39,4.93,9.84,9.84,0,0,0-1.31,4.94,10,10,0,0,0,1.32,5,9.72,9.72,0,0,0,3.56,3.67,9.22,9.22,0,0,0,4.8,1.31,9.86,9.86,0,0,0,4.89-1.3,9,9,0,0,0,3.56-3.53,9.93,9.93,0,0,0,1.25-5,9.75,9.75,0,0,0-2.8-7.1A9.24,9.24,0,0,0,218.07,110.23Zm12.58-2.41v24.49h-3.1V128.1a13.42,13.42,0,0,1-4.44,3.62,12.38,12.38,0,0,1-14.26-2.55,12.65,12.65,0,0,1-3.7-9.17,12.42,12.42,0,0,1,3.71-9,12.1,12.1,0,0,1,8.92-3.76,11.46,11.46,0,0,1,5.45,1.29,12.48,12.48,0,0,1,4.29,3.85v-4.51Z"/><path id="Fill-2" class="cls-1" d="M25.6,110.28a9.11,9.11,0,0,0-6.74,2.9,9.69,9.69,0,0,0-2.83,7,9.94,9.94,0,0,0,1.29,5,9.2,9.2,0,0,0,3.48,3.55,10,10,0,0,0,9.61,0,9.18,9.18,0,0,0,3.47-3.55,9.94,9.94,0,0,0,1.29-5,9.69,9.69,0,0,0-2.83-7,9.11,9.11,0,0,0-6.74-2.9m0-3.09a12.09,12.09,0,0,1,9.37,4.1,13.14,13.14,0,0,1-.19,17.81,12,12,0,0,1-9.18,3.84,12,12,0,0,1-9.2-3.84,13.12,13.12,0,0,1-.19-17.79,12.15,12.15,0,0,1,9.39-4.12"/><path id="Fill-15" class="cls-1" d="M235.62,107.82h3.22v3.58a11.43,11.43,0,0,1,3-3.16,6.08,6.08,0,0,1,3.33-1,5.62,5.62,0,0,1,2.79.84l-1.64,2.65a3.91,3.91,0,0,0-4.7.87,8.09,8.09,0,0,0-2.23,4,38.7,38.7,0,0,0-.58,8.46v8.28h-3.22Z"/><polygon id="Fill-1" class="cls-1" points="6.18 132.31 9.33 132.31 9.33 98.37 6.18 98.37 6.18 132.31"/><polygon id="Fill-16" class="cls-1" points="253.41 98.73 256.55 98.73 256.55 107.82 261.55 107.82 261.55 110.55 256.55 110.55 256.55 132.31 253.41 132.31 253.41 110.55 249.11 110.55 249.11 107.82 253.41 107.82 253.41 98.73"/><path id="Fill-17" class="cls-1" d="M265.35,107.82h3.15v4.39a13.24,13.24,0,0,1,4.18-3.77,10.36,10.36,0,0,1,5-1.25,8.67,8.67,0,0,1,4.87,1.4,8.35,8.35,0,0,1,3.14,3.76,20,20,0,0,1,1,7.36v12.6h-3.15V120.63a29.51,29.51,0,0,0-.39-5.63,6.18,6.18,0,0,0-2.1-3.66,6.32,6.32,0,0,0-4.05-1.22,7.73,7.73,0,0,0-5.11,1.89,8.84,8.84,0,0,0-3,4.68,32.31,32.31,0,0,0-.45,6.66v9h-3.09Z"/><path id="Fill-18" class="cls-1" d="M312.15,117.59a10.43,10.43,0,0,0-1.84-4,8.81,8.81,0,0,0-3.18-2.43,9.86,9.86,0,0,0-4.17-.92,9,9,0,0,0-6.19,2.32,10.51,10.51,0,0,0-2.86,5.06Zm0,6.59,2.65,1.4a14.44,14.44,0,0,1-3,4.14,12,12,0,0,1-3.85,2.4,13.76,13.76,0,0,1-4.84.82q-6,0-9.36-3.93a13.41,13.41,0,0,1-.52-17.18,11.69,11.69,0,0,1,9.7-4.64,12.06,12.06,0,0,1,10,4.75,13.27,13.27,0,0,1,2.7,8.37h-22a10,10,0,0,0,2.72,7,8.69,8.69,0,0,0,6.51,2.72,10.44,10.44,0,0,0,3.63-.64,9.67,9.67,0,0,0,3-1.73A15,15,0,0,0,312.15,124.18Z"/><path id="Fill-19" class="cls-1" d="M319.41,107.82h3.21v3.58a11.15,11.15,0,0,1,3-3.16,6.08,6.08,0,0,1,3.33-1,5.61,5.61,0,0,1,2.78.84l-1.58,2.6a4.34,4.34,0,0,0-1.66-.43,4.57,4.57,0,0,0-3,1.3,8.28,8.28,0,0,0-2.22,4,38.1,38.1,0,0,0-.59,8.46v8.28h-3.21Z"/><path id="Fill-20" class="cls-1" d="M357.66,110.5l-2,2.09a7.29,7.29,0,0,0-4.93-2.45,3.72,3.72,0,0,0-2.63,1A3.1,3.1,0,0,0,347,113.5a3.52,3.52,0,0,0,.9,2.27,12.42,12.42,0,0,0,3.78,2.59,13.82,13.82,0,0,1,4.78,3.51,6.35,6.35,0,0,1,1.24,3.85,6.94,6.94,0,0,1-2.12,5.11,7.21,7.21,0,0,1-5.29,2.09,9.23,9.23,0,0,1-4-.92,8.8,8.8,0,0,1-3.19-2.55l2-2.25a6.88,6.88,0,0,0,5.12,2.72,4.62,4.62,0,0,0,3.22-1.21,3.75,3.75,0,0,0,1.33-2.86,3.67,3.67,0,0,0-.88-2.41,14.3,14.3,0,0,0-4-2.61,12.64,12.64,0,0,1-4.5-3.37,6.31,6.31,0,0,1-1.2-3.8,6.17,6.17,0,0,1,1.85-4.66,6.62,6.62,0,0,1,4.81-1.85c2.25,0,4.52,1.11,6.8,3.31"/><path id="Fill-21" class="cls-1" d="M382,117.59a10.43,10.43,0,0,0-1.84-4,8.81,8.81,0,0,0-3.18-2.43,9.86,9.86,0,0,0-4.17-.92,9,9,0,0,0-6.19,2.32,10.51,10.51,0,0,0-2.86,5.06Zm0,6.59,2.65,1.4a14.44,14.44,0,0,1-3,4.14,12,12,0,0,1-3.85,2.4,13.76,13.76,0,0,1-4.84.82q-6,0-9.36-3.93a13.41,13.41,0,0,1-.52-17.18,11.69,11.69,0,0,1,9.7-4.64,12.06,12.06,0,0,1,10,4.75,13.27,13.27,0,0,1,2.7,8.37h-22a10,10,0,0,0,2.72,7A8.69,8.69,0,0,0,372.7,130a10.44,10.44,0,0,0,3.63-.64,9.67,9.67,0,0,0,3-1.73A14.55,14.55,0,0,0,382,124.18Z"/><path id="Fill-22" class="cls-1" d="M389.21,107.82h3.21v3.58a11.15,11.15,0,0,1,3-3.16,6.08,6.08,0,0,1,3.33-1,5.61,5.61,0,0,1,2.78.84l-1.64,2.65a4.34,4.34,0,0,0-1.66-.43,4.57,4.57,0,0,0-3,1.3,8.2,8.2,0,0,0-2.22,4,38.1,38.1,0,0,0-.59,8.46v8.28h-3.21Z"/><polygon id="Fill-23" class="cls-1" points="401.94 107.82 405.28 107.82 413.5 125.67 421.61 107.82 424.98 107.82 413.78 132.31 413.2 132.31 401.94 107.82"/><path id="Fill-24" class="cls-1" d="M428.38,132.31h3.15V107.82h-3.15Zm1.56-34.57a2.51,2.51,0,0,1,1.84.77,2.6,2.6,0,0,1,0,3.67,2.5,2.5,0,0,1-1.84.76,2.47,2.47,0,0,1-1.81-.76,2.61,2.61,0,0,1,1.81-4.44Z"/><path id="Fill-4" class="cls-1" d="M54.15,110.23a9.47,9.47,0,0,0-8.39,4.93,9.92,9.92,0,0,0,0,9.89,9.72,9.72,0,0,0,3.56,3.67A9.2,9.2,0,0,0,54.15,130a9.89,9.89,0,0,0,4.9-1.3,9.08,9.08,0,0,0,3.56-3.53,10,10,0,0,0,1.24-5,9.74,9.74,0,0,0-2.79-7.1A9.22,9.22,0,0,0,54.15,110.23ZM66.76,98.37v33.94h-3.1V128.1a13.42,13.42,0,0,1-4.44,3.62A12.38,12.38,0,0,1,45,129.17,12.62,12.62,0,0,1,41.29,120,12.42,12.42,0,0,1,45,111a12.1,12.1,0,0,1,8.92-3.76,11.53,11.53,0,0,1,5.46,1.29,12.45,12.45,0,0,1,4.28,3.85v-14Z"/><path id="Fill-25" class="cls-1" d="M459.05,112.91l-2.49,1.55a10.49,10.49,0,0,0-8.83-4.3,10.2,10.2,0,0,0-7.42,2.88,9.43,9.43,0,0,0-3,7,10.09,10.09,0,0,0,1.36,5,9.58,9.58,0,0,0,3.73,3.66,11.26,11.26,0,0,0,14.12-3l2.49,1.64a11.82,11.82,0,0,1-4.71,4.1,15,15,0,0,1-6.73,1.46,13.33,13.33,0,0,1-9.63-3.69,12,12,0,0,1-3.82-9,12.92,12.92,0,0,1,1.79-6.61,12.62,12.62,0,0,1,4.91-4.76,14.36,14.36,0,0,1,7-1.71,15,15,0,0,1,4.69.75,13.08,13.08,0,0,1,3.84,1.93,10.64,10.64,0,0,1,2.67,3"/><path id="Fill-26" class="cls-1" d="M483.86,117.59a10.43,10.43,0,0,0-1.84-4,8.81,8.81,0,0,0-3.18-2.43,9.86,9.86,0,0,0-4.17-.92,9,9,0,0,0-6.19,2.32,10.51,10.51,0,0,0-2.86,5.06Zm0,6.59,2.65,1.4a14.44,14.44,0,0,1-3,4.14,12,12,0,0,1-3.84,2.4,13.76,13.76,0,0,1-4.84.82q-6,0-9.37-3.93a13.28,13.28,0,0,1-3.37-8.88,13.09,13.09,0,0,1,2.86-8.3,11.69,11.69,0,0,1,9.7-4.64,12.06,12.06,0,0,1,10,4.75,13.27,13.27,0,0,1,2.7,8.37h-22a10,10,0,0,0,2.72,7,8.66,8.66,0,0,0,6.51,2.72,10.44,10.44,0,0,0,3.63-.64,9.67,9.67,0,0,0,3-1.73A15,15,0,0,0,483.86,124.18Z"/><path id="Fill-27" class="cls-1" d="M504.57,110.5l-2,2.09a7.31,7.31,0,0,0-4.94-2.45,3.74,3.74,0,0,0-2.62,1,3.1,3.1,0,0,0-1.09,2.36,3.52,3.52,0,0,0,.9,2.27,12.42,12.42,0,0,0,3.78,2.59,13.82,13.82,0,0,1,4.78,3.51,6.35,6.35,0,0,1,1.24,3.85,6.94,6.94,0,0,1-2.12,5.11,7.21,7.21,0,0,1-5.29,2.09,9.23,9.23,0,0,1-4-.92,8.8,8.8,0,0,1-3.19-2.55l2-2.25a6.88,6.88,0,0,0,5.12,2.72,4.62,4.62,0,0,0,3.22-1.21,3.74,3.74,0,0,0,.45-5.27,14.3,14.3,0,0,0-4-2.61,12.64,12.64,0,0,1-4.5-3.37,6.31,6.31,0,0,1-1.2-3.8A6.19,6.19,0,0,1,493,109a6.59,6.59,0,0,1,4.8-1.85c2.26,0,4.52,1.11,6.81,3.31"/><path id="Fill-28" class="cls-1" d="M37.23,41.47c0-4.76-4.36-11.61-12.79-11.61-7.63,0-12.79,6.55-12.79,13.3,0,8,5.55,13.79,15.07,13.79h18A23.81,23.81,0,0,1,24.54,67.86,24.51,24.51,0,1,1,49,43.32v0A27.13,27.13,0,0,1,47.83,51H20.57V48.32L30.15,48c4.86-.2,7-2.68,7-6.55"/><polygon id="Fill-29" class="cls-1" points="69.35 34.03 78.66 20.34 91.55 20.34 75.69 42.46 92.84 66.38 79.16 66.38 68.95 51.49 58.64 66.38 45.75 66.38 62.6 43.06 46.25 20.34 59.93 20.34 69.35 34.03"/><path id="Fill-30" class="cls-1" d="M107,29.37c3.37-7.14,9.41-10.32,15.56-10.32,11.1,0,21.22,9.43,21.22,24.3s-10.12,24.31-21.22,24.31c-6.15,0-12.19-3.17-15.56-10.31-.2-.4-.5-.3-.5.09V85.32H94.62v-65h11.9v8.93c0,.4.3.49.5.1m12.29,28.47c6.94,0,13-6,13-14.49s-6-14.48-13-14.48-13,6-13,14.48,6.15,14.49,13,14.49"/><path id="Fill-31" class="cls-1" d="M184.74,41.47c0-4.76-4.36-11.61-12.79-11.61-7.63,0-12.79,6.55-12.79,13.3,0,8,5.55,13.79,15.07,13.79h18a23.81,23.81,0,0,1-20.18,10.91,24.51,24.51,0,1,1,24.48-24.54v0A27.13,27.13,0,0,1,195.34,51H168.08V48.32l9.62-.3c4.86-.2,7-2.68,7-6.55"/><path id="Fill-32" class="cls-1" d="M237.15,57.35c-3.37,7.14-9.42,10.31-15.57,10.31-11.1,0-21.21-9.42-21.21-24.3s10.11-24.31,21.21-24.31c6.15,0,12.2,3.17,15.57,10.32.2.39.49.3.49-.1V.39h11.9v66h-11.9v-9c0-.39-.29-.49-.49-.09m-12.3-28.48c-6.94,0-13,6.05-13,14.49s6,14.48,13,14.48,13-6.05,13-14.48-6.15-14.49-13-14.49"/><path id="Fill-33" class="cls-1" d="M257.15,6.94a6.94,6.94,0,1,1,6.94,6.94A6.94,6.94,0,0,1,257.15,6.94Zm1,59.43h11.9v-46h-11.9Z"/><path id="Fill-34" class="cls-1" d="M312.72,57.35c-3.37,7.14-9.42,10.31-15.57,10.31-11.1,0-21.22-9.42-21.22-24.3s10.12-24.31,21.22-24.31c6.15,0,12.2,3.17,15.57,10.32.19.39.49.3.49-.1V20.34h11.94v46h-11.9v-8.9c0-.39-.3-.49-.49-.09m-12.3-28.48c-6.94,0-13,6.05-13,14.49s6,14.48,13,14.48,13-6.05,13-14.48-6.15-14.49-13-14.49"/><path id="Fill-35" class="cls-1" d="M384.29,57.05c0-.4-.3-.5-.5-.1-3.37,7.14-9.31,10.32-15.36,10.32-11,0-21-9.33-21-24.11s10-24.11,21-24.11c6.05,0,12,3.17,15.36,10.32.2.39.5.29.5-.1V20.34h11.86V63.7c0,12.79-8.83,22.72-24.09,22.72a31,31,0,0,1-21.42-8l7.14-7.74c4.76,3.77,8.52,5.76,14.08,5.76,8.72,0,12.39-6.16,12.39-13.8ZM371.7,28.87c-6.84,0-12.79,6-12.79,14.29s5.95,14.28,12.79,14.28,12.79-5.95,12.79-14.28S378.44,28.87,371.7,28.87Z"/><path id="Fill-36" class="cls-1" d="M416.61,20.34v10c0,.2.19.3.29,0C418.49,22.1,422.06,19,428.2,19h1.1v12.5h-5.36c-4.86,0-7.33,3.77-7.33,9.13V66.37h-11.9v-46Z"/><path id="Fill-37" class="cls-1" d="M454.58,18.85a24.56,24.56,0,1,1-.06,0h.06m-.11,10.81c-7.13,0-13,6-13,13.7s5.85,13.69,13,13.69,13-6,13-13.69-5.85-13.7-13-13.7"/><path id="Fill-38" class="cls-1" d="M503.65,67.86c-11.6,0-19-7-19-17.36V20.34h11.9V49.61c0,4.56,3,7.54,7.43,7.54a7.07,7.07,0,0,0,7.15-7c0-.15,0-.31,0-.46V20.34H523V50.5c0,10.32-8,17.36-19.33,17.36"/><path id="Fill-39" class="cls-1" d="M543.6,29.37C547,22.23,553,19.05,559.16,19.05c11.1,0,21.22,9.43,21.22,24.3s-10.12,24.31-21.23,24.31c-6.15,0-12.19-3.17-15.56-10.31-.2-.4-.5-.3-.5.09V85.32H531.21v-65h11.94v8.93c0,.4.3.49.5.1m12.29,28.47c6.94,0,13-6,13-14.49s-6.05-14.48-13-14.48-13,6-13,14.48,6.15,14.49,13,14.49"/><polygon id="Fill-40" class="cls-1" points="592.65 20.29 592.65 21.51 590.58 21.51 590.58 27.2 589.13 27.2 589.13 21.51 587.05 21.51 587.05 20.29 592.65 20.29"/><path id="Fill-41" class="cls-1" d="M598.07,20.29h2.08V27.2h-1.34V21.4l-1.3,5.8h-1.36l-1.3-5.8v5.8h-1.34V20.29h2.1l1.26,5.43Z"/></g></g></g></g></g></g></g></g></g></svg>