<?xml version="1.0" encoding="utf-8"?>
<!-- Generator: Adobe Illustrator 22.0.1, SVG Export Plug-In . SVG Version: 6.00 Build 0)  -->
<svg version="1.1" id="Layer_1" xmlns="http://www.w3.org/2000/svg" xmlns:xlink="http://www.w3.org/1999/xlink" x="0px" y="0px"
	 viewBox="0 0 370 97.7" style="enable-background:new 0 0 370 97.7;" xml:space="preserve">
<style type="text/css">
	.st0{fill:#FFFFFF;}
</style>
<path class="st0" d="M115.3,35.8c0-2-1.8-4.8-5.2-4.8c-3.1,0-5.2,2.7-5.2,5.5c0,3.3,2.3,5.7,6.2,5.7h7.4c-1.7,2.7-4.8,4.5-8.3,4.5
	c-5.5,0-10-4.5-10-10.1c0-5.5,4.5-10.1,10-10.1s10,4.5,10,10.1c0,1.1-0.2,2.2-0.5,3.1h-11.2v-1.1l3.9-0.1
	C114.5,38.4,115.3,37.4,115.3,35.8"/>
<path class="st0" d="M128.7,32.4c0.2,0.3,0.3,0.3,0.5,0l3.6-5.2h5.3l-6.5,9.1l7,9.8H133l-3.9-5.7c-0.2-0.3-0.3-0.3-0.5,0l-4,5.7
	h-5.3l6.9-9.6l-6.7-9.3h5.6L128.7,32.4L128.7,32.4z"/>
<path class="st0" d="M144.7,30.9c1.4-2.9,3.9-4.2,6.4-4.2c4.5,0,8.7,3.9,8.7,10s-4.1,10-8.7,10c-2.5,0-5-1.3-6.4-4.2
	c-0.1-0.2-0.2-0.1-0.2,0v11.4h-4.9V27.2h4.9v3.7C144.5,31,144.6,31,144.7,30.9 M149.7,42.5c2.8,0,5.3-2.5,5.3-5.9
	c0-3.5-2.5-5.9-5.3-5.9s-5.3,2.5-5.3,5.9C144.4,40.1,146.9,42.5,149.7,42.5"/>
<path class="st0" d="M176.9,35.8c0-2-1.8-4.8-5.2-4.8c-3.1,0-5.2,2.7-5.2,5.5c0,3.3,2.3,5.7,6.2,5.7h7.4c-1.7,2.7-4.8,4.5-8.3,4.5
	c-5.5,0-10-4.5-10-10.1c0-5.5,4.5-10.1,10-10.1s10,4.5,10,10.1c0,1.1-0.2,2.2-0.5,3.1h-11.2v-1.1l3.9-0.1
	C176,38.4,176.9,37.4,176.9,35.8"/>
<path class="st0" d="M198.8,42.3c-1.4,2.9-3.9,4.2-6.4,4.2c-4.5,0-8.7-3.9-8.7-10s4.1-10,8.7-10c2.5,0,5,1.3,6.4,4.2
	c0.1,0.2,0.2,0.1,0.2,0V19h4.9v27H199v-3.7C199,42.2,198.9,42.2,198.8,42.3 M193.8,30.7c-2.8,0-5.3,2.5-5.3,5.9
	c0,3.5,2.5,5.9,5.3,5.9s5.3-2.5,5.3-5.9C199.1,33.1,196.6,30.7,193.8,30.7"/>
<path class="st0" d="M207.3,21.7c0-1.5,1.3-2.8,2.8-2.8s2.8,1.3,2.8,2.8s-1.3,2.9-2.8,2.9C208.6,24.5,207.3,23.2,207.3,21.7
	 M212.6,46h-4.9V27.2h4.9V46L212.6,46z"/>
<path class="st0" d="M230.5,42.3c-1.4,2.9-3.9,4.2-6.4,4.2c-4.5,0-8.7-3.9-8.7-10s4.1-10,8.7-10c2.5,0,5,1.3,6.4,4.2
	c0.1,0.2,0.2,0.1,0.2,0V27h4.9v19h-4.9v-3.7C230.7,42.2,230.6,42.2,230.5,42.3 M225.5,30.7c-2.8,0-5.3,2.5-5.3,5.9
	c0,3.5,2.5,5.9,5.3,5.9s5.3-2.5,5.3-5.9C230.8,33.1,228.3,30.7,225.5,30.7"/>
<path class="st0" d="M260.6,42.2c0-0.2-0.1-0.2-0.2,0c-1.4,2.9-3.8,4.2-6.3,4.2c-4.5,0-8.6-3.8-8.6-9.9s4.1-9.9,8.6-9.9
	c2.5,0,4.9,1.3,6.3,4.2c0.1,0.2,0.2,0.1,0.2,0v-3.7h4.9v17.8c0,5.2-3.6,9.3-9.9,9.3c-3.5,0-6.5-1.2-8.8-3.3l2.9-3.2
	c1.9,1.5,3.5,2.4,5.8,2.4c3.6,0,5.1-2.5,5.1-5.7V42.2L260.6,42.2z M255.5,30.7c-2.8,0-5.2,2.4-5.2,5.9c0,3.4,2.4,5.9,5.2,5.9
	c2.8,0,5.2-2.4,5.2-5.9C260.7,33.1,258.2,30.7,255.5,30.7"/>
<path class="st0" d="M274.2,27.2v4.1c0,0.1,0.1,0.1,0.1,0c0.6-3.4,2.1-4.6,4.6-4.6h0.4v5.1h-2.2c-2,0-3,1.5-3,3.7V46h-4.9V27.2
	H274.2L274.2,27.2z"/>
<path class="st0" d="M290.2,26.5c5.5,0,10,4.5,10,10.1c0,5.5-4.5,10.1-10,10.1c-5.6,0-10.1-4.5-10.1-10.1
	C280.1,31.1,284.6,26.5,290.2,26.5 M290.1,31c-2.9,0-5.3,2.4-5.3,5.6c0,3.2,2.4,5.6,5.3,5.6s5.3-2.4,5.3-5.6
	C295.5,33.4,293.1,31,290.1,31"/>
<path class="st0" d="M310.7,46.7c-4.7,0-7.8-2.9-7.8-7.1V27.2h4.9v12c0,1.9,1.2,3.1,3,3.1c1.7,0,2.9-1.3,2.9-3.1v-12h4.9v12.4
	C318.6,43.8,315.3,46.7,310.7,46.7"/>
<path class="st0" d="M327.4,30.9c1.4-2.9,3.9-4.2,6.4-4.2c4.5,0,8.7,3.9,8.7,10s-4.1,10-8.7,10c-2.5,0-5-1.3-6.4-4.2
	c-0.1-0.2-0.2-0.1-0.2,0v11.4h-4.9V27.2h4.9v3.7C327.2,31,327.3,31,327.4,30.9 M332.5,42.5c2.8,0,5.3-2.5,5.3-5.9
	c0-3.5-2.5-5.9-5.3-5.9s-5.3,2.5-5.3,5.9C327.1,40.1,329.7,42.5,332.5,42.5"/>
<polygon class="st0" points="347.1,27.2 347.1,27.7 346.2,27.7 346.2,30 345.6,30 345.6,27.7 344.8,27.7 344.8,27.2 "/>
<path class="st0" d="M349.3,27.2h0.9V30h-0.6v-1.9c0-0.1,0-0.1,0-0.2s0-0.2,0-0.2l-0.5,2.4h-0.6l-0.5-2.4c0,0.1,0,0.1,0,0.2
	s0,0.2,0,0.2V30h-0.6v-2.8h0.9l0.5,2.2L349.3,27.2L349.3,27.2z"/>
<g>
	<path class="st0" d="M100.5,60.9h1.3V75h-1.3V60.9z"/>
	<path class="st0" d="M109.4,64.5c1.6,0,2.9,0.6,3.9,1.7c0.9,1,1.4,2.3,1.4,3.7c0,1.4-0.5,2.7-1.5,3.7c-1,1.1-2.3,1.6-3.8,1.6
		c-1.6,0-2.8-0.5-3.8-1.6s-1.5-2.3-1.5-3.7c0-1.4,0.5-2.6,1.4-3.7C106.5,65.1,107.8,64.5,109.4,64.5z M109.4,65.8
		c-1.1,0-2,0.4-2.8,1.2s-1.2,1.8-1.2,2.9c0,0.7,0.2,1.4,0.5,2.1c0.4,0.6,0.8,1.1,1.4,1.5c0.6,0.3,1.3,0.5,2,0.5s1.4-0.2,2-0.5
		s1.1-0.8,1.4-1.5c0.4-0.6,0.5-1.3,0.5-2.1c0-1.1-0.4-2.1-1.2-2.9C111.4,66.2,110.5,65.8,109.4,65.8z"/>
	<path class="st0" d="M127.2,60.9V75h-1.3v-1.7c-0.5,0.7-1.2,1.2-1.8,1.5c-0.7,0.3-1.4,0.5-2.2,0.5c-1.4,0-2.7-0.5-3.7-1.6
		c-1-1-1.5-2.3-1.5-3.8s0.5-2.7,1.5-3.8c1-1,2.3-1.6,3.7-1.6c0.8,0,1.6,0.2,2.3,0.5c0.7,0.4,1.3,0.9,1.8,1.6v-5.8h1.2V60.9z
		 M122,65.8c-0.7,0-1.4,0.2-2,0.5c-0.6,0.4-1.1,0.9-1.5,1.5s-0.5,1.3-0.5,2.1c0,0.7,0.2,1.4,0.5,2.1c0.4,0.7,0.9,1.2,1.5,1.5
		c0.6,0.4,1.3,0.5,2,0.5s1.4-0.2,2-0.5c0.6-0.4,1.1-0.8,1.5-1.5c0.3-0.6,0.5-1.3,0.5-2.1c0-1.2-0.4-2.2-1.2-2.9
		C124.1,66.2,123.1,65.8,122,65.8z"/>
	<path class="st0" d="M138.9,64.8h1.3v8.1c0,1.4-0.1,2.5-0.4,3.1c-0.3,0.9-0.9,1.7-1.8,2.2c-0.8,0.5-1.9,0.8-3.1,0.8
		c-0.9,0-1.7-0.1-2.3-0.4c-0.7-0.2-1.3-0.6-1.7-1s-0.8-1-1.2-1.8h1.4c0.4,0.7,0.9,1.2,1.5,1.5s1.4,0.5,2.3,0.5
		c0.9,0,1.6-0.2,2.3-0.5c0.6-0.3,1.1-0.7,1.3-1.3c0.3-0.5,0.4-1.3,0.4-2.4V73c-0.5,0.6-1.1,1.1-1.8,1.4s-1.5,0.5-2.3,0.5
		c-0.9,0-1.8-0.2-2.6-0.7s-1.5-1.1-1.9-1.9s-0.7-1.6-0.7-2.6s0.2-1.8,0.7-2.6s1.1-1.5,1.9-1.9s1.7-0.7,2.6-0.7
		c0.8,0,1.5,0.2,2.1,0.5c0.7,0.3,1.3,0.8,1.9,1.6v-1.8H138.9z M135.1,65.8c-0.7,0-1.4,0.2-2.1,0.5c-0.6,0.4-1.1,0.9-1.5,1.5
		s-0.5,1.3-0.5,2c0,1.1,0.4,2,1.1,2.8c0.7,0.7,1.7,1.1,2.9,1.1s2.2-0.4,2.9-1.1s1.1-1.7,1.1-2.8c0-0.8-0.2-1.4-0.5-2
		s-0.8-1.1-1.4-1.4C136.4,66,135.8,65.8,135.1,65.8z"/>
	<path class="st0" d="M143.5,60.6c0.3,0,0.6,0.1,0.8,0.3s0.3,0.5,0.3,0.8s-0.1,0.5-0.3,0.8c-0.2,0.2-0.5,0.3-0.8,0.3
		s-0.5-0.1-0.8-0.3c-0.2-0.2-0.3-0.5-0.3-0.8s0.1-0.6,0.3-0.8C142.9,60.7,143.2,60.6,143.5,60.6z M142.8,64.8h1.3V75h-1.3V64.8z"/>
	<path class="st0" d="M146.9,64.8h1.3v1.8c0.5-0.7,1.1-1.2,1.7-1.6c0.6-0.3,1.3-0.5,2.1-0.5s1.4,0.2,2,0.6s1,0.9,1.3,1.6
		s0.4,1.7,0.4,3.1V75h-1.3v-4.8c0-1.2,0-2-0.1-2.3c-0.2-0.7-0.4-1.2-0.9-1.5c-0.4-0.3-1-0.5-1.7-0.5c-0.8,0-1.5,0.3-2.1,0.8
		s-1,1.2-1.2,1.9c-0.1,0.5-0.2,1.4-0.2,2.8V75h-1.3V64.8z"/>
	<path class="st0" d="M167.3,64.8h1.3v8.1c0,1.4-0.1,2.5-0.4,3.1c-0.3,0.9-0.9,1.7-1.8,2.2c-0.8,0.5-1.9,0.8-3.1,0.8
		c-0.9,0-1.7-0.1-2.3-0.4c-0.7-0.2-1.3-0.6-1.7-1s-0.8-1-1.2-1.8h1.4c0.4,0.7,0.9,1.2,1.5,1.5s1.4,0.5,2.3,0.5
		c0.9,0,1.6-0.2,2.3-0.5c0.6-0.3,1.1-0.7,1.3-1.3c0.3-0.5,0.4-1.3,0.4-2.4V73c-0.5,0.6-1.1,1.1-1.8,1.4s-1.5,0.5-2.3,0.5
		c-0.9,0-1.8-0.2-2.6-0.7s-1.5-1.1-1.9-1.9s-0.7-1.6-0.7-2.6s0.2-1.8,0.7-2.6s1.1-1.5,1.9-1.9c0.8-0.5,1.7-0.7,2.6-0.7
		c0.8,0,1.5,0.2,2.1,0.5c0.7,0.3,1.3,0.8,1.9,1.6v-1.8H167.3z M163.4,65.8c-0.7,0-1.4,0.2-2.1,0.5c-0.6,0.4-1.1,0.9-1.5,1.5
		s-0.5,1.3-0.5,2c0,1.1,0.4,2,1.1,2.8s1.7,1.1,2.9,1.1s2.2-0.4,2.9-1.1s1.1-1.7,1.1-2.8c0-0.8-0.2-1.4-0.5-2s-0.8-1.1-1.4-1.4
		C164.8,66,164.1,65.8,163.4,65.8z"/>
	<path class="st0" d="M176.7,64.8h1.3v1.9c0.5-0.7,1.1-1.2,1.8-1.6s1.4-0.5,2.2-0.5c1.4,0,2.7,0.5,3.7,1.6c1,1,1.5,2.3,1.5,3.8
		s-0.5,2.8-1.5,3.8s-2.2,1.6-3.7,1.6c-0.8,0-1.6-0.2-2.2-0.5c-0.7-0.3-1.3-0.8-1.8-1.5v5.5h-1.3V64.8z M181.9,65.8
		c-1.1,0-2.1,0.4-2.9,1.2c-0.8,0.8-1.2,1.8-1.2,2.9c0,0.8,0.2,1.5,0.5,2.1s0.8,1.1,1.5,1.5c0.6,0.4,1.3,0.5,2,0.5s1.4-0.2,2-0.5
		c0.6-0.4,1.1-0.9,1.5-1.5c0.4-0.7,0.5-1.3,0.5-2.1c0-0.7-0.2-1.4-0.5-2.1c-0.4-0.6-0.9-1.1-1.5-1.5C183.3,66,182.6,65.8,181.9,65.8
		z"/>
	<path class="st0" d="M199.8,64.8V75h-1.3v-1.7c-0.5,0.7-1.2,1.2-1.8,1.5c-0.7,0.3-1.4,0.5-2.2,0.5c-1.4,0-2.7-0.5-3.7-1.6
		c-1-1-1.5-2.3-1.5-3.8s0.5-2.7,1.5-3.8c1-1,2.3-1.6,3.7-1.6c0.8,0,1.6,0.2,2.3,0.5c0.7,0.4,1.3,0.9,1.8,1.6v-1.9h1.2V64.8z
		 M194.6,65.8c-0.7,0-1.4,0.2-2,0.5c-0.6,0.4-1.1,0.9-1.5,1.5s-0.5,1.3-0.5,2.1c0,0.7,0.2,1.4,0.5,2.1c0.4,0.7,0.9,1.2,1.5,1.5
		c0.6,0.4,1.3,0.5,2,0.5s1.4-0.2,2-0.5c0.6-0.4,1.1-0.8,1.5-1.5c0.3-0.6,0.5-1.3,0.5-2.1c0-1.2-0.4-2.2-1.2-2.9
		C196.7,66.2,195.7,65.8,194.6,65.8z"/>
	<path class="st0" d="M202.3,64.8h1.3v1.5c0.4-0.6,0.8-1,1.3-1.3c0.4-0.3,0.9-0.4,1.4-0.4c0.4,0,0.7,0.1,1.2,0.3l-0.7,1.1
		c-0.3-0.1-0.5-0.2-0.7-0.2c-0.4,0-0.9,0.2-1.3,0.5c-0.4,0.4-0.7,0.9-0.9,1.7c-0.2,0.6-0.2,1.7-0.2,3.5V75h-1.3V64.8H202.3z"/>
	<path class="st0" d="M209.7,61h1.3v3.8h2.1v1.1H211v9h-1.3v-9h-1.8v-1.1h1.8V61z"/>
	<path class="st0" d="M215,64.8h1.3v1.8c0.5-0.7,1.1-1.2,1.7-1.6c0.6-0.3,1.3-0.5,2.1-0.5s1.4,0.2,2,0.6s1,0.9,1.3,1.6
		s0.4,1.7,0.4,3.1V75h-1.3v-4.8c0-1.2,0-2-0.1-2.3c-0.2-0.7-0.4-1.2-0.9-1.5c-0.4-0.3-1-0.5-1.7-0.5c-0.8,0-1.5,0.3-2.1,0.8
		s-1,1.2-1.2,1.9c-0.1,0.5-0.2,1.4-0.2,2.8V75H215V64.8z"/>
	<path class="st0" d="M235.2,71.6l1.1,0.6c-0.4,0.7-0.8,1.3-1.3,1.7c-0.5,0.4-1,0.8-1.6,1s-1.3,0.3-2,0.3c-1.7,0-3-0.5-3.9-1.6
		s-1.4-2.3-1.4-3.7c0-1.3,0.4-2.4,1.2-3.4c1-1.3,2.3-1.9,4-1.9s3.1,0.7,4.1,2c0.7,0.9,1.1,2.1,1.1,3.5h-9.1c0,1.2,0.4,2.1,1.1,2.9
		c0.7,0.8,1.6,1.1,2.7,1.1c0.5,0,1-0.1,1.5-0.3c0.5-0.2,0.9-0.4,1.2-0.7C234.4,72.7,234.8,72.3,235.2,71.6z M235.2,68.9
		c-0.2-0.7-0.4-1.3-0.8-1.7c-0.3-0.4-0.8-0.8-1.3-1c-0.5-0.3-1.1-0.4-1.7-0.4c-1,0-1.9,0.3-2.6,1c-0.5,0.5-0.9,1.2-1.2,2.1H235.2z"
		/>
	<path class="st0" d="M238.6,64.8h1.3v1.5c0.4-0.6,0.8-1,1.3-1.3c0.4-0.3,0.9-0.4,1.4-0.4c0.4,0,0.7,0.1,1.2,0.3L243,66
		c-0.3-0.1-0.5-0.2-0.7-0.2c-0.4,0-0.9,0.2-1.3,0.5c-0.4,0.4-0.7,0.9-0.9,1.7c-0.2,0.6-0.2,1.7-0.2,3.5V75h-1.3V64.8z"/>
	<path class="st0" d="M255.2,65.9l-0.8,0.9c-0.7-0.7-1.4-1-2-1c-0.4,0-0.8,0.1-1.1,0.4s-0.5,0.6-0.5,1c0,0.3,0.1,0.6,0.4,0.9
		c0.2,0.3,0.8,0.7,1.6,1.1c1,0.5,1.6,1,2,1.5c0.3,0.5,0.5,1,0.5,1.6c0,0.8-0.3,1.5-0.9,2.1c-0.6,0.6-1.3,0.9-2.2,0.9
		c-0.6,0-1.1-0.1-1.7-0.4c-0.5-0.3-1-0.6-1.3-1.1l0.8-0.9c0.7,0.8,1.4,1.1,2.1,1.1c0.5,0,1-0.2,1.3-0.5c0.4-0.3,0.6-0.7,0.6-1.2
		c0-0.4-0.1-0.7-0.4-1c-0.2-0.3-0.8-0.6-1.6-1.1c-0.9-0.5-1.5-0.9-1.9-1.4c-0.3-0.5-0.5-1-0.5-1.6c0-0.8,0.3-1.4,0.8-1.9
		s1.2-0.8,2-0.8C253.3,64.5,254.3,65,255.2,65.9z"/>
	<path class="st0" d="M266.1,71.6l1.1,0.6c-0.4,0.7-0.8,1.3-1.3,1.7c-0.5,0.4-1,0.8-1.6,1s-1.3,0.3-2,0.3c-1.7,0-3-0.5-3.9-1.6
		s-1.4-2.3-1.4-3.7c0-1.3,0.4-2.4,1.2-3.4c1-1.3,2.3-1.9,4-1.9s3.1,0.7,4.1,2c0.7,0.9,1.1,2.1,1.1,3.5h-9.1c0,1.2,0.4,2.1,1.1,2.9
		s1.6,1.1,2.7,1.1c0.5,0,1-0.1,1.5-0.3c0.5-0.2,0.9-0.4,1.2-0.7C265.3,72.7,265.7,72.3,266.1,71.6z M266.1,68.9
		c-0.2-0.7-0.4-1.3-0.8-1.7c-0.3-0.4-0.8-0.8-1.3-1c-0.5-0.3-1.1-0.4-1.7-0.4c-1,0-1.9,0.3-2.6,1c-0.5,0.5-0.9,1.2-1.2,2.1H266.1z"
		/>
	<path class="st0" d="M269.5,64.8h1.3v1.5c0.4-0.6,0.8-1,1.3-1.3c0.4-0.3,0.9-0.4,1.4-0.4c0.4,0,0.7,0.1,1.2,0.3L274,66
		c-0.3-0.1-0.5-0.2-0.7-0.2c-0.4,0-0.9,0.2-1.3,0.5c-0.4,0.4-0.7,0.9-0.9,1.7c-0.2,0.6-0.2,1.7-0.2,3.5V75h-1.3L269.5,64.8
		L269.5,64.8z"/>
	<path class="st0" d="M274.7,64.8h1.4l3.4,7.4l3.4-7.4h1.4L279.7,75h-0.2L274.7,64.8z"/>
	<path class="st0" d="M286.8,60.6c0.3,0,0.6,0.1,0.8,0.3c0.2,0.2,0.3,0.5,0.3,0.8s-0.1,0.5-0.3,0.8c-0.2,0.2-0.5,0.3-0.8,0.3
		s-0.5-0.1-0.8-0.3c-0.2-0.2-0.3-0.5-0.3-0.8s0.1-0.6,0.3-0.8C286.2,60.7,286.5,60.6,286.8,60.6z M286.1,64.8h1.3V75h-1.3V64.8z"/>
	<path class="st0" d="M300,66.9l-1,0.6c-0.9-1.2-2.1-1.8-3.7-1.8c-1.2,0-2.3,0.4-3.1,1.2c-0.8,0.8-1.2,1.8-1.2,2.9
		c0,0.7,0.2,1.4,0.6,2.1s0.9,1.2,1.5,1.5c0.7,0.4,1.4,0.5,2.2,0.5c1.5,0,2.7-0.6,3.7-1.8l1,0.7c-0.5,0.7-1.1,1.3-2,1.7
		s-1.7,0.6-2.8,0.6c-1.6,0-2.9-0.5-4-1.5s-1.6-2.3-1.6-3.7c0-1,0.2-1.9,0.7-2.7c0.5-0.8,1.2-1.5,2-2c0.9-0.5,1.8-0.7,2.9-0.7
		c0.7,0,1.3,0.1,1.9,0.3c0.6,0.2,1.2,0.5,1.6,0.8C299.3,66,299.7,66.4,300,66.9z"/>
	<path class="st0" d="M311,71.6l1.1,0.6c-0.4,0.7-0.8,1.3-1.3,1.7c-0.5,0.4-1,0.8-1.6,1s-1.3,0.3-2,0.3c-1.7,0-3-0.5-3.9-1.6
		s-1.4-2.3-1.4-3.7c0-1.3,0.4-2.4,1.2-3.4c1-1.3,2.3-1.9,4-1.9s3.1,0.7,4.1,2c0.7,0.9,1.1,2.1,1.1,3.5h-9.1c0,1.2,0.4,2.1,1.1,2.9
		s1.6,1.1,2.7,1.1c0.5,0,1-0.1,1.5-0.3c0.5-0.2,0.9-0.4,1.2-0.7C310.3,72.7,310.6,72.3,311,71.6z M311,68.9
		c-0.2-0.7-0.4-1.3-0.8-1.7c-0.3-0.4-0.8-0.8-1.3-1c-0.5-0.3-1.1-0.4-1.7-0.4c-1,0-1.9,0.3-2.6,1c-0.5,0.5-0.9,1.2-1.2,2.1H311z"/>
	<path class="st0" d="M320,65.9l-0.8,0.9c-0.7-0.7-1.4-1-2-1c-0.4,0-0.8,0.1-1.1,0.4c-0.3,0.3-0.5,0.6-0.5,1c0,0.3,0.1,0.6,0.4,0.9
		c0.2,0.3,0.8,0.7,1.6,1.1c1,0.5,1.6,1,2,1.5c0.3,0.5,0.5,1,0.5,1.6c0,0.8-0.3,1.5-0.9,2.1s-1.3,0.9-2.2,0.9c-0.6,0-1.1-0.1-1.7-0.4
		c-0.5-0.3-1-0.6-1.3-1.1l0.8-0.9c0.7,0.8,1.4,1.1,2.1,1.1c0.5,0,1-0.2,1.3-0.5c0.4-0.3,0.6-0.7,0.6-1.2c0-0.4-0.1-0.7-0.4-1
		c-0.2-0.3-0.8-0.6-1.6-1.1c-0.9-0.5-1.5-0.9-1.9-1.4c-0.3-0.5-0.5-1-0.5-1.6c0-0.8,0.3-1.4,0.8-1.9s1.2-0.8,2-0.8
		C318.1,64.5,319.1,65,320,65.9z"/>
</g>
<path class="st0" d="M64.4,46.5c0-5.8-5.3-14.1-15.6-14.1c-9.3,0-15.6,8-15.6,16.2c0,9.8,6.8,16.8,18.4,16.8h22
	c-5.2,8-14.3,13.2-24.6,13.2c-16.4,0-29.7-13.4-29.7-29.8S32.5,19,49,19c16.4,0,29.8,13.4,29.8,29.8c0,3.3-0.6,6.4-1.5,9.3H44.1
	v-3.3l11.7-0.4C61.8,54.2,64.4,51.2,64.4,46.5"/>
<polygon class="st0" points="70.9,76.1 70.9,76.6 70.2,76.6 70.2,78.6 69.7,78.6 69.7,76.6 68.9,76.6 68.9,76.1 "/>
<path class="st0" d="M72.8,76.1h0.7v2.5H73v-1.7c0,0,0-0.1,0-0.2s0-0.2,0-0.2l-0.5,2.1H72l-0.5-2.1c0,0,0,0.1,0,0.2s0,0.2,0,0.2v1.7
	H71v-2.5h0.7l0.4,1.9L72.8,76.1L72.8,76.1z"/>
</svg>
