<svg xmlns="http://www.w3.org/2000/svg" viewBox="0 0 612 72"><defs><style>.cls-1{fill:#fff;}</style></defs><title>expedia_brandlogos</title><g id="Layer_2" data-name="Layer 2"><g id="Layer_1-2" data-name="Layer 1"><g id="_Group_" data-name="&lt;Group&gt;"><g id="_Group_2" data-name="&lt;Group&gt;"><path id="_Path_" data-name="&lt;Path&gt;" class="cls-1" d="M431.4,19.48c-.23,0-.25.33,0,.32a30.8,30.8,0,0,1,3.6.08A21.47,21.47,0,0,1,439.78,21a37.74,37.74,0,0,1,4.24,2.1s-3.77,2.14-5,5.32c-.07.17,0,.22.24.09,4.83-2.87,8.18-4.62,14.05-5.77.37-.07.33-.12,0-.2a30,30,0,0,1-4.35-1.37,31.82,31.82,0,0,0-9-2.33c-.48,0-1-.05-1.48-.05a42.55,42.55,0,0,0-7.09.73"/></g><g id="_Group_3" data-name="&lt;Group&gt;"><path id="_Path_2" data-name="&lt;Path&gt;" class="cls-1" d="M454.76,16.74A13.14,13.14,0,0,1,450.09,20c-.24.1-.18.24-.08.31l.35.14,2.42.78c.2.06.19,0,.28,0a7,7,0,0,0,1.85-4.36s0-.15,0-.15-.06,0-.12.1"/></g></g><g id="_Group_4" data-name="&lt;Group&gt;"><path id="_Compound_Path_" data-name="&lt;Compound Path&gt;" class="cls-1" d="M498.29,28.54h-1.55a.28.28,0,0,1-.23-.12l-4.64-8v7.81a.28.28,0,0,1-.28.28H490a.28.28,0,0,1-.28-.28V16.92a.28.28,0,0,1,.28-.28h1.55a.28.28,0,0,1,.23.12l4.66,7.65V16.92a.28.28,0,0,1,.28-.28h1.53a.28.28,0,0,1,.28.28V28.26A.28.28,0,0,1,498.29,28.54Z"/></g><g id="_Group_5" data-name="&lt;Group&gt;"><path id="_Compound_Path_2" data-name="&lt;Compound Path&gt;" class="cls-1" d="M514.59,28.54H513a.28.28,0,0,1-.28-.28V16.92a.28.28,0,0,1,.28-.28h1.54a.28.28,0,0,1,.28.28V28.26A.28.28,0,0,1,514.59,28.54Z"/></g><g id="_Group_6" data-name="&lt;Group&gt;"><g id="_Group_7" data-name="&lt;Group&gt;"><path id="_Compound_Path_3" data-name="&lt;Compound Path&gt;" class="cls-1" d="M505.8,28.7a4.45,4.45,0,0,1-3.53-1.54A6.93,6.93,0,0,1,501,22.79v-.43a8.19,8.19,0,0,1,.61-3.23,4.56,4.56,0,0,1,1.76-2,5,5,0,0,1,2.61-.68,4.58,4.58,0,0,1,3.17,1.08,4.24,4.24,0,0,1,1.29,2.31.28.28,0,0,1-.28.34h-1.57a.28.28,0,0,1-.27-.21,2.46,2.46,0,0,0-.66-1.2,2.42,2.42,0,0,0-1.68-.54,2.49,2.49,0,0,0-2.09,1,5.63,5.63,0,0,0-.78,3.17v.44a5.82,5.82,0,0,0,.74,3.1,2.3,2.3,0,0,0,2,1,2.77,2.77,0,0,0,1.79-.5,2.36,2.36,0,0,0,.69-1.23.28.28,0,0,1,.27-.21h1.57a.28.28,0,0,1,.27.34A4.2,4.2,0,0,1,509,27.65,4.85,4.85,0,0,1,505.8,28.7Z"/></g></g><path id="_Path_3" data-name="&lt;Path&gt;" class="cls-1" d="M465.73,28.54h-5.81a.28.28,0,0,1-.28-.28V16.92a.28.28,0,0,1,.28-.28h5.81a.28.28,0,0,1,.28.28v1.22a.28.28,0,0,1-.28.28h-4v3.09h4a.28.28,0,0,1,.28.28V23a.28.28,0,0,1-.28.28h-4v3.46h4A.28.28,0,0,1,466,27v1.22A.28.28,0,0,1,465.73,28.54Z"/><path id="_Path_4" data-name="&lt;Path&gt;" class="cls-1" d="M486.43,28.54h-5.81a.28.28,0,0,1-.28-.28V16.92a.28.28,0,0,1,.28-.28h5.81a.28.28,0,0,1,.28.28v1.22a.28.28,0,0,1-.28.28h-4v3.09h4a.28.28,0,0,1,.28.28V23a.28.28,0,0,1-.28.28h-4v3.46h4a.28.28,0,0,1,.28.28v1.22A.28.28,0,0,1,486.43,28.54Z"/><path id="_Compound_Path_4" data-name="&lt;Compound Path&gt;" class="cls-1" d="M527.4,28.16l-4.33-11.34a.27.27,0,0,0-.25-.18h-1.31a.27.27,0,0,0-.25.18l-4.32,11.34a.29.29,0,0,0,0,.26.27.27,0,0,0,.23.12H519a12.7,12.7,0,0,1,5.26-3.16l1.08,3a.27.27,0,0,0,.26.18h1.53a.27.27,0,0,0,.23-.12A.29.29,0,0,0,527.4,28.16Zm-7.15-2.67-.28.13.08-.22.45-1.22,1.66-4.6,1.77,4.88A20.47,20.47,0,0,0,520.26,25.48Z"/><g id="_Group_8" data-name="&lt;Group&gt;"><g id="_Group_9" data-name="&lt;Group&gt;"><path id="_Compound_Path_5" data-name="&lt;Compound Path&gt;" class="cls-1" d="M473.2,28.7a5.09,5.09,0,0,1-2.64-.69,4.65,4.65,0,0,1-1.8-2,6.6,6.6,0,0,1-.64-2.9v-1A6.19,6.19,0,0,1,469.41,18a4.55,4.55,0,0,1,3.62-1.5,4.71,4.71,0,0,1,3.08,1h0a3.93,3.93,0,0,1,1.22,1.83.28.28,0,0,1,0,.25.28.28,0,0,1-.23.12h-1.59a.28.28,0,0,1-.25-.16,2.18,2.18,0,0,0-2.2-1.22,2.43,2.43,0,0,0-2.09.94,4.85,4.85,0,0,0-.74,2.89V23a4.52,4.52,0,0,0,.83,2.86,2.6,2.6,0,0,0,2.18,1,5.14,5.14,0,0,0,1.42-.18,2.09,2.09,0,0,0,.86-.48v-3h-1.87a.28.28,0,0,1-.28-.28V21.8a.28.28,0,0,1,.28-.28h3.95v5.25a.28.28,0,0,1-.05.16,3.79,3.79,0,0,1-1.76,1.33A7,7,0,0,1,473.2,28.7Z"/></g></g><g id="_Group_10" data-name="&lt;Group&gt;"><g id="_Group_11" data-name="&lt;Group&gt;"><path id="_Compound_Path_6" data-name="&lt;Compound Path&gt;" class="cls-1" d="M459.62,35.93V33.24h.84a1,1,0,0,1,.63.18.67.67,0,0,1,.21.54.56.56,0,0,1-.1.33.68.68,0,0,1-.28.22.6.6,0,0,1,.33.23.69.69,0,0,1,.12.41.73.73,0,0,1-.22.57.9.9,0,0,1-.64.21Zm.34-1.54h.51a.52.52,0,0,0,.36-.12A.4.4,0,0,0,461,34a.39.39,0,0,0-.12-.32.59.59,0,0,0-.38-.1H460Zm0,.28v1h.56a.53.53,0,0,0,.37-.13.46.46,0,0,0,.14-.35q0-.49-.51-.49Z"/><path id="_Compound_Path_7" data-name="&lt;Compound Path&gt;" class="cls-1" d="M464.06,33.24v1.83a.88.88,0,0,1-.23.62.91.91,0,0,1-.62.27h-.09a.94.94,0,0,1-.67-.24.87.87,0,0,1-.26-.66V33.24h.34v1.82a.63.63,0,0,0,.15.45.68.68,0,0,0,.88,0,.63.63,0,0,0,.15-.45V33.24Z"/><path id="_Compound_Path_8" data-name="&lt;Compound Path&gt;" class="cls-1" d="M465.72,34.73a1.57,1.57,0,0,1-.64-.32.63.63,0,0,1-.2-.47.66.66,0,0,1,.24-.53.94.94,0,0,1,.63-.21,1,1,0,0,1,.47.11.79.79,0,0,1,.32.3.78.78,0,0,1,.11.41h-.34a.5.5,0,0,0-.15-.38.59.59,0,0,0-.42-.14.6.6,0,0,0-.39.12.39.39,0,0,0-.14.32.35.35,0,0,0,.13.28,1.29,1.29,0,0,0,.46.21,2.06,2.06,0,0,1,.5.21.78.78,0,0,1,.27.26.7.7,0,0,1,.09.36.64.64,0,0,1-.24.52,1,1,0,0,1-.65.2,1.17,1.17,0,0,1-.5-.11.84.84,0,0,1-.36-.29.73.73,0,0,1-.12-.42h.34a.47.47,0,0,0,.17.38.71.71,0,0,0,.46.14.65.65,0,0,0,.41-.11.38.38,0,0,0,.14-.31.37.37,0,0,0-.13-.31A1.5,1.5,0,0,0,465.72,34.73Z"/><path id="_Compound_Path_9" data-name="&lt;Compound Path&gt;" class="cls-1" d="M468,35.93h-.34V33.24H468Z"/><path id="_Compound_Path_10" data-name="&lt;Compound Path&gt;" class="cls-1" d="M471.09,35.93h-.34l-1.3-2.07v2.07h-.34V33.24h.34l1.3,2.08V33.24h.34Z"/><path id="_Compound_Path_11" data-name="&lt;Compound Path&gt;" class="cls-1" d="M473.59,34.69h-1.12v1h1.3v.29h-1.64V33.24h1.62v.29h-1.28v.87h1.12Z"/><path id="_Compound_Path_12" data-name="&lt;Compound Path&gt;" class="cls-1" d="M475.39,34.73a1.57,1.57,0,0,1-.64-.32.63.63,0,0,1-.2-.47.66.66,0,0,1,.24-.53.94.94,0,0,1,.63-.21,1,1,0,0,1,.47.11.79.79,0,0,1,.32.3.78.78,0,0,1,.11.41H476a.5.5,0,0,0-.15-.38.59.59,0,0,0-.42-.14.6.6,0,0,0-.39.12.39.39,0,0,0-.14.32.35.35,0,0,0,.13.28,1.29,1.29,0,0,0,.46.21,2.06,2.06,0,0,1,.5.21.78.78,0,0,1,.27.26.7.7,0,0,1,.09.36.64.64,0,0,1-.24.52,1,1,0,0,1-.65.2,1.17,1.17,0,0,1-.5-.11.84.84,0,0,1-.36-.29.73.73,0,0,1-.12-.42h.34a.47.47,0,0,0,.17.38.71.71,0,0,0,.46.14.65.65,0,0,0,.41-.11.38.38,0,0,0,.14-.31.37.37,0,0,0-.13-.31A1.5,1.5,0,0,0,475.39,34.73Z"/><path id="_Compound_Path_13" data-name="&lt;Compound Path&gt;" class="cls-1" d="M478,34.73a1.57,1.57,0,0,1-.64-.32.63.63,0,0,1-.2-.47.66.66,0,0,1,.24-.53.94.94,0,0,1,.63-.21,1,1,0,0,1,.47.11.79.79,0,0,1,.32.3.78.78,0,0,1,.11.41h-.34a.5.5,0,0,0-.15-.38.59.59,0,0,0-.42-.14.6.6,0,0,0-.39.12.39.39,0,0,0-.14.32.35.35,0,0,0,.13.28,1.29,1.29,0,0,0,.46.21,2.06,2.06,0,0,1,.5.21.78.78,0,0,1,.27.26.7.7,0,0,1,.09.36.64.64,0,0,1-.24.52,1,1,0,0,1-.65.2,1.17,1.17,0,0,1-.5-.11.84.84,0,0,1-.36-.29.73.73,0,0,1-.12-.42h.34a.47.47,0,0,0,.17.38.71.71,0,0,0,.46.14.65.65,0,0,0,.41-.11.38.38,0,0,0,.14-.31.37.37,0,0,0-.13-.31A1.5,1.5,0,0,0,478,34.73Z"/><path id="_Compound_Path_14" data-name="&lt;Compound Path&gt;" class="cls-1" d="M482.7,33.53h-.83v2.4h-.34v-2.4h-.83v-.29h2Z"/><path id="_Compound_Path_15" data-name="&lt;Compound Path&gt;" class="cls-1" d="M484.25,34.84h-.61v1.09h-.34V33.24h.85a1,1,0,0,1,.67.21.76.76,0,0,1,.23.6.74.74,0,0,1-.13.44.78.78,0,0,1-.36.28l.61,1.14v0h-.36Zm-.61-.29h.52a.58.58,0,0,0,.4-.14.47.47,0,0,0,.15-.37.5.5,0,0,0-.14-.38.59.59,0,0,0-.41-.14h-.52Z"/><path id="_Compound_Path_16" data-name="&lt;Compound Path&gt;" class="cls-1" d="M487.25,35.23h-1.08l-.24.7h-.35l1-2.69h.3l1,2.69h-.35Zm-1-.29h.88l-.44-1.26Z"/><path id="_Compound_Path_17" data-name="&lt;Compound Path&gt;" class="cls-1" d="M489.11,35.46l.74-2.22h.37l-1,2.69H489l-1-2.69h.37Z"/><path id="_Compound_Path_18" data-name="&lt;Compound Path&gt;" class="cls-1" d="M492.31,34.69h-1.12v1h1.3v.29h-1.64V33.24h1.62v.29h-1.28v.87h1.12Z"/><path id="_Compound_Path_19" data-name="&lt;Compound Path&gt;" class="cls-1" d="M493.69,35.64h1.22v.29h-1.56V33.24h.34Z"/><path id="_Compound_Path_20" data-name="&lt;Compound Path&gt;" class="cls-1" d="M502.47,34.69h-1.12v1h1.3v.29H501V33.24h1.62v.29h-1.28v.87h1.12Z"/><path id="_Compound_Path_21" data-name="&lt;Compound Path&gt;" class="cls-1" d="M504.35,34.27l.62-1h.4l-.81,1.33.83,1.36H505l-.63-1-.64,1h-.4l.84-1.36-.82-1.33h.4Z"/><path id="_Compound_Path_22" data-name="&lt;Compound Path&gt;" class="cls-1" d="M506.49,34.88v1.05h-.34V33.24h1a.93.93,0,0,1,.66.23.78.78,0,0,1,.24.6.77.77,0,0,1-.23.6,1,1,0,0,1-.67.21Zm0-.29h.61a.6.6,0,0,0,.42-.13.5.5,0,0,0,.14-.39.52.52,0,0,0-.14-.38.56.56,0,0,0-.4-.15h-.63Z"/><path id="_Compound_Path_23" data-name="&lt;Compound Path&gt;" class="cls-1" d="M510.18,34.69h-1.12v1h1.3v.29h-1.64V33.24h1.62v.29h-1.28v.87h1.12Z"/><path id="_Compound_Path_24" data-name="&lt;Compound Path&gt;" class="cls-1" d="M511.15,35.93V33.24h.73a1.14,1.14,0,0,1,.59.16,1,1,0,0,1,.4.44,1.49,1.49,0,0,1,.14.66v.17a1.49,1.49,0,0,1-.14.67,1,1,0,0,1-.4.44,1.21,1.21,0,0,1-.61.16Zm.34-2.4v2.11h.36a.76.76,0,0,0,.61-.25,1.08,1.08,0,0,0,.22-.73V34.5a1.1,1.1,0,0,0-.21-.71.72.72,0,0,0-.59-.26Z"/><path id="_Compound_Path_25" data-name="&lt;Compound Path&gt;" class="cls-1" d="M514.4,35.93h-.34V33.24h.34Z"/><path id="_Compound_Path_26" data-name="&lt;Compound Path&gt;" class="cls-1" d="M517,35.23h-1.08l-.24.7h-.35l1-2.69h.3l1,2.69h-.35Zm-1-.29h.88l-.44-1.26Z"/><path id="_Compound_Path_27" data-name="&lt;Compound Path&gt;" class="cls-1" d="M518.45,36.46l-.19-.13a.91.91,0,0,0,.17-.5v-.31h.32v.27a.94.94,0,0,1-.31.67Z"/><path id="_Compound_Path_28" data-name="&lt;Compound Path&gt;" class="cls-1" d="M521.43,35.93h-.34V33.24h.34Z"/><path id="_Compound_Path_29" data-name="&lt;Compound Path&gt;" class="cls-1" d="M524.54,35.93h-.34l-1.3-2.07v2.07h-.34V33.24h.34l1.3,2.08V33.24h.34Z"/><path id="_Compound_Path_30" data-name="&lt;Compound Path&gt;" class="cls-1" d="M527.4,35.08a1,1,0,0,1-.3.66,1,1,0,0,1-.68.23.89.89,0,0,1-.73-.34,1.41,1.41,0,0,1-.28-.91v-.26a1.58,1.58,0,0,1,.13-.66,1,1,0,0,1,.91-.59.91.91,0,0,1,.66.24,1,1,0,0,1,.29.66h-.34a.79.79,0,0,0-.19-.47.57.57,0,0,0-.41-.14.6.6,0,0,0-.51.25,1.19,1.19,0,0,0-.19.72v.26a1.23,1.23,0,0,0,.18.7.56.56,0,0,0,.49.26.64.64,0,0,0,.43-.13.75.75,0,0,0,.2-.47Z"/><path id="_Compound_Path_31" data-name="&lt;Compound Path&gt;" class="cls-1" d="M528.26,35.75a.22.22,0,0,1,.05-.15.19.19,0,0,1,.15-.06.19.19,0,0,1,.15.06.22.22,0,0,1,.05.15.2.2,0,0,1-.05.14.2.2,0,0,1-.15.06.19.19,0,0,1-.15-.06A.21.21,0,0,1,528.26,35.75Z"/></g><path id="_Path_5" data-name="&lt;Path&gt;" class="cls-1" d="M497.82,34.17a.42.42,0,1,1-.42.42.42.42,0,0,1,.42-.42Z"/></g><g id="_Group_12" data-name="&lt;Group&gt;"><path id="_Compound_Path_32" data-name="&lt;Compound Path&gt;" class="cls-1" d="M529.48,17.19a1.06,1.06,0,0,0-.4-.4,1.13,1.13,0,0,0-1.11,0,1.05,1.05,0,0,0-.4.4,1.11,1.11,0,0,0,0,1.1,1.07,1.07,0,0,0,.4.4,1.13,1.13,0,0,0,1.11,0,1.07,1.07,0,0,0,.4-.4,1.11,1.11,0,0,0,0-1.1Zm-.16,1a.88.88,0,0,1-.33.34.93.93,0,0,1-.92,0,.89.89,0,0,1-.33-.33.94.94,0,0,1,0-.92.88.88,0,0,1,.33-.33.92.92,0,0,1,.46-.12.9.9,0,0,1,.47.13.88.88,0,0,1,.33.33.94.94,0,0,1,0,.91Z"/><path id="_Compound_Path_33" data-name="&lt;Compound Path&gt;" class="cls-1" d="M528.91,18.13s0-.07,0-.14a.38.38,0,0,0,0-.16.2.2,0,0,0-.11-.1.23.23,0,0,0,.14-.21.27.27,0,0,0-.1-.23.44.44,0,0,0-.28-.08h-.33v1h.18v-.39h.19a.18.18,0,0,1,.13,0,.18.18,0,0,1,0,.13.93.93,0,0,0,0,.23h.18v0A.23.23,0,0,1,528.91,18.13Zm-.23-.5a.24.24,0,0,1-.14,0h-.17v-.29h.17a.25.25,0,0,1,.15,0,.14.14,0,0,1,0,.12A.11.11,0,0,1,528.68,17.63Z"/></g><g id="Expedia"><path class="cls-1" d="M48.64,29.09H45.46l-2.71-3.31L40,29.07H37.5l0,0a0,0,0,0,1,0,0l4-4.9-3.94-4.86s0,0,0,0l0,0h3.15a0,0,0,0,1,0,0l2.38,3,2.42-3H48.1l0,0s0,0,0,0l-3.74,4.5L48.67,29a0,0,0,0,1,0,0l0,0Z"/><path class="cls-1" d="M70.21,24.76l0,0H63a2.72,2.72,0,0,0,3,2.63,8.3,8.3,0,0,0,3.86-1.24,0,0,0,0,1,.06,0v2.22a0,0,0,0,1,0,0,11.88,11.88,0,0,1-4.22,1.07h0a5.18,5.18,0,0,1-5.35-5.36,5.18,5.18,0,0,1,5.35-5.37,4.36,4.36,0,0,1,4.64,4.52C70.29,23.75,70.21,24.73,70.21,24.76Zm-4.56-3.82A2.55,2.55,0,0,0,63,23.26h4.74v-.1a2.15,2.15,0,0,0-2.12-2.22Z"/><path class="cls-1" d="M83.53,29.09a0,0,0,0,1,0,0v-9.8a0,0,0,0,1,0,0h2.6s0,0,0,0V29a0,0,0,0,1,0,0Zm1.29-11.92a1.59,1.59,0,0,1-1.6-1.57,1.6,1.6,0,1,1,3.2,0,1.59,1.59,0,0,1-1.6,1.57Z"/><path class="cls-1" d="M54.1,18.8a6.89,6.89,0,0,0-2.25.4H49.26s0,0,0,0V35.32a6,6,0,0,0,2.66-1V29.38a12.36,12.36,0,0,0,1.67.15c3.54,0,5.84-2.12,5.84-5.41A5.08,5.08,0,0,0,54.1,18.8Zm-.71,8.81a5.7,5.7,0,0,1-1.5-.22V21.11a5.69,5.69,0,0,1,1.77-.3,3,3,0,0,1,3,3.3A3.18,3.18,0,0,1,53.39,27.61Z"/><path class="cls-1" d="M78.8,14v5.13a7.52,7.52,0,0,0-2.1-.31,5.29,5.29,0,0,0-5.41,5.4c0,3.07,2.05,5.3,4.87,5.3a6.26,6.26,0,0,0,3-.79v.88a5.85,5.85,0,0,0,2.33-1V13A5.79,5.79,0,0,0,78.8,14Zm0,12.79a4.86,4.86,0,0,1-2.21.63c-1.61,0-2.57-1.14-2.57-3,0-2.2,1.23-3.62,3.13-3.62a3.93,3.93,0,0,1,1.65.41Z"/><path class="cls-1" d="M97.82,19.09a.11.11,0,0,0-.11-.11h-2.1a.11.11,0,0,0-.11.11v.36h-.05a6.32,6.32,0,0,0-2.61-.62,5.29,5.29,0,0,0-5.19,5.49,4.87,4.87,0,0,0,5.07,5.21,3.33,3.33,0,0,0,2.83-1.18v1.26a6,6,0,0,0,2.27-1Zm-2.67,7.7a4.24,4.24,0,0,1-2.05.67c-1.72,0-2.75-1.13-2.75-3,0-2.16,1.21-3.61,3-3.61a4,4,0,0,1,1.79.56Z"/><path class="cls-1" d="M30.31,26.63h6.52a5.85,5.85,0,0,1-.91,2.45H29.14a1.61,1.61,0,0,1-1.6-1.45.1.1,0,0,1,0,0V14.7a1.62,1.62,0,0,1,1.6-1.46h7.68a6,6,0,0,1-.91,2.47H30.31v3.5h5.54a0,0,0,0,1,0,0v2.43a0,0,0,0,1,0,0H30.31v4.92Z"/><path class="cls-1" d="M22.15,26.92a1.25,1.25,0,1,0,1.22,1.25A1.21,1.21,0,0,0,22.15,26.92Zm0,2.37a1.12,1.12,0,1,1,1-1.12A1.05,1.05,0,0,1,22.15,29.29Z"/><path class="cls-1" d="M22.73,27.85c0-.3-.18-.42-.54-.42h-.56V28.9h.25v-.63h.22l.38.63h.27l-.41-.64A.38.38,0,0,0,22.73,27.85Zm-.87.21v-.45h.3c.16,0,.34,0,.34.21s-.17.24-.36.24Z"/><path class="cls-1" d="M100,18.47a1.25,1.25,0,1,0,1.22,1.25A1.21,1.21,0,0,0,100,18.47Zm0,2.36a1,1,0,0,1-1-1.11,1,1,0,1,1,1,1.11Z"/><path class="cls-1" d="M100.54,19.4c0-.29-.18-.42-.54-.42h-.56v1.48h.24v-.63h.23l.38.63h.27l-.41-.65A.38.38,0,0,0,100.54,19.4Zm-.87.21v-.45H100c.16,0,.34,0,.34.21s-.17.24-.36.24Z"/><path class="cls-1" d="M13.74,15.7l-.47-1.34L9.25,9,10,8.82l6.92,6L21,13.63a5.8,5.8,0,0,1,1.44-.14A11.74,11.74,0,0,0,.13,20.18L9.88,16.8Z"/><path class="cls-1" d="M22.82,14.55a6.61,6.61,0,0,1-1.4.7l-4.08,1.16-2.73,8.73-.7.23.58-6.67-.32-1.39-3.82,1.09L.24,20.79a11.74,11.74,0,1,0,22.58-6.24Z"/></g><g id="Hotels"><path class="cls-1" d="M172,27a1,1,0,1,0,0,2.09A1,1,0,1,0,172,27Z"/><path class="cls-1" d="M189.7,19.25a5.33,5.33,0,0,0-1.43-.17,5,5,0,0,0-1.46.18,5,5,0,0,0-3.59,4.55c0,.05,0,.1,0,.15-.81,1.53-2.34,3.61-4.61,3.58a3.19,3.19,0,0,1-2.43-1.11,3.6,3.6,0,0,1-.72-2.24,3.16,3.16,0,0,1,3.07-3.44,3,3,0,0,1,2.33,1,.86.86,0,0,0,.67.32,1,1,0,0,0,.87-.56.8.8,0,0,0-.15-.89A4.43,4.43,0,0,0,178.68,19a4.89,4.89,0,0,0-5.13,4.82,5.56,5.56,0,0,0,1.15,3.78,5.16,5.16,0,0,0,3.89,1.73,6.27,6.27,0,0,0,5.11-2.89,5.14,5.14,0,0,0,8.45,1.08,5.17,5.17,0,0,0,1.16-3.71A5,5,0,0,0,189.7,19.25Zm1,7.09a3.3,3.3,0,0,1-2.43,1.11,3.13,3.13,0,0,1-2.4-1.11,3.32,3.32,0,0,1-.74-2.14A3.13,3.13,0,0,1,187.36,21a3.55,3.55,0,0,1,.9-.13,4,4,0,0,1,.94.13,3.15,3.15,0,0,1,2.25,3.25A3.44,3.44,0,0,1,190.7,26.34Z"/><path class="cls-1" d="M205.73,19.17a4.74,4.74,0,0,0-3.56,1.55,4.72,4.72,0,0,0-3.56-1.55,4.28,4.28,0,0,0-4.5,4.19v4.91a.89.89,0,0,0,1,.92.87.87,0,0,0,.93-.92V23.42a2.62,2.62,0,0,1,5.23,0v4.85a.87.87,0,0,0,.94.92h0a.87.87,0,0,0,.94-.92V23.42a2.62,2.62,0,0,1,5.23,0v4.85a.87.87,0,0,0,.94.92.89.89,0,0,0,1-.92V23.36A4.28,4.28,0,0,0,205.73,19.17Z"/><path class="cls-1" d="M152,19H152a5.69,5.69,0,0,0-2.93.21,4.91,4.91,0,0,0-3.12,3.44,5.76,5.76,0,0,0,.19,3.43,8.25,8.25,0,0,1-2.2,1.21h0a2,2,0,0,1-.69.12h-.07c-.85,0-1.18-.57-1.18-1.88V21h1.67a1,1,0,0,0,.71-.28.89.89,0,0,0,.25-.63.92.92,0,0,0-1-.91h-1.67V17.39a1,1,0,0,0-1-1,1,1,0,0,0-1,1v1.78h-1.07a.92.92,0,0,0-1,.93.88.88,0,0,0,.25.62,1,1,0,0,0,.71.27h1.07v4.57c0,1.51.32,3.54,3.09,3.68h.23a4.21,4.21,0,0,0,1.4-.24A8.36,8.36,0,0,0,147,27.71l.1.13a5.14,5.14,0,0,0,4.15,1.5h.1a5,5,0,0,0,3.37-1.46,1,1,0,0,0,.2-1.09,1,1,0,0,0-.9-.49,1.09,1.09,0,0,0-.69.33,3.84,3.84,0,0,1-2.27.89,3.08,3.08,0,0,1-3.24-2l7.06-.49a1.23,1.23,0,0,0,.93-.42,1.05,1.05,0,0,0,.19-.83A5,5,0,0,0,152,19Zm-4.37,4.73A3.09,3.09,0,0,1,149.74,21a3.69,3.69,0,0,1,1.66-.19l.2,0a3.21,3.21,0,0,1,2.51,2.47Z"/><path class="cls-1" d="M125.94,16.38a.91.91,0,0,0-.94.94V22h-7v-4.7a.92.92,0,0,0-1-.93.89.89,0,0,0-.92.93v11a.92.92,0,0,0,.31.71,1,1,0,0,0,.65.25.89.89,0,0,0,.91-1V23.73h7v4.55a.92.92,0,0,0,.93,1h0a.94.94,0,0,0,1-1v-11A.91.91,0,0,0,125.94,16.38Z"/><path class="cls-1" d="M134.58,19.25a5.32,5.32,0,0,0-1.43-.17,5,5,0,0,0-1.47.18,5,5,0,0,0-3.59,4.55,5.14,5.14,0,0,0,1.18,3.71,5.17,5.17,0,0,0,7.75,0,5.17,5.17,0,0,0,1.16-3.71A5,5,0,0,0,134.58,19.25Zm1,7.09a3.31,3.31,0,0,1-2.43,1.11,3.13,3.13,0,0,1-2.4-1.11A3.31,3.31,0,0,1,130,24.2,3.13,3.13,0,0,1,132.24,21a3.56,3.56,0,0,1,.9-.13,4,4,0,0,1,.94.13,3.15,3.15,0,0,1,2.25,3.25A3.46,3.46,0,0,1,135.58,26.34Z"/><path class="cls-1" d="M158.2,16.38a.91.91,0,0,0-1,.91v11a.91.91,0,0,0,1,.9.92.92,0,0,0,.94-.9v-11A.92.92,0,0,0,158.2,16.38Z"/><path class="cls-1" d="M165.33,23.16h0l-.38,0c-1.52-.1-2.18-.22-2.18-1,0-.9,1.39-1.31,2.38-1.31,1.44,0,2.26.31,2.5,1a.84.84,0,0,0,.82.56,1.06,1.06,0,0,0,.84-.4.89.89,0,0,0,.12-.8h0c-.53-1.37-2-2.07-4.27-2.07-2.12,0-4.27,1.06-4.27,3.08,0,2.47,2.27,2.68,4.27,2.87l.26,0c1.52.1,2.45.22,2.45,1,0,1-1.74,1.39-2.54,1.39-1.4,0-2.55-.44-2.67-1a.88.88,0,0,0-.88-.76,1,1,0,0,0-.81.39.82.82,0,0,0-.14.73c.45,2.19,3.29,2.43,4.5,2.43,1.65,0,4.43-.67,4.43-3.16S167.38,23.35,165.33,23.16Z"/><path class="cls-1" d="M211,18.2a.73.73,0,1,1-.73.73A.72.72,0,0,1,211,18.2Zm0,1.34a.61.61,0,0,0,.6-.61.62.62,0,0,0-.6-.62.61.61,0,0,0-.6.62A.6.6,0,0,0,211,19.54Zm-.16-.24s0,.09-.06.09,0,0,0-.09v-.74s0,0,0,0H211c.19,0,.29.08.29.24a.21.21,0,0,1-.19.23l.18.27a.11.11,0,0,1,0,.07s0,.06,0,.06a.08.08,0,0,1-.08-.06L211,19h-.16Zm0-.4H211c.11,0,.22,0,.22-.14s-.09-.15-.19-.15h-.19Z"/></g><g id="Trivago"><polygon class="cls-1" points="369.52 19.2 372.81 19.2 375.31 25.91 375.35 25.91 377.67 19.2 380.74 19.2 376.84 29.08 373.61 29.08 369.52 19.2"/><path class="cls-1" d="M357.57,21.64h-2.95v3.29a5.74,5.74,0,0,0,0,.74,1.42,1.42,0,0,0,.2.58,1,1,0,0,0,.48.37,2.31,2.31,0,0,0,.86.13,6.32,6.32,0,0,0,.71,0,1.25,1.25,0,0,0,.66-.24V29a5.78,5.78,0,0,1-1.16.24,11.25,11.25,0,0,1-1.18.06,6.89,6.89,0,0,1-1.57-.16,3.81,3.81,0,0,1-1.25-.51,2.53,2.53,0,0,1-.84-.92,2.94,2.94,0,0,1-.3-1.38V21.64h-2.14V19.21h2.14V16.28h3.35v2.92h2.95Z"/><path class="cls-1" d="M358.43,19.21h3v1.58h0a3.76,3.76,0,0,1,1.16-1.37,2.92,2.92,0,0,1,1.69-.46l.53,0a2.54,2.54,0,0,1,.49.08v2.78a4.43,4.43,0,0,0-.64-.16,4,4,0,0,0-.66-.05,3.21,3.21,0,0,0-1.38.25,1.79,1.79,0,0,0-.78.68,2.55,2.55,0,0,0-.36,1,10.29,10.29,0,0,0-.08,1.34v4.12h-3Z"/><path class="cls-1" d="M366.09,19.21h3v9.87h-3Zm-.1-2.63a1.62,1.62,0,1,1,.47,1.14,1.55,1.55,0,0,1-.47-1.14"/><path class="cls-1" d="M385.9,24.75l-.86,0a4.26,4.26,0,0,0-1,.17,2.18,2.18,0,0,0-.81.43,1,1,0,0,0-.33.79.88.88,0,0,0,.47.81,2,2,0,0,0,1,.26,3,3,0,0,0,.86-.12,2.6,2.6,0,0,0,.74-.35,1.68,1.68,0,0,0,.52-.57,1.65,1.65,0,0,0,.19-.81v-.65Zm.75,3.09h0A2.87,2.87,0,0,1,385.26,29a4.76,4.76,0,0,1-3.11.15,3.32,3.32,0,0,1-1.13-.58,2.75,2.75,0,0,1-.77-1,2.89,2.89,0,0,1-.29-1.31,3.06,3.06,0,0,1,.32-1.45,2.82,2.82,0,0,1,.85-1,4.33,4.33,0,0,1,1.23-.6,9.64,9.64,0,0,1,1.43-.31,11.89,11.89,0,0,1,1.48-.12l1.37,0a1.58,1.58,0,0,0-.58-1.29A2.06,2.06,0,0,0,384.7,21a3,3,0,0,0-1.37.31,3.74,3.74,0,0,0-1.11.87l-1.63-1.67a5.53,5.53,0,0,1,2-1.19,7.07,7.07,0,0,1,2.36-.4,6.17,6.17,0,0,1,2.2.33,3.27,3.27,0,0,1,1.38,1,3.79,3.79,0,0,1,.72,1.6,10.35,10.35,0,0,1,.2,2.18v5h-2.8Z"/><path class="cls-1" d="M403.64,24.14a2.72,2.72,0,0,0,.58,1.81,2.26,2.26,0,0,0,3.25,0,2.72,2.72,0,0,0,.58-1.81,2.72,2.72,0,0,0-.58-1.81,2.26,2.26,0,0,0-3.25,0,2.72,2.72,0,0,0-.58,1.81m-2.76,0a5.68,5.68,0,0,1,.39-2.13,4.93,4.93,0,0,1,1.06-1.63,4.59,4.59,0,0,1,1.58-1,5.31,5.31,0,0,1,3.88,0,4.57,4.57,0,0,1,1.58,1A5,5,0,0,1,410.42,22a6.09,6.09,0,0,1,0,4.27,4.94,4.94,0,0,1-1.06,1.63,4.58,4.58,0,0,1-1.58,1,5.33,5.33,0,0,1-3.88,0,4.6,4.6,0,0,1-1.58-1,4.92,4.92,0,0,1-1.06-1.63,5.69,5.69,0,0,1-.39-2.14"/><path class="cls-1" d="M412.54,21.83a1.29,1.29,0,1,1,1.29-1.28,1.29,1.29,0,0,1-1.29,1.28m0-2.87a1.58,1.58,0,1,0,1.58,1.59A1.58,1.58,0,0,0,412.54,19"/><path class="cls-1" d="M412.75,20.23a.23.23,0,0,0,0-.1.15.15,0,0,0-.07-.06l-.08,0h-.24v.41h.25a.19.19,0,0,0,.09,0,.18.18,0,0,0,.05-.07.25.25,0,0,0,0-.1m.62,1.06h-.47l-.43-.56h-.14v.56H412V19.76h.61l.22,0a.49.49,0,0,1,.17.06.41.41,0,0,1,.13.13.43.43,0,0,1,0,.21.46.46,0,0,1-.08.28.58.58,0,0,1-.21.18Z"/><path class="cls-1" d="M397.6,19.24v1.32h0a4.18,4.18,0,0,0-.44-.5,3.39,3.39,0,0,0-.73-.47,4.56,4.56,0,0,0-1-.36,4.64,4.64,0,0,0-1.19-.14,4,4,0,0,0-1.89.44A4.05,4.05,0,0,0,391,20.68a4.62,4.62,0,0,0-.72,1.63,7.29,7.29,0,0,0-.22,1.92,7.55,7.55,0,0,0,.3,2.09,4.18,4.18,0,0,0,.76,1.58A3.74,3.74,0,0,0,392.63,29a5.08,5.08,0,0,0,2,.37,4.19,4.19,0,0,0,1.47-.31,1.75,1.75,0,0,0,1.15-1h0v1a2.32,2.32,0,0,1-.56,1.73,2.61,2.61,0,0,1-2,.7,5.25,5.25,0,0,1-1.64-.16,5.55,5.55,0,0,1-1.75-.79l-1.47,2.17a6.82,6.82,0,0,0,2.35,1.14,10,10,0,0,0,2.59.3A5.61,5.61,0,0,0,399,32.64a5.85,5.85,0,0,0,1.34-4.26V19.24Zm-.72,6.71a2.26,2.26,0,0,1-3.25,0,2.72,2.72,0,0,1-.58-1.81,2.72,2.72,0,0,1,.58-1.81,2.26,2.26,0,0,1,3.25,0,2.71,2.71,0,0,1,.58,1.81A2.71,2.71,0,0,1,396.88,25.95Z"/></g><path class="cls-1" d="M259.38,20.58h1.42v1.69h0a3,3,0,0,1,2.89-1.82v1.18a2.63,2.63,0,0,0-1.82.73,3.52,3.52,0,0,0-1.1,2.32v4.41h-1.42Z"/><path class="cls-1" d="M264.92,22.22a4,4,0,0,1,3.53-1.8c1.51,0,3.27.69,3.27,2.55v4.29a6.32,6.32,0,0,0,.21,1.83h-1.46l-.14-1.18a4.05,4.05,0,0,1-2.94,1.34,2.46,2.46,0,0,1-2.72-2.34c0-1.87,1.68-2.8,5.63-3.47V23c0-1.13-.77-1.56-1.83-1.56a2.31,2.31,0,0,0-2.28,1.33Zm5.38,2.27c-2.82.47-4.21,1.26-4.21,2.44a1.44,1.44,0,0,0,1.47,1.31,4.19,4.19,0,0,0,2.74-1.41Z"/><path class="cls-1" d="M277.42,29.09h-1.83l-2.74-8.51h1.44l2.26,7h0l2.26-7h1.25Z"/><path class="cls-1" d="M291.92,17v12h-1.44V17.65Z"/><path class="cls-1" d="M297.43,29.25c-2.43,0-3.84-2-3.84-4.42s1.41-4.42,3.84-4.42,3.84,2,3.84,4.42S299.86,29.25,297.43,29.25Zm0-7.82c-1.47,0-2.41,1.21-2.41,3.4s.94,3.4,2.41,3.4,2.41-1.21,2.41-3.4S298.91,21.43,297.43,21.43Z"/><path class="cls-1" d="M308.36,23.12a2.17,2.17,0,0,0-2.1-1.69c-1.52,0-2.41,1.24-2.41,3.4s.89,3.4,2.41,3.4a2.46,2.46,0,0,0,2.45-1.57l1.18.42a3.85,3.85,0,0,1-3.63,2.16c-2.23,0-3.84-1.67-3.84-4.42s1.61-4.42,3.84-4.42a3.5,3.5,0,0,1,3.44,2.31Z"/><path class="cls-1" d="M311.38,20.58h1.42v8.51h-1.42Z"/><path class="cls-1" d="M256.18,28.24c-.72,0-1-.2-1-.59V21.6h1.78l.27-1h-2.05v-3l-1.42.61v2.42h-1.31v1h1.31v6.25c.14,1.08.76,1.41,2.09,1.41a6.45,6.45,0,0,0,1.33-.12l.27-1A8,8,0,0,1,256.18,28.24Z"/><path class="cls-1" d="M328.15,20.58,325,29.84a3.31,3.31,0,0,1-3.22,2.43,9.88,9.88,0,0,1-1.17-.1l.3-1a6.42,6.42,0,0,0,.67,0c.75,0,1.9-.16,2.33-2l-3.1-8.61h1.3l2.4,6.5h0l2.09-6.5Z"/><path class="cls-1" d="M318.5,28.24c-.72,0-1-.2-1-.59V21.6h1.78l.27-1h-2.05v-3l-1.42.61v2.42h-1.31v1h1.31v6.25c.15,1.08.76,1.41,2.09,1.41a6.46,6.46,0,0,0,1.33-.12l.27-1A8,8,0,0,1,318.5,28.24Z"/><path class="cls-1" d="M287.59,26.84a2.76,2.76,0,0,1-2.44,1.4c-1.47,0-2.63-1.31-2.63-3.17h6v-.78c0-2.72-1.73-3.86-3.58-3.86-2.19,0-3.82,1.67-3.82,4.42,0,3.11,2.07,4.42,4.06,4.42,1.7,0,2.29-.15,3.33-1.55Zm-2.64-5.41c1.34,0,2.12,1,2.12,2.62h-4.52C282.65,22.48,283.46,21.43,284.94,21.43Z"/><rect class="cls-1" x="311.38" y="17.71" width="1.42" height="1.41"/><path class="cls-1" d="M229.24,15.48c.21-.09.43-.11.65-.19a9.66,9.66,0,0,1-1-1.1c-.09-.12,0-.18,0-.2s0-.14.06-.2.13-.19.21-.28,0-.14,0-.17a.15.15,0,0,1,.17,0,4.37,4.37,0,0,0,.9.75,7.75,7.75,0,0,1,1.1.77s.13.05.14,0a3,3,0,0,1,.3-.93,1.34,1.34,0,0,1,.15-.32,1.27,1.27,0,0,1,.51-.45c.3-.17.66,0,.87-.26.08-.06.21,0,.28,0s.48,0,.63.19a16.41,16.41,0,0,0-.46,1.83c0,.14-.12.33,0,.38a2.68,2.68,0,0,0,1.11-.05,4.63,4.63,0,0,1,1.19.1,1.85,1.85,0,0,1,.77.42,1.56,1.56,0,0,1,.39,1.43s-.2.21-.27.21,0-.15-.08-.15a3.58,3.58,0,0,1-.58.44s-.25-.21-.34-.25a1.6,1.6,0,0,0-1.12-.12,4.3,4.3,0,0,0-1.33.16c.16.3.46.44.7.68.39.4.8.7,1.23,1.07a3.4,3.4,0,0,1,.71.82c-.11.05,0,.11-.05.17s-.06-.08-.13-.09-.11.09-.09.16-.06.22-.14.24-.2.13-.26.12-.25-.09-.22-.07a.41.41,0,0,1,.11.27.54.54,0,0,1-.38-.17c-.56-.46-1-.94-1.63-1.44a5.27,5.27,0,0,0-.6-.64l-1.09,2.48c-.1.16-.15.58-.24.63s-.31-.31-.43-.56a11.86,11.86,0,0,1,.1-1.33v-.1c0-.75.27-1.41.24-2.18,0-.07-.09-.08-.19-.1-1-.11-2-.21-3-.35a2.54,2.54,0,0,1-.71-.13.48.48,0,0,0-.19-.1s0,0-.06,0a4.62,4.62,0,0,1,1.31-1Z"/><path class="cls-1" d="M238.69,20.75c-.06,0,0-.08,0-.11s.19-.08.27-.08c.27-.08.57,0,.84-.08.05,0,.11-.11.14-.11a5.44,5.44,0,0,1,.63-.19c.05,0,.19-.11.14-.19a2.32,2.32,0,0,1-.6-.79c-.08-.16-.22-.3-.22-.46s.16-.16.3-.11A5.17,5.17,0,0,1,241.6,20c.08.11.16-.14.19-.22a14.15,14.15,0,0,1,.57-1.33c.05-.14.16-.3.3-.33a2,2,0,0,0,.52-.3c.14-.05.25,0,.38-.08s.19.11.3.06.3,0,.46,0a.22.22,0,0,1,.11.27,7.34,7.34,0,0,1-.49,1.17c-.19.3-.36.57-.57.87,0,0,0,.08,0,.11a1.9,1.9,0,0,1,.41.05,9.41,9.41,0,0,0,1.25.17c.22.05.22.36.41.52s-.08.16-.19.19c-.3.08-.6,0-.9.05a9,9,0,0,0-1.5.19c.16.16.32.3.46.46l.41.57A2.24,2.24,0,0,1,244,23a.89.89,0,0,1,0,.38c-.05,0-.05-.14-.11-.16s-.11.11-.19.08a.23.23,0,0,1-.14-.14,1.15,1.15,0,0,1-.24-.38,2.83,2.83,0,0,0-.93-1,12.84,12.84,0,0,1-1,2c0,.05-.11.05-.19.05s-.08.05-.11.08-.08-.08-.11-.11-.33-.22-.38-.38a1,1,0,0,1-.13-.46s-.06-.08-.06-.11.06-.24.11-.33a.77.77,0,0,0,.22-.3,4.12,4.12,0,0,0,.44-.93,9.57,9.57,0,0,1-2-.3,3.07,3.07,0,0,1-.44-.19C238.74,20.86,238.77,20.78,238.69,20.75Z"/><path class="cls-1" d="M239.46,10.62c.2-.48.53-.79.58-1.32-1.08-.58-2.39-.24-3.18-1.61A3.78,3.78,0,0,1,237,5.86c.24-.5.71-.5,1.16-.15a1.3,1.3,0,0,1,.45.1A4.22,4.22,0,0,1,240,6a8.19,8.19,0,0,0,1.69.23.39.39,0,0,0,.09-.32c-.13-.82-.33-1.52-.54-2.37a3.11,3.11,0,0,1-.12-.66c0-.47-.38-1.24-.07-1.45,0,0,.1.1.15.07s.15-.19.22-.16a15.24,15.24,0,0,1,2.87,2.74c.3.29.36-.5.6-.75.06-.13,0-.41.05-.54.23-.41.28-.95.46-1.32.36-.5.56-1.23,1.11-1.44a1.15,1.15,0,0,1,1.11.39c.07,0,.24,0,.34.1.38.32.69.76,1.1,1.15a.68.68,0,0,1,.14.57c-.1.57-.61.6-.91,1L246.5,5.94c-.06.13-.23.41-.1.57a19.29,19.29,0,0,0,2.45,2.2c.57.35,1.2.33,1.71.8a4.24,4.24,0,0,1,.82,1.43c-2.06,1.28-4.41-.83-6.61-.78-.16,0-.12.25-.14.35.12.92.28,1.8.37,2.66,0,.63.38,1.23.47,1.84,0,.22.25.82-.06.79a1.05,1.05,0,0,1-1-.61,17.12,17.12,0,0,1-.85-2.15,1.17,1.17,0,0,1,0-.63,2.17,2.17,0,0,0-.31-.95c-.06-.13-.21.06-.29.12a12,12,0,0,0-.87,1.19,4.28,4.28,0,0,1-1.77,1.41c-.5.19-1.27.31-1.61-.46.16,0,.3-.38.2-.47C238,12.12,239.13,11.44,239.46,10.62Z"/><path class="cls-1" d="M329.1,20.07a1,1,0,0,1,.22-.32,1,1,0,0,1,.33-.22,1,1,0,0,1,1.35.54,1,1,0,0,1,.08.4,1,1,0,0,1-.08.41,1,1,0,0,1-.22.33,1,1,0,0,1-.33.22,1.08,1.08,0,0,1-.8,0,1,1,0,0,1-.33-.22,1,1,0,0,1-.22-.33,1,1,0,0,1-.08-.41A1,1,0,0,1,329.1,20.07Zm.17.75a.85.85,0,0,0,.18.28.83.83,0,0,0,.27.19.84.84,0,0,0,.34.07.82.82,0,0,0,.33-.07.83.83,0,0,0,.27-.19.86.86,0,0,0,.18-.28.93.93,0,0,0,.06-.35.9.9,0,0,0-.06-.34.83.83,0,0,0-.45-.46.82.82,0,0,0-.33-.07.83.83,0,0,0-.78.53.9.9,0,0,0-.06.34A.93.93,0,0,0,329.27,20.82Zm.85-.95a.5.5,0,0,1,.32.08.31.31,0,0,1,.1.26.29.29,0,0,1-.09.24.41.41,0,0,1-.23.09l.34.53h-.2l-.33-.52h-.2v.52h-.19v-1.2Zm-.08.53h.12l.1,0a.16.16,0,0,0,.07-.06.2.2,0,0,0,0-.11.17.17,0,0,0,0-.1l-.06-.05-.08,0h-.34v.38Z"/><path class="cls-1" d="M329.1,20.07a1,1,0,0,1,.22-.32,1,1,0,0,1,.33-.22,1,1,0,0,1,1.35.54,1,1,0,0,1,.08.4,1,1,0,0,1-.08.41,1,1,0,0,1-.22.33,1,1,0,0,1-.33.22,1.08,1.08,0,0,1-.8,0,1,1,0,0,1-.33-.22,1,1,0,0,1-.22-.33,1,1,0,0,1-.08-.41A1,1,0,0,1,329.1,20.07Zm.17.75a.85.85,0,0,0,.18.28.83.83,0,0,0,.27.19.84.84,0,0,0,.34.07.82.82,0,0,0,.33-.07.83.83,0,0,0,.27-.19.86.86,0,0,0,.18-.28.93.93,0,0,0,.06-.35.9.9,0,0,0-.06-.34.83.83,0,0,0-.45-.46.82.82,0,0,0-.33-.07.83.83,0,0,0-.78.53.9.9,0,0,0-.06.34A.93.93,0,0,0,329.27,20.82Zm.85-.95a.5.5,0,0,1,.32.08.31.31,0,0,1,.1.26.29.29,0,0,1-.09.24.41.41,0,0,1-.23.09l.34.53h-.2l-.33-.52h-.2v.52h-.19v-1.2Zm-.08.53h.12l.1,0a.16.16,0,0,0,.07-.06.2.2,0,0,0,0-.11.17.17,0,0,0,0-.1l-.06-.05-.08,0h-.34v.38Z"/><polyline class="cls-1" points="551.2 31.61 552.3 31.61 551.38 35.28 551.39 35.28 553.62 31.61 554.72 31.61 553.83 35.28 553.85 35.28 556.03 31.61 557.14 31.61 554 36.58 552.71 36.58 553.6 32.97 553.58 32.97 551.42 36.58 550.14 36.58 551.2 31.61"/><path class="cls-1" d="M559.09,35.94c.68,0,1-.51,1.57-1.85s.67-1.84,0-1.84-1,.52-1.57,1.84-.67,1.85,0,1.85M561,31.51c1.72,0,1.49,1.07.85,2.58s-1.31,2.58-3,2.58-1.49-1.07-.85-2.58S559.24,31.51,561,31.51Z"/><path class="cls-1" d="M565.46,33.78h.48a1.15,1.15,0,0,0,1.18-.75c.19-.46,0-.69-.51-.69h-.54l-.61,1.43m-.23-2.17h2.12c.94,0,1.33.43,1,1.28a1.91,1.91,0,0,1-1.47,1.22h0c.74.09.7.47.28,1.52-.21.52-.3.79-.12.89l0,0h-1.24a.8.8,0,0,1,.08-.52l.37-1c.15-.39.05-.63-.41-.63h-.62l-.89,2.1h-1.15Z"/><polyline class="cls-1" points="569.33 36.58 571.44 31.61 572.59 31.61 570.83 35.76 572.87 35.76 572.52 36.58 569.33 36.58"/><path class="cls-1" d="M576.05,35.84h.51c.8,0,1.14-.44,1.71-1.79.48-1.13.62-1.71-.26-1.71h-.49l-1.48,3.49m.64-4.23h1.88c1.6,0,1.48,1,.86,2.42-.75,1.76-1.51,2.55-3,2.55h-1.81Z"/><polyline class="cls-1" points="582.29 31.61 583.4 31.61 582.47 35.28 582.49 35.28 584.71 31.61 585.81 31.61 584.93 35.28 584.94 35.28 587.13 31.61 588.23 31.61 585.09 36.58 583.81 36.58 584.69 32.97 584.68 32.97 582.51 36.58 581.23 36.58 582.29 31.61"/><polyline class="cls-1" points="588.33 36.58 590.43 31.61 591.58 31.61 589.48 36.58 588.33 36.58"/><path class="cls-1" d="M593.72,35.84h.51c.8,0,1.14-.44,1.72-1.79.48-1.13.62-1.71-.26-1.71h-.49l-1.48,3.49m.64-4.23h1.88c1.6,0,1.48,1,.86,2.42-.75,1.76-1.51,2.55-3,2.55h-1.81Z"/><polyline class="cls-1" points="603.48 31.61 603.13 32.43 601.1 32.43 600.6 33.6 602.52 33.6 602.17 34.42 600.26 34.42 599.69 35.76 601.81 35.76 601.46 36.58 598.2 36.58 600.3 31.61 603.48 31.61"/><path class="cls-1" d="M605,31.75a.13.13,0,0,0-.13-.1c-.07,0-.11,0-.11.09s.32.09.32.28,0,.17-.19.17a.21.21,0,0,1-.21-.15l.06,0a.16.16,0,0,0,.15.12c.08,0,.13,0,.13-.1s-.32-.1-.32-.29a.16.16,0,0,1,.17-.15.19.19,0,0,1,.19.14Z"/><path class="cls-1" d="M605.67,32.18v-.53h0l-.16.53h0l-.16-.53h0v.53h-.06V31.6h.1l.15.47h0l.14-.47h.1v.58Z"/><path class="cls-1" d="M585.67,29.05l5.13-11.6a.22.22,0,0,0-.21-.33H587a.59.59,0,0,0-.5.33l-5.06,11.6a.22.22,0,0,0,.21.33h3.52A.59.59,0,0,0,585.67,29.05Z"/><polygon class="cls-1" points="604.05 25.93 612 17.13 602.7 17.13 600.59 20.52 604.24 20.52 596.16 29.38 606 29.38 609.67 25.93 604.05 25.93 604.05 25.93"/><path class="cls-1" d="M570,17.13h-6.16a1,1,0,0,0-.87.57l-4.85,11.11a.38.38,0,0,0,.37.57h3.05a1,1,0,0,0,.87-.57l1.38-3.15h1.43c.45,0,.64.13.39.65l-1.06,2.49a.38.38,0,0,0,.38.57H568a1,1,0,0,0,.87-.57l1.39-3.21a1.27,1.27,0,0,0-1.11-1.89A3.68,3.68,0,0,0,571,21.89l.72-1.69C572.63,18.23,572,17.1,570,17.13Zm-1.8,3.5-.76,1.67a.61.61,0,0,1-.68.42H565l1.15-2.6h1.65C568.24,20.15,568.34,20.29,568.2,20.63Z"/><path class="cls-1" d="M582,17.12h-6.53a.74.74,0,0,0-.62.41l-5,11.44a.27.27,0,0,0,.27.41h7c2.22,0,3.48-.52,4.5-2.87l.72-1.56c.57-1.34,0-1.92-1-2.09A3.12,3.12,0,0,0,583.1,21l.59-1.24C584.4,18.14,583.8,17.1,582,17.12Zm-3.2,7.67-.44.89a1.08,1.08,0,0,1-1.15.8h-2l1-2.31h2C578.75,24.22,579,24.36,578.79,24.8ZM580,20.69l-.31.7,0,.09a.7.7,0,0,1-.72.47h-1.77l.81-1.86h1.8C580.06,20.12,580.11,20.33,580,20.69Z"/><path class="cls-1" d="M591.92,17.13l-1.52,3.39h2.17a.16.16,0,0,1,.16.24l-3.78,8.38a.16.16,0,0,0,.16.24H593a.45.45,0,0,0,.38-.25L597,20.76a.45.45,0,0,1,.37-.24h2.22l2.09-3.39Z"/><path class="cls-1" d="M559.94,21.3l.48-1c1-2.2.33-3.15-1.57-3.13H554.3a4.56,4.56,0,0,0-4.3,3l-1.41,4h-1.33l2.54,3.44L554,24.1h-1.07l1.24-2.87a1.05,1.05,0,0,1,.91-.72h.72a.5.5,0,0,1,.35.13l2.23-1.87Z"/><path class="cls-1" d="M549.7,28.55l-1.87-2.37-.1.21c-.87,2-.73,3,1.15,3h4.5a4.72,4.72,0,0,0,4.37-3l1.33-3.07h1.2l-2-3.44-4.17,3.44h1.15l-.85,2a1,1,0,0,1-.85.65h-.6Z"/><path class="cls-1" d="M144.53,53.95a1.15,1.15,0,0,1-1.16-1.16,1.17,1.17,0,0,1,1.16-1.18,1.19,1.19,0,0,1,1.18,1.18A1.17,1.17,0,0,1,144.53,53.95Z"/><circle class="cls-1" cx="113.18" cy="60.38" r="5.07"/><path class="cls-1" d="M97.45,51.79h2.18v5.08h0a3.18,3.18,0,0,1,1.2-1.12,3.53,3.53,0,0,1,1.77-.45,3.7,3.7,0,0,1,2.57.84,3.23,3.23,0,0,1,.94,2.53v6.8H104V59.24a2.69,2.69,0,0,0-.5-1.7A1.81,1.81,0,0,0,102,57a2.37,2.37,0,0,0-1,.2,2.16,2.16,0,0,0-.75.56,2.62,2.62,0,0,0-.48.83,3,3,0,0,0-.17,1v5.84H97.45Z"/><path class="cls-1" d="M119.77,55.56h1.65v-3h2.18v3h2v1.63h-2v5.29a5.26,5.26,0,0,0,0,.59,1,1,0,0,0,.13.42.64.64,0,0,0,.32.26,1.55,1.55,0,0,0,.57.09h.46a2.27,2.27,0,0,0,.46-.07v1.69l-.71.08a6.47,6.47,0,0,1-.71,0,4.84,4.84,0,0,1-1.39-.16,1.85,1.85,0,0,1-.82-.48,1.65,1.65,0,0,1-.4-.79,5.93,5.93,0,0,1-.12-1.09V57.19h-1.65Z"/><path class="cls-1" d="M126.92,55.56h2.32L131.17,63h0l1.86-7.39h2.2L137.05,63h0l2-7.39h2.22l-3.1,9.9H136l-1.84-7.36h0l-1.82,7.36H130Z"/><path class="cls-1" d="M143.45,55.56h2.18v9.9h-2.18Z"/><path class="cls-1" d="M148.68,55.56h2v1.92h0a2.21,2.21,0,0,1,.37-.79,3.64,3.64,0,0,1,.67-.7,3.38,3.38,0,0,1,.87-.51,2.61,2.61,0,0,1,1-.19l.53,0,.3,0v2.11l-.47-.07-.47,0a2.51,2.51,0,0,0-1,.22,2.4,2.4,0,0,0-.85.65,3.19,3.19,0,0,0-.57,1.06,4.59,4.59,0,0,0-.21,1.46v4.71h-2.18Z"/><path class="cls-1" d="M157.46,61.12a3.81,3.81,0,0,0,.16,1.11,2.74,2.74,0,0,0,.49.94,2.35,2.35,0,0,0,.83.64,2.72,2.72,0,0,0,1.19.24,2.63,2.63,0,0,0,1.55-.41,2.44,2.44,0,0,0,.87-1.24h2.07A4.12,4.12,0,0,1,163,64.92a4.4,4.4,0,0,1-1.33.65,5.38,5.38,0,0,1-1.55.22,5.26,5.26,0,0,1-2.07-.38,4.28,4.28,0,0,1-1.53-1.08,4.56,4.56,0,0,1-.94-1.65,6.71,6.71,0,0,1-.32-2.11,6,6,0,0,1,.34-2,5.13,5.13,0,0,1,1-1.67,4.5,4.5,0,0,1,3.5-1.57,4.45,4.45,0,0,1,2.1.49,4.62,4.62,0,0,1,1.55,1.3,5.25,5.25,0,0,1,.89,1.85,5.68,5.68,0,0,1,.14,2.16Zm5.11-1.44a3.54,3.54,0,0,0-.22-1,2.67,2.67,0,0,0-.5-.84,2.48,2.48,0,0,0-.77-.58,2.27,2.27,0,0,0-1-.22,2.63,2.63,0,0,0-1,.2,2.39,2.39,0,0,0-.81.56,2.76,2.76,0,0,0-.54.84,2.92,2.92,0,0,0-.22,1Z"/><path class="cls-1" d="M165,55a.83.83,0,1,1-.84.83A.83.83,0,0,1,165,55Zm0,1.54a.71.71,0,1,0-.69-.72A.69.69,0,0,0,165,56.51Zm-.33-1.2H165c.23,0,.34.09.34.28a.25.25,0,0,1-.26.27l.28.43h-.16l-.27-.42h-.16v.42h-.15Zm.15.43H165c.13,0,.26,0,.26-.16s-.11-.15-.21-.15h-.2Z"/><g id="EAN"><path class="cls-1" d="M335.21,52.42a1.8,1.8,0,0,0-1.55.81h0V53a.43.43,0,0,0-.42-.43H332a.14.14,0,0,0-.14.14v6.91a.43.43,0,0,0,.44.44h1.26a.14.14,0,0,0,.14-.14V57.59h0a1.87,1.87,0,0,0,1.6.77c1.59,0,2.37-1.39,2.37-2.84S337,52.42,335.21,52.42Zm-.43,4.52c-.83,0-1.12-.63-1.12-1.62,0-1.15.63-1.5,1.12-1.5.81,0,1.09.79,1.09,1.5S335.6,56.95,334.78,56.95Z"/><path class="cls-1" d="M341.81,62.79a.18.18,0,0,1,.18.13l.79,3.49h0l.87-3.42a.3.3,0,0,1,.27-.2h1.47a.12.12,0,0,1,.12.17l-1.63,5.23a.31.31,0,0,1-.27.21h-1.5a.18.18,0,0,1-.18-.13l-.86-3.61h0l-.84,3.61a.19.19,0,0,1-.18.13h-1.5a.31.31,0,0,1-.28-.21L336.64,63a.12.12,0,0,1,.12-.17h1.46a.31.31,0,0,1,.28.2l.89,3.43h0l.77-3.51a.18.18,0,0,1,.18-.13Z"/><path class="cls-1" d="M348.35,62.63a3,3,0,1,1-2.95,3A2.88,2.88,0,0,1,348.35,62.63Zm0,4.53c.85,0,1.12-.85,1.12-1.56S349.2,64,348.35,64s-1.11.86-1.11,1.57S347.49,67.16,348.35,67.16Z"/><path class="cls-1" d="M320.27,58.19a1,1,0,0,1-1-1V51.49a1,1,0,0,1,1-1h5.06s.08,0,.08.07a3.09,3.09,0,0,1-.42,1.48.14.14,0,0,1-.1.06h-3.6v1.34h3.3a.14.14,0,0,1,.14.13v1.28a.14.14,0,0,1-.14.14h-3.3v1.46h4a.09.09,0,0,1,.09.13l-.55,1.47a.2.2,0,0,1-.19.13Z"/><path class="cls-1" d="M366.05,50.51h.69a.2.2,0,0,1,.18.12l2.78,7.44a.09.09,0,0,1-.09.13H367.8a.2.2,0,0,1-.18-.13l-.43-1.25H364.5l-.43,1.25a.21.21,0,0,1-.19.13H362.1a.09.09,0,0,1-.09-.13l2.32-6.2C364.71,50.86,365,50.51,366.05,50.51ZM365,55.33h1.75l-.85-2.69h0Z"/><path class="cls-1" d="M319.28,61.7a1,1,0,0,1,1-1h.94a.26.26,0,0,1,.2.12L324,65.49V60.84a.13.13,0,0,1,.14-.13h1.61a.13.13,0,0,1,.13.13v6.58a1,1,0,0,1-1,1H324a.25.25,0,0,1-.2-.12l-2.63-4.7v4.68a.14.14,0,0,1-.14.14h-1.61a.14.14,0,0,1-.14-.14Z"/><path class="cls-1" d="M311.91,55a11,11,0,0,0-4.56-4.62c3.78,2.68,4.63,7.75,2.39,10.77l1.51,1.56-8.08,1.5,1.69-8.12,1.51,1.56c3-3.75,1.5-6.87-1.55-8.26a11.08,11.08,0,0,0-7.34,20.82c-4.25-2.56-5.3-8-3-11.14L293,57.48l8.08-1.5L299.4,64.1l-1.51-1.57c-3.12,3.9-1.37,7.11,1.92,8.42a11.09,11.09,0,0,0,12.1-16Z"/><path class="cls-1" d="M387.75,54.31H386.3a.15.15,0,0,1-.16-.16,1.74,1.74,0,0,1,.87-1.34,3.7,3.7,0,0,1,1.78-.39c1.33,0,2.61.29,2.61,1.88v2.46a4,4,0,0,0,.13,1.24c0,.11,0,.2-.16.2h-1.45a.21.21,0,0,1-.2-.13,2.67,2.67,0,0,1-.07-.4,2.51,2.51,0,0,1-1.85.69c-1.07,0-1.91-.54-1.91-1.7,0-1.83,2-1.69,3.26-1.94.31-.06.48-.17.48-.52s-.51-.58-.88-.58a.83.83,0,0,0-.9.61C387.86,54.28,387.83,54.31,387.75,54.31Zm.76,2.91c.88,0,1.17-.49,1.12-1.66a4.89,4.89,0,0,1-1.13.3c-.41.1-.76.27-.76.72S388.1,57.22,388.51,57.22Z"/><path class="cls-1" d="M385.23,52.59v5.47a.14.14,0,0,1-.14.14h-1.28a.44.44,0,0,1-.42-.44V52.59Zm0-.7v-1a.44.44,0,0,0-.44-.44h-1.26a.14.14,0,0,0-.14.14v1.26Z"/><path class="cls-1" d="M379.7,52.59v5.47a.14.14,0,0,1-.14.14h-1.27a.44.44,0,0,1-.42-.44V52.59Zm0-.7v-1a.44.44,0,0,0-.44-.44H378a.14.14,0,0,0-.14.14v1.26Z"/><path class="cls-1" d="M382.47,50.92a.44.44,0,0,0-.44-.44h-1.26a.14.14,0,0,0-.14.14v7.14a.43.43,0,0,0,.42.44h1.27a.14.14,0,0,0,.14-.14Z"/><path class="cls-1" d="M400.35,56.5h1.44c.12,0,.16.07.14.17a2.7,2.7,0,0,1-2.74,1.69,2.82,2.82,0,0,1-3.07-3,2.94,2.94,0,0,1,3-2.95c1.94,0,2.94,1.41,2.93,3.22a.21.21,0,0,1-.23.19H398a1.19,1.19,0,0,0,1.25,1.28,1.13,1.13,0,0,0,1-.54A.11.11,0,0,1,400.35,56.5Zm-.11-1.69a1.14,1.14,0,0,0-1.09-1.15A1.21,1.21,0,0,0,398,54.81Z"/><path class="cls-1" d="M342.33,56.5h1.44c.12,0,.17.07.14.17a2.69,2.69,0,0,1-2.74,1.69,2.82,2.82,0,0,1-3.07-3,2.94,2.94,0,0,1,3-2.95c1.94,0,2.94,1.41,2.93,3.22a.21.21,0,0,1-.23.19h-3.89a1.19,1.19,0,0,0,1.25,1.28,1.12,1.12,0,0,0,1-.54A.12.12,0,0,1,342.33,56.5Zm-.11-1.69a1.14,1.14,0,0,0-1.09-1.15,1.21,1.21,0,0,0-1.19,1.15Z"/><path class="cls-1" d="M355.55,54.31h-1.45c-.09,0-.17-.06-.15-.16a1.73,1.73,0,0,1,.86-1.34,3.74,3.74,0,0,1,1.78-.39c1.33,0,2.62.29,2.62,1.88v2.46a3.94,3.94,0,0,0,.13,1.24c0,.11,0,.2-.16.2h-1.45a.21.21,0,0,1-.2-.13,3,3,0,0,1-.07-.4,2.5,2.5,0,0,1-1.84.69c-1.07,0-1.91-.54-1.91-1.7,0-1.83,2-1.69,3.26-1.94.31-.06.48-.17.48-.52s-.51-.58-.88-.58a.83.83,0,0,0-.9.61C355.66,54.28,355.63,54.31,355.55,54.31Zm.76,2.91c.87,0,1.16-.49,1.12-1.66a4.86,4.86,0,0,1-1.13.3c-.41.1-.76.27-.76.72S355.91,57.22,356.32,57.22Z"/><path class="cls-1" d="M353,52.59v5.47a.14.14,0,0,1-.14.14h-1.27a.44.44,0,0,1-.42-.44V52.59Zm0-.7v-1a.44.44,0,0,0-.44-.44h-1.26a.14.14,0,0,0-.14.14v1.26Z"/><path class="cls-1" d="M349.88,50.48h-1.26a.14.14,0,0,0-.14.14v2.57h0a1.88,1.88,0,0,0-1.6-.77c-1.59,0-2.37,1.38-2.37,2.84s.74,3.09,2.51,3.09a1.78,1.78,0,0,0,1.54-.81h0v.22a.44.44,0,0,0,.42.44h1.19a.13.13,0,0,0,.14-.14V50.92A.44.44,0,0,0,349.88,50.48Zm-2.42,6.47c-.84,0-1.13-.85-1.13-1.62s.28-1.5,1.13-1.5,1.09.75,1.09,1.56S348.35,56.95,347.45,56.95Z"/><path class="cls-1" d="M330.63,66.7h1.43c.12,0,.17.06.14.17a2.69,2.69,0,0,1-2.74,1.69,2.82,2.82,0,0,1-3.07-3,2.94,2.94,0,0,1,3-3c1.94,0,2.94,1.4,2.93,3.22a.21.21,0,0,1-.23.2h-3.89a1.19,1.19,0,0,0,1.25,1.27,1.12,1.12,0,0,0,1-.55A.12.12,0,0,1,330.63,66.7ZM330.52,65a1.13,1.13,0,0,0-1.09-1.14A1.21,1.21,0,0,0,328.24,65Z"/><path class="cls-1" d="M355.65,62.71l-.36,0a1.69,1.69,0,0,0-1.69,1.1h0v-.86a.14.14,0,0,0-.14-.13h-1.51a.14.14,0,0,0-.14.13v5a.44.44,0,0,0,.42.44h1.28a.14.14,0,0,0,.14-.14V65.62A1.29,1.29,0,0,1,355,64.29a2.16,2.16,0,0,1,.62.09s.08,0,.08-.06V62.79A.08.08,0,0,0,355.65,62.71Z"/><path class="cls-1" d="M362.1,68.28l-2.23-3.36,1.93-2c.06-.06,0-.12,0-.12H360a.36.36,0,0,0-.27.12l-1.56,1.75V61.12a.43.43,0,0,0-.44-.43h-1.26a.13.13,0,0,0-.13.14V68a.44.44,0,0,0,.42.44H358a.14.14,0,0,0,.14-.14V66.6l.48-.46,1.29,2.14a.3.3,0,0,0,.27.12H362C362.14,68.4,362.14,68.33,362.1,68.28Z"/><path class="cls-1" d="M377.07,50.51a6.72,6.72,0,0,0-.73,0c-1.57,0-2.13.5-2.13,2.11h-2v-.24c0-.51.26-.57.68-.57l.41,0a.08.08,0,0,0,.09-.08V50.66a.13.13,0,0,0-.15-.14,6.76,6.76,0,0,0-.73,0c-1.57,0-2.13.5-2.13,2.11h-.75a.14.14,0,0,0-.14.14v.91a.14.14,0,0,0,.14.14h.74v4a.44.44,0,0,0,.42.44h1.28a.14.14,0,0,0,.14-.14V53.78h2v4a.43.43,0,0,0,.42.44h1.28a.14.14,0,0,0,.14-.14V53.78h1a.14.14,0,0,0,.14-.14v-.91a.13.13,0,0,0-.14-.14h-1v-.24c0-.51.26-.57.68-.57l.41,0a.07.07,0,0,0,.09-.08V50.66A.13.13,0,0,0,377.07,50.51Z"/><path class="cls-1" d="M336.3,67.06c.07,0,.09,0,.09.08v1.14a.14.14,0,0,1-.16.14c-.1,0-.58,0-.85,0-1.57,0-2-.45-2-2V64h-.8a.13.13,0,0,1-.14-.13v-.92a.14.14,0,0,1,.14-.14h.8V61.53a.43.43,0,0,1,.42-.43h1.28a.14.14,0,0,1,.14.14v1.55h1a.14.14,0,0,1,.14.14v.92a.13.13,0,0,1-.14.13h-1v2.55c0,.44.26.54.66.54Z"/><path class="cls-1" d="M395.65,56.85c.07,0,.08,0,.08.07v1.14a.15.15,0,0,1-.15.15l-.85,0c-1.57,0-2-.45-2-2V53.78H392a.14.14,0,0,1-.14-.14v-.91a.14.14,0,0,1,.14-.14h.79V51.33a.44.44,0,0,1,.42-.44h1.28a.14.14,0,0,1,.14.14v1.56h1a.13.13,0,0,1,.13.14v.91a.14.14,0,0,1-.13.14h-1v2.55c0,.45.26.54.66.54Z"/><path class="cls-1" d="M325.84,52.59c-.08,0-.11.07,0,.12l1.7,2.54-1.87,2.82c0,.06,0,.12.08.12h1.67a.28.28,0,0,0,.27-.12l.85-1.5.9,1.5a.28.28,0,0,0,.27.12h1.68c.07,0,.12-.06.08-.12l-1.91-2.85,1.67-2.52c.06-.06,0-.12,0-.12h-1.62a.29.29,0,0,0-.27.12l-.72,1.21-.71-1.21a.28.28,0,0,0-.27-.12Z"/><path class="cls-1" d="M358.94,51.34a.89.89,0,1,1,.89.86A.85.85,0,0,1,358.94,51.34Zm1.49,0a.6.6,0,1,0-.6.64A.61.61,0,0,0,360.44,51.34Zm-.73.46h-.22v-.93h.35c.24,0,.39.06.39.28s-.1.24-.27.26l.24.4H360l-.21-.39h-.06Zm.17-.55c.08,0,.12,0,.12-.12s-.1-.1-.18-.1h-.12v.22Z"/></g><path class="cls-1" d="M438.61,56.9h-1.25l-1.07-1.31-1.07,1.31h-1a0,0,0,0,1,0,0l1.58-1.93L434.22,53a0,0,0,0,1,0,0h1.27l.94,1.16,1-1.16h1a0,0,0,0,1,0,0l-1.48,1.77,1.69,2.08a0,0,0,0,1,0,0Z"/><path class="cls-1" d="M447.13,55.19h-2.85a1.07,1.07,0,0,0,1.18,1,3.26,3.26,0,0,0,1.52-.49,0,0,0,0,1,0,0v.87h0a4.66,4.66,0,0,1-1.67.42h0a2.12,2.12,0,0,1,0-4.24,1.72,1.72,0,0,1,1.83,1.79C447.16,54.79,447.13,55.18,447.13,55.19Zm-1.8-1.51a1,1,0,0,0-1,.91h1.87v0a.85.85,0,0,0-.84-.88Z"/><path class="cls-1" d="M452.39,56.9l0,0V53h1v3.89l0,0Zm.51-4.71a.63.63,0,0,1-.63-.62.63.63,0,1,1,1.26,0,.63.63,0,0,1-.63.62Z"/><path class="cls-1" d="M440.77,52.84a2.71,2.71,0,0,0-.89.16h-1v6.36a2.35,2.35,0,0,0,1.05-.41V57a4.74,4.74,0,0,0,.66.06,2.08,2.08,0,0,0,2.3-2.14A2,2,0,0,0,440.77,52.84Zm-.28,3.48a2.26,2.26,0,0,1-.59-.08V53.75a2.26,2.26,0,0,1,.7-.12,1.18,1.18,0,0,1,1.19,1.3A1.26,1.26,0,0,1,440.49,56.31Z"/><path class="cls-1" d="M450.52,50.94v2a3,3,0,0,0-.83-.13A2.09,2.09,0,0,0,447.56,55a2,2,0,0,0,1.93,2.09,2.48,2.48,0,0,0,1.17-.32v.35a2.33,2.33,0,0,0,.92-.39V50.53A2.28,2.28,0,0,0,450.52,50.94Zm0,5a1.89,1.89,0,0,1-.87.25c-.63,0-1-.45-1-1.2a1.26,1.26,0,0,1,1.23-1.43,1.54,1.54,0,0,1,.65.16Z"/><path class="cls-1" d="M458,52.95a0,0,0,0,0,0,0h-.83a0,0,0,0,0,0,0v.14h0a2.53,2.53,0,0,0-1-.25A2.09,2.09,0,0,0,454,55a1.92,1.92,0,0,0,2,2.06,1.32,1.32,0,0,0,1.12-.46v.5a2.39,2.39,0,0,0,.9-.39ZM457,56a1.66,1.66,0,0,1-.81.26,1.05,1.05,0,0,1-1.08-1.2c0-.85.48-1.43,1.19-1.43a1.58,1.58,0,0,1,.71.22Z"/><path class="cls-1" d="M431.37,55.93h2.58a2.32,2.32,0,0,1-.36,1h-2.68a.64.64,0,0,1-.63-.58h0V51.23h0a.64.64,0,0,1,.63-.58h3a2.36,2.36,0,0,1-.36,1h-2.21V53h2.2v1l0,0h-2.19v1.94Z"/><path class="cls-1" d="M428.15,56a.49.49,0,1,0,.48.49A.48.48,0,0,0,428.15,56Zm0,.93a.44.44,0,1,1,.41-.44A.41.41,0,0,1,428.15,57Z"/><path class="cls-1" d="M428.38,56.41c0-.12-.07-.17-.21-.17h-.22v.58h.1v-.25h.09l.15.25h.11l-.16-.26A.15.15,0,0,0,428.38,56.41Zm-.34.08v-.18h.12c.06,0,.13,0,.13.08s-.07.1-.14.1Z"/><path class="cls-1" d="M458.88,52.7a.49.49,0,1,0,.48.49A.48.48,0,0,0,458.88,52.7Zm0,.93a.44.44,0,1,1,.41-.44A.41.41,0,0,1,458.88,53.64Z"/><path class="cls-1" d="M459.11,53.07c0-.12-.07-.17-.21-.17h-.22v.58h.1v-.25h.09l.15.25h.11l-.16-.26A.15.15,0,0,0,459.11,53.07Zm-.34.08V53h.12c.06,0,.13,0,.13.08s-.07.1-.14.1Z"/><path class="cls-1" d="M424.83,51.61l-.19-.53L423.06,49l.28-.07,2.73,2.36,1.61-.46a2.34,2.34,0,0,1,.57-.06,4.64,4.64,0,0,0-8.79,2.65L423.31,52Z"/><path class="cls-1" d="M428.42,51.15a2.48,2.48,0,0,1-.55.28l-1.61.46-1.07,3.45-.28.09.23-2.63-.13-.55-1.51.43-4,.94a4.64,4.64,0,1,0,8.92-2.47Z"/><path class="cls-1" d="M426.79,62.2l-2.37,6.17h-.84L421.2,62.2,420,68.35h-1.74l1.79-8.87h1.7L424,65.34l2.21-5.86h1.7l1.79,8.87h-1.74Z"/><path class="cls-1" d="M435.7,65.82h-4.24a1.59,1.59,0,0,0,1.76,1.54,4.86,4.86,0,0,0,2.27-.72s0,0,0,0V68a6.9,6.9,0,0,1-2.48.63h0a3.15,3.15,0,0,1,0-6.3A2.56,2.56,0,0,1,435.75,65C435.75,65.23,435.7,65.81,435.7,65.82ZM433,63.58a1.5,1.5,0,0,0-1.54,1.36h2.78v-.05a1.26,1.26,0,0,0-1.24-1.3Z"/><path class="cls-1" d="M443.52,68.36a0,0,0,0,1,0,0V62.59a0,0,0,0,1,0,0H445a0,0,0,0,1,0,0v5.75a0,0,0,0,1,0,0Zm.76-7a.93.93,0,0,1-.94-.93.94.94,0,1,1,1.88,0,.93.93,0,0,1-.94.93Z"/><path class="cls-1" d="M440.75,59.52v3a4.35,4.35,0,0,0-1.23-.19,3.11,3.11,0,0,0-3.18,3.17,2.89,2.89,0,0,0,2.86,3.11,3.69,3.69,0,0,0,1.74-.47v.52a3.49,3.49,0,0,0,1.37-.58V58.9A3.38,3.38,0,0,0,440.75,59.52Zm0,7.5a2.83,2.83,0,0,1-1.3.37c-.94,0-1.51-.67-1.51-1.78a1.87,1.87,0,0,1,1.84-2.12,2.28,2.28,0,0,1,1,.24Z"/><path class="cls-1" d="M451.92,62.49a.07.07,0,0,0-.07-.07h-1.23a.07.07,0,0,0-.07.07v.21h0a3.76,3.76,0,0,0-1.53-.36,3.1,3.1,0,0,0-3,3.23,2.86,2.86,0,0,0,3,3.06,2,2,0,0,0,1.66-.69v.74a3.56,3.56,0,0,0,1.34-.59ZM450.35,67a2.44,2.44,0,0,1-1.2.39,1.56,1.56,0,0,1-1.61-1.78c0-1.27.71-2.12,1.77-2.12a2.35,2.35,0,0,1,1,.33Z"/><path class="cls-1" d="M452.92,66.58a8.73,8.73,0,0,0,1.52.76,3.61,3.61,0,0,0,1.21.23,2.18,2.18,0,0,0,1.44-.45,1.56,1.56,0,0,0,.14-2.23,4.66,4.66,0,0,0-1.46-.91l-.65-.29a4.17,4.17,0,0,1-1.57-1.12,2.3,2.3,0,0,1-.52-1.48,2.14,2.14,0,0,1,.76-1.69,2.88,2.88,0,0,1,2-.66,4.25,4.25,0,0,1,1.16.16,4.5,4.5,0,0,1,1.08.46v1.18a5,5,0,0,0-1.17-.66,3.14,3.14,0,0,0-1.12-.22,1.8,1.8,0,0,0-1.2.38,1.23,1.23,0,0,0-.45,1,1.37,1.37,0,0,0,.41,1,4.29,4.29,0,0,0,1.35.83l.66.29a4.23,4.23,0,0,1,1.66,1.19,2.52,2.52,0,0,1,.57,1.61,2.43,2.43,0,0,1-.84,1.91,3.15,3.15,0,0,1-2.17.74,5.18,5.18,0,0,1-1.31-.18,7,7,0,0,1-1.37-.53Z"/><path class="cls-1" d="M459.26,65.33a3.12,3.12,0,0,1,.88-2.28,3.23,3.23,0,0,1,4.47,0,3.41,3.41,0,0,1,0,4.57,3.23,3.23,0,0,1-4.47,0A3.13,3.13,0,0,1,459.26,65.33Zm1.06,0a2.61,2.61,0,0,0,.56,1.75,1.84,1.84,0,0,0,1.48.66,1.86,1.86,0,0,0,1.48-.66,3,3,0,0,0,0-3.5,1.86,1.86,0,0,0-1.48-.66,1.84,1.84,0,0,0-1.48.66A2.61,2.61,0,0,0,460.32,65.33Z"/><path class="cls-1" d="M468.47,62.42h1V66a2,2,0,0,0,.3,1.21,1.13,1.13,0,0,0,.95.38,2.08,2.08,0,0,0,1.56-.65,2.38,2.38,0,0,0,.62-1.72V62.42h1v5.94h-1V67.22a4.2,4.2,0,0,1-1.19,1,2.68,2.68,0,0,1-1.27.33,1.91,1.91,0,0,1-1.53-.61,2.65,2.65,0,0,1-.53-1.78Z"/><path class="cls-1" d="M480,68.37H479v-6H480Z"/><path class="cls-1" d="M480.78,65.33a3.13,3.13,0,0,1,.88-2.28,3.23,3.23,0,0,1,4.47,0,3.41,3.41,0,0,1,0,4.57,3.23,3.23,0,0,1-4.47,0A3.13,3.13,0,0,1,480.78,65.33Zm1.06,0a2.62,2.62,0,0,0,.56,1.75,2,2,0,0,0,3,0,3,3,0,0,0,0-3.5,2,2,0,0,0-3,0A2.61,2.61,0,0,0,481.84,65.33Z"/><path class="cls-1" d="M488.83,68.37h-1V62.42h1V63.6a3.84,3.84,0,0,1,1.14-1,2.64,2.64,0,0,1,1.29-.34,1.9,1.9,0,0,1,1.53.61,2.66,2.66,0,0,1,.52,1.78v3.72h-1V64.78a2,2,0,0,0-.3-1.21,1.13,1.13,0,0,0-.95-.39,2.09,2.09,0,0,0-1.57.64,2.36,2.36,0,0,0-.63,1.71Z"/><path class="cls-1" d="M494.09,66.8a5.39,5.39,0,0,0,1.12.65,2.61,2.61,0,0,0,1,.22,1.23,1.23,0,0,0,.77-.23.7.7,0,0,0,.29-.58q0-.58-1.05-1l-.06,0-.56-.23a3.06,3.06,0,0,1-1.18-.73,1.47,1.47,0,0,1-.32-1,1.66,1.66,0,0,1,.5-1.27,1.91,1.91,0,0,1,1.36-.47,3.45,3.45,0,0,1,1,.15,4.87,4.87,0,0,1,1,.46l-.21.91a4.68,4.68,0,0,0-1-.54,2.24,2.24,0,0,0-.84-.18,1,1,0,0,0-.66.21.67.67,0,0,0-.25.54.72.72,0,0,0,.19.53,3.19,3.19,0,0,0,1,.5l.47.19a3.1,3.1,0,0,1,1.22.76,1.55,1.55,0,0,1,.37,1.06,1.68,1.68,0,0,1-.56,1.33,2.25,2.25,0,0,1-1.53.49,3.61,3.61,0,0,1-1.17-.19,3.7,3.7,0,0,1-1.06-.56Z"/><path class="cls-1" d="M467.35,58.88a2.31,2.31,0,0,0-1.07.42v9.06h1.07Z"/><path class="cls-1" d="M478.72,60.41a.77.77,0,0,1,.22-.56.73.73,0,0,1,.54-.23.78.78,0,0,1,.78.78A.74.74,0,0,1,480,61a.76.76,0,0,1-.56.22.76.76,0,0,1-.76-.77Z"/><path class="cls-1" d="M478,63.25v-.84h-1.22v-2.8a2.32,2.32,0,0,0-1.07.42h0v2.37H475v.84h.74V66a4.63,4.63,0,0,0,.18,1.59,1.75,1.75,0,0,0,.64.76H478a2.2,2.2,0,0,1-1-.83,3.66,3.66,0,0,1-.27-1.65V63.25Z"/><path class="cls-1" d="M525.69,65.78a1,1,0,0,1-.88-.64l-1.25-2.76h-6.62l-1.25,2.8a.89.89,0,0,1-.86.6.84.84,0,0,1-.84-.84,1,1,0,0,1,.11-.46l5.08-11.1a1.11,1.11,0,0,1,1.07-.74h.07a1.09,1.09,0,0,1,1.06.75l5.08,11.08a1.14,1.14,0,0,1,.11.44A.87.87,0,0,1,525.69,65.78Zm-8-5.07h5.16L520.26,55Z"/><path class="cls-1" d="M528.85,65.78a.88.88,0,0,1-.89-.89v-8a.88.88,0,1,1,1.77,0v8A.86.86,0,0,1,528.85,65.78Zm0-11.27a.94.94,0,0,1-1-.93v-.23a.93.93,0,0,1,1-.93.94.94,0,0,1,1,.93v.23A1,1,0,0,1,528.83,54.51Z"/><path class="cls-1" d="M532.62,65.78a.88.88,0,0,1-.89-.89v-8a.88.88,0,1,1,1.77,0v1a3.81,3.81,0,0,1,3-1.89.85.85,0,0,1,.87.89.88.88,0,0,1-.77.89c-1.94.23-3.09,1.74-3.09,4v3.15A.87.87,0,0,1,532.62,65.78Z"/><path class="cls-1" d="M547.56,65.78a1,1,0,0,1-.88-.64l-1.25-2.76h-6.62l-1.25,2.8a.89.89,0,0,1-.86.6.84.84,0,0,1-.84-.84,1,1,0,0,1,.11-.46l5.08-11.1a1.11,1.11,0,0,1,1.07-.74h.07a1.09,1.09,0,0,1,1.06.75l5.08,11.08a1.14,1.14,0,0,1,.11.44A.87.87,0,0,1,547.56,65.78Zm-8-5.07h5.16L542.12,55Z"/><path class="cls-1" d="M552.62,65.87a6.56,6.56,0,0,1-3.67-1.2.82.82,0,0,1-.33-.66.79.79,0,0,1,.8-.78.74.74,0,0,1,.46.15,5,5,0,0,0,2.81.94c1,0,1.72-.51,1.72-1.27s-.94-1.13-2.17-1.48-3.2-.91-3.2-2.8c0-1.71,1.37-2.88,3.34-2.88a6.65,6.65,0,0,1,3,.81.87.87,0,0,1,.44.74.79.79,0,0,1-.8.78.89.89,0,0,1-.39-.09,4.81,4.81,0,0,0-2.33-.69c-1,0-1.59.46-1.59,1.15s1.07,1.09,2.2,1.43,3.14.94,3.14,2.84S554.7,65.87,552.62,65.87Z"/><path class="cls-1" d="M558.53,65.78a.88.88,0,0,1-.89-.89v-8a.88.88,0,1,1,1.77,0v8A.86.86,0,0,1,558.53,65.78Zm0-11.27a.94.94,0,0,1-1-.93v-.23a.93.93,0,0,1,1-.93.94.94,0,0,1,1,.93v.23A1,1,0,0,1,558.51,54.51Z"/><path class="cls-1" d="M564.43,65.88c-1.81,0-3.65-1.06-3.65-3.07s1.59-3.22,4.15-3.22a9.85,9.85,0,0,1,2.65.33v-.07c0-1.92-1.39-2.33-2.56-2.33a5.56,5.56,0,0,0-2.32.5.9.9,0,0,1-.33.07.8.8,0,0,1-.8-.78.82.82,0,0,1,.5-.75,7.46,7.46,0,0,1,3.09-.64A4.25,4.25,0,0,1,568.29,57a3.85,3.85,0,0,1,1,2.84V64.9a.85.85,0,0,1-.86.87.83.83,0,0,1-.86-.84v-.32A4.24,4.24,0,0,1,564.43,65.88Zm.64-4.88c-1.57,0-2.51.64-2.51,1.72s1.1,1.68,2.13,1.68c1.65,0,2.9-1,2.9-2.31v-.75A9.41,9.41,0,0,0,565.08,61Z"/><path class="cls-1" d="M577.66,65.9a6.48,6.48,0,0,1-6.78-6.63,6.65,6.65,0,0,1,6.76-6.7A7.12,7.12,0,0,1,582,53.82a1.57,1.57,0,0,1,.66,1.27,1.56,1.56,0,0,1-1.55,1.55,1.53,1.53,0,0,1-1-.32,4.19,4.19,0,0,0-2.62-.82,3.77,3.77,0,0,0,.2,7.52,4.27,4.27,0,0,0,2.4-.66V60.86h-1.67a1.38,1.38,0,1,1,0-2.77h3.15a1.55,1.55,0,0,1,1.57,1.57v3a2,2,0,0,1-1.06,1.92A8.45,8.45,0,0,1,577.66,65.9Z"/><path class="cls-1" d="M589.63,65.9a5.19,5.19,0,1,1,5.4-5.22A5.2,5.2,0,0,1,589.63,65.9Zm0-7.64a2.25,2.25,0,0,0-2.29,2.42,2.35,2.35,0,0,0,2.33,2.49A2.25,2.25,0,0,0,592,60.75,2.35,2.35,0,0,0,589.63,58.27Z"/><path class="cls-1" d="M80.88,70.05a2,2,0,1,1-2-1.92A1.89,1.89,0,0,1,80.88,70.05Z"/><path class="cls-1" d="M75.63,63.9a10.74,10.74,0,0,0,1.16-5c0-6.11-4.39-10.14-10.77-10.14s-10.77,4-10.77,10.14S59.68,69.16,66,69.16h7.7a2.84,2.84,0,0,0,3.07-2.92A2.74,2.74,0,0,0,75.63,63.9Zm-12,1.95H60.66V57.1h2.92ZM62.28,55.57A1.75,1.75,0,1,1,64,53.83,1.73,1.73,0,0,1,62.28,55.57Zm9.27-.92a5.92,5.92,0,0,0-1-.07c-.85,0-1.32.51-1.32,1.55v1h2.27v2.62H69.28v6.13H66.36V59.71H64.68V57.1h1.68V56c0-2.52,1.51-3.9,3.7-3.9a8.41,8.41,0,0,1,1.49.14Z"/><path class="cls-1" d="M27.19,65.85l-1.88-5.49-1.86,5.49H20.18L17,55.6h3.46L22,61.39l2-5.79H26.6l2,5.81,1.63-5.81h3.44L30.47,65.85Z"/><path class="cls-1" d="M45.07,60.67c0,3.32-2.37,5.53-5.81,5.53S33.45,64,33.45,60.67s2.39-5.47,5.81-5.47S45.07,57.38,45.07,60.67Zm-3.27,0a2.53,2.53,0,1,0-5.07,0,2.54,2.54,0,1,0,5.07,0Z"/><path class="cls-1" d="M53.66,63a11.11,11.11,0,0,1-1.22.08c-1.06,0-1.46-.61-1.46-1.63V58.67h2.68V55.6H51V52.12H47.56V55.6h-2v3.06h2v3.15c0,2.81,1.41,4.35,4,4.35A10.94,10.94,0,0,0,53.66,66Z"/><path class="cls-1" d="M204.56,55.22v4.2h4.86v-4.2h1.31v10h-1.31V60.56h-4.86v4.71h-1.3v-10Z"/><path class="cls-1" d="M219.12,61.6a3.53,3.53,0,0,1-3.59,3.83,3.43,3.43,0,0,1-3.46-3.71,3.52,3.52,0,0,1,3.58-3.83A3.42,3.42,0,0,1,219.12,61.6Zm-5.73.07c0,1.58.91,2.77,2.19,2.77s2.19-1.18,2.19-2.8c0-1.22-.61-2.77-2.16-2.77S213.39,60.3,213.39,61.67Z"/><path class="cls-1" d="M220.42,60c0-.75,0-1.36-.06-2h1.15l.06,1.16h0a2.49,2.49,0,0,1,2.27-1.33,2.13,2.13,0,0,1,2,1.45h0a3,3,0,0,1,.8-.94,2.46,2.46,0,0,1,1.6-.51c1,0,2.37.63,2.37,3.13v4.25h-1.28V61.18c0-1.39-.51-2.22-1.57-2.22a1.7,1.7,0,0,0-1.55,1.19,2.16,2.16,0,0,0-.1.66v4.46h-1.28V60.94c0-1.15-.51-2-1.51-2a2,2,0,0,0-1.73,2v4.35h-1.28Z"/><path class="cls-1" d="M233.27,61.83a2.36,2.36,0,0,0,2.52,2.55,4.84,4.84,0,0,0,2-.38l.23,1a5.91,5.91,0,0,1-2.45.47A3.43,3.43,0,0,1,232,61.71c0-2.22,1.31-4,3.45-4,2.4,0,3,2.11,3,3.47a5,5,0,0,1,0,.62Zm3.92-1a1.91,1.91,0,0,0-1.86-2.17,2.22,2.22,0,0,0-2.05,2.17Z"/><path class="cls-1" d="M241.5,62l-1.06,3.22h-1.37L242.55,55h1.6l3.5,10.25h-1.41L245.13,62Zm3.36-1-1-3c-.23-.67-.38-1.28-.53-1.87h0c-.15.61-.32,1.23-.52,1.86l-1,3Z"/><path class="cls-1" d="M249,57.91l1,3.74c.21.82.41,1.58.55,2.34h0c.17-.74.41-1.54.65-2.34l1.2-3.74h1.13l1.14,3.68c.27.88.49,1.66.65,2.4h0a22.17,22.17,0,0,1,.56-2.39l1-3.7h1.32l-2.37,7.36h-1.22l-1.13-3.51a24.55,24.55,0,0,1-.65-2.42h0a21.74,21.74,0,0,1-.67,2.43L251,65.27h-1.22l-2.22-7.36Z"/><path class="cls-1" d="M264.38,63.5a10.35,10.35,0,0,0,.12,1.76h-1.22l-.11-.93h0a2.74,2.74,0,0,1-2.25,1.09,2.1,2.1,0,0,1-2.25-2.11c0-1.78,1.58-2.75,4.43-2.74v-.15a1.52,1.52,0,0,0-1.67-1.7,3.67,3.67,0,0,0-1.92.55l-.3-.88a4.57,4.57,0,0,1,2.42-.65c2.25,0,2.8,1.54,2.8,3Zm-1.29-2c-1.46,0-3.12.23-3.12,1.66a1.18,1.18,0,0,0,1.26,1.28A1.83,1.83,0,0,0,263,63.21a1.4,1.4,0,0,0,.08-.43Z"/><path class="cls-1" d="M266.55,57.91l1.61,4.35c.17.49.35,1.06.47,1.51h0c.14-.44.29-1,.47-1.54l1.46-4.32H272l-2,5.25c-1,2.52-1.61,3.62-2.52,4.41a3.62,3.62,0,0,1-1.64.87l-.33-1.13a3.55,3.55,0,0,0,1.17-.65,4.06,4.06,0,0,0,1.13-1.49,1,1,0,0,0,.11-.32,1.17,1.17,0,0,0-.09-.35l-2.72-6.58Z"/><path class="cls-1" d="M194.75,49.6H186l-5.15,6.08h1.82v6.48l-1.39.18a.65.65,0,0,0-.5.83.69.69,0,0,0,.67.42l1.21-.15v1.8l8.64,1.56,6.87-1.55V55.7h2ZM193,56.84l1.89-.09v2.52l-1.91.15Zm-9.68,7.93V63.41l3.77-.51a.61.61,0,0,0,.6-.72c0-.65-.73-.54-.73-.54l-3.63.42,0-6.37,3.93-5,4.1,5V66.23Zm9.67-2V60.22l1.9-.15v2.55Zm4.26-.41-1.57.15V60l1.57-.11Zm-1.57-3.18v-2.5l1.57,0v2.45Z"/><path class="cls-1" d="M188.91,55.77a2.28,2.28,0,0,0-1.72-.84h-.11a2.23,2.23,0,0,0-1.65.92,3.28,3.28,0,0,0-.64,2c0,.06,0,.13,0,.19a3.36,3.36,0,0,0,.77,2,2.28,2.28,0,0,0,1.72.84h.11A2.23,2.23,0,0,0,189,60a3.28,3.28,0,0,0,.64-2c0-.06,0-.13,0-.2A3.35,3.35,0,0,0,188.91,55.77Zm-.25,3.9a1.74,1.74,0,0,1-1.28.72h-.08a1.79,1.79,0,0,1-1.35-.67,2.86,2.86,0,0,1-.65-1.72c0-.06,0-.11,0-.17a2.8,2.8,0,0,1,.54-1.7,1.74,1.74,0,0,1,1.28-.72h.08a1.79,1.79,0,0,1,1.35.67,2.86,2.86,0,0,1,.65,1.72c0,.06,0,.11,0,.17A2.8,2.8,0,0,1,188.66,59.67Z"/><path class="cls-1" d="M186.4,58a2.16,2.16,0,0,1,.65-1.87c-.72.05-1.25.9-1.2,1.91s.68,1.81,1.41,1.78h0A2.14,2.14,0,0,1,186.4,58Z"/><path class="cls-1" d="M275,58.81a1,1,0,1,1-1-1A1,1,0,0,1,275,58.81Zm-1.73,0a.75.75,0,0,0,.75.77.74.74,0,0,0,.73-.76.74.74,0,1,0-1.49,0Zm.59.5h-.22v-1a2.6,2.6,0,0,1,.37,0,.51.51,0,0,1,.33.08.24.24,0,0,1,.1.21.25.25,0,0,1-.2.23h0c.09,0,.14.11.17.24a.86.86,0,0,0,.07.24h-.24a.76.76,0,0,1-.08-.24c0-.1-.08-.15-.2-.15h-.11Zm0-.54H274c.12,0,.22,0,.22-.14s-.06-.15-.21-.15h-.12Z"/></g></g></svg>