<svg width="566" height="238" xmlns="http://www.w3.org/2000/svg">
 <style type="text/css">.st0{fill:#FFFFFF;}
	.st1{font-family:'Helvetica-Bold';}
	.st2{font-size:8.7438px;}
	.st3{font-size:8.7486px;}</style>

 <g>
  <title>background</title>
  <rect fill="none" id="canvas_background" height="240" width="568" y="-1" x="-1"/>
 </g>
 <g>
  <title>Layer 1</title>
  <g id="svg_1">
   <polygon id="svg_2" points="0,0 0,238.70001220703125 566.0999755859375,238.70001220703125 566.0999755859375,0 0,0 "/>
   <!--<rect width="632.57" height="266.73" style="fill:rgb(0,0,0);stroke-width:3;stroke:rgb(0,0,0)" />-->
   <path id="svg_3" d="m158.4,113.9c0,-14.8 -13.6,-36.1 -39.8,-36.1c-23.7,0 -39.8,20.3 -39.8,41.3c0,25 17.3,42.8 46.9,42.8l56.1,0c-13.3,20.7 -36.4,33.9 -62.9,33.9c-41.9,0 -75.8,-34.2 -75.8,-76.1s33.9,-76.1 75.8,-76.1c41.9,0 76.1,34.2 76.1,76.1c0,8.3 -1.5,16.3 -3.7,23.7l-84.8,0l0,-8.3l29.9,-0.9c15.2,-0.6 22,-8.3 22,-20.3l0,0z" class="st0"/>
   <text x="-112" y="-187" id="svg_4" class="st0 st1 st2" transform="matrix(1,0,0,1,282.6437,382.9806) ">TM</text>
   <path id="svg_5" d="m259.4,81.4c0,-4.3 -4,-10.6 -11.7,-10.6c-7,0 -11.7,6 -11.7,12.1c0,7.3 5.1,12.6 13.7,12.6l16.5,0c-3.9,6.1 -10.7,9.9 -18.4,9.9c-12.3,0 -22.2,-10 -22.2,-22.3s9.9,-22.3 22.2,-22.3c12.3,0 22.3,10 22.3,22.3c0,2.4 -0.5,4.8 -1.1,7l-24.9,0l0,-2.4l8.8,-0.3c4.5,-0.2 6.5,-2.5 6.5,-6l0,0z" class="st0"/>
   <polygon id="svg_6" points="288.6000061035156,74.60000610351562 297.1000061035156,62.100006103515625 308.8999938964844,62.100006103515625 294.3999938964844,82.29998779296875 310.1000061035156,104.10000610351562 297.6000061035156,104.10000610351562 288.29998779296875,90.5 278.8999938964844,104.10000610351562 267.1000061035156,104.10000610351562 282.5,82.79998779296875 267.6000061035156,62.100006103515625 280.1000061035156,62.100006103515625 288.6000061035156,74.60000610351562 " class="st0"/>
   <path id="svg_7" d="m323,70.4c3.1,-6.5 8.6,-9.4 14.2,-9.4c10.1,0 19.3,8.6 19.3,22.1c0,13.6 -9.2,22.1 -19.3,22.1c-5.6,0 -11.1,-2.9 -14.2,-9.4c-0.2,-0.4 -0.5,-0.3 -0.5,0.1l0,25.4l-10.8,0l0,-59.2l10.8,0l0,8.1c0,0.4 0.3,0.5 0.5,0.2l0,0zm11.2,25.9c6.3,0 11.8,-5.5 11.8,-13.2s-5.5,-13.2 -11.8,-13.2c-6.2,0 -11.8,5.5 -11.8,13.2s5.6,13.2 11.8,13.2l0,0z" class="st0"/>
   <path id="svg_8" d="m393.9,81.4c0,-4.3 -4,-10.6 -11.7,-10.6c-7,0 -11.7,6 -11.7,12.1c0,7.3 5.1,12.6 13.7,12.6l16.5,0c-3.9,6.1 -10.7,9.9 -18.4,9.9c-12.3,0 -22.2,-10 -22.2,-22.3s9.9,-22.3 22.2,-22.3c12.3,0 22.3,10 22.3,22.3c0,2.4 -0.5,4.8 -1.1,7l-24.9,0l0,-2.4l8.8,-0.3c4.5,-0.2 6.5,-2.5 6.5,-6l0,0z" class="st0"/>
   <path id="svg_9" d="m441.7,95.8c-3.1,6.5 -8.6,9.4 -14.2,9.4c-10.1,0 -19.3,-8.6 -19.3,-22.1c0,-13.6 9.2,-22.1 19.3,-22.1c5.6,0 11.1,2.9 14.2,9.4c0.2,0.4 0.5,0.3 0.5,-0.1l0,-26.3l10.8,0l0,60.1l-10.8,0l0,-8.1c0,-0.4 -0.3,-0.5 -0.5,-0.2l0,0zm-11.2,-25.9c-6.3,0 -11.8,5.5 -11.8,13.2s5.5,13.2 11.8,13.2c6.2,0 11.8,-5.5 11.8,-13.2s-5.6,-13.2 -11.8,-13.2l0,0z" class="st0"/>
   <path id="svg_10" d="m459.9,49.9c0,-3.4 2.9,-6.3 6.3,-6.3c3.4,0 6.3,2.9 6.3,6.3c0,3.4 -2.9,6.3 -6.3,6.3c-3.4,0 -6.3,-2.8 -6.3,-6.3l0,0zm11.7,12.2l0,41.9l-10.8,0l0,-41.9l10.8,0l0,0z" class="st0"/>
   <path id="svg_11" d="m510.6,95.8c-3.1,6.5 -8.6,9.4 -14.2,9.4c-10.1,0 -19.3,-8.6 -19.3,-22.1c0,-13.6 9.2,-22.1 19.3,-22.1c5.6,0 11.1,2.9 14.2,9.4c0.2,0.4 0.5,0.3 0.5,-0.1l0,-8.1l10.8,0l0,41.9l-10.9,0l0,-8.1c0,-0.4 -0.2,-0.5 -0.4,-0.2l0,0zm-11.2,-25.9c-6.3,0 -11.8,5.5 -11.8,13.2s5.5,13.2 11.8,13.2c6.2,0 11.8,-5.5 11.8,-13.2s-5.6,-13.2 -11.8,-13.2l0,0z" class="st0"/>
   <path id="svg_12" d="m262.9,170.2c0,-0.4 -0.3,-0.5 -0.5,-0.1c-3.1,6.5 -8.5,9.4 -14,9.4c-10,0 -19.2,-8.5 -19.2,-22c0,-13.5 9.1,-22 19.2,-22c5.5,0 10.9,2.9 14,9.4c0.2,0.4 0.5,0.3 0.5,-0.1l0,-8.1l10.8,0l0,39.5c0,11.7 -8,20.7 -22,20.7c-7.8,0 -14.6,-2.7 -19.5,-7.3l6.5,-7.1c4.3,3.4 7.8,5.2 12.8,5.2c8,0 11.3,-5.6 11.3,-12.6l0,-4.9l0.1,0zm-11.4,-25.7c-6.2,0 -11.7,5.4 -11.7,13c0,7.6 5.4,13 11.7,13c6.1,0 11.7,-5.4 11.7,-13c-0.1,-7.6 -5.6,-13 -11.7,-13l0,0z" class="st0"/>
   <path id="svg_13" d="m292.4,136.7l0,9.1c0,0.2 0.2,0.3 0.3,0c1.4,-7.5 4.7,-10.3 10.3,-10.3l1,0l0,11.4l-4.9,0c-4.4,0 -6.7,3.4 -6.7,8.3l0,23.4l-10.8,0l0,-41.9l10.8,0l0,0z" class="st0"/>
   <path id="svg_14" d="m327,135.4c12.2,0 22.2,10 22.2,22.3s-10,22.3 -22.2,22.3c-12.4,0 -22.4,-10 -22.4,-22.3s10,-22.3 22.4,-22.3l0,0zm-0.1,9.8c-6.5,0 -11.8,5.4 -11.8,12.5c0,7.1 5.3,12.5 11.8,12.5c6.5,0 11.8,-5.4 11.8,-12.5c0.1,-7.1 -5.2,-12.5 -11.8,-12.5l0,0z" class="st0"/>
   <path id="svg_15" d="m371.8,180c-10.6,0 -17.4,-6.4 -17.4,-15.8l0,-27.5l10.8,0l0,26.7c0,4.2 2.7,6.9 6.8,6.9c3.7,0 6.5,-2.8 6.5,-6.8l0,-26.8l10.8,0l0,27.5c0.1,9.4 -7.2,15.8 -17.5,15.8l0,0z" class="st0"/>
   <path id="svg_16" d="m408.2,144.9c3.1,-6.5 8.6,-9.4 14.2,-9.4c10.1,0 19.3,8.6 19.3,22.1c0,13.6 -9.2,22.1 -19.3,22.1c-5.6,0 -11.1,-2.9 -14.2,-9.4c-0.2,-0.4 -0.5,-0.3 -0.5,0.1l0,25.4l-10.8,0l0,-59.2l10.8,0l0,8.1c0.1,0.5 0.3,0.6 0.5,0.2l0,0zm11.2,26c6.3,0 11.8,-5.5 11.8,-13.2c0,-7.7 -5.5,-13.2 -11.8,-13.2c-6.2,0 -11.8,5.5 -11.8,13.2c0,7.7 5.6,13.2 11.8,13.2l0,0z" class="st0"/>
   <text x="-112" y="-187" id="svg_17" class="st0 st1 st3" transform="matrix(1,0,0,1,559.7062,329.9572) ">TM</text>
  </g>
 </g>
</svg>