<?xml version="1.0" encoding="UTF-8" standalone="no"?>
<svg width="48px" height="48px" viewBox="0 0 48 48" version="1.1" xmlns="http://www.w3.org/2000/svg" xmlns:xlink="http://www.w3.org/1999/xlink" xmlns:sketch="http://www.bohemiancoding.com/sketch/ns">
    <!-- Generator: Sketch 3.4.2 (15855) - http://www.bohemiancoding.com/sketch -->
    <title>Pie Icon</title>
    <desc>Created with Sketch.</desc>
    <defs></defs>
    <g id="Page-1" stroke="none" stroke-width="1" fill="none" fill-rule="evenodd" sketch:type="MSPage">
        <g id="Desktop-HD" sketch:type="MSArtboardGroup" transform="translate(-203.000000, -1192.000000)" fill="#00355F">
            <g id="Pie-Icon" sketch:type="MSLayerGroup" transform="translate(203.000000, 1192.000000)">
                <g id="Page-1" sketch:type="MSShapeGroup">
                    <g>
                        <g id="Pie-Icon">
                            <path d="M48,25.5 C48,37.9247813 37.9247813,48 25.5,48 C13.0752187,48 3,37.9247813 3,25.5 L25.5,25.5 L25.5,3 C37.9247813,3 48,13.0752187 48,25.5 L48,25.5 L48,25.5 Z" id="Pie"></path>
                            <path d="M22.5,0 C10.0752187,0 0,10.0752187 0,22.5 L22.5,22.5 L22.5,0 L22.5,0 L22.5,0 Z M19.5,19.5 L3.2285625,19.5 C4.52634375,11.1445312 11.1445312,4.52634375 19.5,3.2285625 L19.5,19.5 L19.5,19.5 L19.5,19.5 Z" id="Slice"></path>
                        </g>
                    </g>
                </g>
            </g>
        </g>
    </g>
</svg>