<?xml version="1.0" encoding="UTF-8" standalone="no"?>
<svg width="42px" height="64px" viewBox="0 0 42 64" version="1.1" xmlns="http://www.w3.org/2000/svg" xmlns:xlink="http://www.w3.org/1999/xlink" xmlns:sketch="http://www.bohemiancoding.com/sketch/ns">
    <!-- Generator: Sketch 3.4.2 (15855) - http://www.bohemiancoding.com/sketch -->
    <title>ico-ribbon</title>
    <desc>Created with Sketch.</desc>
    <defs></defs>
    <g id="Page-1" stroke="none" stroke-width="1" fill="none" fill-rule="evenodd" sketch:type="MSPage">
        <g id="ico-ribbon" sketch:type="MSLayerGroup" fill="#FFBF00">
            <g id="Fill-1" sketch:type="MSShapeGroup">
                <g id="Page-1">
                    <g id="Desktop-HD">
                        <g id="Page-1-Copy">
                            <path d="M32.5903496,20.2041857 C32.5903496,13.6466815 27.1861601,8.33082963 20.5196845,8.33082963 C13.8541012,8.33082963 8.44991159,13.6466815 8.44991159,20.2041857 C8.44991159,26.7612513 13.8541012,32.0766644 20.5196845,32.0766644 C27.1861601,32.0766644 32.5903496,26.7612513 32.5903496,20.2041857 M34.2714648,20.2041857 C34.2714648,12.7336501 28.114364,6.67763305 20.5196845,6.67763305 C12.9258973,6.67763305 6.76879649,12.7336501 6.76879649,20.2041857 C6.76879649,27.6747213 12.9258973,33.7311772 20.5196845,33.7311772 C28.114364,33.7311772 34.2714648,27.6747213 34.2714648,20.2041857 M41.0400828,22.1719635 L40.9624723,22.8362256 C40.7024325,23.2609321 40.1448857,23.8313025 39.7233803,24.1028867 L39.5779721,24.1963396 C39.1573588,24.4683624 38.5748339,25.0229379 38.2844636,25.4283396 L37.9303099,26.4747499 C37.9151445,26.9705333 38.0418192,27.7576444 38.2139896,28.2240319 L38.3107797,28.4864023 C38.4816121,28.9527897 38.5788483,29.7381459 38.5271079,30.2317356 L38.1872273,30.8016672 C37.7733047,31.0859749 37.0275301,31.3812513 36.5297523,31.4606644 L36.3303736,31.4922541 C35.8325957,31.5707897 35.0712099,31.84369 34.6385536,32.0981629 L33.8878725,32.9076501 C33.6706523,33.3551715 33.4654751,34.1260491 33.4315763,34.6213937 L33.4128427,34.9035077 C33.3784979,35.3979749 33.1474504,36.1561288 32.8981155,36.5865391 L32.356626,36.9695647 C31.8610784,37.0643339 31.0582111,37.0371316 30.5702461,36.9103339 L30.3454432,36.8519807 C29.8588164,36.7243055 29.0497045,36.6699008 28.5492505,36.7295704 L27.5345153,37.1696331 C27.1522612,37.4929892 26.6495771,38.1173253 26.4162995,38.557388 L26.2865025,38.8004536 C26.0536711,39.2405163 25.5326993,39.8424764 25.1281433,40.1390689 L24.4782668,40.2728867 C23.9867336,40.1627612 23.2632608,39.818784 22.8694097,39.5077128 L22.6669088,39.3480091 C22.2726117,39.0382541 21.5567216,38.6670747 21.0745552,38.5222883 L19.9665981,38.5222883 C19.4835396,38.6670747 18.7672035,39.0382541 18.3733524,39.3480091 L18.1708515,39.5077128 C17.7774464,39.818784 17.0535277,40.1627612 16.5615484,40.2728867 L15.9125639,40.1390689 C15.508454,39.8424764 14.9865903,39.2405163 14.7537587,38.8004536 L14.6244079,38.557388 C14.3911303,38.1173253 13.887554,37.4929892 13.5052999,37.1696331 L12.4905647,36.7295704 C11.9896647,36.6699008 11.1814448,36.7243055 10.694372,36.8519807 L10.4700151,36.9103339 C9.98249621,37.0371316 9.17873676,37.0643339 8.68408124,36.9695647 L8.14214576,36.5865391 C7.89281083,36.1561288 7.66176344,35.3979749 7.62741856,34.9035077 L7.60823895,34.6213937 C7.57478615,34.1260491 7.36916288,33.3551715 7.15194265,32.9076501 L6.40126165,32.0981629 C5.96860533,31.84369 5.2067734,31.5707897 4.70944165,31.4922541 L4.51050896,31.4606644 C4.01317723,31.3812513 3.26740263,31.0859749 2.85347989,30.8016672 L2.51270729,30.2317356 C2.46052091,29.7381459 2.55864915,28.9527897 2.72992752,28.4864023 L2.8262716,28.2240319 C2.99754999,27.7576444 3.12511668,26.9705333 3.10950537,26.4747499 L2.75490561,25.4283396 C2.46453524,25.0229379 1.88290243,24.4683624 1.46095101,24.1963396 L1.31688092,24.1028867 C0.894929511,23.8313025 0.337382716,23.2609321 0.0777889287,22.8362256 L0.000178414975,22.1719635 C0.155399443,21.6998724 0.56619992,21.0198153 0.913663083,20.6609208 L1.09787654,20.4705048 C1.44578575,20.1116103 1.88557865,19.4416444 2.07514456,18.9822769 L2.18442373,17.8757584 C2.08807965,17.3887499 1.78745041,16.6485847 1.51625965,16.2304592 L1.43508084,16.1058553 C1.16433612,15.6877299 0.893591397,14.9422997 0.833376344,14.4495875 L1.03944564,13.8050689 C1.37531183,13.4352057 2.03098685,12.9767157 2.49664995,12.7862997 L2.71922263,12.6954792 C3.18488571,12.5046245 3.86241657,12.0671943 4.22549104,11.7227783 L4.78749821,10.7496387 C4.90257587,10.2670177 4.93736679,9.47025413 4.8660008,8.97973561 L4.84548308,8.84284672 C4.77322501,8.35188945 4.8374544,7.56346211 4.98866109,7.09005471 L5.44941776,6.57935384 C5.90928236,6.37533675 6.69743051,6.21870428 7.20189884,6.23011168 L7.41287455,6.23581539 C7.91734289,6.24722279 8.71753405,6.11867008 9.1912258,5.94931396 L10.1127391,5.28373561 C10.4196129,4.89018005 10.7849176,4.17765584 10.9245273,3.70117721 L10.9642246,3.5669208 C11.1033883,3.09044216 11.4923329,2.39766153 11.8277531,2.0269208 L12.4651406,1.74480684 C12.9691629,1.7434906 13.7541888,1.91679544 14.2095929,2.13002621 L14.3728427,2.20636809 C14.8282469,2.41959887 15.6123807,2.62361596 16.1150649,2.65915441 L17.2368491,2.42267008 C17.6806563,2.18706325 18.3109072,1.68557607 18.6374067,1.30781538 L18.7386571,1.18979259 C19.0656025,0.812031909 19.7092345,0.337747008 20.1699912,0.135046153 L20.87027,0.135046153 C21.3314727,0.337747008 21.9751048,0.812470655 22.3011581,1.18979259 L22.4028547,1.30781538 C22.7298001,1.68557607 23.3591589,2.18706325 23.8029661,2.42267008 L24.9243043,2.65915441 C25.4278805,2.62361596 26.2115683,2.41959887 26.6669725,2.20636809 L26.8311143,2.13002621 C27.2860725,1.91679544 28.0710984,1.7434906 28.5751207,1.74480684 L29.2129543,2.0269208 C29.5483744,2.39766153 29.9364269,3.09044216 30.0760367,3.5669208 L30.1152879,3.70117721 C30.2557897,4.17765584 30.6202023,4.89018005 30.92663,5.28373561 L31.8485895,5.94931396 C32.3231732,6.11867008 33.1220263,6.24722279 33.6264947,6.23581539 L33.8388084,6.23011168 C34.3432768,6.21870428 35.1314249,6.37533675 35.5912895,6.57935384 L36.0520461,7.09005471 C36.2023608,7.56346211 36.2670363,8.35188945 36.1938861,8.84284672 L36.1747065,8.97973561 C36.1020024,9.47025413 36.1363473,10.2670177 36.2523171,10.7496387 L36.8152163,11.7223396 C37.1773987,12.0671943 37.8544835,12.5046245 38.3205925,12.6954792 L38.5431653,12.7862997 C39.0088284,12.9767157 39.6649495,13.4352057 40.0008156,13.8050689 L40.2068849,14.4495875 C40.1462239,14.9422997 39.8750331,15.6877299 39.6051804,16.1058553 L39.5235556,16.2304592 C39.2528108,16.6485847 38.9530737,17.3887499 38.8558375,17.8757584 L38.9646707,18.9822769 C39.1551287,19.4416444 39.5944755,20.1116103 39.9419387,20.4705048 L40.1261521,20.6609208 C40.4745073,21.0198153 40.8853079,21.6998724 41.0400828,22.1719635 M31.3267256,38.4915761 C31.2040653,38.4674451 30.7053955,38.3441572 30.2183225,38.2177983 L29.9939657,38.1590063 C29.5060008,38.0317699 29.0586252,37.919012 28.9988563,37.9076045 L28.9381952,37.9076045 L28.591624,37.9076045 C28.2994696,38.1695361 27.8681513,38.7421003 27.6357659,39.1826017 L27.5059689,39.4256672 C27.2726913,39.8661687 26.8025679,40.5238496 26.4613492,40.8888867 C26.4613492,40.8888867 25.6241369,41.7804193 24.5603377,41.7804193 L24.3805847,41.7804193 C24.1861123,41.7505847 23.9167057,42.1178153 23.7828944,42.5956103 L22.01391,48.8534507 C21.8787607,49.3321231 21.8787607,50.1135305 22.01391,50.5913253 L25.4595492,62.7858439 C25.5938064,63.2640775 25.9274424,63.3132171 26.1999713,62.896408 L29.8574783,57.293616 C30.1304532,56.8759293 30.7218988,56.7188581 31.1706125,56.9434963 L37.1055867,59.9076672 C37.5551924,60.1318667 37.813002,59.9243396 37.6774067,59.4465447 L32.0176376,39.4120661 C31.8824883,38.9342712 31.4489399,38.5143909 31.3267256,38.4915761 M22.5174863,42.0208524 L16.6512019,62.7858439 C16.5160525,63.2640775 16.1828627,63.3132171 15.9103337,62.896408 L12.2523807,57.293616 C11.9794058,56.8759293 11.3888523,56.7188581 10.9396925,56.9434963 L5.0042724,59.9076672 C4.55466667,60.1318667 4.29774911,59.9243396 4.43289845,59.4465447 L10.1528825,39.1966416 C10.2875858,38.7188467 10.7434361,38.2379807 11.1653875,38.1278553 C11.5873389,38.0181687 11.98119,37.919012 12.040959,37.9076045 L12.1020661,37.9076045 L12.4477451,37.9076045 C12.7412378,38.1695361 13.1716639,38.7421003 13.4049415,39.1826017 L13.5334003,39.4256672 C13.7666779,39.8652912 14.2376933,40.5229721 14.579358,40.8875704 C14.579358,40.8875704 15.4161243,41.7804193 16.4799236,41.7804193 C17.1391668,41.7804193 17.5169605,41.5702599 17.5169605,41.5702599 C17.9558615,41.3271943 18.6374067,40.8739692 19.0308116,40.5637755 L19.2337587,40.4040717 C19.6271637,40.093878 20.1048697,39.7639408 20.2962199,39.671804 L20.5196845,39.671804 L20.7435953,39.671804 C20.9349455,39.7639408 21.4130976,40.093878 21.8060565,40.4040717 L22.0098956,40.5637755 C22.4028547,40.8739692 22.7306921,41.1310747 22.7378288,41.1350233 C22.7449653,41.1394108 22.6517435,41.5434963 22.5174863,42.0208524" id="Fill-1"></path>
                        </g>
                    </g>
                </g>
            </g>
        </g>
    </g>
</svg>