<?xml version="1.0" encoding="UTF-8" standalone="no"?>
<svg width="140px" height="148px" viewBox="0 0 140 148" version="1.1" xmlns="http://www.w3.org/2000/svg" xmlns:xlink="http://www.w3.org/1999/xlink" xmlns:sketch="http://www.bohemiancoding.com/sketch/ns">
    <!-- Generator: Sketch 3.4.2 (15855) - http://www.bohemiancoding.com/sketch -->
    <title>Icon</title>
    <desc>Created with Sketch.</desc>
    <defs>
        <path id="path-1" d="M0,0.582538813 L139.813558,0.582538813 L139.813558,148 L0,148"></path>
        <path id="path-3" d="M0,0.582538813 L139.813558,0.582538813 L139.813558,148 L0,148 L0,0.582538813 Z"></path>
    </defs>
    <g id="Page-1" stroke="none" stroke-width="1" fill="none" fill-rule="evenodd" sketch:type="MSPage">
        <g id="Desktop-HD" sketch:type="MSArtboardGroup" transform="translate(-353.000000, -175.000000)">
            <g id="Icon" sketch:type="MSLayerGroup" transform="translate(353.000000, 175.000000)">
                <path d="M9.97654808,102.443978 C9.08202885,102.443978 8.35443269,101.714115 8.35443269,100.816654 C8.35443269,99.9198685 9.08202885,99.1900055 9.97654808,99.1900055 C10.8703942,99.1900055 11.5973173,99.9198685 11.5973173,100.816654 C11.5973173,101.714115 10.8703942,102.443978 9.97654808,102.443978 L9.97654808,102.443978 Z M48.4193365,91.6447087 L49.009625,91.6447087 L49.009625,92.2367087 L48.4193365,92.2367087 L48.4193365,91.6447087 Z M33.0684712,101.704654 L42.1159712,92.6219142 L46.7904904,92.6219142 L46.7904904,93.8728183 L50.6384712,93.8728183 L50.6384712,90.0085991 L46.7904904,90.0085991 L46.7904904,90.9858046 L41.4415481,90.9858046 L32.3940481,100.068544 L13.1319327,100.068544 C12.793375,98.6304438 11.5111635,97.5538959 9.97654808,97.5538959 C8.18414423,97.5538959 6.72558654,99.0176767 6.72558654,100.816654 C6.72558654,102.616307 8.18414423,104.080088 9.97654808,104.080088 C11.4600096,104.080088 12.7004904,103.07112 13.0888558,101.704654 L33.0684712,101.704654 Z" id="Fill-1" fill="#FFFFFF" sketch:type="MSShapeGroup"></path>
                <path d="M43.2379904,117.633914 C44.1311635,117.633914 44.8580865,118.363777 44.8580865,119.261238 C44.8580865,120.1587 44.1311635,120.889238 43.2379904,120.889238 C42.3441442,120.889238 41.6165481,120.1587 41.6165481,119.261238 C41.6165481,118.363777 42.3441442,117.633914 43.2379904,117.633914 L43.2379904,117.633914 Z M23.7544327,120.889238 C22.8605865,120.889238 22.1336635,120.1587 22.1336635,119.261238 C22.1336635,118.363777 22.8605865,117.633914 23.7544327,117.633914 C24.6482788,117.633914 25.3752019,118.363777 25.3752019,119.261238 C25.3752019,120.1587 24.6482788,120.889238 23.7544327,120.889238 L23.7544327,120.889238 Z M40.0489519,119.869458 C40.3343365,121.379193 41.6528942,122.525348 43.2379904,122.525348 C45.0297212,122.525348 46.4869327,121.060891 46.4869327,119.261238 C46.4869327,117.461585 45.0297212,115.997805 43.2379904,115.997805 C41.8056827,115.997805 40.6002019,116.939193 40.1687596,118.233348 L26.8229904,118.233348 C26.3915481,116.939193 25.1867404,115.997805 23.7544327,115.997805 C21.9627019,115.997805 20.5048173,117.461585 20.5048173,119.261238 C20.5048173,121.060891 21.9627019,122.525348 23.7544327,122.525348 C25.3388558,122.525348 26.6574135,121.379193 26.9427981,119.869458 L40.0489519,119.869458 Z" id="Fill-3" fill="#FFFFFF" sketch:type="MSShapeGroup"></path>
                <path d="M56.4477308,133.325766 L46.5662885,123.40436 L28.69475,123.40436 L28.69475,125.040469 L45.8918654,125.040469 L55.7733077,134.961876 L73.7262885,134.961876 L79.1930192,140.450716 L80.3446538,139.294424 L74.4007115,133.325766 L56.4477308,133.325766 Z" id="Fill-5" fill="#FFFFFF" sketch:type="MSShapeGroup"></path>
                <path d="M18.2440865,112.784515 C17.3495673,112.784515 16.6212981,112.054652 16.6212981,111.157191 C16.6212981,110.25973 17.3495673,109.529867 18.2440865,109.529867 C19.1379327,109.529867 19.8648558,110.25973 19.8648558,111.157191 C19.8648558,112.054652 19.1379327,112.784515 18.2440865,112.784515 M34.4699519,109.529867 C35.3644712,109.529867 36.0920673,110.25973 36.0920673,111.157191 C36.0920673,112.054652 35.3644712,112.784515 34.4699519,112.784515 C33.5761058,112.784515 32.8491827,112.054652 32.8491827,111.157191 C32.8491827,110.25973 33.5761058,109.529867 34.4699519,109.529867 M21.3563942,112.045191 L31.3583173,112.045191 C31.7460096,113.411657 32.9864904,114.420625 34.4699519,114.420625 C36.2630288,114.420625 37.7209135,112.956844 37.7209135,111.157191 C37.7209135,109.357538 36.2630288,107.893757 34.4699519,107.893757 C32.9360096,107.893757 31.6537981,108.970305 31.3152404,110.409081 L21.3994712,110.409081 C21.0609135,108.970305 19.7787019,107.893757 18.2440865,107.893757 C16.4510096,107.893757 14.9924519,109.357538 14.9924519,111.157191 C14.9924519,112.956844 16.4510096,114.420625 18.2440865,114.420625 C19.7275481,114.420625 20.9680288,113.411657 21.3563942,112.045191" id="Fill-7" fill="#FFFFFF" sketch:type="MSShapeGroup"></path>
                <g id="Group-11">
                    <mask id="mask-2" sketch:name="Clip 10" fill="white">
                        <use xlink:href="#path-1"></use>
                    </mask>
                    <g id="Clip-10"></g>
                    <path d="M60.8050288,146.363958 C59.9111827,146.363958 59.1835865,145.634095 59.1835865,144.736634 C59.1835865,143.839173 59.9111827,143.10931 60.8050288,143.10931 C61.698875,143.10931 62.4264712,143.839173 62.4264712,144.736634 C62.4264712,145.634095 61.698875,146.363958 60.8050288,146.363958 M34.1646442,131.069273 C33.2714712,131.069273 32.5445481,130.338734 32.5445481,129.440597 C32.5445481,128.543812 33.2714712,127.813949 34.1646442,127.813949 C35.0584904,127.813949 35.7860865,128.543812 35.7860865,129.440597 C35.7860865,130.338734 35.0584904,131.069273 34.1646442,131.069273 M60.8050288,141.4732 C60.1568558,141.4732 59.5557981,141.669182 59.047625,141.998972 L45.7314712,128.627611 L37.3005096,128.627611 C36.9377212,127.222625 35.6757019,126.177839 34.1646442,126.177839 C32.3729135,126.177839 30.9157019,127.64162 30.9157019,129.440597 C30.9157019,131.240926 32.3729135,132.705383 34.1646442,132.705383 C35.6723365,132.705383 36.9316635,131.663976 37.2978173,130.263721 L45.0577212,130.263721 L57.9498365,143.210004 C57.7061827,143.66752 57.5547404,144.182479 57.5547404,144.736634 C57.5547404,146.536287 59.012625,148.000068 60.8050288,148.000068 C62.5974327,148.000068 64.0553173,146.536287 64.0553173,144.736634 C64.0553173,142.936981 62.5974327,141.4732 60.8050288,141.4732" id="Fill-9" fill="#FFFFFF" sketch:type="MSShapeGroup" mask="url(#mask-2)"></path>
                </g>
                <path d="M123.817885,116.839985 C122.924038,116.839985 122.196442,116.110122 122.196442,115.212661 C122.196442,114.315876 122.924038,113.586689 123.817885,113.586689 C124.711731,113.586689 125.438654,114.315876 125.438654,115.212661 C125.438654,116.110122 124.711731,116.839985 123.817885,116.839985 M122.615769,93.6945425 C122.615769,92.7970813 123.342692,92.0665425 124.235865,92.0665425 C125.129712,92.0665425 125.857308,92.7970813 125.857308,93.6945425 C125.857308,94.5926795 125.129712,95.3225425 124.235865,95.3225425 C123.342692,95.3225425 122.615769,94.5926795 122.615769,93.6945425 M124.982981,112.176296 L124.982981,96.8633644 C126.414615,96.5220858 127.486154,95.2346886 127.486154,93.6945425 C127.486154,91.8948895 126.028269,90.4304329 124.235865,90.4304329 C122.444135,90.4304329 120.986923,91.8948895 120.986923,93.6945425 C120.986923,95.1853553 121.993173,96.4322046 123.354808,96.8214648 L123.354808,111.997209 C121.783173,112.225629 120.567596,113.573173 120.567596,115.212661 C120.567596,117.012314 122.025481,118.476095 123.817885,118.476095 C125.609615,118.476095 127.0675,117.012314 127.0675,115.212661 C127.0675,113.827273 126.199231,112.648679 124.982981,112.176296" id="Fill-12" fill="#FFFFFF" sketch:type="MSShapeGroup"></path>
                <path d="M131.236875,110.624121 C131.236875,111.521582 130.509952,112.252121 129.616106,112.252121 C128.72226,112.252121 127.994663,111.521582 127.994663,110.624121 C127.994663,109.726659 128.72226,108.996796 129.616106,108.996796 C130.509952,108.996796 131.236875,109.726659 131.236875,110.624121 M127.994663,99.795116 C127.994663,98.896979 128.72226,98.167116 129.616106,98.167116 C130.509952,98.167116 131.236875,98.896979 131.236875,99.795116 C131.236875,100.691901 130.509952,101.421764 129.616106,101.421764 C128.72226,101.421764 127.994663,100.691901 127.994663,99.795116 M132.865721,99.795116 C132.865721,97.995463 131.407837,96.5310064 129.616106,96.5310064 C127.823702,96.5310064 126.365817,97.995463 126.365817,99.795116 C126.365817,101.289984 127.378125,102.539536 128.74649,102.924066 L128.74649,107.494495 C127.378125,107.879025 126.365817,109.129253 126.365817,110.624121 C126.365817,112.423774 127.823702,113.88823 129.616106,113.88823 C131.407837,113.88823 132.865721,112.423774 132.865721,110.624121 C132.865721,109.088705 131.80024,107.805363 130.375337,107.460029 L130.375337,102.958532 C131.80024,102.613198 132.865721,101.330532 132.865721,99.795116" id="Fill-14" fill="#FFFFFF" sketch:type="MSShapeGroup"></path>
                <path d="M13.5943365,71.8653534 C14.4875096,71.8653534 15.2144327,72.5952164 15.2144327,73.4926776 C15.2144327,74.3901388 14.4875096,75.1200018 13.5943365,75.1200018 C12.7004904,75.1200018 11.9735673,74.3901388 11.9735673,73.4926776 C11.9735673,72.5952164 12.7004904,71.8653534 13.5943365,71.8653534 M30.7140481,66.07781 C31.6065481,66.07781 32.3334712,66.8076731 32.3334712,67.7051342 C32.3334712,68.6025954 31.6065481,69.3324584 30.7140481,69.3324584 C29.8195288,69.3324584 29.0919327,68.6025954 29.0919327,67.7051342 C29.0919327,66.8076731 29.8195288,66.07781 30.7140481,66.07781 M10.3447212,73.4926776 C10.3447212,75.2923306 11.8026058,76.7561114 13.5943365,76.7561114 C15.3860673,76.7561114 16.8432788,75.2923306 16.8432788,73.4926776 C16.8432788,73.2642575 16.8190481,73.0412438 16.774625,72.8256639 L22.4170288,68.7255909 L27.642125,68.7255909 C28.0715481,70.0231251 29.278375,70.968568 30.7140481,70.968568 C32.5051058,70.968568 33.9623173,69.5047872 33.9623173,67.7051342 C33.9623173,65.9054813 32.5051058,64.4417005 30.7140481,64.4417005 C29.1309712,64.4417005 27.8130865,65.5838009 27.5256827,67.0894813 L21.8900096,67.0894813 L16.0254904,71.3503945 C15.4298173,70.6685132 14.5662596,70.2292438 13.5943365,70.2292438 C11.8026058,70.2292438 10.3447212,71.6930247 10.3447212,73.4926776" id="Fill-16" fill="#FFFFFF" sketch:type="MSShapeGroup"></path>
                <g id="Group-20">
                    <mask id="mask-4" sketch:name="Clip 19" fill="white">
                        <use xlink:href="#path-3"></use>
                    </mask>
                    <g id="Clip-19"></g>
                    <path d="M1.62877885,82.4098466 C1.62877885,81.5123854 2.35570192,80.7825224 3.24954808,80.7825224 C4.14204808,80.7825224 4.86897115,81.5123854 4.86897115,82.4098466 C4.86897115,83.3073078 4.14204808,84.0378466 3.24954808,84.0378466 C2.35570192,84.0378466 1.62877885,83.3073078 1.62877885,82.4098466 L1.62877885,82.4098466 Z M5.93983654,60.948495 C5.04599038,60.948495 4.31839423,60.218632 4.31839423,59.320495 C4.31839423,58.4230338 5.04599038,57.6931708 5.93983654,57.6931708 C6.83368269,57.6931708 7.56060577,58.4230338 7.56060577,59.320495 C7.56060577,60.218632 6.83368269,60.948495 5.93983654,60.948495 L5.93983654,60.948495 Z M8.44570192,49.2105406 C7.55185577,49.2105406 6.82493269,48.4800018 6.82493269,47.5832164 C6.82493269,46.6857553 7.55185577,45.9552164 8.44570192,45.9552164 C9.33954808,45.9552164 10.0664712,46.6857553 10.0664712,47.5832164 C10.0664712,48.4800018 9.33954808,49.2105406 8.44570192,49.2105406 L8.44570192,49.2105406 Z M13.3154135,40.4075817 C12.4222404,40.4075817 11.6953173,39.6777187 11.6953173,38.7809333 C11.6953173,37.8827963 12.4222404,37.1529333 13.3154135,37.1529333 C14.2092596,37.1529333 14.9368558,37.8827963 14.9368558,38.7809333 C14.9368558,39.6777187 14.2092596,40.4075817 13.3154135,40.4075817 L13.3154135,40.4075817 Z M20.4621442,27.601189 C20.4621442,26.7037279 21.1897404,25.9738648 22.0842596,25.9738648 C22.9781058,25.9738648 23.7050288,26.7037279 23.7050288,27.601189 C23.7050288,28.4986502 22.9781058,29.2285132 22.0842596,29.2285132 C21.1897404,29.2285132 20.4621442,28.4986502 20.4621442,27.601189 L20.4621442,27.601189 Z M74.5364712,51.5792164 L61.5178173,38.7782301 L61.5178173,24.1708329 L67.6360865,32.6041297 L67.543875,32.6041297 L67.543875,37.7834539 L75.6059904,45.8788511 L77.2664712,45.8788511 L79.7137788,49.2524402 L80.5315673,51.5792164 L74.5364712,51.5792164 Z M56.5350288,18.5630521 C56.5350288,17.6655909 57.2619519,16.9357279 58.1557981,16.9357279 C59.0503173,16.9357279 59.7772404,17.6655909 59.7772404,18.5630521 C59.7772404,19.4605132 59.0503173,20.1903763 58.1557981,20.1903763 C57.2619519,20.1903763 56.5350288,19.4605132 56.5350288,18.5630521 L56.5350288,18.5630521 Z M69.1727212,34.722084 L75.5400288,43.4993626 L69.1727212,37.1056274 L69.1727212,34.722084 Z M52.8903173,7.33938082 C52.8903173,6.44191963 53.6179135,5.71205662 54.5117596,5.71205662 C55.4049327,5.71205662 56.1325288,6.44191963 56.1325288,7.33938082 C56.1325288,8.23684201 55.4049327,8.96670502 54.5117596,8.96670502 C53.6179135,8.96670502 52.8903173,8.23684201 52.8903173,7.33938082 L52.8903173,7.33938082 Z M64.761375,17.7156 C65.6545481,17.7156 66.3814712,18.4461388 66.3814712,19.3436 C66.3814712,20.2410612 65.6545481,20.9709242 64.761375,20.9709242 C63.8675288,20.9709242 63.1399327,20.2410612 63.1399327,19.3436 C63.1399327,18.4461388 63.8675288,17.7156 64.761375,17.7156 L64.761375,17.7156 Z M66.8082019,3.84617534 C66.8082019,2.94871416 67.535125,2.21885114 68.427625,2.21885114 C69.3214712,2.21885114 70.0490673,2.94871416 70.0490673,3.84617534 C70.0490673,4.74363653 69.3214712,5.47349954 68.427625,5.47349954 C67.535125,5.47349954 66.8082019,4.74363653 66.8082019,3.84617534 L66.8082019,3.84617534 Z M78.2195481,4.40506119 C78.2195481,3.5082758 78.9464712,2.77841279 79.8403173,2.77841279 C80.7341635,2.77841279 81.4617596,3.5082758 81.4617596,4.40506119 C81.4617596,5.30252237 80.7341635,6.03306119 79.8403173,6.03306119 C78.9464712,6.03306119 78.2195481,5.30252237 78.2195481,4.40506119 L78.2195481,4.40506119 Z M89.2142596,5.52350868 C89.2142596,4.62604749 89.9411827,3.89550868 90.8350288,3.89550868 C91.728875,3.89550868 92.4557981,4.62604749 92.4557981,5.52350868 C92.4557981,6.42096986 91.728875,7.15083288 90.8350288,7.15083288 C89.9411827,7.15083288 89.2142596,6.42096986 89.2142596,5.52350868 L89.2142596,5.52350868 Z M104.196279,6.96971872 C105.089452,6.96971872 105.816375,7.70025753 105.816375,8.59771872 C105.816375,9.49450411 105.089452,10.2250429 104.196279,10.2250429 C103.302433,10.2250429 102.574837,9.49450411 102.574837,8.59771872 C102.574837,7.70025753 103.302433,6.96971872 104.196279,6.96971872 L104.196279,6.96971872 Z M102.852817,31.7938466 C102.852817,30.8957096 103.580413,30.1658466 104.47426,30.1658466 C105.368106,30.1658466 106.095029,30.8957096 106.095029,31.7938466 C106.095029,32.690632 105.368106,33.420495 104.47426,33.420495 C103.580413,33.420495 102.852817,32.690632 102.852817,31.7938466 L102.852817,31.7938466 Z M138.184644,44.0021571 C138.184644,44.8989425 137.457048,45.6288055 136.563202,45.6288055 C135.669356,45.6288055 134.94176,44.8989425 134.94176,44.0021571 C134.94176,43.1046959 135.669356,42.3748329 136.563202,42.3748329 C137.457048,42.3748329 138.184644,43.1046959 138.184644,44.0021571 L138.184644,44.0021571 Z M104.196279,21.543326 C103.302433,21.543326 102.574837,20.813463 102.574837,19.9160018 C102.574837,19.0185406 103.302433,18.2880018 104.196279,18.2880018 C105.089452,18.2880018 105.816375,19.0185406 105.816375,19.9160018 C105.816375,20.813463 105.089452,21.543326 104.196279,21.543326 L104.196279,21.543326 Z M116.500798,14.3879653 C117.394644,14.3879653 118.12224,15.1178283 118.12224,16.0152895 C118.12224,16.9127507 117.394644,17.6426137 116.500798,17.6426137 C115.606279,17.6426137 114.878683,16.9127507 114.878683,16.0152895 C114.878683,15.1178283 115.606279,14.3879653 116.500798,14.3879653 L116.500798,14.3879653 Z M6.49781731,82.4098466 C6.49781731,82.20981 6.47358654,82.0158557 6.43925962,81.8259562 L61.4606058,62.6420475 L84.1439712,57.1660475 L81.1030096,48.5178466 L61.5178173,21.5196731 L61.5178173,19.4091525 C61.5528173,21.1777187 62.9911827,22.6070338 64.761375,22.6070338 C65.4936827,22.6070338 66.1627212,22.3536091 66.7065673,21.9413717 L101.046952,52.2847507 L124.827433,45.4537735 C127.01224,44.8908329 130.794933,44.6847142 133.377529,44.6387598 C133.673683,46.1336274 134.988202,47.2649151 136.563202,47.2649151 C138.355606,47.2649151 139.81349,45.8011342 139.81349,44.0021571 C139.81349,42.2025041 138.355606,40.7387233 136.563202,40.7387233 C135.970221,40.7387233 135.42099,40.9110521 134.94176,41.1908329 L113.73849,20.2275452 L114.791183,18.778632 C115.28926,19.0901753 115.872144,19.2787233 116.500798,19.2787233 C118.293202,19.2787233 119.751087,17.8149425 119.751087,16.0152895 C119.751087,14.2156365 118.293202,12.7518557 116.500798,12.7518557 C114.708394,12.7518557 113.249837,14.2156365 113.249837,16.0152895 C113.249837,16.5789059 113.40599,17.1012986 113.657048,17.564221 L111.59474,20.403253 L133.782048,42.3396913 C133.64474,42.5701388 133.539067,42.8174813 133.461663,43.0796913 C132.013875,43.1053717 130.170317,43.1797096 128.404837,43.3405498 L106.889933,21.738632 C107.240606,21.2182667 107.445221,20.5904493 107.445221,19.9160018 C107.445221,18.1163489 105.98801,16.6518922 104.196279,16.6518922 C102.403875,16.6518922 100.94599,18.1163489 100.94599,19.9160018 C100.94599,21.714979 102.403875,23.1787598 104.196279,23.1787598 C104.723971,23.1787598 105.21599,23.0395452 105.657529,22.8145041 L126.339163,43.5797826 C125.633779,43.6831799 124.980221,43.8041479 124.420894,43.9480932 L118.467529,45.6578648 L106.85426,33.9983032 C107.389356,33.4164402 107.723875,32.6460292 107.723875,31.7938466 C107.723875,29.9935178 106.26599,28.529737 104.47426,28.529737 C102.681856,28.529737 101.223971,29.9935178 101.223971,31.7938466 C101.223971,33.5928237 102.681856,35.0566046 104.47426,35.0566046 C104.81349,35.0566046 105.133875,34.9897005 105.441471,34.8923854 L116.676471,46.1728237 L111.433875,47.6785041 L96.7298365,32.9163489 L96.7298365,16.4052256 L102.068683,11.0447872 C102.640125,11.5462301 103.379163,11.8604767 104.196279,11.8604767 C105.98801,11.8604767 107.445221,10.3966959 107.445221,8.59771872 C107.445221,6.79806575 105.98801,5.33360913 104.196279,5.33360913 C102.403875,5.33360913 100.94599,6.79806575 100.94599,8.59771872 C100.94599,8.97346301 101.022048,9.32825753 101.139163,9.66480548 L95.1009904,15.7273991 L95.1009904,33.5941753 L109.642144,48.1927872 L107.970221,48.6732804 L91.4414712,32.0763306 L91.4414712,8.72544475 C92.9437788,8.43890594 94.0846442,7.11501553 94.0846442,5.52350868 C94.0846442,3.72385571 92.6267596,2.25939909 90.8350288,2.25939909 C89.0432981,2.25939909 87.5854135,3.72385571 87.5854135,5.52350868 C87.5854135,6.96228493 88.5236827,8.1719653 89.812625,8.60515251 L89.812625,32.7541571 L106.17849,49.1875635 L101.43599,50.5499744 L75.9916635,28.0674904 L75.9916635,15.5685863 L80.7254135,10.8163671 L80.7254135,7.53063196 C82.0857019,7.14069589 83.0906058,5.89519817 83.0906058,4.40506119 C83.0906058,2.60608402 81.6327212,1.1423032 79.8403173,1.1423032 C78.0485865,1.1423032 76.5907019,2.60608402 76.5907019,4.40506119 C76.5907019,5.9465589 77.6635865,7.23463196 79.0965673,7.5745589 L79.0965673,10.1385406 L74.3634904,14.8907598 L74.3634904,26.6280384 L69.0596442,21.9413717 L69.1727212,21.9413717 L69.1727212,7.01499726 C70.6057019,6.67507032 71.6779135,5.38699726 71.6779135,3.84617534 C71.6779135,2.04652237 70.2200288,0.582741553 68.427625,0.582741553 C66.6365673,0.582741553 65.1793558,2.04652237 65.1793558,3.84617534 C65.1793558,5.33563653 66.1835865,6.58181005 67.543875,6.97107032 L67.543875,17.6845132 C66.9764712,16.7282575 65.9480096,16.0794904 64.761375,16.0794904 C62.9911827,16.0794904 61.5528173,17.5094813 61.5178173,19.2787233 L61.5178173,13.7702849 L57.0802212,9.31474155 C57.5008942,8.7646411 57.7607019,8.08478721 57.7607019,7.33938082 C57.7607019,5.53972785 56.3034904,4.07594703 54.5117596,4.07594703 C52.7193558,4.07594703 51.2614712,5.53972785 51.2614712,7.33938082 C51.2614712,9.13903379 52.7193558,10.6028146 54.5117596,10.6028146 C54.9674327,10.6028146 55.4002212,10.5068511 55.7939712,10.335874 L59.8889712,14.4481114 L59.8889712,15.8125498 C59.3861827,15.4915452 58.7945481,15.2996183 58.1557981,15.2996183 C56.3640673,15.2996183 54.9061827,16.7633991 54.9061827,18.5630521 C54.9061827,20.362705 56.3640673,21.8264858 58.1557981,21.8264858 C58.6653173,21.8264858 59.1411827,21.698084 59.5706058,21.4872347 L59.8889712,21.9251525 L59.8889712,39.4661936 L73.8714712,53.215326 L81.1070481,53.215326 L82.1045481,56.0530064 L61.060125,61.1336639 L59.9757981,61.5114356 L55.0354135,59.8003123 L24.7792596,29.4224676 C25.1292596,28.9021023 25.333875,28.2749607 25.333875,27.601189 C25.333875,25.8015361 23.8759904,24.3377553 22.0842596,24.3377553 C20.2918558,24.3377553 18.8339712,25.8015361 18.8339712,27.601189 C18.8339712,29.400842 20.2918558,30.8646228 22.0842596,30.8646228 C22.612625,30.8646228 23.1053173,30.7247324 23.5468558,30.4983397 L54.1489712,61.224221 L57.4860865,62.3798374 L50.6509904,64.7620292 L24.0220481,38.0240384 L16.4687788,38.0240384 C16.1268558,36.5893169 14.8473365,35.5168237 13.3154135,35.5168237 C11.5236827,35.5168237 10.0664712,36.9812804 10.0664712,38.7809333 C10.0664712,40.5799105 11.5236827,42.0436913 13.3154135,42.0436913 C14.8022404,42.0436913 16.0454135,41.0306685 16.4310865,39.6601479 L23.347625,39.6601479 L48.941375,65.358084 L44.5562788,66.8867416 L24.5773365,46.8276731 L11.5990673,46.8276731 C11.2571442,45.3922758 9.977625,44.3191068 8.44570192,44.3191068 C6.65397115,44.3191068 5.19608654,45.7835635 5.19608654,47.5832164 C5.19608654,49.3821936 6.65397115,50.8459744 8.44570192,50.8459744 C9.93185577,50.8459744 11.1743558,49.8336274 11.5600288,48.4637826 L23.9029135,48.4637826 L42.8459904,67.4827963 L39.9632019,68.4877096 L23.4640673,51.9279288 L12.5602212,51.9279288 L7.83050962,56.6774447 C7.29675962,56.2908877 6.64724038,56.0570612 5.93983654,56.0570612 C4.14743269,56.0570612 2.68954808,57.520842 2.68954808,59.320495 C2.68954808,61.1201479 4.14743269,62.5846046 5.93983654,62.5846046 C7.73156731,62.5846046 9.18945192,61.1201479 9.18945192,59.320495 C9.18945192,58.8264858 9.07166346,58.3622119 8.875125,57.9418648 L13.2346442,53.5633626 L22.7896442,53.5633626 L38.2529135,69.0837644 L5.78974038,80.4006959 C5.19406731,79.6431251 4.28272115,79.1464128 3.24954808,79.1464128 C1.45781731,79.1464128 -6.73076923e-05,80.6101936 -6.73076923e-05,82.4098466 C-6.73076923e-05,84.2094995 1.45781731,85.6739562 3.24954808,85.6739562 C5.04060577,85.6739562 6.49781731,84.2094995 6.49781731,82.4098466 L6.49781731,82.4098466 Z" id="Fill-18" fill="#FFFFFF" sketch:type="MSShapeGroup" mask="url(#mask-4)"></path>
                </g>
                <path d="M29.3209135,19.9644566 C30.2147596,19.9644566 30.9423558,20.6949954 30.9423558,21.5924566 C30.9423558,22.489242 30.2147596,23.219105 29.3209135,23.219105 C28.4270673,23.219105 27.7001442,22.489242 27.7001442,21.5924566 C27.7001442,20.6949954 28.4270673,19.9644566 29.3209135,19.9644566 M65.734375,56.6657534 C65.734375,57.5632146 65.0074519,58.2930776 64.1136058,58.2930776 C63.2197596,58.2930776 62.4921635,57.5632146 62.4921635,56.6657534 C62.4921635,55.7682922 63.2197596,55.0377534 64.1136058,55.0377534 C65.0074519,55.0377534 65.734375,55.7682922 65.734375,56.6657534 M29.3209135,24.8552146 C29.6998558,24.8552146 30.0586058,24.7774977 30.3971635,24.6572055 L51.4745673,45.415726 L48.7661058,48.1351416 L52.6322596,52.0162557 L59.2425481,45.3792329 L59.9001442,46.0394886 L53.1498558,52.8164018 L56.6680288,56.3488037 L59.5198558,53.4840913 L61.2261058,55.1985936 C61.0019712,55.6419178 60.8633173,56.1352511 60.8633173,56.6657534 C60.8633173,58.4654064 62.3212019,59.9291872 64.1136058,59.9291872 C65.9053365,59.9291872 67.3632212,58.4654064 67.3632212,56.6657534 C67.3632212,54.8661005 65.9053365,53.4023196 64.1136058,53.4023196 C63.441875,53.4023196 62.8165865,53.6077626 62.2983173,53.9598539 L59.5198558,51.1701553 L56.6680288,54.0355434 L55.4544712,52.8164018 L62.2040865,46.0394886 L59.2425481,43.0666484 L52.6322596,49.7029954 L51.0700481,48.1351416 L53.7899519,45.4042374 L31.7688942,23.7158174 C32.2622596,23.1434155 32.5712019,22.4067945 32.5712019,21.5924566 C32.5712019,19.7928037 31.1133173,18.328347 29.3209135,18.328347 C27.5291827,18.328347 26.0712981,19.7928037 26.0712981,21.5924566 C26.0712981,23.3914338 27.5291827,24.8552146 29.3209135,24.8552146" id="Fill-21" fill="#FFFFFF" sketch:type="MSShapeGroup"></path>
                <path d="M35.5836923,14.0957498 C36.4768654,14.0957498 37.2037885,14.8262886 37.2037885,15.7237498 C37.2037885,16.621211 36.4768654,17.351074 35.5836923,17.351074 C34.6898462,17.351074 33.96225,16.621211 33.96225,15.7237498 C33.96225,14.8262886 34.6898462,14.0957498 35.5836923,14.0957498 M46.1173462,12.2231105 C45.2241731,12.2231105 44.49725,11.4932475 44.49725,10.5964621 C44.49725,9.69900091 45.2241731,8.9691379 46.1173462,8.9691379 C47.0118654,8.9691379 47.7387885,9.69900091 47.7387885,10.5964621 C47.7387885,11.4932475 47.0118654,12.2231105 46.1173462,12.2231105 M35.5836923,18.9871836 C37.2064808,18.9871836 38.5425385,17.7829096 38.7828269,16.2204621 L44.1883077,16.2204621 L49.6610962,21.7147087 L49.6610962,32.6349461 L54.6156154,38.7766082 L54.6156154,16.9847909 L49.2081154,11.5533936 C49.3023462,11.2486082 49.3676346,10.9316584 49.3676346,10.5964621 C49.3676346,8.79680913 47.9090769,7.33302831 46.1173462,7.33302831 C44.3256154,7.33302831 42.8684038,8.79680913 42.8684038,10.5964621 C42.8684038,12.3954393 44.3256154,13.8592201 46.1173462,13.8592201 C46.9708077,13.8592201 47.7421538,13.5206447 48.3230192,12.9786539 L52.9867692,17.6626174 L52.9867692,34.1581973 L51.2899423,32.0557863 L51.2899423,21.0368822 L44.8627308,14.5843525 L38.61725,14.5843525 C38.1548462,13.3469644 36.9749423,12.4596402 35.5836923,12.4596402 C33.7912885,12.4596402 32.3334038,13.9240968 32.3334038,15.7237498 C32.3334038,17.5234027 33.7912885,18.9871836 35.5836923,18.9871836" id="Fill-23" fill="#FFFFFF" sketch:type="MSShapeGroup"></path>
                <path d="M135.853106,52.5813589 C134.959933,52.5813589 134.23301,51.8514959 134.23301,50.9540347 C134.23301,50.0572493 134.959933,49.3273863 135.853106,49.3273863 C136.746952,49.3273863 137.474548,50.0572493 137.474548,50.9540347 C137.474548,51.8514959 136.746952,52.5813589 135.853106,52.5813589 L135.853106,52.5813589 Z M136.843875,82.6550941 C136.843875,83.7032584 135.995125,84.5554411 134.951856,84.5554411 C133.907913,84.5554411 133.059163,83.7032584 133.059163,82.6550941 C133.059163,81.6076055 133.907913,80.7554228 134.951856,80.7554228 C135.995125,80.7554228 136.843875,81.6076055 136.843875,82.6550941 L136.843875,82.6550941 Z M117.000221,67.6557333 C116.106375,67.6557333 115.378779,66.9251945 115.378779,66.0270575 C115.378779,65.1302721 116.106375,64.4004091 117.000221,64.4004091 C117.893394,64.4004091 118.620317,65.1302721 118.620317,66.0270575 C118.620317,66.9251945 117.893394,67.6557333 117.000221,67.6557333 L117.000221,67.6557333 Z M123.840029,62.4615416 L123.840029,82.6605005 L117.332721,89.194126 L117.332721,123.180062 C116.566087,123.447679 115.93676,123.991021 115.55176,124.697231 L113.222913,122.35829 L113.222913,70.0088658 L104.131663,62.3817973 L104.450029,61.3572858 L115.223298,58.268884 L121.264163,64.333505 L121.264163,78.88819 L118.092625,82.0725553 L118.092625,69.0884274 C119.345894,68.6349662 120.249163,67.4401534 120.249163,66.0270575 C120.249163,64.2280804 118.791952,62.7642995 117.000221,62.7642995 C115.207817,62.7642995 113.749933,64.2280804 113.749933,66.0270575 C113.749933,67.6428932 114.927144,68.9782721 116.463779,69.2371032 L116.463779,86.0219251 L122.89301,79.5660164 L122.89301,63.6556785 L117.015702,57.7546009 L118.458106,57.3410119 L123.840029,62.4615416 Z M120.01224,126.251569 C120.01224,127.148354 119.285317,127.878217 118.391471,127.878217 C117.497625,127.878217 116.770029,127.148354 116.770029,126.251569 C116.770029,125.354108 117.497625,124.623569 118.391471,124.623569 C119.285317,124.623569 120.01224,125.354108 120.01224,126.251569 L120.01224,126.251569 Z M97.7461827,90.8721352 L97.7461827,102.06472 L101.642625,105.976245 L101.642625,129.742071 C101.244163,129.80019 100.873298,129.929943 100.535413,130.119843 L95.1312788,124.720884 L95.1312788,91.3681717 L95.893875,88.9109662 L97.7461827,90.8721352 Z M102.106375,134.586199 C101.213202,134.586199 100.486279,133.856336 100.486279,132.958199 C100.486279,132.060738 101.213202,131.330875 102.106375,131.330875 C103.000894,131.330875 103.72849,132.060738 103.72849,132.958199 C103.72849,133.856336 103.000894,134.586199 102.106375,134.586199 L102.106375,134.586199 Z M97.6539712,136.681176 C96.760125,136.681176 96.0325288,135.951313 96.0325288,135.054528 C96.0325288,134.157067 96.760125,133.427204 97.6539712,133.427204 C98.5484904,133.427204 99.2760865,134.157067 99.2760865,135.054528 C99.2760865,135.951313 98.5484904,136.681176 97.6539712,136.681176 L97.6539712,136.681176 Z M92.3656058,138.917395 C91.4717596,138.917395 90.7441635,138.187532 90.7441635,137.290071 C90.7441635,136.39261 91.4717596,135.662747 92.3656058,135.662747 C93.2587788,135.662747 93.9857019,136.39261 93.9857019,137.290071 C93.9857019,138.187532 93.2587788,138.917395 92.3656058,138.917395 L92.3656058,138.917395 Z M136.147913,94.6721534 C136.147913,95.719642 135.299163,96.5718247 134.255221,96.5718247 C133.211952,96.5718247 132.363202,95.719642 132.363202,94.6721534 C132.363202,93.6246648 133.211952,92.7724822 134.255221,92.7724822 C135.299163,92.7724822 136.147913,93.6246648 136.147913,94.6721534 L136.147913,94.6721534 Z M105.586856,72.224811 C106.480702,72.224811 107.207625,72.9553498 107.207625,73.852811 C107.207625,74.7502721 106.480702,75.4801352 105.586856,75.4801352 C104.69301,75.4801352 103.966087,74.7502721 103.966087,73.852811 C103.966087,72.9553498 104.69301,72.224811 105.586856,72.224811 L105.586856,72.224811 Z M110.68676,129.464994 C110.68676,130.362455 109.959163,131.092318 109.065317,131.092318 C108.172144,131.092318 107.445221,130.362455 107.445221,129.464994 C107.445221,128.567532 108.172144,127.837669 109.065317,127.837669 C109.959163,127.837669 110.68676,128.567532 110.68676,129.464994 L110.68676,129.464994 Z M86.3785865,140.035167 C85.4854135,140.035167 84.7584904,139.304628 84.7584904,138.407167 C84.7584904,137.509706 85.4854135,136.779843 86.3785865,136.779843 C87.2731058,136.779843 88.001375,137.509706 88.001375,138.407167 C88.001375,139.304628 87.2731058,140.035167 86.3785865,140.035167 L86.3785865,140.035167 Z M46.0208942,114.041231 C45.1270481,114.041231 44.3994519,113.311368 44.3994519,112.414583 C44.3994519,111.517121 45.1270481,110.786583 46.0208942,110.786583 C46.9147404,110.786583 47.6423365,111.517121 47.6423365,112.414583 C47.6423365,113.311368 46.9147404,114.041231 46.0208942,114.041231 L46.0208942,114.041231 Z M70.2355096,124.244446 C69.3430096,124.244446 68.6154135,123.513907 68.6154135,122.617121 C68.6154135,121.718984 69.3430096,120.989121 70.2355096,120.989121 C71.1300288,120.989121 71.857625,121.718984 71.857625,122.617121 C71.857625,123.513907 71.1300288,124.244446 70.2355096,124.244446 L70.2355096,124.244446 Z M63.833875,116.278126 C62.9407019,116.278126 62.2137788,115.548263 62.2137788,114.651478 C62.2137788,113.753341 62.9407019,113.023478 63.833875,113.023478 C64.7283942,113.023478 65.4559904,113.753341 65.4559904,114.651478 C65.4559904,115.548263 64.7283942,116.278126 63.833875,116.278126 L63.833875,116.278126 Z M87.1122404,117.589176 C86.2177212,117.589176 85.490125,116.859313 85.490125,115.961852 C85.490125,115.064391 86.2177212,114.333852 87.1122404,114.333852 C88.0060865,114.333852 88.7330096,115.064391 88.7330096,115.961852 C88.7330096,116.859313 88.0060865,117.589176 87.1122404,117.589176 L87.1122404,117.589176 Z M85.2774327,110.958236 C84.3835865,110.958236 83.6559904,110.228373 83.6559904,109.330911 C83.6559904,108.43345 84.3835865,107.702911 85.2774327,107.702911 C86.1712788,107.702911 86.898875,108.43345 86.898875,109.330911 C86.898875,110.228373 86.1712788,110.958236 85.2774327,110.958236 L85.2774327,110.958236 Z M7.05377885,93.9186374 C6.15993269,93.9186374 5.43300962,93.1887744 5.43300962,92.291989 C5.43300962,91.3945279 6.15993269,90.6646648 7.05377885,90.6646648 C7.947625,90.6646648 8.67454808,91.3945279 8.67454808,92.291989 C8.67454808,93.1887744 7.947625,93.9186374 7.05377885,93.9186374 L7.05377885,93.9186374 Z M64.9491635,78.0360073 C64.0553173,78.0360073 63.3283942,77.3054685 63.3283942,76.4080073 C63.3283942,75.5105461 64.0553173,74.7806831 64.9491635,74.7806831 C65.8430096,74.7806831 66.5706058,75.5105461 66.5706058,76.4080073 C66.5706058,77.3054685 65.8430096,78.0360073 64.9491635,78.0360073 L64.9491635,78.0360073 Z M135.853106,47.6912767 C134.061375,47.6912767 132.604163,49.1550575 132.604163,50.9540347 C132.604163,51.037158 132.622337,51.1148749 132.628394,51.1966466 C131.370413,51.9650301 130.485317,52.2292676 128.987048,52.6678612 C128.429067,52.8314046 127.794356,53.0172493 127.060029,53.2524274 L103.215606,60.0881352 L93.5253173,91.2951854 L93.5024327,91.2951854 L93.5024327,91.3688475 L88.2955096,108.138802 C87.9475288,107.253505 87.2246442,106.566893 86.3247404,106.256701 L88.2228173,73.8933589 L86.1692596,64.9829479 L63.4461827,71.5030575 L2.17127885,86.7173224 L2.54416346,88.2317881 L63.8466635,73.0107653 L85.0236827,66.9346557 L86.6585865,74.0258155 L86.3779135,78.8172311 L83.0381058,75.3760621 L68.0177212,75.3760621 C67.5849327,74.0839342 66.3807981,73.1445735 64.9491635,73.1445735 C63.1574327,73.1445735 61.6995481,74.6083543 61.6995481,76.4080073 C61.6995481,78.2076603 63.1574327,79.6714411 64.9491635,79.6714411 C66.5356058,79.6714411 67.8555096,78.5232584 68.138875,77.0121717 L82.3508942,77.0121717 L86.2480096,81.0284457 L86.0703173,84.0621078 L82.2129135,79.9478429 L37.2655096,79.9478429 L26.0634904,91.1958429 L10.1007981,91.1958429 C9.64983654,89.9368292 8.46050962,89.0285553 7.05377885,89.0285553 C5.26204808,89.0285553 3.80416346,90.4923361 3.80416346,92.291989 C3.80416346,94.0909662 5.26204808,95.554747 7.05377885,95.554747 C8.66108654,95.554747 9.99041346,94.3734502 10.248875,92.8319525 L26.7379135,92.8319525 L37.9399327,81.5839525 L81.5095481,81.5839525 L85.9383942,86.3071123 L84.7766635,106.118163 C83.2232019,106.362126 82.0271442,107.703587 82.0271442,109.330911 C82.0271442,111.130564 83.4850288,112.594345 85.2774327,112.594345 C85.9457981,112.594345 86.566375,112.389578 87.0832981,112.041542 L86.872625,112.722071 C85.1932981,112.84777 83.8612788,114.244647 83.8612788,115.961852 C83.8612788,117.761505 85.3198365,119.225286 87.1122404,119.225286 C88.9039712,119.225286 90.3618558,117.761505 90.3618558,115.961852 C90.3618558,114.630528 89.5615673,113.4864 88.4207019,112.979551 L93.5024327,96.6137242 L93.5024327,125.400062 L99.3528173,131.245724 C99.1932981,131.504555 99.0728173,131.787715 98.9900288,132.087094 C98.5814712,131.901249 98.1311827,131.791094 97.6539712,131.791094 C97.0428173,131.791094 96.4781058,131.971532 95.9887788,132.266857 L77.8823365,114.041231 L67.0235865,114.041231 C66.7375288,112.532847 65.4182981,111.387368 63.833875,111.387368 C62.0421442,111.387368 60.5849327,112.851825 60.5849327,114.651478 C60.5849327,116.450455 62.0421442,117.914236 63.833875,117.914236 C65.2668558,117.914236 66.4730096,116.972172 66.9044519,115.677341 L77.2065673,115.677341 L94.8485865,133.436665 C94.6150288,133.842144 94.4703173,134.300336 94.4306058,134.790966 C93.8672404,134.32061 93.1537788,134.026637 92.3656058,134.026637 C91.8419519,134.026637 91.3546442,134.163149 90.9164712,134.384135 L78.0182981,121.587879 L73.3047404,121.587879 C72.872625,120.293724 71.6678173,119.353012 70.2355096,119.353012 C68.4444519,119.353012 66.9872404,120.817468 66.9872404,122.617121 C66.9872404,124.416099 68.4444519,125.879879 70.2355096,125.879879 C71.8206058,125.879879 73.1405096,124.733724 73.4252212,123.223989 L77.3492596,123.223989 L89.6793558,135.456628 C89.4195481,135.839806 89.2472404,136.283131 89.1691635,136.758893 C88.6031058,135.797231 87.5706058,135.143733 86.3785865,135.143733 C85.8172404,135.143733 85.2969519,135.300519 84.8352212,135.553268 L77.1870481,127.875514 L62.5732019,127.875514 L48.8121442,114.059478 C49.0961827,113.574254 49.2711827,113.01672 49.2711827,112.414583 C49.2711827,110.61493 47.8132981,109.151149 46.0208942,109.151149 C44.2284904,109.151149 42.7706058,110.61493 42.7706058,112.414583 C42.7706058,114.21356 44.2284904,115.677341 46.0208942,115.677341 C46.6212788,115.677341 47.1765673,115.501633 47.6598365,115.21577 L61.8987788,129.511624 L76.512625,129.511624 L83.6405096,136.666984 C83.3214712,137.171806 83.1296442,137.765834 83.1296442,138.407167 C83.1296442,140.20682 84.5868558,141.671277 86.3785865,141.671277 C87.9906058,141.671277 89.3219519,140.485249 89.5770481,138.938345 C90.1424327,139.900007 91.1749327,140.553505 92.3656058,140.553505 C94.0678173,140.553505 95.4530096,139.227587 95.5882981,137.552281 C96.1516635,138.022637 96.8657981,138.317286 97.6539712,138.317286 C99.1434904,138.317286 100.389356,137.300884 100.771663,135.926984 C101.180221,136.112829 101.629837,136.222309 102.106375,136.222309 C103.898779,136.222309 105.357337,134.757852 105.357337,132.958199 C105.357337,131.572135 104.488394,130.392866 103.271471,129.921158 L103.271471,105.298418 L99.3750288,101.386893 L99.3750288,90.219989 L96.4498365,87.1214502 L98.4791635,80.5857973 L108.04426,88.9055598 L108.04426,126.382674 C106.754644,126.815861 105.816375,128.025542 105.816375,129.464994 C105.816375,131.264647 107.273587,132.728427 109.065317,132.728427 C110.857721,132.728427 112.315606,131.264647 112.315606,129.464994 C112.315606,127.874163 111.175413,126.550272 109.673106,126.263058 L109.673106,88.1588018 L99.0082019,78.881432 L101.314837,71.4550758 L102.586279,72.6059616 C102.42676,72.9904913 102.33724,73.4115142 102.33724,73.852811 C102.33724,75.6524639 103.795125,77.1162447 105.586856,77.1162447 C107.378587,77.1162447 108.836471,75.6524639 108.836471,73.852811 C108.836471,72.053158 107.378587,70.5887014 105.586856,70.5887014 C104.826279,70.5887014 104.135702,70.8637516 103.58176,71.3043726 L101.848587,69.7351671 L103.606663,64.0733224 L111.594067,70.7738703 L111.594067,123.036117 L115.083298,126.540811 L115.162721,126.461067 C115.272433,128.161377 116.671087,129.514327 118.391471,129.514327 C120.183202,129.514327 121.641087,128.050546 121.641087,126.251569 C121.641087,124.647898 120.481375,123.317925 118.961567,123.045578 L118.961567,89.8719525 L125.468875,83.3383269 L125.468875,61.7580347 L120.278779,56.819295 L125.73474,55.2548201 L125.729356,55.2602265 L129.128394,58.6750393 L129.128394,90.6153315 L131.729163,93.1076785 C131.447817,93.5645187 131.277529,94.0970484 131.277529,94.6721534 C131.277529,96.3211032 132.613587,97.6625644 134.255221,97.6625644 C135.897529,97.6625644 137.23426,96.3211032 137.23426,94.6721534 C137.23426,93.0232037 135.897529,91.6817425 134.255221,91.6817425 C133.780029,91.6817425 133.336471,91.8047379 132.93801,92.0040986 L130.75724,89.9152037 L130.75724,57.9978886 L127.518394,54.7432402 C128.25676,54.5073863 128.876663,54.3255963 129.421856,54.1661078 C130.835317,53.7525187 131.841567,53.4551671 133.125798,52.7144913 C133.456952,53.230126 133.928106,53.6423635 134.486087,53.9038977 L134.486087,79.711989 C133.065221,79.9383817 131.972817,81.1663087 131.972817,82.6550941 C131.972817,84.3047196 133.309548,85.6468566 134.951856,85.6468566 C136.594163,85.6468566 137.929548,84.3047196 137.929548,82.6550941 C137.929548,81.4204091 137.180413,80.358053 136.114933,79.9025644 L136.114933,54.1911123 C137.78349,54.0546009 139.103394,52.6638064 139.103394,50.9540347 C139.103394,49.1550575 137.64551,47.6912767 135.853106,47.6912767 L135.853106,47.6912767 Z" id="Fill-25" fill="#FFFFFF" sketch:type="MSShapeGroup"></path>
                <path d="M63.9604808,107.510849 L53.57625,107.510849 L53.57625,88.6938995 L63.9604808,88.6938995 L63.9604808,107.510849 Z M65.5893269,87.0584658 L51.9474038,87.0584658 L51.9474038,109.147635 L65.5893269,109.147635 L65.5893269,87.0584658 Z" id="Fill-27" fill="#FFFFFF" sketch:type="MSShapeGroup"></path>
                <path d="M48.4198077,98.0043836 L49.0100962,98.0043836 L49.0100962,98.5963836 L48.4198077,98.5963836 L48.4198077,98.0043836 Z M48.4198077,104.558959 L49.0100962,104.558959 L49.0100962,105.151635 L48.4198077,105.151635 L48.4198077,104.558959 Z M50.6382692,100.231817 L50.6382692,96.368274 L46.7909615,96.368274 L46.7909615,97.5536256 L39.7108654,97.5536256 L39.7108654,105.617936 L46.7909615,105.617936 L46.7909615,106.78842 L50.6382692,106.78842 L50.6382692,102.922849 L46.7909615,102.922849 L46.7909615,103.981826 L41.3397115,103.981826 L41.3397115,99.1897352 L46.7909615,99.1897352 L46.7909615,100.231817 L50.6382692,100.231817 Z" id="Fill-29" fill="#FFFFFF" sketch:type="MSShapeGroup"></path>
                <path d="M20.4346154,57.4030502 L21.0275962,57.4030502 L21.0275962,57.9950502 L20.4346154,57.9950502 L20.4346154,57.4030502 Z M20.4346154,63.9576256 L21.0275962,63.9576256 L21.0275962,64.5503014 L20.4346154,64.5503014 L20.4346154,63.9576256 Z M22.6564423,59.6311598 L22.6564423,55.7669406 L18.8057692,55.7669406 L18.8057692,56.9516164 L11.7270192,56.9516164 L11.7270192,65.0159269 L18.8057692,65.0159269 L18.8057692,66.186411 L22.6564423,66.186411 L22.6564423,62.321516 L18.8057692,62.321516 L18.8057692,63.3798174 L13.3558654,63.3798174 L13.3558654,58.587726 L18.8057692,58.587726 L18.8057692,59.6311598 L22.6564423,59.6311598 Z" id="Fill-30" fill="#FFFFFF" sketch:type="MSShapeGroup"></path>
                <path d="M69.8384615,98.5963836 L69.2481731,98.5963836 L69.2481731,98.0043836 L69.8384615,98.0043836 L69.8384615,98.5963836 Z M69.8384615,92.2364384 L69.2481731,92.2364384 L69.2481731,91.6444384 L69.8384615,91.6444384 L69.8384615,92.2364384 Z M67.6193269,96.368274 L67.6193269,100.231817 L71.4673077,100.231817 L71.4673077,99.0491689 L78.2196154,99.0491689 L78.2196154,90.5665388 L71.4673077,90.5665388 L71.4673077,90.0083288 L67.6193269,90.0083288 L67.6193269,93.8725479 L71.4673077,93.8725479 L71.4673077,92.2026484 L76.5907692,92.2026484 L76.5907692,97.4137352 L71.4673077,97.4137352 L71.4673077,96.368274 L67.6193269,96.368274 Z" id="Fill-31" fill="#FFFFFF" sketch:type="MSShapeGroup"></path>
                <path d="M69.2481731,104.558959 L69.8384615,104.558959 L69.8384615,105.151635 L69.2481731,105.151635 L69.2481731,104.558959 Z M80.5080769,93.6900822 C80.5080769,92.7932968 81.235,92.0634338 82.1295192,92.0634338 C83.0233654,92.0634338 83.7502885,92.7932968 83.7502885,93.6900822 C83.7502885,94.5875434 83.0233654,95.3180822 82.1295192,95.3180822 C81.235,95.3180822 80.5080769,94.5875434 80.5080769,93.6900822 L80.5080769,93.6900822 Z M67.6193269,106.78842 L71.4673077,106.78842 L71.4673077,105.71863 L82.8349038,105.71863 L82.8349038,96.8717443 C84.2880769,96.5460091 85.3791346,95.2457717 85.3791346,93.6900822 C85.3791346,91.891105 83.92125,90.428 82.1295192,90.428 C80.3371154,90.428 78.8792308,91.891105 78.8792308,93.6900822 C78.8792308,95.1937352 79.9016346,96.4500457 81.2814423,96.8271416 L81.2814423,104.15821 L71.4673077,104.15821 L71.4673077,102.922849 L67.6193269,102.922849 L67.6193269,106.78842 Z" id="Fill-32" fill="#FFFFFF" sketch:type="MSShapeGroup"></path>
            </g>
        </g>
    </g>
</svg>