<svg xmlns="http://www.w3.org/2000/svg" viewBox="0 0 32.29 9.46"><defs><style>.cls-1{fill:#03793e;}</style></defs><title>logo-vrbo</title><g id="Layer_2" data-name="Layer 2"><g id="Layer_1-2" data-name="Layer 1"><path class="cls-1" d="M2.91,9.32,0,.42H1.24L2.63,4.8c.38,1.2.71,2.29,1,3.33h0c.25-1,.62-2.15,1-3.31L6.13.42H7.36L4.17,9.32Z"/><path class="cls-1" d="M8.32.54a11.78,11.78,0,0,1,2.2-.19,3.65,3.65,0,0,1,2.58.73,2.21,2.21,0,0,1,.7,1.69A2.34,2.34,0,0,1,12.12,5v0a2.21,2.21,0,0,1,1.31,1.8,13.44,13.44,0,0,0,.69,2.44H12.93a11.45,11.45,0,0,1-.6-2.13C12.07,6,11.6,5.5,10.55,5.46H9.47V9.32H8.32V.54ZM9.47,4.59h1.17c1.23,0,2-.67,2-1.69s-.83-1.65-2.05-1.66a4.92,4.92,0,0,0-1.13.1V4.59Z"/><path class="cls-1" d="M15.42.54a10.76,10.76,0,0,1,2.1-.19A3.7,3.7,0,0,1,20,1a1.86,1.86,0,0,1,.74,1.57,2.13,2.13,0,0,1-1.51,2v0A2.29,2.29,0,0,1,21,6.78a2.42,2.42,0,0,1-.76,1.79,4.49,4.49,0,0,1-3.07.83,12.26,12.26,0,0,1-1.79-.11V.54Zm1.15,3.64h1.05c1.21,0,1.92-.63,1.92-1.49,0-1-.79-1.45-1.95-1.45a5,5,0,0,0-1,.08V4.18Zm0,4.27a6.28,6.28,0,0,0,1,.05c1.18,0,2.28-.44,2.28-1.73s-1-1.72-2.3-1.72h-.95v3.4Z"/><path class="cls-1" d="M30.19,4.78c0,3.06-1.87,4.68-4.14,4.68s-4-1.82-4-4.51S23.81.27,26.19.27s4,1.87,4,4.51Zm-6.91.14c0,1.9,1,3.61,2.84,3.61S29,6.85,29,4.83c0-1.77-.92-3.62-2.84-3.62S23.28,3,23.28,4.92Z"/><path class="cls-1" d="M31.28,0a1,1,0,1,1-1,1,1,1,0,0,1,1-1Zm0,.2a.77.77,0,0,0-.76.79.77.77,0,0,0,.77.79A.75.75,0,0,0,32,1,.75.75,0,0,0,31.28.2Zm-.15,1.3h-.23v-1a1.76,1.76,0,0,1,.38,0,.52.52,0,0,1,.34.08.25.25,0,0,1,.1.21A.26.26,0,0,1,31.5,1h0a.26.26,0,0,1,.18.24c0,.15.05.21.08.24h-.25a.81.81,0,0,1-.08-.24c0-.1-.08-.15-.2-.15h-.11V1.5Zm0-.56h.1c.13,0,.23,0,.23-.14S31.4.65,31.25.65h-.12V.94Z"/></g></g></svg>