<svg xmlns="http://www.w3.org/2000/svg" viewBox="0 0 53.84 9.93"><defs><style>.cls-1{fill:#00263d;}.cls-2{fill:#00b0ff;}</style></defs><title>logo-orbitz</title><g id="Layer_2" data-name="Layer 2"><g id="Layer_1-2" data-name="Layer 1"><path class="cls-1" d="M31,9.66,35.09.32c.06-.15,0-.27-.17-.27H32a.46.46,0,0,0-.4.27L27.55,9.66a.17.17,0,0,0,.17.26h2.84a.45.45,0,0,0,.4-.26Z"/><polygon class="cls-1" points="45.76 7.14 52.17 0.06 44.68 0.06 42.98 2.79 45.92 2.79 39.41 9.93 47.34 9.93 50.29 7.14 45.76 7.14 45.76 7.14"/><path class="cls-1" d="M18.35.06h-5a.83.83,0,0,0-.71.46l-3.9,9a.31.31,0,0,0,.3.46h2.46a.85.85,0,0,0,.71-.46l1.11-2.54h1.15c.36,0,.52.11.32.53l-.86,2a.31.31,0,0,0,.31.47h2.46a.83.83,0,0,0,.7-.47l1.12-2.58a1,1,0,0,0-.9-1.52,3,3,0,0,0,1.52-1.47l.58-1.36C20.46.94,20,0,18.35.06ZM16.9,2.88l-.61,1.35a.51.51,0,0,1-.55.34H14.36l.92-2.1h1.33c.32,0,.4.14.29.41Z"/><path class="cls-1" d="M28,.05H22.74a.61.61,0,0,0-.5.33l-4,9.21c-.07.19,0,.33.22.33h5.62c1.79,0,2.81-.42,3.63-2.31l.57-1.26c.46-1.07,0-1.54-.84-1.68A2.51,2.51,0,0,0,28.89,3.2l.47-1C29.94.87,29.46,0,28,.05ZM25.42,6.23,25.07,7a.87.87,0,0,1-.93.64H22.49l.79-1.86h1.64c.47,0,.65.15.5.5Zm.95-3.3-.25.56,0,.08a.56.56,0,0,1-.57.38H24.08l.65-1.5h1.45c.27,0,.31.18.19.48Z"/><path class="cls-1" d="M36,.06,34.78,2.79h1.74c.12,0,.18.08.13.19l-3,6.75a.13.13,0,0,0,.13.2h3.1a.37.37,0,0,0,.31-.2L40.06,3a.37.37,0,0,1,.3-.19h1.79L43.83.06Z"/><path class="cls-1" d="M10.25,3.42l.38-.84C11.41.8,10.9,0,9.37.06H5.7A3.68,3.68,0,0,0,2.23,2.47L1.1,5.67H0L2.08,8.44,5.46,5.67H4.6l1-2.31a.83.83,0,0,1,.73-.57h.58a.39.39,0,0,1,.29.11L9,1.39l1.26,2Z"/><path class="cls-2" d="M2,9.25.49,7.34l-.08.17c-.7,1.6-.58,2.39.93,2.42H5A3.81,3.81,0,0,0,8.48,7.51L9.55,5h1L8.87,2.28,5.51,5h.93L5.76,6.62a.84.84,0,0,1-.69.52H4.6L2,9.25Z"/><path class="cls-1" d="M53.36,0a.48.48,0,0,1,.34.14.44.44,0,0,1,.14.34.44.44,0,0,1-.14.34.48.48,0,0,1-.34.14A.49.49,0,0,1,53,.82a.48.48,0,0,1-.14-.34A.48.48,0,0,1,53,.14.49.49,0,0,1,53.36,0Zm0,.87a.41.41,0,0,0,.28-.11.38.38,0,0,0,.12-.28A.38.38,0,0,0,53.64.2a.39.39,0,0,0-.56,0,.41.41,0,0,0,0,.56.37.37,0,0,0,.28.11Zm.25-.13h-.12L53.36.53H53.3V.74h-.11V.22h.17a.18.18,0,0,1,.13,0,.12.12,0,0,1,0,.11.15.15,0,0,1-.09.14l.16.23ZM53.3.45h.05c.06,0,.1,0,.1-.08s0-.07-.1-.07H53.3V.45Z"/></g></g></svg>