<svg xmlns="http://www.w3.org/2000/svg" viewBox="0 0 78.35 9.73"><defs><style>.cls-1{fill:#ffcb00;}.cls-2{fill:#142936;}</style></defs><title>logo-egencia</title><g id="Layer_2" data-name="Layer 2"><g id="Layer_1-2" data-name="Layer 1"><path class="cls-1" d="M.14,2.39c-.18,0-.2.26,0,.25A26.41,26.41,0,0,1,3,2.71a17.23,17.23,0,0,1,3.8.85,29.85,29.85,0,0,1,3.38,1.67s-3,1.71-4,4.24c0,.13,0,.17.19.07C10.21,7.26,12.88,5.86,17.55,5c.3-.06.27-.1,0-.16A25.89,25.89,0,0,1,14.1,3.7,25.45,25.45,0,0,0,7,1.85c-.39,0-.78,0-1.18,0a34.39,34.39,0,0,0-5.65.58"/><path class="cls-1" d="M18.74.2A10.37,10.37,0,0,1,15,2.77c-.19.08-.14.19-.06.24l.28.11,1.92.62c.16,0,.15,0,.22,0A5.49,5.49,0,0,0,18.85.25s0-.13,0-.13-.05,0-.1.08"/><path class="cls-2" d="M53.4,9.6H52.17A.23.23,0,0,1,52,9.5L48.29,3.16V9.38a.22.22,0,0,1-.23.22H46.83a.22.22,0,0,1-.22-.22v-9a.22.22,0,0,1,.22-.23h1.23a.23.23,0,0,1,.19.1L52,6.31v-6a.22.22,0,0,1,.22-.23H53.4a.23.23,0,0,1,.23.23v9a.23.23,0,0,1-.23.22Z"/><path class="cls-2" d="M66.38,9.6H65.15a.22.22,0,0,1-.22-.22v-9a.22.22,0,0,1,.22-.23h1.23a.22.22,0,0,1,.22.23v9a.22.22,0,0,1-.22.22Z"/><path class="cls-2" d="M59.38,9.73A3.56,3.56,0,0,1,56.57,8.5a5.48,5.48,0,0,1-1-3.48V4.68A6.59,6.59,0,0,1,56,2.1,3.64,3.64,0,0,1,57.4.54,4,4,0,0,1,59.49,0,3.67,3.67,0,0,1,62,.86,3.35,3.35,0,0,1,63,2.7a.22.22,0,0,1,0,.19.23.23,0,0,1-.18.08H61.56a.21.21,0,0,1-.21-.17,1.93,1.93,0,0,0-.53-.95,1.93,1.93,0,0,0-1.33-.43,2,2,0,0,0-1.67.76,4.51,4.51,0,0,0-.62,2.53v.35a4.65,4.65,0,0,0,.59,2.47,1.84,1.84,0,0,0,1.59.77,2.17,2.17,0,0,0,1.42-.4,1.88,1.88,0,0,0,.55-1,.22.22,0,0,1,.22-.16h1.25a.23.23,0,0,1,.17.08A.21.21,0,0,1,63,7,3.31,3.31,0,0,1,62,8.89a3.83,3.83,0,0,1-2.58.84Z"/><path class="cls-2" d="M27.48,9.6H22.85a.23.23,0,0,1-.23-.22v-9a.23.23,0,0,1,.23-.23h4.63a.22.22,0,0,1,.22.23v1a.22.22,0,0,1-.22.23H24.3V4h3.18a.22.22,0,0,1,.22.22v1a.22.22,0,0,1-.22.23H24.3V8.18h3.18a.22.22,0,0,1,.22.22v1a.22.22,0,0,1-.22.22Z"/><path class="cls-2" d="M44,9.6H39.33a.22.22,0,0,1-.22-.22v-9a.22.22,0,0,1,.22-.23H44a.22.22,0,0,1,.22.23v1a.22.22,0,0,1-.22.23H40.78V4H44a.22.22,0,0,1,.22.22v1a.22.22,0,0,1-.22.23H40.78V8.18H44a.22.22,0,0,1,.22.22v1A.22.22,0,0,1,44,9.6Z"/><path class="cls-2" d="M76.58,9.29l-3.45-9a.21.21,0,0,0-.2-.15h-1a.21.21,0,0,0-.2.15l-3.44,9a.22.22,0,0,0,.2.31h1.46a10.08,10.08,0,0,1,4.18-2.51L75,9.46a.24.24,0,0,0,.21.14h1.22a.22.22,0,0,0,.2-.31ZM70.89,7.17l-.23.1.07-.18.36-1,1.32-3.66,1.41,3.89a15.65,15.65,0,0,0-2.93.82Z"/><path class="cls-2" d="M33.43,9.72a4.12,4.12,0,0,1-2.11-.54,3.82,3.82,0,0,1-1.43-1.57,5.27,5.27,0,0,1-.51-2.31V4.51a5,5,0,0,1,1-3.31A3.65,3.65,0,0,1,33.29,0a3.76,3.76,0,0,1,2.45.77h0a3.06,3.06,0,0,1,1,1.45.2.2,0,0,1,0,.21.23.23,0,0,1-.18.09H35.24A.23.23,0,0,1,35,2.4a1.73,1.73,0,0,0-1.74-1,1.92,1.92,0,0,0-1.67.75A3.81,3.81,0,0,0,31,4.48v.74a3.56,3.56,0,0,0,.66,2.27,2.06,2.06,0,0,0,1.73.81,3.84,3.84,0,0,0,1.13-.14,1.66,1.66,0,0,0,.69-.38V5.43H33.76a.22.22,0,0,1-.22-.22v-1A.22.22,0,0,1,33.76,4H36.9V8.19a.18.18,0,0,1,0,.13,3,3,0,0,1-1.4,1.06,5.48,5.48,0,0,1-2,.34Z"/><path class="cls-2" d="M78.24.56a1,1,0,0,0-.32-.32.88.88,0,0,0-.45-.11A.87.87,0,0,0,77,.24a1,1,0,0,0-.32.32A.82.82,0,0,0,76.6,1a.85.85,0,0,0,.11.44,1,1,0,0,0,.32.32,1,1,0,0,0,.44.11.89.89,0,0,0,.45-.12.86.86,0,0,0,.32-.31A1,1,0,0,0,78.35,1a.93.93,0,0,0-.11-.44Zm-.13.8a.78.78,0,0,1-.27.27.76.76,0,0,1-.37.1.75.75,0,0,1-.36-.1.7.7,0,0,1-.27-.27A.74.74,0,0,1,76.75,1a.75.75,0,0,1,.09-.37.75.75,0,0,1,.27-.26.65.65,0,0,1,.36-.1.83.83,0,0,1,.38.1.75.75,0,0,1,.26.27A.74.74,0,0,1,78.2,1a.74.74,0,0,1-.09.36Z"/><path class="cls-2" d="M77.78,1.31V1.2a.21.21,0,0,0,0-.12s0-.06-.08-.08a.2.2,0,0,0,.11-.17A.22.22,0,0,0,77.7.65a.38.38,0,0,0-.22-.06h-.27v.79h.14V1.07h.15a.13.13,0,0,1,.1,0,.13.13,0,0,1,0,.1.53.53,0,0,0,0,.18h.14s0,0,0-.06ZM77.6.91a.2.2,0,0,1-.11,0h-.14V.71h.14a.21.21,0,0,1,.12,0,.12.12,0,0,1,0,.09.1.1,0,0,1,0,.08Z"/></g></g></svg>