<svg xmlns="http://www.w3.org/2000/svg" viewBox="0 0 73.14 14.62"><defs><style>.cls-1{fill:#2e6eb7;}</style></defs><title>logo-homeaway</title><g id="Layer_2" data-name="Layer 2"><g id="Layer_1-2" data-name="Layer 1"><polygon class="cls-1" points="18.22 4.33 18.22 7.61 22 7.61 22 4.33 23.03 4.33 23.03 12.16 22 12.16 22 8.49 18.22 8.49 18.22 12.16 17.21 12.16 17.21 4.33 18.22 4.33 18.22 4.33"/><path class="cls-1" d="M29.56,9.3a2.75,2.75,0,0,1-2.8,3,2.68,2.68,0,0,1-2.69-2.9,2.74,2.74,0,0,1,2.79-3,2.66,2.66,0,0,1,2.7,2.89Zm-4.46.06c0,1.23.71,2.16,1.71,2.16s1.71-.92,1.71-2.18c0-1-.48-2.16-1.69-2.16S25.1,8.29,25.1,9.36Z"/><path class="cls-1" d="M30.58,8.06c0-.58,0-1.06,0-1.52h.9l0,.9h0a1.93,1.93,0,0,1,1.76-1,1.67,1.67,0,0,1,1.6,1.13h0a2.21,2.21,0,0,1,.63-.74,1.92,1.92,0,0,1,1.24-.39c.74,0,1.85.49,1.85,2.44v3.31h-1V9c0-1.08-.4-1.73-1.22-1.73a1.33,1.33,0,0,0-1.21.92,1.62,1.62,0,0,0-.08.52v3.47h-1V8.79c0-.89-.4-1.54-1.17-1.54a1.4,1.4,0,0,0-1.27,1,1.35,1.35,0,0,0-.08.5v3.39h-1V8.06Z"/><path class="cls-1" d="M40.59,9.48a1.84,1.84,0,0,0,2,2,3.88,3.88,0,0,0,1.59-.29l.17.74a4.47,4.47,0,0,1-1.9.37,2.67,2.67,0,0,1-2.82-2.9c0-1.73,1-3.1,2.69-3.1A2.44,2.44,0,0,1,44.66,9a3.94,3.94,0,0,1,0,.48Zm3.06-.74A1.49,1.49,0,0,0,42.2,7a1.74,1.74,0,0,0-1.6,1.7Z"/><path class="cls-1" d="M47,9.65l-.83,2.51H45.1l2.72-8h1.24l2.73,8h-1.1l-.86-2.51Zm2.62-.81-.78-2.3c-.18-.52-.3-1-.42-1.45h0c-.12.47-.25,1-.4,1.44l-.79,2.31Z"/><path class="cls-1" d="M52.82,6.42l.75,2.92c.17.64.32,1.23.43,1.82h0c.13-.58.32-1.19.51-1.82l.93-2.92h.88l.89,2.87c.21.69.38,1.29.51,1.87h0a18.83,18.83,0,0,1,.44-1.86l.82-2.88h1l-1.85,5.74h-.95l-.87-2.74a16.79,16.79,0,0,1-.51-1.88h0a16.2,16.2,0,0,1-.52,1.89l-.92,2.73h-1L51.75,6.42Z"/><path class="cls-1" d="M64.83,10.79a8.22,8.22,0,0,0,.09,1.37H64l-.08-.72h0a2.14,2.14,0,0,1-1.76.85,1.63,1.63,0,0,1-1.75-1.65c0-1.38,1.23-2.14,3.45-2.13V8.39a1.19,1.19,0,0,0-1.31-1.33A2.86,2.86,0,0,0,61,7.49l-.24-.69a3.65,3.65,0,0,1,1.89-.51c1.75,0,2.18,1.2,2.18,2.35v2.15Zm-1-1.56c-1.14,0-2.43.18-2.43,1.29a.93.93,0,0,0,1,1,1.41,1.41,0,0,0,1.38-1,1,1,0,0,0,.06-.33v-1Z"/><path class="cls-1" d="M66.52,6.42l1.26,3.39c.13.38.27.83.36,1.18h0c.1-.35.22-.79.36-1.2l1.14-3.37h1.1l-1.56,4.09a8,8,0,0,1-2,3.44,2.84,2.84,0,0,1-1.28.67l-.26-.88a2.49,2.49,0,0,0,.91-.51,3,3,0,0,0,.88-1.16.64.64,0,0,0,.08-.25.87.87,0,0,0-.07-.27L65.38,6.42Z"/><path class="cls-1" d="M73.14,7.13a.77.77,0,1,1-.77-.75.75.75,0,0,1,.77.75Zm-1.35,0a.58.58,0,1,0,.57-.6.58.58,0,0,0-.57.6Zm.46.39h-.17V6.77a1.58,1.58,0,0,1,.28,0,.44.44,0,0,1,.26.06A.19.19,0,0,1,72.7,7c0,.1-.07.15-.16.18h0c.08,0,.11.08.14.18a.86.86,0,0,0,0,.19h-.18a.41.41,0,0,1-.06-.19.14.14,0,0,0-.16-.11h-.08v.3Zm0-.42h.09c.09,0,.17,0,.17-.11s-.05-.12-.16-.12h-.1V7.1Z"/><path class="cls-1" d="M10.7,0H4L.07,4.65l1.39-.09v5L.4,9.75a.49.49,0,0,0-.38.64.55.55,0,0,0,.52.39l.92-.15V12l6.65,1.2L13.33,12V4.66l1.43-.13L10.7,0ZM9.35,5.54,10.8,5.4V7.32l-1.46.19v-2ZM2,11.61V10.55l2.88-.47a.47.47,0,0,0,.45-.56c0-.49-.56-.41-.56-.41L2,9.52V4.42L4.88,1,8.11,4.57v8.15L2,11.61Zm7.39-1.5v-2l1.46-.2V9.85l-1.47.26Zm3.26-.58-1.21.21V7.84l1.21-.17V9.53ZM11.39,7.24V5.34l1.21-.12V7.08l-1.21.16Z"/><path class="cls-1" d="M6.23,4.72a1.73,1.73,0,0,0-1.32-.65H4.83a1.66,1.66,0,0,0-1.26.7A2.49,2.49,0,0,0,3.08,6.3v.15A2.65,2.65,0,0,0,3.68,8,1.73,1.73,0,0,0,5,8.63h.08a1.69,1.69,0,0,0,1.26-.7A2.5,2.5,0,0,0,6.82,6.4V6.26a2.53,2.53,0,0,0-.59-1.54ZM6,7.7a1.32,1.32,0,0,1-1,.56H5a1.35,1.35,0,0,1-1-.52,2.2,2.2,0,0,1-.5-1.31s0-.09,0-.13A2.13,2.13,0,0,1,3.87,5a1.34,1.34,0,0,1,1-.55h.06a1.37,1.37,0,0,1,1,.51,2.11,2.11,0,0,1,.5,1.32.49.49,0,0,1,0,.12A2.11,2.11,0,0,1,6,7.7Z"/><path class="cls-1" d="M4.31,6.39A1.61,1.61,0,0,1,4.81,5c-.55,0-1,.69-.92,1.46S4.41,7.81,5,7.78H5a1.62,1.62,0,0,1-.66-1.38Z"/></g></g></svg>