<svg xmlns="http://www.w3.org/2000/svg" viewBox="0 0 57.71 14.63"><defs><style>.cls-1{fill:#001f47;}</style></defs><title>logo-EAN</title><g id="Layer_2" data-name="Layer 2"><g id="Layer_1-2" data-name="Layer 1"><path class="cls-1" d="M13.72,3.92a7.31,7.31,0,0,0-3-3C13.2,2.64,13.76,6,12.3,8l1,1L8,10,9.1,4.65l1,1c2-2.48,1-4.53-1-5.45A7.22,7.22,0,0,0,3.9.83,7.33,7.33,0,0,0,.83,10.7,7.24,7.24,0,0,0,4.25,14C1.46,12.28.77,8.7,2.31,6.61l-1-1,5.3-1L5.51,10l-1-1c-2,2.57-.9,4.69,1.26,5.55a7.17,7.17,0,0,0,4.86-.68,7.34,7.34,0,0,0,3.08-9.87"/><path class="cls-1" d="M25.09,3.83a.86.86,0,0,0-.75.4h0v-.1a.22.22,0,0,0-.21-.22h-.58a.07.07,0,0,0-.07.07V7.37a.21.21,0,0,0,.21.21h.62a.07.07,0,0,0,.07-.07V6.37h0a.92.92,0,0,0,.78.37c.77,0,1.15-.68,1.15-1.39S26,3.83,25.09,3.83m-.21,2.22c-.41,0-.54-.31-.54-.79s.3-.74.55-.74.53.39.53.74-.14.79-.54.79"/><path class="cls-1" d="M28.31,8.92A.09.09,0,0,1,28.4,9l.39,1.71h0L29.22,9a.17.17,0,0,1,.13-.1h.72c.05,0,.08,0,.06.08l-.8,2.57a.14.14,0,0,1-.13.1h-.73a.09.09,0,0,1-.09-.06L28,9.84h0l-.41,1.77a.09.09,0,0,1-.09.06h-.73a.14.14,0,0,1-.13-.1L25.79,9a.06.06,0,0,1,.06-.08h.71a.17.17,0,0,1,.14.1l.43,1.68h0L27.52,9a.09.09,0,0,1,.09-.06Z"/><path class="cls-1" d="M31.5,8.84a1.46,1.46,0,1,1-1.44,1.46A1.41,1.41,0,0,1,31.5,8.84m0,2.22c.42,0,.55-.41.55-.76s-.13-.77-.55-.77S31,10,31,10.3s.13.76.54.76"/><path class="cls-1" d="M17.8,6.66a.48.48,0,0,1-.48-.48V3.37a.49.49,0,0,1,.48-.48h2.47a0,0,0,0,1,0,0,1.58,1.58,0,0,1-.2.72l-.05,0H18.3v.66h1.61A.06.06,0,0,1,20,4.4V5a.07.07,0,0,1-.06.07H18.3v.72h2s.06,0,.05.06l-.27.72a.13.13,0,0,1-.09.06Z"/><path class="cls-1" d="M40.14,2.89h.33a.1.1,0,0,1,.09.06L41.92,6.6a0,0,0,0,1,0,.06H41a.1.1,0,0,1-.09-.06L40.69,6H39.38l-.21.61a.1.1,0,0,1-.09.06h-.87s-.06,0,0-.06l1.13-3c.18-.49.32-.67.84-.67m-.53,2.37h.85l-.41-1.32h0l-.43,1.32Z"/><path class="cls-1" d="M17.32,8.38a.48.48,0,0,1,.48-.48h.46a.12.12,0,0,1,.1,0l1.28,2.29V8a.07.07,0,0,1,.07-.06h.78a.07.07,0,0,1,.07.06v3.23a.48.48,0,0,1-.48.48h-.46a.15.15,0,0,1-.1-.06l-1.28-2.3V11.6a.07.07,0,0,1-.06.07h-.79a.07.07,0,0,1-.07-.07V8.38Z"/><path class="cls-1" d="M50.72,4.76H50s-.09,0-.08-.08A.85.85,0,0,1,50.36,4a1.77,1.77,0,0,1,.87-.19c.65,0,1.28.14,1.28.92V6a2.11,2.11,0,0,0,.06.61s0,.09-.07.09h-.71a.1.1,0,0,1-.1-.06,1.2,1.2,0,0,1,0-.2,1.21,1.21,0,0,1-.9.34c-.52,0-.94-.26-.94-.83,0-.9,1-.83,1.6-1,.15,0,.23-.09.23-.26s-.24-.29-.43-.29a.41.41,0,0,0-.44.31s0,0-.06,0m.37,1.43c.43,0,.57-.25.55-.82a2.28,2.28,0,0,1-.55.15c-.2.05-.37.14-.37.35s.17.32.37.32"/><path class="cls-1" d="M49.49,3.91V6.6a.06.06,0,0,1-.06.06h-.62a.21.21,0,0,1-.21-.21V3.91Zm0-.34V3.09a.21.21,0,0,0-.21-.21h-.61a.07.07,0,0,0-.07.06v.63Z"/><path class="cls-1" d="M46.8,3.91V6.6a.07.07,0,0,1-.07.06h-.62a.21.21,0,0,1-.21-.21V3.91Zm0-.34V3.09a.21.21,0,0,0-.22-.21H46a.07.07,0,0,0-.07.06v.63Z"/><path class="cls-1" d="M48.15,3.09a.21.21,0,0,0-.22-.21h-.61a.07.07,0,0,0-.07.06V6.45a.21.21,0,0,0,.21.21h.62a.07.07,0,0,0,.07-.07V3.09Z"/><path class="cls-1" d="M56.87,5.83h.7c.06,0,.08,0,.07.08a1.31,1.31,0,0,1-1.34.83,1.37,1.37,0,0,1-1.49-1.46,1.44,1.44,0,0,1,1.47-1.45,1.4,1.4,0,0,1,1.43,1.58.1.1,0,0,1-.11.1H55.7a.59.59,0,0,0,.61.62.54.54,0,0,0,.5-.27.07.07,0,0,1,.06,0M56.81,5a.55.55,0,0,0-.53-.56A.6.6,0,0,0,55.7,5Z"/><path class="cls-1" d="M28.57,5.83h.7c.06,0,.08,0,.07.08A1.31,1.31,0,0,1,28,6.74a1.38,1.38,0,0,1-1.5-1.46A1.45,1.45,0,0,1,28,3.83a1.4,1.4,0,0,1,1.43,1.58.1.1,0,0,1-.11.1H27.4a.59.59,0,0,0,.61.62.55.55,0,0,0,.5-.27.06.06,0,0,1,.06,0M28.51,5A.55.55,0,0,0,28,4.44.59.59,0,0,0,27.4,5Z"/><path class="cls-1" d="M35,4.76h-.71a.08.08,0,0,1-.08-.08A.87.87,0,0,1,34.65,4a1.79,1.79,0,0,1,.87-.19c.65,0,1.28.14,1.28.92V6a1.82,1.82,0,0,0,.07.61s0,.09-.08.09h-.71A.12.12,0,0,1,36,6.6l0-.2a1.2,1.2,0,0,1-.9.34.82.82,0,0,1-.93-.83c0-.9,1-.83,1.59-1,.15,0,.24-.09.24-.26s-.25-.29-.44-.29a.39.39,0,0,0-.43.31.06.06,0,0,1-.06,0m.37,1.43c.43,0,.57-.25.55-.82a2.37,2.37,0,0,1-.56.15c-.2.05-.37.14-.37.35s.18.32.38.32"/><path class="cls-1" d="M33.79,3.91V6.6a.07.07,0,0,1-.07.06H33.1a.22.22,0,0,1-.21-.21V3.91Zm0-.34V3.09a.21.21,0,0,0-.21-.21H33a.07.07,0,0,0-.07.06v.63Z"/><path class="cls-1" d="M32.25,2.88h-.62a.06.06,0,0,0-.06.06V4.21h0a.91.91,0,0,0-.78-.38c-.77,0-1.15.68-1.15,1.4S30,6.74,30.84,6.74a.89.89,0,0,0,.76-.4h0v.11a.21.21,0,0,0,.2.21h.58a.07.07,0,0,0,.07-.07V3.09a.21.21,0,0,0-.21-.21M31.06,6.05c-.41,0-.54-.42-.54-.79s.13-.74.54-.74.54.37.54.76-.1.77-.54.77"/><path class="cls-1" d="M22.86,10.84h.7c.06,0,.08,0,.07.08a1.31,1.31,0,0,1-1.34.83,1.38,1.38,0,0,1-1.5-1.46,1.44,1.44,0,0,1,1.48-1.45,1.4,1.4,0,0,1,1.43,1.58c0,.05,0,.09-.11.09h-1.9a.59.59,0,0,0,.61.63.55.55,0,0,0,.5-.27s0,0,.06,0M22.8,10a.55.55,0,0,0-.53-.56.59.59,0,0,0-.58.56Z"/><path class="cls-1" d="M35.06,8.88h-.17a.83.83,0,0,0-.83.53h0V9A.07.07,0,0,0,34,8.92h-.74a.07.07,0,0,0-.07.07v2.47a.22.22,0,0,0,.21.21H34a.07.07,0,0,0,.07-.07V10.31a.62.62,0,0,1,.67-.65,1.06,1.06,0,0,1,.31,0s0,0,0,0V8.92a0,0,0,0,0,0,0"/><path class="cls-1" d="M38.21,11.61,37.12,10l1-1s0-.06,0-.06h-.88A.19.19,0,0,0,37,9l-.76.86V8.1a.22.22,0,0,0-.22-.22h-.61a.07.07,0,0,0-.07.07v3.51a.21.21,0,0,0,.21.21h.62a.07.07,0,0,0,.07-.07v-.81l.23-.23.63,1a.16.16,0,0,0,.14.06h.91s0,0,0-.06"/><path class="cls-1" d="M45.51,2.89h-.36c-.76,0-1,.24-1,1h-1V3.79c0-.25.13-.28.34-.28h.19s0,0,0,0V3a.07.07,0,0,0-.08-.07H43.3c-.77,0-1,.24-1,1h-.37a.07.07,0,0,0-.06.07v.45a.06.06,0,0,0,.06.06h.37v2a.21.21,0,0,0,.2.21h.63a.07.07,0,0,0,.06-.07V4.49h1v2a.21.21,0,0,0,.21.21h.62A.07.07,0,0,0,45,6.59V4.49h.47a.07.07,0,0,0,.07-.06V4a.07.07,0,0,0-.07-.07H45V3.79c0-.25.13-.28.33-.28h.2s.05,0,.05,0V3a.07.07,0,0,0-.08-.07"/><path class="cls-1" d="M25.62,11s.05,0,.05,0v.56a.07.07,0,0,1-.08.07l-.42,0c-.76,0-1-.23-1-1V9.5h-.39a.07.07,0,0,1-.07-.07V9a.07.07,0,0,1,.07-.07h.39V8.3a.2.2,0,0,1,.2-.21H25a.07.07,0,0,1,.07.06v.77h.49a.07.07,0,0,1,.07.07v.44a.07.07,0,0,1-.07.07h-.49v1.25c0,.22.13.27.32.27h.19"/><path class="cls-1" d="M54.57,6s0,0,0,0V6.6a.07.07,0,0,1-.08.07l-.41,0c-.77,0-1-.22-1-1V4.49h-.39a.07.07,0,0,1-.07-.06V4a.07.07,0,0,1,.07-.07h.39V3.29a.21.21,0,0,1,.2-.21H54a.07.07,0,0,1,.06.07v.76h.49a.07.07,0,0,1,.07.07v.45a.07.07,0,0,1-.07.06h-.49V5.75c0,.21.13.26.32.26h.19"/><path class="cls-1" d="M20.52,3.91s-.05,0,0,.06l.83,1.25L20.42,6.6s0,.06,0,.06h.81c.07,0,.11,0,.14-.06l.41-.73.44.73a.13.13,0,0,0,.13.06h.82s.06,0,0-.06l-.93-1.39L23.13,4s0-.06,0-.06h-.79c-.07,0-.11,0-.13.06l-.35.6L21.49,4a.15.15,0,0,0-.13-.06Z"/><path class="cls-1" d="M36.67,3.3a.44.44,0,1,1,.43.42.41.41,0,0,1-.43-.42m.73,0A.3.3,0,0,0,37.1,3a.29.29,0,0,0-.29.31.3.3,0,0,0,.29.31.3.3,0,0,0,.3-.31M37,3.53h-.11V3.07h.17c.12,0,.2,0,.2.14s0,.12-.13.12l.11.2h-.1l-.11-.19h0v.19Zm.08-.27s.07,0,.07-.06,0-.05-.09-.05H37v.11Z"/></g></g></svg>