<svg xmlns="http://www.w3.org/2000/svg" viewBox="0 0 69.26 11.52"><defs><style>.cls-1{fill:#e42616;}</style></defs><title>logo-airasiago</title><g id="Layer_2" data-name="Layer 2"><g id="Layer_1-2" data-name="Layer 1"><path class="cls-1" d="M10,11.41a.8.8,0,0,1-.74-.54L8.18,8.51H2.52L1.45,10.9a.77.77,0,0,1-.73.51A.71.71,0,0,1,0,10.7a.93.93,0,0,1,.09-.4L4.43.82A1,1,0,0,1,5.35.18h.06a.93.93,0,0,1,.9.64l4.34,9.47a1,1,0,0,1,.09.38A.74.74,0,0,1,10,11.41ZM3.14,7.08H7.55l-2.2-4.9Z"/><path class="cls-1" d="M12.69,11.41a.75.75,0,0,1-.76-.76V3.79A.76.76,0,0,1,12.68,3a.75.75,0,0,1,.76.76v6.86A.73.73,0,0,1,12.69,11.41Zm0-9.63A.81.81,0,0,1,11.82,1V.79A.8.8,0,0,1,12.68,0a.81.81,0,0,1,.87.79V1A.82.82,0,0,1,12.68,1.78Z"/><path class="cls-1" d="M15.92,11.41a.75.75,0,0,1-.76-.76V3.79a.76.76,0,1,1,1.51,0v.82A3.25,3.25,0,0,1,19.22,3a.73.73,0,0,1,.75.76.76.76,0,0,1-.66.76C17.65,4.72,16.67,6,16.67,8v2.69A.75.75,0,0,1,15.92,11.41Z"/><path class="cls-1" d="M28.68,11.41a.82.82,0,0,1-.75-.54L26.86,8.51H21.21L20.14,10.9a.77.77,0,0,1-.74.51.71.71,0,0,1-.71-.71.93.93,0,0,1,.09-.4L23.12.82A1,1,0,0,1,24,.18h.06a.93.93,0,0,1,.9.64l4.34,9.47a1,1,0,0,1,.09.38A.75.75,0,0,1,28.68,11.41ZM21.83,7.08h4.41L24,2.18Z"/><path class="cls-1" d="M33,11.49a5.62,5.62,0,0,1-3.14-1,.7.7,0,0,1-.28-.57.67.67,0,0,1,.68-.67.68.68,0,0,1,.4.13,4.25,4.25,0,0,0,2.4.8c.88,0,1.47-.43,1.47-1.08s-.8-1-1.85-1.26S30,7,30,5.42C30,4,31.13,3,32.81,3a5.65,5.65,0,0,1,2.6.69.74.74,0,0,1,.38.63A.68.68,0,0,1,35.1,5a.75.75,0,0,1-.33-.08,4.22,4.22,0,0,0-2-.59c-.82,0-1.36.4-1.36,1s.91.93,1.88,1.22S36,7.3,36,8.92,34.79,11.49,33,11.49Z"/><path class="cls-1" d="M38.06,11.41a.75.75,0,0,1-.76-.76V3.79a.76.76,0,1,1,1.51,0v6.86A.74.74,0,0,1,38.06,11.41Zm0-9.63A.81.81,0,0,1,37.19,1V.79a.86.86,0,0,1,1.72,0V1A.81.81,0,0,1,38,1.78Z"/><path class="cls-1" d="M43.11,11.51c-1.55,0-3.12-.91-3.12-2.63s1.36-2.75,3.55-2.75a8.63,8.63,0,0,1,2.26.28v0c0-1.65-1.19-2-2.19-2a4.74,4.74,0,0,0-2,.43.79.79,0,0,1-.28.06.68.68,0,0,1-.26-1.32A6.47,6.47,0,0,1,43.73,3a3.62,3.62,0,0,1,2.67.92,3.28,3.28,0,0,1,.86,2.42v4.33a.72.72,0,0,1-.73.74.7.7,0,0,1-.73-.71v-.28A3.61,3.61,0,0,1,43.11,11.51Zm.55-4.18c-1.34,0-2.14.55-2.14,1.47s.94,1.44,1.82,1.44a2.21,2.21,0,0,0,2.47-2V7.63A8,8,0,0,0,43.66,7.33Z"/><path class="cls-1" d="M54.41,11.52a5.54,5.54,0,0,1-5.79-5.67A5.69,5.69,0,0,1,54.4.12a6.06,6.06,0,0,1,3.74,1.07,1.36,1.36,0,0,1,.56,1.09A1.32,1.32,0,0,1,57.38,3.6a1.35,1.35,0,0,1-.82-.27,3.6,3.6,0,0,0-2.24-.7,3.05,3.05,0,0,0-2.91,3.16,3.07,3.07,0,0,0,3.08,3.26,3.74,3.74,0,0,0,2-.56V7.21H55.11a1.18,1.18,0,1,1,0-2.36H57.8a1.33,1.33,0,0,1,1.35,1.34v2.6a1.75,1.75,0,0,1-.91,1.64A7.26,7.26,0,0,1,54.41,11.52Z"/><path class="cls-1" d="M64.64,11.52a4.43,4.43,0,1,1,4.62-4.46A4.44,4.44,0,0,1,64.64,11.52Zm0-6.53a1.92,1.92,0,0,0-2,2.07,2,2,0,0,0,2,2.13,1.93,1.93,0,0,0,2-2.07A2,2,0,0,0,64.64,5Z"/></g></g></svg>