<svg xmlns="http://www.w3.org/2000/svg" viewBox="0 0 81.66 12.83"><defs><style>.cls-1{fill:#d11242;}.cls-2{fill:#8b0e04;}.cls-3{fill:#fff;}</style></defs><title>logo-cheaptickets</title><g id="Layer_2" data-name="Layer 2"><g id="Layer_1-2" data-name="Layer 1"><path class="cls-1" d="M17.24,8.21l1.12.07a3.84,3.84,0,0,1-3.73,2.88c-2.29,0-3.16-1.65-2.74-3.81s1.83-4,4.22-4c1.94,0,2.83,1.16,2.62,3.05l-2.2.11c.15-.64.06-1.45-.72-1.45-1,0-1.39,1.59-1.53,2.31s-.35,2.06.7,2.06c.72,0,1.12-.63,1.27-1.27l1,.07Z"/><path class="cls-1" d="M21.8,11.05l.68-3.53c.08-.37.06-.7-.39-.7a.79.79,0,0,0-.58.28,1,1,0,0,0-.23.54l-.66,3.41H18.43l1.48-7.61H22.1l-.51,2.61a2.44,2.44,0,0,1,1.75-.78,1.38,1.38,0,0,1,1.33.62,2.6,2.6,0,0,1,0,1.61L24,11.05Z"/><path class="cls-1" d="M30.91,9.15a3.47,3.47,0,0,1-3.29,2,2.84,2.84,0,0,1-2.14-.74A2.44,2.44,0,0,1,25,8.29a3.9,3.9,0,0,1,1.25-2.14,3.76,3.76,0,0,1,2.42-.88c1.88,0,2.8,1.22,2.44,3.08l-.06.3H27.22c-.15.61,0,1.06.65,1.06a1,1,0,0,0,1-.69l2,.13ZM29,7.55c.11-.56,0-1-.61-1a1,1,0,0,0-1,1Z"/><path class="cls-1" d="M34.81,11.05a3.57,3.57,0,0,1,.07-.79,2.51,2.51,0,0,1-2,.9c-1.06,0-1.87-.58-1.64-1.71A2.44,2.44,0,0,1,33,7.71a10.17,10.17,0,0,1,2.3-.35V7.31c.1-.51,0-.71-.52-.71a.94.94,0,0,0-1,.63l-2-.18a3.28,3.28,0,0,1,3.29-1.78,3.27,3.27,0,0,1,2,.49c.64.52.41,1.25.25,2.06l-.38,2a3.27,3.27,0,0,0-.07,1.24Zm.32-2.65c-.54,0-1.46.22-1.59.91-.07.36.13.52.47.52.83,0,1-.7,1.1-1.32l0-.11Z"/><path class="cls-1" d="M40.73,5.38l-.16.81h0a1.88,1.88,0,0,1,1.79-.92C44,5.27,44.21,6.82,44,8.15a5,5,0,0,1-.77,1.91,2.43,2.43,0,0,1-2,1.1,1.36,1.36,0,0,1-1.32-.72l-.47,2.39H37.24l1.45-7.45Zm-.51,3.46c-.08.4-.11.92.42.92a.74.74,0,0,0,.69-.46,4.35,4.35,0,0,0,.31-1c.09-.47.32-1.59-.38-1.59a.8.8,0,0,0-.53.23,1,1,0,0,0-.25.58l-.26,1.35Z"/><path class="cls-2" d="M57.23,8.9a3.13,3.13,0,0,1-3.12,2.23,2.26,2.26,0,0,1-1.93-.77,2.57,2.57,0,0,1-.43-2.15,3.57,3.57,0,0,1,3.49-3,2,2,0,0,1,2.24,2.24l-2,.16V7.6c0-.39,0-.83-.49-.83-.7,0-.88.92-1,1.42s-.26,1.39.46,1.39c.48,0,.74-.43.88-.84l1.85.16Z"/><polygon class="cls-2" points="46.76 11.02 44.54 11.02 45.66 5.25 44.07 5.25 44.42 3.42 49.8 3.42 49.44 5.25 47.88 5.25 46.76 11.02 46.76 11.02"/><polygon class="cls-2" points="50.73 11.02 48.53 11.02 49.63 5.36 51.83 5.36 50.73 11.02 50.73 11.02"/><polygon class="cls-2" points="62.17 7.31 63.36 11.02 61.06 11.02 60.44 8.75 59.74 9.46 59.44 11.02 57.25 11.02 58.72 3.42 60.92 3.42 60.12 7.52 60.72 6.89 62.35 5.36 64.26 5.36 62.17 7.31 62.17 7.31"/><path class="cls-2" d="M69.39,9.13a3.49,3.49,0,0,1-3.3,2A2.81,2.81,0,0,1,64,10.39a2.43,2.43,0,0,1-.52-2.13,4,4,0,0,1,1.25-2.14,3.85,3.85,0,0,1,2.42-.87c1.89,0,2.8,1.22,2.44,3.08l-.06.3H65.69c-.15.61,0,1,.65,1a1,1,0,0,0,1-.69l2,.14ZM67.48,7.52c.11-.55,0-1-.61-1a1,1,0,0,0-1,1Z"/><path class="cls-2" d="M69.84,6.8l.28-1.44H71l.52-1.81,1.91-.06-.36,1.87h1.13L74,6.8H72.85l-.38,2c-.08.41-.19.73.34.73a2.57,2.57,0,0,0,.65-.1L73.14,11l-1.32.16a1.51,1.51,0,0,1-1.48-.57,2,2,0,0,1-.1-1.62l.42-2.14Z"/><path class="cls-2" d="M75.54,9.18c0,.55.62.61,1.09.61.22,0,.85,0,.91-.35s-.68-.35-.88-.37c-1.15-.17-2.51-.4-2.22-1.9A2.2,2.2,0,0,1,75.6,5.68a3.85,3.85,0,0,1,1.9-.43c1.07,0,2.11.41,2.28,1.47L78,7c-.09-.38-.5-.5-.89-.5-.17,0-.72.06-.76.3s.13.26.27.29a8.64,8.64,0,0,0,.93.14,3.26,3.26,0,0,1,1.46.42,1.37,1.37,0,0,1,.52,1.44c-.31,1.56-2,2-3.32,2s-2.35-.41-2.51-1.71l1.8-.24Z"/><path class="cls-2" d="M11.85,1.48C10.77,1.3,4.1.1,3.73,0a1.86,1.86,0,0,0-2,1C1.19,2,.21,3.85.1,4.07a.54.54,0,0,0,.21.81c1.2.63,6,3.13,7.5,3.87a1.85,1.85,0,0,0,2.3-.94c.5-.94,2.41-4.73,2.52-4.94.25-.48.3-1.21-.78-1.39"/><path class="cls-3" d="M2.92.73,1,4.33,7.55,7.2l2.23-5L2.92.73Zm7.32,3.14c-.57.12-1,.53-1,.91s.51.59,1.08.47,1-.53,1-.91-.51-.59-1.08-.47Z"/><path class="cls-2" d="M15.8,6.91C15.58,5.78,14,4.58,12.2,4.23c-1.28-.24-2.28,0-2.67.61a3.45,3.45,0,0,1,1.82-.12c1.72.3,3.29,1.47,3.5,2.62a1.14,1.14,0,0,1-.26,1c.86-.18,1.36-.71,1.21-1.45Z"/><path class="cls-2" d="M3.49,1.86c.53,0,3.15.25,4,1.29-1-.22-2.76-.94-4-1.29"/><path class="cls-2" d="M5.69,3.71C5,3.43,4,3.09,2.74,2.7c.82,0,4.27.75,5,1.65a8.48,8.48,0,0,1-2-.64"/><path class="cls-2" d="M3.31,3.92c.41,0,2.84.33,3.58,1.13C6.3,5,5,4.4,3.31,3.92"/><path class="cls-2" d="M81,4.17a.65.65,0,0,1,.46,1.11.62.62,0,0,1-.46.19.6.6,0,0,1-.46-.19.65.65,0,0,1,0-.92A.6.6,0,0,1,81,4.17Zm0,1.18a.54.54,0,0,0,.38-.15.54.54,0,1,0-.76,0,.52.52,0,0,0,.38.15Zm.33-.18h-.15L81,4.89h-.08v.28h-.14V4.46H81a.24.24,0,0,1,.18.06.19.19,0,0,1,.08.15.2.2,0,0,1-.14.19l.22.31Zm-.42-.39H81c.09,0,.13,0,.13-.1s0-.1-.12-.1h-.08v.2Z"/></g></g></svg>