<svg xmlns="http://www.w3.org/2000/svg" viewBox="0 0 86.9 7.35"><defs><style>.cls-1{fill:#446dab;}.cls-2{fill:#f99d1e;}</style></defs><title>logo-vaca_rentals.com</title><g id="Layer_2" data-name="Layer 2"><g id="Layer_1-2" data-name="Layer 1"><path class="cls-1" d="M2.24,7.24,0,.37H1L2,3.75c.3.93.55,1.77.73,2.57h0c.2-.79.48-1.66.79-2.56L4.73.37h.95L3.22,7.24Z"/><path class="cls-1" d="M9.31,6.06a7.06,7.06,0,0,0,.08,1.18H8.58l-.07-.62h0A1.81,1.81,0,0,1,7,7.35,1.4,1.4,0,0,1,5.46,5.94c0-1.2,1.06-1.85,3-1.84V4A1,1,0,0,0,7.3,2.86,2.46,2.46,0,0,0,6,3.22l-.21-.59a3.13,3.13,0,0,1,1.63-.44c1.5,0,1.87,1,1.87,2V6.06ZM8.45,4.72c-1,0-2.1.16-2.1,1.11a.79.79,0,0,0,.85.86,1.22,1.22,0,0,0,1.19-.83.94.94,0,0,0,.06-.28V4.72Z"/><path class="cls-1" d="M14.06,7.06a3.28,3.28,0,0,1-1.41.29,2.35,2.35,0,0,1-2.46-2.53A2.51,2.51,0,0,1,12.84,2.2a3,3,0,0,1,1.24.26l-.2.69a2.1,2.1,0,0,0-1-.23A1.7,1.7,0,0,0,11.1,4.78a1.69,1.69,0,0,0,1.71,1.85,2.41,2.41,0,0,0,1.1-.25l.15.68Z"/><path class="cls-1" d="M18.37,6.06a7.06,7.06,0,0,0,.08,1.18h-.82l-.07-.62h0A1.81,1.81,0,0,1,16,7.35a1.4,1.4,0,0,1-1.51-1.41c0-1.2,1.06-1.85,3-1.84V4a1,1,0,0,0-1.12-1.14,2.52,2.52,0,0,0-1.29.36l-.2-.59a3.12,3.12,0,0,1,1.62-.44c1.51,0,1.88,1,1.88,2V6.06ZM17.5,4.72c-1,0-2.09.16-2.09,1.11a.79.79,0,0,0,.85.86,1.22,1.22,0,0,0,1.19-.83.92.92,0,0,0,.05-.28V4.72Z"/><path class="cls-1" d="M20.64,1.12V2.31h1.29V3H20.64V5.65c0,.61.18,1,.67,1a1.79,1.79,0,0,0,.53-.06l0,.67a2.24,2.24,0,0,1-.8.13,1.27,1.27,0,0,1-1-.38,1.88,1.88,0,0,1-.35-1.29V3H19V2.31h.76V1.4l.88-.28Z"/><path class="cls-1" d="M23.72.92a.56.56,0,0,1-1.11,0,.54.54,0,0,1,.56-.56.53.53,0,0,1,.55.56Zm-1,6.32V2.31h.9V7.24Z"/><path class="cls-1" d="M29.36,4.73A2.41,2.41,0,0,1,26.9,7.35a2.35,2.35,0,0,1-2.36-2.54A2.41,2.41,0,0,1,27,2.19a2.34,2.34,0,0,1,2.38,2.54Zm-3.92,0c0,1.08.63,1.9,1.5,1.9s1.5-.81,1.5-1.92c0-.83-.42-1.89-1.48-1.89s-1.52,1-1.52,1.91Z"/><path class="cls-1" d="M30.28,3.64c0-.51,0-.93,0-1.33H31l0,.81h0a1.83,1.83,0,0,1,1.63-.93c.69,0,1.75.41,1.75,2.1v3h-.9V4.4c0-.8-.29-1.46-1.14-1.46a1.31,1.31,0,0,0-1.26,1.33v3h-.9V3.64Z"/><path class="cls-2" d="M35.76.46a9.25,9.25,0,0,1,1.7-.14,2.8,2.8,0,0,1,2,.56A1.71,1.71,0,0,1,40,2.18a1.81,1.81,0,0,1-1.3,1.76V4a1.7,1.7,0,0,1,1,1.38,10.68,10.68,0,0,0,.53,1.89h-.92a9.69,9.69,0,0,1-.46-1.64c-.2-.95-.57-1.31-1.37-1.34h-.84v3h-.88V.46Zm.88,3.13h.91c1,0,1.55-.52,1.55-1.31S38.46,1,37.52,1a3.72,3.72,0,0,0-.88.08V3.59Z"/><path class="cls-2" d="M41.54,4.94a1.58,1.58,0,0,0,1.69,1.71,3.16,3.16,0,0,0,1.37-.26l.15.65a4.06,4.06,0,0,1-1.64.31,2.3,2.3,0,0,1-2.43-2.5A2.4,2.4,0,0,1,43,2.19a2.09,2.09,0,0,1,2,2.33,3.7,3.7,0,0,1,0,.42Zm2.63-.65a1.28,1.28,0,0,0-1.25-1.45,1.48,1.48,0,0,0-1.37,1.45Z"/><path class="cls-2" d="M45.93,3.64c0-.51,0-.93,0-1.33h.8l.05.81h0a1.8,1.8,0,0,1,1.63-.93c.68,0,1.74.41,1.74,2.1v3h-.89V4.4c0-.8-.3-1.46-1.15-1.46a1.31,1.31,0,0,0-1.26,1.33v3h-.9V3.64Z"/><path class="cls-2" d="M52.42,1.12V2.31H53.7V3H52.42V5.65c0,.61.17,1,.67,1a1.67,1.67,0,0,0,.52-.06l0,.67a2.18,2.18,0,0,1-.79.13,1.26,1.26,0,0,1-1-.38,1.83,1.83,0,0,1-.35-1.29V3h-.76V2.31h.76V1.4l.88-.28Z"/><path class="cls-2" d="M58,6.06a7.06,7.06,0,0,0,.08,1.18h-.82l-.07-.62h0a1.84,1.84,0,0,1-1.51.73,1.4,1.4,0,0,1-1.51-1.41c0-1.2,1.06-1.85,3-1.84V4A1,1,0,0,0,56,2.86a2.52,2.52,0,0,0-1.29.36l-.2-.59a3.12,3.12,0,0,1,1.62-.44c1.51,0,1.88,1,1.88,2V6.06ZM57.1,4.72c-1,0-2.09.16-2.09,1.11a.79.79,0,0,0,.84.86,1.23,1.23,0,0,0,1.2-.83.92.92,0,0,0,.05-.28V4.72Z"/><polygon class="cls-2" points="59.2 0 60.1 0 60.1 7.24 59.2 7.24 59.2 0 59.2 0"/><path class="cls-2" d="M61.27,6.32a2.29,2.29,0,0,0,1.18.36c.65,0,1-.33,1-.73s-.25-.67-.92-.91c-.88-.32-1.3-.81-1.3-1.4a1.52,1.52,0,0,1,1.7-1.45,2.46,2.46,0,0,1,1.21.31l-.22.65a1.94,1.94,0,0,0-1-.28c-.53,0-.83.3-.83.67s.3.59.94.84c.86.32,1.3.75,1.3,1.48s-.68,1.49-1.85,1.49A2.88,2.88,0,0,1,61,7l.23-.69Z"/><path class="cls-2" d="M65.48,7.35a.6.6,0,0,1-.59-.64.6.6,0,0,1,.61-.64.59.59,0,0,1,.6.64.59.59,0,0,1-.61.64Z"/><path class="cls-2" d="M70.52,7.06a3.37,3.37,0,0,1-1.42.29,2.35,2.35,0,0,1-2.46-2.53A2.51,2.51,0,0,1,69.29,2.2a3,3,0,0,1,1.25.26l-.2.69a2.14,2.14,0,0,0-1-.23,1.7,1.7,0,0,0-1.74,1.86,1.7,1.7,0,0,0,1.72,1.85,2.44,2.44,0,0,0,1.1-.25l.15.68Z"/><path class="cls-2" d="M75.76,4.73A2.41,2.41,0,0,1,73.3,7.35a2.35,2.35,0,0,1-2.36-2.54,2.41,2.41,0,0,1,2.44-2.62,2.34,2.34,0,0,1,2.38,2.54Zm-3.92,0c0,1.08.63,1.9,1.5,1.9s1.5-.81,1.5-1.92c0-.83-.42-1.89-1.48-1.89s-1.52,1-1.52,1.91Z"/><path class="cls-2" d="M76.68,3.64c0-.51,0-.93,0-1.33h.78l0,.79h0A1.71,1.71,0,0,1,79,2.19a1.45,1.45,0,0,1,1.4,1h0A2.06,2.06,0,0,1,81,2.54a1.73,1.73,0,0,1,1.09-.35c.66,0,1.63.43,1.63,2.14V7.24h-.88V4.45c0-1-.35-1.52-1.07-1.52a1.15,1.15,0,0,0-1.06.81,1.57,1.57,0,0,0-.07.45V7.24h-.88v-3c0-.78-.35-1.35-1-1.35a1.23,1.23,0,0,0-1.11.89,1.31,1.31,0,0,0-.07.44v3h-.88V3.64Z"/><polygon class="cls-2" points="85.36 2.19 85.36 2.32 84.97 2.32 84.97 3.34 84.82 3.34 84.82 2.32 84.43 2.32 84.43 2.19 85.36 2.19 85.36 2.19"/><path class="cls-2" d="M86.74,3.34l0-.78a1.85,1.85,0,0,1,0-.25h0a1.84,1.84,0,0,0-.09.28l-.27.73h-.17l-.28-.75c0-.08-.06-.18-.08-.26h0a2.18,2.18,0,0,1,0,.25l-.05.78h-.15l.09-1.15h.22l.27.74a1.13,1.13,0,0,1,.08.24h0a1.53,1.53,0,0,0,.07-.24l.28-.74h.22l.1,1.15Z"/></g></g></svg>