<svg xmlns="http://www.w3.org/2000/svg" viewBox="0 0 65.39 15.77"><defs><style>.cls-1{fill:#f58024;}.cls-2{fill:#003d73;}.cls-3{fill:#7aadd4;}</style></defs><title>logo-travelocity</title><g id="Layer_2" data-name="Layer 2"><g id="Layer_1-2" data-name="Layer 1"><path class="cls-1" d="M1.15,9.05a2.47,2.47,0,0,1,.36-.11A5.89,5.89,0,0,1,1,8.29c0-.06,0-.1,0-.12s0-.08,0-.11.07-.11.12-.17,0-.08,0-.1.07,0,.1,0a2.92,2.92,0,0,0,.5.44,3.92,3.92,0,0,1,.62.45s.07,0,.08,0a1.89,1.89,0,0,1,.17-.54,1.08,1.08,0,0,1,.08-.19A.73.73,0,0,1,3,7.68c.17-.1.37,0,.48-.15s.12,0,.16,0,.27,0,.35.11c-.14.34-.15.71-.26,1.07,0,.08-.06.2,0,.22a1.36,1.36,0,0,0,.63,0A3,3,0,0,1,5,9a1.18,1.18,0,0,1,.43.25.94.94,0,0,1,.22.83s-.12.13-.16.12,0-.08,0-.08a2.61,2.61,0,0,1-.33.25s-.14-.12-.19-.15a.86.86,0,0,0-.63-.07,2.37,2.37,0,0,0-.75.09c.09.18.26.26.39.4s.45.41.69.63a1.8,1.8,0,0,1,.4.48c-.06,0,0,.06,0,.1s0-.05-.07-.05-.06.05,0,.09,0,.13-.08.14-.11.08-.14.07l-.13,0a.23.23,0,0,1,.07.16.35.35,0,0,1-.22-.1c-.31-.27-.58-.55-.91-.84a3,3,0,0,0-.34-.37l-.61,1.45c0,.09-.08.34-.13.37s-.17-.18-.24-.33a7.39,7.39,0,0,1,.06-.78v-.06c0-.44.15-.82.13-1.27,0,0,0-.05-.1-.06-.58-.06-1.13-.12-1.7-.2a1.42,1.42,0,0,1-.4-.08S.05,9.86,0,9.85l0,0a2.63,2.63,0,0,1,.74-.62l.41-.16Z"/><path class="cls-2" d="M6.45,12.13s0-.05,0-.07.11,0,.16,0,.32,0,.47,0,.06-.06.08-.06a2.35,2.35,0,0,1,.35-.11s.11-.07.08-.12a1.25,1.25,0,0,1-.34-.46A.59.59,0,0,1,7.11,11c0-.08.09-.09.17-.06a3,3,0,0,1,.8.78c.05.06.1-.08.11-.13.11-.25.19-.52.32-.78a.32.32,0,0,1,.17-.19A1.05,1.05,0,0,0,9,10.4c.08,0,.14,0,.22-.05s.1.06.16,0,.17,0,.26,0a.14.14,0,0,1,.07.16,5,5,0,0,1-.28.69c-.11.17-.2.33-.32.51,0,0,0,0,0,.06s.17,0,.23,0a5.36,5.36,0,0,0,.7.1c.13,0,.13.21.23.3s0,.1-.1.11-.34,0-.51,0a5.85,5.85,0,0,0-.84.11c.09.1.18.18.26.28l.23.33a1.5,1.5,0,0,1,.15.38.58.58,0,0,1,0,.23s0-.08-.07-.1-.06.06-.1.05-.06-.05-.08-.08a.79.79,0,0,1-.14-.23,1.52,1.52,0,0,0-.52-.55A7.48,7.48,0,0,1,8,14s-.06,0-.1,0,0,0-.07,0A.12.12,0,0,0,7.74,14c-.07-.07-.18-.13-.21-.22a.58.58,0,0,1-.07-.28s0,0,0-.06,0-.14.07-.19a.57.57,0,0,0,.12-.18,2.61,2.61,0,0,0,.24-.54,5.14,5.14,0,0,1-1.1-.17c-.07,0-.17-.07-.24-.12s0-.08-.06-.09Z"/><path class="cls-3" d="M6.88,6.21a2.7,2.7,0,0,0,.33-.78c-.61-.33-1.34-.14-1.78-.94a2.24,2.24,0,0,1,.06-1.07c.14-.29.4-.29.65-.08,0,0,.22,0,.26.05a2.29,2.29,0,0,1,.77.12,4.75,4.75,0,0,0,.95.14.24.24,0,0,0,.05-.18C8.09,3,8,2.58,7.87,2.08a1.59,1.59,0,0,1-.07-.39c0-.28-.21-.72,0-.85s.06.06.08,0S7.93.77,8,.79a8.69,8.69,0,0,1,1.61,1.6c.17.17.2-.3.33-.44s0-.24,0-.32.16-.55.26-.77.32-.72.62-.84a.61.61,0,0,1,.62.22c.05,0,.14,0,.19.06.22.19.39.45.62.67a.43.43,0,0,1,.08.33c-.06.34-.34.35-.51.57l-1,1.6c0,.07-.13.24-.06.33a11.17,11.17,0,0,0,1.38,1.29c.32.2.67.19,1,.47a2.47,2.47,0,0,1,.45.83c-1.15.75-2.47-.48-3.71-.45-.09,0-.06.14-.07.2.06.53.15,1.05.21,1.55s.21.72.26,1.07c0,.13.14.49,0,.47a.6.6,0,0,1-.58-.36,10,10,0,0,1-.48-1.26.78.78,0,0,1,0-.37A1.19,1.19,0,0,0,9,6.69c0-.08-.11,0-.16.07a6.19,6.19,0,0,0-.49.7,2.47,2.47,0,0,1-1,.82C7,8.39,6.6,8.46,6.41,8c.09,0,.17-.22.11-.28-.44-.65.18-1.05.36-1.52Z"/><path class="cls-2" d="M19.67,13.69H18.6V8h1.07V9a2,2,0,0,1,1.84-1h.07v.91h-.07a1.65,1.65,0,0,0-1.14.45,2.24,2.24,0,0,0-.7,1.46v2.95Z"/><path class="cls-2" d="M23.9,13.8a1.66,1.66,0,0,1-1.85-1.6c0-1.21,1-1.87,3.67-2.32V9.64c0-.62-.37-.94-1.12-.94a1.43,1.43,0,0,0-1.42.82l0,.07-1-.42,0-.07a2.72,2.72,0,0,1,2.36-1.21c1.1,0,2.2.54,2.2,1.74v2.8a4.06,4.06,0,0,0,.14,1.17l0,.09H25.84L25.76,13a2.64,2.64,0,0,1-1.86.79Zm1.82-3.09c-1.75.3-2.6.8-2.6,1.5A.87.87,0,0,0,24,13a2.65,2.65,0,0,0,1.71-.87V10.71Z"/><polygon class="cls-2" points="30.49 13.69 29.19 13.69 27.36 8 28.45 8 29.88 12.46 31.32 8 32.28 8 30.49 13.69 30.49 13.69"/><polygon class="cls-2" points="39.96 13.69 38.88 13.69 38.88 6.12 39.96 5.66 39.96 13.69 39.96 13.69"/><path class="cls-2" d="M43.49,13.8c-1.54,0-2.58-1.19-2.58-3s1-3,2.58-3,2.57,1.19,2.57,3-1,3-2.57,3Zm0-5.1c-.94,0-1.5.8-1.5,2.15S42.55,13,43.49,13s1.5-.8,1.5-2.14-.56-2.15-1.5-2.15Z"/><path class="cls-2" d="M49.24,13.8c-1.54,0-2.57-1.19-2.57-3s1-3,2.57-3a2.35,2.35,0,0,1,2.31,1.55l0,.08-1,.3,0-.07a1.34,1.34,0,0,0-1.3-1.05c-1,0-1.5.78-1.5,2.15S48.29,13,49.24,13a1.53,1.53,0,0,0,1.53-1l0-.06.91.33,0,.08a2.58,2.58,0,0,1-2.43,1.44Z"/><polygon class="cls-2" points="53.58 13.69 52.51 13.69 52.51 8 53.58 8 53.58 13.69 53.58 13.69"/><path class="cls-2" d="M16.36,13.8c-.8,0-1.32-.16-1.43-1v-4h-.86V8h.86V6.45L16,6V8h1.36l-.22.81H16v3.87c0,.16.07.31.59.31a6.17,6.17,0,0,0,.8-.06l.11,0-.21.8h-.05a4.19,4.19,0,0,1-.88.08Z"/><path class="cls-2" d="M59.38,15.77c-.28,0-.64,0-.77-.06h-.09l.24-.8h.15a3.07,3.07,0,0,0,.34,0c.54,0,1.18-.15,1.44-1.25L58.65,8h1v.05l1.51,4.07L62.49,8h1.13l-2.08,6.13a2.22,2.22,0,0,1-2.16,1.64Z"/><path class="cls-2" d="M57,13.8c-.8,0-1.32-.16-1.43-1h0v-4h-.86V8h.86V6.45L56.64,6V8H58l-.22.81H56.64v3.87c0,.16.07.31.59.31a6.44,6.44,0,0,0,.81-.06l.1,0-.21.8h0a4.19,4.19,0,0,1-.88.08Z"/><path class="cls-2" d="M35.48,13.8a2.7,2.7,0,0,1-1.86-.7,3,3,0,0,1-.86-2.25c0-1.77,1-3,2.56-3A2.39,2.39,0,0,1,37,8.51a2.63,2.63,0,0,1,.74,2v.59h-3.9A1.79,1.79,0,0,0,35.48,13,1.74,1.74,0,0,0,37,12.12l0-.08.69.67,0,0a2.15,2.15,0,0,1-2.23,1Zm-1.62-3.54h2.8c0-1-.53-1.56-1.32-1.56s-1.39.57-1.48,1.56Z"/><polygon class="cls-2" points="53.58 7.19 52.51 7.19 52.51 6.13 53.58 6.13 53.58 7.19 53.58 7.19"/><path class="cls-2" d="M64.06,8.42a.57.57,0,0,1,.15-.22.86.86,0,0,1,.22-.15A.76.76,0,0,1,64.7,8a.66.66,0,0,1,.49.2.71.71,0,0,1,.15.22.75.75,0,0,1,0,.54.71.71,0,0,1-.15.22.66.66,0,0,1-.49.2.76.76,0,0,1-.27-.05.86.86,0,0,1-.22-.15A.57.57,0,0,1,64.06,9a.64.64,0,0,1,0-.54Zm.11.5a.62.62,0,0,0,.12.19.57.57,0,0,0,.18.12.59.59,0,0,0,.23,0,.54.54,0,0,0,.22,0,.57.57,0,0,0,.18-.12.62.62,0,0,0,.12-.19.55.55,0,0,0,0-.46.62.62,0,0,0-.12-.19.57.57,0,0,0-.18-.12.54.54,0,0,0-.22-.05.59.59,0,0,0-.23.05.57.57,0,0,0-.18.12.62.62,0,0,0-.12.19.68.68,0,0,0,0,.46Zm.57-.63a.42.42,0,0,1,.22.05.25.25,0,0,1,.07.18.22.22,0,0,1-.07.16.34.34,0,0,1-.15.06l.23.35h-.13l-.22-.34h-.13v.34h-.13v-.8Zm0,.35h.14l0,0a.19.19,0,0,0,0-.08.11.11,0,0,0,0-.06.08.08,0,0,0,0,0l0,0h-.23v.25Z"/><path class="cls-2" d="M64.06,8.42a.57.57,0,0,1,.15-.22.86.86,0,0,1,.22-.15A.76.76,0,0,1,64.7,8a.66.66,0,0,1,.49.2.71.71,0,0,1,.15.22.75.75,0,0,1,0,.54.71.71,0,0,1-.15.22.66.66,0,0,1-.49.2.76.76,0,0,1-.27-.05.86.86,0,0,1-.22-.15A.57.57,0,0,1,64.06,9a.64.64,0,0,1,0-.54Zm.11.5a.62.62,0,0,0,.12.19.57.57,0,0,0,.18.12.59.59,0,0,0,.23,0,.54.54,0,0,0,.22,0,.57.57,0,0,0,.18-.12.62.62,0,0,0,.12-.19.55.55,0,0,0,0-.46.62.62,0,0,0-.12-.19.57.57,0,0,0-.18-.12.54.54,0,0,0-.22-.05.59.59,0,0,0-.23.05.57.57,0,0,0-.18.12.62.62,0,0,0-.12.19.68.68,0,0,0,0,.46Zm.57-.63a.42.42,0,0,1,.22.05.25.25,0,0,1,.07.18.22.22,0,0,1-.07.16.34.34,0,0,1-.15.06l.23.35h-.13l-.22-.34h-.13v.34h-.13v-.8Zm0,.35h.14l0,0a.19.19,0,0,0,0-.08.11.11,0,0,0,0-.06.08.08,0,0,0,0,0l0,0h-.23v.25Z"/></g></g></svg>