<svg xmlns="http://www.w3.org/2000/svg" viewBox="0 0 80 15.48"><defs><style>.cls-1{fill:#ee2842;}</style></defs><title>logo-hotels.com</title><g id="Layer_2" data-name="Layer 2"><g id="Layer_1-2" data-name="Layer 1"><path class="cls-1" d="M77.94,4.68a.14.14,0,0,1-.13-.14v-.9h-.26a.11.11,0,0,1-.11-.11.11.11,0,0,1,.11-.12h.78a.12.12,0,0,1,.12.12.12.12,0,0,1-.12.11h-.26v.9a.14.14,0,0,1-.13.14Zm1.93,0a.14.14,0,0,1-.14-.14V3.76l-.33.87a.07.07,0,0,1-.14,0l-.34-.87v.78a.13.13,0,0,1-.12.14.14.14,0,0,1-.14-.14V3.61a.22.22,0,0,1,.22-.22.22.22,0,0,1,.2.14l.25.66.25-.66a.22.22,0,0,1,.2-.14.22.22,0,0,1,.22.22v.93a.14.14,0,0,1-.13.14Z"/><path class="cls-1" d="M9.46,3A2.1,2.1,0,0,1,9.84,1.8,1.72,1.72,0,0,0,8.6,3.44V4.82l.86,0V3Z"/><path class="cls-1" d="M8.6,12.47a1.73,1.73,0,0,0,1.24,1.65,2.15,2.15,0,0,1-.38-1.22V10.32H8.6v2.15Z"/><path class="cls-1" d="M10.75,10.32H9.89V12.9a1.73,1.73,0,0,0,1.24,1.65,2.15,2.15,0,0,1-.38-1.22v-3Z"/><path class="cls-1" d="M10.75,2.58a2.1,2.1,0,0,1,.38-1.21A1.72,1.72,0,0,0,9.89,3V4.88l.86,0V2.58Z"/><path class="cls-1" d="M1.05,2A2.16,2.16,0,0,0,0,3.87V12a2.14,2.14,0,0,0,1.05,1.84,2.63,2.63,0,0,1-.19-1V3a2.63,2.63,0,0,1,.19-1Z"/><path class="cls-1" d="M2.15,2.15a2.45,2.45,0,0,1,.2-1A2.14,2.14,0,0,0,1.29,3V12.9a2.14,2.14,0,0,0,1.41,2,2.49,2.49,0,0,1-.55-1.58V2.15Z"/><path class="cls-1" d="M12.9.86a1.72,1.72,0,0,0-1.72,1.72v2.8l-4.3-.22v-3a2.15,2.15,0,0,0-4.3,0V13.33a2.15,2.15,0,1,0,4.3,0V9.89h4.3v3.44a1.72,1.72,0,0,0,3.44,0V2.58A1.72,1.72,0,0,0,12.9.86Z"/><path class="cls-1" d="M27.75,11.33V8.15H23.11v3.18a.63.63,0,0,1-.62.63.64.64,0,0,1-.64-.63V4.07a.64.64,0,0,1,.63-.63.63.63,0,0,1,.63.63V7h4.64v-3a.63.63,0,0,1,.63-.63.63.63,0,0,1,.63.63v7.26a.63.63,0,0,1-.63.63.63.63,0,0,1-.63-.63Z"/><path class="cls-1" d="M29.9,8.85a3.08,3.08,0,1,1,6.15,0,3.08,3.08,0,1,1-6.15,0Zm5,0a1.9,1.9,0,1,0-3.77,0,1.91,1.91,0,1,0,3.77,0Z"/><path class="cls-1" d="M42.63,5.67a2.91,2.91,0,0,1,3,3c0,.34-.24.54-.67.54H40.78a2,2,0,0,0,2.07,1.89,2.61,2.61,0,0,0,1.51-.49.39.39,0,0,1,.25-.06.45.45,0,0,1,.25.83,3.52,3.52,0,0,1-2.13.65,3,3,0,0,1-3.14-3.2,3.05,3.05,0,0,1,3-3.18ZM40.77,8.41h3.71A1.79,1.79,0,0,0,42.63,6.6a1.86,1.86,0,0,0-1.86,1.81Z"/><path class="cls-1" d="M46.31,11.4V4a.56.56,0,0,1,.57-.57.58.58,0,0,1,.57.57V11.4a.57.57,0,0,1-.57.56.56.56,0,0,1-.57-.56Z"/><path class="cls-1" d="M48.17,11a.48.48,0,0,1,.49-.49.49.49,0,0,1,.28.09,3,3,0,0,0,1.71.58c.86,0,1.31-.36,1.31-.87s-.69-.81-1.47-1c-1-.24-2.24-.52-2.24-1.83,0-1,.83-1.8,2.32-1.8a3.31,3.31,0,0,1,2,.63.46.46,0,0,1,.2.38.47.47,0,0,1-.46.46.42.42,0,0,1-.25-.09,2.52,2.52,0,0,0-1.5-.46c-.77,0-1.25.3-1.25.79s.66.71,1.41.88c1.06.24,2.32.53,2.32,1.93,0,1-.86,1.86-2.46,1.86a3.54,3.54,0,0,1-2.21-.68.5.5,0,0,1-.22-.4Z"/><path class="cls-1" d="M54.55,10.47a.8.8,0,0,1,.79.78.79.79,0,0,1-1.58,0,.79.79,0,0,1,.79-.78Z"/><path class="cls-1" d="M61.22,8.85a3.07,3.07,0,1,1,6.14,0,3.07,3.07,0,1,1-6.14,0Zm5,0a1.9,1.9,0,1,0-3.77,0,1.91,1.91,0,1,0,3.77,0Z"/><path class="cls-1" d="M76.74,7.51V11.4a.58.58,0,0,1-.58.56.56.56,0,0,1-.55-.56V7.85c0-.71-.32-1-1.06-1S73.33,7.5,73,7.94V11.4a.57.57,0,0,1-1.13,0V7.85c0-.71-.31-1-1.07-1-.6,0-1.19.74-1.49,1.18V11.4a.57.57,0,0,1-.57.56.56.56,0,0,1-.56-.56V6.32a.56.56,0,0,1,.55-.56.58.58,0,0,1,.58.56v.36a2.63,2.63,0,0,1,2-1A1.57,1.57,0,0,1,73,6.8,2.62,2.62,0,0,1,75,5.67c1.12,0,1.71.62,1.71,1.84Z"/><path class="cls-1" d="M58.73,5.67a2.74,2.74,0,0,1,1.94.7.55.55,0,0,1,.18.38.51.51,0,0,1-.5.52A.48.48,0,0,1,60,7.14a1.7,1.7,0,0,0-1.23-.46,2,2,0,0,0-2,2.17,2,2,0,0,0,2,2.2,2.86,2.86,0,0,0,2.28-1.59,4.94,4.94,0,0,1,.3-.49c.18-.24.31-.13.42,0a1,1,0,0,1,.07.95,4.94,4.94,0,0,1-1,1.34,3,3,0,0,1-2.09.8,3,3,0,0,1-3.09-3.2,3,3,0,0,1,3.09-3.18Z"/><path class="cls-1" d="M40.4,11c0,.21-.62.69-1.06.91a1.88,1.88,0,0,1-.87.17A1.33,1.33,0,0,1,37,10.55V6.81h-.58a.51.51,0,0,1-.5-.5.51.51,0,0,1,.5-.49H37V4.66a.57.57,0,0,1,.57-.56.57.57,0,0,1,.57.56V5.82H39a.5.5,0,1,1,0,1h-.79V10.3c0,.43.2.75.59.75.69,0,1.24-1.08,1.54-1.08s.11.72.11,1Z"/></g></g></svg>