<svg xmlns="http://www.w3.org/2000/svg" viewBox="0 0 63.03 17.84"><defs><style>.cls-1{fill:#00355f;}.cls-2{fill:#ffc60b;}</style></defs><title>logo-expdia</title><g id="Layer_2" data-name="Layer 2"><g id="Layer_1-2" data-name="Layer 1"><path class="cls-1" d="M30.3,14h-2l-1.68-2.06L25,14H23.36s0,0,0,0,0,0,0,0l2.49-3.05-2.46-3a0,0,0,0,1,0,0,0,0,0,0,1,0,0h2a0,0,0,0,1,0,0l1.48,1.83,1.51-1.84H30s0,0,0,0a0,0,0,0,1,0,0l-2.33,2.8,2.67,3.27s0,0,0,0,0,0,0,0Z"/><path class="cls-1" d="M43.74,11.27h-4.5a1.69,1.69,0,0,0,1.86,1.64,5.13,5.13,0,0,0,2.41-.77s0,0,0,0v1.38s0,0,0,0a7.28,7.28,0,0,1-2.63.67h0a3.23,3.23,0,0,1-3.33-3.34A3.23,3.23,0,0,1,40.9,7.55a2.72,2.72,0,0,1,2.89,2.82c0,.26,0,.88,0,.9ZM40.9,8.89a1.58,1.58,0,0,0-1.63,1.44h2.95v-.06A1.34,1.34,0,0,0,40.9,8.89Z"/><path class="cls-1" d="M52,14s0,0,0,0V7.83l0,0h1.62l0,0v6.11l0,0Zm.8-7.43a1,1,0,0,1-1-1,1,1,0,1,1,2,0,1,1,0,0,1-1,1Z"/><path class="cls-1" d="M33.7,7.55a4.4,4.4,0,0,0-1.4.25H30.69s0,0,0,0v10a3.68,3.68,0,0,0,1.66-.65v-3a8.28,8.28,0,0,0,1,.09c2.2,0,3.63-1.32,3.63-3.37a3.17,3.17,0,0,0-3.3-3.32ZM33.26,13a3.58,3.58,0,0,1-.93-.13V9a3.49,3.49,0,0,1,1.1-.19,1.87,1.87,0,0,1,1.87,2.06,2,2,0,0,1-2,2.18Z"/><path class="cls-1" d="M49.09,4.57v3.2a4.49,4.49,0,0,0-1.31-.2,3.3,3.3,0,0,0-3.37,3.37,3.08,3.08,0,0,0,3,3.3,3.85,3.85,0,0,0,1.85-.5v.55a3.68,3.68,0,0,0,1.45-.61V3.92a3.53,3.53,0,0,0-1.66.65Zm0,8a2.91,2.91,0,0,1-1.38.39c-1,0-1.6-.7-1.6-1.88a2,2,0,0,1,2-2.26,2.37,2.37,0,0,1,1,.26v3.49Z"/><path class="cls-1" d="M60.94,7.73a.07.07,0,0,0-.07-.07H59.56a.08.08,0,0,0-.07.07V8h0a3.94,3.94,0,0,0-1.63-.39A3.29,3.29,0,0,0,54.6,11a3,3,0,0,0,3.16,3.25,2.09,2.09,0,0,0,1.76-.73v.78a3.69,3.69,0,0,0,1.42-.62V7.73Zm-1.66,4.79a2.66,2.66,0,0,1-1.28.42,1.66,1.66,0,0,1-1.71-1.89c0-1.35.75-2.25,1.87-2.25a2.48,2.48,0,0,1,1.12.35v3.37Z"/><path class="cls-1" d="M18.88,12.43H23A3.67,3.67,0,0,1,22.38,14H18.15a1,1,0,0,1-1-.91s0,0,0,0V5a1,1,0,0,1,1-.91h4.79a3.75,3.75,0,0,1-.57,1.54H18.88V7.81h3.45s0,0,0,0V9.34a0,0,0,0,1,0,0H18.88v3.06Z"/><path class="cls-1" d="M13.8,12.61a.76.76,0,0,0-.77.78.75.75,0,0,0,.77.77.78.78,0,0,0,0-1.55Zm0,1.48a.7.7,0,1,1,.64-.7.65.65,0,0,1-.64.7Z"/><path class="cls-1" d="M14.16,13.19c0-.18-.12-.26-.34-.26h-.35v.92h.16v-.4h.14l.23.4h.18l-.26-.41a.23.23,0,0,0,.24-.25Zm-.54.13V13h.19c.09,0,.21,0,.21.13s-.11.15-.23.15Z"/><path class="cls-1" d="M62.28,7.35a.78.78,0,1,0,.75.77.75.75,0,0,0-.75-.77Zm0,1.47a.65.65,0,0,1-.66-.7.66.66,0,0,1,.66-.7.65.65,0,0,1,.64.7.65.65,0,0,1-.64.7Z"/><path class="cls-1" d="M62.64,7.93c0-.19-.12-.27-.34-.27H62v.92h.15V8.19h.14l.24.39h.17l-.25-.4a.25.25,0,0,0,.24-.25Zm-.55.13V7.78h.19c.1,0,.21,0,.21.13s-.1.15-.22.15Z"/><path class="cls-1" d="M8.56,5.62l-.3-.83L5.76,1.45l.45-.12,4.31,3.73,2.54-.73A4,4,0,0,1,14,4.24,7.32,7.32,0,0,0,.08,8.41l6.08-2.1,2.4-.69Z"/><path class="cls-1" d="M14.22,4.9a4.51,4.51,0,0,1-.88.44l-2.54.72L9.11,11.51l-.44.14L9,7.49l-.2-.86-2.38.68L.15,8.79A7.32,7.32,0,1,0,14.22,4.9Z"/><path class="cls-2" d="M8.82,6.63l.2.86-.35,4.16.44-.14L10.8,6.06l2.54-.72a4.51,4.51,0,0,0,.88-.44q-.12-.33-.27-.66a4,4,0,0,0-.89.09l-2.54.73L6.21,1.33l-.45.12,2.5,3.34.3.83-2.4.69L.08,8.41c0,.13,0,.26.07.38L6.44,7.31l2.38-.68Z"/></g></g></svg>