<svg xmlns="http://www.w3.org/2000/svg" xmlns:xlink="http://www.w3.org/1999/xlink" viewBox="0 0 40.34 8.34"><defs><style>.cls-1{fill:none;}.cls-2{clip-path:url(#clip-path);}.cls-3{fill:#e7262b;}</style><clipPath id="clip-path"><polygon class="cls-1" points="0 0 40.34 0 40.34 8.28 0 8.28 0 0 0 0"/></clipPath></defs><title>logo-hotwire</title><g id="Layer_2" data-name="Layer 2"><g id="Layer_1-2" data-name="Layer 1"><g class="cls-2"><path d="M27.79,1.38A.67.67,0,0,1,27.11.7a.69.69,0,0,1,.68-.7.71.71,0,0,1,.7.7.69.69,0,0,1-.7.68"/></g><path class="cls-3" d="M12.28,5.18a3,3,0,1,1-3-3,3,3,0,0,1,3,3"/><path d="M0,.11H1.29v3h0A2,2,0,0,1,2,2.44a2,2,0,0,1,1-.26,2.21,2.21,0,0,1,1.52.49,1.92,1.92,0,0,1,.55,1.5v4H3.84V4.51a1.6,1.6,0,0,0-.29-1,1.09,1.09,0,0,0-.85-.31,1.41,1.41,0,0,0-.59.12,1.31,1.31,0,0,0-.44.33,1.57,1.57,0,0,0-.28.49,1.72,1.72,0,0,0-.1.6V8.18H0V.11Z"/><path d="M13.18,2.33h1V.58h1.29V2.33h1.17v1H15.44V6.42a3.49,3.49,0,0,0,0,.35.67.67,0,0,0,.08.25.45.45,0,0,0,.18.15,1.06,1.06,0,0,0,.34,0h.27a1,1,0,0,0,.28,0v1l-.42,0-.42,0a3,3,0,0,1-.82-.1,1.11,1.11,0,0,1-.49-.28,1,1,0,0,1-.23-.47,3,3,0,0,1-.08-.65V3.3h-1v-1Z"/><polygon points="17.4 2.33 18.76 2.33 19.91 6.7 19.93 6.7 21.02 2.33 22.33 2.33 23.38 6.7 23.4 6.7 24.59 2.33 25.9 2.33 24.07 8.18 22.74 8.18 21.66 3.84 21.64 3.84 20.56 8.18 19.2 8.18 17.4 2.33 17.4 2.33"/><polygon points="27.15 2.33 28.44 2.33 28.44 8.18 27.15 8.18 27.15 2.33 27.15 2.33"/><g class="cls-2"><path d="M30.24,2.33h1.21V3.47h0A1.34,1.34,0,0,1,31.69,3a1.94,1.94,0,0,1,.4-.41,1.63,1.63,0,0,1,.51-.3,1.46,1.46,0,0,1,.58-.11h.31l.18,0V3.45l-.28,0h-.28a1.39,1.39,0,0,0-.61.13,1.34,1.34,0,0,0-.51.38,2.09,2.09,0,0,0-.34.63,2.79,2.79,0,0,0-.12.86V8.18H30.24V2.33Z"/><path d="M35.42,5.59a2.39,2.39,0,0,0,.09.66,1.7,1.7,0,0,0,.29.55,1.32,1.32,0,0,0,.49.38,1.65,1.65,0,0,0,.7.14,1.56,1.56,0,0,0,.91-.24,1.42,1.42,0,0,0,.51-.73h1.23a2.67,2.67,0,0,1-.35.85,2.72,2.72,0,0,1-.6.62,2.77,2.77,0,0,1-.79.39,3.39,3.39,0,0,1-.91.13,3.09,3.09,0,0,1-1.22-.23,2.52,2.52,0,0,1-.9-.63,2.72,2.72,0,0,1-.55-1,3.86,3.86,0,0,1-.19-1.25,3.57,3.57,0,0,1,.2-1.18,3.06,3.06,0,0,1,.56-1,2.85,2.85,0,0,1,.89-.68A2.8,2.8,0,0,1,37,2.18a2.59,2.59,0,0,1,1.23.28,2.73,2.73,0,0,1,.91.77,2.92,2.92,0,0,1,.53,1.09,3.18,3.18,0,0,1,.08,1.27Zm3-.85a2.4,2.4,0,0,0-.13-.59,1.74,1.74,0,0,0-.3-.49,1.41,1.41,0,0,0-.45-.34A1.45,1.45,0,0,0,37,3.19a1.52,1.52,0,0,0-.62.12,1.43,1.43,0,0,0-.47.33,1.49,1.49,0,0,0-.32.49,1.75,1.75,0,0,0-.13.61Z"/></g><path d="M39.85,2a.49.49,0,1,1,0,1,.49.49,0,1,1,0-1m0,.9a.4.4,0,0,0,.4-.42.4.4,0,0,0-.4-.41.42.42,0,0,0,0,.83m-.19-.7h.22c.14,0,.2.05.2.16a.15.15,0,0,1-.15.16l.16.25H40l-.16-.24h-.09v.24h-.09V2.17Zm.09.25h.09c.08,0,.15,0,.15-.09s-.07-.09-.13-.09h-.11v.18Z"/></g></g></svg>