<svg xmlns="http://www.w3.org/2000/svg" viewBox="0 0 53.55 15.76"><defs><style>.cls-1{fill:#e37a26;}.cls-2{fill:#2873b8;}.cls-3{fill:#a31e22;}.cls-4{fill:#b5b6b6;}</style></defs><title>logo-trivago</title><g id="Layer_2" data-name="Layer 2"><g id="Layer_1-2" data-name="Layer 1"><polygon class="cls-1" points="16.8 3.5 19.51 3.5 21.57 9.02 21.61 9.02 23.51 3.5 26.04 3.5 22.83 11.63 20.17 11.63 16.8 3.5 16.8 3.5"/><path class="cls-2" d="M7,5.51H4.53V8.22a5.66,5.66,0,0,0,0,.61,1.19,1.19,0,0,0,.17.48.92.92,0,0,0,.4.31,1.9,1.9,0,0,0,.7.11,5,5,0,0,0,.58-.05A1,1,0,0,0,7,9.49v2.09a4.43,4.43,0,0,1-1,.2,8.18,8.18,0,0,1-1,.06,5.7,5.7,0,0,1-1.28-.14,3.09,3.09,0,0,1-1-.42A2,2,0,0,1,2,10.51a2.33,2.33,0,0,1-.25-1.13V5.51H0v-2H1.77V1.09H4.53V3.5H7v2Z"/><path class="cls-2" d="M7.67,3.5h2.51V4.81h0a3.19,3.19,0,0,1,.95-1.13,2.42,2.42,0,0,1,1.39-.38l.44,0a1.67,1.67,0,0,1,.4.07V5.68a3.71,3.71,0,0,0-.53-.13,4.56,4.56,0,0,0-.54,0,2.74,2.74,0,0,0-1.14.2,1.53,1.53,0,0,0-.64.56,2.25,2.25,0,0,0-.3.86,9.53,9.53,0,0,0-.06,1.11v3.39H7.67V3.5Z"/><path class="cls-2" d="M13.9,1.33a1.28,1.28,0,0,1,.39-.94,1.33,1.33,0,0,1,1.88,0,1.29,1.29,0,0,1,.4.94,1.29,1.29,0,0,1-.4.94,1.3,1.3,0,0,1-1.88,0,1.28,1.28,0,0,1-.39-.94M14,3.5h2.51v8.13H14V3.5Z"/><path class="cls-1" d="M30.92,10.61h0a2.35,2.35,0,0,1-1.11.94,3.8,3.8,0,0,1-1.46.29,3.67,3.67,0,0,1-1.1-.17,2.72,2.72,0,0,1-.93-.47,2.23,2.23,0,0,1-.63-.79,2.32,2.32,0,0,1-.24-1.08,2.52,2.52,0,0,1,.26-1.19,2.38,2.38,0,0,1,.7-.81,3.71,3.71,0,0,1,1-.49,7.49,7.49,0,0,1,1.18-.26c.4,0,.81-.09,1.22-.1l1.13,0a1.3,1.3,0,0,0-.48-1.06A1.72,1.72,0,0,0,29.31,5a2.5,2.5,0,0,0-1.13.26,3.08,3.08,0,0,0-.91.71L25.93,4.61a4.49,4.49,0,0,1,1.64-1,5.82,5.82,0,0,1,1.94-.33,5,5,0,0,1,1.82.28,2.64,2.64,0,0,1,1.14.81,3.15,3.15,0,0,1,.59,1.31,8.74,8.74,0,0,1,.17,1.8v4.13H30.92v-1ZM30.3,8.07l-.71,0a3.61,3.61,0,0,0-.82.15,1.78,1.78,0,0,0-.67.35.79.79,0,0,0-.28.65.71.71,0,0,0,.39.67,1.53,1.53,0,0,0,.8.22,2.77,2.77,0,0,0,.71-.1,2,2,0,0,0,.61-.29,1.45,1.45,0,0,0,.43-.46,1.47,1.47,0,0,0,.16-.67V8.07Z"/><path class="cls-3" d="M42.64,7.57A4.52,4.52,0,0,1,43,5.81a4.13,4.13,0,0,1,.87-1.35,3.83,3.83,0,0,1,1.3-.86,4.39,4.39,0,0,1,3.19,0,3.74,3.74,0,0,1,1.3.86,4.13,4.13,0,0,1,.87,1.35,4.52,4.52,0,0,1,.32,1.76,4.52,4.52,0,0,1-.32,1.76,4,4,0,0,1-.87,1.34,3.6,3.6,0,0,1-1.3.86,4.26,4.26,0,0,1-3.19,0,3.69,3.69,0,0,1-1.3-.86A4,4,0,0,1,43,9.33a4.52,4.52,0,0,1-.32-1.76m2.27,0a2.24,2.24,0,0,0,.48,1.49,1.86,1.86,0,0,0,2.68,0,2.29,2.29,0,0,0,.47-1.49,2.27,2.27,0,0,0-.47-1.49,1.86,1.86,0,0,0-2.68,0,2.22,2.22,0,0,0-.48,1.49"/><path class="cls-4" d="M52.25,3.3a1.3,1.3,0,1,0,1.3,1.3,1.31,1.31,0,0,0-1.3-1.3m0,2.36A1.06,1.06,0,1,1,53.31,4.6a1.05,1.05,0,0,1-1.06,1.06"/><path class="cls-4" d="M52.93,5.21h-.39l-.35-.46h-.11v.46h-.32V4h.69l.15,0a.35.35,0,0,1,.1.11.31.31,0,0,1,0,.17.45.45,0,0,1-.06.24.66.66,0,0,1-.18.14l.43.53Zm-.51-.87a.19.19,0,0,0,0-.08.1.1,0,0,0-.06,0l-.07,0h-.19v.34h.2a.2.2,0,0,0,.08,0,.1.1,0,0,0,0-.05.2.2,0,0,0,0-.09"/><path class="cls-3" d="M39.34,9.06a1.86,1.86,0,0,1-2.68,0,2.24,2.24,0,0,1-.48-1.49,2.22,2.22,0,0,1,.48-1.49,1.86,1.86,0,0,1,2.68,0,2.22,2.22,0,0,1,.48,1.49,2.24,2.24,0,0,1-.48,1.49Zm.55-5.58V4.62H40s-.23-.26-.4-.41a3.11,3.11,0,0,0-.6-.39,3.93,3.93,0,0,0-.8-.29,3.68,3.68,0,0,0-1-.12,3.29,3.29,0,0,0-1.56.36,3.18,3.18,0,0,0-1.16.95,3.72,3.72,0,0,0-.6,1.34,6.06,6.06,0,0,0-.17,1.59A6.32,6.32,0,0,0,34,9.37a3.5,3.5,0,0,0,.63,1.3,3,3,0,0,0,1.26.86,4.13,4.13,0,0,0,1.64.31,3.42,3.42,0,0,0,1.21-.22,2.39,2.39,0,0,0,1.08-.81H39.7v.75A1.94,1.94,0,0,1,39.21,13a2.16,2.16,0,0,1-1.66.58,4.49,4.49,0,0,1-1.36-.13,4.67,4.67,0,0,1-1.45-.65l-1.21,1.79a5.66,5.66,0,0,0,1.93.94,8.13,8.13,0,0,0,2.14.24,4.61,4.61,0,0,0,3.48-1.19,4.81,4.81,0,0,0,1.1-3.51V3.48Z"/></g></g></svg>