<?xml version="1.0" encoding="utf-8"?>
<!-- Generator: Adobe Illustrator 19.0.0, SVG Export Plug-In . SVG Version: 6.00 Build 0)  -->
<svg version="1.1" id="Layer_1" xmlns="http://www.w3.org/2000/svg" xmlns:xlink="http://www.w3.org/1999/xlink" x="0px" y="0px"
	 viewBox="0 0 200 200" style="enable-background:new 0 0 200 200;" xml:space="preserve">
<style type="text/css">
	.st0{clip-path:url(#XMLID_43_);}
	.st1{clip-path:url(#XMLID_74_);enable-background:new    ;}
	.st2{clip-path:url(#XMLID_75_);}
	.st3{clip-path:url(#XMLID_76_);fill:#FFCC31;}
	.st4{clip-path:url(#XMLID_77_);}
	.st5{clip-path:url(#XMLID_78_);enable-background:new    ;}
	.st6{clip-path:url(#XMLID_79_);}
	.st7{clip-path:url(#XMLID_80_);}
	.st8{clip-path:url(#XMLID_81_);fill:#606060;}
	.st9{enable-background:new    ;}
	.st10{clip-path:url(#XMLID_83_);}
	.st11{clip-path:url(#XMLID_84_);enable-background:new    ;}
	.st12{clip-path:url(#XMLID_85_);}
	.st13{clip-path:url(#XMLID_86_);}
	.st14{clip-path:url(#XMLID_87_);fill:#606060;}
</style>
<g id="XMLID_2_">
	<defs>
		<circle id="XMLID_3_" cx="100.5" cy="99.5" r="98.5"/>
	</defs>
	<clipPath id="XMLID_43_">
		<use xlink:href="#XMLID_3_"  style="overflow:visible;"/>
	</clipPath>
	<g id="XMLID_4_" class="st0">
		<defs>
			<rect id="XMLID_5_" x="-1323.8" y="-999.8" width="6095.2" height="5500.2"/>
		</defs>
		<clipPath id="XMLID_74_">
			<use xlink:href="#XMLID_5_"  style="overflow:visible;"/>
		</clipPath>
		<g id="XMLID_6_" class="st1">
			<g id="XMLID_7_">
				<defs>
					<rect id="XMLID_8_" x="2" y="1" width="197" height="197"/>
				</defs>
				<clipPath id="XMLID_75_">
					<use xlink:href="#XMLID_8_"  style="overflow:visible;"/>
				</clipPath>
				<g id="XMLID_9_" class="st2">
					<defs>
						<rect id="XMLID_10_" x="2" y="1" width="197" height="197"/>
					</defs>
					<clipPath id="XMLID_76_">
						<use xlink:href="#XMLID_10_"  style="overflow:visible;"/>
					</clipPath>
					<rect id="XMLID_12_" x="-7.9" y="-8.9" class="st3" width="216.7" height="216.7"/>
				</g>
			</g>
		</g>
	</g>
</g>
<g id="XMLID_11_">
	<defs>
		<circle id="XMLID_13_" cx="100.5" cy="99.5" r="98.5"/>
	</defs>
	<clipPath id="XMLID_77_">
		<use xlink:href="#XMLID_13_"  style="overflow:visible;"/>
	</clipPath>
	<g id="XMLID_14_" class="st4">
		<defs>
			<rect id="XMLID_15_" x="-1323.8" y="-999.8" width="6095.2" height="5500.2"/>
		</defs>
		<clipPath id="XMLID_78_">
			<use xlink:href="#XMLID_15_"  style="overflow:visible;"/>
		</clipPath>
		<g id="XMLID_16_" class="st5">
			<g id="XMLID_17_">
				<defs>
					<rect id="XMLID_18_" x="219.3" y="41" width="102.4" height="128.1"/>
				</defs>
				<clipPath id="XMLID_79_">
					<use xlink:href="#XMLID_18_"  style="overflow:visible;"/>
				</clipPath>
				<g id="XMLID_19_" class="st6">
					<defs>
						<path id="XMLID_20_" d="M312.3,124.5c0.4,0,0.8,0.1,1.1,0.2c0.3,0.1,0.6,0.3,0.8,0.6c0.3,0.3,0.5,0.5,0.6,0.9
							c0.2,0.3,0.3,0.7,0.3,1v10.8c0,0.3-0.1,0.7-0.3,1c-0.2,0.3-0.4,0.6-0.6,0.9c-0.3,0.3-0.5,0.4-0.8,0.6
							c-0.3,0.1-0.6,0.2-1.1,0.2h-64.9l3.6,1.4l13.3,13.3c0.3,0.3,0.4,0.6,0.6,0.9c0.1,0.3,0.2,0.6,0.2,0.9c0,0.4-0.1,0.8-0.2,1.1
							c-0.1,0.3-0.3,0.6-0.6,0.9l-7.5,7.5c-0.3,0.3-0.5,0.4-0.9,0.6c-0.3,0.1-0.7,0.2-1,0.2c-0.3,0-0.7-0.1-1-0.2
							c-0.3-0.1-0.6-0.3-0.9-0.6l-32.1-32.1c-0.3-0.3-0.5-0.5-0.6-0.9s-0.3-0.7-0.3-1c0-0.3,0.1-0.7,0.3-1c0.2-0.3,0.4-0.6,0.6-0.9
							L253,98.5c0.3-0.3,0.5-0.4,0.9-0.6c0.3-0.1,0.7-0.2,1-0.2c0.3,0,0.7,0.1,1,0.2c0.3,0.1,0.6,0.3,0.9,0.6l7.5,7.5
							c0.3,0.3,0.4,0.5,0.6,0.9c0.1,0.3,0.2,0.7,0.2,1c0,0.4-0.1,0.8-0.2,1.1c-0.1,0.3-0.3,0.6-0.6,0.9L251,123.1l-3.6,1.4H312.3z
							 M321,76.2c0,0.3-0.1,0.7-0.3,1c-0.2,0.3-0.4,0.6-0.6,0.9L288,110.2c-0.3,0.3-0.5,0.4-0.9,0.6c-0.3,0.1-0.7,0.2-1,0.2
							s-0.7-0.1-1-0.2c-0.3-0.1-0.6-0.3-0.9-0.6l-7.5-7.5c-0.3-0.3-0.4-0.5-0.6-0.9c-0.1-0.3-0.2-0.7-0.2-1c0-0.4,0.1-0.8,0.2-1.1
							c0.1-0.3,0.3-0.6,0.6-0.9l13.4-13.4l3.1-1.3h-64.5c-0.4,0-0.8-0.1-1.1-0.2c-0.3-0.1-0.6-0.3-0.8-0.6c-0.3-0.3-0.5-0.5-0.6-0.9
							c-0.2-0.3-0.3-0.7-0.3-1V70.9c0-0.3,0.1-0.7,0.3-1c0.2-0.3,0.4-0.6,0.6-0.9c0.3-0.3,0.5-0.4,0.8-0.6c0.3-0.1,0.6-0.2,1.1-0.2
							h64.5l-3.6-1.8l-12.9-12.9c-0.3-0.3-0.4-0.6-0.6-0.9c-0.1-0.3-0.2-0.6-0.2-1.1c0-0.3,0.1-0.6,0.2-0.9c0.1-0.3,0.3-0.6,0.6-0.9
							l7.5-7.5c0.3-0.3,0.5-0.4,0.9-0.6c0.3-0.1,0.7-0.2,1-0.2s0.7,0.1,1,0.2c0.3,0.1,0.6,0.3,0.9,0.6l32.1,32.1
							c0.3,0.3,0.5,0.5,0.6,0.9C320.9,75.6,321,75.9,321,76.2z"/>
					</defs>
					<clipPath id="XMLID_80_">
						<use xlink:href="#XMLID_20_"  style="overflow:visible;"/>
					</clipPath>
					<g id="XMLID_23_" class="st7">
						<defs>
							<rect id="XMLID_24_" x="219.3" y="41" width="102.4" height="128.1"/>
						</defs>
						<clipPath id="XMLID_81_">
							<use xlink:href="#XMLID_24_"  style="overflow:visible;"/>
						</clipPath>
						<rect id="XMLID_25_" x="210.1" y="31.6" class="st8" width="120.7" height="145.5"/>
					</g>
				</g>
			</g>
		</g>
	</g>
</g>
<g id="XMLID_26_">
	<g id="XMLID_28_">
		<defs>
			<rect id="XMLID_29_" x="-1319.4" y="-1744.2" width="6090.8" height="5496.3"/>
		</defs>
		<clipPath id="XMLID_82_">
			<use xlink:href="#XMLID_29_"  style="overflow:visible;"/>
		</clipPath>
	</g>
</g>
<g id="XMLID_41_" class="st9">
	<g id="XMLID_44_">
		<defs>
			<circle id="XMLID_45_" cx="101" cy="100" r="99"/>
		</defs>
		<clipPath id="XMLID_83_">
			<use xlink:href="#XMLID_45_"  style="overflow:visible;"/>
		</clipPath>
		<g id="XMLID_46_" class="st10">
			<defs>
				<rect id="XMLID_47_" x="-1271.7" y="-3003.3" width="5890.5" height="5315.5"/>
			</defs>
			<clipPath id="XMLID_84_">
				<use xlink:href="#XMLID_47_"  style="overflow:visible;"/>
			</clipPath>
			<g id="XMLID_48_" class="st11">
				<g id="XMLID_49_">
					<defs>
						<rect id="XMLID_50_" x="42" y="39.1" width="110.4" height="112.3"/>
					</defs>
					<clipPath id="XMLID_85_">
						<use xlink:href="#XMLID_50_"  style="overflow:visible;"/>
					</clipPath>
					<g id="XMLID_51_" class="st12">
						<defs>
							<path id="XMLID_52_" d="M42,117.4l0.3,0.4l36.4-36.4l21.5,21.4c0.2,0.2,0.4,0.4,0.7,0.5c0.3,0.1,0.6,0.2,0.9,0.2
								c0.3,0,0.6-0.1,0.9-0.2c0.3-0.1,0.5-0.3,0.8-0.5l49-49v-13h-13l-37.5,37.6L80.4,56.9c-0.2-0.2-0.5-0.4-0.8-0.5
								c-0.3-0.1-0.6-0.2-0.9-0.2c-0.3,0-0.6,0.1-0.9,0.2c-0.3,0.1-0.5,0.3-0.8,0.5L42,92.2V117.4z M130.9,94.8v56.4h19.9V74.8
								L130.9,94.8z M111.5,114.2l-9.7,9.7v27.3h19.9v-47.2L111.5,114.2z M92,114.2l-13.3-13.3l-6.1,6.1v44.1h19.9v-36.4L92,114.2z
								 M43.5,136.2v15h19.9v-34.9L43.5,136.2z"/>
						</defs>
						<clipPath id="XMLID_86_">
							<use xlink:href="#XMLID_52_"  style="overflow:visible;"/>
						</clipPath>
						<g id="XMLID_71_" class="st13">
							<defs>
								<rect id="XMLID_72_" x="42" y="39.1" width="110.4" height="112.3"/>
							</defs>
							<clipPath id="XMLID_87_">
								<use xlink:href="#XMLID_72_"  style="overflow:visible;"/>
							</clipPath>
							<rect id="XMLID_73_" x="32.5" y="31.2" class="st14" width="129.5" height="129.5"/>
						</g>
					</g>
				</g>
			</g>
		</g>
	</g>
</g>
</svg>
